<svg width="60" height="60" viewBox="0 0 60 60" fill="none" xmlns="http://www.w3.org/2000/svg">
<circle cx="30" cy="30" r="30" transform="matrix(-4.37114e-08 1 1 4.37114e-08 0 0)" fill="#D21341"/>
<path fill-rule="evenodd" clip-rule="evenodd" d="M31.2071 33.5L31.2071 25C31.2071 24.4477 30.7594 24 30.2071 24C29.6548 24 29.2071 24.4477 29.2071 25L29.2071 33.5L31.2071 33.5Z" fill="#F5F5F5"/>
<path fill-rule="evenodd" clip-rule="evenodd" d="M30.2071 32.5858L28.1213 30.5C27.7308 30.1095 27.0976 30.1095 26.7071 30.5C26.3166 30.8905 26.3166 31.5237 26.7071 31.9142L29.5 34.7071C29.8905 35.0976 30.5237 35.0976 30.9142 34.7071L33.7071 31.9142C34.0976 31.5237 34.0976 30.8905 33.7071 30.5C33.3166 30.1095 32.6834 30.1095 32.2929 30.5L30.2071 32.5858Z" fill="#F5F5F5"/>
</svg>
