<svg width="36" height="40" viewBox="0 0 36 40" fill="none" xmlns="http://www.w3.org/2000/svg">
<path fill-rule="evenodd" clip-rule="evenodd" d="M21.9158 0C22.1676 0 22.6363 0.0173609 22.9575 0.039062C23.2787 0.0651034 23.8386 0.134547 24.1945 0.19097C24.5547 0.251733 25.1016 0.368919 25.4097 0.451384C25.7179 0.538188 26.1302 0.664055 26.3212 0.729158C26.5121 0.798602 26.8246 0.915788 27.0156 0.993912C27.2066 1.0677 27.6449 1.27603 27.9922 1.44964C28.3394 1.62758 28.8863 1.94442 29.2074 2.15709C29.5286 2.36976 29.9887 2.69962 30.2274 2.89059C30.4661 3.08156 30.8741 3.4418 31.1345 3.68919C31.3949 3.93659 31.7942 4.36627 32.0242 4.6397C32.2543 4.91314 32.5798 5.33414 32.7491 5.57285C32.9183 5.81156 33.1744 6.20218 33.3176 6.4409C33.4608 6.67961 33.6735 7.06155 33.7864 7.28724C33.8992 7.51293 34.0772 7.90355 34.177 8.15528C34.2812 8.40702 34.4331 8.82368 34.5155 9.08843C34.6023 9.35319 34.7108 9.71343 34.7586 9.89138C34.8063 10.0693 34.8844 10.4296 34.9365 10.6943C34.9843 10.9591 35.0537 11.4278 35.0884 11.736C35.1232 12.0441 35.1535 12.6735 35.1535 13.1248C35.1535 13.5762 35.1318 14.1535 35.1101 14.4052C35.0841 14.6569 35.0233 15.0866 34.9799 15.3601C34.9322 15.6335 34.8454 16.0545 34.789 16.2932C34.7282 16.5319 34.6284 16.8922 34.5676 17.0962C34.5025 17.3001 34.3549 17.7081 34.2334 18.0076C34.1162 18.3071 33.8819 18.8149 33.7169 19.1361C33.552 19.4572 33.4218 19.7263 33.4261 19.7307C33.4348 19.735 33.5954 19.8175 33.7864 19.913C33.9773 20.0084 34.2508 20.1821 34.3897 20.2949C34.5329 20.4077 34.7325 20.6248 34.8367 20.7767C34.9409 20.9242 35.0581 21.1586 35.0971 21.2975C35.1492 21.4624 35.1738 21.6823 35.1709 21.9572C35.1709 22.2697 35.1449 22.4303 35.0754 22.6082C35.0277 22.7384 34.9105 22.9468 34.8193 23.0683C34.7282 23.1898 33.6865 24.3183 30.3576 27.8686L29.2986 28.7236C28.717 29.1924 27.9054 29.8434 27.4974 30.1733C27.0894 30.5031 26.638 30.8503 26.4948 30.9458C26.3516 31.0413 26.0391 31.2149 25.8004 31.3278C25.5616 31.4449 25.2101 31.5882 25.0191 31.6533C24.8281 31.714 24.4766 31.8095 24.2379 31.8573C23.8212 31.9484 23.6519 31.9527 20.4185 31.9788C17.363 32.0048 17.0071 32.0178 16.7727 32.0873C16.6295 32.1264 16.4124 32.2045 16.2953 32.2566C16.1737 32.3043 15.9654 32.4128 15.8265 32.4909C15.6225 32.6081 15.5835 32.6515 15.5965 32.734C15.6052 32.7861 15.6442 32.964 15.6833 33.1333C15.7223 33.3026 15.7527 33.563 15.7527 33.7192C15.7527 33.8755 15.7223 34.1359 15.6876 34.3051C15.6486 34.4744 15.5574 34.7435 15.4793 34.9128C15.4055 35.0777 15.2623 35.3121 15.1668 35.4336C15.0713 35.5595 14.4246 36.2105 13.7345 36.8876C13.0444 37.5647 12.1634 38.424 11.7814 38.7973C11.1477 39.4179 11.0523 39.4961 10.6747 39.6827C10.3882 39.8259 10.1495 39.904 9.89342 39.9518C9.65905 39.9952 9.41166 40.0082 9.20767 39.9952C9.0384 39.9822 8.80403 39.9474 8.69118 39.9214C8.574 39.8954 8.3266 39.7999 8.13563 39.7087C7.94032 39.6132 7.65821 39.431 7.49762 39.2877C7.33269 39.1488 5.91778 37.7209 4.35096 36.115C2.51938 34.24 1.42565 33.0899 1.29978 32.9033C1.19127 32.7427 1.04805 32.4432 0.982942 32.2435C0.904818 32.0092 0.848395 31.7401 0.835374 31.5057C0.818013 31.2496 0.831034 31.0239 0.883117 30.7679C0.926519 30.5595 1.03502 30.2384 1.13051 30.03C1.30412 29.6611 1.31714 29.6524 3.07059 27.912C4.0428 26.9485 4.99331 26.0197 5.18862 25.8504C5.37959 25.6768 5.67039 25.4641 5.83965 25.3773C6.00458 25.2905 6.29538 25.1777 6.48635 25.1256C6.70336 25.0691 6.97245 25.0388 7.20249 25.0388C7.42384 25.0388 7.70161 25.0691 7.89692 25.1212C8.07487 25.169 8.25282 25.2167 8.28754 25.2341C8.33094 25.2514 8.74327 24.8869 9.63301 24.0362C10.3361 23.3634 11.0392 22.7081 11.1955 22.5779C11.3517 22.452 11.6425 22.261 11.8465 22.1612C12.0505 22.0614 12.2198 21.9746 12.2241 21.9702C12.2328 21.9615 12.0852 21.7749 11.8986 21.5492C11.7163 21.3279 11.4516 20.9893 11.317 20.8027C11.1825 20.6117 10.9394 20.2428 10.7788 19.9824C10.6182 19.7176 10.3535 19.2315 10.1929 18.8973C10.0323 18.5631 9.83266 18.1074 9.74586 17.8904C9.65905 17.6691 9.52451 17.2654 9.44204 17.0007C9.35958 16.7316 9.24673 16.2845 9.18597 16.0111C9.12521 15.7377 9.04274 15.308 9.00802 15.0562C8.96896 14.8045 8.91687 14.2707 8.89083 13.8627C8.85611 13.3158 8.85611 12.9426 8.89083 12.4087C8.91687 12.0137 8.96896 11.4886 9.00802 11.2368C9.04274 10.9851 9.12955 10.5381 9.19899 10.2386C9.26409 9.93912 9.3943 9.47037 9.4811 9.19694C9.57225 8.9235 9.71982 8.50684 9.81096 8.27681C9.90645 8.04244 10.1104 7.59106 10.2667 7.27856C10.4273 6.96172 10.6616 6.52336 10.7919 6.31069C10.9221 6.09802 11.1781 5.71608 11.3604 5.46434C11.5427 5.21261 11.8639 4.81331 12.0679 4.5746C12.2719 4.33589 12.6538 3.93659 12.9142 3.68485C13.1746 3.43312 13.5739 3.08156 13.7996 2.89927C14.0253 2.71698 14.3986 2.44355 14.6243 2.2873C14.85 2.13105 15.2493 1.87932 15.514 1.72741C15.7788 1.57984 16.1781 1.36717 16.4038 1.26301C16.6295 1.15884 17.0071 0.998252 17.2414 0.902767C17.4715 0.811622 17.8838 0.668395 18.1485 0.585931C18.4176 0.503466 18.8647 0.38628 19.1381 0.325517C19.4115 0.264754 19.8412 0.18663 20.093 0.147568C20.3447 0.112846 20.7527 0.0651034 21.0044 0.0434023C21.2561 0.0260414 21.6641 0.00434023 21.9158 0V0ZM20.093 1.9531C19.8195 2.00084 19.4072 2.08765 19.1815 2.14407C18.9558 2.20049 18.5652 2.31768 18.3135 2.40883C18.0617 2.49563 17.6624 2.65188 17.4237 2.75604C17.185 2.86021 16.777 3.0642 16.5123 3.21177C16.2475 3.35934 15.8482 3.60673 15.6225 3.76298C15.3968 3.91922 15.0626 4.16228 14.8847 4.30984C14.7067 4.45307 14.3465 4.77859 14.0861 5.03032C13.8257 5.28206 13.4481 5.69004 13.2397 5.94177C13.0357 6.18916 12.7016 6.64055 12.5062 6.94002C12.3066 7.2395 11.9984 7.77769 11.8248 8.13358C11.6469 8.49382 11.4342 8.97993 11.3474 9.21864C11.2563 9.45735 11.1217 9.88704 11.0436 10.1735C10.9655 10.4599 10.8613 10.9374 10.8092 11.2368C10.7615 11.5363 10.6964 12.0832 10.6703 12.4521C10.6313 12.9686 10.6313 13.2898 10.6703 13.841C10.7007 14.2359 10.7615 14.7828 10.8092 15.0562C10.857 15.3297 10.9438 15.742 11.0002 15.9677C11.0566 16.1934 11.1825 16.6144 11.2823 16.9008C11.3821 17.1873 11.6252 17.7515 11.8205 18.1595C12.0201 18.5675 12.3413 19.1317 12.5323 19.4182C12.7233 19.7046 13.014 20.1039 13.1746 20.3079C13.3396 20.5119 13.7128 20.9156 14.0036 21.2107L14.5375 21.7402C17.2805 21.7662 17.5496 21.7793 17.7709 21.8444C17.9142 21.8878 18.205 22.0049 18.422 22.1048C18.639 22.2089 19.0513 22.4607 19.3421 22.669L19.8759 23.0423C24.1945 23.0423 24.6849 23.0553 24.9323 23.1074C25.1016 23.1421 25.362 23.2332 25.5182 23.307C25.6745 23.3808 25.8741 23.498 25.9609 23.5674L26.1259 23.6933L27.7535 22.7167C29.2856 21.0675 29.8628 20.4772 30.0234 20.3383C30.184 20.1994 30.4401 20.0215 30.5963 19.9433C30.7525 19.8652 30.9826 19.7654 31.1084 19.7263C31.3124 19.6612 31.3515 19.6308 31.5468 19.3444C31.6597 19.1708 31.855 18.8453 31.9808 18.6283C32.1024 18.4069 32.289 18.0293 32.3975 17.7906C32.506 17.5519 32.6709 17.1265 32.7708 16.8488C32.8662 16.5666 32.9921 16.1413 33.0529 15.9026C33.1093 15.6639 33.2004 15.2342 33.2482 14.9477C33.3089 14.5875 33.3437 14.1405 33.361 13.4938C33.3784 12.8992 33.3654 12.3696 33.335 12.0398C33.3046 11.7533 33.2308 11.2629 33.1701 10.9547C33.1136 10.6466 32.9964 10.1691 32.914 9.9044C32.8315 9.6353 32.6883 9.2143 32.5885 8.97125C32.493 8.72386 32.276 8.25945 32.111 7.93827C31.9418 7.6171 31.6814 7.16571 31.5338 6.94002C31.3819 6.71433 31.1258 6.34975 30.9565 6.13708C30.7873 5.92441 30.4791 5.56417 30.2664 5.33848C30.0538 5.11279 29.6849 4.76123 29.4461 4.55724C29.2074 4.34891 28.8168 4.04509 28.5781 3.87582C28.3394 3.70655 27.9488 3.45048 27.71 3.31159C27.4713 3.17271 27.0807 2.96871 26.842 2.85587C26.6033 2.74736 26.1823 2.57375 25.9089 2.46959C25.6354 2.36976 25.1537 2.2222 24.8455 2.14407C24.5373 2.06161 24.0078 1.95744 23.6736 1.90536C23.296 1.84894 22.7622 1.80987 22.2631 1.79685C21.8204 1.78817 21.2648 1.80119 21.0261 1.8229C20.7874 1.8446 20.3664 1.90102 20.093 1.9531ZM31.3558 21.5536C31.2256 21.636 30.7482 22.1135 30.1753 22.7254C29.6501 23.294 29.1119 23.8582 28.9817 23.9754C28.8559 24.1013 28.3611 24.4311 27.862 24.7306L26.9722 25.2645C26.9983 25.794 26.9766 25.9849 26.9071 26.2323C26.8594 26.4233 26.7465 26.7054 26.6597 26.8617C26.5729 27.0179 26.3906 27.2523 26.2604 27.3868C26.1259 27.517 25.8958 27.6993 25.7483 27.7861C25.5964 27.8729 25.3316 27.9901 25.1623 28.0422C24.8455 28.142 24.8368 28.142 21.7856 28.142C20.1016 28.142 18.6737 28.129 18.6043 28.1073C18.5392 28.0899 18.4176 28.0118 18.3265 27.9337C18.2397 27.8599 18.1355 27.7167 18.0921 27.6212C18.0487 27.5257 18.0096 27.3651 18.0096 27.261C18.0096 27.1611 18.04 27.0049 18.0791 26.9137C18.1138 26.8269 18.1876 26.7054 18.2397 26.6533C18.2918 26.5969 18.3959 26.5188 18.4654 26.4797C18.5826 26.4146 18.9124 26.4016 21.6337 26.3842C24.4202 26.3625 24.6849 26.3582 24.8151 26.2844C24.8889 26.2453 25.0061 26.1368 25.0712 26.05C25.1754 25.9155 25.1927 25.8504 25.1927 25.603C25.1927 25.3469 25.1754 25.2948 25.0625 25.1473C24.9931 25.0561 24.8542 24.9433 24.7587 24.8999C24.5981 24.8304 24.3898 24.8218 22.0981 24.8218C19.6937 24.8218 19.6068 24.8174 19.3421 24.7306C19.1945 24.6785 18.9168 24.531 18.7258 24.4008C18.5348 24.2705 18.2223 24.0579 18.0313 23.9277C17.8274 23.7844 17.5669 23.6542 17.402 23.6021C17.1373 23.524 16.9897 23.5197 15.1755 23.5197C13.3179 23.5197 13.2224 23.524 12.962 23.6108C12.8144 23.6629 12.593 23.7671 12.4759 23.8452C12.3543 23.9233 11.9377 24.2966 11.5427 24.6742C11.1477 25.0474 10.5879 25.5943 10.2927 25.8808L9.75888 26.4059C10.4707 27.1308 10.705 27.4085 10.7398 27.491C10.7745 27.5735 10.8049 27.7384 10.8049 27.8599C10.8049 27.9858 10.7702 28.142 10.7224 28.2375C10.679 28.3287 10.5922 28.4458 10.5358 28.4979C10.4837 28.55 10.3622 28.6238 10.271 28.6585C10.1842 28.6976 10.028 28.728 9.92381 28.728C9.82398 28.728 9.66339 28.6889 9.56791 28.6455C9.4594 28.5934 9.09916 28.2679 8.63476 27.7948C8.08355 27.2349 7.81446 26.9962 7.65821 26.9224C7.50196 26.8486 7.36741 26.8183 7.18078 26.8183C7.01152 26.8183 6.85527 26.853 6.73374 26.9051C6.60787 26.9658 5.96552 27.5691 4.68081 28.8234C3.5567 29.9302 2.77546 30.7288 2.71903 30.833C2.64959 30.9588 2.62789 31.089 2.62355 31.3104C2.62355 31.5534 2.64525 31.6576 2.73205 31.8225C2.80584 31.9571 3.79107 32.9944 5.77021 35.0213C7.9273 37.2261 8.75195 38.0421 8.89517 38.1115C9.03406 38.181 9.16861 38.2114 9.3726 38.2114C9.59395 38.2114 9.70245 38.1853 9.86304 38.1028C9.99759 38.0334 10.7007 37.378 11.9116 36.1931C13.2397 34.8954 13.7866 34.3355 13.8561 34.1966C13.9298 34.0491 13.9515 33.9275 13.9515 33.6975C13.9472 33.4718 13.9255 33.346 13.8517 33.2071C13.7953 33.0986 13.1703 32.4302 12.3196 31.5578C11.5297 30.7548 10.8439 30.0213 10.8005 29.9302C10.7484 29.826 10.7181 29.6828 10.7181 29.5179C10.7181 29.3356 10.7484 29.2227 10.8266 29.0839C10.896 28.971 11.0132 28.8582 11.1391 28.7844C11.2997 28.6932 11.4038 28.6629 11.5861 28.6672C11.7337 28.6672 11.8856 28.6976 11.9767 28.7453C12.0592 28.7931 12.6495 29.3616 13.2875 30.0127C13.9298 30.668 14.468 31.2019 14.4941 31.2019C14.5158 31.2019 14.6503 31.1281 14.7849 31.0413C14.9237 30.9545 15.1928 30.8069 15.3838 30.7158C15.5748 30.6246 15.8873 30.4988 16.0782 30.4423C16.2692 30.3859 16.5991 30.3078 16.8161 30.2687C17.1416 30.2123 17.6972 30.2036 20.2015 30.2036C22.007 30.2036 23.3438 30.1863 23.5651 30.1602C23.7691 30.1342 24.0816 30.0734 24.2596 30.0257C24.4375 29.9779 24.7804 29.8434 25.0191 29.7305C25.2578 29.6134 25.5443 29.4528 25.6528 29.3747C25.7613 29.2922 26.599 28.6195 27.5191 27.8773L29.1857 26.5275C32.4149 23.0813 33.3654 22.0353 33.3827 21.9746C33.403 21.9051 33.3871 21.8299 33.335 21.7489C33.2916 21.6838 33.1267 21.5666 32.9574 21.4798C32.697 21.3496 32.6102 21.3279 32.289 21.3192C32.0763 21.3105 31.8463 21.3322 31.7465 21.3626C31.651 21.393 31.473 21.4798 31.3558 21.5536ZM26.9375 8.11188C27.0764 8.11188 27.2326 8.14226 27.3281 8.19435C27.4193 8.23775 27.5364 8.32455 27.5885 8.38098C27.6406 8.43306 27.7144 8.55459 27.7491 8.64139C27.7882 8.73254 27.8186 8.88444 27.8186 8.97993C27.8186 9.07541 27.7925 9.21864 27.7578 9.29242C27.7274 9.37055 26.3516 11.328 24.6979 13.6457C23.0443 15.9634 21.6251 17.9208 21.5426 17.9946C21.4645 18.0727 21.3212 18.1552 21.2301 18.1812C21.1433 18.2029 21.0087 18.2246 20.9393 18.2246C20.8699 18.2246 20.7093 18.1725 20.5834 18.1074C20.4011 18.0076 19.9758 17.5736 18.4133 15.8852C17.3456 14.7307 16.4211 13.7151 16.3604 13.6327C16.2822 13.5198 16.2475 13.4113 16.2345 13.216C16.2215 13.012 16.2388 12.9122 16.3083 12.7776C16.356 12.6821 16.4428 12.5606 16.4992 12.5085C16.5513 12.4564 16.6729 12.3827 16.7597 12.3479C16.8508 12.3089 17.0071 12.2785 17.1069 12.2785C17.211 12.2785 17.3716 12.3176 17.4671 12.3566C17.5973 12.4174 18.0574 12.8861 20.8742 15.9243L23.5955 12.1179C26.0694 8.66309 26.3385 8.30285 26.5165 8.21171C26.6467 8.1466 26.7812 8.11188 26.9375 8.11188Z" fill="#F5F5F5"/>
</svg>
