<svg width="40" height="31" viewBox="0 0 40 31" fill="none" xmlns="http://www.w3.org/2000/svg">
<path fill-rule="evenodd" clip-rule="evenodd" d="M9.91691 0.221081C9.73683 0.193376 9.27046 0.165671 8.87798 0.151818C8.43469 0.142583 7.97756 0.156436 7.67742 0.193376C7.40961 0.230316 6.99403 0.299579 6.75392 0.354989C6.51381 0.410399 6.13056 0.521219 5.89968 0.595099C5.66881 0.66898 5.21167 0.867533 4.88383 1.02915C4.55599 1.19076 4.10809 1.4401 3.89106 1.58786C3.67404 1.73101 3.39237 1.93418 3.2677 2.03576C3.13841 2.13735 2.88445 2.36822 2.69975 2.54831C2.51043 2.72839 2.21953 3.04238 2.04868 3.24555C1.87783 3.44872 1.61463 3.79042 1.47149 4.00744C1.32373 4.22446 1.07438 4.67236 0.908152 5.00021C0.746539 5.32805 0.552604 5.7898 0.478724 6.01606C0.400226 6.24232 0.289406 6.67174 0.22476 6.96265C0.160115 7.25355 0.0862351 7.74301 0.0539125 8.04776C0.0262075 8.37561 0.0169724 8.85121 0.030825 9.20214C0.049295 9.52998 0.0908526 9.99173 0.127793 10.218C0.164733 10.4443 0.238613 10.7906 0.284788 10.9799C0.335581 11.1692 0.441783 11.5155 0.524899 11.7418C0.603396 11.968 0.783479 12.379 0.917387 12.656C1.05591 12.9285 1.27755 13.321 1.41146 13.5287C1.54537 13.7412 1.81318 14.1013 2.00712 14.3276C2.19644 14.5585 2.51043 14.8909 2.69513 15.0664C2.88445 15.2465 3.17073 15.4958 3.33696 15.6251C3.50319 15.7544 3.76177 15.9437 3.91415 16.0453C4.06653 16.1469 4.36667 16.3223 4.58369 16.4424C4.80071 16.5578 5.16088 16.7287 5.39176 16.8257C5.62263 16.918 6.04744 17.0611 6.33834 17.1443C6.62925 17.2274 7.10023 17.3336 7.37728 17.3751C7.72821 17.4352 8.13456 17.4583 8.69327 17.4583C9.22429 17.4583 9.65833 17.4305 9.96309 17.3798C10.2171 17.3382 10.6603 17.2412 10.9466 17.1673C11.2283 17.0889 11.6254 16.9642 11.8193 16.8857C12.0179 16.8072 12.378 16.641 12.6182 16.5209C12.8583 16.3962 13.2323 16.1792 13.4493 16.0314C13.6663 15.8883 13.9757 15.662 14.1419 15.5281C14.3082 15.3942 14.6222 15.0987 14.8438 14.8724C15.0654 14.6508 15.3379 14.3507 15.4487 14.2121C15.5595 14.0736 15.7812 13.7596 15.9428 13.5195C16.0998 13.2794 16.3306 12.8731 16.4507 12.6191C16.5754 12.3651 16.7277 12.0142 16.797 11.8341C16.8617 11.654 16.9771 11.2846 17.051 11.003C17.1249 10.7213 17.208 10.338 17.2449 10.1487C17.2818 9.93171 17.3049 9.40993 17.3049 8.76348C17.3049 8.07547 17.2818 7.61372 17.2403 7.40131C17.208 7.22123 17.1433 6.92109 17.0925 6.73177C17.0464 6.54245 16.954 6.22385 16.8894 6.02529C16.8247 5.83136 16.6862 5.47581 16.58 5.24493C16.4784 5.00944 16.2983 4.65851 16.1829 4.46919C16.0721 4.27987 15.892 3.99821 15.7904 3.84583C15.6842 3.69345 15.4995 3.4441 15.3702 3.29173C15.2455 3.13935 15.0377 2.90386 14.9084 2.76533C14.7792 2.63142 14.4652 2.34975 14.2112 2.14197C13.9572 1.93418 13.6063 1.66636 13.4262 1.55092C13.2461 1.43549 12.9275 1.24155 12.7105 1.12611C12.4935 1.01068 12.0779 0.825975 11.787 0.715155C11.4961 0.604334 11.0251 0.456574 10.7481 0.391929C10.471 0.322666 10.097 0.248786 9.91691 0.221081ZM7.00791 1.67099C7.28496 1.60634 7.65898 1.53708 7.83906 1.51861C8.01914 1.49552 8.36084 1.47705 8.60095 1.47243C8.84106 1.47243 9.23816 1.4909 9.47827 1.51399C9.71838 1.5417 10.134 1.61096 10.4018 1.6756C10.6696 1.73563 11.1036 1.87416 11.3715 1.98036C11.6393 2.08656 12.0548 2.28512 12.295 2.42364C12.5351 2.55755 12.8768 2.77919 13.0568 2.90848C13.2369 3.04239 13.5879 3.35638 13.8418 3.61496C14.1004 3.86892 14.4005 4.20138 14.516 4.35376C14.6268 4.50614 14.8115 4.76934 14.9177 4.9448C15.0239 5.11565 15.204 5.44811 15.3148 5.6836C15.4256 5.91448 15.5457 6.20076 15.5872 6.3162C15.6242 6.43164 15.6981 6.68099 15.7489 6.8703C15.8043 7.05962 15.8828 7.40593 15.9243 7.63219C15.9751 7.90924 16.0028 8.28326 16.0028 8.76348C16.0028 9.2945 15.9751 9.62234 15.9012 10.0333C15.8458 10.3381 15.7211 10.8275 15.6242 11.1184C15.5272 11.4093 15.3517 11.8387 15.2363 12.065C15.1255 12.2913 14.9038 12.6699 14.7515 12.8962C14.5945 13.1224 14.3313 13.4733 14.1558 13.6673C13.985 13.8612 13.6987 14.1475 13.5186 14.3045C13.3385 14.4615 13.0384 14.7016 12.8491 14.8355C12.6597 14.9694 12.2857 15.1911 12.0179 15.3296C11.7501 15.4635 11.3761 15.6297 11.1868 15.699C10.9974 15.7682 10.6327 15.8745 10.3787 15.9345C10.1247 15.9991 9.66759 16.073 9.36284 16.1053C9.03499 16.1423 8.61018 16.1515 8.3239 16.133C8.05608 16.1192 7.67283 16.0776 7.46966 16.0407C7.26649 16.0037 6.96635 15.9391 6.80012 15.8975C6.63389 15.856 6.38454 15.7821 6.24602 15.7313C6.10749 15.6805 5.84891 15.5743 5.66883 15.4958C5.48874 15.4173 5.17014 15.2511 4.95311 15.1218C4.73609 14.9925 4.43595 14.794 4.28357 14.6785C4.1312 14.5677 3.89109 14.3691 3.75256 14.2399C3.61404 14.1106 3.36007 13.8474 3.18461 13.658C3.00914 13.4687 2.76903 13.1686 2.64898 12.9885C2.5243 12.8084 2.32113 12.4667 2.19184 12.2266C2.06255 11.9865 1.88247 11.5802 1.79012 11.3262C1.69315 11.0722 1.56386 10.6243 1.49922 10.3334C1.39763 9.87169 1.38378 9.68237 1.37916 8.90201C1.37454 8.214 1.39301 7.89077 1.45766 7.53984C1.50383 7.28588 1.62389 6.82875 1.72547 6.52399C1.82706 6.21924 1.99329 5.80366 2.09026 5.60049C2.19184 5.39732 2.4181 5.00483 2.6028 4.72316C2.84291 4.35376 3.08302 4.06286 3.49398 3.65652C3.79874 3.35176 4.18661 3.00545 4.35284 2.89001C4.51907 2.76995 4.84229 2.56678 5.06855 2.43288C5.29943 2.30359 5.715 2.10503 5.99205 1.9896C6.2691 1.87877 6.73086 1.73563 7.00791 1.67099Z" fill="#F6F6F6"/>
<path fill-rule="evenodd" clip-rule="evenodd" d="M24.4298 8.11702H18.6671V9.4561H21.9917V19.4761H23.3308L23.3539 9.47919C28.6502 9.47919 30.2478 9.49766 30.3263 9.51613C30.414 9.54384 30.6911 9.78395 31.079 10.1626L31.6931 10.7721L28.3408 10.8183C27.9852 11.0076 27.7913 11.1553 27.6851 11.2754C27.5558 11.4139 27.4635 11.5709 27.4173 11.7279C27.3573 11.9403 27.348 12.4344 27.3573 15.228L27.3574 15.2639C27.3711 18.4055 27.3715 18.4887 27.4681 18.6911C27.5189 18.8066 27.6343 18.9728 27.722 19.0605C27.8098 19.1483 27.9852 19.2729 28.1099 19.3376L28.3408 19.453L38.6609 19.4761C38.6609 24.9109 38.6563 24.9986 38.5686 25.1464C38.5178 25.2249 38.4208 25.3311 38.3515 25.3773C38.2453 25.4419 38.0976 25.4558 37.428 25.4696C36.6338 25.4789 36.6292 25.4789 36.6061 25.3773C36.5923 25.3172 36.5507 25.1371 36.5184 24.9709C36.4815 24.8047 36.4076 24.5692 36.3522 24.4399C36.3448 24.4234 36.3367 24.4051 36.328 24.3855C36.2715 24.2578 36.1906 24.0752 36.1305 23.9551C36.0613 23.8166 35.8904 23.5441 35.7473 23.3548C35.6087 23.1655 35.3455 22.8792 35.1701 22.7176C34.9946 22.556 34.7499 22.3574 34.6206 22.2697C34.4959 22.1866 34.2743 22.0573 34.1358 21.9834C33.9972 21.9049 33.7156 21.7895 33.5124 21.7248C33.3092 21.6602 33.0183 21.5817 32.8659 21.5494C32.7136 21.517 32.3303 21.4893 32.0117 21.4893C31.6931 21.4893 31.3098 21.517 31.1575 21.5494C31.0051 21.5817 30.7465 21.6509 30.5803 21.7017C30.414 21.7572 30.1462 21.8634 29.98 21.9419C29.8138 22.025 29.5321 22.1866 29.3566 22.302C29.1812 22.4221 28.9041 22.653 28.7425 22.8099C28.5855 22.9716 28.3639 23.2255 28.2484 23.3779C28.1376 23.5303 27.9483 23.8397 27.8375 24.0705C27.722 24.3014 27.5743 24.6939 27.5096 24.9479C27.445 25.2018 27.3803 25.4188 27.3665 25.4281C27.3526 25.4373 25.2424 25.4419 22.6705 25.4419C20.0985 25.4373 17.9883 25.4235 17.9745 25.405C17.9606 25.3911 17.9052 25.188 17.8452 24.9525C17.7898 24.7216 17.6743 24.3891 17.5866 24.2091C17.5035 24.029 17.3419 23.7427 17.2264 23.5626C17.111 23.3825 16.9263 23.1378 16.8155 23.0131C16.7047 22.8884 16.4692 22.6668 16.2891 22.5237C16.109 22.3805 15.8827 22.2143 15.7812 22.1543C15.6796 22.0896 15.481 21.988 15.3425 21.9188C15.204 21.8541 14.9592 21.7572 14.8022 21.7017C14.6406 21.6463 14.3174 21.5678 14.0865 21.5309C13.851 21.494 13.5232 21.4616 13.357 21.4616C13.1907 21.4616 12.849 21.494 12.5951 21.5355C12.3411 21.5771 11.9763 21.6694 11.787 21.7387C11.5977 21.8079 11.3391 21.9188 11.2098 21.9834C11.0851 22.0481 10.8358 22.2051 10.6557 22.3297C10.4756 22.4544 10.2078 22.6807 10.0601 22.8284C9.90768 22.9808 9.69989 23.2163 9.59831 23.3548C9.49672 23.4933 9.33511 23.7519 9.24276 23.932C9.14579 24.1121 9.0165 24.3984 8.94724 24.5785C8.88259 24.7585 8.81795 24.994 8.8041 25.1095C8.79024 25.2249 8.76715 25.345 8.74868 25.3773C8.7256 25.4235 8.52704 25.4373 7.9083 25.4373C7.20182 25.4373 7.08638 25.4281 6.98941 25.3542C6.92939 25.308 6.84165 25.2203 6.79086 25.1556C6.70775 25.0448 6.70313 24.9201 6.68928 22.8931C6.68471 22.3089 6.68015 21.6707 6.67614 21.1103C6.67204 20.5368 6.66852 20.0448 6.66619 19.7762L6.66157 18.8066H5.34558C5.34558 20.4181 5.35482 21.8911 5.36867 23.1239L5.39176 25.3634C5.63648 25.8298 5.79348 26.0561 5.89968 26.1715C6.00588 26.2869 6.21829 26.4439 6.36605 26.527C6.51843 26.6055 6.73083 26.6979 6.84627 26.7256C6.96171 26.7579 7.42808 26.7902 7.88521 26.7995C8.49934 26.8133 8.7256 26.8318 8.74868 26.8734C8.76715 26.9057 8.78563 26.9749 8.78563 27.0257C8.78563 27.0765 8.81795 27.2428 8.85489 27.3951C8.89645 27.5475 9.03035 27.88 9.15041 28.1339C9.27046 28.3879 9.46902 28.7204 9.58445 28.8727L9.61738 28.9145C9.73112 29.0589 9.86309 29.2265 9.92615 29.3022L10.0554 29.4545L0.0123549 29.4499V30.789L32.8198 30.7659C33.4662 30.5674 33.8079 30.4335 33.9972 30.3457C34.1866 30.2534 34.4775 30.0918 34.6437 29.9809C34.8099 29.8701 35.1101 29.6069 35.3178 29.3945C35.521 29.1821 35.7796 28.8774 35.8904 28.7111C36.0012 28.5449 36.1628 28.254 36.2506 28.0647C36.3383 27.8754 36.4445 27.5752 36.4907 27.3951C36.5322 27.2151 36.583 27.0165 36.6015 26.9472L36.6292 26.8179C37.7189 26.8179 38.1622 26.7949 38.3146 26.7718C38.467 26.7441 38.7163 26.6656 38.8687 26.5917C39.0211 26.5224 39.2381 26.3793 39.3535 26.2777C39.469 26.1715 39.6352 25.9683 39.7229 25.8206C39.8107 25.6682 39.9076 25.4327 39.94 25.2942C39.9861 25.1002 40 24.1167 40 21.2077C40 17.9431 39.9908 17.352 39.9354 17.2135C39.8892 17.1073 38.4208 15.6066 35.581 12.7761C31.6469 8.84659 31.2729 8.48643 30.9959 8.35252C30.8296 8.27402 30.5803 8.1909 30.4418 8.1632C30.2801 8.13088 28.133 8.11702 24.4298 8.11702ZM28.6871 18.137V12.1343H33.0507L38.6609 17.7445V18.137H28.6871ZM12.6644 22.87C12.4981 22.9023 12.258 22.9762 12.1333 23.027C12.0041 23.0824 11.8194 23.1701 11.7178 23.2255C11.6162 23.2809 11.45 23.3871 11.3484 23.4656C11.2468 23.5441 11.0621 23.715 10.9374 23.8397C10.8127 23.9689 10.6373 24.186 10.5495 24.3245C10.4618 24.463 10.3279 24.717 10.254 24.8925C10.1848 25.0633 10.1016 25.3542 10.0739 25.5389C10.0462 25.719 10.0324 26.0884 10.0462 26.3562C10.0647 26.7118 10.1016 26.9334 10.1894 27.1874C10.254 27.3767 10.3925 27.6722 10.4941 27.8477C10.5957 28.0185 10.8174 28.2956 10.9928 28.471C11.1683 28.6465 11.4638 28.8774 11.6716 28.9974C11.8748 29.1129 12.198 29.2606 12.3873 29.3206C12.6782 29.4084 12.8352 29.4268 13.357 29.4268C13.8695 29.4268 14.0358 29.4084 14.2805 29.3299C14.4467 29.2745 14.6961 29.1729 14.8346 29.1036C14.9731 29.0344 15.1532 28.9328 15.2271 28.8774C15.301 28.8266 15.4995 28.6557 15.6565 28.5033C15.8181 28.351 16.0167 28.1247 16.0998 27.9954C16.1829 27.8707 16.2983 27.6768 16.3491 27.5706C16.4045 27.4598 16.5015 27.1689 16.5662 26.9242C16.6354 26.6656 16.6816 26.3424 16.6816 26.1715C16.6816 26.0053 16.6631 25.7559 16.6354 25.6174C16.6077 25.4789 16.5477 25.2295 16.4969 25.0633C16.4461 24.8971 16.326 24.6293 16.2337 24.4676C16.1367 24.3014 15.9336 24.0336 15.7766 23.8674C15.6196 23.6965 15.361 23.4749 15.1994 23.3687C15.0378 23.2625 14.7699 23.1193 14.6037 23.0501C14.4375 22.9854 14.1512 22.9023 13.9665 22.8654C13.7864 22.8284 13.4817 22.8007 13.3016 22.8053C13.1169 22.8053 12.8306 22.8377 12.6644 22.87ZM30.8112 23.0316C30.9497 22.9762 31.199 22.9023 31.3653 22.8654C31.55 22.8284 31.8409 22.81 32.1272 22.8238C32.3811 22.833 32.7136 22.8746 32.866 22.9162C33.0183 22.9577 33.2908 23.0593 33.4662 23.1424C33.6417 23.2301 33.9141 23.3964 34.0665 23.521C34.2189 23.6411 34.4405 23.8535 34.5606 23.9967C34.6853 24.1398 34.8746 24.4446 34.99 24.6708C35.1147 24.9248 35.2209 25.2249 35.2671 25.4466C35.304 25.6405 35.3363 25.9499 35.3363 26.1253C35.3363 26.3054 35.304 26.6102 35.2671 26.8087C35.2209 27.0396 35.1147 27.3259 34.9669 27.626C34.8192 27.9123 34.6437 28.1847 34.4913 28.3463C34.362 28.4895 34.1589 28.6788 34.0434 28.7665C33.928 28.8589 33.7202 28.9928 33.5817 29.0713C33.4432 29.1452 33.18 29.256 33.0045 29.316C32.7228 29.413 32.5935 29.4268 32.0117 29.4268C31.4253 29.4268 31.3006 29.413 31.019 29.316C30.8435 29.256 30.5803 29.1452 30.4418 29.0667C30.3032 28.9928 30.1139 28.8774 30.0262 28.8127C29.9385 28.7435 29.7584 28.5865 29.6291 28.4572C29.5044 28.3325 29.3243 28.1109 29.2366 27.9723C29.1443 27.8338 29.0242 27.6168 28.9688 27.4875C28.9088 27.3628 28.821 27.0904 28.7749 26.8872C28.7287 26.684 28.6871 26.3424 28.6871 26.1253C28.6871 25.8945 28.7241 25.5805 28.7749 25.3634C28.8256 25.1603 28.9134 24.8925 28.9688 24.7632C29.0242 24.6385 29.1581 24.4076 29.2643 24.2552C29.3705 24.1029 29.5921 23.8535 29.7538 23.7011C29.9154 23.5488 30.1647 23.3594 30.3032 23.2763C30.4418 23.1978 30.6726 23.087 30.8112 23.0316ZM18.1869 26.818L17.9653 26.841C17.7944 27.5198 17.6467 27.9169 17.5266 28.157C17.4112 28.3971 17.2311 28.7111 17.1249 28.8497C17.0233 28.9882 16.8663 29.1821 16.7739 29.2791L16.6123 29.4546C27.4635 29.4499 28.6825 29.4361 28.6548 29.3945C28.6363 29.3622 28.5394 29.2329 28.4332 29.1036C28.3626 29.017 28.2742 28.9037 28.2036 28.8131C28.1725 28.7733 28.1449 28.7379 28.1238 28.7111C28.0591 28.6234 27.916 28.351 27.8006 28.1109C27.6851 27.8707 27.5466 27.4875 27.4912 27.2566C27.4833 27.2244 27.4756 27.1929 27.4682 27.1625C27.4234 26.9789 27.3883 26.8351 27.3804 26.8272C27.3757 26.818 25.3533 26.8087 22.8921 26.8041C20.4264 26.7995 18.3116 26.8041 18.1869 26.818Z" fill="#F6F6F6"/>
<path d="M3.33696 19.4761V18.137C2.34882 18.137 2.04406 18.1509 2.02097 18.1693C1.99788 18.1832 1.98403 18.488 1.98865 18.8389L1.99788 19.4761H3.33696Z" fill="#F6F6F6"/>
<path d="M3.33696 20.8152H1.34682L1.37452 22.1312H3.33696V20.8152Z" fill="#F6F6F6"/>
<path d="M27.9945 20.8152H25.3625V22.1312L27.9945 22.1543V20.8152Z" fill="#F6F6F6"/>
<path d="M3.33696 24.7862L3.32311 23.4564C0.843507 23.461 0.0954701 23.4703 0.05853 23.4795C0.00311991 23.498 -0.0061151 23.618 0.00311992 24.1444L0.0123549 24.7862H3.33696Z" fill="#F6F6F6"/>
<path fill-rule="evenodd" clip-rule="evenodd" d="M7.82215 2.88577C7.92559 2.86194 8.0104 2.84241 8.04682 2.8346C8.11147 2.82537 8.45317 2.82075 8.80871 2.82998C9.31664 2.84384 9.54751 2.87154 9.89383 2.96389C10.1339 3.02854 10.508 3.17168 10.725 3.27788C10.942 3.38409 11.2329 3.55493 11.3714 3.65652C11.51 3.7581 11.7362 3.94742 11.8747 4.0721C12.0086 4.20139 12.2349 4.44611 12.3688 4.61696C12.5073 4.79243 12.6182 4.93557 12.6182 4.94019C12.6135 4.94942 12.6874 5.07871 12.7798 5.23109C12.8721 5.38347 13.0153 5.72516 13.103 5.99298C13.1861 6.2608 13.2831 6.67637 13.3154 6.91648C13.3431 7.15659 13.357 7.51214 13.3385 7.70146C13.3246 7.89078 13.26 8.25556 13.1953 8.50952C13.1261 8.76349 12.9922 9.16983 12.8906 9.40994C12.789 9.65005 12.5905 10.0564 12.4473 10.3104C12.3088 10.5643 12.0317 11.0215 11.8286 11.3262C11.63 11.631 11.2606 12.1527 11.002 12.4806C10.7481 12.8084 10.2817 13.3718 9.97233 13.7227C9.66295 14.0736 9.30279 14.4569 9.17811 14.5677C9.04882 14.6785 8.88259 14.7801 8.80871 14.794C8.73483 14.8078 8.59631 14.8078 8.50858 14.7893C8.38852 14.7663 8.25461 14.66 7.95909 14.3599C7.74669 14.1383 7.40037 13.7596 7.19258 13.5195C6.9848 13.2794 6.65234 12.8731 6.44917 12.6191C6.25061 12.3651 5.92739 11.9265 5.73345 11.6494C5.53952 11.3678 5.28555 10.9845 5.17473 10.7952C5.05929 10.6059 4.86998 10.2596 4.75454 10.0333C4.6391 9.80243 4.50981 9.52538 4.46825 9.40994C4.44847 9.35498 4.41927 9.27282 4.38712 9.18238C4.35175 9.08284 4.31281 8.97328 4.27894 8.87892C4.21891 8.69884 4.13579 8.38023 4.09885 8.16321C4.06191 7.94619 4.02959 7.61834 4.02959 7.43364C4.02959 7.25356 4.05268 6.9488 4.08038 6.7641C4.10809 6.58402 4.17273 6.2885 4.22353 6.10842C4.27432 5.92833 4.39437 5.6282 4.48672 5.43888C4.58369 5.24956 4.74069 4.96789 4.84227 4.81551C4.94847 4.66314 5.1655 4.40456 5.32711 4.23833C5.48872 4.07209 5.73807 3.85045 5.87659 3.74425C6.01512 3.63805 6.25523 3.48105 6.40761 3.39794C6.55999 3.31021 6.8001 3.19477 6.93862 3.13936C7.07715 3.07933 7.35882 2.99621 7.56199 2.94542C7.65067 2.92527 7.74201 2.90423 7.82215 2.88577ZM7.97756 4.21522C7.82518 4.24754 7.57584 4.32604 7.42346 4.38607C7.27108 4.45071 7.02173 4.58 6.86936 4.67697C6.71698 4.77394 6.47687 4.97249 6.33834 5.11102C6.19982 5.25416 6.00126 5.49427 5.89968 5.64665C5.80271 5.79903 5.65957 6.06684 5.58569 6.24692C5.51643 6.42701 5.43331 6.70406 5.4056 6.87029C5.3779 7.03652 5.36866 7.3736 5.38252 7.63218C5.40099 7.9554 5.44254 8.1909 5.52104 8.41715C5.58569 8.59724 5.71498 8.91585 5.80733 9.13287C5.89968 9.34989 6.06129 9.6685 6.16288 9.84858C6.26908 10.0287 6.47687 10.3611 6.62925 10.5874C6.78162 10.8136 7.02173 11.16 7.16026 11.3493C7.3034 11.5386 7.54351 11.8526 7.69589 12.0419C7.84827 12.2312 8.12994 12.5591 8.32387 12.7715C8.51319 12.9839 8.68404 13.1501 8.69789 13.1409C8.71174 13.1316 8.86874 12.9608 9.0442 12.7576C9.21967 12.5544 9.45978 12.2728 9.57522 12.1343C9.69065 11.9957 9.94 11.6725 10.1339 11.4185C10.3233 11.1646 10.6234 10.7398 10.7989 10.4719C10.9743 10.2041 11.2606 9.69621 11.4453 9.34066C11.6254 8.98511 11.8193 8.51874 11.8794 8.30172C11.9671 8.00158 11.9902 7.79379 11.9902 7.42439C11.9902 7.11502 11.9625 6.83335 11.9117 6.63941C11.8701 6.47318 11.7501 6.17304 11.6485 5.96987C11.5469 5.7667 11.3853 5.50812 11.2929 5.39268C11.2006 5.27725 11.0066 5.07869 10.8635 4.95402C10.7204 4.82473 10.4387 4.63541 10.2355 4.52921C10.037 4.42301 9.69527 4.29372 9.47825 4.24292C9.21967 4.17828 8.94262 4.14596 8.67019 4.15057C8.43931 4.15057 8.12994 4.17828 7.97756 4.21522Z" fill="#F6F6F6"/>
<path d="M12.6782 26.1761C12.6736 25.8344 12.6736 25.5297 12.6828 25.4973C12.692 25.4604 12.8767 25.4419 13.2692 25.4419C13.5832 25.4373 13.8787 25.4466 13.9203 25.4558C13.9942 25.4789 14.0034 25.5481 14.0034 26.818L12.6874 26.7949L12.6782 26.1761Z" fill="#F6F6F6"/>
<path d="M31.3653 26.818H32.6582V25.4789H31.3653V26.818Z" fill="#F6F6F6"/>
<path fill-rule="evenodd" clip-rule="evenodd" d="M8.1392 5.5497C8.02376 5.58202 7.83906 5.6559 7.72362 5.71593C7.60818 5.77596 7.40501 5.93295 7.2711 6.07148C7.1372 6.20539 6.97097 6.4455 6.89247 6.60711C6.81859 6.7641 6.73085 7.0273 6.70315 7.19353C6.65697 7.44288 6.66159 7.5537 6.72624 7.83998C6.76779 8.04777 6.86476 8.29712 6.96635 8.46335C7.05408 8.61573 7.17414 8.78657 7.22955 8.8466C7.28496 8.90663 7.4558 9.03592 7.60818 9.1375C7.76056 9.23447 8.00067 9.34991 8.1392 9.39147C8.31466 9.44226 8.51783 9.46073 8.78565 9.44688C9.12273 9.43303 9.22431 9.40994 9.52445 9.26218C9.71377 9.16983 9.94926 9.01283 10.0508 8.91586C10.1478 8.8189 10.2863 8.65728 10.3556 8.5557C10.4249 8.45411 10.5264 8.22785 10.5819 8.04777C10.6373 7.87231 10.6788 7.60449 10.6788 7.46135C10.6788 7.31359 10.6327 7.04577 10.5726 6.86107C10.508 6.64867 10.3925 6.42241 10.2633 6.25156C10.1478 6.1038 9.94002 5.90986 9.8015 5.81751C9.66297 5.72516 9.46442 5.61896 9.36284 5.58664C9.26125 5.5497 8.99343 5.51276 8.76256 5.50352C8.5086 5.49429 8.26849 5.51276 8.1392 5.5497ZM8.25463 6.97651C8.15305 7.06424 8.06993 7.19353 8.04222 7.29511C8.01914 7.39208 8.01452 7.52599 8.02837 7.59525C8.04684 7.66913 8.09764 7.77995 8.14381 7.84922C8.1946 7.9231 8.29619 8.01083 8.37007 8.04777C8.44395 8.08471 8.59633 8.11703 8.70253 8.11703C8.81335 8.11703 8.96111 8.07547 9.03961 8.0293C9.11349 7.98312 9.21507 7.86769 9.25663 7.77533C9.30281 7.68298 9.33975 7.54446 9.33975 7.47058C9.33975 7.3967 9.30742 7.25817 9.27048 7.17044C9.23354 7.08271 9.13196 6.96727 9.04884 6.91648C8.95187 6.85645 8.81797 6.82413 8.66097 6.82413C8.45318 6.82413 8.39777 6.84722 8.25463 6.97189V6.97651Z" fill="#F6F6F6"/>
</svg>
