<svg width="42" height="44" viewBox="0 0 42 44" fill="none" xmlns="http://www.w3.org/2000/svg">
<path fill-rule="evenodd" clip-rule="evenodd" d="M7.23998 1.05496C7.14491 1.08999 6.9798 1.18505 6.87472 1.26511C6.77465 1.35017 6.62956 1.49527 6.56451 1.59033C6.48446 1.70041 6.41941 1.88554 6.38939 2.09068C6.36437 2.2708 6.33935 2.66607 6.33935 2.96628C6.33935 3.26649 6.31934 3.54168 6.29933 3.5717C6.27431 3.61173 5.56882 3.63674 4.04777 3.65676L1.83625 3.69178C1.3259 4.09206 1.20581 4.23215 1.15578 4.36725C1.11075 4.48233 1.05571 4.8826 1.02569 5.3179C0.990665 5.83826 0.990665 7.37933 1.03069 10.2963C1.07072 13.4385 1.10074 14.6343 1.15078 14.9495C1.1908 15.1847 1.28587 15.6 1.36092 15.8752C1.43597 16.1504 1.59608 16.6557 1.72117 17.001C1.84625 17.3462 2.07641 17.8966 2.24153 18.2268C2.40164 18.557 2.69684 19.0724 2.89198 19.3776C3.08711 19.6828 3.41234 20.1331 3.61247 20.3783C3.80761 20.6235 4.20788 21.0638 4.49308 21.349C4.77828 21.6342 5.19356 22.0144 5.41372 22.1895C5.63387 22.3697 6.08418 22.6949 6.41441 22.915C6.74463 23.1352 7.33004 23.4704 7.7153 23.6606C8.10057 23.8507 8.66096 24.0909 8.96617 24.2009C9.27138 24.306 9.75171 24.4561 10.0419 24.5362C10.3321 24.6112 10.7924 24.7063 11.0676 24.7563L11.568 24.8414C11.623 25.1416 11.663 26.9428 11.688 29.0343C11.7181 31.1257 11.7681 33.052 11.7931 33.3122C11.8231 33.5724 11.9132 34.0677 11.9983 34.413C12.0883 34.7582 12.2434 35.2986 12.3535 35.6138C12.4636 35.929 12.7087 36.5044 12.8939 36.8897C13.084 37.275 13.4142 37.8604 13.6344 38.1906C13.8545 38.5208 14.2148 39.0061 14.4349 39.2663C14.6501 39.5265 15.0754 39.9768 15.3756 40.267C15.6758 40.5572 16.1111 40.9425 16.3463 41.1226C16.5814 41.3077 16.9617 41.5779 17.1968 41.733C17.432 41.8831 17.8573 42.1333 18.1475 42.2834C18.4377 42.4385 18.933 42.6687 19.2483 42.7938C19.5635 42.9188 20.1489 43.114 20.5492 43.2241C20.9494 43.3291 21.5198 43.4592 21.825 43.5042C22.2353 43.5693 22.6956 43.5893 23.6513 43.5893C24.5869 43.5893 25.0823 43.5693 25.5026 43.5042C25.8178 43.4592 26.3932 43.3341 26.7785 43.2241C27.1637 43.114 27.6941 42.9439 27.9543 42.8438C28.2144 42.7387 28.6297 42.5586 28.8799 42.4385C29.1301 42.3234 29.5304 42.1033 29.7805 41.9582C30.0307 41.8131 30.401 41.5629 30.6061 41.4078C30.8112 41.2527 31.2515 40.8824 31.5818 40.5822C31.912 40.282 32.3973 39.7917 32.6575 39.4965C32.9177 39.2013 33.2729 38.751 33.4481 38.5008C33.6232 38.2456 33.8884 37.8253 34.0335 37.5652C34.1836 37.305 34.4037 36.8647 34.5288 36.5895C34.6489 36.3143 34.829 35.854 34.9291 35.5638C35.0341 35.2736 35.1692 34.8133 35.2443 34.5381C35.3143 34.2629 35.4144 33.7775 35.4644 33.4623C35.5195 33.1471 35.5695 32.8819 35.5745 32.8819C35.5795 32.8769 35.7647 32.8219 35.9848 32.7618C36.205 32.7018 36.5752 32.5717 36.8104 32.4766C37.0455 32.3816 37.3908 32.2115 37.5859 32.0964C37.781 31.9863 38.0612 31.8012 38.2113 31.6911C38.3614 31.581 38.6216 31.3809 38.7817 31.2408C38.9468 31.1007 39.2471 30.7805 39.4572 30.5303C39.6673 30.2801 39.9576 29.8748 40.1026 29.6297C40.2477 29.3845 40.4379 29.0042 40.5179 28.7841C40.603 28.5639 40.7281 28.1837 40.7881 27.9335C40.8532 27.6833 40.9332 27.233 40.9632 26.9328C40.9983 26.6226 41.0083 26.2073 40.9933 25.9822C40.9732 25.762 40.9232 25.3817 40.8832 25.1316C40.8382 24.8814 40.7381 24.4761 40.653 24.231C40.568 23.9858 40.4129 23.6005 40.3028 23.3804C40.1927 23.1602 39.9626 22.78 39.7924 22.5298C39.6273 22.2846 39.2871 21.8793 39.0369 21.6292C38.7867 21.384 38.3865 21.0387 38.1363 20.8736C37.8861 20.7035 37.5309 20.4884 37.3357 20.3883C37.1406 20.2932 36.7603 20.1381 36.4852 20.0381C36.21 19.943 35.7697 19.8279 35.5095 19.7779C35.1926 19.7178 34.8007 19.6861 34.3337 19.6828C33.8784 19.6828 33.4781 19.7128 33.1829 19.7729C32.9327 19.8179 32.5524 19.918 32.3323 19.988C32.1121 20.0581 31.7619 20.1932 31.5568 20.2882C31.3516 20.3833 30.9563 20.6085 30.6811 20.7886C30.3459 21.0087 30.0007 21.2989 29.6254 21.6742C29.2952 22.0094 28.96 22.4097 28.7798 22.6799C28.6197 22.9251 28.4146 23.2853 28.3245 23.4804C28.2395 23.6756 28.1044 24.0108 28.0343 24.231C27.9593 24.4511 27.8542 24.8864 27.7992 25.1916C27.7441 25.5319 27.7041 25.9872 27.7041 26.3324C27.7041 26.6776 27.7441 27.133 27.7992 27.4682C27.8542 27.7784 27.9593 28.2137 28.0293 28.4339C28.1044 28.654 28.2495 29.0143 28.3545 29.2344C28.4596 29.4546 28.6848 29.8248 28.8599 30.06C29.03 30.2951 29.4003 30.7154 29.6755 31.0006C29.9556 31.2858 30.3359 31.6261 30.531 31.7611C30.7262 31.8912 31.1415 32.1264 31.4567 32.2815C31.7719 32.4316 32.2222 32.6167 32.4574 32.6918C32.5326 32.7158 32.6037 32.7383 32.6658 32.7579C32.7979 32.7996 32.8893 32.8285 32.8927 32.8319C32.9027 32.8319 32.8627 33.0871 32.8026 33.3873C32.7476 33.6875 32.6075 34.2078 32.5024 34.5381C32.3923 34.8683 32.2072 35.3386 32.0871 35.5888C31.972 35.839 31.7569 36.2292 31.6118 36.4644C31.4617 36.6996 31.2165 37.0598 31.0614 37.2649C30.9063 37.4701 30.5811 37.8503 30.3309 38.1055C30.0807 38.3657 29.6805 38.741 29.4303 38.9411C29.1801 39.1412 28.7898 39.4264 28.5547 39.5765C28.3195 39.7216 27.9042 39.9518 27.629 40.0869C27.3539 40.222 26.8335 40.4271 26.4783 40.5472C26.123 40.6673 25.6277 40.7974 25.3775 40.8424C25.0473 40.9025 24.5869 40.9225 23.6513 40.9225C22.5655 40.9225 22.3004 40.9075 21.8751 40.8224C21.5999 40.7674 21.1296 40.6373 20.8243 40.5372C20.5191 40.4371 20.0038 40.227 19.6736 40.0719C19.3433 39.9168 18.903 39.6766 18.6979 39.5465C18.4927 39.4114 18.1325 39.1562 17.8973 38.9711C17.6622 38.791 17.2819 38.4508 17.0467 38.2156C16.8116 37.9804 16.4613 37.5752 16.2662 37.315C16.0711 37.0548 15.8109 36.6695 15.6808 36.4644C15.5557 36.2593 15.3506 35.869 15.2255 35.5988C15.0954 35.3336 14.9053 34.8583 14.8002 34.5531C14.6951 34.2429 14.565 33.8076 14.52 33.5874C14.455 33.2872 14.4249 32.7718 14.3949 31.536C14.3699 30.6304 14.3499 28.7491 14.3449 27.3581V24.8314C14.8702 24.7763 15.3356 24.6813 15.7208 24.5862C16.1061 24.4911 16.6565 24.331 16.9467 24.231C17.2369 24.1309 17.7873 23.8957 18.1725 23.7056C18.5578 23.5205 19.0882 23.2353 19.3483 23.0752C19.6085 22.92 19.9938 22.6649 20.1989 22.5098C20.4041 22.3597 20.9594 21.8493 21.4298 21.379C21.8951 20.9137 22.4305 20.3383 22.6106 20.1031C22.7907 19.8679 23.0609 19.4727 23.211 19.2275C23.3661 18.9823 23.5662 18.6221 23.6663 18.4269C23.7614 18.2318 23.9315 17.8616 24.0366 17.6014C24.1466 17.3412 24.3218 16.8659 24.4218 16.5507C24.5269 16.2354 24.662 15.7501 24.732 15.4749C24.7971 15.1997 24.8721 14.6694 24.8972 14.2991C24.9272 13.9288 24.9622 11.8324 24.9822 9.64589C25.0022 6.88899 24.9972 5.48802 24.9572 5.07774C24.9222 4.7325 24.8671 4.41728 24.8121 4.30721C24.7671 4.20213 24.602 4.03202 24.4368 3.90693L24.1516 3.69178L19.6736 3.61673C19.6235 2.1307 19.5985 1.92056 19.5184 1.74544C19.4684 1.62035 19.3233 1.43522 19.1982 1.33015C19.0581 1.21007 18.868 1.105 18.6979 1.05496C18.5378 1.00993 18.3276 0.989917 18.1975 1.00493C18.0725 1.01493 17.8923 1.06997 17.7973 1.115C17.7022 1.16504 17.5421 1.26511 17.447 1.34016C17.352 1.41521 17.2319 1.57532 17.1818 1.6954C17.1218 1.8305 17.0668 2.15072 17.0367 2.54099C17.0067 2.90124 16.9967 4.13709 17.0117 5.44299C17.0267 7.08412 17.0517 7.80462 17.1018 8.01977C17.1518 8.26494 17.2069 8.36 17.392 8.55013C17.5371 8.69523 17.7122 8.80531 17.8723 8.86035C18.0074 8.91038 18.2326 8.94541 18.3727 8.94541C18.5278 8.94541 18.7179 8.90037 18.873 8.82532C19.0081 8.76028 19.1932 8.63019 19.2833 8.54013C19.3733 8.44506 19.4834 8.27995 19.5335 8.16987C19.5985 8.01476 19.6235 7.7796 19.6485 7.14416L19.6736 6.31859C21.6449 6.3236 21.8501 6.3336 21.9751 6.40365C22.0552 6.44868 22.1803 6.54375 22.2503 6.6188L22.3754 6.75389C22.3204 12.3277 22.2804 13.9389 22.2503 14.174C22.2203 14.3942 22.1603 14.7444 22.1202 14.9495C22.0752 15.1547 21.9551 15.595 21.8451 15.9252C21.735 16.2554 21.5198 16.7858 21.3597 17.101C21.1996 17.4163 20.9444 17.8666 20.7893 18.1017C20.6342 18.3369 20.329 18.7422 20.1089 19.0023C19.8937 19.2625 19.5585 19.6228 19.3683 19.7979C19.1782 19.973 18.853 20.2432 18.6478 20.3983C18.4427 20.5534 18.0674 20.7986 17.8223 20.9387C17.5771 21.0838 17.1268 21.3139 16.8216 21.459C16.5164 21.5991 16.011 21.8043 15.6958 21.9094C15.3806 22.0144 14.8853 22.1395 14.5951 22.1845C14.1748 22.2446 13.8045 22.2596 12.7438 22.2396C11.7631 22.2196 11.3278 22.1945 11.0676 22.1345C10.8775 22.0895 10.4572 21.9644 10.142 21.8593C9.82676 21.7542 9.33142 21.5541 9.04122 21.419C8.75102 21.2839 8.33573 21.0588 8.11558 20.9237C7.89543 20.7886 7.52517 20.5284 7.29001 20.3533C7.05485 20.1782 6.65958 19.8279 6.41441 19.5777C6.16924 19.3326 5.819 18.9373 5.63887 18.7021C5.46375 18.467 5.20357 18.0967 5.06848 17.8766C4.93338 17.6564 4.70323 17.2311 4.55813 16.9259C4.41303 16.6207 4.21289 16.1304 4.10782 15.8252C4.00775 15.5199 3.88266 15.0696 3.82762 14.8245C3.74256 14.4142 3.72755 14.0289 3.68252 10.5715C3.63749 6.89399 3.63749 6.7639 3.72755 6.64382C3.78259 6.57377 3.89767 6.4737 3.99274 6.41866C4.14784 6.3286 4.26793 6.31859 5.2486 6.30358L6.33935 6.29358C6.36437 7.79461 6.38939 8.00976 6.45443 8.16987C6.50447 8.27995 6.61454 8.44506 6.70461 8.53512C6.79467 8.63019 6.95478 8.75027 7.06486 8.81031C7.21996 8.89537 7.35506 8.92039 7.66527 8.92039C8.0055 8.92039 8.10057 8.90037 8.2907 8.7903C8.41579 8.71525 8.59091 8.57515 8.67597 8.47508C8.79105 8.355 8.86109 8.20489 8.90112 8.00476C8.95116 7.79461 8.96617 6.98405 8.96617 4.96766C8.96617 2.94126 8.95116 2.14571 8.90112 1.94057C8.8661 1.78547 8.77604 1.59033 8.69598 1.49026C8.62093 1.3952 8.4358 1.2501 8.2857 1.17004C8.09557 1.06497 7.92545 1.01994 7.7153 1.00493C7.54519 0.994921 7.34004 1.01493 7.23998 1.05496ZM33.8081 22.3595C33.628 22.3846 33.2927 22.4746 33.0576 22.5547C32.8224 22.6397 32.5122 22.7798 32.3671 22.8649C32.217 22.9549 31.9568 23.1451 31.7917 23.2852C31.6216 23.4203 31.3514 23.7055 31.1963 23.9106C31.0412 24.1157 30.831 24.451 30.736 24.6561C30.6409 24.8613 30.5258 25.1665 30.4808 25.3316C30.4358 25.4967 30.3857 25.857 30.3707 26.1321C30.3507 26.5024 30.3657 26.7426 30.4257 27.0578C30.4758 27.2929 30.5759 27.6282 30.6509 27.8083C30.721 27.9884 30.8861 28.2886 31.0162 28.4838C31.1412 28.6739 31.4114 28.9941 31.6116 29.1842C31.8167 29.3794 32.1369 29.6296 32.3321 29.7396C32.5272 29.8497 32.7724 29.9798 32.8824 30.0248C32.9925 30.0699 33.2177 30.1449 33.3828 30.1949C33.6029 30.26 33.8581 30.285 34.3334 30.285C34.7988 30.285 35.079 30.26 35.3091 30.1949C35.4892 30.1499 35.8345 30.0098 36.0847 29.8897C36.3348 29.7646 36.6851 29.5395 36.8752 29.3894C37.0603 29.2343 37.3205 28.9691 37.4606 28.794C37.5957 28.6239 37.7958 28.3036 37.9109 28.0835C38.021 27.8633 38.1561 27.5031 38.2161 27.2829C38.2912 27.0027 38.3262 26.7225 38.3262 26.3573C38.3312 26.0021 38.3012 25.7119 38.2411 25.4567C38.1911 25.2515 38.076 24.9213 37.991 24.7312C37.9009 24.536 37.7408 24.2458 37.6257 24.0807C37.5156 23.9156 37.2455 23.6104 37.0303 23.4053C36.7551 23.1501 36.4899 22.9549 36.1847 22.7948C35.9346 22.6647 35.5643 22.5146 35.3592 22.4596C35.154 22.4096 34.7938 22.3495 34.5586 22.3395C34.3234 22.3245 33.9882 22.3345 33.8081 22.3595Z" fill="#D21341"/>
<path d="M6.87472 1.26511L6.723 1.06597L6.71281 1.07462L6.87472 1.26511ZM7.23998 1.05496L7.32644 1.28964L7.33282 1.28708L7.23998 1.05496ZM6.56451 1.59033L6.76678 1.73744L6.77084 1.7315L6.56451 1.59033ZM6.38939 2.09068L6.14202 2.05448L6.14177 2.05628L6.38939 2.09068ZM6.29933 3.5717L6.09122 3.43296L6.08733 3.4392L6.29933 3.5717ZM4.04777 3.65676L4.04448 3.40678L4.04381 3.40679L4.04777 3.65676ZM1.83625 3.69178L1.83229 3.44181L1.74816 3.44314L1.68196 3.49507L1.83625 3.69178ZM1.15578 4.36725L1.38863 4.45836L1.39022 4.45408L1.15578 4.36725ZM1.02569 5.3179L0.776281 5.3007L0.776253 5.30111L1.02569 5.3179ZM1.03069 10.2963L1.28067 10.2932L1.28067 10.2929L1.03069 10.2963ZM1.15078 14.9495L0.903851 14.9887L0.90432 14.9915L1.15078 14.9495ZM1.36092 15.8752L1.60211 15.8094H1.60211L1.36092 15.8752ZM1.72117 17.001L1.95622 16.9158H1.95622L1.72117 17.001ZM2.24153 18.2268L2.4665 18.1177L2.46513 18.115L2.24153 18.2268ZM3.61247 20.3783L3.80809 20.2226L3.80614 20.2202L3.61247 20.3783ZM4.49308 21.349L4.3163 21.5257L4.49308 21.349ZM5.41372 22.1895L5.57204 21.996L5.56935 21.9939L5.41372 22.1895ZM7.7153 23.6606L7.60467 23.8847H7.60467L7.7153 23.6606ZM8.96617 24.2009L8.88134 24.4361L8.88479 24.4373L8.96617 24.2009ZM10.0419 24.5362L9.97542 24.7772L9.97931 24.7782L10.0419 24.5362ZM11.0676 24.7563L11.0229 25.0023L11.0257 25.0028L11.0676 24.7563ZM11.568 24.8414L11.8139 24.7963L11.7823 24.6242L11.6099 24.5949L11.568 24.8414ZM11.688 29.0343L11.4381 29.0373L11.4381 29.0379L11.688 29.0343ZM11.7931 33.3122L11.5442 33.3362L11.5448 33.3409L11.7931 33.3122ZM11.9983 34.413L11.7555 34.4728L11.7564 34.4761L11.9983 34.413ZM12.3535 35.6138L12.1175 35.6962L12.3535 35.6138ZM12.8939 36.8897L12.6685 36.998L12.6697 37.0003L12.8939 36.8897ZM13.6344 38.1906L13.4264 38.3293H13.4264L13.6344 38.1906ZM14.4349 39.2663L14.6276 39.107L14.6258 39.1048L14.4349 39.2663ZM16.3463 41.1226L16.5009 40.9262L16.4983 40.9241L16.3463 41.1226ZM17.1968 41.733L17.0592 41.9417L17.0623 41.9438L17.1968 41.733ZM18.1475 42.2834L18.2654 42.0629L18.2624 42.0614L18.1475 42.2834ZM19.2483 42.7938L19.3405 42.5614H19.3405L19.2483 42.7938ZM20.5492 43.2241L20.4829 43.4651L20.4857 43.4659L20.5492 43.2241ZM21.825 43.5042L21.8642 43.2573L21.8615 43.2569L21.825 43.5042ZM25.5026 43.5042L25.4672 43.2567L25.4643 43.2572L25.5026 43.5042ZM26.7785 43.2241L26.8471 43.4644H26.8471L26.7785 43.2241ZM27.9543 42.8438L28.044 43.0772L28.0479 43.0756L27.9543 42.8438ZM28.8799 42.4385L28.7754 42.2114L28.7717 42.2131L28.8799 42.4385ZM29.7805 41.9582L29.6551 41.7419L29.7805 41.9582ZM30.6061 41.4078L30.4553 41.2084L30.4553 41.2084L30.6061 41.4078ZM31.5818 40.5822L31.4136 40.3972H31.4136L31.5818 40.5822ZM33.4481 38.5008L33.6529 38.6442L33.6542 38.6423L33.4481 38.5008ZM34.0335 37.5652L33.8169 37.4402L33.8151 37.4434L34.0335 37.5652ZM34.5288 36.5895L34.7564 36.6929L34.7579 36.6895L34.5288 36.5895ZM34.9291 35.5638L34.694 35.4786L34.6927 35.4823L34.9291 35.5638ZM35.2443 34.5381L35.4855 34.6039L35.4866 34.5997L35.2443 34.5381ZM35.4644 33.4623L35.2181 33.4193L35.2175 33.4231L35.4644 33.4623ZM35.5745 32.8819V33.1319H35.6781L35.7513 33.0587L35.5745 32.8819ZM35.9848 32.7618L36.0506 33.003L35.9848 32.7618ZM36.8104 32.4766L36.7167 32.2449L36.8104 32.4766ZM37.5859 32.0964L37.4631 31.8786L37.4589 31.881L37.5859 32.0964ZM38.2113 31.6911L38.3592 31.8927L38.3592 31.8927L38.2113 31.6911ZM38.7817 31.2408L38.62 31.0501L38.6171 31.0526L38.7817 31.2408ZM39.4572 30.5303L39.6486 30.6911L39.4572 30.5303ZM40.1026 29.6297L40.3178 29.757V29.757L40.1026 29.6297ZM40.5179 28.7841L40.2847 28.694L40.283 28.6987L40.5179 28.7841ZM40.7881 27.9335L40.5461 27.8706L40.545 27.8752L40.7881 27.9335ZM40.9632 26.9328L40.7148 26.9048L40.7145 26.9079L40.9632 26.9328ZM40.9933 25.9822L41.2428 25.9655L41.2422 25.9595L40.9933 25.9822ZM40.8832 25.1316L41.1301 25.0921L41.1292 25.0873L40.8832 25.1316ZM40.653 24.231L40.4168 24.3129L40.4168 24.3129L40.653 24.231ZM40.3028 23.3804L40.5264 23.2686V23.2686L40.3028 23.3804ZM39.7924 22.5298L39.5851 22.6694L39.5857 22.6704L39.7924 22.5298ZM39.0369 21.6292L39.2137 21.4524L39.2119 21.4506L39.0369 21.6292ZM38.1363 20.8736L37.9957 21.0804L37.9986 21.0823L38.1363 20.8736ZM37.3357 20.3883L37.4498 20.1658L37.4452 20.1636L37.3357 20.3883ZM36.4852 20.0381L36.5706 19.8031L36.5668 19.8018L36.4852 20.0381ZM35.5095 19.7779L35.5567 19.5324L35.556 19.5322L35.5095 19.7779ZM34.3337 19.6828L34.3355 19.4328H34.3337V19.6828ZM33.1829 19.7729L33.2272 20.019L33.2327 20.0179L33.1829 19.7729ZM32.3323 19.988L32.4081 20.2263H32.4081L32.3323 19.988ZM30.6811 20.7886L30.5442 20.5794L30.5439 20.5796L30.6811 20.7886ZM29.6254 21.6742L29.4486 21.4974L29.4473 21.4987L29.6254 21.6742ZM28.7798 22.6799L28.5718 22.5412L28.5705 22.5432L28.7798 22.6799ZM28.3245 23.4804L28.0975 23.3756L28.0953 23.3805L28.3245 23.4804ZM28.0343 24.231L28.271 24.3116L28.2726 24.3068L28.0343 24.231ZM27.7992 25.1916L27.5531 25.1472L27.5524 25.1517L27.7992 25.1916ZM27.7992 27.4682L27.5524 27.5087L27.553 27.5119L27.7992 27.4682ZM28.0293 28.4339L27.791 28.5097L27.7927 28.5145L28.0293 28.4339ZM28.8599 30.06L29.0625 29.9134L29.0604 29.9107L28.8599 30.06ZM29.6755 31.0006L29.4955 31.1742L29.4971 31.1758L29.6755 31.0006ZM30.531 31.7611L30.3887 31.9667L30.3924 31.9692L30.531 31.7611ZM31.4567 32.2815L31.3463 32.5058L31.3492 32.5072L31.4567 32.2815ZM32.4574 32.6918L32.3814 32.93H32.3814L32.4574 32.6918ZM32.6658 32.7579L32.7411 32.5195H32.7411L32.6658 32.7579ZM32.8927 32.8319L32.7158 33.0086L32.7891 33.0819H32.8927V32.8319ZM32.8026 33.3873L32.5574 33.3382L32.5567 33.3422L32.8026 33.3873ZM32.5024 34.5381L32.7396 34.6171L32.7406 34.6139L32.5024 34.5381ZM32.0871 35.5888L31.8617 35.4806L31.86 35.4843L32.0871 35.5888ZM31.6118 36.4644L31.8225 36.5989L31.8245 36.5957L31.6118 36.4644ZM31.0614 37.2649L31.2608 37.4157L31.0614 37.2649ZM30.3309 38.1055L30.1524 37.9305L30.1507 37.9322L30.3309 38.1055ZM29.4303 38.9411L29.5865 39.1363L29.4303 38.9411ZM28.5547 39.5765L28.686 39.7893L28.6892 39.7873L28.5547 39.5765ZM26.4783 40.5472L26.5583 40.784L26.4783 40.5472ZM25.3775 40.8424L25.3332 40.5964L25.3328 40.5964L25.3775 40.8424ZM21.8751 40.8224L21.9241 40.5773L21.8751 40.8224ZM20.8243 40.5372L20.9022 40.2996H20.9022L20.8243 40.5372ZM19.6736 40.0719L19.7798 39.8456L19.7798 39.8456L19.6736 40.0719ZM18.6979 39.5465L18.5604 39.7553L18.564 39.7576L18.6979 39.5465ZM17.8973 38.9711L18.052 38.7747L18.0493 38.7727L17.8973 38.9711ZM17.0467 38.2156L16.87 38.3924H16.87L17.0467 38.2156ZM16.2662 37.315L16.4662 37.165L16.4662 37.165L16.2662 37.315ZM15.6808 36.4644L15.4673 36.5946L15.4697 36.5983L15.6808 36.4644ZM15.2255 35.5988L15.4524 35.4937L15.4499 35.4887L15.2255 35.5988ZM14.8002 34.5531L14.5634 34.6333L14.5638 34.6345L14.8002 34.5531ZM14.52 33.5874L14.7649 33.5373L14.7643 33.5345L14.52 33.5874ZM14.3949 31.536L14.6448 31.5299L14.6448 31.5291L14.3949 31.536ZM14.3449 27.3581H14.0949L14.0949 27.359L14.3449 27.3581ZM14.3449 24.8314L14.3188 24.5827L14.0949 24.6062V24.8314H14.3449ZM18.1725 23.7056L18.0642 23.4802L18.0619 23.4814L18.1725 23.7056ZM19.3483 23.0752L19.2203 22.8604L19.2173 22.8622L19.3483 23.0752ZM20.1989 22.5098L20.0513 22.308L20.0481 22.3104L20.1989 22.5098ZM21.4298 21.379L21.6065 21.5558L21.4298 21.379ZM23.211 19.2275L22.9997 19.0938L22.9978 19.097L23.211 19.2275ZM23.6663 18.4269L23.8888 18.5411L23.8911 18.5364L23.6663 18.4269ZM24.0366 17.6014L23.8063 17.504L23.8048 17.5078L24.0366 17.6014ZM24.4218 16.5507L24.1846 16.4716L24.1835 16.475L24.4218 16.5507ZM24.732 15.4749L24.9744 15.5366L24.9753 15.5324L24.732 15.4749ZM24.8972 14.2991L24.648 14.2789L24.6477 14.2822L24.8972 14.2991ZM24.9822 9.64589L25.2322 9.64818L25.2322 9.6477L24.9822 9.64589ZM24.9572 5.07774L25.206 5.05346L25.2059 5.0525L24.9572 5.07774ZM24.8121 4.30721L24.5823 4.40568L24.5852 4.41244L24.5885 4.41901L24.8121 4.30721ZM24.4368 3.90693L24.5878 3.70766L24.5874 3.70735L24.4368 3.90693ZM24.1516 3.69178L24.3022 3.4922L24.2372 3.44318L24.1558 3.44182L24.1516 3.69178ZM19.6736 3.61673L19.4237 3.62514L19.4317 3.86271L19.6694 3.86669L19.6736 3.61673ZM19.5184 1.74544L19.2861 1.8384L19.2911 1.84938L19.5184 1.74544ZM19.1982 1.33015L19.0355 1.51998L19.0374 1.52158L19.1982 1.33015ZM18.6979 1.05496L18.7684 0.815104L18.7656 0.814299L18.6979 1.05496ZM18.1975 1.00493L18.2175 1.25428L18.2262 1.25328L18.1975 1.00493ZM17.7973 1.115L17.6901 0.888869L17.6808 0.893774L17.7973 1.115ZM17.447 1.34016L17.6019 1.53638L17.6019 1.53638L17.447 1.34016ZM17.1818 1.6954L17.4104 1.79697L17.4126 1.79156L17.1818 1.6954ZM17.0367 2.54099L17.2859 2.56175L17.286 2.56016L17.0367 2.54099ZM17.0117 5.44299L17.2617 5.4407L17.2617 5.44012L17.0117 5.44299ZM17.1018 8.01977L17.3468 7.96976L17.3453 7.96314L17.1018 8.01977ZM17.392 8.55013L17.2128 8.72455L17.2152 8.72691L17.392 8.55013ZM17.8723 8.86035L17.9592 8.62584L17.9536 8.62393L17.8723 8.86035ZM18.873 8.82532L18.7645 8.60007L18.7641 8.60028L18.873 8.82532ZM19.2833 8.54013L19.4601 8.71697L19.4648 8.71206L19.2833 8.54013ZM19.5335 8.16987L19.7611 8.27337L19.764 8.26655L19.5335 8.16987ZM19.6485 7.14416L19.8984 7.154L19.8984 7.15174L19.6485 7.14416ZM19.6736 6.31859L19.6742 6.06859L19.431 6.06798L19.4237 6.31102L19.6736 6.31859ZM21.9751 6.40365L22.0977 6.18576L22.0973 6.18552L21.9751 6.40365ZM22.2503 6.6188L22.4338 6.44895L22.4331 6.44822L22.2503 6.6188ZM22.3754 6.75389L22.6254 6.75636L22.6264 6.65697L22.5589 6.58404L22.3754 6.75389ZM22.2503 14.174L22.498 14.2078L22.4983 14.2057L22.2503 14.174ZM22.1202 14.9495L22.3645 15.0032L22.3656 14.9974L22.1202 14.9495ZM21.8451 15.9252L21.6079 15.8462V15.8462L21.8451 15.9252ZM21.3597 17.101L21.1368 16.9878L21.3597 17.101ZM20.7893 18.1017L20.5806 17.9641L20.7893 18.1017ZM20.1089 19.0023L19.918 18.8408L19.9162 18.843L20.1089 19.0023ZM19.3683 19.7979L19.199 19.614L19.3683 19.7979ZM18.6478 20.3983L18.7986 20.5977H18.7986L18.6478 20.3983ZM17.8223 20.9387L17.6982 20.7216L17.6949 20.7235L17.8223 20.9387ZM16.8216 21.459L16.9259 21.6863L16.9289 21.6848L16.8216 21.459ZM15.6958 21.9094L15.7749 22.1465H15.7749L15.6958 21.9094ZM14.5951 22.1845L14.6304 22.432L14.6334 22.4316L14.5951 22.1845ZM12.7438 22.2396L12.7387 22.4895L12.7391 22.4895L12.7438 22.2396ZM11.0676 22.1345L11.01 22.3778L11.0114 22.3781L11.0676 22.1345ZM10.142 21.8593L10.0629 22.0965L10.142 21.8593ZM9.04122 21.419L8.93571 21.6457L8.93571 21.6457L9.04122 21.419ZM8.11558 20.9237L8.24633 20.7106V20.7106L8.11558 20.9237ZM7.29001 20.3533L7.14069 20.5538L7.14069 20.5538L7.29001 20.3533ZM6.41441 19.5777L6.59297 19.4028L6.59118 19.401L6.41441 19.5777ZM5.63887 18.7021L5.43834 18.8515L5.4404 18.8542L5.63887 18.7021ZM5.06848 17.8766L5.28156 17.7458H5.28156L5.06848 17.8766ZM4.55813 16.9259L4.78391 16.8186H4.78391L4.55813 16.9259ZM4.10782 15.8252L3.87023 15.903L3.87143 15.9065L4.10782 15.8252ZM3.82762 14.8245L3.58279 14.8752L3.58369 14.8792L3.82762 14.8245ZM3.68252 10.5715L3.43254 10.5746L3.43254 10.5748L3.68252 10.5715ZM3.72755 6.64382L3.53092 6.48932L3.52755 6.49382L3.72755 6.64382ZM3.99274 6.41866L4.118 6.63502L4.11827 6.63486L3.99274 6.41866ZM5.2486 6.30358L5.24631 6.05359L5.24478 6.05361L5.2486 6.30358ZM6.33935 6.29358L6.58932 6.28941L6.58519 6.04131L6.33706 6.04359L6.33935 6.29358ZM6.45443 8.16987L6.22262 8.26404L6.22684 8.27332L6.45443 8.16987ZM6.70461 8.53512L6.88616 8.36312L6.88138 8.35835L6.70461 8.53512ZM7.06486 8.81031L7.18506 8.59111L7.18457 8.59084L7.06486 8.81031ZM8.2907 8.7903L8.41598 9.00668L8.41932 9.00467L8.2907 8.7903ZM8.67597 8.47508L8.49547 8.3021L8.49031 8.30749L8.48548 8.31317L8.67597 8.47508ZM8.90112 8.00476L8.65776 7.94681L8.65598 7.95573L8.90112 8.00476ZM8.90112 1.94057L8.65723 1.99565L8.65824 1.99981L8.90112 1.94057ZM8.69598 1.49026L8.49976 1.64518L8.50076 1.64644L8.69598 1.49026ZM8.2857 1.17004L8.16476 1.38888L8.16805 1.39063L8.2857 1.17004ZM7.7153 1.00493L7.73312 0.755543L7.72998 0.755359L7.7153 1.00493ZM33.0576 22.5547L32.977 22.318L32.9725 22.3196L33.0576 22.5547ZM33.8081 22.3595L33.8425 22.6072L33.8081 22.3595ZM32.3671 22.8649L32.2407 22.6492L32.2385 22.6505L32.3671 22.8649ZM31.7917 23.2852L31.9472 23.4811L31.9534 23.4758L31.7917 23.2852ZM30.3707 26.1321L30.1211 26.1185L30.1211 26.1186L30.3707 26.1321ZM30.4257 27.0578L30.1801 27.1046L30.1812 27.1098L30.4257 27.0578ZM30.6509 27.8083L30.884 27.7177L30.8817 27.7121L30.6509 27.8083ZM31.0162 28.4838L31.225 28.3464L31.2242 28.3451L31.0162 28.4838ZM31.6116 29.1842L31.7839 29.0031L31.7838 29.003L31.6116 29.1842ZM32.3321 29.7396L32.4549 29.5219H32.4549L32.3321 29.7396ZM32.8824 30.0248L32.9771 29.7934H32.9771L32.8824 30.0248ZM33.3828 30.1949L33.3103 30.4342L33.312 30.4347L33.3828 30.1949ZM35.3091 30.1949L35.2485 29.9523L35.2411 29.9544L35.3091 30.1949ZM36.0847 29.8897L36.1928 30.1151L36.1965 30.1133L36.0847 29.8897ZM36.8752 29.3894L37.0302 29.5857L37.0358 29.581L36.8752 29.3894ZM37.4606 28.794L37.6558 28.9502L37.6564 28.9494L37.4606 28.794ZM37.9109 28.0835L38.1325 28.1993L38.1345 28.1953L37.9109 28.0835ZM38.2161 27.2829L38.4573 27.3487L38.4576 27.3476L38.2161 27.2829ZM38.3262 26.3573L38.0762 26.3538V26.3573H38.3262ZM38.2411 25.4567L38.4845 25.3994L38.484 25.3974L38.2411 25.4567ZM37.991 24.7312L38.2192 24.6291L38.218 24.6264L37.991 24.7312ZM37.6257 24.0807L37.4177 24.2194L37.4206 24.2237L37.6257 24.0807ZM37.0303 23.4053L37.2028 23.2243L37.2003 23.2219L37.0303 23.4053ZM36.1847 22.7948L36.3009 22.5735L36.3001 22.573L36.1847 22.7948ZM35.3592 22.4596L35.424 22.2181L35.4184 22.2167L35.3592 22.4596ZM34.5586 22.3395L34.5427 22.5891L34.548 22.5893L34.5586 22.3395ZM7.02623 1.46397C7.11728 1.3946 7.26064 1.31378 7.3264 1.28955L7.15355 0.820376C7.02919 0.866195 6.84232 0.975505 6.72321 1.06625L7.02623 1.46397ZM6.77084 1.7315C6.81742 1.66342 6.94303 1.53515 7.03664 1.45559L6.71281 1.07462C6.60628 1.16518 6.44169 1.32711 6.35818 1.44916L6.77084 1.7315ZM6.63675 2.12688C6.66365 1.94307 6.71953 1.80223 6.76669 1.73737L6.36233 1.44329C6.24938 1.59859 6.17517 1.828 6.14202 2.05448L6.63675 2.12688ZM6.58935 2.96628C6.58935 2.67399 6.61401 2.29072 6.63701 2.12507L6.14177 2.05628C6.11474 2.25088 6.08935 2.65816 6.08935 2.96628H6.58935ZM6.50734 3.71037C6.53893 3.66298 6.54903 3.61169 6.55074 3.60407C6.55542 3.58321 6.55896 3.56094 6.56177 3.54013C6.5675 3.49776 6.57233 3.4451 6.57627 3.38732C6.5842 3.27091 6.58935 3.12134 6.58935 2.96628H6.08935C6.08935 3.11143 6.0845 3.24956 6.07743 3.3533C6.07386 3.40559 6.06993 3.44612 6.06628 3.47317C6.0654 3.47969 6.06461 3.48484 6.06395 3.48873C6.06363 3.49065 6.06336 3.49212 6.06315 3.49318C6.06295 3.49425 6.06284 3.49472 6.06285 3.49469C6.06285 3.49468 6.06304 3.49382 6.06345 3.49228C6.06385 3.49081 6.06464 3.48799 6.0659 3.48419C6.0671 3.48062 6.07418 3.45872 6.09131 3.43302L6.50734 3.71037ZM4.05106 3.90674C4.81179 3.89673 5.371 3.88544 5.74386 3.87156C5.92966 3.86464 6.07293 3.85696 6.17295 3.84808C6.22205 3.84373 6.26686 3.83858 6.30319 3.83187C6.32052 3.82867 6.34412 3.82366 6.36822 3.81534C6.38016 3.81122 6.39915 3.80395 6.42004 3.79188C6.43717 3.78198 6.47911 3.75574 6.51133 3.7042L6.08733 3.4392C6.11798 3.39016 6.15703 3.36639 6.16992 3.35894C6.18659 3.34931 6.20001 3.34446 6.20503 3.34272C6.21531 3.33917 6.21971 3.33883 6.21238 3.34018C6.1994 3.34258 6.1731 3.34611 6.12878 3.35004C6.04195 3.35774 5.90909 3.36506 5.72526 3.37191C5.35887 3.38555 4.80481 3.39677 4.04448 3.40678L4.05106 3.90674ZM1.84021 3.94175L4.05173 3.90673L4.04381 3.40679L1.83229 3.44181L1.84021 3.94175ZM1.39022 4.45408C1.41123 4.39733 1.46667 4.29937 1.99053 3.88849L1.68196 3.49507C1.18513 3.88474 1.00039 4.06698 0.921341 4.28042L1.39022 4.45408ZM1.2751 5.3351C1.28978 5.12217 1.31052 4.91893 1.33279 4.75643C1.34394 4.67507 1.35522 4.60579 1.36593 4.5516C1.37128 4.52453 1.37622 4.50259 1.38059 4.48562C1.38276 4.47721 1.38463 4.47064 1.38614 4.46573C1.38689 4.4633 1.38749 4.46147 1.38794 4.46017C1.38839 4.45885 1.38862 4.45828 1.38859 4.45835L0.922968 4.27615C0.887803 4.36601 0.85986 4.5248 0.83742 4.68855C0.813406 4.86379 0.791617 5.07833 0.776281 5.3007L1.2751 5.3351ZM1.28067 10.2929C1.24056 7.37035 1.24096 5.84228 1.27512 5.33469L0.776253 5.30111C0.740369 5.83425 0.740764 7.3883 0.780716 10.2998L1.28067 10.2929ZM1.39768 14.9104C1.37586 14.7729 1.35583 14.4145 1.3369 13.6766C1.31818 12.9473 1.30069 11.8642 1.28067 10.2932L0.780713 10.2995C0.800726 11.8706 0.818255 12.9565 0.837063 13.6895C0.855653 14.4138 0.875655 14.811 0.903866 14.9887L1.39768 14.9104ZM1.60211 15.8094C1.5286 15.5399 1.43556 15.1328 1.39723 14.9076L0.90432 14.9915C0.946047 15.2366 1.04313 15.6601 1.11973 15.941L1.60211 15.8094ZM1.95622 16.9158C1.83322 16.5763 1.67522 16.0775 1.60211 15.8094L1.11973 15.941C1.19673 16.2233 1.35894 16.7351 1.48612 17.0861L1.95622 16.9158ZM2.46513 18.115C2.30518 17.7951 2.07871 17.2539 1.95622 16.9158L1.48612 17.0861C1.6138 17.4385 1.84765 17.9981 2.01792 18.3386L2.46513 18.115ZM3.10261 19.2429C2.91159 18.9442 2.62148 18.4374 2.46648 18.1177L2.01657 18.3359C2.18179 18.6766 2.48209 19.2006 2.68135 19.5123L3.10261 19.2429ZM3.80614 20.2202C3.61257 19.9831 3.29296 19.5407 3.10261 19.2429L2.68135 19.5123C2.88126 19.825 3.2121 20.2832 3.41881 20.5364L3.80614 20.2202ZM4.66986 21.1722C4.38923 20.8916 3.99574 20.4584 3.80808 20.2226L3.41687 20.534C3.61947 20.7885 4.02654 21.236 4.3163 21.5257L4.66986 21.1722ZM5.56935 21.9939C5.35935 21.8268 4.95143 21.4538 4.66986 21.1722L4.3163 21.5257C4.60513 21.8146 5.02778 22.202 5.25809 22.3852L5.56935 21.9939ZM6.55308 22.707C6.22653 22.4893 5.78353 22.1691 5.57203 21.9961L5.25541 22.383C5.48421 22.5702 5.94183 22.9005 6.27573 23.1231L6.55308 22.707ZM7.82594 23.4364C7.44946 23.2506 6.87353 22.9207 6.55308 22.707L6.27573 23.1231C6.61574 23.3497 7.21061 23.6903 7.60467 23.8847L7.82594 23.4364ZM9.05098 23.9658C8.75596 23.8594 8.20425 23.6231 7.82594 23.4364L7.60467 23.8847C7.99689 24.0783 8.56595 24.3224 8.88135 24.4361L9.05098 23.9658ZM10.1084 24.2952C9.82382 24.2167 9.34848 24.0681 9.04754 23.9645L8.88479 24.4373C9.19427 24.5439 9.6796 24.6956 9.97543 24.7772L10.1084 24.2952ZM11.1123 24.5103C10.8405 24.4609 10.3866 24.3671 10.1045 24.2941L9.97931 24.7782C10.2776 24.8553 10.7444 24.9516 11.0229 25.0023L11.1123 24.5103ZM11.6099 24.5949L11.1095 24.5099L11.0257 25.0028L11.5261 25.0878L11.6099 24.5949ZM11.938 29.0313C11.9255 27.9851 11.9092 27.0105 11.8892 26.2594C11.8791 25.884 11.8681 25.5633 11.8561 25.3169C11.8445 25.0779 11.8312 24.891 11.8139 24.7963L11.3221 24.8865C11.3322 24.9419 11.3446 25.0927 11.3567 25.3412C11.3685 25.5823 11.3794 25.8989 11.3894 26.2728C11.4093 27.0203 11.4256 27.992 11.4381 29.0373L11.938 29.0313ZM12.042 33.2883C12.0182 33.0412 11.9681 31.1291 11.938 29.0307L11.4381 29.0379C11.468 31.1223 11.518 33.0629 11.5443 33.3361L12.042 33.2883ZM12.241 34.3532C12.1581 34.0166 12.0701 33.5318 12.0415 33.2836L11.5448 33.3409C11.5762 33.613 11.6683 34.1189 11.7555 34.4728L12.241 34.3532ZM12.5895 35.5314C12.4827 35.2254 12.3295 34.6924 12.2402 34.3499L11.7564 34.4761C11.8471 34.824 12.0042 35.3718 12.1175 35.6962L12.5895 35.5314ZM13.1192 36.7814C12.9367 36.4015 12.6956 35.8351 12.5895 35.5314L12.1175 35.6962C12.2316 36.023 12.4808 36.6073 12.6685 36.998L13.1192 36.7814ZM13.8424 38.0519C13.6295 37.7325 13.3045 37.1568 13.1181 36.779L12.6697 37.0003C12.8635 37.3931 13.199 37.9882 13.4264 38.3293L13.8424 38.0519ZM14.6258 39.1048C14.413 38.8533 14.0584 38.3759 13.8424 38.0519L13.4264 38.3293C13.6507 38.6657 14.0166 39.159 14.2441 39.4278L14.6258 39.1048ZM15.5493 40.0873C15.2536 39.8014 14.8351 39.358 14.6276 39.107L14.2423 39.4256C14.465 39.695 14.8972 40.1523 15.2018 40.4468L15.5493 40.0873ZM16.4983 40.9241C16.2736 40.752 15.8459 40.3739 15.5493 40.0873L15.2018 40.4468C15.5057 40.7405 15.9486 41.1329 16.1942 41.3211L16.4983 40.9241ZM17.3345 41.5243C17.104 41.3723 16.7296 41.1062 16.5009 40.9262L16.1916 41.319C16.4333 41.5093 16.8194 41.7835 17.0592 41.9417L17.3345 41.5243ZM18.2624 42.0614C17.9801 41.9153 17.5614 41.6691 17.3314 41.5223L17.0623 41.9438C17.3026 42.0971 17.7345 42.3513 18.0326 42.5055L18.2624 42.0614ZM19.3405 42.5614C19.034 42.4398 18.5473 42.2136 18.2653 42.0629L18.0297 42.5039C18.3281 42.6634 18.832 42.8976 19.1561 43.0261L19.3405 42.5614ZM20.6154 42.983C20.223 42.8751 19.6463 42.6828 19.3405 42.5614L19.156 43.0261C19.4806 43.1549 20.0748 43.3529 20.4829 43.4651L20.6154 42.983ZM21.8615 43.2569C21.5702 43.2139 21.0104 43.0867 20.6126 42.9823L20.4857 43.4659C20.8885 43.5716 21.4695 43.7045 21.7885 43.7516L21.8615 43.2569ZM23.6513 43.3393C22.6956 43.3393 22.253 43.319 21.8642 43.2573L21.7859 43.7512C22.2177 43.8196 22.6957 43.8393 23.6513 43.8393V43.3393ZM25.4643 43.2572C25.0651 43.319 24.5871 43.3393 23.6513 43.3393V43.8393C24.5868 43.8393 25.0995 43.8196 25.5408 43.7513L25.4643 43.2572ZM26.7098 42.9837C26.3336 43.0911 25.7695 43.2136 25.4672 43.2568L25.5379 43.7517C25.8661 43.7048 26.4527 43.5771 26.8471 43.4644L26.7098 42.9837ZM27.8645 42.6105C27.6142 42.7067 27.0918 42.8745 26.7098 42.9837L26.8471 43.4644C27.2357 43.3534 27.774 43.181 28.044 43.0771L27.8645 42.6105ZM28.7717 42.2131C28.5275 42.3304 28.1172 42.5084 27.8607 42.612L28.0479 43.0756C28.3117 42.9691 28.732 42.7868 28.9881 42.6639L28.7717 42.2131ZM29.6551 41.7419C29.4065 41.8861 29.0145 42.1014 28.7754 42.2114L28.9844 42.6656C29.2457 42.5455 29.6542 42.3205 29.906 42.1744L29.6551 41.7419ZM30.4553 41.2084C30.2573 41.3581 29.8955 41.6025 29.6551 41.7419L29.906 42.1744C30.1659 42.0237 30.5446 41.7677 30.7569 41.6072L30.4553 41.2084ZM31.4136 40.3972C31.0866 40.6945 30.6524 41.0594 30.4553 41.2084L30.7569 41.6072C30.9701 41.446 31.4165 41.0704 31.7499 40.7672L31.4136 40.3972ZM32.47 39.3312C32.2165 39.6188 31.7377 40.1026 31.4136 40.3972L31.7499 40.7672C32.0862 40.4615 32.5782 39.9646 32.8451 39.6618L32.47 39.3312ZM33.2433 38.3574C33.0741 38.599 32.7248 39.0421 32.47 39.3312L32.8451 39.6618C33.1106 39.3605 33.4718 38.9029 33.6529 38.6442L33.2433 38.3574ZM33.8151 37.4434C33.6746 37.6954 33.4137 38.109 33.2419 38.3593L33.6542 38.6423C33.8326 38.3822 34.1021 37.9553 34.2518 37.6869L33.8151 37.4434ZM34.3012 36.486C34.1784 36.7562 33.9619 37.1889 33.8169 37.4402L34.25 37.6901C34.4052 37.421 34.629 36.9731 34.7564 36.6929L34.3012 36.486ZM34.6927 35.4823C34.5949 35.766 34.4172 36.2202 34.2997 36.4895L34.7579 36.6895C34.8806 36.4084 35.0631 35.9419 35.1654 35.6453L34.6927 35.4823ZM35.0031 34.4723C34.9286 34.7456 34.7956 35.1982 34.694 35.4787L35.1641 35.6489C35.2727 35.349 35.4099 34.8809 35.4855 34.6038L35.0031 34.4723ZM35.2175 33.4231C35.1687 33.7311 35.0701 34.2089 35.002 34.4764L35.4866 34.5997C35.5586 34.3168 35.6602 33.824 35.7114 33.5015L35.2175 33.4231ZM35.5745 32.6319C35.5041 32.6319 35.4534 32.6609 35.4277 32.6795C35.4017 32.6984 35.3851 32.7181 35.3769 32.7287C35.3604 32.7499 35.3512 32.769 35.3481 32.7754C35.3408 32.7908 35.3365 32.804 35.3353 32.8079C35.3318 32.8185 35.3293 32.8283 35.328 32.8337C35.3249 32.8461 35.3216 32.8613 35.3183 32.8769C35.3115 32.9091 35.3027 32.954 35.2926 33.0074C35.2723 33.1146 35.2458 33.2609 35.2182 33.4193L35.7107 33.5053C35.7381 33.3485 35.7642 33.2046 35.7839 33.1004C35.7938 33.0481 35.8019 33.007 35.8076 32.9797C35.8106 32.9655 35.8124 32.9575 35.8132 32.9542C35.8139 32.9517 35.813 32.9555 35.8109 32.9621C35.8103 32.964 35.8066 32.9756 35.7997 32.99C35.7969 32.9959 35.7879 33.0146 35.7717 33.0355C35.7635 33.046 35.747 33.0656 35.7211 33.0844C35.6955 33.103 35.6449 33.1319 35.5745 33.1319V32.6319ZM35.919 32.5206C35.8076 32.551 35.7047 32.5803 35.6284 32.6027C35.5905 32.6138 35.5582 32.6236 35.5344 32.6311C35.5228 32.6348 35.5113 32.6385 35.5016 32.642C35.4971 32.6435 35.4901 32.6461 35.4825 32.6492C35.479 32.6506 35.4719 32.6536 35.4634 32.6578C35.4592 32.6599 35.452 32.6637 35.4434 32.669C35.4373 32.6728 35.4181 32.6848 35.3978 32.7051L35.7513 33.0587C35.7311 33.0789 35.7121 33.0907 35.7064 33.0943C35.6981 33.0994 35.6913 33.1029 35.6876 33.1048C35.6802 33.1085 35.6744 33.1109 35.6726 33.1116C35.6684 33.1134 35.666 33.1141 35.6675 33.1136C35.6698 33.1128 35.6753 33.111 35.6852 33.1078C35.7044 33.1018 35.733 33.0931 35.7695 33.0824C35.8422 33.061 35.9419 33.0327 36.0506 33.003L35.919 32.5206ZM36.7167 32.2449C36.4876 32.3375 36.127 32.4639 35.919 32.5206L36.0506 33.003C36.2829 32.9397 36.6628 32.806 36.9041 32.7084L36.7167 32.2449ZM37.4589 31.881C37.275 31.9895 36.941 32.1542 36.7167 32.2449L36.9041 32.7084C37.1501 32.609 37.5065 32.4334 37.7129 32.3117L37.4589 31.881ZM38.0635 31.4895C37.9201 31.5946 37.6483 31.7742 37.4631 31.8786L37.7087 32.3141C37.9138 32.1984 38.2023 32.0077 38.3592 31.8927L38.0635 31.4895ZM38.6171 31.0526C38.4649 31.1858 38.2113 31.3811 38.0635 31.4895L38.3592 31.8927C38.5116 31.7809 38.7784 31.5759 38.9464 31.4289L38.6171 31.0526ZM39.2658 30.3695C39.0585 30.6162 38.769 30.9238 38.62 31.0502L38.9435 31.4314C39.1247 31.2776 39.4356 30.9447 39.6486 30.6911L39.2658 30.3695ZM39.8875 29.5023C39.7502 29.7343 39.4683 30.1284 39.2658 30.3695L39.6486 30.6911C39.8664 30.4318 40.1649 30.0154 40.3178 29.757L39.8875 29.5023ZM40.283 28.6987C40.21 28.8994 40.0279 29.2651 39.8875 29.5023L40.3178 29.757C40.4676 29.5039 40.6658 29.1091 40.7529 28.8695L40.283 28.6987ZM40.545 27.8752C40.4882 28.1119 40.3669 28.4813 40.2847 28.694L40.7511 28.8742C40.8391 28.6465 40.968 28.2554 41.0312 27.9919L40.545 27.8752ZM40.7145 26.9079C40.6856 27.1963 40.6077 27.6338 40.5462 27.8706L41.0301 27.9964C41.0986 27.7328 41.1808 27.2697 41.212 26.9577L40.7145 26.9079ZM40.7438 25.9988C40.7577 26.207 40.7484 26.6072 40.7148 26.9048L41.2117 26.9609C41.2481 26.638 41.2589 26.2076 41.2427 25.9655L40.7438 25.9988ZM40.6363 25.1711C40.6757 25.4173 40.7249 25.7917 40.7443 26.0048L41.2422 25.9595C41.2216 25.7323 41.1707 25.3462 41.13 25.0921L40.6363 25.1711ZM40.4168 24.3129C40.4968 24.5433 40.5939 24.9356 40.6371 25.1759L41.1292 25.0873C41.0824 24.8272 40.9794 24.4089 40.8892 24.149L40.4168 24.3129ZM40.0792 23.4922C40.183 23.6997 40.3341 24.0743 40.4168 24.3129L40.8892 24.149C40.8019 23.8973 40.6428 23.5013 40.5264 23.2686L40.0792 23.4922ZM39.5857 22.6704C39.7518 22.9147 39.9756 23.285 40.0792 23.4922L40.5264 23.2686C40.4098 23.0354 40.1733 22.6452 39.9992 22.3892L39.5857 22.6704ZM38.8601 21.8059C39.1012 22.047 39.4306 22.44 39.5851 22.6694L39.9998 22.3901C39.8241 22.1292 39.473 21.7117 39.2137 21.4524L38.8601 21.8059ZM37.9986 21.0823C38.2298 21.2349 38.6171 21.5677 38.8619 21.8077L39.2119 21.4506C38.9564 21.2002 38.5432 20.8426 38.274 20.665L37.9986 21.0823ZM37.2217 20.6108C37.4051 20.7048 37.7513 20.9141 37.9957 21.0804L38.2769 20.6669C38.021 20.4929 37.6567 20.2719 37.4498 20.1658L37.2217 20.6108ZM36.3997 20.273C36.6707 20.3715 37.042 20.5233 37.2262 20.613L37.4452 20.1636C37.2392 20.0632 36.85 19.9047 36.5706 19.8031L36.3997 20.273ZM35.4623 20.0234C35.7115 20.0713 36.1403 20.1834 36.4035 20.2744L36.5668 19.8018C36.2797 19.7026 35.8278 19.5845 35.5567 19.5324L35.4623 20.0234ZM34.3319 19.9328C34.7899 19.9361 35.1657 19.9672 35.4629 20.0235L35.556 19.5322C35.2194 19.4685 34.8114 19.4362 34.3355 19.4328L34.3319 19.9328ZM33.2327 20.0179C33.5048 19.9625 33.8865 19.9328 34.3337 19.9328V19.4328C33.8702 19.4328 33.4514 19.4632 33.133 19.5279L33.2327 20.0179ZM32.4081 20.2263C32.6205 20.1587 32.99 20.0616 33.2272 20.0189L33.1386 19.5268C32.8754 19.5742 32.4844 19.6773 32.2565 19.7498L32.4081 20.2263ZM31.6619 20.5151C31.8569 20.4247 32.1973 20.2933 32.4081 20.2263L32.2565 19.7498C32.027 19.8228 31.6669 19.9616 31.4516 20.0614L31.6619 20.5151ZM30.8181 20.9978C31.0867 20.8219 31.4711 20.6035 31.6619 20.5151L31.4516 20.0614C31.2322 20.1631 30.826 20.395 30.5442 20.5794L30.8181 20.9978ZM29.8022 21.851C30.1692 21.4839 30.5013 21.2058 30.8184 20.9975L30.5439 20.5796C30.1905 20.8117 29.8321 21.1139 29.4486 21.4974L29.8022 21.851ZM28.9879 22.8186C29.1565 22.5655 29.4804 22.1776 29.8035 21.8496L29.4473 21.4987C29.11 21.8412 28.7634 22.2538 28.5718 22.5412L28.9879 22.8186ZM28.5515 23.5852C28.6349 23.4044 28.8334 23.0551 28.9892 22.8166L28.5705 22.5432C28.4061 22.795 28.1942 23.1662 28.0975 23.3757L28.5515 23.5852ZM28.2726 24.3068C28.3388 24.0986 28.47 23.7724 28.5537 23.5803L28.0953 23.3805C28.0089 23.5788 27.8699 23.923 27.7961 24.1552L28.2726 24.3068ZM28.0452 25.236C28.0989 24.9379 28.2013 24.5158 28.271 24.3116L27.7977 24.1503C27.7172 24.3864 27.6094 24.8349 27.5531 25.1473L28.0452 25.236ZM27.9541 26.3324C27.9541 26.0019 27.9928 25.56 28.046 25.2315L27.5524 25.1517C27.4954 25.5037 27.4541 25.9724 27.4541 26.3324H27.9541ZM28.0459 27.4277C27.9928 27.1047 27.9541 26.663 27.9541 26.3324H27.4541C27.4541 26.6923 27.4954 27.1612 27.5525 27.5087L28.0459 27.4277ZM28.2676 28.3581C28.2015 28.1505 28.0989 27.7263 28.0453 27.4245L27.553 27.5119C27.6095 27.8305 27.717 28.2769 27.7911 28.5097L28.2676 28.3581ZM28.5802 29.1267C28.4796 28.9159 28.3381 28.5648 28.2659 28.3532L27.7927 28.5145C27.8707 28.7433 28.0194 29.1126 28.1289 29.3421L28.5802 29.1267ZM29.0604 29.9107C28.8938 29.687 28.6774 29.3305 28.5802 29.1267L28.1289 29.3421C28.2418 29.5786 28.4757 29.9627 28.6594 30.2093L29.0604 29.9107ZM29.8554 30.827C29.5831 30.5449 29.2223 30.1344 29.0624 29.9134L28.6573 30.2065C28.8377 30.4558 29.2174 30.886 29.4955 31.1742L29.8554 30.827ZM30.6733 31.5556C30.4977 31.434 30.1304 31.107 29.8538 30.8254L29.4971 31.1758C29.7809 31.4647 30.1742 31.8181 30.3887 31.9667L30.6733 31.5556ZM31.5671 32.0572C31.2586 31.9054 30.8533 31.6755 30.6697 31.5531L30.3924 31.9692C30.599 32.1069 31.0244 32.3474 31.3463 32.5058L31.5671 32.0572ZM32.5334 32.4536C32.3127 32.3832 31.8734 32.203 31.5642 32.0558L31.3492 32.5072C31.6704 32.6602 32.1318 32.8503 32.3814 32.93L32.5334 32.4536ZM32.7411 32.5195C32.679 32.4999 32.6082 32.4775 32.5334 32.4536L32.3814 32.93C32.457 32.9541 32.5284 32.9767 32.5905 32.9963L32.7411 32.5195ZM33.0695 32.6552C33.0436 32.6293 33.0177 32.6153 33.0147 32.6136C33.0062 32.6089 32.9991 32.6055 32.9955 32.6038C32.9879 32.6003 32.9813 32.5977 32.9779 32.5964C32.9703 32.5935 32.9624 32.5907 32.956 32.5885C32.9424 32.5838 32.9246 32.5779 32.9044 32.5714C32.8636 32.5582 32.8068 32.5402 32.7411 32.5195L32.5905 32.9963C32.6569 33.0172 32.7118 33.0346 32.7506 33.0471C32.7702 33.0535 32.7841 33.0581 32.7927 33.0611C32.7974 33.0627 32.7982 33.063 32.7969 33.0625C32.7966 33.0624 32.7924 33.0608 32.7865 33.0581C32.7838 33.0568 32.7774 33.0538 32.7695 33.0494C32.7654 33.0471 32.759 33.0433 32.7514 33.0381C32.7448 33.0336 32.731 33.0238 32.7158 33.0086L33.0695 32.6552ZM33.0478 33.4363C33.0783 33.2837 33.1039 33.1417 33.1208 33.0366C33.1291 32.9846 33.1357 32.9391 33.1396 32.905C33.1415 32.889 33.1434 32.8698 33.144 32.8518C33.1442 32.845 33.1448 32.8261 33.1421 32.8039C33.141 32.7955 33.1373 32.7661 33.1224 32.7322C33.1138 32.7126 33.0521 32.5819 32.8927 32.5819V33.0819C32.7339 33.0819 32.6727 32.9517 32.6645 32.9331C32.6501 32.9001 32.6467 32.8722 32.6459 32.8657C32.6446 32.855 32.6443 32.8468 32.6442 32.8433C32.6442 32.8391 32.6442 32.8362 32.6443 32.835C32.6444 32.8322 32.6444 32.8353 32.6429 32.8479C32.6402 32.8711 32.635 32.9081 32.6271 32.9574C32.6114 33.055 32.587 33.1907 32.5575 33.3382L33.0478 33.4363ZM32.7406 34.6139C32.8475 34.2781 32.9909 33.7468 33.0485 33.4324L32.5567 33.3422C32.5043 33.6282 32.3675 34.1376 32.2642 34.4623L32.7406 34.6139ZM32.3125 35.697C32.4383 35.4349 32.6272 34.9544 32.7396 34.6171L32.2652 34.459C32.1575 34.7822 31.9761 35.2423 31.8617 35.4806L32.3125 35.697ZM31.8245 36.5957C31.9736 36.3541 32.194 35.9548 32.3142 35.6933L31.86 35.4843C31.7501 35.7232 31.5402 36.1044 31.399 36.3331L31.8245 36.5957ZM31.2608 37.4157C31.4212 37.2036 31.6702 36.8375 31.8225 36.5989L31.4011 36.3299C31.2532 36.5616 31.0118 36.916 30.862 37.1142L31.2608 37.4157ZM30.5094 38.2805C30.7667 38.0181 31.099 37.6298 31.2608 37.4157L30.862 37.1142C30.7136 37.3104 30.3955 37.6826 30.1524 37.9305L30.5094 38.2805ZM29.5865 39.1363C29.8475 38.9275 30.2558 38.5443 30.5111 38.2788L30.1507 37.9322C29.9056 38.1871 29.5135 38.5544 29.2741 38.7459L29.5865 39.1363ZM28.6892 39.7873C28.9338 39.6311 29.3314 39.3404 29.5865 39.1363L29.2741 38.7459C29.0288 38.9421 28.6459 39.2217 28.4202 39.3658L28.6892 39.7873ZM27.7392 40.3113C28.0216 40.1727 28.4439 39.9386 28.686 39.7893L28.4234 39.3638C28.1951 39.5047 27.7869 39.7309 27.5189 39.8625L27.7392 40.3113ZM26.5583 40.784C26.9196 40.6619 27.4509 40.4528 27.7392 40.3113L27.5189 39.8625C27.2568 39.9911 26.7474 40.1923 26.3982 40.3104L26.5583 40.784ZM25.4218 41.0885C25.6867 41.0408 26.1942 40.9071 26.5583 40.784L26.3982 40.3104C26.0518 40.4275 25.5686 40.554 25.3332 40.5964L25.4218 41.0885ZM23.6513 41.1725C24.5835 41.1725 25.0662 41.1531 25.4222 41.0884L25.3328 40.5964C25.0283 40.6518 24.5904 40.6725 23.6513 40.6725V41.1725ZM21.826 41.0675C22.2784 41.158 22.5663 41.1725 23.6513 41.1725V40.6725C22.5648 40.6725 22.3223 40.6569 21.9241 40.5773L21.826 41.0675ZM20.7465 40.7748C21.0579 40.8769 21.5383 41.01 21.826 41.0675L21.9241 40.5773C21.6615 40.5247 21.2012 40.3977 20.9022 40.2996L20.7465 40.7748ZM19.5673 40.2982C19.9044 40.4565 20.4294 40.6708 20.7465 40.7748L20.9022 40.2996C20.6089 40.2035 20.1031 39.9975 19.7798 39.8456L19.5673 40.2982ZM18.564 39.7576C18.7798 39.8945 19.2296 40.1396 19.5673 40.2982L19.7798 39.8456C19.4571 39.694 19.0263 39.4588 18.8318 39.3354L18.564 39.7576ZM17.7427 39.1676C17.9843 39.3577 18.3504 39.617 18.5604 39.7553L18.8354 39.3377C18.6351 39.2058 18.2807 38.9548 18.052 38.7747L17.7427 39.1676ZM16.87 38.3924C17.1109 38.6333 17.4995 38.9813 17.7453 39.1696L18.0493 38.7727C17.8249 38.6007 17.4529 38.2682 17.2235 38.0388L16.87 38.3924ZM16.0662 37.465C16.2683 37.7344 16.6263 38.1487 16.87 38.3924L17.2235 38.0388C16.9969 37.8122 16.6544 37.4159 16.4662 37.165L16.0662 37.465ZM15.4697 36.5983C15.6025 36.8077 15.8663 37.1985 16.0662 37.465L16.4662 37.165C16.2758 36.9111 16.0193 36.5314 15.8919 36.3305L15.4697 36.5983ZM14.9986 35.7038C15.1267 35.9806 15.3363 36.3796 15.4674 36.5945L15.8942 36.3342C15.7752 36.1389 15.5744 35.7574 15.4524 35.4938L14.9986 35.7038ZM14.5638 34.6345C14.6712 34.9463 14.8651 35.4318 15.001 35.7089L15.4499 35.4887C15.3257 35.2354 15.1394 34.7703 15.0366 34.4717L14.5638 34.6345ZM14.2751 33.6375C14.3233 33.8735 14.4576 34.3208 14.5634 34.6333L15.037 34.4729C14.9327 34.1649 14.8067 33.7416 14.7649 33.5373L14.2751 33.6375ZM14.145 31.5421C14.1748 32.7681 14.2044 33.3115 14.2757 33.6403L14.7643 33.5345C14.7055 33.2629 14.6751 32.7756 14.6448 31.5299L14.145 31.5421ZM14.0949 27.359C14.0999 28.7504 14.1199 30.6341 14.145 31.5429L14.6448 31.5291C14.6199 30.6266 14.5999 28.7477 14.5949 27.3572L14.0949 27.359ZM14.0949 24.8314V27.3581H14.5949V24.8314H14.0949ZM15.6609 24.3435C15.2835 24.4366 14.8298 24.5292 14.3188 24.5827L14.3709 25.08C14.9107 25.0235 15.3876 24.9259 15.7807 24.8289L15.6609 24.3435ZM16.8652 23.9946C16.5835 24.0918 16.0405 24.2498 15.6609 24.3435L15.7807 24.8289C16.1717 24.7324 16.7295 24.5703 17.0282 24.4673L16.8652 23.9946ZM18.0619 23.4814C17.6831 23.6683 17.1427 23.8989 16.8652 23.9946L17.0282 24.4673C17.3311 24.3629 17.8914 24.1231 18.2832 23.9298L18.0619 23.4814ZM19.2173 22.8622C18.9664 23.0166 18.4441 23.2977 18.0642 23.4803L18.2808 23.9309C18.6715 23.7432 19.2099 23.4539 19.4794 23.2881L19.2173 22.8622ZM20.0481 22.3104C19.8519 22.4587 19.4746 22.7088 19.2203 22.8604L19.4763 23.2899C19.7425 23.1312 20.1357 22.871 20.3497 22.7092L20.0481 22.3104ZM21.253 21.2022C20.7817 21.6735 20.2389 22.1708 20.0513 22.308L20.3465 22.7115C20.5693 22.5486 21.1372 22.0252 21.6065 21.5558L21.253 21.2022ZM22.4121 19.9511C22.2431 20.1717 21.7186 20.7366 21.253 21.2022L21.6065 21.5558C22.0716 21.0907 22.6178 20.5049 22.809 20.2551L22.4121 19.9511ZM22.9978 19.097C22.8521 19.335 22.5868 19.7231 22.4121 19.9511L22.809 20.2551C22.9946 20.0128 23.2697 19.6104 23.4242 19.358L22.9978 19.097ZM23.4439 18.3129C23.3464 18.5029 23.15 18.8563 22.9997 19.0938L23.4223 19.3612C23.5822 19.1083 23.7861 18.7413 23.8888 18.541L23.4439 18.3129ZM23.8048 17.5078C23.7025 17.7609 23.535 18.1256 23.4416 18.3175L23.8911 18.5364C23.9877 18.338 24.1605 17.9622 24.2684 17.695L23.8048 17.5078ZM24.1835 16.475C24.0856 16.7835 23.9131 17.2515 23.8063 17.504L24.2668 17.6988C24.3801 17.4309 24.5579 16.9483 24.6601 16.6263L24.1835 16.475ZM24.4898 15.4132C24.4205 15.6853 24.2871 16.1643 24.1847 16.4716L24.659 16.6297C24.7667 16.3066 24.9035 15.8149 24.9743 15.5366L24.4898 15.4132ZM24.6477 14.2822C24.6234 14.6423 24.5499 15.1586 24.4887 15.4174L24.9753 15.5324C25.0443 15.2408 25.1209 14.6964 25.1466 14.316L24.6477 14.2822ZM24.7322 9.6436C24.7122 11.8367 24.6771 13.9202 24.648 14.2789L25.1463 14.3193C25.1773 13.9375 25.2123 11.8281 25.2322 9.64818L24.7322 9.6436ZM24.7084 5.10201C24.7468 5.49542 24.7523 6.87745 24.7322 9.64407L25.2322 9.6477C25.2522 6.90052 25.2477 5.48062 25.206 5.05346L24.7084 5.10201ZM24.5885 4.41901C24.5885 4.419 24.5887 4.41944 24.5891 4.42039C24.5896 4.42134 24.5901 4.42268 24.5909 4.42445C24.5923 4.42805 24.5942 4.43295 24.5964 4.43929C24.6008 4.45214 24.6059 4.4689 24.6115 4.48991C24.6228 4.53208 24.6345 4.58582 24.6463 4.6496C24.6698 4.77701 24.6915 4.93516 24.7085 5.10297L25.2059 5.0525C25.1879 4.87507 25.1646 4.703 25.138 4.55897C25.1134 4.42533 25.081 4.28608 25.0357 4.1954L24.5885 4.41901ZM24.2859 4.1062C24.3579 4.16079 24.4302 4.22551 24.488 4.28651C24.5168 4.31691 24.5401 4.34441 24.5573 4.36747C24.5659 4.37889 24.5722 4.38824 24.5766 4.39543C24.5811 4.40287 24.5825 4.4062 24.5823 4.40568L25.0419 4.20873C25.0011 4.11361 24.9227 4.0183 24.851 3.94264C24.7737 3.86104 24.6809 3.77815 24.5878 3.70766L24.2859 4.1062ZM24.0011 3.89136L24.2863 4.10651L24.5874 3.70735L24.3022 3.4922L24.0011 3.89136ZM19.6694 3.86669L24.1475 3.94175L24.1558 3.44182L19.6777 3.36676L19.6694 3.86669ZM19.2911 1.84938C19.3134 1.89827 19.3366 1.96107 19.3582 2.21105C19.38 2.46343 19.3986 2.88057 19.4237 3.62514L19.9234 3.60832C19.8984 2.86686 19.8795 2.43592 19.8563 2.16794C19.8329 1.89756 19.8035 1.76773 19.7458 1.6415L19.2911 1.84938ZM19.0374 1.52158C19.0834 1.5602 19.1389 1.61898 19.1889 1.68343C19.2405 1.75 19.2736 1.80652 19.2863 1.83829L19.7506 1.65259C19.7132 1.55927 19.6488 1.46069 19.5841 1.37715C19.5177 1.2915 19.4381 1.20517 19.359 1.13873L19.0374 1.52158ZM18.6273 1.2948C18.7616 1.33429 18.9207 1.42152 19.0355 1.51997L19.3609 1.14034C19.1956 0.998616 18.9744 0.875704 18.7684 0.815121L18.6273 1.2948ZM18.2262 1.25328C18.318 1.24269 18.495 1.2576 18.6302 1.29562L18.7656 0.814299C18.5805 0.762257 18.3373 0.737146 18.1689 0.756575L18.2262 1.25328ZM17.9043 1.34094C17.9771 1.30644 18.1278 1.26131 18.2175 1.25413L18.1776 0.755724C18.0171 0.768562 17.8076 0.833501 17.6902 0.889069L17.9043 1.34094ZM17.6019 1.53638C17.6827 1.47261 17.8294 1.3806 17.9137 1.33623L17.6808 0.893774C17.575 0.949472 17.4015 1.05761 17.2921 1.14394L17.6019 1.53638ZM17.4126 1.79156C17.4272 1.75643 17.4575 1.70451 17.4978 1.65058C17.5385 1.59612 17.5775 1.55568 17.6019 1.53638L17.2921 1.14394C17.2215 1.19969 17.1529 1.27683 17.0973 1.35121C17.0413 1.42612 16.9865 1.5143 16.9511 1.59925L17.4126 1.79156ZM17.286 2.56016C17.3006 2.37089 17.321 2.20121 17.3444 2.0648C17.3689 1.9223 17.3936 1.83441 17.4103 1.79694L16.9534 1.59387C16.91 1.69149 16.8772 1.83126 16.8516 1.9802C16.825 2.13525 16.8029 2.32081 16.7875 2.52181L17.286 2.56016ZM17.2617 5.44012C17.2466 4.13034 17.257 2.90767 17.2859 2.56175L16.7876 2.52023C16.7564 2.8948 16.7468 4.14384 16.7617 5.44586L17.2617 5.44012ZM17.3453 7.96314C17.3269 7.88399 17.3081 7.67649 17.2935 7.2574C17.2792 6.84866 17.2692 6.26096 17.2617 5.4407L16.7617 5.44528C16.7692 6.26615 16.7793 6.85927 16.7938 7.27484C16.8079 7.68007 16.8266 7.94039 16.8583 8.0764L17.3453 7.96314ZM17.5711 8.37573C17.4826 8.28481 17.4416 8.23285 17.4151 8.18477C17.3896 8.13861 17.3696 8.08176 17.3467 7.96978L16.8568 8.06976C16.884 8.20294 16.9165 8.31621 16.9774 8.42641C17.0371 8.53469 17.1163 8.62533 17.2129 8.72454L17.5711 8.37573ZM17.9536 8.62393C17.8332 8.58254 17.6899 8.49453 17.5688 8.37336L17.2152 8.72691C17.3842 8.89594 17.5912 9.02808 17.791 9.09677L17.9536 8.62393ZM18.3727 8.69541C18.2575 8.69541 18.0624 8.66414 17.9591 8.62591L17.7855 9.09478C17.9524 9.15662 18.2076 9.19541 18.3727 9.19541V8.69541ZM18.7641 8.60028C18.64 8.66034 18.4869 8.69541 18.3727 8.69541V9.19541C18.5686 9.19541 18.7958 9.14041 18.9819 9.05036L18.7641 8.60028ZM19.1065 8.36335C19.0382 8.43165 18.8768 8.54602 18.7645 8.60007L18.9815 9.05057C19.1394 8.97453 19.3482 8.82872 19.4601 8.7169L19.1065 8.36335ZM19.3059 8.06642C19.2673 8.15133 19.1728 8.29329 19.1018 8.36819L19.4648 8.71206C19.5739 8.59683 19.6996 8.40856 19.761 8.27332L19.3059 8.06642ZM19.3987 7.13433C19.3862 7.45199 19.374 7.66169 19.3575 7.80953C19.3411 7.95711 19.322 8.02757 19.3029 8.07319L19.764 8.26655C19.8099 8.15707 19.8359 8.03239 19.8545 7.86475C19.8731 7.69738 19.8858 7.47178 19.8983 7.154L19.3987 7.13433ZM19.4237 6.31102L19.3987 7.13659L19.8984 7.15174L19.9234 6.32617L19.4237 6.31102ZM22.0973 6.18552C21.9741 6.11655 21.8304 6.09845 21.5262 6.08691C21.2074 6.07482 20.658 6.07109 19.6742 6.06859L19.6729 6.56859C20.6605 6.5711 21.1994 6.57488 21.5072 6.58655C21.8297 6.59878 21.8511 6.6207 21.853 6.62178L22.0973 6.18552ZM22.4331 6.44822C22.344 6.35276 22.1981 6.24222 22.0977 6.18576L21.8526 6.62155C21.9123 6.65514 22.0166 6.73474 22.0676 6.78938L22.4331 6.44822ZM22.5589 6.58404L22.4338 6.44895L22.0669 6.78865L22.192 6.92375L22.5589 6.58404ZM22.4983 14.2057C22.5155 14.0707 22.533 13.5902 22.5535 12.4705C22.5741 11.3406 22.5979 9.54347 22.6254 6.75636L22.1254 6.75143C22.0979 9.53816 22.0742 11.3336 22.0535 12.4614C22.0327 13.5995 22.0151 14.0421 22.0023 14.1424L22.4983 14.2057ZM22.3656 14.9974C22.4063 14.7887 22.4672 14.4337 22.498 14.2078L22.0026 14.1402C21.9734 14.3547 21.9142 14.7001 21.8749 14.9017L22.3656 14.9974ZM22.0822 16.0043C22.1947 15.6668 22.3173 15.2179 22.3644 15.0031L21.8761 14.8959C21.8331 15.0914 21.7155 15.5232 21.6079 15.8462L22.0822 16.0043ZM21.5826 17.2142C21.7492 16.8862 21.9689 16.3442 22.0822 16.0043L21.6079 15.8462C21.501 16.1667 21.2904 16.6854 21.1368 16.9878L21.5826 17.2142ZM20.998 18.2394C21.1599 17.994 21.4197 17.5349 21.5826 17.2142L21.1368 16.9878C20.9795 17.2976 20.729 17.7391 20.5806 17.9641L20.998 18.2394ZM20.2997 19.1638C20.5254 18.8971 20.8367 18.4839 20.998 18.2394L20.5806 17.9641C20.4317 18.1899 20.1326 18.5872 19.918 18.8409L20.2997 19.1638ZM19.5377 19.9818C19.7383 19.7971 20.0813 19.428 20.3015 19.1617L19.9162 18.843C19.7062 19.097 19.3787 19.4485 19.199 19.614L19.5377 19.9818ZM18.7986 20.5977C19.0098 20.4381 19.3413 20.1627 19.5377 19.9818L19.199 19.614C19.0152 19.7833 18.6962 20.0483 18.4971 20.1989L18.7986 20.5977ZM17.9463 21.1557C18.1996 21.011 18.5839 20.7601 18.7986 20.5977L18.4971 20.1989C18.3015 20.3468 17.9353 20.5861 17.6982 20.7216L17.9463 21.1557ZM16.9289 21.6848C17.237 21.5384 17.695 21.3045 17.9496 21.1538L17.6949 20.7235C17.4592 20.8631 17.0166 21.0895 16.7142 21.2333L16.9289 21.6848ZM15.7749 22.1465C16.1005 22.038 16.6144 21.8292 16.9259 21.6862L16.7173 21.2318C16.4184 21.369 15.9216 21.5706 15.6168 21.6722L15.7749 22.1465ZM14.6334 22.4316C14.9399 22.384 15.449 22.2551 15.7749 22.1465L15.6168 21.6722C15.3122 21.7737 14.8306 21.895 14.5567 21.9375L14.6334 22.4316ZM12.7391 22.4895C13.8013 22.5096 14.1888 22.4951 14.6304 22.432L14.5597 21.9371C14.1608 21.994 13.8077 22.0096 12.7485 21.9896L12.7391 22.4895ZM11.0114 22.3781C11.3025 22.4453 11.7678 22.4697 12.7387 22.4895L12.7489 21.9896C11.7584 21.9694 11.3531 21.9438 11.1238 21.8909L11.0114 22.3781ZM10.0629 22.0965C10.3809 22.2025 10.8093 22.3302 11.01 22.3778L11.1252 21.8912C10.9457 21.8487 10.5335 21.7263 10.221 21.6221L10.0629 22.0965ZM8.93571 21.6457C9.23363 21.7843 9.73781 21.9881 10.0629 22.0965L10.221 21.6221C9.91571 21.5204 9.42921 21.3239 9.14673 21.1924L8.93571 21.6457ZM7.98483 21.1367C8.21312 21.2768 8.63684 21.5065 8.93571 21.6457L9.14673 21.1924C8.8652 21.0613 8.45834 20.8407 8.24633 20.7106L7.98483 21.1367ZM7.14069 20.5538C7.37827 20.7307 7.75538 20.996 7.98483 21.1368L8.24633 20.7106C8.03548 20.5812 7.67208 20.3261 7.43933 20.1528L7.14069 20.5538ZM6.23585 19.7527C6.48835 20.0104 6.89331 20.3696 7.14069 20.5538L7.43933 20.1528C7.21638 19.9867 6.83081 19.6455 6.59296 19.4028L6.23585 19.7527ZM5.4404 18.8542C5.62826 19.0994 5.98602 19.5029 6.23763 19.7545L6.59118 19.401C6.35245 19.1622 6.00973 18.7752 5.83734 18.5501L5.4404 18.8542ZM4.8554 18.0073C4.99619 18.2368 5.26144 18.6139 5.43836 18.8515L5.83938 18.5528C5.66606 18.3201 5.41095 17.9567 5.28156 17.7458L4.8554 18.0073ZM4.33234 17.0333C4.48076 17.3454 4.71509 17.7787 4.8554 18.0073L5.28156 17.7458C5.15168 17.5342 4.92569 17.1168 4.78391 16.8186L4.33234 17.0333ZM3.87143 15.9065C3.97959 16.2207 4.18328 16.7197 4.33234 17.0333L4.78391 16.8186C4.64277 16.5217 4.44618 16.04 4.3442 15.7438L3.87143 15.9065ZM3.58369 14.8792C3.64073 15.1333 3.76808 15.5914 3.87026 15.903L4.34537 15.7473C4.24741 15.4485 4.12459 15.006 4.07155 14.7697L3.58369 14.8792ZM3.43254 10.5748C3.47733 14.0137 3.49144 14.4344 3.58283 14.8752L4.07242 14.7737C3.99369 14.394 3.97777 14.0441 3.9325 10.5683L3.43254 10.5748ZM3.52755 6.49382C3.50766 6.52034 3.48396 6.55597 3.46451 6.60666C3.44666 6.65317 3.43599 6.70293 3.42854 6.7568C3.41414 6.861 3.4072 7.01819 3.40439 7.27085C3.39872 7.78184 3.41005 8.73785 3.43254 10.5746L3.9325 10.5685C3.90996 8.72766 3.89877 7.77986 3.90436 7.2764C3.90719 7.02184 3.91431 6.89415 3.92384 6.82526C3.92835 6.79259 3.9321 6.78375 3.93132 6.78579C3.92893 6.79202 3.92493 6.79731 3.92755 6.79382L3.52755 6.49382ZM3.86748 6.20231C3.7471 6.272 3.60713 6.39243 3.53097 6.48936L3.92413 6.79827C3.95805 6.75511 4.04824 6.6754 4.118 6.63502L3.86748 6.20231ZM5.24478 6.05361C4.75849 6.06106 4.47208 6.06731 4.28845 6.08401C4.09101 6.10195 3.98447 6.13437 3.8672 6.20247L4.11827 6.63486C4.1561 6.61289 4.18717 6.59527 4.33371 6.58195C4.49407 6.56737 4.75804 6.56112 5.25243 6.55355L5.24478 6.05361ZM6.33706 6.04359L5.24631 6.05359L5.2509 6.55357L6.34165 6.54357L6.33706 6.04359ZM6.68605 8.07578C6.6688 8.0333 6.64832 7.97156 6.63133 7.71786C6.6143 7.46371 6.60184 7.04087 6.58932 6.28941L6.08939 6.29774C6.10188 7.04731 6.11444 7.48257 6.13244 7.75128C6.15047 8.02045 6.17503 8.14633 6.22282 8.26397L6.68605 8.07578ZM6.88138 8.35835C6.8147 8.29166 6.721 8.15216 6.68203 8.06642L6.22684 8.27332C6.28794 8.40773 6.41439 8.59846 6.52783 8.7119L6.88138 8.35835ZM7.18457 8.59084C7.09555 8.54228 6.95675 8.43777 6.88609 8.36319L6.52312 8.70706C6.63258 8.82261 6.81401 8.95826 6.94514 9.02979L7.18457 8.59084ZM7.66527 8.67039C7.37009 8.67039 7.28529 8.64607 7.18506 8.59111L6.94465 9.02952C7.15463 9.14467 7.34002 9.17039 7.66527 9.17039V8.67039ZM8.16544 8.57394C8.08189 8.62231 8.03676 8.64074 7.98328 8.65188C7.92107 8.66484 7.83546 8.67039 7.66527 8.67039V9.17039C7.83532 9.17039 7.96735 9.16593 8.08526 9.14137C8.21191 9.11498 8.30938 9.06836 8.41596 9.00665L8.16544 8.57394ZM8.48548 8.31317C8.42236 8.38743 8.27031 8.51098 8.16208 8.57593L8.41932 9.00467C8.56126 8.91951 8.75946 8.76287 8.86645 8.63699L8.48548 8.31317ZM8.65598 7.95573C8.62262 8.1225 8.5694 8.22496 8.49547 8.3021L8.85646 8.64806C9.01269 8.48504 9.09957 8.28729 9.14627 8.05379L8.65598 7.95573ZM8.71617 4.96766C8.71617 5.97589 8.71241 6.68028 8.70246 7.15835C8.69749 7.39753 8.691 7.57767 8.68287 7.70974C8.67442 7.84679 8.66491 7.91748 8.65792 7.94685L9.14432 8.06266C9.16235 7.98696 9.17348 7.87752 9.18192 7.74048C9.19067 7.59846 9.19732 7.41053 9.20235 7.16875C9.21242 6.68491 9.21617 5.97583 9.21617 4.96766H8.71617ZM8.65824 1.99981C8.66495 2.02732 8.67443 2.09558 8.68288 2.23073C8.69101 2.36074 8.69749 2.53877 8.70246 2.77638C8.71241 3.2513 8.71617 3.95442 8.71617 4.96766H9.21617C9.21617 3.95451 9.21242 3.24665 9.20235 2.76591C9.19732 2.52569 9.19067 2.33972 9.18191 2.19954C9.17347 2.06451 9.16231 1.9564 9.144 1.88133L8.65824 1.99981ZM8.50076 1.64644C8.55317 1.71195 8.62906 1.87072 8.65726 1.99564L9.14498 1.88551C9.10314 1.70021 8.9989 1.46871 8.8912 1.33409L8.50076 1.64644ZM8.16805 1.39063C8.22757 1.42237 8.29923 1.47007 8.36504 1.5215C8.43343 1.57495 8.48041 1.62066 8.49976 1.64517L8.8922 1.33535C8.8365 1.2648 8.75339 1.19042 8.67293 1.12754C8.58989 1.06265 8.49393 0.997766 8.40334 0.949453L8.16805 1.39063ZM7.69749 1.25429C7.8755 1.26701 8.00976 1.30318 8.16478 1.38885L8.40662 0.951231C8.18138 0.826755 7.9754 0.772869 7.73312 0.755563L7.69749 1.25429ZM7.33282 1.28708C7.35062 1.27996 7.3997 1.26782 7.47697 1.25987C7.54951 1.2524 7.62983 1.25033 7.70062 1.2545L7.72998 0.755359C7.63066 0.749516 7.52335 0.752452 7.42577 0.762496C7.33293 0.772054 7.2294 0.789933 7.14713 0.822843L7.33282 1.28708ZM33.1381 22.7913C33.3668 22.7135 33.685 22.629 33.8425 22.6072L33.7737 22.1119C33.571 22.1401 33.2187 22.2357 32.977 22.318L33.1381 22.7913ZM32.4935 23.0806C32.6213 23.0057 32.9164 22.8716 33.1426 22.7898L32.9725 22.3196C32.7284 22.4079 32.4031 22.554 32.2407 22.6492L32.4935 23.0806ZM31.9534 23.4758C32.1106 23.3425 32.3597 23.1609 32.4957 23.0793L32.2385 22.6505C32.0743 22.749 31.803 22.9477 31.6299 23.0945L31.9534 23.4758ZM31.3957 24.0614C31.541 23.8692 31.7969 23.6003 31.9472 23.481L31.6362 23.0894C31.4463 23.2402 31.1618 23.5417 30.9969 23.7598L31.3957 24.0614ZM30.9628 24.7612C31.0485 24.5764 31.2482 24.2565 31.3957 24.0614L30.9969 23.7598C30.8342 23.975 30.6136 24.3256 30.5091 24.551L30.9628 24.7612ZM30.722 25.3974C30.7624 25.249 30.872 24.9572 30.9628 24.7612L30.5091 24.551C30.4098 24.7653 30.2892 25.0839 30.2396 25.2658L30.722 25.3974ZM30.6203 26.1458C30.6349 25.8795 30.6834 25.5387 30.722 25.3974L30.2396 25.2658C30.1881 25.4547 30.1366 25.8344 30.1211 26.1185L30.6203 26.1458ZM30.6713 27.011C30.6155 26.7179 30.6013 26.4982 30.6203 26.1456L30.1211 26.1186C30.1001 26.5066 30.1159 26.7672 30.1802 27.1046L30.6713 27.011ZM30.8817 27.7121C30.8139 27.5495 30.7179 27.2297 30.6703 27.0058L30.1812 27.1098C30.2336 27.3562 30.3378 27.7068 30.4201 27.9045L30.8817 27.7121ZM31.2242 28.3451C31.1004 28.1594 30.9453 27.8757 30.8839 27.7177L30.4179 27.8989C30.4966 28.1012 30.6717 28.4178 30.8081 28.6224L31.2242 28.3451ZM31.7838 29.003C31.5958 28.8244 31.3384 28.5187 31.225 28.3464L30.8073 28.6212C30.9441 28.8291 31.2271 29.1638 31.4394 29.3655L31.7838 29.003ZM32.4549 29.5219C32.2835 29.4252 31.9798 29.1895 31.7839 29.0031L31.4393 29.3654C31.6536 29.5693 31.9904 29.8339 32.2092 29.9574L32.4549 29.5219ZM32.9771 29.7934C32.8838 29.7553 32.6518 29.633 32.4549 29.5219L32.2092 29.9574C32.4026 30.0665 32.661 30.2043 32.7878 30.2562L32.9771 29.7934ZM33.4553 29.9557C33.292 29.9062 33.0759 29.8339 32.9771 29.7934L32.7878 30.2562C32.9091 30.3058 33.1434 30.3836 33.3103 30.4342L33.4553 29.9557ZM34.3334 30.035C33.863 30.035 33.6377 30.0096 33.4536 29.9552L33.312 30.4347C33.5681 30.5104 33.8532 30.535 34.3334 30.535V30.035ZM35.2411 29.9544C35.0456 30.0096 34.794 30.035 34.3334 30.035V30.535C34.8036 30.535 35.1123 30.5104 35.3771 30.4355L35.2411 29.9544ZM35.9765 29.6644C35.7304 29.7825 35.4035 29.9137 35.2485 29.9524L35.3698 30.4375C35.575 30.3862 35.9386 30.2371 36.1928 30.1151L35.9765 29.6644ZM36.7203 29.1932C36.5434 29.3328 36.2076 29.5487 35.9729 29.6661L36.1965 30.1133C36.462 29.9806 36.8267 29.7462 37.0301 29.5856L36.7203 29.1932ZM37.2654 28.6378C37.1362 28.7993 36.8877 29.0527 36.7146 29.1978L37.0358 29.581C37.2329 29.4158 37.5049 29.1389 37.6558 28.9501L37.2654 28.6378ZM37.6894 27.9677C37.5794 28.1781 37.3875 28.484 37.2648 28.6385L37.6564 28.9494C37.8039 28.7637 38.0123 28.4292 38.1325 28.1993L37.6894 27.9677ZM37.9749 27.2172C37.919 27.4222 37.7897 27.767 37.6873 27.9717L38.1345 28.1953C38.2523 27.9597 38.3932 27.584 38.4573 27.3487L37.9749 27.2172ZM38.0762 26.3573C38.0762 26.7046 38.0431 26.9626 37.9746 27.2183L38.4576 27.3476C38.5392 27.0429 38.5762 26.7405 38.5762 26.3573H38.0762ZM37.9978 25.5139C38.0523 25.7454 38.081 26.0147 38.0762 26.3538L38.5762 26.3608C38.5814 25.9894 38.5501 25.6783 38.4845 25.3994L37.9978 25.5139ZM37.7628 24.8333C37.8421 25.0106 37.9521 25.3265 37.9983 25.5159L38.484 25.3974C38.4302 25.1766 38.31 24.8321 38.2192 24.6291L37.7628 24.8333ZM37.4206 24.2237C37.5253 24.3738 37.6784 24.6505 37.764 24.8359L38.218 24.6264C38.1234 24.4215 37.9563 24.1178 37.8308 23.9378L37.4206 24.2237ZM36.8578 23.5862C37.0662 23.7849 37.3219 24.0757 37.4177 24.2194L37.8337 23.9421C37.7094 23.7555 37.4247 23.4359 37.2028 23.2243L36.8578 23.5862ZM36.0686 23.0162C36.3508 23.1643 36.5982 23.3455 36.8603 23.5886L37.2003 23.2219C36.912 22.9546 36.629 22.7456 36.3009 22.5735L36.0686 23.0162ZM35.2944 22.7011C35.4776 22.7502 35.8306 22.8925 36.0694 23.0166L36.3001 22.573C36.0385 22.437 35.651 22.2791 35.4239 22.2181L35.2944 22.7011ZM34.548 22.5893C34.7627 22.5984 35.1062 22.6552 35.2999 22.7025L35.4184 22.2167C35.2018 22.1639 34.8249 22.1006 34.5692 22.0898L34.548 22.5893ZM33.8425 22.6072C34.0029 22.5849 34.321 22.5749 34.5427 22.589L34.5745 22.09C34.3259 22.0742 33.9735 22.0842 33.7737 22.1119L33.8425 22.6072Z" fill="#D21341"/>
</svg>
