<svg width="46" height="39" viewBox="0 0 46 39" fill="none" xmlns="http://www.w3.org/2000/svg">
<path fill-rule="evenodd" clip-rule="evenodd" d="M35.5335 0.215028C35.2634 0.125016 34.8134 0.0350045 34.5333 0.0150019C34.2633 -0.00500064 33.8332 -0.00500064 33.5832 0.0150019L33.5503 0.0176326C33.2145 0.0445146 31.6497 0.169776 29.9827 0.295038C28.2525 0.435056 25.7922 0.635081 24.532 0.755097C23.2719 0.865111 21.8917 1.02513 21.4817 1.11514C21.0716 1.19515 20.4815 1.38518 20.1815 1.5452C19.8814 1.69522 19.3414 2.08527 18.9813 2.40531C18.6213 2.72535 16.601 4.6956 14.4808 6.78587C12.3605 8.88614 8.21996 13.0267 5.25958 15.997C0.588978 20.7076 -0.0911085 21.4177 0.00890434 21.5678C0.0789133 21.6678 4.00942 25.6283 8.75002 30.3689L17.3711 39C31.1429 25.1982 35.6035 20.6776 36.1635 20.0476C36.7236 19.4175 37.1837 18.8374 37.1837 18.7674C37.1837 18.7074 36.6636 18.3974 36.0335 18.0973L34.8834 17.5472L17.3911 35.0995L3.72938 21.4477C16.9811 8.21605 21.0116 4.25554 21.2316 4.10553C21.5217 3.9155 21.9017 3.80549 22.6318 3.70547C23.1819 3.61546 25.2721 3.41544 27.2824 3.24542C27.4577 3.23146 27.6357 3.21727 27.8152 3.20297C29.6931 3.05331 31.7297 2.89101 32.5331 2.84536C33.4332 2.78536 34.3033 2.77536 34.5333 2.81536C34.7534 2.86537 35.0934 3.03539 35.2834 3.18541C35.4734 3.34543 35.6935 3.55545 35.7535 3.65547C35.8235 3.76548 35.9135 4.03552 35.9435 4.26555C35.9835 4.50558 35.9235 5.86575 35.8335 7.29593C35.7335 8.72612 35.6835 10.0563 35.7135 10.2463C35.7635 10.4863 35.9335 10.7464 36.2535 11.0564C36.5236 11.3164 36.9936 11.7265 37.3037 11.9865C37.6237 12.2366 37.9438 12.4466 38.0038 12.4466C38.0838 12.4466 38.1638 12.2266 38.2138 11.8765C38.2538 11.5565 38.3538 10.3963 38.4338 9.29619C38.5138 8.19605 38.6138 6.48583 38.6439 5.4957C38.6939 3.8855 38.6839 3.63547 38.5138 3.1454C38.4038 2.84536 38.1838 2.39531 38.0138 2.14527C37.8537 1.89524 37.5637 1.5452 37.3737 1.35517C37.1837 1.16515 36.8136 0.865111 36.5336 0.695089C36.2635 0.515066 35.8135 0.305039 35.5335 0.215028ZM42.0643 6.47583C41.6942 6.04577 41.1942 5.52571 40.9441 5.32568C40.5641 4.99564 40.4941 4.97564 40.4441 5.12566C40.4141 5.21567 40.3641 6.05577 40.3241 6.9959L40.2441 8.69611C41.1142 10.0163 41.4542 10.5864 41.5742 10.8164C41.6842 11.0564 41.8943 11.5865 42.0343 11.9965C42.1743 12.4166 42.2843 12.9767 42.2843 13.2667C42.2843 13.5767 42.2143 13.9468 42.1043 14.1368C42.0143 14.3268 41.8043 14.5769 41.6542 14.6869C41.4642 14.8269 41.1642 14.9069 40.8041 14.9369C40.4641 14.9569 39.974 14.8969 39.584 14.7969C39.2239 14.6969 38.6639 14.4969 38.3338 14.3468C38.0038 14.2068 37.3737 13.8368 36.9336 13.5467C36.4936 13.2467 35.7835 12.6666 35.3434 12.2466C34.9134 11.8365 34.3433 11.2264 34.0833 10.8964C33.8232 10.5664 33.4432 10.0263 33.2532 9.69624L32.9031 9.09616C33.3632 8.09604 33.4032 7.89601 33.3632 7.44595C33.3332 7.14591 33.2132 6.71586 33.1031 6.49583C32.9931 6.2758 32.7731 5.97576 32.6131 5.83575C32.4631 5.68573 32.183 5.4957 32.013 5.40569C31.833 5.31568 31.5029 5.21567 31.2729 5.18566C31.0329 5.14566 30.6628 5.18566 30.3528 5.27568C29.9927 5.38569 29.6827 5.57571 29.3627 5.88575C28.9926 6.2458 28.8426 6.47583 28.7226 6.91589C28.6226 7.26593 28.5826 7.64598 28.6226 7.86601C28.6526 8.07603 28.7526 8.39608 28.8426 8.5661C28.9326 8.74612 29.2827 9.18618 29.6327 9.54622C29.9727 9.90627 30.4128 10.5063 30.6128 10.8964C30.8128 11.2764 31.2729 11.9765 31.623 12.4466C31.973 12.9167 32.7031 13.7268 33.2432 14.2468C33.7932 14.7669 34.6833 15.497 35.2334 15.867C35.7835 16.2371 36.6136 16.7171 37.0837 16.9372C37.5537 17.1572 38.2938 17.4372 38.7339 17.5472C39.1739 17.6673 39.894 17.7873 40.3341 17.8173C40.9041 17.8573 41.3242 17.8273 41.7843 17.7073C42.1443 17.6173 42.6744 17.4172 42.9744 17.2672C43.2644 17.1172 43.7245 16.7571 43.9945 16.4671C44.2646 16.1871 44.5946 15.707 44.7346 15.417C44.8647 15.1369 45.0247 14.6469 45.0847 14.3468C45.1447 14.0468 45.1847 13.5567 45.1847 13.2667C45.1847 12.9867 45.1147 12.4466 45.0347 12.0665C44.9547 11.6965 44.7846 11.0764 44.6546 10.6964C44.5246 10.3063 44.2746 9.72624 44.1046 9.3962C43.9345 9.06616 43.5645 8.44608 43.2644 8.02603C42.9744 7.60597 42.4343 6.90588 42.0643 6.47583ZM21.0616 11.5965C20.6015 11.3465 20.4115 11.2964 19.5814 11.2664C18.7313 11.2364 18.5813 11.2564 18.1312 11.4865C17.8612 11.6165 17.4511 11.9265 17.2411 12.1666C17.0211 12.4066 16.751 12.7966 16.641 13.0467C16.491 13.3767 16.431 13.7068 16.431 14.2968C16.431 14.8869 16.491 15.2169 16.641 15.547C16.751 15.797 17.0011 16.1771 17.2011 16.3971C17.4011 16.6171 17.7812 16.9072 18.0412 17.0472C18.3913 17.2272 18.7413 17.3072 19.2814 17.3372C19.7914 17.3572 20.1915 17.3172 20.5315 17.2172C20.8116 17.1272 21.2416 16.8672 21.5217 16.6271C21.8117 16.3671 22.1317 15.957 22.3118 15.597C22.5918 15.0369 22.6018 14.9369 22.5618 14.1468C22.5318 13.6067 22.4418 13.1667 22.3318 12.9467C22.2318 12.7566 22.0217 12.4366 21.8717 12.2466C21.7217 12.0565 21.3516 11.7665 21.0616 11.5965ZM27.0824 18.5474H11.8704L11.9304 20.1976L27.0824 20.2476V18.5474ZM20.8516 21.6278C20.5515 21.4777 20.2115 21.4077 19.6314 21.3777C19.1114 21.3577 18.6913 21.3977 18.4313 21.4978C18.2112 21.5778 17.8112 21.8378 17.5311 22.0678C17.2611 22.3079 16.9111 22.6979 16.761 22.9479C16.501 23.358 16.481 23.478 16.481 24.3681C16.481 25.0782 16.531 25.4483 16.651 25.7183C16.741 25.9283 17.0511 26.3284 17.3211 26.5984C17.6012 26.8784 18.0112 27.1985 18.2312 27.2985C18.5313 27.4485 18.8413 27.4985 19.4814 27.4985C20.2315 27.4985 20.4015 27.4585 20.9216 27.1985C21.2416 27.0385 21.6317 26.7484 21.7917 26.5684C21.9517 26.3984 22.1817 26.0583 22.3018 25.8183C22.4918 25.4683 22.5318 25.2382 22.5318 24.4481C22.5318 23.628 22.4918 23.428 22.2818 23.0079C22.1417 22.7479 21.8617 22.3679 21.6517 22.1878C21.4517 21.9978 21.0916 21.7478 20.8516 21.6278ZM18.8914 13.0266C18.7014 13.1166 18.4614 13.3066 18.3614 13.4467C18.2513 13.5867 18.1513 13.8967 18.1213 14.1467C18.0813 14.4768 18.1213 14.6968 18.2613 14.9469C18.3614 15.1369 18.6314 15.3969 18.8414 15.5169C19.0514 15.6469 19.3715 15.747 19.5315 15.747C19.6915 15.747 19.9816 15.6469 20.1716 15.5269C20.3616 15.3969 20.6116 15.1669 20.7217 15.0169C20.8617 14.8268 20.9317 14.5868 20.9217 14.3168C20.9217 14.0767 20.8317 13.7467 20.7117 13.5467C20.5816 13.3266 20.3516 13.1266 20.0916 13.0166C19.8715 12.9266 19.5815 12.8466 19.4515 12.8466C19.3315 12.8466 19.0814 12.9266 18.8914 13.0266ZM18.6714 23.3179C18.5014 23.4779 18.2913 23.718 18.2213 23.868C18.1413 24.028 18.0813 24.298 18.0813 24.4681C18.0813 24.6481 18.1713 24.9481 18.2813 25.1182C18.3914 25.2982 18.6314 25.5382 18.8014 25.6482C18.9814 25.7582 19.2815 25.8482 19.4515 25.8482C19.6315 25.8482 19.9316 25.7882 20.1016 25.7182C20.2816 25.6482 20.5116 25.4782 20.6116 25.3382C20.7117 25.2082 20.8317 24.9281 20.8817 24.7181C20.9617 24.4181 20.9417 24.268 20.7817 23.898C20.6616 23.628 20.4516 23.3679 20.2516 23.2479C20.0516 23.1279 19.7515 23.0479 19.4615 23.0479C19.1014 23.0479 18.9314 23.1079 18.6714 23.3179Z" fill="#D21341"/>
</svg>
