<svg width="40" height="40" viewBox="0 0 40 40" fill="none" xmlns="http://www.w3.org/2000/svg">
<path fill-rule="evenodd" clip-rule="evenodd" d="M19.5564 0.138182C19.4618 0.210909 19.2218 0.472727 19.0182 0.72C18.8218 0.96 18.6109 1.16364 18.5673 1.16364C18.5164 1.16364 18.4873 1.19273 18.5091 1.23636C18.5309 1.28 18.4364 1.39636 18.3127 1.49818C18.1818 1.60727 18.0655 1.71636 18.0582 1.74545C18.0436 1.78182 17.8182 2.04364 17.5491 2.33455C17.2873 2.63273 17.0618 2.89455 17.0618 2.91636C17.0545 2.93818 16.8 3.25091 16.4873 3.60727C16.1745 3.96364 15.8691 4.27636 15.8109 4.30545C15.7527 4.34182 15.0255 4.12364 14.0218 3.78182C13.0909 3.45455 12.0655 3.11273 11.7455 3.01091C11.4255 2.90182 11.1055 2.77091 11.0327 2.69818C10.9309 2.61091 10.7855 2.58909 10.4873 2.60364C10.2545 2.61091 10.0073 2.66182 9.92727 2.71273C9.84727 2.77091 9.70909 3.00364 9.61454 3.24364C9.52727 3.47636 9.44 3.86909 9.41818 4.10909C9.39636 4.34909 9.36727 4.64 9.34545 4.76364C9.3328 4.81742 9.31739 4.89323 9.30043 4.97668C9.2784 5.08507 9.25374 5.20637 9.22909 5.30909C9.22077 5.35068 9.20675 5.42117 9.18832 5.5138C9.12619 5.82615 9.014 6.39013 8.90182 6.94545C8.75636 7.66545 8.61091 8.32727 8.57454 8.41455C8.53818 8.50909 8.48727 8.58909 8.45818 8.58909C8.45316 8.59009 8.44689 8.59138 8.43954 8.59288C8.3937 8.60225 8.30594 8.62019 8.21818 8.63273C8.11636 8.65454 7.92 8.66909 7.78182 8.67636C7.64364 8.67636 7.51273 8.70545 7.49091 8.73454C7.46909 8.76364 7.33818 8.80727 7.2 8.83636C7.10061 8.85729 6.97865 8.87821 6.88824 8.89372C6.85295 8.89978 6.82246 8.90501 6.8 8.90909C6.72 8.91636 6.60364 8.94545 6.54545 8.96727C6.48727 8.98909 6.38545 9.00364 6.32727 9.01091C6.26909 9.01091 6.00727 9.05455 5.74545 9.11273C5.68937 9.12519 5.62661 9.13932 5.56025 9.15427C5.31683 9.20908 5.02495 9.2748 4.83636 9.30909C4.59636 9.36 4.21818 9.40364 4 9.41091C3.78182 9.42545 3.50545 9.48364 3.38182 9.54182C3.26545 9.60727 3.07636 9.69454 2.96727 9.73818C2.85091 9.78182 2.71273 9.92 2.65455 10.0364C2.58909 10.1673 2.56 10.3636 2.58182 10.5236C2.59636 10.6764 2.65455 10.9164 2.70545 11.0618C2.75636 11.2073 2.82182 11.36 2.85818 11.3891C2.88727 11.4255 2.90909 11.4982 2.90909 11.5418C2.90909 11.5927 2.96 11.7455 3.01818 11.8691C3.07636 12 3.33818 12.7345 3.6 13.4909C3.77674 13.9877 3.95661 14.5096 4.08193 14.8731C4.14741 15.0631 4.198 15.2099 4.22545 15.2873L4.36364 15.7091C3.82545 16.2691 3.65091 16.4218 3.62182 16.4C3.58545 16.3782 3.52 16.4291 3.47636 16.5164C3.42545 16.5964 3.00364 16.9964 2.54545 17.4036C2.08727 17.8109 1.74545 18.0945 1.78182 18.0364C1.82545 17.9782 1.62909 18.1527 1.34545 18.4218C1.06909 18.6909 0.683636 19.0327 0.494545 19.1855C0.312727 19.3309 0.123636 19.5273 0.08 19.6145C0.0363636 19.7091 0 19.8618 0 19.9636C0 20.0655 0.0363636 20.2109 0.0727273 20.2909C0.116364 20.3709 0.283636 20.56 0.458182 20.7055C0.625455 20.8582 0.909091 21.1273 1.09091 21.3018C1.27273 21.4836 1.44 21.6218 1.47636 21.6145C1.50545 21.6073 1.61455 21.7091 1.73091 21.8327C1.84 21.9636 2.00727 22.1236 2.10909 22.1891C2.21091 22.2545 2.74182 22.7055 3.29455 23.1927C4.02182 23.8327 4.29091 24.1164 4.29091 24.2327C4.29091 24.3273 4.07273 25.0545 3.80364 25.8545C3.54182 26.6545 3.29455 27.3164 3.25818 27.3236C3.22909 27.3382 3.21455 27.3818 3.23636 27.4182C3.25818 27.4545 3.17091 27.76 3.04727 28.0873C2.92364 28.4218 2.76364 28.8873 2.68364 29.1273C2.61091 29.3673 2.56 29.6655 2.58182 29.7818C2.60364 29.8982 2.69091 30.0727 2.78545 30.1527C2.87273 30.24 3.06182 30.3273 3.2 30.3564C3.28308 30.3739 3.40559 30.394 3.52487 30.4136C3.60397 30.4265 3.68165 30.4393 3.74545 30.4509C3.90545 30.4727 4.05091 30.5091 4.07273 30.5382C4.09455 30.56 4.14545 30.5818 4.18182 30.5818C4.20422 30.5856 4.27647 30.5931 4.37593 30.6035C4.47019 30.6134 4.58887 30.6258 4.71273 30.64C4.96 30.6691 5.16364 30.7127 5.16364 30.7418C5.16364 30.7782 5.28727 30.8073 5.44 30.8145C5.58545 30.8218 6.29091 30.9455 7.00364 31.0909C7.70909 31.2291 8.35636 31.3891 8.43636 31.4327C8.51636 31.4836 8.56727 31.5709 8.54545 31.6145C8.52364 31.6655 8.53091 31.7091 8.56727 31.7091C8.59636 31.7091 8.62545 31.7527 8.63273 31.7964C8.64 31.8473 8.68364 32.0364 8.72727 32.2182C8.77091 32.4 8.79273 32.6182 8.77091 32.7055C8.74182 32.8 8.74909 32.8582 8.78545 32.8436C8.81455 32.8218 8.85818 32.9309 8.88727 33.0764C8.90489 33.1645 8.93851 33.3272 8.97522 33.5049C8.99912 33.6206 9.02433 33.7427 9.04727 33.8545C9.0732 33.9809 9.10345 34.1347 9.13354 34.2877C9.17097 34.478 9.20814 34.6669 9.23636 34.8C9.28 35.04 9.30182 35.28 9.28 35.3236C9.25818 35.3745 9.27273 35.4182 9.32364 35.4182C9.36727 35.4182 9.38182 35.44 9.36 35.4691C9.33091 35.5055 9.34545 35.5636 9.38182 35.6C9.41818 35.6364 9.46182 35.8618 9.46909 36.0873C9.48364 36.32 9.51273 36.5091 9.54909 36.5091C9.57818 36.5091 9.6 36.5745 9.6 36.6545C9.6 36.7345 9.65091 36.9018 9.70909 37.0182C9.76727 37.1345 9.89091 37.28 9.98545 37.3236C10.0727 37.3745 10.2473 37.4182 10.3636 37.4255C10.4873 37.4255 10.5964 37.4036 10.6182 37.3818C10.64 37.3527 11.0618 37.1927 11.5636 37.0327C12.0655 36.8655 12.6473 36.6691 12.8582 36.5818C13.0618 36.5018 13.2364 36.4582 13.2364 36.4873C13.2291 36.5236 13.28 36.4945 13.3455 36.4364C13.4109 36.3782 13.4618 36.3636 13.4545 36.4C13.4545 36.4436 13.4909 36.4364 13.5418 36.3855C13.5927 36.3418 13.68 36.3127 13.7309 36.3345C13.7745 36.3491 13.8182 36.3273 13.8182 36.2909C13.8182 36.2545 13.8691 36.2327 13.9273 36.2545C13.9855 36.2764 14.0364 36.2545 14.0364 36.2182C14.0364 36.1818 14.0582 36.1527 14.0945 36.16C14.1236 36.16 14.2109 36.1455 14.2909 36.1164C14.3709 36.0873 14.5527 36.0145 14.6909 35.9564C14.8291 35.9055 15.0909 35.8109 15.2727 35.7455C15.4545 35.6873 15.6509 35.6364 15.7091 35.6364C15.7673 35.6364 16.2909 36.1818 16.8727 36.8509C17.4545 37.52 18.1091 38.2618 18.3273 38.4945C18.5455 38.7273 18.7055 38.9164 18.6764 38.9091C18.64 38.9091 18.8582 39.1564 19.1491 39.4545C19.6218 39.9418 19.7018 39.9927 19.9636 40C20.24 40.0073 20.2836 39.9709 20.8 39.4109C21.0982 39.0836 21.4473 38.6982 21.5782 38.5527C21.6437 38.4757 21.8479 38.2415 22.1185 37.9312C22.3588 37.6558 22.6513 37.3204 22.9455 36.9818C23.5709 36.2618 24.1236 35.6655 24.1673 35.6509C24.2182 35.6364 24.4509 35.6945 24.6909 35.7745C24.7514 35.7947 24.8434 35.8255 24.9577 35.8638C25.2967 35.9774 25.8323 36.1568 26.3273 36.32C26.9891 36.5455 27.5927 36.7636 27.6727 36.8145C27.7527 36.8582 28.0945 36.9964 28.4364 37.1127C28.7782 37.2291 29.1127 37.3236 29.1855 37.3164C29.2509 37.3164 29.3236 37.3455 29.3455 37.3818C29.3673 37.4182 29.4473 37.4545 29.5273 37.4545C29.6073 37.4545 29.76 37.4036 29.8764 37.3455C29.9628 37.2993 30.0585 37.2441 30.1197 37.2087C30.1358 37.1994 30.1494 37.1915 30.16 37.1855C30.2036 37.1564 30.3127 36.8 30.3927 36.4C30.4197 36.2653 30.4491 36.1165 30.4782 35.9693C30.5355 35.6795 30.5917 35.3955 30.6255 35.2364C30.6619 35.0357 30.7238 34.7182 30.7729 34.4665C30.7825 34.4171 30.7916 34.3702 30.8 34.3273C30.8509 34.0655 30.9309 33.6582 30.9818 33.4182C31.0255 33.1782 31.1273 32.6545 31.2073 32.2545C31.2367 32.1199 31.2644 31.9918 31.2885 31.8803C31.3361 31.6607 31.3697 31.5054 31.3745 31.4909C31.3891 31.4691 31.6073 31.3964 31.8618 31.3309C32.1164 31.2582 32.4291 31.1855 32.5455 31.1709C32.6078 31.1599 32.7496 31.1323 32.9291 31.0973C33.1055 31.0629 33.3181 31.0215 33.5273 30.9818C33.9491 30.8945 34.6036 30.7636 34.9818 30.6909C35.36 30.6182 35.7164 30.5673 35.7673 30.5891C35.8109 30.6036 35.8545 30.5818 35.8545 30.5455C35.8545 30.5091 35.92 30.4873 36 30.5091C36.08 30.5309 36.1891 30.5164 36.24 30.48C36.2836 30.4509 36.4582 30.3927 36.6182 30.3709C36.7782 30.3418 36.9818 30.2691 37.0764 30.2109C37.1636 30.1527 37.28 30 37.3382 29.8764C37.3964 29.7455 37.4327 29.5782 37.4327 29.5127C37.4255 29.44 37.3964 29.3818 37.3673 29.3818C37.3309 29.3818 37.3236 29.36 37.3382 29.3236C37.36 29.2945 37.3236 29.1709 37.2655 29.0545C37.2 28.9382 37.0909 28.5745 37.0182 28.2545C36.9382 27.9345 36.8436 27.6582 36.8 27.6364C36.7564 27.6145 36.7127 27.5491 36.7055 27.4909C36.6982 27.4327 36.56 26.9891 36.4073 26.5091C36.2545 26.0291 36.1018 25.5709 36.0655 25.4909C36.0291 25.4109 35.92 25.0982 35.8255 24.8C35.7164 24.4655 35.6727 24.2109 35.7091 24.1455C35.7382 24.0873 35.9127 23.9055 36.0873 23.7455L36.0879 23.7449L36.0892 23.7437C36.2717 23.5832 36.6337 23.2646 36.8945 23.0327C37.1636 22.8073 37.3964 22.6182 37.4182 22.6182C37.44 22.6182 37.5782 22.5018 37.7309 22.3636C37.7977 22.2969 37.8675 22.2301 37.927 22.1732C37.9972 22.1061 38.0531 22.0527 38.0727 22.0291C38.1038 21.998 38.3046 21.8237 38.5348 21.624C38.5741 21.5899 38.6142 21.555 38.6545 21.52C38.8939 21.3113 39.2265 21.0094 39.4644 20.7934C39.5084 20.7535 39.5491 20.7165 39.5855 20.6836C39.9709 20.32 40 20.2691 40 19.9636C40 19.6655 39.9709 19.6073 39.6582 19.3164C39.6385 19.2989 39.6179 19.2806 39.5967 19.2617C39.4062 19.0921 39.1621 18.8749 39.0182 18.7636C38.8582 18.6327 38.5309 18.3564 38.2909 18.1455C38.2585 18.1169 38.2218 18.0847 38.1818 18.0496C37.9256 17.8246 37.533 17.4797 37.2436 17.2218C36.9091 16.9309 36.5745 16.6109 36.4945 16.5091C36.4145 16.4073 36.3782 16.3782 36.4073 16.4364C36.4364 16.4945 36.3127 16.4145 36.1309 16.2545C35.9564 16.0945 35.7673 15.9127 35.7236 15.8545C35.6655 15.7745 35.6727 15.6509 35.7527 15.3818C35.8109 15.1855 35.8836 14.9891 35.9127 14.9455C35.9345 14.9018 35.9636 14.8218 35.9709 14.7636C35.9709 14.7055 36.0509 14.4582 36.1309 14.2182C36.1663 14.121 36.2255 13.9533 36.2974 13.7496C36.4031 13.4505 36.5363 13.0734 36.6618 12.7273C36.8655 12.1455 37.04 11.6291 37.04 11.5855C37.0473 11.5345 37.0764 11.4909 37.1127 11.4909C37.1418 11.4909 37.1491 11.4618 37.1273 11.4182C37.1055 11.3745 37.1273 11.3455 37.1636 11.3455C37.2 11.3455 37.2218 11.2945 37.2 11.2364C37.1782 11.1782 37.2 11.1273 37.2364 11.1273C37.2727 11.1273 37.2945 11.0836 37.28 11.04C37.2582 10.9891 37.2945 10.8582 37.3527 10.7491C37.4109 10.6327 37.4327 10.5455 37.4036 10.5455C37.3673 10.5455 37.3964 10.5164 37.4545 10.48C37.5491 10.4218 37.5418 10.3782 37.4182 10.1164C37.3164 9.90546 37.1927 9.78909 37.0036 9.70909C36.8509 9.65091 36.5964 9.57818 36.4364 9.54182C36.2764 9.51273 36.1455 9.46909 36.1455 9.43273C36.1455 9.40364 36.0873 9.40364 36.0218 9.42546C35.9491 9.45455 35.7018 9.42545 35.4691 9.37455C35.2436 9.31636 35.0545 9.25818 35.0545 9.23636C35.0545 9.21455 34.9309 9.2 34.7855 9.19273C34.6327 9.19273 34.3491 9.14909 34.1455 9.10545C33.9491 9.05455 33.6655 9.00364 33.5273 8.98909C33.3891 8.96727 33.0836 8.91636 32.8509 8.85818C32.6255 8.80727 32.4364 8.74909 32.4364 8.72727C32.4364 8.70545 32.3636 8.69818 32.2691 8.71273C32.1818 8.72 31.9636 8.69091 31.7818 8.63273C31.4764 8.54545 31.4473 8.51636 31.36 8.18182C31.3018 7.97818 31.2145 7.59273 31.1564 7.30909C31.1055 7.02545 31.0691 6.78545 31.0909 6.76364C31.1055 6.74182 31.0909 6.66182 31.04 6.58182C30.9964 6.50182 30.9164 6.18909 30.8655 5.89091C30.8374 5.74714 30.806 5.5814 30.7769 5.42792C30.7456 5.26306 30.717 5.11234 30.6982 5.01818C30.6618 4.83636 30.6109 4.56 30.5818 4.4C30.5527 4.24 30.5236 4.04364 30.5164 3.96364C30.5091 3.88364 30.48 3.78909 30.4582 3.74545C30.4364 3.70182 30.4 3.52727 30.3709 3.34545C30.3491 3.14182 30.2618 2.93818 30.1455 2.81455C30 2.65455 29.8982 2.61818 29.6364 2.61818C29.4545 2.61818 29.1491 2.68364 28.9455 2.76364C28.7491 2.84364 28.5818 2.89455 28.5818 2.87273C28.5818 2.85091 28.4873 2.88727 28.3636 2.94545C28.2473 3.00364 28.1455 3.03273 28.1455 3.00364C28.1527 2.96727 28.1091 2.98182 28.0582 3.02545C28.0073 3.07636 27.7018 3.19273 27.3818 3.29455C27.0618 3.39636 26.3855 3.62909 25.8764 3.81091C25.36 3.99273 24.9236 4.13818 24.8945 4.13091C24.8582 4.13091 24.7127 4.17455 24.5673 4.24C24.3636 4.33455 24.2545 4.34182 24.1455 4.29091C24.0655 4.24727 23.76 3.93455 23.4764 3.58545C23.1855 3.23636 22.9527 2.92364 22.9673 2.89455C22.9745 2.85818 22.9382 2.83636 22.8945 2.83636C22.8436 2.83636 22.6182 2.61818 22.4 2.35636C22.1818 2.09455 21.9345 1.80364 21.8545 1.71636C21.7745 1.62182 21.4982 1.30909 21.2364 1.01818C20.9745 0.727273 20.72 0.429091 20.6764 0.356364C20.6255 0.276364 20.4873 0.167273 20.3636 0.109091C20.2473 0.0509091 20.0509 0 19.9418 0C19.8255 0 19.6509 0.0654545 19.5564 0.138182ZM19.6364 2.29091C19.4545 2.47273 19.3091 2.64727 19.3091 2.68364C19.3091 2.71273 19.2 2.82909 19.0691 2.93818C18.9454 3.04 18.8364 3.15636 18.8364 3.2C18.8364 3.24364 18.6691 3.44727 18.4654 3.65818C18.2618 3.86182 17.7309 4.45818 17.28 4.96727C16.7636 5.56364 16.4073 5.91273 16.2909 5.94182C16.1891 5.96364 16.0073 5.96364 15.8909 5.94182C15.7745 5.92 15.6218 5.89091 15.5636 5.86909C15.5054 5.85455 15.4036 5.81818 15.3454 5.79636C15.2873 5.76727 14.6982 5.56364 14.0364 5.33818C13.3745 5.11273 12.7782 4.92364 12.7054 4.91636C12.64 4.91636 12.5818 4.88 12.5818 4.84364C12.5818 4.81455 12.5309 4.80727 12.4727 4.82909C12.4145 4.85091 12.3564 4.84364 12.3491 4.80727C12.3345 4.77818 12.0654 4.66182 11.7455 4.55273C11.4255 4.45091 11.1055 4.36364 11.0327 4.36364C10.96 4.36364 10.8873 4.42182 10.8727 4.48727C10.8654 4.52364 10.8545 4.58909 10.8418 4.66546C10.8291 4.74182 10.8145 4.82909 10.8 4.90909C10.7782 5.06909 10.7345 5.29455 10.6982 5.41818C10.6618 5.54182 10.6327 5.68727 10.6255 5.74545C10.6255 5.80364 10.5891 6.01454 10.5455 6.21818C10.5018 6.41455 10.4509 6.66182 10.4364 6.76364C10.4218 6.86545 10.3418 7.24364 10.2618 7.6C10.1891 7.95636 10.1091 8.38545 10.08 8.54545C10.0582 8.70545 10.0145 8.93818 9.97818 9.05455C9.94181 9.17091 9.92727 9.33091 9.93454 9.39636C9.94909 9.46909 9.87636 9.6 9.76727 9.69455C9.65091 9.78909 9.36727 9.89818 9.12727 9.94909L9.06658 9.96197C8.83251 10.0116 8.5306 10.0757 8.36363 10.1091C8.21695 10.1443 8.03713 10.1795 7.91582 10.2032C7.88677 10.2089 7.86108 10.214 7.84 10.2182C7.72363 10.24 7.54909 10.2691 7.44 10.2836C7.32363 10.2982 7.07636 10.3491 6.87272 10.3927C6.67636 10.4364 6.42909 10.4873 6.32727 10.5018C6.22545 10.5164 5.88363 10.5818 5.56363 10.6473C5.24363 10.7127 4.88 10.7855 4.76363 10.8073C4.64727 10.8364 4.50181 10.8873 4.45818 10.9164C4.40727 10.9527 4.37818 11.0255 4.39272 11.0691C4.4 11.0945 4.41272 11.1455 4.42818 11.2073C4.44363 11.2691 4.46181 11.3418 4.48 11.4109C4.51636 11.5418 4.56727 11.6655 4.60363 11.68C4.63272 11.6945 4.64 11.7382 4.61818 11.7818C4.59636 11.8255 4.6109 11.8545 4.65454 11.8545C4.69818 11.8545 4.71272 11.8982 4.70545 11.9418C4.6909 11.9927 4.91636 12.72 5.2 13.5636C5.4909 14.4073 5.75999 15.1564 5.80363 15.2364C5.84727 15.3164 5.86909 15.4036 5.84 15.4327C5.81818 15.4691 5.82545 15.4909 5.86181 15.4909C5.89818 15.4909 5.94181 15.5636 5.95636 15.6509C5.9709 15.7455 5.98545 15.92 5.98545 16.0364C5.99272 16.16 5.90545 16.3782 5.79636 16.5455C5.68727 16.7055 5.58545 16.8291 5.56363 16.8145C5.54181 16.8073 5.06181 17.2073 4.49454 17.7018L4.37307 17.8064C3.81465 18.287 3.11576 18.8885 2.76363 19.2C2.38545 19.5273 2.0509 19.84 2.02181 19.8836C1.99272 19.9273 2.01454 20.0364 2.07272 20.1236C2.13818 20.2255 2.21818 20.2691 2.26909 20.2327C2.33212 20.1988 2.34424 20.2109 2.30545 20.2691C2.27636 20.3273 2.32 20.4 2.42181 20.4655C2.50909 20.5164 2.66181 20.6473 2.76363 20.7418C2.86545 20.8436 3.15636 21.0982 3.41818 21.3164C3.68 21.5273 4 21.8036 4.13818 21.9273C4.26909 22.0436 4.46545 22.2255 4.57454 22.3273C4.68363 22.4291 4.98181 22.6909 5.23636 22.9091C5.48363 23.1273 5.73818 23.3309 5.78909 23.36C5.84727 23.3964 5.92727 23.5273 5.96363 23.6509C6.03636 23.8618 5.99272 24.0509 5.59272 25.2364C5.34545 25.9782 5.12 26.6182 5.0909 26.6545C5.06181 26.6909 4.96 26.9527 4.87272 27.2364C4.77818 27.52 4.69818 27.7818 4.6909 27.8182C4.68363 27.8545 4.64 27.9927 4.58909 28.1091C4.53818 28.2255 4.49454 28.3782 4.48727 28.4509C4.48 28.5164 4.4509 28.5964 4.41454 28.6327C4.38545 28.6618 4.36363 28.7636 4.36363 28.8509C4.36363 28.9455 4.40727 29.04 4.45818 29.0618C4.50181 29.0909 4.6909 29.1418 4.87272 29.1709C4.96688 29.1897 5.1176 29.2183 5.28246 29.2496C5.43594 29.2787 5.60169 29.3101 5.74545 29.3382C5.94971 29.383 6.16761 29.4279 6.31735 29.4587C6.38621 29.4728 6.44065 29.484 6.47272 29.4909C6.51393 29.4968 6.57301 29.5063 6.63935 29.5169C6.73692 29.5325 6.85021 29.5506 6.94545 29.5636C7.10545 29.5855 7.31636 29.6364 7.41818 29.6727C7.52 29.7091 7.91272 29.7891 8.2909 29.8545C8.66909 29.92 9.03272 29.9855 9.0909 30C9.14909 30.0145 9.25818 30.0291 9.3309 30.0291C9.39636 30.0364 9.56363 30.1455 9.69454 30.2691C9.81818 30.4 9.93454 30.5745 9.94181 30.6545C9.94909 30.7345 9.9709 30.9455 10 31.1273C10.0218 31.3091 10.0727 31.5709 10.1091 31.7091C10.1454 31.8473 10.2255 32.2545 10.2909 32.6182C10.3564 32.9818 10.4582 33.4982 10.5164 33.7818C10.5745 34.0655 10.6691 34.5527 10.7273 34.8727C10.7854 35.1927 10.8727 35.4982 10.9236 35.5491C11.0036 35.6364 11.3018 35.5564 12.6909 35.0836C13.6073 34.7782 14.4436 34.4873 14.5454 34.4509C14.6473 34.4073 14.7782 34.3709 14.8364 34.3564C14.8945 34.3418 14.9964 34.3127 15.0545 34.2836C15.1127 34.2545 15.1782 34.2255 15.2 34.2182C15.2135 34.2137 15.2936 34.1897 15.4044 34.1567C15.4729 34.1362 15.553 34.1123 15.6364 34.0873C15.8545 34.0218 16.1236 33.9782 16.2327 33.9855C16.3345 33.9927 16.4218 34.0073 16.4145 34.0145C16.4073 34.0291 16.6109 34.2691 16.8727 34.56C17.1345 34.8509 17.4618 35.2 17.6 35.3455C17.7382 35.4836 17.8473 35.6218 17.8545 35.6436C17.8545 35.6727 18.3054 36.2036 18.8582 36.8291C19.4182 37.4691 19.9127 37.9636 19.9854 37.9636C20.0509 37.9636 20.2327 37.8255 20.3782 37.6582C20.4733 37.544 20.6089 37.3894 20.73 37.2513C20.794 37.1783 20.854 37.1099 20.9018 37.0545C21.0473 36.8945 21.6654 36.1891 22.2764 35.4836C22.9527 34.6982 23.4836 34.1455 23.6364 34.0727L23.8909 33.9418C25.7527 34.5455 26.3345 34.7491 26.3854 34.7927C26.4364 34.8364 26.5018 34.8509 26.5309 34.8218C26.56 34.7855 26.6254 34.8073 26.6764 34.8582C26.7273 34.9018 26.7709 34.9091 26.7709 34.8727C26.7661 34.8242 26.783 34.8242 26.8218 34.8727C26.8509 34.9164 27.3164 35.0982 27.8545 35.28C28.3927 35.4618 28.88 35.6 28.9309 35.5855C28.9745 35.5782 29.0182 35.5127 29.0182 35.4545C29.0182 35.3964 29.0545 35.3455 29.0909 35.3455C29.1273 35.3455 29.1564 35.3018 29.1491 35.2509C29.1491 35.2073 29.1564 35.1127 29.1854 35.0545C29.2073 34.9964 29.28 34.6691 29.3382 34.3273C29.3652 34.1862 29.3959 34.0277 29.4253 33.8765C29.467 33.6613 29.5059 33.4608 29.5273 33.3455C29.5587 33.199 29.59 33.0224 29.6133 32.8915C29.6224 32.8404 29.6302 32.7963 29.6364 32.7636C29.6582 32.6473 29.7673 32.0873 29.8836 31.5273C30 30.9673 30.1236 30.4436 30.1527 30.3709C30.1891 30.2909 30.3491 30.1673 30.5091 30.1018C30.6691 30.0291 30.8218 29.9855 30.8582 30.0073C30.8873 30.0218 30.96 29.9927 31.0182 29.9418C31.0836 29.8982 31.1345 29.8691 31.1345 29.8909C31.1345 29.9127 31.2654 29.9055 31.44 29.8764C31.6073 29.8473 31.9127 29.7964 32.1091 29.7745C32.3127 29.7527 32.5091 29.7091 32.5454 29.6873C32.5818 29.6582 32.6691 29.6291 32.7273 29.6218C32.7854 29.6073 33.0036 29.5782 33.2 29.5564C33.4036 29.5273 33.6073 29.4764 33.6582 29.4255C33.7091 29.3818 33.7527 29.36 33.7527 29.3818C33.7454 29.4036 33.9854 29.3745 34.2764 29.3309C34.56 29.28 34.9091 29.2145 35.04 29.1855C35.1709 29.1491 35.2727 29.1055 35.2727 29.0691C35.2727 29.04 35.3382 29.0182 35.4182 29.0182C35.4982 29.0182 35.5709 28.9745 35.5709 28.9236C35.5782 28.88 35.5709 28.7855 35.5636 28.7273C35.5564 28.6691 35.5055 28.5164 35.4545 28.4C35.4036 28.2836 35.3382 28.08 35.3091 27.9636C35.28 27.8473 35.2218 27.6436 35.1709 27.5273C35.12 27.4109 34.8945 26.7564 34.6618 26.0727C34.5422 25.7101 34.4124 25.323 34.3039 24.9992C34.2077 24.7125 34.1283 24.4755 34.0873 24.3491C33.9418 23.8982 33.9345 23.84 34.0364 23.6582C34.0945 23.5564 34.2909 23.3309 34.4727 23.1564C34.6545 22.9891 35.1418 22.56 35.5636 22.2036C35.9854 21.84 36.4945 21.3964 36.6909 21.2073C36.7276 21.1745 36.763 21.1428 36.7967 21.1126C36.9498 20.9754 37.0644 20.8727 37.0764 20.8727C37.0836 20.8727 37.28 20.7055 37.5127 20.5018C37.7382 20.2909 37.9491 20.0873 37.9782 20.0436C38.0073 20 37.9709 19.8836 37.8909 19.7818C37.8036 19.68 37.7454 19.6218 37.7454 19.6509C37.7454 19.6873 37.6218 19.5855 37.4691 19.4327C37.3236 19.2873 37.0545 19.0327 36.88 18.8727C36.7054 18.7127 36.5745 18.6109 36.5964 18.6545C36.6182 18.6982 36.3854 18.4945 36.08 18.2036C35.7745 17.9127 35.5054 17.6945 35.4764 17.7091C35.44 17.7309 35.4182 17.7236 35.4182 17.6873C35.4182 17.6582 35.1273 17.3745 34.7636 17.0545C34.2909 16.64 34.08 16.3927 34.0145 16.2036C33.9491 15.9855 33.9491 15.8982 34.0145 15.7673C34.0655 15.6727 34.3345 14.9164 34.6255 14.0727C34.9091 13.2291 35.2509 12.2109 35.3891 11.7964C35.5273 11.3891 35.6218 11.0255 35.6 10.9818C35.5782 10.9382 35.4109 10.8582 35.2218 10.8C35.0254 10.7418 34.7273 10.6836 34.5454 10.6618C34.3636 10.64 34.1382 10.6036 34.0364 10.5745L34.0362 10.5745C33.9341 10.5526 33.6289 10.4872 33.3454 10.4291C33.0618 10.3709 32.4945 10.2618 32.0727 10.1891C31.6509 10.1091 31.2582 10.0291 31.2 10.0073C31.1418 9.98545 30.9745 9.95636 30.8364 9.94182C30.6982 9.92727 30.4727 9.84727 30.3491 9.76C30.2036 9.66545 30.0945 9.52 30.0727 9.39636C30.0676 9.3706 30.0616 9.34159 30.0553 9.31097C30.0349 9.21192 30.0111 9.09595 30 9.01818C29.9891 8.96727 29.9764 8.90182 29.9636 8.83636C29.9509 8.77091 29.9382 8.70545 29.9273 8.65454C29.9068 8.58292 29.8755 8.42132 29.8411 8.24317C29.8266 8.16807 29.8115 8.09003 29.7964 8.01455C29.7454 7.76727 29.6873 7.56364 29.6582 7.56364C29.6218 7.56364 29.6145 7.50545 29.6436 7.43273C29.6654 7.36727 29.6291 7.08364 29.5709 6.8C29.5054 6.51636 29.44 6.12364 29.4109 5.92727C29.3891 5.72364 29.3527 5.53454 29.3236 5.49091C29.2945 5.44727 29.2727 5.36727 29.2582 5.30909C29.2558 5.29003 29.2511 5.25614 29.245 5.2128C29.2326 5.12382 29.2147 4.99499 29.2 4.87273C29.1709 4.69091 29.1345 4.50182 29.12 4.45091C29.1054 4.40727 29.0327 4.36364 28.9673 4.36364C28.8945 4.36364 28.3636 4.52364 27.7818 4.72727C27.3267 4.88657 26.5823 5.13932 25.942 5.35672C25.7638 5.41724 25.5936 5.47501 25.44 5.52727C24.7273 5.76727 24.0291 5.96364 23.8909 5.96364C23.7236 5.96364 23.5709 5.90545 23.4618 5.79636C23.3673 5.70909 23.0618 5.37455 22.7782 5.05455C22.642 4.89682 22.4934 4.72848 22.3646 4.58265C22.2322 4.43261 22.1208 4.30638 22.0654 4.24C21.9491 4.11636 21.7091 3.84 21.5273 3.62909C21.4818 3.57637 21.4245 3.50955 21.3598 3.43398C21.1655 3.20728 20.9036 2.90182 20.6909 2.66182C20.4145 2.33455 20.1527 2.05091 20.1091 2.02182C20.0727 1.99273 20.0218 1.96364 20 1.96364C19.9782 1.97091 19.8182 2.11636 19.6364 2.29091Z" fill="#F6F6F6"/>
<path d="M25.2145 12.3636C25.3455 12.3636 25.4691 12.3345 25.4909 12.2909C25.52 12.2473 25.6509 12.2182 25.7818 12.2182C25.92 12.2182 26.0509 12.2545 26.0582 12.2909C26.08 12.3345 26.1891 12.3491 26.3345 12.3273C26.5236 12.2909 26.6182 12.3127 26.7273 12.4218C26.8218 12.5091 26.8509 12.6036 26.8145 12.6836C26.7855 12.7491 26.7273 12.8 26.6909 12.8C26.6545 12.8 26.6036 12.8727 26.5818 12.96C26.56 13.0545 26.4 13.2873 26.2182 13.4909C26.0436 13.6873 25.9127 13.8691 25.9273 13.8909C25.9491 13.9127 25.8545 14.0582 25.7309 14.2182C25.6 14.3782 25.4545 14.5309 25.4036 14.56C25.3527 14.5964 25.1782 14.8364 25.0255 15.1055C24.8727 15.3818 24.5964 15.76 24.4145 15.9636C24.2327 16.16 24.0945 16.3418 24.1164 16.3636C24.1309 16.3855 24.0509 16.5018 23.9491 16.6182C23.84 16.7345 23.5055 17.1636 23.2145 17.5636C22.9164 17.9636 22.6255 18.4 22.56 18.5309C22.4945 18.6618 22.4218 18.7491 22.4 18.7345C22.3782 18.7127 22.1091 19.0473 21.8036 19.4764C21.4982 19.9055 21.0764 20.4945 20.8582 20.7855C20.7437 20.9433 20.6272 21.1011 20.5363 21.2241C20.4598 21.3278 20.4015 21.4067 20.3782 21.44C20.3273 21.5054 20.0728 21.8617 19.8183 22.2181C19.5637 22.5744 19.2945 22.9382 19.2218 23.0109C19.1345 23.103 19.1273 23.1297 19.2 23.0909C19.2582 23.0545 19.1636 23.1927 18.9818 23.3891C18.8 23.5927 18.56 23.9055 18.4364 24.08C18.32 24.2545 18.0218 24.6618 17.7818 24.9818C17.5418 25.3018 17.3964 25.5345 17.4545 25.4982C17.5127 25.4618 17.4618 25.5345 17.3455 25.6509C17.2291 25.7673 16.8655 26.2182 16.5455 26.6473C16.08 27.2655 15.9055 27.4473 15.6727 27.5345C15.4618 27.6218 15.1927 27.6436 14.6764 27.6218C14.2327 27.6073 13.9345 27.5636 13.8764 27.5055C13.7964 27.4327 13.8036 27.3745 13.9127 27.1782C13.9782 27.0545 14.2327 26.6836 14.48 26.3636C14.72 26.0436 14.96 25.68 15.0182 25.5636C15.0764 25.4473 15.2582 25.2 15.4182 25.0182C15.5855 24.8364 15.7164 24.6691 15.7091 24.6327C15.7091 24.6036 15.8618 24.3782 16.0436 24.1236C16.2255 23.8764 16.4291 23.6218 16.4945 23.5564C16.5673 23.4982 16.7636 23.2364 16.9455 22.9818C17.1125 22.748 17.4145 22.3361 17.6486 22.017L17.6488 22.0167L17.7091 21.9345C17.8183 21.7856 17.9306 21.6336 18.0274 21.5025L18.0277 21.5021C18.1433 21.3456 18.2368 21.2191 18.2764 21.1636C18.3418 21.0618 18.5964 20.7055 18.8436 20.3636C19.0836 20.0218 19.3309 19.6655 19.3964 19.5636C19.4618 19.4618 19.6073 19.28 19.7164 19.1636C19.8255 19.0473 20.0073 18.8073 20.1164 18.6473C20.2327 18.48 20.5236 18.0727 20.7636 17.7382C20.9964 17.4036 21.2145 17.1127 21.2364 17.0909C21.2582 17.0691 21.5927 16.6109 21.9782 16.0727C22.0312 16.0001 22.0868 15.9238 22.1441 15.8451C22.5114 15.3413 22.9464 14.7446 23.1855 14.4364C23.4618 14.08 23.8764 13.4982 24.1164 13.1491C24.4218 12.6982 24.6109 12.4873 24.7636 12.4364C24.88 12.3927 25.0909 12.3636 25.2145 12.3636Z" fill="#F6F6F6"/>
<path fill-rule="evenodd" clip-rule="evenodd" d="M15.2364 12.6036C15.4764 12.5818 15.7018 12.5382 15.7455 12.5018C15.7818 12.4655 15.8836 12.4364 15.9782 12.4364C16.0727 12.4364 16.16 12.4727 16.1745 12.5164C16.1891 12.56 16.3418 12.5891 16.5164 12.5818C16.6909 12.5745 16.8582 12.5745 16.8945 12.5745C16.9236 12.5818 16.9673 12.5891 17.0036 12.5891C17.0327 12.5964 17.2364 12.6836 17.4545 12.7782C17.6727 12.88 17.9564 13.0255 18.0727 13.1127C18.1891 13.2 18.3127 13.2727 18.3418 13.2727C18.3636 13.2727 18.4145 13.3018 18.4509 13.3382C18.4873 13.3745 18.4655 13.3818 18.4 13.3527C18.32 13.3164 18.3273 13.3236 18.4073 13.3964C18.4727 13.4473 18.6255 13.6727 18.7491 13.8909C18.8655 14.1164 19.0182 14.5673 19.0909 14.9091C19.1564 15.2509 19.2218 15.7891 19.2364 16.1091C19.2509 16.4655 19.2 16.9455 19.12 17.36C19.04 17.7309 18.9091 18.2109 18.8218 18.4145C18.7273 18.6255 18.5891 18.88 18.5091 18.9745C18.4291 19.0764 18.2618 19.2509 18.1455 19.3673C18.0291 19.4764 17.7673 19.6509 17.5636 19.7455C17.3673 19.84 17.04 19.9564 16.8364 20C16.64 20.0436 16.1091 20.0727 15.6727 20.0655C15.1394 20.0558 14.7515 20.0097 14.5091 19.9273C14.3127 19.8618 14.0145 19.7236 13.8545 19.6218C13.6945 19.52 13.4473 19.3091 13.3018 19.1564C13.1636 19.0036 12.9745 18.6909 12.8945 18.4727C12.8073 18.2545 12.6909 17.7527 12.6255 17.36C12.56 16.9745 12.5091 16.5164 12.5091 16.3418C12.5091 16.1745 12.56 15.76 12.6182 15.4182C12.6836 15.0764 12.7782 14.6545 12.8364 14.4727C12.8945 14.2909 13.04 14.0073 13.1636 13.8327C13.28 13.6655 13.3818 13.4982 13.3818 13.4545C13.3818 13.4109 13.5564 13.2727 13.7673 13.1345C13.9709 12.9964 14.2473 12.8436 14.3636 12.7927C14.4318 12.7672 14.5124 12.7366 14.5793 12.7113C14.6265 12.6934 14.6668 12.6781 14.6909 12.6691C14.7491 12.6545 14.9964 12.6182 15.2364 12.6036ZM15.4254 14.0582C15.2873 14.1091 15.1345 14.2182 15.0763 14.2982C15.0254 14.3709 14.9673 14.5164 14.9454 14.6182C14.9236 14.72 14.8582 14.9164 14.7927 15.0545C14.6982 15.2509 14.6691 15.5273 14.6763 16.2909C14.6836 17.1127 14.7054 17.3527 14.8509 17.7745C14.9527 18.08 15.0763 18.3127 15.1636 18.3564C15.2436 18.4 15.3309 18.4655 15.36 18.5091C15.3891 18.5527 15.4691 18.5891 15.5418 18.5891C15.6145 18.5964 15.7236 18.6255 15.7818 18.6545C15.84 18.6836 15.9563 18.6836 16.0363 18.6545C16.1163 18.6182 16.2327 18.5818 16.2909 18.5745C16.3491 18.56 16.48 18.4727 16.5745 18.3855C16.6691 18.2909 16.8073 18.0873 16.8727 17.9273C16.9454 17.7673 17.04 17.3382 17.0909 16.9818C17.1418 16.6255 17.1563 16.1818 17.1345 16C17.1184 15.8991 17.1 15.7735 17.0831 15.6582C17.0696 15.5657 17.057 15.4796 17.0473 15.4182C17.0327 15.28 16.9673 14.9964 16.9091 14.8C16.8509 14.5818 16.7127 14.3491 16.5818 14.2182C16.4 14.0509 16.2763 13.9927 16.0145 13.9782C15.8254 13.9709 15.5636 14.0073 15.4254 14.0582Z" fill="#F6F6F6"/>
<path fill-rule="evenodd" clip-rule="evenodd" d="M24.2109 19.8473C24.2109 19.8691 24.1455 19.9055 24.0582 19.92C24.0082 19.9238 23.944 19.9317 23.8818 19.9394C23.8262 19.9463 23.772 19.9529 23.7309 19.9564C23.6364 19.9564 23.5636 19.9855 23.5636 20.0145C23.5636 20.0509 23.5418 20.0582 23.5055 20.0436C23.4764 20.0218 23.2582 20.1236 23.0182 20.2618C22.7782 20.4073 22.4873 20.6109 22.3782 20.7127C22.2618 20.8218 22.0582 21.1055 21.9273 21.3455C21.7891 21.5855 21.6436 21.9418 21.6 22.1455C21.5491 22.3418 21.4982 22.64 21.4764 22.8C21.4545 22.96 21.4327 23.4036 21.44 23.7818C21.44 24.16 21.4545 24.5891 21.4764 24.7273C21.4982 24.8655 21.5636 25.1855 21.6291 25.4327C21.6945 25.6873 21.8036 25.9782 21.8691 26.0873C21.9418 26.2036 22.0873 26.4073 22.1964 26.5455C22.2982 26.6836 22.5673 26.8945 22.7782 27.0109C22.9891 27.1273 23.1782 27.2436 23.2 27.2655C23.2218 27.2873 23.2727 27.3091 23.3091 27.3091C23.3455 27.3091 23.6582 27.3527 24 27.4036C24.3491 27.4618 24.7927 27.4764 25.0182 27.4545C25.2364 27.4255 25.52 27.3891 25.6364 27.3745C25.7527 27.3527 26.0509 27.2509 26.2909 27.1418C26.5309 27.0327 26.7418 26.9455 26.7636 26.9455C26.7855 26.9455 26.9309 26.8 27.0909 26.6182C27.2509 26.4364 27.4036 26.2836 27.44 26.2691C27.4691 26.2618 27.4909 26.2036 27.4909 26.1455C27.4909 26.0873 27.5127 26.0364 27.5491 26.0364C27.5782 26.0364 27.6727 25.8473 27.76 25.6218C27.8473 25.3891 27.9345 25.0982 27.9564 24.9818C27.9782 24.8655 28.0145 24.56 28.0364 24.3055C28.0582 24.0582 28.0873 23.8255 28.1091 23.7818C28.1309 23.7382 28.1091 23.4545 28.0655 23.1418C28.0291 22.8364 27.9636 22.3855 27.92 22.1455C27.8836 21.9055 27.7673 21.5418 27.6655 21.3455C27.5636 21.1491 27.36 20.8582 27.2073 20.7055C27.0618 20.5527 26.8 20.3491 26.6182 20.2545C26.4364 20.1673 26.1455 20.0509 25.9636 20C25.7818 19.9491 25.5273 19.9127 25.4036 19.92C25.2727 19.92 25.1491 19.8982 25.1273 19.8545C25.1055 19.8109 24.8873 19.7891 24.6473 19.7891C24.4 19.7964 24.2036 19.8255 24.2109 19.8473ZM24.2909 21.44C24.1527 21.5055 23.9636 21.6727 23.8763 21.7964C23.7818 21.9273 23.7309 22.0727 23.76 22.1164C23.7963 22.16 23.7745 22.2182 23.7236 22.2473C23.6654 22.2764 23.6073 22.5527 23.5636 22.9818C23.52 23.4182 23.52 23.92 23.5636 24.3418C23.6073 24.7127 23.68 25.1273 23.7382 25.2509C23.7963 25.3818 23.9273 25.5927 24.0291 25.7091C24.1382 25.8255 24.2182 25.8909 24.2182 25.8545C24.2109 25.8109 24.2473 25.8109 24.3054 25.8618C24.3563 25.9055 24.4945 25.9636 24.6182 25.9927C24.7345 26.0218 24.9454 26.0073 25.0691 25.9636C25.2073 25.92 25.4109 25.76 25.5418 25.5782C25.6727 25.4109 25.8182 25.1055 25.8691 24.9091C25.9273 24.6764 25.9563 24.1673 25.9418 23.4909C25.9273 22.5745 25.9054 22.3927 25.76 22.0873C25.6727 21.8982 25.5273 21.6727 25.4473 21.5782C25.36 21.4909 25.3163 21.4691 25.3454 21.5273C25.3745 21.5855 25.3309 21.5636 25.2436 21.4691C25.1418 21.36 25.0036 21.3091 24.8145 21.3091C24.6691 21.3091 24.4291 21.3673 24.2909 21.44Z" fill="#F6F6F6"/>
</svg>
