<svg width="65" height="80" viewBox="0 0 65 80" fill="none" xmlns="http://www.w3.org/2000/svg">
<path d="M0 65.2889V5.88629C0 2.63538 2.63538 0 5.88628 0H58.3278C61.5787 0 64.2141 2.63538 64.2141 5.88629V65.2889C64.2141 67.8388 62.5722 70.0988 60.1471 70.887L33.9264 79.4087C32.7439 79.793 31.4701 79.793 30.2877 79.4087L4.06692 70.887C1.64184 70.0988 0 67.8388 0 65.2889Z" fill="#D21341"/>
<path d="M12.5082 13.957V8.71288H13.2498V12.7584L16.3514 8.71288H17.0406V13.957H16.3064V9.91904L13.1974 13.957H12.5082ZM20.2863 14.002C19.8818 14.002 19.5197 13.9146 19.2 13.7398C18.8854 13.565 18.6381 13.3252 18.4583 13.0206C18.2785 12.7159 18.1886 12.3663 18.1886 11.9717C18.1886 11.5772 18.2785 11.2276 18.4583 10.9229C18.6381 10.6183 18.8854 10.381 19.2 10.2112C19.5197 10.0364 19.8818 9.949 20.2863 9.949C20.6459 9.949 20.9655 10.0214 21.2452 10.1663C21.5299 10.3061 21.7497 10.5159 21.9045 10.7956L21.3576 11.1477C21.2278 10.9529 21.0679 10.8105 20.8781 10.7206C20.6933 10.6257 20.4936 10.5783 20.2788 10.5783C20.0191 10.5783 19.7869 10.6357 19.5821 10.7506C19.3773 10.8655 19.215 11.0278 19.0951 11.2376C18.9753 11.4423 18.9153 11.6871 18.9153 11.9717C18.9153 12.2564 18.9753 12.5037 19.0951 12.7134C19.215 12.9232 19.3773 13.0855 19.5821 13.2004C19.7869 13.3152 20.0191 13.3727 20.2788 13.3727C20.4936 13.3727 20.6933 13.3277 20.8781 13.2378C21.0679 13.1429 21.2278 12.9981 21.3576 12.8033L21.9045 13.1479C21.7497 13.4226 21.5299 13.6349 21.2452 13.7847C20.9655 13.9296 20.6459 14.002 20.2863 14.002ZM22.8356 13.957V9.98646H26.514V13.957H25.7948V10.436L25.9671 10.6158H23.3825L23.5548 10.436V13.957H22.8356ZM30.0108 14.002C29.6812 14.002 29.379 13.9271 29.1043 13.7772C28.8346 13.6224 28.6174 13.3952 28.4525 13.0955C28.2927 12.7958 28.2128 12.4212 28.2128 11.9717C28.2128 11.5222 28.2902 11.1477 28.445 10.848C28.6049 10.5483 28.8196 10.3236 29.0893 10.1738C29.364 10.0239 29.6712 9.949 30.0108 9.949C30.4004 9.949 30.745 10.0339 31.0446 10.2037C31.3443 10.3735 31.5815 10.6108 31.7564 10.9154C31.9312 11.2151 32.0186 11.5672 32.0186 11.9717C32.0186 12.3763 31.9312 12.7309 31.7564 13.0356C31.5815 13.3402 31.3443 13.5775 31.0446 13.7473C30.745 13.9171 30.4004 14.002 30.0108 14.002ZM27.9056 15.4104V9.98646H28.5949V11.0578L28.5499 11.9792L28.6248 12.9007V15.4104H27.9056ZM29.9509 13.3727C30.2056 13.3727 30.4328 13.3152 30.6326 13.2004C30.8374 13.0855 30.9972 12.9232 31.1121 12.7134C31.2319 12.4987 31.2919 12.2514 31.2919 11.9717C31.2919 11.6871 31.2319 11.4423 31.1121 11.2376C30.9972 11.0278 30.8374 10.8655 30.6326 10.7506C30.4328 10.6357 30.2056 10.5783 29.9509 10.5783C29.7011 10.5783 29.4739 10.6357 29.2691 10.7506C29.0694 10.8655 28.9095 11.0278 28.7897 11.2376C28.6748 11.4423 28.6174 11.6871 28.6174 11.9717C28.6174 12.2514 28.6748 12.4987 28.7897 12.7134C28.9095 12.9232 29.0694 13.0855 29.2691 13.2004C29.4739 13.3152 29.7011 13.3727 29.9509 13.3727ZM35.4617 13.957V13.118L35.4242 12.9606V11.5297C35.4242 11.2251 35.3343 10.9903 35.1545 10.8255C34.9797 10.6557 34.715 10.5708 34.3604 10.5708C34.1257 10.5708 33.8959 10.6108 33.6712 10.6907C33.4464 10.7656 33.2566 10.868 33.1018 10.9978L32.8021 10.4584C33.0069 10.2936 33.2516 10.1688 33.5363 10.0839C33.826 9.99395 34.1282 9.949 34.4428 9.949C34.9872 9.949 35.4067 10.0814 35.7014 10.3461C35.9961 10.6108 36.1434 11.0153 36.1434 11.5597V13.957H35.4617ZM34.1581 14.002C33.8635 14.002 33.6037 13.952 33.379 13.8521C33.1592 13.7523 32.9894 13.6149 32.8696 13.4401C32.7497 13.2603 32.6898 13.058 32.6898 12.8333C32.6898 12.6185 32.7397 12.4237 32.8396 12.2489C32.9445 12.0741 33.1118 11.9343 33.3415 11.8294C33.5763 11.7245 33.8909 11.6721 34.2855 11.6721H35.5441V12.189H34.3154C33.9558 12.189 33.7136 12.2489 33.5888 12.3688C33.4639 12.4887 33.4015 12.6335 33.4015 12.8033C33.4015 12.9981 33.4789 13.1554 33.6337 13.2753C33.7885 13.3902 34.0033 13.4476 34.278 13.4476C34.5477 13.4476 34.7824 13.3877 34.9822 13.2678C35.187 13.1479 35.3343 12.9731 35.4242 12.7434L35.5665 13.2378C35.4717 13.4726 35.3043 13.6599 35.0646 13.7997C34.8249 13.9346 34.5227 14.002 34.1581 14.002ZM37.4385 13.957V9.98646H39.2814C39.7459 9.98646 40.1105 10.0764 40.3752 10.2562C40.6449 10.431 40.7797 10.6807 40.7797 11.0053C40.7797 11.33 40.6524 11.5822 40.3977 11.762C40.1479 11.9368 39.8158 12.0242 39.4013 12.0242L39.5137 11.8294C39.9881 11.8294 40.3402 11.9168 40.57 12.0916C40.7997 12.2664 40.9146 12.5236 40.9146 12.8633C40.9146 13.2079 40.7847 13.4776 40.525 13.6723C40.2703 13.8621 39.8782 13.957 39.3488 13.957H37.4385ZM38.1427 13.4027H39.2964C39.5961 13.4027 39.8208 13.3577 39.9706 13.2678C40.1205 13.1729 40.1954 13.0231 40.1954 12.8183C40.1954 12.6085 40.1255 12.4562 39.9856 12.3613C39.8508 12.2614 39.636 12.2115 39.3413 12.2115H38.1427V13.4027ZM38.1427 11.6946H39.2215C39.4962 11.6946 39.7034 11.6446 39.8433 11.5447C39.9881 11.4398 40.0605 11.295 40.0605 11.1102C40.0605 10.9204 39.9881 10.7781 39.8433 10.6832C39.7034 10.5883 39.4962 10.5408 39.2215 10.5408H38.1427V11.6946ZM42.0403 13.957V9.98646H42.7595V12.8782L45.1942 9.98646H45.846V13.957H45.1268V11.0653L42.6995 13.957H42.0403ZM47.242 13.957V9.98646H47.9837L49.6917 12.9232H49.3921L51.1451 9.98646H51.8194V13.957H51.1676V10.7956L51.2875 10.863L49.6843 13.5075H49.3696L47.7589 10.8105L47.9012 10.7806V13.957H47.242ZM4.33698 22.957V18.9865H8.01538V22.957H7.29618V19.436L7.46849 19.6158H4.88387L5.05618 19.436V22.957H4.33698ZM11.5122 23.002C11.1825 23.002 10.8804 22.9271 10.6057 22.7772C10.336 22.6224 10.1187 22.3952 9.9539 22.0955C9.79408 21.7958 9.71417 21.4212 9.71417 20.9717C9.71417 20.5222 9.79158 20.1477 9.94641 19.848C10.1062 19.5483 10.321 19.3236 10.5907 19.1738C10.8654 19.0239 11.1725 18.949 11.5122 18.949C11.9017 18.949 12.2463 19.0339 12.546 19.2037C12.8457 19.3735 13.0829 19.6108 13.2577 19.9154C13.4325 20.2151 13.5199 20.5672 13.5199 20.9717C13.5199 21.3763 13.4325 21.7309 13.2577 22.0356C13.0829 22.3402 12.8457 22.5775 12.546 22.7473C12.2463 22.9171 11.9017 23.002 11.5122 23.002ZM9.40701 24.4104V18.9865H10.0962V20.0578L10.0513 20.9792L10.1262 21.9007V24.4104H9.40701ZM11.4522 22.3727C11.7069 22.3727 11.9342 22.3152 12.134 22.2004C12.3387 22.0855 12.4986 21.9232 12.6134 21.7134C12.7333 21.4987 12.7932 21.2514 12.7932 20.9717C12.7932 20.6871 12.7333 20.4423 12.6134 20.2376C12.4986 20.0278 12.3387 19.8655 12.134 19.7506C11.9342 19.6357 11.7069 19.5783 11.4522 19.5783C11.2025 19.5783 10.9753 19.6357 10.7705 19.7506C10.5707 19.8655 10.4109 20.0278 10.291 20.2376C10.1762 20.4423 10.1187 20.6871 10.1187 20.9717C10.1187 21.2514 10.1762 21.4987 10.291 21.7134C10.4109 21.9232 10.5707 22.0855 10.7705 22.2004C10.9753 22.3152 11.2025 22.3727 11.4522 22.3727ZM16.2654 23.002C15.8659 23.002 15.5113 22.9146 15.2016 22.7398C14.892 22.565 14.6472 22.3252 14.4674 22.0206C14.2876 21.7109 14.1977 21.3613 14.1977 20.9717C14.1977 20.5772 14.2876 20.2276 14.4674 19.9229C14.6472 19.6183 14.892 19.381 15.2016 19.2112C15.5113 19.0364 15.8659 18.949 16.2654 18.949C16.66 18.949 17.0121 19.0364 17.3218 19.2112C17.6364 19.381 17.8811 19.6183 18.0559 19.9229C18.2357 20.2226 18.3256 20.5722 18.3256 20.9717C18.3256 21.3663 18.2357 21.7159 18.0559 22.0206C17.8811 22.3252 17.6364 22.565 17.3218 22.7398C17.0121 22.9146 16.66 23.002 16.2654 23.002ZM16.2654 22.3727C16.5201 22.3727 16.7474 22.3152 16.9472 22.2004C17.1519 22.0855 17.3118 21.9232 17.4266 21.7134C17.5415 21.4987 17.5989 21.2514 17.5989 20.9717C17.5989 20.6871 17.5415 20.4423 17.4266 20.2376C17.3118 20.0278 17.1519 19.8655 16.9472 19.7506C16.7474 19.6357 16.5201 19.5783 16.2654 19.5783C16.0107 19.5783 15.7835 19.6357 15.5837 19.7506C15.3839 19.8655 15.2241 20.0278 15.1042 20.2376C14.9844 20.4423 14.9244 20.6871 14.9244 20.9717C14.9244 21.2514 14.9844 21.4987 15.1042 21.7134C15.2241 21.9232 15.3839 22.0855 15.5837 22.2004C15.7835 22.3152 16.0107 22.3727 16.2654 22.3727ZM21.1996 23.017C20.87 23.017 20.5778 22.9645 20.3231 22.8596C20.0734 22.7548 19.8586 22.5999 19.6788 22.3952C19.499 22.1854 19.3617 21.9232 19.2668 21.6085C19.1769 21.2889 19.1319 20.9143 19.1319 20.4848C19.1319 20.1452 19.1619 19.8405 19.2218 19.5708C19.2817 19.3011 19.3667 19.0614 19.4765 18.8516C19.5914 18.6418 19.7312 18.4596 19.8961 18.3047C20.0659 18.1499 20.2557 18.0225 20.4654 17.9227C20.6802 17.8178 20.9149 17.7379 21.1696 17.6829L22.9826 17.2784L23.0875 17.9451L21.4169 18.3047C21.317 18.3247 21.1971 18.3547 21.0573 18.3946C20.9174 18.4346 20.7751 18.497 20.6302 18.5819C20.4854 18.6618 20.3506 18.7742 20.2257 18.919C20.1008 19.0639 20.0009 19.2537 19.926 19.4884C19.8511 19.7181 19.8137 20.0028 19.8137 20.3424C19.8137 20.4373 19.8162 20.5098 19.8211 20.5597C19.8261 20.6097 19.8311 20.6596 19.8361 20.7095C19.8461 20.7595 19.8536 20.8344 19.8586 20.9343L19.5589 20.6271C19.6389 20.3524 19.7662 20.1127 19.941 19.9079C20.1158 19.7032 20.3256 19.5458 20.5703 19.436C20.82 19.3211 21.0922 19.2637 21.3869 19.2637C21.7565 19.2637 22.0836 19.3436 22.3683 19.5034C22.658 19.6632 22.8852 19.883 23.05 20.1627C23.2149 20.4423 23.2973 20.762 23.2973 21.1216C23.2973 21.4862 23.2099 21.8133 23.0351 22.103C22.8652 22.3877 22.623 22.6124 22.3084 22.7772C21.9937 22.9371 21.6241 23.017 21.1996 23.017ZM21.267 22.4176C21.5217 22.4176 21.7465 22.3627 21.9413 22.2528C22.1361 22.1379 22.2884 21.9856 22.3983 21.7958C22.5081 21.601 22.5631 21.3838 22.5631 21.1441C22.5631 20.9043 22.5081 20.6921 22.3983 20.5073C22.2884 20.3225 22.1361 20.1776 21.9413 20.0728C21.7465 19.9629 21.5168 19.9079 21.2521 19.9079C21.0023 19.9079 20.7776 19.9604 20.5778 20.0653C20.378 20.1651 20.2232 20.3075 20.1133 20.4923C20.0034 20.6721 19.9485 20.8818 19.9485 21.1216C19.9485 21.3613 20.0034 21.5811 20.1133 21.7808C20.2282 21.9756 20.383 22.1305 20.5778 22.2453C20.7776 22.3602 21.0073 22.4176 21.267 22.4176ZM23.6359 22.9495L23.6809 22.3427C23.7158 22.3477 23.7483 22.3527 23.7783 22.3577C23.8082 22.3627 23.8357 22.3652 23.8607 22.3652C24.0205 22.3652 24.1453 22.3103 24.2352 22.2004C24.3301 22.0905 24.4001 21.9457 24.445 21.7659C24.49 21.5811 24.5224 21.3738 24.5424 21.1441C24.5624 20.9143 24.5774 20.6846 24.5874 20.4548L24.6548 18.9865H27.7039V22.957H26.9847V19.406L27.157 19.6158H25.1193L25.2841 19.3985L25.2316 20.4998C25.2166 20.8494 25.1892 21.1765 25.1492 21.4812C25.1093 21.7858 25.0468 22.053 24.9619 22.2828C24.882 22.5125 24.7696 22.6923 24.6248 22.8222C24.485 22.952 24.3027 23.017 24.0779 23.017C24.013 23.017 23.9431 23.0095 23.8682 22.9945C23.7982 22.9845 23.7208 22.9695 23.6359 22.9495ZM30.8625 23.002C30.438 23.002 30.0634 22.9146 29.7388 22.7398C29.4191 22.565 29.1694 22.3252 28.9896 22.0206C28.8148 21.7159 28.7274 21.3663 28.7274 20.9717C28.7274 20.5772 28.8123 20.2276 28.9821 19.9229C29.1569 19.6183 29.3942 19.381 29.6938 19.2112C29.9985 19.0364 30.3406 18.949 30.7202 18.949C31.1048 18.949 31.4444 19.0339 31.7391 19.2037C32.0337 19.3735 32.2635 19.6133 32.4283 19.9229C32.5981 20.2276 32.683 20.5847 32.683 20.9942C32.683 21.0242 32.6805 21.0591 32.6755 21.0991C32.6755 21.1391 32.673 21.1765 32.668 21.2115H29.2893V20.6946H32.2934L32.0013 20.8744C32.0063 20.6196 31.9538 20.3924 31.8439 20.1926C31.7341 19.9928 31.5817 19.838 31.3869 19.7281C31.1972 19.6133 30.9749 19.5558 30.7202 19.5558C30.4705 19.5558 30.2482 19.6133 30.0534 19.7281C29.8587 19.838 29.7063 19.9953 29.5964 20.2001C29.4866 20.3999 29.4316 20.6296 29.4316 20.8893V21.0092C29.4316 21.2739 29.4916 21.5111 29.6114 21.7209C29.7363 21.9257 29.9086 22.0855 30.1284 22.2004C30.3481 22.3152 30.6003 22.3727 30.885 22.3727C31.1197 22.3727 31.332 22.3327 31.5218 22.2528C31.7166 22.1729 31.8864 22.053 32.0312 21.8932L32.4283 22.3577C32.2485 22.5675 32.0237 22.7273 31.754 22.8372C31.4893 22.947 31.1922 23.002 30.8625 23.002ZM33.7987 22.957V18.9865H34.5404L36.2485 21.9232H35.9488L37.7019 18.9865H38.3761V22.957H37.7243V19.7956L37.8442 19.863L36.241 22.5075H35.9264L34.3157 19.8105L34.458 19.7806V22.957H33.7987ZM39.9782 24.4554C39.7884 24.4554 39.6036 24.4229 39.4238 24.358C39.244 24.298 39.0892 24.2081 38.9594 24.0883L39.2665 23.5489C39.3664 23.6438 39.4763 23.7162 39.5961 23.7661C39.716 23.8161 39.8434 23.841 39.9782 23.841C40.153 23.841 40.2979 23.7961 40.4127 23.7062C40.5276 23.6163 40.635 23.4565 40.7349 23.2267L40.9821 22.6798L41.057 22.5899L42.6153 18.9865H43.3195L41.3941 23.3541C41.2793 23.6338 41.1494 23.8535 41.0046 24.0134C40.8647 24.1732 40.7099 24.2855 40.5401 24.3505C40.3703 24.4204 40.183 24.4554 39.9782 24.4554ZM40.9222 23.0844L39.1092 18.9865H39.8584L41.4016 22.5225L40.9222 23.0844ZM46.0678 22.957V18.9865H46.7869V21.8782L49.2217 18.9865H49.8735V22.957H49.1543V20.0653L46.727 22.957H46.0678ZM50.6102 22.9495L50.6552 22.3427C50.6901 22.3477 50.7226 22.3527 50.7525 22.3577C50.7825 22.3627 50.81 22.3652 50.8349 22.3652C50.9948 22.3652 51.1196 22.3103 51.2095 22.2004C51.3044 22.0905 51.3743 21.9457 51.4193 21.7659C51.4642 21.5811 51.4967 21.3738 51.5167 21.1441C51.5367 20.9143 51.5516 20.6846 51.5616 20.4548L51.6291 18.9865H54.6782V22.957H53.959V19.406L54.1313 19.6158H52.0935L52.2584 19.3985L52.2059 20.4998C52.1909 20.8494 52.1635 21.1765 52.1235 21.4812C52.0836 21.7858 52.0211 22.053 51.9362 22.2828C51.8563 22.5125 51.7439 22.6923 51.5991 22.8222C51.4593 22.952 51.277 23.017 51.0522 23.017C50.9873 23.017 50.9174 23.0095 50.8424 22.9945C50.7725 22.9845 50.6951 22.9695 50.6102 22.9495ZM56.0688 22.957V18.9865H56.788V21.8782L59.2228 18.9865H59.8745V22.957H59.1554V20.0653L56.7281 22.957H56.0688ZM20.1927 32.002C19.863 32.002 19.5609 31.9271 19.2862 31.7772C19.0165 31.6224 18.7992 31.3952 18.6344 31.0955C18.4746 30.7958 18.3947 30.4212 18.3947 29.9717C18.3947 29.5222 18.4721 29.1477 18.6269 28.848C18.7867 28.5483 19.0015 28.3236 19.2712 28.1738C19.5459 28.0239 19.853 27.949 20.1927 27.949C20.5822 27.949 20.9268 28.0339 21.2265 28.2037C21.5262 28.3735 21.7634 28.6108 21.9382 28.9154C22.113 29.2151 22.2004 29.5672 22.2004 29.9717C22.2004 30.3763 22.113 30.7309 21.9382 31.0356C21.7634 31.3402 21.5262 31.5775 21.2265 31.7473C20.9268 31.9171 20.5822 32.002 20.1927 32.002ZM18.0875 33.4104V27.9865H18.7767V29.0578L18.7318 29.9792L18.8067 30.9007V33.4104H18.0875ZM20.1327 31.3727C20.3874 31.3727 20.6147 31.3152 20.8145 31.2004C21.0192 31.0855 21.1791 30.9232 21.2939 30.7134C21.4138 30.4987 21.4737 30.2514 21.4737 29.9717C21.4737 29.6871 21.4138 29.4423 21.2939 29.2376C21.1791 29.0278 21.0192 28.8655 20.8145 28.7506C20.6147 28.6357 20.3874 28.5783 20.1327 28.5783C19.883 28.5783 19.6558 28.6357 19.451 28.7506C19.2512 28.8655 19.0914 29.0278 18.9715 29.2376C18.8566 29.4423 18.7992 29.6871 18.7992 29.9717C18.7992 30.2514 18.8566 30.4987 18.9715 30.7134C19.0914 30.9232 19.2512 31.0855 19.451 31.2004C19.6558 31.3152 19.883 31.3727 20.1327 31.3727ZM25.0134 32.002C24.5888 32.002 24.2142 31.9146 23.8896 31.7398C23.57 31.565 23.3202 31.3252 23.1404 31.0206C22.9656 30.7159 22.8782 30.3663 22.8782 29.9717C22.8782 29.5772 22.9631 29.2276 23.133 28.9229C23.3078 28.6183 23.545 28.381 23.8447 28.2112C24.1493 28.0364 24.4914 27.949 24.871 27.949C25.2556 27.949 25.5952 28.0339 25.8899 28.2037C26.1845 28.3735 26.4143 28.6133 26.5791 28.9229C26.7489 29.2276 26.8338 29.5847 26.8338 29.9942C26.8338 30.0242 26.8313 30.0591 26.8263 30.0991C26.8263 30.1391 26.8238 30.1765 26.8188 30.2115H23.4401V29.6946H26.4443L26.1521 29.8744C26.1571 29.6196 26.1046 29.3924 25.9948 29.1926C25.8849 28.9928 25.7325 28.838 25.5378 28.7281C25.348 28.6133 25.1257 28.5558 24.871 28.5558C24.6213 28.5558 24.399 28.6133 24.2043 28.7281C24.0095 28.838 23.8571 28.9953 23.7473 29.2001C23.6374 29.3999 23.5824 29.6296 23.5824 29.8893V30.0092C23.5824 30.2739 23.6424 30.5111 23.7622 30.7209C23.8871 30.9257 24.0594 31.0855 24.2792 31.2004C24.4989 31.3152 24.7511 31.3727 25.0358 31.3727C25.2706 31.3727 25.4828 31.3327 25.6726 31.2528C25.8674 31.1729 26.0372 31.053 26.182 30.8932L26.5791 31.3577C26.3993 31.5675 26.1746 31.7273 25.9049 31.8372C25.6402 31.947 25.343 32.002 25.0134 32.002ZM27.9495 31.957V27.9865H28.6912L30.3993 30.9232H30.0996L31.8527 27.9865H32.5269V31.957H31.8752V28.7956L31.995 28.863L30.3918 31.5075H30.0772L28.4665 28.8105L28.6088 28.7806V31.957H27.9495ZM35.6274 32.002C35.2278 32.002 34.8732 31.9146 34.5636 31.7398C34.2539 31.565 34.0092 31.3252 33.8294 31.0206C33.6496 30.7109 33.5597 30.3613 33.5597 29.9717C33.5597 29.5772 33.6496 29.2276 33.8294 28.9229C34.0092 28.6183 34.2539 28.381 34.5636 28.2112C34.8732 28.0364 35.2278 27.949 35.6274 27.949C36.0219 27.949 36.374 28.0364 36.6837 28.2112C36.9983 28.381 37.2431 28.6183 37.4179 28.9229C37.5977 29.2226 37.6876 29.5722 37.6876 29.9717C37.6876 30.3663 37.5977 30.7159 37.4179 31.0206C37.2431 31.3252 36.9983 31.565 36.6837 31.7398C36.374 31.9146 36.0219 32.002 35.6274 32.002ZM35.6274 31.3727C35.8821 31.3727 36.1093 31.3152 36.3091 31.2004C36.5139 31.0855 36.6737 30.9232 36.7886 30.7134C36.9034 30.4987 36.9609 30.2514 36.9609 29.9717C36.9609 29.6871 36.9034 29.4423 36.7886 29.2376C36.6737 29.0278 36.5139 28.8655 36.3091 28.7506C36.1093 28.6357 35.8821 28.5783 35.6274 28.5783C35.3727 28.5783 35.1454 28.6357 34.9456 28.7506C34.7458 28.8655 34.586 29.0278 34.4662 29.2376C34.3463 29.4423 34.2864 29.6871 34.2864 29.9717C34.2864 30.2514 34.3463 30.4987 34.4662 30.7134C34.586 30.9232 34.7458 31.0855 34.9456 31.2004C35.1454 31.3152 35.3727 31.3727 35.6274 31.3727ZM38.7261 31.957V27.9865H39.4453V29.6721H41.7078V27.9865H42.427V31.957H41.7078V30.2939H39.4453V31.957H38.7261ZM44.612 31.957V28.4285L44.7918 28.6158H43.1586V27.9865H46.7846V28.6158H45.1589L45.3312 28.4285V31.957H44.612ZM26.5052 40.6124L27.0221 39.3913C27.2419 39.4812 27.4666 39.5511 27.6964 39.601C27.9311 39.651 28.1559 39.6835 28.3706 39.6984C28.5854 39.7084 28.7752 39.6984 28.94 39.6685C29.1098 39.6385 29.2447 39.5886 29.3445 39.5186C29.4444 39.4487 29.4944 39.3563 29.4944 39.2414C29.4944 39.1216 29.4444 39.0392 29.3445 38.9942C29.2447 38.9493 29.1223 38.9268 28.9775 38.9268H27.5615V37.6532H28.8276C28.9775 37.6532 29.0898 37.6257 29.1647 37.5708C29.2447 37.5109 29.2846 37.4335 29.2846 37.3386C29.2846 37.2337 29.2397 37.1513 29.1498 37.0913C29.0649 37.0314 28.9475 36.9915 28.7977 36.9715C28.6528 36.9465 28.488 36.944 28.3032 36.964C28.1184 36.979 27.9261 37.0164 27.7263 37.0764C27.5316 37.1313 27.3418 37.2037 27.157 37.2936L26.6401 36.0051C27.0096 35.8352 27.3967 35.7204 27.8013 35.6604C28.2108 35.5955 28.6079 35.583 28.9924 35.623C29.382 35.6579 29.7316 35.7404 30.0413 35.8702C30.3559 36.0001 30.6056 36.1724 30.7904 36.3871C30.9752 36.5969 31.0676 36.8466 31.0676 37.1363C31.0676 37.386 31.0002 37.6108 30.8653 37.8105C30.7305 38.0053 30.5457 38.1577 30.311 38.2675C30.0812 38.3774 29.819 38.4323 29.5243 38.4323L29.5618 38.0802C29.9064 38.0802 30.2061 38.1427 30.4608 38.2675C30.7205 38.3874 30.9203 38.5522 31.0601 38.762C31.205 38.9717 31.2774 39.2115 31.2774 39.4812C31.2774 39.7309 31.21 39.9556 31.0751 40.1554C30.9403 40.3502 30.753 40.5175 30.5132 40.6574C30.2785 40.7922 30.0038 40.8946 29.6892 40.9645C29.3795 41.0344 29.0449 41.0694 28.6853 41.0694C28.3307 41.0744 27.9661 41.0369 27.5915 40.957C27.2219 40.8821 26.8598 40.7672 26.5052 40.6124ZM31.4637 40.957L33.7562 35.7129H35.4942L37.7867 40.957H35.9587L34.2656 36.5519H34.9548L33.2617 40.957H31.4637ZM32.8272 40.0431L33.2767 38.7695H35.689L36.1385 40.0431H32.8272ZM10.628 55.957V45.4195H14.9625V49.1182H17.9292V45.4195H22.2636V55.957H17.9292V52.528H14.9625V55.957H10.628ZM30.4502 55.957V54.0884L30.1419 53.5875V50.0429C30.1419 49.5292 29.9814 49.1375 29.6603 48.8678C29.3521 48.5981 28.8448 48.4633 28.1384 48.4633C27.6633 48.4633 27.1817 48.5403 26.6936 48.6944C26.2056 48.8357 25.7882 49.0348 25.4415 49.2916L24.0544 46.4212C24.6709 46.036 25.4093 45.7406 26.2698 45.5351C27.1303 45.3296 27.9715 45.2269 28.7934 45.2269C30.6043 45.2269 32.0041 45.6314 32.993 46.4405C33.9948 47.2496 34.4956 48.5339 34.4956 50.2934V55.957H30.4502ZM27.4642 56.1497C26.6037 56.1497 25.8845 56.002 25.3066 55.7066C24.7287 55.4112 24.292 55.0195 23.9966 54.5315C23.7013 54.0306 23.5536 53.4784 23.5536 52.8748C23.5536 52.1941 23.7269 51.6162 24.0737 51.141C24.4205 50.6658 24.947 50.3062 25.6534 50.0622C26.3726 49.8182 27.278 49.6962 28.3696 49.6962H30.5657V51.796H29.0631C28.6008 51.796 28.2605 51.873 28.0421 52.0271C27.8366 52.1684 27.7339 52.3867 27.7339 52.6821C27.7339 52.9261 27.8238 53.1316 28.0036 53.2986C28.1962 53.4527 28.4531 53.5297 28.7742 53.5297C29.0695 53.5297 29.3392 53.4527 29.5833 53.2986C29.8401 53.1316 30.0263 52.8748 30.1419 52.528L30.7006 53.8187C30.5336 54.6021 30.1805 55.1865 29.6411 55.5717C29.1017 55.957 28.376 56.1497 27.4642 56.1497ZM43.725 52.5473L42.7811 53.4912V45.4195H47.1155V53.4912L46.1523 52.5473H50.217L49.2731 53.4912V45.4195H53.5883V55.957H36.2698V45.4195H40.6042V53.4912L39.6603 52.5473H43.725ZM24.5198 65.0769C24.1003 65.0769 23.7107 65.012 23.3511 64.8821C22.9965 64.7473 22.6869 64.5575 22.4222 64.3128C22.1624 64.068 21.9602 63.7783 21.8153 63.4437C21.6705 63.1091 21.5981 62.7395 21.5981 62.335C21.5981 61.9304 21.6705 61.5608 21.8153 61.2262C21.9602 60.8916 22.1624 60.6019 22.4222 60.3572C22.6869 60.1124 22.9965 59.9251 23.3511 59.7953C23.7107 59.6604 24.1003 59.593 24.5198 59.593C25.0342 59.593 25.4887 59.6829 25.8833 59.8627C26.2828 60.0425 26.6125 60.3022 26.8722 60.6418L25.7559 61.6382C25.6011 61.4435 25.4288 61.2936 25.239 61.1887C25.0542 61.0789 24.8444 61.0239 24.6097 61.0239C24.4249 61.0239 24.2576 61.0539 24.1078 61.1138C23.9579 61.1738 23.8281 61.2612 23.7182 61.376C23.6133 61.4909 23.5309 61.6307 23.471 61.7956C23.411 61.9554 23.3811 62.1352 23.3811 62.335C23.3811 62.5347 23.411 62.717 23.471 62.8818C23.5309 63.0417 23.6133 63.179 23.7182 63.2939C23.8281 63.4088 23.9579 63.4962 24.1078 63.5561C24.2576 63.616 24.4249 63.646 24.6097 63.646C24.8444 63.646 25.0542 63.5936 25.239 63.4887C25.4288 63.3788 25.6011 63.2265 25.7559 63.0317L26.8722 64.0281C26.6125 64.3627 26.2828 64.6224 25.8833 64.8072C25.4887 64.987 25.0342 65.0769 24.5198 65.0769ZM30.7027 63.1965C30.4779 63.2764 30.2682 63.3363 30.0734 63.3763C29.8836 63.4163 29.6988 63.4362 29.519 63.4362C28.7499 63.4362 28.163 63.2539 27.7585 62.8893C27.3589 62.5247 27.1592 61.9928 27.1592 61.2936V59.7129H28.8972V61.0988C28.8972 61.4185 28.9671 61.6557 29.107 61.8105C29.2468 61.9604 29.4591 62.0353 29.7438 62.0353C29.9385 62.0353 30.1134 62.0178 30.2682 61.9829C30.423 61.9429 30.5529 61.888 30.6577 61.818L30.7027 63.1965ZM30.4705 64.957V59.7129H32.2085V64.957H30.4705ZM34.753 61.6607H37.0904V62.9343H34.753V61.6607ZM34.8729 63.6235H37.495V64.957H33.1348V59.7129H37.3976V61.0464H34.8729V63.6235ZM39.4034 64.957V60.7018L39.7854 61.0839H37.8676V59.7129H42.6772V61.0839H40.7593L41.1414 60.7018V64.957H39.4034Z" fill="#F6F6F6"/>
</svg>
