<svg width="65" height="80" viewBox="0 0 65 80" fill="none" xmlns="http://www.w3.org/2000/svg">
<path d="M0.618896 65.2889V5.88629C0.618896 2.63538 3.25427 0 6.50518 0H58.9467C62.1976 0 64.8329 2.63538 64.8329 5.88629V65.2889C64.8329 67.8388 63.1911 70.0988 60.766 70.887L35.7031 79.0324C33.7681 79.6613 31.6837 79.6613 29.7488 79.0324L4.68581 70.887C2.26074 70.0988 0.618896 67.8388 0.618896 65.2889Z" fill="#D21341"/>
<path d="M21.5336 14.017C21.1341 14.017 20.762 13.9495 20.4174 13.8147C20.0778 13.6798 19.7831 13.4925 19.5334 13.2528C19.2837 13.0081 19.0889 12.7234 18.949 12.3988C18.8092 12.0741 18.7393 11.7195 18.7393 11.335C18.7393 10.9504 18.8092 10.5958 18.949 10.2711C19.0889 9.94651 19.2837 9.66432 19.5334 9.42459C19.7831 9.17986 20.0778 8.99007 20.4174 8.85523C20.757 8.72038 21.1291 8.65295 21.5336 8.65295C21.9332 8.65295 22.3003 8.72038 22.6349 8.85523C22.9745 8.98508 23.2692 9.17237 23.5189 9.4171C23.7736 9.65683 23.9684 9.93902 24.1033 10.2637C24.2431 10.5883 24.313 10.9454 24.313 11.335C24.313 11.7245 24.2431 12.0816 24.1033 12.4063C23.9684 12.7309 23.7736 13.0156 23.5189 13.2603C23.2692 13.5 22.9745 13.6873 22.6349 13.8222C22.3003 13.952 21.9332 14.017 21.5336 14.017ZM21.5336 13.3502C21.8233 13.3502 22.0905 13.3003 22.3353 13.2004C22.585 13.1005 22.7997 12.9606 22.9795 12.7808C23.1643 12.5961 23.3067 12.3813 23.4066 12.1366C23.5114 11.8918 23.5639 11.6246 23.5639 11.335C23.5639 11.0453 23.5114 10.7781 23.4066 10.5334C23.3067 10.2886 23.1643 10.0764 22.9795 9.89656C22.7997 9.71177 22.585 9.56943 22.3353 9.46954C22.0905 9.36965 21.8233 9.31971 21.5336 9.31971C21.239 9.31971 20.9668 9.36965 20.7171 9.46954C20.4723 9.56943 20.2576 9.71177 20.0728 9.89656C19.888 10.0764 19.7431 10.2886 19.6383 10.5334C19.5384 10.7781 19.4884 11.0453 19.4884 11.335C19.4884 11.6246 19.5384 11.8918 19.6383 12.1366C19.7431 12.3813 19.888 12.5961 20.0728 12.7808C20.2576 12.9606 20.4723 13.1005 20.7171 13.2004C20.9668 13.3003 21.239 13.3502 21.5336 13.3502ZM25.4042 13.957V9.98646H29.0826V13.957H28.3634V10.436L28.5358 10.6158H25.9511L26.1234 10.436V13.957H25.4042ZM29.815 13.9495L29.86 13.3427C29.8949 13.3477 29.9274 13.3527 29.9574 13.3577C29.9873 13.3627 30.0148 13.3652 30.0398 13.3652C30.1996 13.3652 30.3244 13.3103 30.4143 13.2004C30.5092 13.0905 30.5792 12.9457 30.6241 12.7659C30.6691 12.5811 30.7015 12.3738 30.7215 12.1441C30.7415 11.9143 30.7565 11.6846 30.7664 11.4548L30.8339 9.98646H33.883V13.957H33.1638V10.406L33.3361 10.6158H31.2984L31.4632 10.3985L31.4107 11.4998C31.3957 11.8494 31.3683 12.1765 31.3283 12.4812C31.2884 12.7858 31.2259 13.053 31.141 13.2828C31.0611 13.5125 30.9487 13.6923 30.8039 13.8222C30.6641 13.952 30.4818 14.017 30.257 14.017C30.1921 14.017 30.1222 14.0095 30.0473 13.9945C29.9773 13.9845 29.8999 13.9695 29.815 13.9495ZM37.7084 13.957V13.118L37.6709 12.9606V11.5297C37.6709 11.2251 37.581 10.9903 37.4012 10.8255C37.2264 10.6557 36.9617 10.5708 36.6071 10.5708C36.3724 10.5708 36.1426 10.6108 35.9179 10.6907C35.6931 10.7656 35.5033 10.868 35.3485 10.9978L35.0489 10.4584C35.2536 10.2936 35.4984 10.1688 35.783 10.0839C36.0727 9.99395 36.3749 9.949 36.6895 9.949C37.2339 9.949 37.6534 10.0814 37.9481 10.3461C38.2428 10.6108 38.3901 11.0153 38.3901 11.5597V13.957H37.7084ZM36.4048 14.002C36.1102 14.002 35.8505 13.952 35.6257 13.8521C35.406 13.7523 35.2361 13.6149 35.1163 13.4401C34.9964 13.2603 34.9365 13.058 34.9365 12.8333C34.9365 12.6185 34.9864 12.4237 35.0863 12.2489C35.1912 12.0741 35.3585 11.9343 35.5883 11.8294C35.823 11.7245 36.1376 11.6721 36.5322 11.6721H37.7908V12.189H36.5622C36.2026 12.189 35.9603 12.2489 35.8355 12.3688C35.7106 12.4887 35.6482 12.6335 35.6482 12.8033C35.6482 12.9981 35.7256 13.1554 35.8804 13.2753C36.0353 13.3902 36.25 13.4476 36.5247 13.4476C36.7944 13.4476 37.0291 13.3877 37.2289 13.2678C37.4337 13.1479 37.581 12.9731 37.6709 12.7434L37.8133 13.2378C37.7184 13.4726 37.5511 13.6599 37.3113 13.7997C37.0716 13.9346 36.7694 14.002 36.4048 14.002ZM40.4718 13.957V10.4285L40.6516 10.6158H39.0184V9.98646H42.6444V10.6158H41.0187L41.191 10.4285V13.957H40.4718ZM45.8146 13.957V13.118L45.7771 12.9606V11.5297C45.7771 11.2251 45.6872 10.9903 45.5074 10.8255C45.3326 10.6557 45.0679 10.5708 44.7133 10.5708C44.4786 10.5708 44.2488 10.6108 44.0241 10.6907C43.7993 10.7656 43.6095 10.868 43.4547 10.9978L43.155 10.4584C43.3598 10.2936 43.6045 10.1688 43.8892 10.0839C44.1789 9.99395 44.4811 9.949 44.7957 9.949C45.3401 9.949 45.7596 10.0814 46.0543 10.3461C46.349 10.6108 46.4963 11.0153 46.4963 11.5597V13.957H45.8146ZM44.511 14.002C44.2164 14.002 43.9566 13.952 43.7319 13.8521C43.5121 13.7523 43.3423 13.6149 43.2225 13.4401C43.1026 13.2603 43.0427 13.058 43.0427 12.8333C43.0427 12.6185 43.0926 12.4237 43.1925 12.2489C43.2974 12.0741 43.4647 11.9343 43.6944 11.8294C43.9292 11.7245 44.2438 11.6721 44.6384 11.6721H45.897V12.189H44.6684C44.3088 12.189 44.0665 12.2489 43.9417 12.3688C43.8168 12.4887 43.7544 12.6335 43.7544 12.8033C43.7544 12.9981 43.8318 13.1554 43.9866 13.2753C44.1414 13.3902 44.3562 13.4476 44.6309 13.4476C44.9006 13.4476 45.1353 13.3877 45.3351 13.2678C45.5399 13.1479 45.6872 12.9731 45.7771 12.7434L45.9195 13.2378C45.8246 13.4726 45.6572 13.6599 45.4175 13.7997C45.1778 13.9346 44.8756 14.002 44.511 14.002ZM9.08945 22.957V18.9865H12.7678V22.957H12.0487V19.436L12.221 19.6158H9.63634L9.80865 19.436V22.957H9.08945ZM15.8601 23.002C15.4605 23.002 15.1059 22.9146 14.7963 22.7398C14.4866 22.565 14.2419 22.3252 14.0621 22.0206C13.8823 21.7109 13.7924 21.3613 13.7924 20.9717C13.7924 20.5772 13.8823 20.2276 14.0621 19.9229C14.2419 19.6183 14.4866 19.381 14.7963 19.2112C15.1059 19.0364 15.4605 18.949 15.8601 18.949C16.2546 18.949 16.6067 19.0364 16.9164 19.2112C17.231 19.381 17.4758 19.6183 17.6506 19.9229C17.8304 20.2226 17.9203 20.5722 17.9203 20.9717C17.9203 21.3663 17.8304 21.7159 17.6506 22.0206C17.4758 22.3252 17.231 22.565 16.9164 22.7398C16.6067 22.9146 16.2546 23.002 15.8601 23.002ZM15.8601 22.3727C16.1148 22.3727 16.342 22.3152 16.5418 22.2004C16.7466 22.0855 16.9064 21.9232 17.0213 21.7134C17.1362 21.4987 17.1936 21.2514 17.1936 20.9717C17.1936 20.6871 17.1362 20.4423 17.0213 20.2376C16.9064 20.0278 16.7466 19.8655 16.5418 19.7506C16.342 19.6357 16.1148 19.5783 15.8601 19.5783C15.6054 19.5783 15.3781 19.6357 15.1783 19.7506C14.9786 19.8655 14.8187 20.0278 14.6989 20.2376C14.579 20.4423 14.5191 20.6871 14.5191 20.9717C14.5191 21.2514 14.579 21.4987 14.6989 21.7134C14.8187 21.9232 14.9786 22.0855 15.1783 22.2004C15.3781 22.3152 15.6054 22.3727 15.8601 22.3727ZM23.6827 22.6199V19.6158H21.9596L21.9222 20.3799C21.9122 20.6296 21.8947 20.8719 21.8697 21.1066C21.8497 21.3363 21.8148 21.5486 21.7648 21.7434C21.7199 21.9382 21.6525 22.098 21.5626 22.2229C21.4727 22.3477 21.3528 22.4251 21.203 22.4551L20.4913 22.3277C20.6461 22.3327 20.7709 22.2828 20.8658 22.1779C20.9607 22.068 21.0332 21.9182 21.0831 21.7284C21.138 21.5386 21.178 21.3239 21.203 21.0841C21.2279 20.8394 21.2479 20.5872 21.2629 20.3275L21.3228 18.9865H24.4019V22.6199H23.6827ZM20.3339 23.8785V22.3277H25.0087V23.8785H24.3345V22.957H21.0157V23.8785H20.3339ZM27.6462 23.002C27.2467 23.002 26.8921 22.9146 26.5824 22.7398C26.2728 22.565 26.028 22.3252 25.8482 22.0206C25.6684 21.7109 25.5785 21.3613 25.5785 20.9717C25.5785 20.5772 25.6684 20.2276 25.8482 19.9229C26.028 19.6183 26.2728 19.381 26.5824 19.2112C26.8921 19.0364 27.2467 18.949 27.6462 18.949C28.0408 18.949 28.3929 19.0364 28.7026 19.2112C29.0172 19.381 29.2619 19.6183 29.4367 19.9229C29.6165 20.2226 29.7064 20.5722 29.7064 20.9717C29.7064 21.3663 29.6165 21.7159 29.4367 22.0206C29.2619 22.3252 29.0172 22.565 28.7026 22.7398C28.3929 22.9146 28.0408 23.002 27.6462 23.002ZM27.6462 22.3727C27.901 22.3727 28.1282 22.3152 28.328 22.2004C28.5328 22.0855 28.6926 21.9232 28.8074 21.7134C28.9223 21.4987 28.9798 21.2514 28.9798 20.9717C28.9798 20.6871 28.9223 20.4423 28.8074 20.2376C28.6926 20.0278 28.5328 19.8655 28.328 19.7506C28.1282 19.6357 27.901 19.5783 27.6462 19.5783C27.3915 19.5783 27.1643 19.6357 26.9645 19.7506C26.7647 19.8655 26.6049 20.0278 26.485 20.2376C26.3652 20.4423 26.3052 20.6871 26.3052 20.9717C26.3052 21.2514 26.3652 21.4987 26.485 21.7134C26.6049 21.9232 26.7647 22.0855 26.9645 22.2004C27.1643 22.3152 27.3915 22.3727 27.6462 22.3727ZM30.745 22.957V18.9865H33.6667V19.6158H31.2919L31.4642 19.4509V22.957H30.745ZM35.928 23.002C35.5285 23.002 35.1739 22.9146 34.8642 22.7398C34.5545 22.565 34.3098 22.3252 34.13 22.0206C33.9502 21.7109 33.8603 21.3613 33.8603 20.9717C33.8603 20.5772 33.9502 20.2276 34.13 19.9229C34.3098 19.6183 34.5545 19.381 34.8642 19.2112C35.1739 19.0364 35.5285 18.949 35.928 18.949C36.3226 18.949 36.6747 19.0364 36.9843 19.2112C37.299 19.381 37.5437 19.6183 37.7185 19.9229C37.8983 20.2226 37.9882 20.5722 37.9882 20.9717C37.9882 21.3663 37.8983 21.7159 37.7185 22.0206C37.5437 22.3252 37.299 22.565 36.9843 22.7398C36.6747 22.9146 36.3226 23.002 35.928 23.002ZM35.928 22.3727C36.1827 22.3727 36.41 22.3152 36.6098 22.2004C36.8145 22.0855 36.9743 21.9232 37.0892 21.7134C37.2041 21.4987 37.2615 21.2514 37.2615 20.9717C37.2615 20.6871 37.2041 20.4423 37.0892 20.2376C36.9743 20.0278 36.8145 19.8655 36.6098 19.7506C36.41 19.6357 36.1827 19.5783 35.928 19.5783C35.6733 19.5783 35.4461 19.6357 35.2463 19.7506C35.0465 19.8655 34.8867 20.0278 34.7668 20.2376C34.6469 20.4423 34.587 20.6871 34.587 20.9717C34.587 21.2514 34.6469 21.4987 34.7668 21.7134C34.8867 21.9232 35.0465 22.0855 35.2463 22.2004C35.4461 22.3152 35.6733 22.3727 35.928 22.3727ZM39.0267 22.957V18.9865H40.8697C41.3342 18.9865 41.6988 19.0764 41.9635 19.2562C42.2332 19.431 42.368 19.6807 42.368 20.0053C42.368 20.33 42.2407 20.5822 41.9859 20.762C41.7362 20.9368 41.4041 21.0242 40.9895 21.0242L41.1019 20.8294C41.5764 20.8294 41.9285 20.9168 42.1582 21.0916C42.388 21.2664 42.5029 21.5236 42.5029 21.8633C42.5029 22.2079 42.373 22.4776 42.1133 22.6723C41.8586 22.8621 41.4665 22.957 40.9371 22.957H39.0267ZM39.731 22.4027H40.8847C41.1843 22.4027 41.4091 22.3577 41.5589 22.2678C41.7087 22.1729 41.7837 22.0231 41.7837 21.8183C41.7837 21.6085 41.7137 21.4562 41.5739 21.3613C41.439 21.2614 41.2243 21.2115 40.9296 21.2115H39.731V22.4027ZM39.731 20.6946H40.8097C41.0844 20.6946 41.2917 20.6446 41.4316 20.5447C41.5764 20.4398 41.6488 20.295 41.6488 20.1102C41.6488 19.9204 41.5764 19.7781 41.4316 19.6832C41.2917 19.5883 41.0844 19.5408 40.8097 19.5408H39.731V20.6946ZM45.3291 23.002C44.9296 23.002 44.575 22.9146 44.2653 22.7398C43.9557 22.565 43.7109 22.3252 43.5311 22.0206C43.3513 21.7109 43.2614 21.3613 43.2614 20.9717C43.2614 20.5772 43.3513 20.2276 43.5311 19.9229C43.7109 19.6183 43.9557 19.381 44.2653 19.2112C44.575 19.0364 44.9296 18.949 45.3291 18.949C45.7237 18.949 46.0758 19.0364 46.3855 19.2112C46.7001 19.381 46.9448 19.6183 47.1196 19.9229C47.2994 20.2226 47.3893 20.5722 47.3893 20.9717C47.3893 21.3663 47.2994 21.7159 47.1196 22.0206C46.9448 22.3252 46.7001 22.565 46.3855 22.7398C46.0758 22.9146 45.7237 23.002 45.3291 23.002ZM45.3291 22.3727C45.5839 22.3727 45.8111 22.3152 46.0109 22.2004C46.2157 22.0855 46.3755 21.9232 46.4903 21.7134C46.6052 21.4987 46.6627 21.2514 46.6627 20.9717C46.6627 20.6871 46.6052 20.4423 46.4903 20.2376C46.3755 20.0278 46.2157 19.8655 46.0109 19.7506C45.8111 19.6357 45.5839 19.5783 45.3291 19.5783C45.0744 19.5783 44.8472 19.6357 44.6474 19.7506C44.4476 19.8655 44.2878 20.0278 44.1679 20.2376C44.0481 20.4423 43.9881 20.6871 43.9881 20.9717C43.9881 21.2514 44.0481 21.4987 44.1679 21.7134C44.2878 21.9232 44.4476 22.0855 44.6474 22.2004C44.8472 22.3152 45.0744 22.3727 45.3291 22.3727ZM50.533 23.002C50.2034 23.002 49.9012 22.9271 49.6265 22.7772C49.3568 22.6224 49.1396 22.3952 48.9748 22.0955C48.8149 21.7958 48.735 21.4212 48.735 20.9717C48.735 20.5222 48.8124 20.1477 48.9673 19.848C49.1271 19.5483 49.3419 19.3236 49.6115 19.1738C49.8862 19.0239 50.1934 18.949 50.533 18.949C50.9226 18.949 51.2672 19.0339 51.5669 19.2037C51.8665 19.3735 52.1038 19.6108 52.2786 19.9154C52.4534 20.2151 52.5408 20.5672 52.5408 20.9717C52.5408 21.3763 52.4534 21.7309 52.2786 22.0356C52.1038 22.3402 51.8665 22.5775 51.5669 22.7473C51.2672 22.9171 50.9226 23.002 50.533 23.002ZM48.4279 24.4104V18.9865H49.1171V20.0578L49.0722 20.9792L49.1471 21.9007V24.4104H48.4279ZM50.4731 22.3727C50.7278 22.3727 50.955 22.3152 51.1548 22.2004C51.3596 22.0855 51.5194 21.9232 51.6343 21.7134C51.7542 21.4987 51.8141 21.2514 51.8141 20.9717C51.8141 20.6871 51.7542 20.4423 51.6343 20.2376C51.5194 20.0278 51.3596 19.8655 51.1548 19.7506C50.955 19.6357 50.7278 19.5783 50.4731 19.5783C50.2234 19.5783 49.9961 19.6357 49.7913 19.7506C49.5916 19.8655 49.4317 20.0278 49.3119 20.2376C49.197 20.4423 49.1396 20.6871 49.1396 20.9717C49.1396 21.2514 49.197 21.4987 49.3119 21.7134C49.4317 21.9232 49.5916 22.0855 49.7913 22.2004C49.9961 22.3152 50.2234 22.3727 50.4731 22.3727ZM53.6782 24.4554C53.4884 24.4554 53.3036 24.4229 53.1238 24.358C52.944 24.298 52.7892 24.2081 52.6594 24.0883L52.9665 23.5489C53.0664 23.6438 53.1763 23.7162 53.2961 23.7661C53.416 23.8161 53.5434 23.841 53.6782 23.841C53.853 23.841 53.9979 23.7961 54.1127 23.7062C54.2276 23.6163 54.335 23.4565 54.4349 23.2267L54.6821 22.6798L54.757 22.5899L56.3153 18.9865H57.0195L55.0941 23.3541C54.9793 23.6338 54.8494 23.8535 54.7046 24.0134C54.5647 24.1732 54.4099 24.2855 54.2401 24.3505C54.0703 24.4204 53.883 24.4554 53.6782 24.4554ZM54.6222 23.0844L52.8092 18.9865H53.5584L55.1016 22.5225L54.6222 23.0844ZM5.49393 32.002C5.08939 32.002 4.72729 31.9146 4.40765 31.7398C4.093 31.565 3.84577 31.3252 3.66597 31.0206C3.48617 30.7159 3.39627 30.3663 3.39627 29.9717C3.39627 29.5772 3.48617 29.2276 3.66597 28.9229C3.84577 28.6183 4.093 28.381 4.40765 28.2112C4.72729 28.0364 5.08939 27.949 5.49393 27.949C5.85353 27.949 6.17318 28.0214 6.45286 28.1663C6.73755 28.3061 6.9573 28.5159 7.11213 28.7956L6.56524 29.1477C6.43538 28.9529 6.27556 28.8105 6.08577 28.7206C5.90098 28.6257 5.7012 28.5783 5.48644 28.5783C5.22673 28.5783 4.99449 28.6357 4.78972 28.7506C4.58495 28.8655 4.42263 29.0278 4.30276 29.2376C4.1829 29.4423 4.12296 29.6871 4.12296 29.9717C4.12296 30.2564 4.1829 30.5037 4.30276 30.7134C4.42263 30.9232 4.58495 31.0855 4.78972 31.2004C4.99449 31.3152 5.22673 31.3727 5.48644 31.3727C5.7012 31.3727 5.90098 31.3277 6.08577 31.2378C6.27556 31.1429 6.43538 30.9981 6.56524 30.8033L7.11213 31.1479C6.9573 31.4226 6.73755 31.6349 6.45286 31.7847C6.17318 31.9296 5.85353 32.002 5.49393 32.002ZM10.0552 31.957V27.9865H12.9769V28.6158H10.6021L10.7744 28.4509V31.957H10.0552ZM16.148 31.957V31.118L16.1105 30.9606V29.5297C16.1105 29.2251 16.0206 28.9903 15.8408 28.8255C15.666 28.6557 15.4013 28.5708 15.0467 28.5708C14.812 28.5708 14.5822 28.6108 14.3575 28.6907C14.1327 28.7656 13.9429 28.868 13.7881 28.9978L13.4884 28.4584C13.6932 28.2936 13.9379 28.1688 14.2226 28.0839C14.5123 27.994 14.8145 27.949 15.1291 27.949C15.6735 27.949 16.093 28.0814 16.3877 28.3461C16.6824 28.6108 16.8297 29.0153 16.8297 29.5597V31.957H16.148ZM14.8444 32.002C14.5498 32.002 14.2901 31.952 14.0653 31.8521C13.8455 31.7523 13.6757 31.6149 13.5559 31.4401C13.436 31.2603 13.3761 31.058 13.3761 30.8333C13.3761 30.6185 13.426 30.4237 13.5259 30.2489C13.6308 30.0741 13.7981 29.9343 14.0278 29.8294C14.2626 29.7245 14.5772 29.6721 14.9718 29.6721H16.2304V30.189H15.0018C14.6422 30.189 14.3999 30.2489 14.2751 30.3688C14.1502 30.4887 14.0878 30.6335 14.0878 30.8033C14.0878 30.9981 14.1652 31.1554 14.32 31.2753C14.4748 31.3902 14.6896 31.4476 14.9643 31.4476C15.234 31.4476 15.4687 31.3877 15.6685 31.2678C15.8733 31.1479 16.0206 30.9731 16.1105 30.7434L16.2529 31.2378C16.158 31.4726 15.9907 31.6599 15.7509 31.7997C15.5112 31.9346 15.209 32.002 14.8444 32.002ZM20.2299 32.002C19.9003 32.002 19.5981 31.9271 19.3234 31.7772C19.0537 31.6224 18.8365 31.3952 18.6717 31.0955C18.5118 30.7958 18.4319 30.4212 18.4319 29.9717C18.4319 29.5222 18.5093 29.1477 18.6642 28.848C18.824 28.5483 19.0388 28.3236 19.3085 28.1738C19.5831 28.0239 19.8903 27.949 20.2299 27.949C20.6195 27.949 20.9641 28.0339 21.2638 28.2037C21.5634 28.3735 21.8007 28.6108 21.9755 28.9154C22.1503 29.2151 22.2377 29.5672 22.2377 29.9717C22.2377 30.3763 22.1503 30.7309 21.9755 31.0356C21.8007 31.3402 21.5634 31.5775 21.2638 31.7473C20.9641 31.9171 20.6195 32.002 20.2299 32.002ZM18.1248 33.4104V27.9865H18.814V29.0578L18.7691 29.9792L18.844 30.9007V33.4104H18.1248ZM20.17 31.3727C20.4247 31.3727 20.652 31.3152 20.8517 31.2004C21.0565 31.0855 21.2163 30.9232 21.3312 30.7134C21.4511 30.4987 21.511 30.2514 21.511 29.9717C21.511 29.6871 21.4511 29.4423 21.3312 29.2376C21.2163 29.0278 21.0565 28.8655 20.8517 28.7506C20.652 28.6357 20.4247 28.5783 20.17 28.5783C19.9203 28.5783 19.693 28.6357 19.4883 28.7506C19.2885 28.8655 19.1287 29.0278 19.0088 29.2376C18.8939 29.4423 18.8365 29.6871 18.8365 29.9717C18.8365 30.2514 18.8939 30.4987 19.0088 30.7134C19.1287 30.9232 19.2885 31.0855 19.4883 31.2004C19.693 31.3152 19.9203 31.3727 20.17 31.3727ZM25.6808 31.957V31.118L25.6433 30.9606V29.5297C25.6433 29.2251 25.5534 28.9903 25.3736 28.8255C25.1988 28.6557 24.9341 28.5708 24.5795 28.5708C24.3448 28.5708 24.115 28.6108 23.8903 28.6907C23.6655 28.7656 23.4758 28.868 23.3209 28.9978L23.0213 28.4584C23.226 28.2936 23.4708 28.1688 23.7554 28.0839C24.0451 27.994 24.3473 27.949 24.6619 27.949C25.2063 27.949 25.6259 28.0814 25.9205 28.3461C26.2152 28.6108 26.3625 29.0153 26.3625 29.5597V31.957H25.6808ZM24.3773 32.002C24.0826 32.002 23.8229 31.952 23.5981 31.8521C23.3784 31.7523 23.2086 31.6149 23.0887 31.4401C22.9688 31.2603 22.9089 31.058 22.9089 30.8333C22.9089 30.6185 22.9588 30.4237 23.0587 30.2489C23.1636 30.0741 23.3309 29.9343 23.5607 29.8294C23.7954 29.7245 24.11 29.6721 24.5046 29.6721H25.7632V30.189H24.5346C24.175 30.189 23.9327 30.2489 23.8079 30.3688C23.683 30.4887 23.6206 30.6335 23.6206 30.8033C23.6206 30.9981 23.698 31.1554 23.8528 31.2753C24.0077 31.3902 24.2224 31.4476 24.4971 31.4476C24.7668 31.4476 25.0016 31.3877 25.2013 31.2678C25.4061 31.1479 25.5534 30.9731 25.6433 30.7434L25.7857 31.2378C25.6908 31.4726 25.5235 31.6599 25.2837 31.7997C25.044 31.9346 24.7418 32.002 24.3773 32.002ZM27.6576 31.957V27.9865H28.3768V29.6721H30.6393V27.9865H31.3585V31.957H30.6393V30.2939H28.3768V31.957H27.6576ZM33.5435 31.957V28.4285L33.7233 28.6158H32.0901V27.9865H35.7161V28.6158H34.0904L34.2627 28.4285V31.957H33.5435ZM36.4515 31.957V27.9865H37.1707V30.8782L39.6055 27.9865H40.2572V31.957H39.538V29.0653L37.1108 31.957H36.4515ZM43.4212 32.002C42.9967 32.002 42.6221 31.9146 42.2975 31.7398C41.9778 31.565 41.7281 31.3252 41.5483 31.0206C41.3735 30.7159 41.2861 30.3663 41.2861 29.9717C41.2861 29.5772 41.371 29.2276 41.5408 28.9229C41.7156 28.6183 41.9529 28.381 42.2525 28.2112C42.5572 28.0364 42.8993 27.949 43.2789 27.949C43.6635 27.949 44.0031 28.0339 44.2978 28.2037C44.5924 28.3735 44.8222 28.6133 44.987 28.9229C45.1568 29.2276 45.2417 29.5847 45.2417 29.9942C45.2417 30.0242 45.2392 30.0591 45.2342 30.0991C45.2342 30.1391 45.2317 30.1765 45.2267 30.2115H41.848V29.6946H44.8521L44.56 29.8744C44.565 29.6196 44.5125 29.3924 44.4026 29.1926C44.2928 28.9928 44.1404 28.838 43.9456 28.7281C43.7559 28.6133 43.5336 28.5558 43.2789 28.5558C43.0292 28.5558 42.8069 28.6133 42.6121 28.7281C42.4174 28.838 42.265 28.9953 42.1551 29.2001C42.0453 29.3999 41.9903 29.6296 41.9903 29.8893V30.0092C41.9903 30.2739 42.0503 30.5111 42.1701 30.7209C42.295 30.9257 42.4673 31.0855 42.6871 31.2004C42.9068 31.3152 43.159 31.3727 43.4437 31.3727C43.6784 31.3727 43.8907 31.3327 44.0805 31.2528C44.2753 31.1729 44.4451 31.053 44.5899 30.8932L44.987 31.3577C44.8072 31.5675 44.5824 31.7273 44.3127 31.8372C44.048 31.947 43.7509 32.002 43.4212 32.002ZM46.3574 31.957V27.9865H47.0766V30.8782L49.5114 27.9865H50.1632V31.957H49.444V29.0653L47.0167 31.957H46.3574ZM48.2154 27.4695C47.8508 27.4695 47.5636 27.3821 47.3538 27.2073C47.149 27.0275 47.0442 26.7703 47.0392 26.4357H47.5261C47.5311 26.6255 47.5935 26.7753 47.7134 26.8852C47.8383 26.9951 48.0031 27.05 48.2079 27.05C48.4126 27.05 48.5774 26.9951 48.7023 26.8852C48.8272 26.7753 48.8921 26.6255 48.8971 26.4357H49.399C49.394 26.7703 49.2867 27.0275 49.0769 27.2073C48.8671 27.3821 48.5799 27.4695 48.2154 27.4695ZM53.5711 31.957V27.9865H54.2903V29.6721H56.5527V27.9865H57.2719V31.957H56.5527V30.2939H54.2903V31.957H53.5711ZM61.1051 31.957V31.118L61.0677 30.9606V29.5297C61.0677 29.2251 60.9778 28.9903 60.798 28.8255C60.6232 28.6557 60.3585 28.5708 60.0039 28.5708C59.7691 28.5708 59.5394 28.6108 59.3146 28.6907C59.0899 28.7656 58.9001 28.868 58.7453 28.9978L58.4456 28.4584C58.6504 28.2936 58.8951 28.1688 59.1798 28.0839C59.4695 27.994 59.7716 27.949 60.0863 27.949C60.6307 27.949 61.0502 28.0814 61.3449 28.3461C61.6395 28.6108 61.7869 29.0153 61.7869 29.5597V31.957H61.1051ZM59.8016 32.002C59.5069 32.002 59.2472 31.952 59.0225 31.8521C58.8027 31.7523 58.6329 31.6149 58.513 31.4401C58.3932 31.2603 58.3332 31.058 58.3332 30.8333C58.3332 30.6185 58.3832 30.4237 58.4831 30.2489C58.5879 30.0741 58.7552 29.9343 58.985 29.8294C59.2197 29.7245 59.5344 29.6721 59.9289 29.6721H61.1875V30.189H59.9589C59.5993 30.189 59.3571 30.2489 59.2322 30.3688C59.1074 30.4887 59.0449 30.6335 59.0449 30.8033C59.0449 30.9981 59.1223 31.1554 59.2772 31.2753C59.432 31.3902 59.6468 31.4476 59.9214 31.4476C60.1911 31.4476 60.4259 31.3877 60.6257 31.2678C60.8304 31.1479 60.9778 30.9731 61.0677 30.7434L61.21 31.2378C61.1151 31.4726 60.9478 31.6599 60.7081 31.7997C60.4683 31.9346 60.1662 32.002 59.8016 32.002ZM19.979 55.2267C19.0415 55.2267 18.104 55.1111 17.1665 54.88C16.2418 54.6488 15.4327 54.3213 14.7392 53.8975L16.1262 51.0271C16.6656 51.3867 17.2628 51.6629 17.9178 51.8555C18.5856 52.0481 19.2341 52.1445 19.8634 52.1445C20.5184 52.1445 21.0386 52.0224 21.4238 51.7784C21.8091 51.5344 22.0018 51.1877 22.0018 50.7382C22.0018 50.34 21.8412 50.0254 21.5202 49.7942C21.1991 49.5502 20.6725 49.4282 19.9405 49.4282H18.3416V47.0202L21.9632 43.1095L22.3293 44.4195H15.4327V41.4721H25.1804V43.8608L21.5587 47.7715L19.6901 46.7119H20.7303C22.4127 46.7119 23.6842 47.0908 24.5447 47.8485C25.418 48.5934 25.8546 49.5566 25.8546 50.7382C25.8546 51.5087 25.6427 52.2344 25.2189 52.915C24.8079 53.5957 24.1722 54.1544 23.3117 54.591C22.4513 55.0148 21.3404 55.2267 19.979 55.2267ZM33.3203 55.2267C32.0617 55.2267 30.9636 54.9763 30.0261 54.4754C29.1014 53.9746 28.3758 53.2297 27.8492 52.2408C27.3355 51.2519 27.0786 50.0318 27.0786 48.5806C27.0786 47.0138 27.3805 45.6845 27.9841 44.5929C28.6005 43.4884 29.4417 42.6472 30.5077 42.0693C31.5865 41.4913 32.8322 41.2024 34.2449 41.2024C35.0027 41.2024 35.7283 41.2923 36.4218 41.4721C37.1281 41.639 37.7253 41.8766 38.2134 42.1849L36.8263 44.9204C36.4411 44.6507 36.0365 44.4709 35.6127 44.381C35.2017 44.2782 34.7779 44.2269 34.3413 44.2269C33.301 44.2269 32.4662 44.5415 31.8369 45.1708C31.2205 45.8001 30.9122 46.7184 30.9122 47.9256C30.9122 48.1439 30.9122 48.3751 30.9122 48.6191C30.9251 48.8503 30.9508 49.0879 30.9893 49.3319L30.0261 48.542C30.2829 48.0669 30.5912 47.6687 30.9508 47.3477C31.3232 47.0266 31.7599 46.7826 32.2607 46.6156C32.7744 46.4487 33.3459 46.3652 33.9752 46.3652C34.8229 46.3652 35.5934 46.545 36.2869 46.9046C36.9933 47.2513 37.5584 47.7458 37.9822 48.3879C38.406 49.0172 38.6179 49.7621 38.6179 50.6226C38.6179 51.5601 38.3803 52.3756 37.9051 53.0691C37.43 53.7498 36.7942 54.2828 35.998 54.6681C35.2017 55.0405 34.3091 55.2267 33.3203 55.2267ZM33.0891 52.5105C33.4487 52.5105 33.7633 52.4398 34.033 52.2986C34.3156 52.1573 34.5339 51.9582 34.688 51.7014C34.8421 51.4445 34.9192 51.1427 34.9192 50.796C34.9192 50.2822 34.7458 49.8713 34.399 49.5631C34.0651 49.2548 33.6221 49.1007 33.0698 49.1007C32.6974 49.1007 32.3699 49.1713 32.0873 49.3126C31.8176 49.4539 31.5993 49.653 31.4324 49.9098C31.2782 50.1667 31.2012 50.4685 31.2012 50.8152C31.2012 51.1491 31.2782 51.4445 31.4324 51.7014C31.5865 51.9454 31.8048 52.1445 32.0873 52.2986C32.3699 52.4398 32.7038 52.5105 33.0891 52.5105ZM44.3088 55.2267C43.3842 55.2267 42.453 55.1111 41.5155 54.88C40.578 54.6488 39.7689 54.3213 39.0882 53.8975L40.456 51.0271C41.0082 51.3867 41.6054 51.6629 42.2476 51.8555C42.9025 52.0481 43.5511 52.1445 44.1932 52.1445C44.8354 52.1445 45.3555 52.0224 45.7536 51.7784C46.1518 51.5216 46.3508 51.1684 46.3508 50.7189C46.3508 50.4492 46.2738 50.2116 46.1197 50.0061C45.9656 49.7878 45.7023 49.6273 45.3298 49.5245C44.9574 49.4089 44.4244 49.3511 43.7309 49.3511H40.0707L40.745 41.4721H49.3368V44.4195H42.0934L44.0391 42.7435L43.5961 48.0604L41.6504 46.3845H44.6363C45.972 46.3845 47.0444 46.5771 47.8534 46.9624C48.6625 47.3348 49.2533 47.8421 49.6258 48.4843C49.9982 49.1136 50.1844 49.8263 50.1844 50.6226C50.1844 51.4188 49.9725 52.1701 49.5487 52.8765C49.1377 53.57 48.502 54.1351 47.6415 54.5717C46.7811 55.0084 45.6702 55.2267 44.3088 55.2267ZM24.9189 63.3128V59.8891H23.4131L23.3906 60.4584C23.3806 60.7631 23.3606 61.0478 23.3306 61.3125C23.3057 61.5772 23.2682 61.8194 23.2183 62.0392C23.1733 62.2589 23.1109 62.4487 23.031 62.6085C22.9561 62.7634 22.8637 62.8832 22.7538 62.9681L21.1731 62.7808C21.3479 62.7858 21.4902 62.7284 21.6001 62.6085C21.7149 62.4837 21.8048 62.3114 21.8698 62.0916C21.9397 61.8719 21.9896 61.6121 22.0196 61.3125C22.0546 61.0128 22.0795 60.6857 22.0945 60.3311L22.1545 58.7129H26.3797V63.3128H24.9189ZM21.0157 65.0134V62.7808H27.0914V65.0134H25.7355V63.957H22.3792V65.0134H21.0157ZM31.3068 58.7129H32.7902V63.957H31.3068V58.7129ZM29.2841 63.957H27.8008V58.7129H29.2841V63.957ZM31.4117 61.9118H29.1792V60.6832H31.4117V61.9118ZM35.2805 60.7431H37.7152V61.8519H35.2805V60.7431ZM35.3853 62.8108H38.1273V63.957H33.917V58.7129H38.0299V59.8591H35.3853V62.8108ZM38.9724 63.957V58.7129H40.4332V61.7919L42.5983 58.7129H43.9918V63.957H42.5309V60.8855L40.3733 63.957H38.9724ZM41.4746 58.3982C40.9302 58.3982 40.5381 58.2934 40.2984 58.0836C40.0587 57.8688 39.9388 57.5667 39.9388 57.1771H40.9352C40.9402 57.3519 40.9851 57.4818 41.07 57.5667C41.1549 57.6516 41.2898 57.694 41.4746 57.694C41.6644 57.694 41.8017 57.6516 41.8866 57.5667C41.9765 57.4818 42.024 57.3519 42.029 57.1771H43.0253C43.0253 57.5667 42.903 57.8688 42.6583 58.0836C42.4135 58.2934 42.019 58.3982 41.4746 58.3982Z" fill="#F6F6F6"/>
</svg>
