<svg width="120" height="150" viewBox="0 0 120 150" fill="none" xmlns="http://www.w3.org/2000/svg">
<path d="M0 122.009V0H120V122.009C120 126.774 116.932 130.997 112.4 132.47L65.5636 147.692C61.9476 148.867 58.0524 148.867 54.4365 147.692L7.60005 132.47C3.06819 130.997 0 126.774 0 122.009Z" fill="#D21341"/>
<path d="M39.0844 27.112C38.3378 27.112 37.6424 26.986 36.9984 26.734C36.3638 26.482 35.8131 26.132 35.3464 25.684C34.8798 25.2267 34.5158 24.6947 34.2544 24.088C33.9931 23.4813 33.8624 22.8187 33.8624 22.1C33.8624 21.3813 33.9931 20.7187 34.2544 20.112C34.5158 19.5053 34.8798 18.978 35.3464 18.53C35.8131 18.0727 36.3638 17.718 36.9984 17.466C37.6331 17.214 38.3284 17.088 39.0844 17.088C39.8311 17.088 40.5171 17.214 41.1424 17.466C41.7771 17.7087 42.3278 18.0587 42.7944 18.516C43.2704 18.964 43.6344 19.4913 43.8864 20.098C44.1478 20.7047 44.2784 21.372 44.2784 22.1C44.2784 22.828 44.1478 23.4953 43.8864 24.102C43.6344 24.7087 43.2704 25.2407 42.7944 25.698C42.3278 26.146 41.7771 26.496 41.1424 26.748C40.5171 26.9907 39.8311 27.112 39.0844 27.112ZM39.0844 25.866C39.6258 25.866 40.1251 25.7727 40.5824 25.586C41.0491 25.3993 41.4504 25.138 41.7864 24.802C42.1318 24.4567 42.3978 24.0553 42.5844 23.598C42.7804 23.1407 42.8784 22.6413 42.8784 22.1C42.8784 21.5587 42.7804 21.0593 42.5844 20.602C42.3978 20.1447 42.1318 19.748 41.7864 19.412C41.4504 19.0667 41.0491 18.8007 40.5824 18.614C40.1251 18.4273 39.6258 18.334 39.0844 18.334C38.5338 18.334 38.0251 18.4273 37.5584 18.614C37.1011 18.8007 36.6998 19.0667 36.3544 19.412C36.0091 19.748 35.7384 20.1447 35.5424 20.602C35.3558 21.0593 35.2624 21.5587 35.2624 22.1C35.2624 22.6413 35.3558 23.1407 35.5424 23.598C35.7384 24.0553 36.0091 24.4567 36.3544 24.802C36.6998 25.138 37.1011 25.3993 37.5584 25.586C38.0251 25.7727 38.5338 25.866 39.0844 25.866ZM46.3176 27V19.58H53.1916V27H51.8476V20.42L52.1696 20.756H47.3396L47.6616 20.42V27H46.3176ZM54.5602 26.986L54.6442 25.852C54.7096 25.8613 54.7702 25.8707 54.8262 25.88C54.8822 25.8893 54.9336 25.894 54.9802 25.894C55.2789 25.894 55.5122 25.7913 55.6802 25.586C55.8576 25.3807 55.9882 25.11 56.0722 24.774C56.1562 24.4287 56.2169 24.0413 56.2542 23.612C56.2916 23.1827 56.3196 22.7533 56.3382 22.324L56.4642 19.58H62.1622V27H60.8182V20.364L61.1402 20.756H57.3322L57.6402 20.35L57.5422 22.408C57.5142 23.0613 57.4629 23.6727 57.3882 24.242C57.3136 24.8113 57.1969 25.3107 57.0382 25.74C56.8889 26.1693 56.6789 26.5053 56.4082 26.748C56.1469 26.9907 55.8062 27.112 55.3862 27.112C55.2649 27.112 55.1342 27.098 54.9942 27.07C54.8636 27.0513 54.7189 27.0233 54.5602 26.986ZM69.311 27V25.432L69.241 25.138V22.464C69.241 21.8947 69.073 21.456 68.737 21.148C68.4103 20.8307 67.9157 20.672 67.253 20.672C66.8143 20.672 66.385 20.7467 65.965 20.896C65.545 21.036 65.1903 21.2273 64.901 21.47L64.341 20.462C64.7237 20.154 65.181 19.9207 65.713 19.762C66.2543 19.594 66.819 19.51 67.407 19.51C68.4243 19.51 69.2083 19.7573 69.759 20.252C70.3097 20.7467 70.585 21.5027 70.585 22.52V27H69.311ZM66.875 27.084C66.3243 27.084 65.839 26.9907 65.419 26.804C65.0083 26.6173 64.691 26.3607 64.467 26.034C64.243 25.698 64.131 25.32 64.131 24.9C64.131 24.4987 64.2243 24.1347 64.411 23.808C64.607 23.4813 64.9197 23.22 65.349 23.024C65.7877 22.828 66.3757 22.73 67.113 22.73H69.465V23.696H67.169C66.497 23.696 66.0443 23.808 65.811 24.032C65.5777 24.256 65.461 24.5267 65.461 24.844C65.461 25.208 65.6057 25.502 65.895 25.726C66.1843 25.9407 66.5857 26.048 67.099 26.048C67.603 26.048 68.0417 25.936 68.415 25.712C68.7977 25.488 69.073 25.1613 69.241 24.732L69.507 25.656C69.3297 26.0947 69.017 26.4447 68.569 26.706C68.121 26.958 67.5563 27.084 66.875 27.084ZM74.4751 27V20.406L74.8111 20.756H71.7591V19.58H78.5351V20.756H75.4971L75.8191 20.406V27H74.4751ZM84.4594 27V25.432L84.3894 25.138V22.464C84.3894 21.8947 84.2214 21.456 83.8854 21.148C83.5588 20.8307 83.0641 20.672 82.4014 20.672C81.9628 20.672 81.5334 20.7467 81.1134 20.896C80.6934 21.036 80.3388 21.2273 80.0494 21.47L79.4894 20.462C79.8721 20.154 80.3294 19.9207 80.8614 19.762C81.4028 19.594 81.9674 19.51 82.5554 19.51C83.5728 19.51 84.3568 19.7573 84.9074 20.252C85.4581 20.7467 85.7334 21.5027 85.7334 22.52V27H84.4594ZM82.0234 27.084C81.4728 27.084 80.9874 26.9907 80.5674 26.804C80.1568 26.6173 79.8394 26.3607 79.6154 26.034C79.3914 25.698 79.2794 25.32 79.2794 24.9C79.2794 24.4987 79.3728 24.1347 79.5594 23.808C79.7554 23.4813 80.0681 23.22 80.4974 23.024C80.9361 22.828 81.5241 22.73 82.2614 22.73H84.6134V23.696H82.3174C81.6454 23.696 81.1928 23.808 80.9594 24.032C80.7261 24.256 80.6094 24.5267 80.6094 24.844C80.6094 25.208 80.7541 25.502 81.0434 25.726C81.3328 25.9407 81.7341 26.048 82.2474 26.048C82.7514 26.048 83.1901 25.936 83.5634 25.712C83.9461 25.488 84.2214 25.1613 84.3894 24.732L84.6554 25.656C84.4781 26.0947 84.1654 26.4447 83.7174 26.706C83.2694 26.958 82.7048 27.084 82.0234 27.084ZM15.8293 44V36.58H22.7033V44H21.3593V37.42L21.6813 37.756H16.8513L17.1733 37.42V44H15.8293ZM28.482 44.084C27.7353 44.084 27.0726 43.9207 26.494 43.594C25.9153 43.2673 25.458 42.8193 25.122 42.25C24.786 41.6713 24.618 41.018 24.618 40.29C24.618 39.5527 24.786 38.8993 25.122 38.33C25.458 37.7607 25.9153 37.3173 26.494 37C27.0726 36.6733 27.7353 36.51 28.482 36.51C29.2193 36.51 29.8773 36.6733 30.456 37C31.044 37.3173 31.5013 37.7607 31.828 38.33C32.164 38.89 32.332 39.5433 32.332 40.29C32.332 41.0273 32.164 41.6807 31.828 42.25C31.5013 42.8193 31.044 43.2673 30.456 43.594C29.8773 43.9207 29.2193 44.084 28.482 44.084ZM28.482 42.908C28.958 42.908 29.3826 42.8007 29.756 42.586C30.1386 42.3713 30.4373 42.068 30.652 41.676C30.8666 41.2747 30.974 40.8127 30.974 40.29C30.974 39.758 30.8666 39.3007 30.652 38.918C30.4373 38.526 30.1386 38.2227 29.756 38.008C29.3826 37.7933 28.958 37.686 28.482 37.686C28.006 37.686 27.5813 37.7933 27.208 38.008C26.8346 38.2227 26.536 38.526 26.312 38.918C26.088 39.3007 25.976 39.758 25.976 40.29C25.976 40.8127 26.088 41.2747 26.312 41.676C26.536 42.068 26.8346 42.3713 27.208 42.586C27.5813 42.8007 28.006 42.908 28.482 42.908ZM43.1005 43.37V37.756H39.8805L39.8105 39.184C39.7918 39.6507 39.7591 40.1033 39.7125 40.542C39.6751 40.9713 39.6098 41.368 39.5165 41.732C39.4325 42.096 39.3065 42.3947 39.1385 42.628C38.9705 42.8613 38.7465 43.006 38.4665 43.062L37.1365 42.824C37.4258 42.8333 37.6591 42.74 37.8365 42.544C38.0138 42.3387 38.1491 42.0587 38.2425 41.704C38.3451 41.3493 38.4198 40.948 38.4665 40.5C38.5131 40.0427 38.5505 39.5713 38.5785 39.086L38.6905 36.58H44.4445V43.37H43.1005ZM36.8425 45.722V42.824H45.5785V45.722H44.3185V44H38.1165V45.722H36.8425ZM50.5073 44.084C49.7607 44.084 49.098 43.9207 48.5193 43.594C47.9407 43.2673 47.4833 42.8193 47.1473 42.25C46.8113 41.6713 46.6433 41.018 46.6433 40.29C46.6433 39.5527 46.8113 38.8993 47.1473 38.33C47.4833 37.7607 47.9407 37.3173 48.5193 37C49.098 36.6733 49.7607 36.51 50.5073 36.51C51.2447 36.51 51.9027 36.6733 52.4813 37C53.0693 37.3173 53.5267 37.7607 53.8533 38.33C54.1893 38.89 54.3573 39.5433 54.3573 40.29C54.3573 41.0273 54.1893 41.6807 53.8533 42.25C53.5267 42.8193 53.0693 43.2673 52.4813 43.594C51.9027 43.9207 51.2447 44.084 50.5073 44.084ZM50.5073 42.908C50.9833 42.908 51.408 42.8007 51.7813 42.586C52.164 42.3713 52.4627 42.068 52.6773 41.676C52.892 41.2747 52.9993 40.8127 52.9993 40.29C52.9993 39.758 52.892 39.3007 52.6773 38.918C52.4627 38.526 52.164 38.2227 51.7813 38.008C51.408 37.7933 50.9833 37.686 50.5073 37.686C50.0313 37.686 49.6067 37.7933 49.2333 38.008C48.86 38.2227 48.5613 38.526 48.3373 38.918C48.1133 39.3007 48.0013 39.758 48.0013 40.29C48.0013 40.8127 48.1133 41.2747 48.3373 41.676C48.5613 42.068 48.86 42.3713 49.2333 42.586C49.6067 42.8007 50.0313 42.908 50.5073 42.908ZM56.2981 44V36.58H61.7581V37.756H57.3201L57.6421 37.448V44H56.2981ZM65.9839 44.084C65.2372 44.084 64.5746 43.9207 63.9959 43.594C63.4172 43.2673 62.9599 42.8193 62.6239 42.25C62.2879 41.6713 62.1199 41.018 62.1199 40.29C62.1199 39.5527 62.2879 38.8993 62.6239 38.33C62.9599 37.7607 63.4172 37.3173 63.9959 37C64.5746 36.6733 65.2372 36.51 65.9839 36.51C66.7212 36.51 67.3792 36.6733 67.9579 37C68.5459 37.3173 69.0032 37.7607 69.3299 38.33C69.6659 38.89 69.8339 39.5433 69.8339 40.29C69.8339 41.0273 69.6659 41.6807 69.3299 42.25C69.0032 42.8193 68.5459 43.2673 67.9579 43.594C67.3792 43.9207 66.7212 44.084 65.9839 44.084ZM65.9839 42.908C66.4599 42.908 66.8846 42.8007 67.2579 42.586C67.6406 42.3713 67.9392 42.068 68.1539 41.676C68.3686 41.2747 68.4759 40.8127 68.4759 40.29C68.4759 39.758 68.3686 39.3007 68.1539 38.918C67.9392 38.526 67.6406 38.2227 67.2579 38.008C66.8846 37.7933 66.4599 37.686 65.9839 37.686C65.5079 37.686 65.0832 37.7933 64.7099 38.008C64.3366 38.2227 64.0379 38.526 63.8139 38.918C63.5899 39.3007 63.4779 39.758 63.4779 40.29C63.4779 40.8127 63.5899 41.2747 63.8139 41.676C64.0379 42.068 64.3366 42.3713 64.7099 42.586C65.0832 42.8007 65.5079 42.908 65.9839 42.908ZM71.7747 44V36.58H75.2187C76.0867 36.58 76.768 36.748 77.2627 37.084C77.7667 37.4107 78.0187 37.8773 78.0187 38.484C78.0187 39.0907 77.7807 39.562 77.3047 39.898C76.838 40.2247 76.2173 40.388 75.4427 40.388L75.6527 40.024C76.5393 40.024 77.1973 40.1873 77.6267 40.514C78.056 40.8407 78.2707 41.3213 78.2707 41.956C78.2707 42.6 78.028 43.104 77.5427 43.468C77.0667 43.8227 76.334 44 75.3447 44H71.7747ZM73.0907 42.964H75.2467C75.8067 42.964 76.2267 42.88 76.5067 42.712C76.7867 42.5347 76.9267 42.2547 76.9267 41.872C76.9267 41.48 76.796 41.1953 76.5347 41.018C76.2827 40.8313 75.8813 40.738 75.3307 40.738H73.0907V42.964ZM73.0907 39.772H75.1067C75.62 39.772 76.0073 39.6787 76.2687 39.492C76.5393 39.296 76.6747 39.0253 76.6747 38.68C76.6747 38.3253 76.5393 38.0593 76.2687 37.882C76.0073 37.7047 75.62 37.616 75.1067 37.616H73.0907V39.772ZM83.5523 44.084C82.8056 44.084 82.1429 43.9207 81.5643 43.594C80.9856 43.2673 80.5283 42.8193 80.1923 42.25C79.8563 41.6713 79.6883 41.018 79.6883 40.29C79.6883 39.5527 79.8563 38.8993 80.1923 38.33C80.5283 37.7607 80.9856 37.3173 81.5643 37C82.1429 36.6733 82.8056 36.51 83.5523 36.51C84.2896 36.51 84.9476 36.6733 85.5263 37C86.1143 37.3173 86.5716 37.7607 86.8983 38.33C87.2343 38.89 87.4023 39.5433 87.4023 40.29C87.4023 41.0273 87.2343 41.6807 86.8983 42.25C86.5716 42.8193 86.1143 43.2673 85.5263 43.594C84.9476 43.9207 84.2896 44.084 83.5523 44.084ZM83.5523 42.908C84.0283 42.908 84.4529 42.8007 84.8263 42.586C85.2089 42.3713 85.5076 42.068 85.7223 41.676C85.9369 41.2747 86.0443 40.8127 86.0443 40.29C86.0443 39.758 85.9369 39.3007 85.7223 38.918C85.5076 38.526 85.2089 38.2227 84.8263 38.008C84.4529 37.7933 84.0283 37.686 83.5523 37.686C83.0763 37.686 82.6516 37.7933 82.2783 38.008C81.9049 38.2227 81.6063 38.526 81.3823 38.918C81.1583 39.3007 81.0463 39.758 81.0463 40.29C81.0463 40.8127 81.1583 41.2747 81.3823 41.676C81.6063 42.068 81.9049 42.3713 82.2783 42.586C82.6516 42.8007 83.0763 42.908 83.5523 42.908ZM93.277 44.084C92.661 44.084 92.0963 43.944 91.583 43.664C91.079 43.3747 90.673 42.95 90.365 42.39C90.0663 41.83 89.917 41.13 89.917 40.29C89.917 39.45 90.0617 38.75 90.351 38.19C90.6497 37.63 91.051 37.21 91.555 36.93C92.0683 36.65 92.6423 36.51 93.277 36.51C94.005 36.51 94.649 36.6687 95.209 36.986C95.769 37.3033 96.2123 37.7467 96.539 38.316C96.8657 38.876 97.029 39.534 97.029 40.29C97.029 41.046 96.8657 41.7087 96.539 42.278C96.2123 42.8473 95.769 43.2907 95.209 43.608C94.649 43.9253 94.005 44.084 93.277 44.084ZM89.343 46.716V36.58H90.631V38.582L90.547 40.304L90.687 42.026V46.716H89.343ZM93.165 42.908C93.641 42.908 94.0657 42.8007 94.439 42.586C94.8217 42.3713 95.1203 42.068 95.335 41.676C95.559 41.2747 95.671 40.8127 95.671 40.29C95.671 39.758 95.559 39.3007 95.335 38.918C95.1203 38.526 94.8217 38.2227 94.439 38.008C94.0657 37.7933 93.641 37.686 93.165 37.686C92.6983 37.686 92.2737 37.7933 91.891 38.008C91.5177 38.2227 91.219 38.526 90.995 38.918C90.7803 39.3007 90.673 39.758 90.673 40.29C90.673 40.8127 90.7803 41.2747 90.995 41.676C91.219 42.068 91.5177 42.3713 91.891 42.586C92.2737 42.8007 92.6983 42.908 93.165 42.908ZM99.1546 46.8C98.7999 46.8 98.4546 46.7393 98.1186 46.618C97.7826 46.506 97.4933 46.338 97.2506 46.114L97.8246 45.106C98.0113 45.2833 98.2166 45.4187 98.4406 45.512C98.6646 45.6053 98.9026 45.652 99.1546 45.652C99.4813 45.652 99.7519 45.568 99.9666 45.4C100.181 45.232 100.382 44.9333 100.569 44.504L101.031 43.482L101.171 43.314L104.083 36.58H105.399L101.801 44.742C101.586 45.2647 101.343 45.6753 101.073 45.974C100.811 46.2727 100.522 46.4827 100.205 46.604C99.8873 46.7347 99.5373 46.8 99.1546 46.8ZM100.919 44.238L97.5306 36.58H98.9306L101.815 43.188L100.919 44.238ZM9.11022 61.084C8.35422 61.084 7.67755 60.9207 7.08022 60.594C6.49222 60.2673 6.03022 59.8193 5.69422 59.25C5.35822 58.6807 5.19022 58.0273 5.19022 57.29C5.19022 56.5527 5.35822 55.8993 5.69422 55.33C6.03022 54.7607 6.49222 54.3173 7.08022 54C7.67755 53.6733 8.35422 53.51 9.11022 53.51C9.78222 53.51 10.3796 53.6453 10.9022 53.916C11.4342 54.1773 11.8449 54.5693 12.1342 55.092L11.1122 55.75C10.8696 55.386 10.5709 55.12 10.2162 54.952C9.87089 54.7747 9.49755 54.686 9.09622 54.686C8.61089 54.686 8.17689 54.7933 7.79422 55.008C7.41155 55.2227 7.10822 55.526 6.88422 55.918C6.66022 56.3007 6.54822 56.758 6.54822 57.29C6.54822 57.822 6.66022 58.284 6.88422 58.676C7.10822 59.068 7.41155 59.3713 7.79422 59.586C8.17689 59.8007 8.61089 59.908 9.09622 59.908C9.49755 59.908 9.87089 59.824 10.2162 59.656C10.5709 59.4787 10.8696 59.208 11.1122 58.844L12.1342 59.488C11.8449 60.0013 11.4342 60.398 10.9022 60.678C10.3796 60.9487 9.78222 61.084 9.11022 61.084ZM17.634 61V53.58H23.094V54.756H18.656L18.978 54.448V61H17.634ZM29.02 61V59.432L28.95 59.138V56.464C28.95 55.8947 28.782 55.456 28.446 55.148C28.1193 54.8307 27.6246 54.672 26.962 54.672C26.5233 54.672 26.094 54.7467 25.674 54.896C25.254 55.036 24.8993 55.2273 24.61 55.47L24.05 54.462C24.4326 54.154 24.89 53.9207 25.422 53.762C25.9633 53.594 26.528 53.51 27.116 53.51C28.1333 53.51 28.9173 53.7573 29.468 54.252C30.0186 54.7467 30.294 55.5027 30.294 56.52V61H29.02ZM26.584 61.084C26.0333 61.084 25.548 60.9907 25.128 60.804C24.7173 60.6173 24.4 60.3607 24.176 60.034C23.952 59.698 23.84 59.32 23.84 58.9C23.84 58.4987 23.9333 58.1347 24.12 57.808C24.316 57.4813 24.6286 57.22 25.058 57.024C25.4966 56.828 26.0846 56.73 26.822 56.73H29.174V57.696H26.878C26.206 57.696 25.7533 57.808 25.52 58.032C25.2866 58.256 25.17 58.5267 25.17 58.844C25.17 59.208 25.3146 59.502 25.604 59.726C25.8933 59.9407 26.2946 60.048 26.808 60.048C27.312 60.048 27.7506 59.936 28.124 59.712C28.5066 59.488 28.782 59.1613 28.95 58.732L29.216 59.656C29.0386 60.0947 28.726 60.4447 28.278 60.706C27.83 60.958 27.2653 61.084 26.584 61.084ZM36.6481 61.084C36.0321 61.084 35.4674 60.944 34.9541 60.664C34.4501 60.3747 34.0441 59.95 33.7361 59.39C33.4374 58.83 33.2881 58.13 33.2881 57.29C33.2881 56.45 33.4328 55.75 33.7221 55.19C34.0208 54.63 34.4221 54.21 34.9261 53.93C35.4394 53.65 36.0134 53.51 36.6481 53.51C37.3761 53.51 38.0201 53.6687 38.5801 53.986C39.1401 54.3033 39.5834 54.7467 39.9101 55.316C40.2368 55.876 40.4001 56.534 40.4001 57.29C40.4001 58.046 40.2368 58.7087 39.9101 59.278C39.5834 59.8473 39.1401 60.2907 38.5801 60.608C38.0201 60.9253 37.3761 61.084 36.6481 61.084ZM32.7141 63.716V53.58H34.0021V55.582L33.9181 57.304L34.0581 59.026V63.716H32.7141ZM36.5361 59.908C37.0121 59.908 37.4368 59.8007 37.8101 59.586C38.1928 59.3713 38.4914 59.068 38.7061 58.676C38.9301 58.2747 39.0421 57.8127 39.0421 57.29C39.0421 56.758 38.9301 56.3007 38.7061 55.918C38.4914 55.526 38.1928 55.2227 37.8101 55.008C37.4368 54.7933 37.0121 54.686 36.5361 54.686C36.0694 54.686 35.6448 54.7933 35.2621 55.008C34.8888 55.2227 34.5901 55.526 34.3661 55.918C34.1514 56.3007 34.0441 56.758 34.0441 57.29C34.0441 57.8127 34.1514 58.2747 34.3661 58.676C34.5901 59.068 34.8888 59.3713 35.2621 59.586C35.6448 59.8007 36.0694 59.908 36.5361 59.908ZM46.8344 61V59.432L46.7644 59.138V56.464C46.7644 55.8947 46.5964 55.456 46.2604 55.148C45.9338 54.8307 45.4391 54.672 44.7764 54.672C44.3378 54.672 43.9084 54.7467 43.4884 54.896C43.0684 55.036 42.7138 55.2273 42.4244 55.47L41.8644 54.462C42.2471 54.154 42.7044 53.9207 43.2364 53.762C43.7778 53.594 44.3424 53.51 44.9304 53.51C45.9478 53.51 46.7318 53.7573 47.2824 54.252C47.8331 54.7467 48.1084 55.5027 48.1084 56.52V61H46.8344ZM44.3984 61.084C43.8478 61.084 43.3624 60.9907 42.9424 60.804C42.5318 60.6173 42.2144 60.3607 41.9904 60.034C41.7664 59.698 41.6544 59.32 41.6544 58.9C41.6544 58.4987 41.7478 58.1347 41.9344 57.808C42.1304 57.4813 42.4431 57.22 42.8724 57.024C43.3111 56.828 43.8991 56.73 44.6364 56.73H46.9884V57.696H44.6924C44.0204 57.696 43.5678 57.808 43.3344 58.032C43.1011 58.256 42.9844 58.5267 42.9844 58.844C42.9844 59.208 43.1291 59.502 43.4184 59.726C43.7078 59.9407 44.1091 60.048 44.6224 60.048C45.1264 60.048 45.5651 59.936 45.9384 59.712C46.3211 59.488 46.5964 59.1613 46.7644 58.732L47.0304 59.656C46.8531 60.0947 46.5404 60.4447 46.0924 60.706C45.6444 60.958 45.0798 61.084 44.3984 61.084ZM50.5286 61V53.58H51.8726V56.73H56.1006V53.58H57.4446V61H56.1006V57.892H51.8726V61H50.5286ZM61.5279 61V54.406L61.8639 54.756H58.8119V53.58H65.5879V54.756H62.5499L62.8719 54.406V61H61.5279ZM66.9622 61V53.58H68.3062V58.984L72.8562 53.58H74.0742V61H72.7302V55.596L68.1942 61H66.9622ZM79.9869 61.084C79.1935 61.084 78.4935 60.9207 77.8869 60.594C77.2895 60.2673 76.8229 59.8193 76.4869 59.25C76.1602 58.6807 75.9969 58.0273 75.9969 57.29C75.9969 56.5527 76.1555 55.8993 76.4729 55.33C76.7995 54.7607 77.2429 54.3173 77.8029 54C78.3722 53.6733 79.0115 53.51 79.7209 53.51C80.4395 53.51 81.0742 53.6687 81.6249 53.986C82.1755 54.3033 82.6049 54.7513 82.9129 55.33C83.2302 55.8993 83.3889 56.5667 83.3889 57.332C83.3889 57.388 83.3842 57.4533 83.3749 57.528C83.3749 57.6027 83.3702 57.6727 83.3609 57.738H77.0469V56.772H82.6609L82.1149 57.108C82.1242 56.632 82.0262 56.2073 81.8209 55.834C81.6155 55.4607 81.3309 55.1713 80.9669 54.966C80.6122 54.7513 80.1969 54.644 79.7209 54.644C79.2542 54.644 78.8389 54.7513 78.4749 54.966C78.1109 55.1713 77.8262 55.4653 77.6209 55.848C77.4155 56.2213 77.3129 56.6507 77.3129 57.136V57.36C77.3129 57.8547 77.4249 58.298 77.6489 58.69C77.8822 59.0727 78.2042 59.3713 78.6149 59.586C79.0255 59.8007 79.4969 59.908 80.0289 59.908C80.4675 59.908 80.8642 59.8333 81.2189 59.684C81.5829 59.5347 81.9002 59.3107 82.1709 59.012L82.9129 59.88C82.5769 60.272 82.1569 60.5707 81.6529 60.776C81.1582 60.9813 80.6029 61.084 79.9869 61.084ZM85.4739 61V53.58H86.8179V58.984L91.3679 53.58H92.5859V61H91.2419V55.596L86.7059 61H85.4739ZM88.9459 52.614C88.2645 52.614 87.7279 52.4507 87.3359 52.124C86.9532 51.788 86.7572 51.3073 86.7479 50.682H87.6579C87.6672 51.0367 87.7839 51.3167 88.0079 51.522C88.2412 51.7273 88.5492 51.83 88.9319 51.83C89.3145 51.83 89.6225 51.7273 89.8559 51.522C90.0892 51.3167 90.2105 51.0367 90.2199 50.682H91.1579C91.1485 51.3073 90.9479 51.788 90.5559 52.124C90.1639 52.4507 89.6272 52.614 88.9459 52.614ZM98.9543 61V53.58H100.298V56.73H104.526V53.58H105.87V61H104.526V57.892H100.298V61H98.9543ZM113.034 61V59.432L112.964 59.138V56.464C112.964 55.8947 112.796 55.456 112.46 55.148C112.133 54.8307 111.638 54.672 110.976 54.672C110.537 54.672 110.108 54.7467 109.688 54.896C109.268 55.036 108.913 55.2273 108.624 55.47L108.064 54.462C108.446 54.154 108.904 53.9207 109.436 53.762C109.977 53.594 110.542 53.51 111.13 53.51C112.147 53.51 112.931 53.7573 113.482 54.252C114.032 54.7467 114.308 55.5027 114.308 56.52V61H113.034ZM110.598 61.084C110.047 61.084 109.562 60.9907 109.142 60.804C108.731 60.6173 108.414 60.3607 108.19 60.034C107.966 59.698 107.854 59.32 107.854 58.9C107.854 58.4987 107.947 58.1347 108.134 57.808C108.33 57.4813 108.642 57.22 109.072 57.024C109.51 56.828 110.098 56.73 110.836 56.73H113.188V57.696H110.892C110.22 57.696 109.767 57.808 109.534 58.032C109.3 58.256 109.184 58.5267 109.184 58.844C109.184 59.208 109.328 59.502 109.618 59.726C109.907 59.9407 110.308 60.048 110.822 60.048C111.326 60.048 111.764 59.936 112.138 59.712C112.52 59.488 112.796 59.1613 112.964 58.732L113.23 59.656C113.052 60.0947 112.74 60.4447 112.292 60.706C111.844 60.958 111.279 61.084 110.598 61.084ZM36.1793 105.504C34.4273 105.504 32.6753 105.288 30.9233 104.856C29.1953 104.424 27.6833 103.812 26.3872 103.02L28.9793 97.656C29.9873 98.328 31.1033 98.844 32.3273 99.204C33.5753 99.564 34.7873 99.744 35.9633 99.744C37.1873 99.744 38.1593 99.516 38.8793 99.06C39.5993 98.604 39.9593 97.956 39.9593 97.116C39.9593 96.372 39.6593 95.784 39.0593 95.352C38.4593 94.896 37.4753 94.668 36.1073 94.668H33.1193V90.168L39.8873 82.86L40.5713 85.308H27.6833V79.8H45.8993V84.264L39.1313 91.572L35.6393 89.592H37.5833C40.7273 89.592 43.1033 90.3 44.7112 91.716C46.3433 93.108 47.1593 94.908 47.1593 97.116C47.1593 98.556 46.7633 99.912 45.9713 101.184C45.2033 102.456 44.0153 103.5 42.4073 104.316C40.7993 105.108 38.7233 105.504 36.1793 105.504ZM61.1107 105.504C58.7587 105.504 56.7067 105.036 54.9547 104.1C53.2267 103.164 51.8707 101.772 50.8867 99.924C49.9267 98.076 49.4467 95.796 49.4467 93.084C49.4467 90.156 50.0107 87.672 51.1387 85.632C52.2907 83.568 53.8627 81.996 55.8547 80.916C57.8707 79.836 60.1987 79.296 62.8387 79.296C64.2547 79.296 65.6107 79.464 66.9067 79.8C68.2267 80.112 69.3427 80.556 70.2547 81.132L67.6627 86.244C66.9427 85.74 66.1867 85.404 65.3947 85.236C64.6267 85.044 63.8347 84.948 63.0187 84.948C61.0747 84.948 59.5147 85.536 58.3387 86.712C57.1867 87.888 56.6107 89.604 56.6107 91.86C56.6107 92.268 56.6107 92.7 56.6107 93.156C56.6347 93.588 56.6827 94.032 56.7547 94.488L54.9547 93.012C55.4347 92.124 56.0107 91.38 56.6827 90.78C57.3787 90.18 58.1947 89.724 59.1307 89.412C60.0907 89.1 61.1587 88.944 62.3347 88.944C63.9187 88.944 65.3587 89.28 66.6547 89.952C67.9747 90.6 69.0307 91.524 69.8227 92.724C70.6147 93.9 71.0107 95.292 71.0107 96.9C71.0107 98.652 70.5667 100.176 69.6787 101.472C68.7907 102.744 67.6027 103.74 66.1147 104.46C64.6267 105.156 62.9587 105.504 61.1107 105.504ZM60.6787 100.428C61.3507 100.428 61.9387 100.296 62.4427 100.032C62.9707 99.768 63.3787 99.396 63.6667 98.916C63.9547 98.436 64.0987 97.872 64.0987 97.224C64.0987 96.264 63.7747 95.496 63.1267 94.92C62.5027 94.344 61.6747 94.056 60.6427 94.056C59.9467 94.056 59.3347 94.188 58.8067 94.452C58.3027 94.716 57.8947 95.088 57.5827 95.568C57.2947 96.048 57.1507 96.612 57.1507 97.26C57.1507 97.884 57.2947 98.436 57.5827 98.916C57.8707 99.372 58.2787 99.744 58.8067 100.032C59.3347 100.296 59.9587 100.428 60.6787 100.428ZM81.6456 105.504C79.9176 105.504 78.1776 105.288 76.4256 104.856C74.6736 104.424 73.1616 103.812 71.8896 103.02L74.4456 97.656C75.4776 98.328 76.5936 98.844 77.7936 99.204C79.0176 99.564 80.2296 99.744 81.4296 99.744C82.6296 99.744 83.6016 99.516 84.3456 99.06C85.0896 98.58 85.4616 97.92 85.4616 97.08C85.4616 96.576 85.3176 96.132 85.0296 95.748C84.7416 95.34 84.2496 95.04 83.5536 94.848C82.8576 94.632 81.8616 94.524 80.5656 94.524H73.7256L74.9856 79.8H91.0416V85.308H77.5056L81.1416 82.176L80.3136 92.112L76.6776 88.98H82.2576C84.7536 88.98 86.7576 89.34 88.2696 90.06C89.7816 90.756 90.8856 91.704 91.5816 92.904C92.2776 94.08 92.6256 95.412 92.6256 96.9C92.6256 98.388 92.2296 99.792 91.4376 101.112C90.6696 102.408 89.4816 103.464 87.8736 104.28C86.2656 105.096 84.1896 105.504 81.6456 105.504ZM45.4106 120.796V114.398H42.5966L42.5546 115.462C42.5359 116.031 42.4986 116.563 42.4426 117.058C42.3959 117.553 42.3259 118.005 42.2326 118.416C42.1486 118.827 42.0319 119.181 41.8826 119.48C41.7426 119.769 41.5699 119.993 41.3646 120.152L38.4106 119.802C38.7372 119.811 39.0032 119.704 39.2086 119.48C39.4232 119.247 39.5912 118.925 39.7126 118.514C39.8432 118.103 39.9366 117.618 39.9926 117.058C40.0579 116.498 40.1046 115.887 40.1326 115.224L40.2446 112.2H48.1406V120.796H45.4106ZM38.1166 123.974V119.802H49.4706V123.974H46.9366V122H40.6646V123.974H38.1166ZM57.3481 112.2H60.1201V122H57.3481V112.2ZM53.5681 122H50.7961V112.2H53.5681V122ZM57.5441 118.178H53.3721V115.882H57.5441V118.178ZM64.7738 115.994H69.3238V118.066H64.7738V115.994ZM64.9698 119.858H70.0938V122H62.2258V112.2H69.9118V114.342H64.9698V119.858ZM71.673 122V112.2H74.403V117.954L78.449 112.2H81.053V122H78.323V116.26L74.291 122H71.673ZM76.349 111.612C75.3317 111.612 74.599 111.416 74.151 111.024C73.703 110.623 73.479 110.058 73.479 109.33H75.341C75.3504 109.657 75.4344 109.899 75.593 110.058C75.7517 110.217 76.0037 110.296 76.349 110.296C76.7037 110.296 76.9604 110.217 77.119 110.058C77.287 109.899 77.3757 109.657 77.385 109.33H79.247C79.247 110.058 79.0184 110.623 78.561 111.024C78.1037 111.416 77.3664 111.612 76.349 111.612Z" fill="#F6F6F6"/>
</svg>
