<svg width="120" height="150" viewBox="0 0 120 150" fill="none" xmlns="http://www.w3.org/2000/svg">
<path d="M0 122.009V0H120V122.009C120 126.774 116.932 130.997 112.4 132.47L65.5636 147.692C61.9476 148.867 58.0524 148.867 54.4365 147.692L7.60005 132.47C3.06819 130.997 0 126.774 0 122.009Z" fill="#D21341"/>
<path d="M23.3746 27V17.2H24.7606V24.76L30.5566 17.2H31.8446V27H30.4726V19.454L24.6626 27H23.3746ZM37.91 27.084C37.154 27.084 36.4774 26.9207 35.88 26.594C35.292 26.2673 34.83 25.8193 34.494 25.25C34.158 24.6807 33.99 24.0273 33.99 23.29C33.99 22.5527 34.158 21.8993 34.494 21.33C34.83 20.7607 35.292 20.3173 35.88 20C36.4774 19.6733 37.154 19.51 37.91 19.51C38.582 19.51 39.1794 19.6453 39.702 19.916C40.234 20.1773 40.6447 20.5693 40.934 21.092L39.912 21.75C39.6694 21.386 39.3707 21.12 39.016 20.952C38.6707 20.7747 38.2974 20.686 37.896 20.686C37.4107 20.686 36.9767 20.7933 36.594 21.008C36.2114 21.2227 35.908 21.526 35.684 21.918C35.46 22.3007 35.348 22.758 35.348 23.29C35.348 23.822 35.46 24.284 35.684 24.676C35.908 25.068 36.2114 25.3713 36.594 25.586C36.9767 25.8007 37.4107 25.908 37.896 25.908C38.2974 25.908 38.6707 25.824 39.016 25.656C39.3707 25.4787 39.6694 25.208 39.912 24.844L40.934 25.488C40.6447 26.0013 40.234 26.398 39.702 26.678C39.1794 26.9487 38.582 27.084 37.91 27.084ZM42.6741 27V19.58H49.5481V27H48.2041V20.42L48.5261 20.756H43.6961L44.0181 20.42V27H42.6741ZM56.0827 27.084C55.4667 27.084 54.902 26.944 54.3887 26.664C53.8847 26.3747 53.4787 25.95 53.1707 25.39C52.872 24.83 52.7227 24.13 52.7227 23.29C52.7227 22.45 52.8673 21.75 53.1567 21.19C53.4553 20.63 53.8567 20.21 54.3607 19.93C54.874 19.65 55.448 19.51 56.0827 19.51C56.8107 19.51 57.4547 19.6687 58.0147 19.986C58.5747 20.3033 59.018 20.7467 59.3447 21.316C59.6713 21.876 59.8347 22.534 59.8347 23.29C59.8347 24.046 59.6713 24.7087 59.3447 25.278C59.018 25.8473 58.5747 26.2907 58.0147 26.608C57.4547 26.9253 56.8107 27.084 56.0827 27.084ZM52.1487 29.716V19.58H53.4367V21.582L53.3527 23.304L53.4927 25.026V29.716H52.1487ZM55.9707 25.908C56.4467 25.908 56.8713 25.8007 57.2447 25.586C57.6273 25.3713 57.926 25.068 58.1407 24.676C58.3647 24.2747 58.4767 23.8127 58.4767 23.29C58.4767 22.758 58.3647 22.3007 58.1407 21.918C57.926 21.526 57.6273 21.2227 57.2447 21.008C56.8713 20.7933 56.4467 20.686 55.9707 20.686C55.504 20.686 55.0793 20.7933 54.6967 21.008C54.3233 21.2227 54.0247 21.526 53.8007 21.918C53.586 22.3007 53.4787 22.758 53.4787 23.29C53.4787 23.8127 53.586 24.2747 53.8007 24.676C54.0247 25.068 54.3233 25.3713 54.6967 25.586C55.0793 25.8007 55.504 25.908 55.9707 25.908ZM66.269 27V25.432L66.199 25.138V22.464C66.199 21.8947 66.031 21.456 65.695 21.148C65.3683 20.8307 64.8737 20.672 64.211 20.672C63.7723 20.672 63.343 20.7467 62.923 20.896C62.503 21.036 62.1483 21.2273 61.859 21.47L61.299 20.462C61.6817 20.154 62.139 19.9207 62.671 19.762C63.2123 19.594 63.777 19.51 64.365 19.51C65.3823 19.51 66.1663 19.7573 66.717 20.252C67.2677 20.7467 67.543 21.5027 67.543 22.52V27H66.269ZM63.833 27.084C63.2823 27.084 62.797 26.9907 62.377 26.804C61.9663 26.6173 61.649 26.3607 61.425 26.034C61.201 25.698 61.089 25.32 61.089 24.9C61.089 24.4987 61.1823 24.1347 61.369 23.808C61.565 23.4813 61.8777 23.22 62.307 23.024C62.7457 22.828 63.3337 22.73 64.071 22.73H66.423V23.696H64.127C63.455 23.696 63.0023 23.808 62.769 24.032C62.5357 24.256 62.419 24.5267 62.419 24.844C62.419 25.208 62.5637 25.502 62.853 25.726C63.1423 25.9407 63.5437 26.048 64.057 26.048C64.561 26.048 64.9997 25.936 65.373 25.712C65.7557 25.488 66.031 25.1613 66.199 24.732L66.465 25.656C66.2877 26.0947 65.975 26.4447 65.527 26.706C65.079 26.958 64.5143 27.084 63.833 27.084ZM69.9631 27V19.58H73.4071C74.2751 19.58 74.9565 19.748 75.4511 20.084C75.9551 20.4107 76.2071 20.8773 76.2071 21.484C76.2071 22.0907 75.9691 22.562 75.4931 22.898C75.0265 23.2247 74.4058 23.388 73.6311 23.388L73.8411 23.024C74.7278 23.024 75.3858 23.1873 75.8151 23.514C76.2445 23.8407 76.4591 24.3213 76.4591 24.956C76.4591 25.6 76.2165 26.104 75.7311 26.468C75.2551 26.8227 74.5225 27 73.5331 27H69.9631ZM71.2791 25.964H73.4351C73.9951 25.964 74.4151 25.88 74.6951 25.712C74.9751 25.5347 75.1151 25.2547 75.1151 24.872C75.1151 24.48 74.9845 24.1953 74.7231 24.018C74.4711 23.8313 74.0698 23.738 73.5191 23.738H71.2791V25.964ZM71.2791 22.772H73.2951C73.8085 22.772 74.1958 22.6787 74.4571 22.492C74.7278 22.296 74.8631 22.0253 74.8631 21.68C74.8631 21.3253 74.7278 21.0593 74.4571 20.882C74.1958 20.7047 73.8085 20.616 73.2951 20.616H71.2791V22.772ZM78.5627 27V19.58H79.9067V24.984L84.4567 19.58H85.6747V27H84.3307V21.596L79.7947 27H78.5627ZM88.2834 27V19.58H89.6694L92.8614 25.068H92.3014L95.5774 19.58H96.8374V27H95.6194V21.092L95.8434 21.218L92.8474 26.16H92.2594L89.2494 21.12L89.5154 21.064V27H88.2834ZM8.10473 44V36.58H14.9787V44H13.6347V37.42L13.9567 37.756H9.12673L9.44873 37.42V44H8.10473ZM21.5133 44.084C20.8973 44.084 20.3327 43.944 19.8193 43.664C19.3153 43.3747 18.9093 42.95 18.6013 42.39C18.3027 41.83 18.1533 41.13 18.1533 40.29C18.1533 39.45 18.298 38.75 18.5873 38.19C18.886 37.63 19.2873 37.21 19.7913 36.93C20.3047 36.65 20.8787 36.51 21.5133 36.51C22.2413 36.51 22.8853 36.6687 23.4453 36.986C24.0053 37.3033 24.4487 37.7467 24.7753 38.316C25.102 38.876 25.2653 39.534 25.2653 40.29C25.2653 41.046 25.102 41.7087 24.7753 42.278C24.4487 42.8473 24.0053 43.2907 23.4453 43.608C22.8853 43.9253 22.2413 44.084 21.5133 44.084ZM17.5793 46.716V36.58H18.8673V38.582L18.7833 40.304L18.9233 42.026V46.716H17.5793ZM21.4013 42.908C21.8773 42.908 22.302 42.8007 22.6753 42.586C23.058 42.3713 23.3567 42.068 23.5713 41.676C23.7953 41.2747 23.9073 40.8127 23.9073 40.29C23.9073 39.758 23.7953 39.3007 23.5713 38.918C23.3567 38.526 23.058 38.2227 22.6753 38.008C22.302 37.7933 21.8773 37.686 21.4013 37.686C20.9347 37.686 20.51 37.7933 20.1273 38.008C19.754 38.2227 19.4553 38.526 19.2313 38.918C19.0167 39.3007 18.9093 39.758 18.9093 40.29C18.9093 40.8127 19.0167 41.2747 19.2313 41.676C19.4553 42.068 19.754 42.3713 20.1273 42.586C20.51 42.8007 20.9347 42.908 21.4013 42.908ZM30.396 44.084C29.6493 44.084 28.9867 43.9207 28.408 43.594C27.8293 43.2673 27.372 42.8193 27.036 42.25C26.7 41.6713 26.532 41.018 26.532 40.29C26.532 39.5527 26.7 38.8993 27.036 38.33C27.372 37.7607 27.8293 37.3173 28.408 37C28.9867 36.6733 29.6493 36.51 30.396 36.51C31.1333 36.51 31.7913 36.6733 32.37 37C32.958 37.3173 33.4153 37.7607 33.742 38.33C34.078 38.89 34.246 39.5433 34.246 40.29C34.246 41.0273 34.078 41.6807 33.742 42.25C33.4153 42.8193 32.958 43.2673 32.37 43.594C31.7913 43.9207 31.1333 44.084 30.396 44.084ZM30.396 42.908C30.872 42.908 31.2967 42.8007 31.67 42.586C32.0527 42.3713 32.3513 42.068 32.566 41.676C32.7807 41.2747 32.888 40.8127 32.888 40.29C32.888 39.758 32.7807 39.3007 32.566 38.918C32.3513 38.526 32.0527 38.2227 31.67 38.008C31.2967 37.7933 30.872 37.686 30.396 37.686C29.92 37.686 29.4953 37.7933 29.122 38.008C28.7487 38.2227 28.45 38.526 28.226 38.918C28.002 39.3007 27.89 39.758 27.89 40.29C27.89 40.8127 28.002 41.2747 28.226 41.676C28.45 42.068 28.7487 42.3713 29.122 42.586C29.4953 42.8007 29.92 42.908 30.396 42.908ZM39.6168 44.112C39.0008 44.112 38.4548 44.014 37.9788 43.818C37.5121 43.622 37.1108 43.3327 36.7748 42.95C36.4388 42.558 36.1821 42.068 36.0048 41.48C35.8368 40.8827 35.7528 40.1827 35.7528 39.38C35.7528 38.7453 35.8088 38.176 35.9208 37.672C36.0328 37.168 36.1914 36.72 36.3968 36.328C36.6114 35.936 36.8728 35.5953 37.1808 35.306C37.4981 35.0167 37.8528 34.7787 38.2448 34.592C38.6461 34.396 39.0848 34.2467 39.5608 34.144L42.9488 33.388L43.1448 34.634L40.0228 35.306C39.8361 35.3433 39.6121 35.3993 39.3508 35.474C39.0894 35.5487 38.8234 35.6653 38.5528 35.824C38.2821 35.9733 38.0301 36.1833 37.7968 36.454C37.5634 36.7247 37.3768 37.0793 37.2368 37.518C37.0968 37.9473 37.0268 38.4793 37.0268 39.114C37.0268 39.2913 37.0314 39.4267 37.0408 39.52C37.0501 39.6133 37.0594 39.7067 37.0688 39.8C37.0874 39.8933 37.1014 40.0333 37.1108 40.22L36.5508 39.646C36.7001 39.1327 36.9381 38.6847 37.2648 38.302C37.5914 37.9193 37.9834 37.6253 38.4408 37.42C38.9074 37.2053 39.4161 37.098 39.9668 37.098C40.6574 37.098 41.2688 37.2473 41.8008 37.546C42.3421 37.8447 42.7668 38.2553 43.0748 38.778C43.3828 39.3007 43.5368 39.898 43.5368 40.57C43.5368 41.2513 43.3734 41.8627 43.0468 42.404C42.7294 42.936 42.2768 43.356 41.6888 43.664C41.1008 43.9627 40.4101 44.112 39.6168 44.112ZM39.7428 42.992C40.2188 42.992 40.6388 42.8893 41.0028 42.684C41.3668 42.4693 41.6514 42.1847 41.8568 41.83C42.0621 41.466 42.1648 41.06 42.1648 40.612C42.1648 40.164 42.0621 39.7673 41.8568 39.422C41.6514 39.0767 41.3668 38.806 41.0028 38.61C40.6388 38.4047 40.2094 38.302 39.7148 38.302C39.2481 38.302 38.8281 38.4 38.4548 38.596C38.0814 38.7827 37.7921 39.0487 37.5868 39.394C37.3814 39.73 37.2788 40.122 37.2788 40.57C37.2788 41.018 37.3814 41.4287 37.5868 41.802C37.8014 42.166 38.0908 42.4553 38.4548 42.67C38.8281 42.8847 39.2574 42.992 39.7428 42.992ZM44.1696 43.986L44.2536 42.852C44.3189 42.8613 44.3796 42.8707 44.4356 42.88C44.4916 42.8893 44.5429 42.894 44.5896 42.894C44.8883 42.894 45.1216 42.7913 45.2896 42.586C45.4669 42.3807 45.5976 42.11 45.6816 41.774C45.7656 41.4287 45.8263 41.0413 45.8636 40.612C45.9009 40.1827 45.9289 39.7533 45.9476 39.324L46.0736 36.58H51.7716V44H50.4276V37.364L50.7496 37.756H46.9416L47.2496 37.35L47.1516 39.408C47.1236 40.0613 47.0723 40.6727 46.9976 41.242C46.9229 41.8113 46.8063 42.3107 46.6476 42.74C46.4983 43.1693 46.2883 43.5053 46.0176 43.748C45.7563 43.9907 45.4156 44.112 44.9956 44.112C44.8743 44.112 44.7436 44.098 44.6036 44.07C44.4729 44.0513 44.3283 44.0233 44.1696 43.986ZM57.6744 44.084C56.881 44.084 56.181 43.9207 55.5744 43.594C54.977 43.2673 54.5104 42.8193 54.1744 42.25C53.8477 41.6807 53.6844 41.0273 53.6844 40.29C53.6844 39.5527 53.843 38.8993 54.1604 38.33C54.487 37.7607 54.9304 37.3173 55.4904 37C56.0597 36.6733 56.699 36.51 57.4084 36.51C58.127 36.51 58.7617 36.6687 59.3124 36.986C59.863 37.3033 60.2924 37.7513 60.6004 38.33C60.9177 38.8993 61.0764 39.5667 61.0764 40.332C61.0764 40.388 61.0717 40.4533 61.0624 40.528C61.0624 40.6027 61.0577 40.6727 61.0484 40.738H54.7344V39.772H60.3484L59.8024 40.108C59.8117 39.632 59.7137 39.2073 59.5084 38.834C59.303 38.4607 59.0184 38.1713 58.6544 37.966C58.2997 37.7513 57.8844 37.644 57.4084 37.644C56.9417 37.644 56.5264 37.7513 56.1624 37.966C55.7984 38.1713 55.5137 38.4653 55.3084 38.848C55.103 39.2213 55.0004 39.6507 55.0004 40.136V40.36C55.0004 40.8547 55.1124 41.298 55.3364 41.69C55.5697 42.0727 55.8917 42.3713 56.3024 42.586C56.713 42.8007 57.1844 42.908 57.7164 42.908C58.155 42.908 58.5517 42.8333 58.9064 42.684C59.2704 42.5347 59.5877 42.3107 59.8584 42.012L60.6004 42.88C60.2644 43.272 59.8444 43.5707 59.3404 43.776C58.8457 43.9813 58.2904 44.084 57.6744 44.084ZM63.1614 44V36.58H64.5474L67.7394 42.068H67.1794L70.4554 36.58H71.7154V44H70.4974V38.092L70.7214 38.218L67.7254 43.16H67.1374L64.1274 38.12L64.3934 38.064V44H63.1614ZM74.7093 46.8C74.3546 46.8 74.0093 46.7393 73.6733 46.618C73.3373 46.506 73.048 46.338 72.8053 46.114L73.3793 45.106C73.566 45.2833 73.7713 45.4187 73.9953 45.512C74.2193 45.6053 74.4573 45.652 74.7093 45.652C75.036 45.652 75.3066 45.568 75.5213 45.4C75.736 45.232 75.9366 44.9333 76.1233 44.504L76.5853 43.482L76.7253 43.314L79.6373 36.58H80.9533L77.3553 44.742C77.1406 45.2647 76.898 45.6753 76.6273 45.974C76.366 46.2727 76.0766 46.4827 75.7593 46.604C75.442 46.7347 75.092 46.8 74.7093 46.8ZM76.4733 44.238L73.0853 36.58H74.4853L77.3693 43.188L76.4733 44.238ZM86.0891 44V36.58H87.4331V41.984L91.9831 36.58H93.2011V44H91.8571V38.596L87.3211 44H86.0891ZM94.5778 43.986L94.6618 42.852C94.7271 42.8613 94.7878 42.8707 94.8438 42.88C94.8998 42.8893 94.9511 42.894 94.9978 42.894C95.2965 42.894 95.5298 42.7913 95.6978 42.586C95.8751 42.3807 96.0058 42.11 96.0898 41.774C96.1738 41.4287 96.2345 41.0413 96.2718 40.612C96.3091 40.1827 96.3371 39.7533 96.3558 39.324L96.4818 36.58H102.18V44H100.836V37.364L101.158 37.756H97.3498L97.6578 37.35L97.5598 39.408C97.5318 40.0613 97.4805 40.6727 97.4058 41.242C97.3311 41.8113 97.2145 42.3107 97.0558 42.74C96.9065 43.1693 96.6965 43.5053 96.4258 43.748C96.1645 43.9907 95.8238 44.112 95.4038 44.112C95.2825 44.112 95.1518 44.098 95.0118 44.07C94.8811 44.0513 94.7365 44.0233 94.5778 43.986ZM104.779 44V36.58H106.123V41.984L110.673 36.58H111.891V44H110.547V38.596L106.011 44H104.779ZM37.735 61.084C37.119 61.084 36.5544 60.944 36.041 60.664C35.537 60.3747 35.131 59.95 34.823 59.39C34.5244 58.83 34.375 58.13 34.375 57.29C34.375 56.45 34.5197 55.75 34.809 55.19C35.1077 54.63 35.509 54.21 36.013 53.93C36.5264 53.65 37.1004 53.51 37.735 53.51C38.463 53.51 39.107 53.6687 39.667 53.986C40.227 54.3033 40.6704 54.7467 40.997 55.316C41.3237 55.876 41.487 56.534 41.487 57.29C41.487 58.046 41.3237 58.7087 40.997 59.278C40.6704 59.8473 40.227 60.2907 39.667 60.608C39.107 60.9253 38.463 61.084 37.735 61.084ZM33.801 63.716V53.58H35.089V55.582L35.005 57.304L35.145 59.026V63.716H33.801ZM37.623 59.908C38.099 59.908 38.5237 59.8007 38.897 59.586C39.2797 59.3713 39.5784 59.068 39.793 58.676C40.017 58.2747 40.129 57.8127 40.129 57.29C40.129 56.758 40.017 56.3007 39.793 55.918C39.5784 55.526 39.2797 55.2227 38.897 55.008C38.5237 54.7933 38.099 54.686 37.623 54.686C37.1564 54.686 36.7317 54.7933 36.349 55.008C35.9757 55.2227 35.677 55.526 35.453 55.918C35.2384 56.3007 35.131 56.758 35.131 57.29C35.131 57.8127 35.2384 58.2747 35.453 58.676C35.677 59.068 35.9757 59.3713 36.349 59.586C36.7317 59.8007 37.1564 59.908 37.623 59.908ZM46.7437 61.084C45.9504 61.084 45.2504 60.9207 44.6437 60.594C44.0464 60.2673 43.5797 59.8193 43.2437 59.25C42.917 58.6807 42.7537 58.0273 42.7537 57.29C42.7537 56.5527 42.9124 55.8993 43.2297 55.33C43.5564 54.7607 43.9997 54.3173 44.5597 54C45.129 53.6733 45.7684 53.51 46.4777 53.51C47.1964 53.51 47.831 53.6687 48.3817 53.986C48.9324 54.3033 49.3617 54.7513 49.6697 55.33C49.987 55.8993 50.1457 56.5667 50.1457 57.332C50.1457 57.388 50.141 57.4533 50.1317 57.528C50.1317 57.6027 50.127 57.6727 50.1177 57.738H43.8037V56.772H49.4177L48.8717 57.108C48.881 56.632 48.783 56.2073 48.5777 55.834C48.3724 55.4607 48.0877 55.1713 47.7237 54.966C47.369 54.7513 46.9537 54.644 46.4777 54.644C46.011 54.644 45.5957 54.7513 45.2317 54.966C44.8677 55.1713 44.583 55.4653 44.3777 55.848C44.1724 56.2213 44.0697 56.6507 44.0697 57.136V57.36C44.0697 57.8547 44.1817 58.298 44.4057 58.69C44.639 59.0727 44.961 59.3713 45.3717 59.586C45.7824 59.8007 46.2537 59.908 46.7857 59.908C47.2244 59.908 47.621 59.8333 47.9757 59.684C48.3397 59.5347 48.657 59.3107 48.9277 59.012L49.6697 59.88C49.3337 60.272 48.9137 60.5707 48.4097 60.776C47.915 60.9813 47.3597 61.084 46.7437 61.084ZM52.2307 61V53.58H53.6167L56.8087 59.068H56.2487L59.5247 53.58H60.7847V61H59.5667V55.092L59.7907 55.218L56.7947 60.16H56.2067L53.1967 55.12L53.4627 55.064V61H52.2307ZM66.5786 61.084C65.832 61.084 65.1693 60.9207 64.5906 60.594C64.012 60.2673 63.5546 59.8193 63.2186 59.25C62.8826 58.6713 62.7146 58.018 62.7146 57.29C62.7146 56.5527 62.8826 55.8993 63.2186 55.33C63.5546 54.7607 64.012 54.3173 64.5906 54C65.1693 53.6733 65.832 53.51 66.5786 53.51C67.316 53.51 67.974 53.6733 68.5526 54C69.1406 54.3173 69.598 54.7607 69.9246 55.33C70.2606 55.89 70.4286 56.5433 70.4286 57.29C70.4286 58.0273 70.2606 58.6807 69.9246 59.25C69.598 59.8193 69.1406 60.2673 68.5526 60.594C67.974 60.9207 67.316 61.084 66.5786 61.084ZM66.5786 59.908C67.0546 59.908 67.4793 59.8007 67.8526 59.586C68.2353 59.3713 68.534 59.068 68.7486 58.676C68.9633 58.2747 69.0706 57.8127 69.0706 57.29C69.0706 56.758 68.9633 56.3007 68.7486 55.918C68.534 55.526 68.2353 55.2227 67.8526 55.008C67.4793 54.7933 67.0546 54.686 66.5786 54.686C66.1026 54.686 65.678 54.7933 65.3046 55.008C64.9313 55.2227 64.6326 55.526 64.4086 55.918C64.1846 56.3007 64.0726 56.758 64.0726 57.29C64.0726 57.8127 64.1846 58.2747 64.4086 58.676C64.6326 59.068 64.9313 59.3713 65.3046 59.586C65.678 59.8007 66.1026 59.908 66.5786 59.908ZM72.3694 61V53.58H73.7134V56.73H77.9414V53.58H79.2854V61H77.9414V57.892H73.7134V61H72.3694ZM83.3687 61V54.406L83.7047 54.756H80.6527V53.58H87.4287V54.756H84.3907L84.7127 54.406V61H83.3687ZM49.5316 77.356L50.4976 75.074C50.9083 75.242 51.3283 75.3727 51.7576 75.466C52.1963 75.5593 52.6163 75.62 53.0176 75.648C53.4189 75.6667 53.7736 75.648 54.0816 75.592C54.3989 75.536 54.6509 75.4427 54.8376 75.312C55.0243 75.1813 55.1176 75.0087 55.1176 74.794C55.1176 74.57 55.0243 74.416 54.8376 74.332C54.6509 74.248 54.4223 74.206 54.1516 74.206H51.5056V71.826H53.8716C54.1516 71.826 54.3616 71.7747 54.5016 71.672C54.6509 71.56 54.7256 71.4153 54.7256 71.238C54.7256 71.042 54.6416 70.888 54.4736 70.776C54.3149 70.664 54.0956 70.5893 53.8156 70.552C53.5449 70.5053 53.2369 70.5007 52.8916 70.538C52.5463 70.566 52.1869 70.636 51.8136 70.748C51.4496 70.8507 51.0949 70.986 50.7496 71.154L49.7836 68.746C50.4743 68.4287 51.1976 68.214 51.9536 68.102C52.7189 67.9807 53.4609 67.9573 54.1796 68.032C54.9076 68.0973 55.5609 68.2513 56.1396 68.494C56.7276 68.7367 57.1943 69.0587 57.5396 69.46C57.8849 69.852 58.0576 70.3187 58.0576 70.86C58.0576 71.3267 57.9316 71.7467 57.6796 72.12C57.4276 72.484 57.0823 72.7687 56.6436 72.974C56.2143 73.1793 55.7243 73.282 55.1736 73.282L55.2436 72.624C55.8876 72.624 56.4476 72.7407 56.9236 72.974C57.4089 73.198 57.7823 73.506 58.0436 73.898C58.3143 74.29 58.4496 74.738 58.4496 75.242C58.4496 75.7087 58.3236 76.1287 58.0716 76.502C57.8196 76.866 57.4696 77.1787 57.0216 77.44C56.5829 77.692 56.0696 77.8833 55.4816 78.014C54.9029 78.1447 54.2776 78.21 53.6056 78.21C52.9429 78.2193 52.2616 78.1493 51.5616 78C50.8709 77.86 50.1943 77.6453 49.5316 77.356ZM58.7979 78L63.0819 68.2H66.3299L70.6139 78H67.1979L64.0339 69.768H65.3219L62.1579 78H58.7979ZM61.3459 76.292L62.1859 73.912H66.6939L67.5339 76.292H61.3459ZM19.8611 105V85.308H27.9611V92.22H33.5051V85.308H41.6051V105H33.5051V98.592H27.9611V105H19.8611ZM56.9037 105V101.508L56.3277 100.572V93.948C56.3277 92.988 56.0277 92.256 55.4277 91.752C54.8517 91.248 53.9037 90.996 52.5837 90.996C51.6957 90.996 50.7957 91.14 49.8837 91.428C48.9717 91.692 48.1917 92.064 47.5437 92.544L44.9517 87.18C46.1037 86.46 47.4837 85.908 49.0917 85.524C50.6997 85.14 52.2717 84.948 53.8077 84.948C57.1917 84.948 59.8077 85.704 61.6557 87.216C63.5277 88.728 64.4637 91.128 64.4637 94.416V105H56.9037ZM51.3237 105.36C49.7157 105.36 48.3717 105.084 47.2917 104.532C46.2117 103.98 45.3957 103.248 44.8437 102.336C44.2917 101.4 44.0157 100.368 44.0157 99.24C44.0157 97.968 44.3397 96.888 44.9877 96C45.6357 95.112 46.6197 94.44 47.9397 93.984C49.2837 93.528 50.9757 93.3 53.0157 93.3H57.1197V97.224H54.3117C53.4477 97.224 52.8117 97.368 52.4037 97.656C52.0197 97.92 51.8277 98.328 51.8277 98.88C51.8277 99.336 51.9957 99.72 52.3317 100.032C52.6917 100.32 53.1717 100.464 53.7717 100.464C54.3237 100.464 54.8277 100.32 55.2837 100.032C55.7637 99.72 56.1117 99.24 56.3277 98.592L57.3717 101.004C57.0597 102.468 56.3997 103.56 55.3917 104.28C54.3837 105 53.0277 105.36 51.3237 105.36ZM81.7111 98.628L79.9471 100.392V85.308H88.0471V100.392L86.2471 98.628H93.8431L92.0791 100.392V85.308H100.143V105H67.7791V85.308H75.8791V100.392L74.1151 98.628H81.7111ZM45.8214 122.224C45.0374 122.224 44.3094 122.103 43.6374 121.86C42.9747 121.608 42.3961 121.253 41.9014 120.796C41.4161 120.339 41.0381 119.797 40.7674 119.172C40.4967 118.547 40.3614 117.856 40.3614 117.1C40.3614 116.344 40.4967 115.653 40.7674 115.028C41.0381 114.403 41.4161 113.861 41.9014 113.404C42.3961 112.947 42.9747 112.597 43.6374 112.354C44.3094 112.102 45.0374 111.976 45.8214 111.976C46.7827 111.976 47.6321 112.144 48.3694 112.48C49.1161 112.816 49.7321 113.301 50.2174 113.936L48.1314 115.798C47.8421 115.434 47.5201 115.154 47.1654 114.958C46.8201 114.753 46.4281 114.65 45.9894 114.65C45.6441 114.65 45.3314 114.706 45.0514 114.818C44.7714 114.93 44.5287 115.093 44.3234 115.308C44.1274 115.523 43.9734 115.784 43.8614 116.092C43.7494 116.391 43.6934 116.727 43.6934 117.1C43.6934 117.473 43.7494 117.814 43.8614 118.122C43.9734 118.421 44.1274 118.677 44.3234 118.892C44.5287 119.107 44.7714 119.27 45.0514 119.382C45.3314 119.494 45.6441 119.55 45.9894 119.55C46.4281 119.55 46.8201 119.452 47.1654 119.256C47.5201 119.051 47.8421 118.766 48.1314 118.402L50.2174 120.264C49.7321 120.889 49.1161 121.375 48.3694 121.72C47.6321 122.056 46.7827 122.224 45.8214 122.224ZM57.3757 118.71C56.9557 118.859 56.5637 118.971 56.1997 119.046C55.845 119.121 55.4997 119.158 55.1637 119.158C53.7263 119.158 52.6297 118.817 51.8737 118.136C51.127 117.455 50.7537 116.461 50.7537 115.154V112.2H54.0017V114.79C54.0017 115.387 54.1323 115.831 54.3937 116.12C54.655 116.4 55.0517 116.54 55.5837 116.54C55.9477 116.54 56.2743 116.507 56.5637 116.442C56.853 116.367 57.0957 116.265 57.2917 116.134L57.3757 118.71ZM56.9417 122V112.2H60.1897V122H56.9417ZM64.9447 115.84H69.3127V118.22H64.9447V115.84ZM65.1687 119.508H70.0687V122H61.9207V112.2H69.8867V114.692H65.1687V119.508ZM73.635 122V114.048L74.349 114.762H70.765V112.2H79.753V114.762H76.169L76.883 114.048V122H73.635Z" fill="#F6F6F6"/>
</svg>
