<svg width="33" height="39" viewBox="0 0 33 39" fill="none" xmlns="http://www.w3.org/2000/svg">
<path fill-rule="evenodd" clip-rule="evenodd" d="M16.6374 0.0109887C16.7898 0.0227147 17.0008 0.0578926 17.1064 0.0891618C17.2158 0.120431 17.3994 0.198604 17.5166 0.257234C17.6339 0.315864 17.8371 0.444849 17.966 0.542565C18.095 0.636373 18.3294 0.855258 18.4896 1.02333C18.6498 1.19531 18.9546 1.57054 19.1735 1.86369C19.3923 2.15684 19.7518 2.64933 19.9784 2.95811C20.205 3.2669 20.5294 3.65776 20.7013 3.83365C20.885 4.01736 21.096 4.18543 21.2093 4.24015C21.3148 4.29096 21.5258 4.34959 21.6782 4.36914C21.8579 4.3965 22.1041 4.39259 22.4011 4.36523C22.6473 4.34178 23.2295 4.2636 23.6906 4.18934C24.1517 4.11117 24.7066 4.02908 24.9215 4.00563C25.1403 3.98218 25.5701 3.97045 25.8984 3.97827C26.3907 3.99391 26.5353 4.01345 26.7971 4.09944C26.969 4.15416 27.2152 4.27142 27.3442 4.3535C27.4731 4.43949 27.6411 4.57629 27.7193 4.65838C27.8013 4.74437 27.9264 4.91244 28.0045 5.03752C28.0827 5.15868 28.1882 5.3932 28.2429 5.55346C28.2976 5.71371 28.3601 6.0264 28.3875 6.2492C28.4187 6.55407 28.4187 6.76905 28.3836 7.17555C28.3562 7.46479 28.2663 8.11753 28.1843 8.62175C28.1022 9.12597 28.0123 9.72399 27.9889 9.95069C27.9615 10.1774 27.9537 10.4823 27.9694 10.6347C27.985 10.7871 28.0319 10.9865 28.0749 11.0842C28.1179 11.1819 28.2507 11.3617 28.3718 11.4907C28.4969 11.6158 28.7157 11.819 28.8681 11.9402C29.0205 12.0653 29.423 12.3623 29.7668 12.6086C30.1107 12.8548 30.5601 13.1871 30.7633 13.3473C30.9665 13.5076 31.2126 13.7108 31.3064 13.8007C31.4002 13.8867 31.5839 14.09 31.7128 14.2502C31.8418 14.4105 32.0059 14.6606 32.0762 14.8091C32.1504 14.9538 32.2364 15.1805 32.2716 15.3173C32.3185 15.4932 32.3302 15.6651 32.3185 15.9505C32.3028 16.2553 32.2755 16.3961 32.1973 16.5954C32.1387 16.7361 32.0332 16.9433 31.9629 17.0605C31.8965 17.1778 31.6894 17.4319 31.5057 17.6234C31.322 17.8149 31.0251 18.0924 30.8414 18.237C30.6578 18.3817 30.2787 18.6631 30.0013 18.8624C29.7239 19.0618 29.3956 19.2963 29.2784 19.3823C29.1612 19.4722 28.9502 19.6402 28.8095 19.7536C28.6688 19.8709 28.4813 20.0467 28.3875 20.1484C28.2976 20.2461 28.1804 20.3985 28.1296 20.4845C28.0788 20.5705 28.0163 20.7386 27.9889 20.8558C27.9537 21.0044 27.9459 21.2232 27.9615 21.5594C27.9772 21.8291 28.0553 22.4701 28.1413 22.986C28.2234 23.502 28.3171 24.1274 28.3406 24.3736C28.3718 24.6433 28.3797 25.0146 28.3679 25.2922C28.3562 25.5501 28.3171 25.8667 28.282 25.9957C28.2468 26.1247 28.1647 26.3436 28.0983 26.4843C28.0123 26.6641 27.8912 26.8243 27.6802 27.0315C27.4809 27.2308 27.3012 27.3676 27.1292 27.4497C26.9886 27.5201 26.7697 27.6022 26.6408 27.6413C26.4806 27.6842 26.1953 27.7116 25.7616 27.7233C25.2067 27.739 25.0231 27.7272 24.4526 27.6413C24.0853 27.5865 23.5147 27.4927 23.1826 27.438C22.7411 27.3637 22.4245 27.3325 22.0103 27.3286C21.4984 27.3247 21.4242 27.3325 21.2562 27.4146C21.1546 27.4615 20.9748 27.5944 20.8537 27.7077C20.7326 27.8171 20.5333 28.0321 20.4121 28.1846C20.291 28.337 19.9784 28.7552 19.7205 29.1226C19.4587 29.49 19.107 29.963 18.9351 30.178C18.7632 30.3929 18.5014 30.6822 18.3529 30.8229C18.2044 30.9636 18.0051 31.1317 17.9074 31.1981C17.8097 31.2646 17.6261 31.374 17.4971 31.4366C17.3682 31.503 17.1298 31.589 16.9696 31.6242C16.7547 31.675 16.5906 31.6906 16.3639 31.675C16.1842 31.6593 15.9419 31.6124 15.7973 31.5577C15.6566 31.5069 15.4378 31.4053 15.3089 31.331C15.1721 31.2528 14.883 31.0027 14.6211 30.7447C14.3359 30.4555 14.0233 30.092 13.7615 29.7324C13.5388 29.4236 13.1793 28.9311 12.9604 28.638C12.7416 28.3448 12.4368 27.9774 12.2766 27.8211C12.1047 27.6491 11.9015 27.4888 11.7725 27.4302C11.5654 27.3286 11.5342 27.3247 10.8933 27.3286C10.3189 27.3286 10.1157 27.3481 9.38893 27.4732C8.92784 27.5514 8.40813 27.6334 8.2362 27.6608C8.06427 27.6882 7.64225 27.7077 7.29838 27.7077C6.79431 27.7077 6.61847 27.6921 6.38011 27.6295C6.2199 27.5865 5.97372 27.4927 5.83305 27.4224C5.66893 27.3403 5.47746 27.1957 5.30162 27.0159C5.10234 26.8165 4.98511 26.6563 4.88351 26.4452C4.80536 26.285 4.71549 26.0387 4.68423 25.898C4.65297 25.7573 4.61389 25.4759 4.59826 25.2726C4.58263 25.0576 4.59045 24.7059 4.6178 24.4322C4.64515 24.1743 4.73503 23.5411 4.82099 23.0251C4.90305 22.5092 4.99292 21.8916 5.01637 21.6571C5.04763 21.364 5.04763 21.1451 5.02419 20.9731C5.00074 20.8324 4.95385 20.6487 4.91477 20.5627C4.8757 20.4767 4.69204 20.2578 4.50839 20.0741C4.32083 19.8904 3.90272 19.5464 3.57057 19.3119C3.23843 19.0735 2.7578 18.7256 2.496 18.5302C2.23419 18.3387 1.84734 18.0064 1.62852 17.7875C1.4136 17.5726 1.16743 17.2911 1.08537 17.1622C0.999401 17.0332 0.882174 16.7947 0.815746 16.6345C0.725872 16.4 0.698519 16.2632 0.682889 15.9505C0.671166 15.6612 0.682889 15.4932 0.733687 15.3055C0.768855 15.1648 0.850914 14.9538 0.909527 14.8365C0.968141 14.7192 1.09709 14.516 1.19478 14.387C1.28856 14.258 1.50738 14.0235 1.67541 13.8633C1.84734 13.703 2.25763 13.3708 2.59368 13.1206C2.92973 12.8705 3.42209 12.507 3.6878 12.3154C3.95351 12.1239 4.31301 11.8229 4.48494 11.651C4.68423 11.4555 4.84444 11.2562 4.91087 11.1233C4.99293 10.9552 5.02028 10.8301 5.03982 10.537C5.05154 10.3298 5.03982 9.98587 5.01637 9.75526C4.98902 9.52856 4.90696 8.98526 4.83662 8.54358C4.76238 8.1019 4.68423 7.5586 4.65688 7.33189C4.63343 7.10128 4.62171 6.71042 4.63343 6.43291C4.64515 6.16321 4.68032 5.83879 4.71549 5.7098C4.75066 5.58082 4.84444 5.34239 4.92259 5.18214C5.02028 4.97889 5.14141 4.81081 5.32116 4.63102C5.50091 4.45122 5.66893 4.33005 5.87213 4.23233C6.03234 4.15416 6.2707 4.06035 6.39965 4.02517C6.52859 3.99391 6.87246 3.95482 7.16162 3.94309C7.53675 3.92746 7.83763 3.93918 8.19712 3.98609C8.47456 4.02127 9.07242 4.11507 9.52569 4.19325C10.2212 4.31441 10.4401 4.33396 10.9715 4.33787C11.5225 4.34178 11.6162 4.33396 11.753 4.2636C11.839 4.22061 12.0109 4.08771 12.1398 3.97045C12.2649 3.85319 12.4681 3.6304 12.5931 3.48187C12.7143 3.33334 13.0073 2.93466 13.2457 2.60243C13.484 2.27019 13.8006 1.84024 13.949 1.64481C14.0975 1.44937 14.3242 1.17968 14.4531 1.04287C14.5782 0.90607 14.8165 0.695003 14.9767 0.573835C15.1369 0.452666 15.3831 0.29632 15.5238 0.229873C15.6645 0.163426 15.8755 0.0891618 15.9927 0.0657099C16.1099 0.042258 16.2428 0.0148974 16.2858 0.00708009C16.3287 -0.00464587 16.4851 -0.000737218 16.6374 0.0109887ZM15.6801 2.19983C15.4964 2.39136 15.1565 2.8174 14.9181 3.14964C14.6798 3.47796 14.3359 3.95482 14.1522 4.20106C13.9647 4.45122 13.6833 4.79127 13.527 4.96325C13.3668 5.13132 13.1324 5.35021 13.0034 5.44792C12.8745 5.54564 12.6478 5.68244 12.4954 5.75671C12.343 5.82706 12.1242 5.91305 12.007 5.94823C11.8898 5.9795 11.5537 6.01859 11.2646 6.03031C10.9402 6.04595 10.5846 6.03422 10.3463 6.00686C10.1314 5.9795 9.52569 5.88569 8.99817 5.79579C8.17758 5.65899 7.95485 5.63554 7.43515 5.63554C6.892 5.63163 6.80994 5.63945 6.65364 5.71762C6.5325 5.77625 6.45435 5.84661 6.39965 5.95214C6.34103 6.0694 6.32149 6.19839 6.30977 6.56971C6.30196 6.9254 6.32149 7.19118 6.39574 7.66413C6.44654 8.00809 6.54032 8.59048 6.59893 8.95399C6.6849 9.48947 6.70444 9.75135 6.70444 10.3025C6.70834 10.8888 6.69662 11.0334 6.62238 11.2992C6.57549 11.4712 6.48561 11.7174 6.42309 11.8464C6.36057 11.9754 6.2199 12.1943 6.11439 12.335C6.00889 12.4757 5.7549 12.7493 5.55171 12.9408C5.35242 13.1323 4.93431 13.4763 4.62561 13.703C4.31692 13.9297 3.85192 14.2698 3.59011 14.4613C3.33221 14.6528 2.98835 14.9342 2.83205 15.0867C2.67184 15.2391 2.4999 15.4423 2.44129 15.5401C2.37486 15.6573 2.3436 15.7668 2.34751 15.8723C2.35142 15.9622 2.39831 16.1029 2.46083 16.2045C2.51944 16.3023 2.68356 16.4938 2.82814 16.6345C2.96881 16.7752 3.29704 17.041 3.55104 17.2286C3.80503 17.4162 4.26612 17.7524 4.57091 17.9712C4.8757 18.194 5.27818 18.5067 5.46574 18.667C5.64939 18.8272 5.9112 19.093 6.04015 19.2533C6.1691 19.4135 6.32931 19.6598 6.39965 19.8005C6.46998 19.9412 6.55595 20.1523 6.59112 20.2695C6.62628 20.3868 6.66927 20.6604 6.6888 20.8754C6.71225 21.1216 6.71225 21.4382 6.6888 21.7353C6.66927 21.9932 6.5833 22.6265 6.49733 23.1424C6.41528 23.6583 6.3254 24.2485 6.29805 24.4518C6.2746 24.655 6.26288 24.9795 6.27851 25.1749C6.29414 25.429 6.3254 25.5736 6.38792 25.6987C6.45044 25.8198 6.52859 25.898 6.6341 25.9527C6.77086 26.0231 6.86074 26.0348 7.33746 26.0309C7.77511 26.0309 8.06036 25.9996 8.76372 25.8824C9.24825 25.8042 9.85393 25.7104 10.1118 25.6791C10.4401 25.6361 10.7566 25.6244 11.1669 25.6361C11.5303 25.6518 11.8429 25.683 11.9875 25.7221C12.1164 25.7573 12.343 25.8472 12.4954 25.9175C12.6478 25.9918 12.8823 26.1364 13.023 26.242C13.1636 26.3475 13.4176 26.582 13.5856 26.7618C13.7537 26.9416 14.0702 27.3286 14.289 27.6217C14.5078 27.9149 14.8673 28.4034 15.094 28.7122C15.3206 29.021 15.6254 29.4001 15.7778 29.5526C15.9302 29.7089 16.1256 29.8692 16.2193 29.9161C16.3092 29.963 16.4421 30.0021 16.5124 30.0021C16.5788 30.0021 16.7 29.9708 16.7742 29.9356C16.8485 29.8965 16.9969 29.7949 17.1024 29.7089C17.208 29.6229 17.4268 29.3845 17.5909 29.1813C17.755 28.978 18.1028 28.5129 18.3607 28.1455C18.6225 27.7781 18.9468 27.3403 19.0836 27.1683C19.2164 26.9963 19.4587 26.7266 19.615 26.5742C19.7713 26.4178 20.0097 26.2146 20.1464 26.1247C20.2793 26.0348 20.502 25.9136 20.6427 25.855C20.7834 25.7925 21.053 25.7182 21.2484 25.683C21.4437 25.6517 21.7368 25.6244 21.9048 25.6244C22.069 25.6244 22.3776 25.6439 22.5887 25.6635C22.7958 25.6869 23.3819 25.7768 23.886 25.8589C24.39 25.9449 25.0074 26.0309 25.2536 26.0543C25.574 26.0856 25.7889 26.0856 25.996 26.0543C26.1563 26.0309 26.3399 25.9801 26.4024 25.9449C26.465 25.9097 26.5548 25.8159 26.5978 25.7416C26.6721 25.6166 26.6799 25.5462 26.676 24.9795C26.676 24.4401 26.6525 24.2212 26.5118 23.3769C26.4259 22.8414 26.3321 22.2043 26.3047 21.9698C26.2774 21.7236 26.2696 21.3561 26.2852 21.1099C26.2969 20.8754 26.336 20.5666 26.3712 20.4259C26.4024 20.2852 26.4689 20.0858 26.5118 19.9764C26.5587 19.8709 26.6721 19.6637 26.7658 19.5191C26.8596 19.3705 27.0628 19.1204 27.2152 18.9562C27.3715 18.7921 27.6568 18.5302 27.8521 18.3738C28.0475 18.2175 28.493 17.8853 28.8486 17.6312C29.2042 17.3771 29.6496 17.041 29.845 16.8885C30.0404 16.7322 30.2709 16.5211 30.3569 16.4156C30.4468 16.3101 30.5484 16.1654 30.5835 16.099C30.6187 16.0286 30.646 15.9075 30.646 15.8332C30.646 15.7589 30.607 15.6221 30.5601 15.5322C30.5171 15.4384 30.3725 15.2508 30.2397 15.1179C30.1068 14.9811 29.8333 14.7427 29.6301 14.5864C29.4269 14.43 29.0049 14.1212 28.6923 13.8984C28.3797 13.6756 28.0045 13.3981 27.8521 13.277C27.6997 13.1597 27.477 12.9643 27.3481 12.8431C27.223 12.7258 27.0355 12.5226 26.9339 12.3936C26.8323 12.2646 26.6955 12.0614 26.6291 11.9441C26.5626 11.8268 26.4728 11.608 26.4259 11.4555C26.3829 11.3031 26.3282 11.006 26.3047 10.7911C26.2774 10.5214 26.2774 10.2556 26.3087 9.93115C26.3321 9.67318 26.4337 8.96962 26.5314 8.36769C26.6838 7.45306 26.715 7.18337 26.715 6.72605C26.7189 6.23747 26.7111 6.1593 26.633 6.00295C26.5861 5.90524 26.4962 5.79579 26.4376 5.76062C26.379 5.72544 26.1953 5.67463 26.0351 5.65117C25.8124 5.616 25.6366 5.616 25.3122 5.64727C25.0778 5.67463 24.4526 5.76062 23.925 5.84661C23.3975 5.9326 22.7371 6.01859 22.4597 6.03813C22.1588 6.06158 21.8071 6.06549 21.6 6.04204C21.4047 6.02641 21.1585 5.98732 21.053 5.96387C20.9436 5.93651 20.7248 5.85442 20.5645 5.78016C20.4043 5.70589 20.166 5.56909 20.037 5.47529C19.9081 5.38539 19.6502 5.15087 19.4665 4.96325C19.2829 4.77173 19.0171 4.46685 18.8765 4.28315C18.7397 4.09944 18.388 3.62649 18.0989 3.22781C17.8136 2.82913 17.4463 2.36791 17.2822 2.19593C17.122 2.02785 16.8993 1.84024 16.7937 1.7777C16.6843 1.71516 16.5554 1.66435 16.5007 1.66435C16.446 1.66435 16.3131 1.70734 16.2076 1.75816C16.0826 1.82069 15.8911 1.98095 15.6801 2.19983ZM5.00465 27.9657C5.03982 27.9852 5.35242 28.1611 5.69629 28.3604C6.04015 28.5559 6.33322 28.7279 6.35276 28.7435C6.36839 28.7591 5.80179 29.791 5.09061 31.0379C4.37944 32.2847 3.79721 33.3166 3.80112 33.3322C3.80112 33.3518 4.69204 33.3635 7.76729 33.3674L8.74418 34.6729C9.27952 35.3882 9.72888 35.9706 9.74061 35.9628C9.75233 35.9589 10.358 34.9035 11.0887 33.6215C11.8194 32.3434 12.4329 31.2958 12.4564 31.2919C12.4759 31.2919 12.808 31.4678 13.1871 31.6828C13.57 31.8978 13.8826 32.0815 13.8826 32.0932C13.8826 32.1049 13.0034 33.6567 11.9249 35.5406C10.8504 37.4285 9.95552 38.9842 9.9438 38.9998C9.92817 39.0154 9.24044 38.1282 6.91544 35.0247L0.90562 34.9856L2.82423 31.6242C3.88318 29.7754 4.78973 28.1885 4.84053 28.0947C4.91868 27.9618 4.94994 27.9383 5.00465 27.9657ZM28.071 27.9618C28.0866 27.9774 28.997 29.5643 32.0957 34.9856L26.0859 35.0247L24.5854 37.0259C23.7609 38.1282 23.0732 39.0154 23.0576 38.9998C23.0458 38.9842 22.1588 37.4402 21.0921 35.5719C20.0214 33.6997 19.1383 32.1518 19.1305 32.1323C19.1227 32.1128 19.4392 31.9056 20.5645 31.2528L21.8775 33.5668C22.6004 34.841 23.2139 35.9081 23.2373 35.9315C23.2686 35.9706 23.5147 35.6696 25.2341 33.3674L27.2191 33.3635C28.3093 33.3635 29.2002 33.3518 29.2002 33.3322C29.2002 33.3166 28.6219 32.2847 27.9107 31.0379C27.1996 29.791 26.633 28.7591 26.6486 28.7474C26.6642 28.7318 26.9886 28.5442 27.3637 28.3292C27.7388 28.1103 28.0553 27.9461 28.071 27.9618ZM16.6765 6.68697C17.1415 6.69478 17.6261 6.72605 17.8683 6.76514C18.095 6.80032 18.5092 6.88631 18.7866 6.96057C19.0679 7.03093 19.4704 7.1521 19.6853 7.23418C19.9003 7.31235 20.2871 7.48042 20.545 7.6055C20.8029 7.73058 21.2523 7.99246 21.5414 8.18398C21.8306 8.3755 22.2643 8.69992 22.4988 8.90317C22.7371 9.10642 23.0849 9.44648 23.2764 9.66145C23.464 9.87252 23.7179 10.1813 23.8391 10.3416C23.9602 10.5018 24.1634 10.8028 24.2924 11.006C24.4213 11.2093 24.6362 11.6041 24.7691 11.8855C24.9019 12.163 25.0817 12.5968 25.1676 12.8431C25.2536 13.0893 25.3669 13.4841 25.4216 13.7225C25.4763 13.9571 25.5506 14.3362 25.5818 14.5629C25.6131 14.7896 25.6522 15.2 25.6678 15.4814C25.6834 15.7785 25.6717 16.2084 25.6483 16.5172C25.6209 16.8065 25.574 17.1934 25.5428 17.3771C25.5115 17.5608 25.449 17.8579 25.406 18.0416C25.3591 18.2253 25.281 18.495 25.2341 18.6474C25.1833 18.796 25.0973 19.0344 25.0465 19.1751C24.9918 19.3158 24.9019 19.5269 24.8472 19.6441C24.7925 19.7614 24.6597 20.0272 24.5463 20.2304C24.4369 20.4337 24.2416 20.7581 24.1087 20.9535C23.9797 21.1451 23.7766 21.4265 23.6554 21.5789C23.5382 21.7275 23.2881 22.0089 23.1045 22.2004C22.9208 22.3919 22.6043 22.6851 22.4011 22.8571C22.1979 23.029 21.8189 23.3105 21.561 23.4824C21.3031 23.6544 20.8303 23.928 20.5059 24.0844C20.1855 24.2407 19.6814 24.4479 19.3923 24.5456C19.1031 24.6394 18.6459 24.7645 18.3763 24.8192C18.1067 24.8739 17.7159 24.9365 17.5088 24.956C17.2978 24.9795 16.8406 24.999 16.4929 24.999C16.1412 24.999 15.6996 24.9795 15.5043 24.9599C15.3128 24.9365 14.9259 24.8739 14.6446 24.8192C14.3672 24.7645 13.8982 24.6394 13.6091 24.5456C13.3199 24.4479 12.8198 24.2407 12.4954 24.0844C12.175 23.928 11.6983 23.6544 11.4404 23.4824C11.1825 23.3105 10.8035 23.029 10.6003 22.861C10.3971 22.689 10.0571 22.3646 9.84611 22.1418C9.6351 21.919 9.34204 21.575 9.19355 21.3835C9.04897 21.1881 8.81061 20.8363 8.66603 20.6018C8.52145 20.3633 8.32998 20.0116 8.2362 19.82C8.14242 19.6246 8.00174 19.2924 7.91969 19.0774C7.84153 18.8624 7.73994 18.5732 7.70086 18.4325C7.66179 18.2918 7.58754 17.983 7.53284 17.7485C7.48204 17.51 7.41952 17.1504 7.39217 16.9472C7.3609 16.7439 7.34137 16.2319 7.34137 15.8137C7.34137 15.2938 7.36481 14.9069 7.4078 14.602C7.44687 14.3557 7.52893 13.9336 7.59536 13.6639C7.66179 13.3942 7.77901 12.9994 7.85326 12.7845C7.9275 12.5695 8.11897 12.1239 8.27918 11.7956C8.43939 11.4712 8.7012 11.0021 8.86531 10.7598C9.02943 10.5214 9.2717 10.1891 9.40065 10.0289C9.53351 9.86861 9.80704 9.56764 10.0141 9.36049C10.2173 9.15724 10.5534 8.85627 10.7566 8.69211C10.9598 8.53185 11.2606 8.31297 11.4209 8.20352C11.5811 8.09799 11.7921 7.9651 11.8898 7.91038C11.9875 7.85565 12.261 7.71103 12.4954 7.59377C12.7338 7.47652 13.1011 7.31626 13.316 7.23418C13.5309 7.15601 13.9373 7.03093 14.2148 6.96057C14.4961 6.88631 14.9181 6.80032 15.1526 6.76905C15.3909 6.73387 15.6527 6.69869 15.7387 6.69088C15.8247 6.68306 16.2467 6.68306 16.6765 6.68697ZM14.7618 8.54749C14.5703 8.59439 14.2343 8.69211 14.0194 8.76637C13.8045 8.84063 13.4254 9.00089 13.1793 9.12206C12.9331 9.23932 12.5619 9.45429 12.3587 9.5911C12.1555 9.73181 11.8546 9.9546 11.6944 10.0875C11.5342 10.2204 11.2528 10.4901 11.0692 10.6816C10.8855 10.8731 10.6393 11.1585 10.5182 11.3187C10.3971 11.479 10.2173 11.7448 10.1196 11.905C10.022 12.0653 9.84611 12.4014 9.72498 12.6477C9.60775 12.8939 9.45536 13.2652 9.38502 13.4685C9.31859 13.6717 9.2209 14.0313 9.1701 14.2698C9.11931 14.5043 9.05678 14.9538 9.02943 15.2665C8.99426 15.716 8.99426 15.9505 9.02943 16.4C9.05678 16.7127 9.1154 17.1426 9.15838 17.3576C9.20136 17.5726 9.30687 17.9595 9.39283 18.2175C9.4788 18.4755 9.64292 18.8781 9.75624 19.1165C9.87346 19.351 10.061 19.6871 10.1704 19.8591C10.2838 20.0311 10.487 20.3125 10.6198 20.4845C10.7527 20.6565 11.0301 20.9614 11.2294 21.1568C11.4326 21.3561 11.7217 21.618 11.8702 21.7353C12.0226 21.8564 12.304 22.0519 12.4954 22.173C12.6908 22.2942 13.0425 22.4857 13.2769 22.5991C13.5153 22.7164 13.9178 22.8766 14.1757 22.9626C14.4336 23.0486 14.8478 23.158 15.094 23.2088C15.4964 23.287 15.6488 23.2987 16.5202 23.2987C17.4307 23.2948 17.5323 23.2909 17.9856 23.1932C18.2552 23.1346 18.6811 23.0173 18.9351 22.9274C19.1852 22.8414 19.5564 22.689 19.7557 22.5913C19.9511 22.4896 20.2402 22.3372 20.3887 22.2512C20.5411 22.1613 20.8303 21.9659 21.0334 21.8095C21.2366 21.6532 21.561 21.3718 21.7524 21.1803C21.9439 20.9926 22.2096 20.7034 22.3386 20.5431C22.4636 20.3829 22.6746 20.0897 22.8036 19.8982C22.9286 19.7028 23.1279 19.351 23.2412 19.1165C23.3545 18.8781 23.503 18.5263 23.5734 18.3348C23.6398 18.1393 23.7375 17.8071 23.7922 17.5921C23.843 17.3771 23.9133 16.955 23.9485 16.654C23.9954 16.2671 24.0071 15.9544 23.9876 15.5792C23.9758 15.2899 23.9368 14.8834 23.9055 14.6802C23.8703 14.4769 23.8 14.1329 23.7453 13.918C23.6906 13.703 23.5851 13.3669 23.5069 13.1753C23.4327 12.9799 23.2764 12.6398 23.1631 12.4131C23.0458 12.1864 22.8505 11.8542 22.7293 11.6705C22.6082 11.4868 22.3972 11.2054 22.2643 11.0451C22.1315 10.8849 21.854 10.5956 21.6548 10.4041C21.4516 10.2087 21.1546 9.9546 20.9944 9.83343C20.8342 9.71617 20.5528 9.52465 20.3692 9.41521C20.1855 9.30576 19.8885 9.14551 19.7049 9.05952C19.5212 8.97353 19.2164 8.84845 19.0211 8.782C18.8296 8.71165 18.5014 8.61393 18.2982 8.56312C18.095 8.51231 17.7198 8.44195 17.4698 8.40677C17.2158 8.37551 16.7586 8.34814 16.4538 8.35205C16.1451 8.35596 15.7192 8.37941 15.5043 8.41068C15.2893 8.43804 14.9572 8.50058 14.7618 8.54749ZM16.5046 10.9748C16.7039 10.9826 16.7977 11.0099 16.9227 11.092C17.0165 11.1546 17.1103 11.2601 17.1454 11.3383C17.1962 11.4594 17.204 12.0379 17.1845 20.3438L17.0673 20.465C17.0048 20.5314 16.8719 20.6135 16.7742 20.6526C16.6648 20.6956 16.489 20.719 16.3053 20.719C16.0669 20.719 15.9693 20.6995 15.7895 20.6096C15.6371 20.5392 15.5433 20.465 15.5043 20.3868C15.4535 20.2852 15.4456 19.7927 15.4456 13.0581L15.2034 13.3004C15.0666 13.4372 14.8986 13.5623 14.8322 13.5857C14.7423 13.6131 14.6641 13.6131 14.5782 13.5857C14.5078 13.5623 14.418 13.5154 14.375 13.4763C14.3359 13.4411 14.2695 13.3395 14.2265 13.2535C14.164 13.1323 14.1483 13.0424 14.1601 12.8548C14.1718 12.6907 14.203 12.5812 14.2577 12.503C14.3007 12.4444 14.6876 12.1239 15.1174 11.7956C15.5433 11.4672 15.9732 11.1467 16.0709 11.0803C16.2311 10.9708 16.2701 10.963 16.5046 10.9748Z" fill="#F5F5F5"/>
</svg>
