<svg width="37" height="40" viewBox="0 0 37 40" fill="none" xmlns="http://www.w3.org/2000/svg">
<path fill-rule="evenodd" clip-rule="evenodd" d="M17.2677 0.0463017C17.0871 0.0694525 16.8093 0.111124 16.6426 0.138905C16.4759 0.166686 16.0684 0.259289 15.7397 0.342632C15.411 0.430605 14.8878 0.592661 14.5822 0.713045C14.2766 0.8288 13.7858 1.05105 13.4941 1.20847C13.2024 1.36127 12.7625 1.61593 12.5217 1.77798C12.281 1.94004 11.9059 2.21322 11.6883 2.38917C11.4753 2.56048 11.0864 2.91237 10.8317 3.17166C10.5771 3.42632 10.1974 3.85693 9.98904 4.12085C9.78531 4.38477 9.49361 4.79222 9.35007 5.0191C9.20654 5.24598 8.97966 5.64417 8.85465 5.89883C8.725 6.15349 8.5259 6.60262 8.41478 6.89432C8.30366 7.18602 8.15086 7.65366 8.07678 7.9361C8.0027 8.21854 7.91009 8.61211 7.87305 8.81583C7.83601 9.01956 7.78045 9.38998 7.75267 9.64001C7.72952 9.8854 7.70636 10.3623 7.70636 10.6911C7.70636 11.0198 7.73878 11.5152 7.78045 11.793C7.82212 12.0662 7.92398 12.5616 8.00733 12.8904C8.09067 13.2191 8.27124 13.8164 8.40089 14.21C8.53516 14.6035 8.77593 15.2425 8.93336 15.6222C9.09078 16.0065 9.34081 16.5899 9.49361 16.9186C9.64177 17.2474 10.0029 17.9882 10.29 18.5623C10.5817 19.1365 10.9845 19.919 11.1929 20.2986C11.3966 20.6829 11.8504 21.4932 12.1976 22.1044C12.5495 22.7156 13.0588 23.5907 13.332 24.0491C13.6098 24.5075 14.1469 25.3826 14.5266 25.9937C14.9063 26.6049 15.5128 27.5541 15.874 28.1005C16.2305 28.6468 16.6565 29.2951 16.8232 29.5358C16.9223 29.6832 17.1238 29.9813 17.349 30.3146L17.3539 30.3219C17.4953 30.5312 17.6459 30.7541 17.7862 30.9619C18.1474 31.499 18.4622 31.9435 18.4808 31.9435C18.5039 31.9389 18.7215 31.6333 18.9762 31.2582C19.2262 30.8832 19.842 29.9618 20.3467 29.2117C20.8468 28.4616 21.5552 27.3782 21.921 26.804C22.2868 26.2299 22.8377 25.3455 23.148 24.8362C23.4582 24.3269 23.9675 23.4703 24.2824 22.9378C24.5926 22.4054 25.1436 21.433 25.5001 20.7848C25.8566 20.1366 26.44 19.0115 26.8012 18.2845C27.1623 17.5576 27.6161 16.5899 27.8105 16.1315C28.005 15.6731 28.2689 15.0156 28.3939 14.673C28.5236 14.3304 28.7088 13.7562 28.8107 13.3997C28.9172 13.0432 29.0422 12.5339 29.0931 12.2653C29.1487 11.9968 29.2088 11.5615 29.232 11.293C29.2552 11.0198 29.2552 10.5105 29.2366 10.1354C29.2135 9.76502 29.1625 9.26496 29.1209 9.02419C29.0792 8.78342 28.9959 8.37597 28.931 8.12131C28.8662 7.86665 28.7505 7.46846 28.6718 7.24158C28.593 7.0147 28.4356 6.60725 28.3152 6.3387C28.1948 6.07015 27.9494 5.6025 27.7689 5.29691C27.5883 4.99132 27.2827 4.53293 27.0929 4.27827C26.903 4.02361 26.5511 3.6069 26.315 3.35687C26.0742 3.10684 25.6807 2.7318 25.4399 2.5327C25.1991 2.32897 24.75 1.9956 24.4444 1.79187C24.1388 1.58815 23.5878 1.26867 23.2174 1.08809C22.847 0.902882 22.2543 0.657483 21.8978 0.541729C21.5413 0.425975 20.9903 0.27318 20.6708 0.208357C20.3513 0.148165 19.8883 0.0694525 19.6383 0.0463017C19.3929 0.0185207 18.828 0 18.3882 0C17.9529 0.00463017 17.4482 0.0231508 17.2677 0.0463017ZM17.6613 3.09759C17.4714 3.12074 17.1473 3.1763 16.9436 3.21334C16.7399 3.25501 16.3324 3.36614 16.0407 3.46337C15.749 3.56061 15.2999 3.74581 15.0452 3.87083C14.7906 4.00047 14.4062 4.22272 14.1886 4.37088C13.971 4.51905 13.7302 4.69037 13.6562 4.75519C13.5821 4.81538 13.4015 4.97281 13.2626 5.10245C13.1237 5.2321 12.8644 5.49138 12.6931 5.68585C12.5218 5.88032 12.244 6.23684 12.0819 6.47761C11.9198 6.71838 11.6744 7.15824 11.5309 7.44994C11.392 7.74164 11.2161 8.19077 11.1374 8.44543C11.0586 8.70009 10.966 9.05661 10.929 9.23256C10.892 9.4085 10.8364 9.8067 10.8086 10.1123C10.7669 10.5336 10.7669 10.779 10.8086 11.1309C10.8364 11.3856 10.9012 11.7653 10.9521 11.9736C10.9984 12.1866 11.1142 12.5941 11.2068 12.8765C11.2994 13.1636 11.5031 13.7331 11.6652 14.1405C11.8226 14.548 12.1143 15.2333 12.3134 15.6685C12.5125 16.1037 12.8274 16.7658 13.0218 17.1501C13.2117 17.5298 13.5774 18.229 13.8321 18.7012C14.0821 19.1735 14.5498 20.007 14.86 20.5533C15.1702 21.0997 15.6703 21.9563 15.9712 22.4517C16.2676 22.9471 16.6148 23.5212 16.7399 23.725C16.8649 23.9287 17.2955 24.614 17.7029 25.2529C18.1058 25.8873 18.4576 26.4105 18.4762 26.4105C18.4947 26.4105 18.7355 26.0678 19.004 25.6465C19.2726 25.2251 19.8004 24.3917 20.1708 23.7944C20.5412 23.1971 21.0181 22.4146 21.2265 22.0581C21.4231 21.729 21.7893 21.0922 22.0812 20.5847C22.1056 20.5424 22.1294 20.501 22.1525 20.4607C22.4488 19.9375 22.8702 19.1782 23.0924 18.7707C23.3101 18.3632 23.7823 17.4372 24.1389 16.7103C24.4954 15.9833 24.926 15.0573 25.0973 14.6499C25.264 14.2424 25.514 13.5757 25.6529 13.1682C25.7872 12.7607 25.9539 12.2005 26.0187 11.9181C26.0835 11.6356 26.1483 11.2004 26.1669 10.9457C26.1808 10.6911 26.1669 10.2697 26.1391 10.0058C26.1113 9.74651 26.0557 9.37146 26.0141 9.17237C25.977 8.9779 25.8705 8.59823 25.7826 8.32968C25.6946 8.06113 25.5186 7.63515 25.3936 7.38049C25.2732 7.12583 25.0464 6.72764 24.8936 6.50076C24.7408 6.27388 24.4537 5.89421 24.25 5.66733C24.0463 5.44045 23.7036 5.10245 23.4906 4.92187C23.2776 4.7413 22.9443 4.48664 22.7544 4.35699C22.5646 4.23198 22.1942 4.01899 21.9303 3.88935C21.671 3.7597 21.3191 3.60228 21.1431 3.53745C20.9718 3.47263 20.6662 3.3754 20.4625 3.32447C20.2588 3.26891 19.9161 3.19945 19.6985 3.16241C19.4809 3.12537 19.0133 3.0837 18.6567 3.07444C18.3002 3.06518 17.8511 3.07444 17.6613 3.09759Z" fill="#D21341"/>
<path d="M9.88254 25.4428C9.59084 25.503 9.12319 25.6048 8.84075 25.6743C8.55831 25.7391 8.00733 25.8826 7.61376 25.9937C7.2202 26.1049 6.57197 26.3086 6.17841 26.4475C5.78485 26.5864 5.23386 26.7994 4.95142 26.9151C4.66898 27.0355 4.16892 27.2717 3.84018 27.4476C3.5068 27.6189 3.08083 27.8597 2.89099 27.9847C2.70116 28.1051 2.37704 28.3366 2.17332 28.494C1.96959 28.6515 1.65474 28.9246 1.47879 29.1006C1.29822 29.2765 1.0343 29.5775 0.890761 29.7673C0.747226 29.9572 0.543499 30.2813 0.446266 30.485C0.344402 30.6887 0.214757 30.999 0.163826 31.1795C0.108264 31.3601 0.0434412 31.6796 0.0202904 31.8972C-0.0074906 32.1611 -0.00749059 32.4389 0.0249206 32.7306C0.0527016 32.9714 0.117524 33.3048 0.168456 33.4715C0.219388 33.6382 0.339772 33.9299 0.432375 34.1197C0.524978 34.3095 0.673144 34.5688 0.761117 34.6985C0.84909 34.8235 1.04819 35.0735 1.20098 35.2541C1.35378 35.43 1.664 35.731 1.89551 35.9208C2.12239 36.1107 2.52058 36.4024 2.77524 36.5737C3.0299 36.7404 3.47902 37.0043 3.77072 37.1617C4.06242 37.3191 4.59489 37.5692 4.95142 37.722C5.30794 37.8748 5.88208 38.097 6.22471 38.2128C6.56734 38.3331 7.14148 38.5137 7.49801 38.6156C7.85453 38.7221 8.43793 38.8749 8.79445 38.9582C9.15098 39.0416 9.71123 39.1666 10.0446 39.2314C10.3733 39.2962 10.8965 39.3888 11.2021 39.4398C11.5077 39.4907 12.1652 39.5879 12.6606 39.6481C13.1561 39.7129 13.9293 39.7963 14.3738 39.8379C14.8183 39.875 15.5823 39.9259 16.0638 39.9537C16.5454 39.9768 17.6427 40 18.4946 40C19.3466 40 20.4301 39.9768 20.9023 39.9537C21.3746 39.9259 22.1247 39.875 22.5692 39.8333C23.0137 39.7963 23.6388 39.7314 23.9582 39.6944C24.2777 39.6574 24.8704 39.574 25.2778 39.5138C25.6853 39.449 26.2502 39.3564 26.528 39.3055C26.8058 39.2545 27.3614 39.1388 27.755 39.0508C28.1485 38.9628 28.7458 38.8147 29.0746 38.7267C29.4033 38.6387 29.9682 38.4674 30.3247 38.3517C30.6812 38.2313 31.2137 38.0461 31.5054 37.9303C31.7971 37.8192 32.3713 37.5599 32.7787 37.3608C33.1862 37.1617 33.7047 36.8793 33.9363 36.7357C34.1678 36.5922 34.4965 36.3653 34.6771 36.231C34.8577 36.0968 35.1771 35.8236 35.3901 35.6199C35.6031 35.4208 35.9041 35.0874 36.0569 34.8837C36.2097 34.6799 36.4273 34.328 36.5338 34.0965C36.6449 33.865 36.7838 33.5131 36.8394 33.3094C36.9181 33.0084 36.9412 32.814 36.9366 32.2908C36.9366 31.7213 36.9227 31.5916 36.8162 31.2351C36.7468 31.0128 36.6079 30.6702 36.5106 30.4711C36.4134 30.2766 36.2374 29.9896 36.1263 29.8368C36.0152 29.684 35.7883 29.4154 35.6216 29.2395C35.4596 29.0635 35.1679 28.795 34.978 28.6422C34.7882 28.4894 34.4132 28.2162 34.1446 28.0403C33.8761 27.8643 33.2649 27.5263 32.7787 27.2856C32.2925 27.0494 31.6073 26.7485 31.2508 26.6142C30.8942 26.4845 30.3432 26.2947 30.0238 26.1928C29.7043 26.091 29.0931 25.9197 28.6579 25.8085C28.2226 25.6974 27.5651 25.5446 27.1855 25.4659C26.8104 25.3872 26.4678 25.3224 26.4215 25.3224C26.3706 25.3177 26.0511 25.753 25.426 26.6883C24.9259 27.4384 24.5139 28.0681 24.5139 28.0866C24.5139 28.1097 24.6944 28.1514 24.9167 28.1838C25.1436 28.2209 25.7316 28.3274 26.227 28.4246C26.7225 28.5218 27.4633 28.6885 27.8707 28.795C28.2782 28.9015 29.0051 29.1191 29.4913 29.2812C29.9775 29.4386 30.6211 29.684 30.9266 29.8136C31.2322 29.9479 31.6906 30.1748 31.9453 30.3137C32.1999 30.4526 32.5333 30.6517 32.6861 30.7536C32.8389 30.8554 33.1213 31.0962 33.3112 31.2907C33.5056 31.4851 33.7047 31.7398 33.7649 31.8602C33.8251 31.9991 33.8668 32.1704 33.8668 32.3139C33.8668 32.4714 33.8251 32.6288 33.7372 32.8047C33.6584 32.976 33.4918 33.1798 33.2649 33.3974C33.075 33.578 32.7509 33.8372 32.5472 33.9715C32.3435 34.1058 31.8851 34.3605 31.5286 34.5364C31.172 34.7077 30.6812 34.93 30.4405 35.0226C30.1997 35.1198 29.7182 35.2865 29.3755 35.4022C29.0329 35.5134 28.4773 35.6801 28.1485 35.768C27.8198 35.856 27.2734 35.9903 26.9447 36.0644C26.616 36.1384 25.9909 36.2588 25.5557 36.3375C25.1204 36.4116 24.4537 36.5181 24.074 36.569C23.6897 36.6246 22.9303 36.708 22.384 36.7589C21.8376 36.8098 20.731 36.8746 19.93 36.907C18.791 36.9487 18.152 36.9487 17.013 36.907C16.212 36.8746 15.1193 36.8098 14.5822 36.7589C14.0451 36.708 13.2857 36.6246 12.8921 36.569C12.4986 36.5181 11.8272 36.4163 11.3966 36.3375C10.9706 36.2635 10.253 36.1153 9.7992 36.0134C9.35007 35.9069 8.70648 35.7402 8.37774 35.643C8.04437 35.5458 7.60913 35.4115 7.4054 35.3467C7.20168 35.2772 6.79422 35.1291 6.50252 35.0133C6.21082 34.8976 5.72002 34.6846 5.41443 34.5364C5.10884 34.3836 4.65972 34.1336 4.41895 33.9762C4.17818 33.8141 3.83092 33.5409 3.64571 33.3603C3.41883 33.1335 3.2753 32.9436 3.18732 32.7538C3.08083 32.5177 3.06694 32.4389 3.09009 32.2213C3.11324 32.0546 3.17343 31.8833 3.27067 31.7166C3.35401 31.5824 3.54848 31.3555 3.70127 31.2119C3.85407 31.073 4.15503 30.8415 4.37265 30.698C4.59026 30.5545 5.01624 30.3091 5.32183 30.1516C5.62742 29.9988 6.16915 29.7534 6.52567 29.6145C6.88219 29.471 7.47486 29.2626 7.84527 29.1515C8.21568 29.0358 8.725 28.8876 8.97966 28.8228C9.23432 28.758 9.66029 28.6515 9.92884 28.5913C10.1974 28.5311 10.7576 28.4153 11.179 28.3412C11.6003 28.2625 12.0448 28.1838 12.1745 28.1699C12.2995 28.1514 12.4199 28.1283 12.4384 28.119C12.4615 28.1097 12.0587 27.4754 11.5494 26.7114C10.7762 25.5539 10.6048 25.3224 10.5169 25.327C10.4613 25.3316 10.1742 25.3826 9.88254 25.4428Z" fill="#D21341"/>
<path d="M17.5825 7.83425C17.7538 7.78332 17.9437 7.73239 17.9992 7.71849C18.0548 7.7046 18.2585 7.69071 18.4484 7.69071C18.6382 7.68608 18.9391 7.71386 19.1197 7.75091C19.3049 7.78795 19.629 7.91296 19.8791 8.03798C20.18 8.19077 20.4023 8.3482 20.5968 8.53803C20.7542 8.69083 20.9672 8.95012 21.0783 9.11681C21.1848 9.28349 21.3283 9.58445 21.3931 9.78818C21.4765 10.0336 21.5228 10.3068 21.5413 10.5985C21.5552 10.9133 21.5413 11.1356 21.4857 11.3856C21.4441 11.5754 21.3376 11.8903 21.245 12.0801C21.1524 12.2699 20.9811 12.5478 20.8607 12.7006C20.7449 12.8487 20.5227 13.0663 20.3699 13.1775C20.2171 13.2932 19.9763 13.446 19.8374 13.5155C19.6985 13.5849 19.4577 13.6821 19.3049 13.7284C19.1105 13.784 18.8697 13.8118 18.4947 13.8118C18.0594 13.8164 17.8974 13.7979 17.6149 13.7099C17.4251 13.6497 17.1334 13.5247 16.9667 13.4367C16.7954 13.3395 16.5176 13.1173 16.3138 12.9182C16.1147 12.7144 15.8925 12.4366 15.7953 12.2653C15.7073 12.0986 15.5823 11.8069 15.5221 11.6171C15.4387 11.3439 15.4156 11.1633 15.4156 10.7605C15.4156 10.3577 15.4387 10.1771 15.5221 9.90393C15.5823 9.7141 15.7073 9.4224 15.7953 9.25571C15.8971 9.0705 16.1101 8.81121 16.337 8.58434C16.5546 8.36672 16.8278 8.15373 16.9899 8.06576C17.1426 7.98704 17.4112 7.88055 17.5825 7.83425Z" fill="#D21341"/>
</svg>
