<svg width="40" height="44" viewBox="0 0 40 44" fill="none" xmlns="http://www.w3.org/2000/svg">
<path fill-rule="evenodd" clip-rule="evenodd" d="M17.4377 0.0712898C17.2827 0.0431063 16.7754 0.0149228 16.3104 0.00552827C15.7984 -0.00856349 15.4367 0.00552827 15.3944 0.0337118C15.3568 0.057198 15.23 0.0806843 15.1126 0.0806843C14.9952 0.0806843 14.8355 0.0994733 14.7603 0.12296C14.6851 0.141749 14.4503 0.198116 14.2436 0.245088C14.0369 0.287363 13.8302 0.34373 13.7833 0.367217C13.741 0.390703 13.6611 0.409492 13.6095 0.409492C13.5578 0.409492 13.5155 0.428281 13.5155 0.456465C13.5155 0.484648 13.4639 0.503437 13.3981 0.503437C13.3323 0.503437 13.2713 0.522226 13.2572 0.55041C13.2431 0.578593 13.2008 0.597382 13.1632 0.597382C13.1256 0.597382 12.8861 0.696024 12.6324 0.818153C12.3835 0.940282 12.1721 1.05771 12.1627 1.0765C12.158 1.09529 12.1298 1.11408 12.1063 1.11408C12.0829 1.11408 11.9372 1.18924 11.7869 1.28318C11.6413 1.37713 11.5145 1.47577 11.5051 1.49456C11.5004 1.51804 11.4628 1.53683 11.4252 1.53683C11.383 1.53683 11.2984 1.5885 11.2327 1.65426C11.1669 1.72003 11.0917 1.7717 11.0683 1.7717C11.0401 1.7717 10.6925 2.1005 10.2932 2.49977C9.89394 2.89904 9.56983 3.24663 9.56983 3.27482C9.56983 3.303 9.51816 3.37346 9.4524 3.43922C9.38664 3.50498 9.33497 3.56605 9.33497 3.58014C9.33497 3.59423 9.2786 3.69287 9.20344 3.80561C9.13299 3.91364 9.04843 4.04517 9.01555 4.09684C8.98267 4.14851 8.9451 4.22836 8.9357 4.27533C8.92161 4.31761 8.88873 4.35518 8.86524 4.35518C8.84176 4.35518 8.81827 4.39746 8.81827 4.44913C8.81827 4.5008 8.80418 4.54307 8.78069 4.54307C8.7619 4.54307 8.71963 4.61353 8.68205 4.69339C8.64447 4.77794 8.56462 4.95174 8.50355 5.08326C8.44249 5.21008 8.39552 5.3557 8.39552 5.39797C8.39552 5.44495 8.37203 5.48252 8.34854 5.48252C8.32506 5.48252 8.30157 5.53419 8.30157 5.59996C8.30157 5.66572 8.27809 5.72678 8.2546 5.74087C8.23111 5.75497 8.20763 5.81603 8.20763 5.88179C8.20763 5.94755 8.19353 5.99922 8.17005 5.99922C8.15126 5.99922 8.10898 6.13075 8.0761 6.29045C8.03853 6.45486 7.99155 6.68972 7.96807 6.82124C7.93988 6.94807 7.89761 7.20172 7.86942 7.38491C7.84124 7.56811 7.81306 8.47937 7.80366 9.41413C7.78487 10.9595 7.77548 11.1286 7.70032 11.2085C7.65805 11.2554 7.57819 11.3776 7.52652 11.4762C7.47485 11.5796 7.41849 11.6641 7.395 11.6688C7.37621 11.6782 7.36212 11.7252 7.36212 11.7768C7.36212 11.8285 7.33863 11.8708 7.31515 11.8708C7.29166 11.8708 7.26818 11.9225 7.26818 11.9882C7.26818 12.054 7.24469 12.1057 7.2212 12.1057C7.19772 12.1057 7.16484 12.1949 7.15074 12.3029C7.13665 12.4157 7.11317 12.6505 7.09907 12.8337C7.08029 13.0263 7.09438 13.2706 7.12726 13.4209C7.15544 13.5618 7.20241 13.7168 7.2259 13.7591C7.24939 13.8061 7.26818 13.8718 7.26818 13.9C7.26818 13.9329 7.34333 14.1067 7.44197 14.2899C7.54062 14.4684 7.7473 14.7502 7.90231 14.9099C8.05731 15.0743 8.21232 15.2058 8.24051 15.2058C8.27339 15.2058 8.30157 15.2199 8.30157 15.2387C8.29687 15.2622 8.44719 15.3562 8.63038 15.4501C8.80888 15.5487 9.00146 15.6286 9.05313 15.6286C9.1048 15.6286 9.14708 15.6474 9.14708 15.6756C9.14708 15.7037 9.24102 15.7225 9.35845 15.7225C9.47588 15.7225 9.57922 15.7413 9.59332 15.7695C9.60741 15.7977 9.66847 15.8165 9.73423 15.8165C9.82818 15.8165 9.85636 15.8447 9.87985 15.9668C9.89394 16.0513 9.91743 16.2064 9.93152 16.3097C9.94561 16.413 9.97379 16.5164 9.99258 16.5446C10.0114 16.5727 10.0443 16.6855 10.063 16.8029C10.0818 16.9203 10.1194 17.0519 10.1382 17.0941C10.1454 17.1086 10.1545 17.1262 10.1642 17.1451C10.1859 17.1876 10.2112 17.2369 10.2274 17.2726C10.2509 17.3243 10.2744 17.4088 10.2744 17.4605C10.2744 17.5122 10.2885 17.5592 10.3073 17.5639C10.3308 17.5733 10.4106 17.7142 10.4858 17.8833C10.561 18.0524 10.6643 18.2309 10.7113 18.2825C10.7535 18.3342 10.7911 18.4047 10.7911 18.4328C10.7911 18.4657 10.8146 18.4939 10.8381 18.4939C10.8616 18.4939 10.8851 18.5174 10.8851 18.5409C10.8851 18.5644 10.9132 18.616 10.9414 18.6536C10.9743 18.6912 11.0448 18.7757 11.0964 18.8462C11.1481 18.9214 11.2514 19.0435 11.3219 19.1233C11.3523 19.1556 11.3926 19.1993 11.4363 19.2468C11.5009 19.3169 11.5731 19.3952 11.6319 19.4569C11.7306 19.5602 11.9044 19.7246 12.0171 19.8185C12.0992 19.8904 12.1962 19.9697 12.2647 20.0256C12.2902 20.0465 12.3118 20.0641 12.3271 20.0769C12.4258 20.1567 12.4305 20.1943 12.4352 20.9929C12.4352 21.7068 12.4258 21.829 12.3647 21.829C12.3271 21.829 12.2567 21.8478 12.2097 21.8712C12.1674 21.8947 12.003 21.9699 11.848 22.0356C11.693 22.1014 11.5286 22.1578 11.4816 22.1578C11.4393 22.1578 11.4018 22.1813 11.4018 22.2047C11.4018 22.2282 11.3595 22.2517 11.3078 22.2517C11.2561 22.2517 11.2139 22.2752 11.2139 22.2987C11.2139 22.3222 11.1622 22.3457 11.0964 22.3457C11.0307 22.3457 10.9743 22.3598 10.9649 22.3785C10.9602 22.402 10.8475 22.4537 10.7207 22.5054C10.6675 22.5244 10.6073 22.5464 10.549 22.5679C10.4631 22.5994 10.3811 22.6295 10.3308 22.6463C10.2509 22.6745 10.1805 22.712 10.1805 22.7308C10.1805 22.7543 10.1288 22.7684 10.063 22.7684C9.99728 22.7684 9.94561 22.7919 9.94561 22.8154C9.94561 22.8389 9.90333 22.8624 9.85167 22.8624C9.8 22.8624 9.75772 22.8858 9.75772 22.9093C9.75772 22.9328 9.72484 22.9563 9.68726 22.9563C9.64968 22.9563 9.48528 23.0127 9.32088 23.0784C9.16117 23.1442 8.99207 23.2194 8.9451 23.2428C8.90282 23.2663 8.83236 23.2851 8.79478 23.2851C8.75721 23.2851 8.72432 23.3086 8.72432 23.3321C8.72432 23.3556 8.69144 23.3791 8.65387 23.3791C8.61629 23.3791 8.54583 23.3978 8.49886 23.4213C8.45658 23.4448 8.33915 23.4965 8.24051 23.5388C8.14656 23.581 8.05731 23.6139 8.04322 23.6139C8.02913 23.6139 7.92109 23.6562 7.79427 23.7126C7.67214 23.7642 7.53592 23.83 7.48895 23.8535C7.44667 23.877 7.37621 23.8958 7.33863 23.8958C7.30106 23.8958 7.26818 23.9192 7.26818 23.9427C7.26818 23.9662 7.2259 23.9897 7.17423 23.9897C7.12256 23.9897 7.07089 24.0132 7.0568 24.0367C7.04271 24.0602 7.00043 24.0836 6.96285 24.0836C6.92528 24.0836 6.77966 24.1353 6.64344 24.2011C6.51192 24.2668 6.36161 24.3185 6.31463 24.3185C6.27236 24.3185 6.23478 24.342 6.23478 24.3655C6.23478 24.389 6.1925 24.4125 6.14083 24.4125C6.08917 24.4125 6.04689 24.4359 6.04689 24.4594C6.04689 24.4829 6.00461 24.5064 5.95294 24.5064C5.90128 24.5064 5.84961 24.5299 5.83551 24.5534C5.82142 24.5769 5.77915 24.6003 5.74157 24.6003C5.70399 24.6003 5.55368 24.652 5.41276 24.7178C5.27184 24.7835 5.12153 24.8352 5.08395 24.8352C5.04638 24.8352 5.01349 24.8587 5.01349 24.8822C5.01349 24.9057 4.97122 24.9292 4.91955 24.9292C4.86788 24.9292 4.81621 24.9526 4.80212 24.9761C4.78803 24.9996 4.74575 25.0231 4.70817 25.0231C4.67059 25.0231 4.4827 25.0983 4.29481 25.1875C4.11162 25.2767 3.92843 25.3519 3.89555 25.3519C3.86736 25.3519 3.83918 25.366 3.83918 25.3848C3.83918 25.4083 3.74993 25.4646 3.64659 25.5163C3.53856 25.568 3.41173 25.6478 3.36476 25.6901C3.31779 25.7371 3.26142 25.7747 3.23793 25.7747C3.21914 25.7747 3.14868 25.8216 3.08292 25.8827C3.06215 25.8993 3.03566 25.9208 3.0061 25.9448C2.9354 26.0023 2.84716 26.074 2.7776 26.127C2.67896 26.2021 2.45819 26.4088 2.28909 26.5779C2.11999 26.747 1.93679 26.9396 1.87573 27.01C1.81936 27.0805 1.77239 27.1509 1.77239 27.1697C1.77239 27.1932 1.73011 27.2402 1.67844 27.2778C1.62677 27.3154 1.5845 27.3764 1.5845 27.4046C1.5845 27.4375 1.54692 27.5079 1.49995 27.5549C1.45767 27.6066 1.34494 27.8039 1.25099 27.9918C1.15705 28.1796 1.04432 28.4098 1.00674 28.4991C0.969159 28.5883 0.912792 28.748 0.879911 28.8514C0.847031 28.9547 0.804755 29.0862 0.781269 29.1426C0.757783 29.2036 0.738994 29.3258 0.738994 29.415C0.738994 29.5043 0.720205 29.5794 0.692021 29.5794C0.663838 29.5794 0.630957 29.7438 0.616865 29.9411C0.602773 30.1431 0.588682 32.2944 0.583984 34.7229C0.583984 37.1514 0.598076 39.2229 0.621562 39.3262C0.640351 39.4296 0.668535 39.5235 0.687324 39.5376C0.701416 39.5517 0.757783 39.6409 0.809453 39.7396C0.861122 39.8382 0.969159 39.9838 1.04901 40.0684C1.12887 40.1529 1.27918 40.261 1.37782 40.3127C1.47646 40.3643 1.56571 40.4207 1.57041 40.4395C1.5798 40.463 1.65026 40.4771 1.72542 40.4771C1.80057 40.4771 1.86633 40.5005 1.86633 40.524C1.86633 40.5569 5.67581 40.571 13.1961 40.571L24.5306 40.5757C27.0577 43.1075 27.8515 43.8591 27.9455 43.9107C28.1193 43.9953 28.3119 44 33.089 44C37.5326 44 38.0775 43.9953 38.2466 43.9295C38.2842 43.9142 38.3267 43.8963 38.3693 43.8784C38.4437 43.8472 38.5182 43.8159 38.566 43.798C38.6364 43.7651 38.6928 43.7276 38.6928 43.7041C38.6928 43.6853 38.721 43.6712 38.7492 43.6712C38.782 43.6665 38.8572 43.6101 38.9183 43.5397C38.9793 43.4692 39.0639 43.3565 39.1062 43.2813C39.1484 43.2109 39.2001 43.1545 39.2189 43.1545C39.2424 43.1545 39.2565 43.1122 39.2565 43.0605C39.2565 43.0089 39.28 42.9572 39.3034 42.9431C39.3269 42.929 39.3645 42.8398 39.3833 42.7411C39.3974 42.6472 39.4162 38.5935 39.4162 33.7365C39.4162 28.1984 39.4021 24.8305 39.3739 24.7037C39.3457 24.5956 39.3128 24.5064 39.2894 24.5064C39.2706 24.5064 39.2565 24.4782 39.2565 24.4453C39.2565 24.4171 39.2283 24.3232 39.1907 24.2481C39.1531 24.1729 39.0639 24.0508 38.9887 23.9803C38.9183 23.9051 38.7961 23.7971 38.7163 23.7314C38.6364 23.6703 38.5002 23.5857 38.411 23.5529C38.3217 23.5153 38.1479 23.4589 38.0211 23.4307C37.8755 23.3978 37.0582 23.3791 35.555 23.3791C33.9063 23.3791 33.2675 23.3978 33.1406 23.4401C33.0467 23.4683 32.9199 23.5482 32.8588 23.6139C32.7977 23.6797 32.7226 23.8065 32.6944 23.8958C32.6474 24.0273 32.6474 24.093 32.6944 24.2246C32.7226 24.3138 32.793 24.4312 32.8447 24.4829C32.8964 24.5393 32.9809 24.6003 33.0326 24.6238C33.0843 24.652 34.1787 24.6802 35.5409 24.6943C37.6312 24.7131 37.96 24.7272 37.9835 24.7882C37.9976 24.8258 38.0352 24.8869 38.0681 24.9151C38.1197 24.9667 38.1291 26.6765 38.1291 33.6895C38.1291 40.5663 38.115 42.4264 38.0681 42.5204C38.0399 42.5861 37.9835 42.6378 37.9506 42.6378C37.9225 42.6378 37.8943 42.6613 37.8943 42.6848C37.8943 42.7176 36.3677 42.7317 33.4084 42.7317H28.9225C28.8896 40.9656 28.8661 40.5898 28.8239 40.4724C28.7863 40.3784 28.7393 40.2798 28.7205 40.261C28.7017 40.2375 28.6876 40.1905 28.6876 40.1576C28.6876 40.1295 28.6407 40.0496 28.5796 39.9885C28.5232 39.9275 28.4434 39.8382 28.4011 39.7913C28.3588 39.7396 28.2837 39.6691 28.2367 39.6316C28.1897 39.5893 28.0394 39.5047 27.9126 39.4437C27.6871 39.3309 27.6402 39.3262 26.588 39.3121L25.4935 39.3027C25.4935 25.4083 25.4982 24.8775 25.5734 24.7976C25.6438 24.7225 25.8505 24.7178 28.0958 24.6896C29.4439 24.6755 30.5478 24.6614 30.5525 24.6567C30.5572 24.652 30.6323 24.5769 30.7216 24.4923C30.8155 24.4031 30.8907 24.2762 30.9095 24.1635C30.9329 24.0508 30.9188 23.9333 30.8766 23.8347C30.8437 23.7548 30.7732 23.6421 30.7263 23.5904C30.6746 23.5341 30.5525 23.4683 30.4491 23.4354C30.3035 23.3885 29.721 23.3791 27.9831 23.3932C26.7289 23.4025 25.6297 23.426 25.5405 23.4448C25.4512 23.4636 25.3056 23.5106 25.2211 23.5482C25.1412 23.5857 25.0473 23.6139 25.0238 23.6139C25.0003 23.6139 24.9768 23.6374 24.9768 23.6609C24.9768 23.6844 24.9345 23.7079 24.8829 23.7079C24.8312 23.7079 24.7795 23.6844 24.7654 23.6609C24.7514 23.6374 24.7091 23.6139 24.6715 23.6139C24.6339 23.6139 24.4883 23.5623 24.3521 23.4965C24.2206 23.4307 24.0702 23.3791 24.0233 23.3791C23.981 23.3791 23.9434 23.3556 23.9434 23.3321C23.9434 23.3086 23.9011 23.2851 23.8495 23.2851C23.7978 23.2851 23.7461 23.2616 23.732 23.2381C23.718 23.2147 23.6757 23.1912 23.6381 23.1912C23.6005 23.1912 23.4079 23.116 23.2153 23.0268C23.0228 22.9375 22.8302 22.8624 22.7926 22.8624C22.755 22.8624 22.7221 22.8389 22.7221 22.8154C22.7221 22.7919 22.6705 22.7684 22.6047 22.7684C22.5389 22.7684 22.4873 22.7449 22.4873 22.7214C22.4873 22.698 22.4544 22.6745 22.4168 22.6745C22.3792 22.6745 22.2242 22.6181 22.0739 22.5523C22.0519 22.5424 22.0292 22.5321 22.0064 22.5218C21.8782 22.4637 21.7446 22.4032 21.6887 22.3832C21.6796 22.3793 21.6701 22.3753 21.6602 22.3711C21.5991 22.3449 21.5272 22.3142 21.4868 22.294C21.4445 22.2705 21.374 22.2517 21.3364 22.2517C21.2989 22.2517 21.266 22.2282 21.266 22.2047C21.266 22.1813 21.2331 22.1578 21.1955 22.1578C21.158 22.1578 21.0029 22.1014 20.8526 22.0356C20.707 21.9699 20.5473 21.8947 20.5003 21.8712C20.4581 21.8478 20.3876 21.829 20.35 21.829C20.3124 21.829 20.2702 21.7961 20.2561 21.7585C20.242 21.7209 20.2326 21.3311 20.2326 20.8895V20.091C20.5003 19.8561 20.7258 19.64 20.909 19.4569C21.0922 19.2737 21.2895 19.0717 21.3505 18.9965C21.4069 18.9261 21.5337 18.7476 21.6277 18.5973C21.7263 18.4516 21.8203 18.3201 21.8344 18.306C21.8484 18.2919 21.8907 18.2121 21.9283 18.1275C21.9659 18.0477 22.0082 17.9772 22.0269 17.9772C22.0504 17.9772 22.0645 17.9349 22.0645 17.8833C22.0645 17.8316 22.088 17.7893 22.1115 17.7893C22.135 17.7893 22.1585 17.7611 22.1585 17.7283C22.1585 17.7001 22.2148 17.5357 22.2806 17.3666C22.3464 17.1975 22.4215 17.0237 22.445 16.9767C22.4685 16.9344 22.4873 16.8452 22.4873 16.7794C22.4873 16.7137 22.5108 16.662 22.5342 16.662C22.5577 16.662 22.5812 16.5821 22.5812 16.4835C22.5812 16.3895 22.6 16.2909 22.6235 16.2627C22.647 16.2345 22.6752 16.1312 22.6846 16.0279C22.6987 15.8682 22.7174 15.84 22.8161 15.8259C22.8818 15.8165 22.9523 15.7883 22.9758 15.7648C23.004 15.7413 23.0932 15.7225 23.1778 15.7225C23.2623 15.7225 23.3704 15.7037 23.4126 15.6803C23.4596 15.6568 23.6381 15.5816 23.8119 15.5159C23.9904 15.4501 24.1313 15.3749 24.1313 15.3468C24.1313 15.3186 24.1548 15.2998 24.1783 15.2998C24.2065 15.2998 24.2816 15.2528 24.3427 15.1917C24.3834 15.1542 24.4534 15.0873 24.5233 15.0205C24.5583 14.9871 24.5932 14.9537 24.6245 14.924C24.7232 14.8348 24.8594 14.6704 24.9345 14.5576C25.0097 14.4496 25.0708 14.3415 25.0708 14.3134C25.0708 14.2852 25.0943 14.2664 25.1177 14.2664C25.1412 14.2664 25.1647 14.2241 25.1647 14.1724C25.1647 14.1208 25.1788 14.0785 25.1976 14.0785C25.2211 14.0785 25.268 13.9564 25.315 13.8061C25.3573 13.6604 25.4184 13.3927 25.4465 13.2095C25.4935 12.9652 25.4935 12.8196 25.4559 12.6458C25.4278 12.5143 25.3902 12.3264 25.3761 12.2231C25.3573 12.1197 25.2634 11.8614 25.16 11.6453C25.0614 11.4339 24.9627 11.2601 24.9392 11.2601C24.9205 11.2601 24.8688 11.1897 24.8265 11.1098C24.7514 10.9736 24.742 10.7528 24.7232 9.21684C24.7138 8.22102 24.6809 7.34733 24.6527 7.17354C24.6485 7.148 24.644 7.12139 24.6394 7.09428C24.6138 6.94185 24.5855 6.77346 24.5776 6.68972C24.5635 6.59577 24.5306 6.50653 24.5071 6.49243C24.4836 6.47834 24.4601 6.40319 24.4601 6.32803C24.4601 6.25287 24.4413 6.14954 24.4225 6.10256C24.3991 6.06029 24.3333 5.88649 24.2722 5.71739C24.2159 5.54829 24.1595 5.3557 24.1501 5.28054C24.1407 5.21008 24.1078 5.15372 24.0843 5.15372C24.0609 5.15372 24.0374 5.11144 24.0374 5.05977C24.0374 5.0081 24.0139 4.96583 23.9904 4.96583C23.9669 4.96583 23.9434 4.93295 23.9434 4.89537C23.9434 4.85779 23.873 4.70278 23.7884 4.55247C23.7569 4.49505 23.7218 4.43252 23.6885 4.37322C23.6373 4.28215 23.5904 4.19872 23.5676 4.1532C23.5301 4.08274 23.4831 4.02638 23.4596 4.02638C23.4408 4.02638 23.4267 4.00759 23.4267 3.9794C23.4267 3.95122 23.3704 3.84318 23.2999 3.73045C23.2294 3.62241 23.1355 3.50028 23.0932 3.46271C23.0509 3.42513 23.0087 3.36876 22.9993 3.33588C22.9899 3.3077 22.8959 3.18087 22.7926 3.05874C22.6893 2.93192 22.4215 2.65008 22.2007 2.42931C21.98 2.20854 21.7592 1.99716 21.7075 1.95959C21.6606 1.91731 21.5337 1.82337 21.4304 1.74821C21.3271 1.66836 21.2002 1.56971 21.1486 1.52274C21.0969 1.48047 21.0264 1.44289 20.9935 1.44289C20.9654 1.44289 20.9372 1.4288 20.9372 1.40531C20.9372 1.38652 20.8197 1.30667 20.6788 1.23151C20.5379 1.15166 20.4205 1.0765 20.4205 1.05302C20.4205 1.03423 20.3782 1.02013 20.3265 1.02013C20.2749 1.02013 20.2279 1.00604 20.2185 0.982557C20.2138 0.963768 20.0353 0.869823 19.8239 0.771181C19.6079 0.677235 19.4012 0.597382 19.3636 0.597382C19.326 0.597382 19.2931 0.578593 19.2931 0.55041C19.2931 0.522226 19.2415 0.503437 19.1757 0.503437C19.11 0.503437 19.0489 0.484648 19.0348 0.456465C19.0207 0.428281 18.9596 0.409492 18.8939 0.409492C18.8281 0.409492 18.7764 0.390703 18.7764 0.362519C18.7764 0.334336 18.7107 0.315547 18.6355 0.315547C18.5604 0.315547 18.4382 0.292061 18.3678 0.263877C18.2926 0.235694 18.1188 0.193418 17.9779 0.165235C17.837 0.137051 17.5927 0.0947761 17.4377 0.0712898ZM36.0952 26.5591L35.9214 26.3853C29.0634 26.3853 27.6543 26.3994 27.6543 26.4323C27.6543 26.4558 27.6214 26.4792 27.5791 26.4792C27.5415 26.4792 27.4664 26.5356 27.4147 26.6061C27.3677 26.6812 27.3114 26.8221 27.2973 26.9255C27.2785 27.057 27.302 27.1697 27.3677 27.3013C27.4241 27.4187 27.518 27.5126 27.6167 27.5596C27.7482 27.6207 28.326 27.6301 31.8536 27.6301C35.0806 27.6301 35.9402 27.616 35.9543 27.569C35.9637 27.5408 36.0013 27.5126 36.0389 27.5126C36.0764 27.5126 36.1093 27.4892 36.1093 27.4657C36.1093 27.4375 36.1469 27.3811 36.1892 27.3388C36.2502 27.2825 36.2737 27.1885 36.2737 26.9959C36.2737 26.747 36.2596 26.7141 36.0952 26.5591ZM35.7335 28.9218C35.7335 28.8889 34.3948 28.8748 31.8113 28.8748C29.2466 28.8748 27.8844 28.8889 27.8656 28.9218C27.8515 28.9453 27.7858 28.9688 27.72 28.9688C27.6496 28.9688 27.5556 29.0158 27.5039 29.0721C27.4523 29.1332 27.3771 29.2553 27.3395 29.3446C27.302 29.4338 27.2832 29.57 27.2973 29.6499C27.3114 29.725 27.363 29.8472 27.4194 29.9176C27.4711 29.9928 27.5791 30.082 27.6543 30.1196C27.7764 30.1807 28.3354 30.1901 31.8113 30.1901C34.9397 30.1901 35.851 30.176 35.9308 30.129C35.9872 30.1008 36.0858 30.021 36.1516 29.9552C36.2549 29.8566 36.269 29.7955 36.269 29.5559C36.269 29.3023 36.2549 29.26 36.1187 29.1191C36.0295 29.0299 35.9214 28.9688 35.851 28.9688C35.7852 28.9688 35.7335 28.9453 35.7335 28.9218ZM34.5122 32.4448C34.5122 32.4166 34.3572 32.3978 34.1365 32.3978C33.9157 32.3978 33.7607 32.4166 33.7607 32.4448C33.7607 32.4682 33.6855 32.4917 33.5963 32.4917C33.507 32.4917 33.4319 32.5105 33.4319 32.5387C33.4319 32.5622 33.4037 32.5857 33.3708 32.5857C33.3426 32.5904 33.2064 32.6655 33.0796 32.7642C32.9481 32.8581 32.7038 33.0742 32.5347 33.2433C32.3656 33.4124 32.1073 33.652 31.9569 33.7835C31.8113 33.9103 31.5624 34.1405 31.4074 34.2861L31.1302 34.5585C30.6558 34.0841 30.4961 33.9479 30.4726 33.9479C30.4491 33.9479 30.4209 33.9338 30.4115 33.9103C30.4068 33.8915 30.28 33.821 30.1297 33.7459C29.9042 33.6379 29.8009 33.6191 29.4627 33.6191C29.1245 33.6191 29.0165 33.6379 28.7675 33.7506C28.6078 33.8257 28.387 33.9714 28.2743 34.0794C28.1663 34.1874 28.077 34.2955 28.077 34.3237C28.077 34.3471 28.0535 34.3706 28.0206 34.3706C27.9878 34.3706 27.9408 34.4505 27.9079 34.5444C27.8856 34.6114 27.8568 34.7043 27.8318 34.785C27.8199 34.8232 27.8089 34.8587 27.7999 34.8873C27.7717 34.9766 27.7482 35.1786 27.7482 35.3336C27.7482 35.4886 27.7858 35.7187 27.8327 35.8503C27.875 35.9771 27.9549 36.1556 28.0065 36.2401C28.0582 36.3247 28.1146 36.3904 28.1334 36.3904C28.1569 36.3904 28.171 36.4092 28.171 36.4374C28.171 36.4609 28.5608 36.8696 29.0352 37.3393C29.5097 37.8137 29.9371 38.2318 29.9841 38.2693C29.9902 38.2738 29.997 38.2787 30.0042 38.284C30.0578 38.3233 30.1386 38.3824 30.2049 38.4197C30.2753 38.4666 30.3646 38.5042 30.4021 38.5042C30.4397 38.5042 30.4726 38.523 30.4726 38.5512C30.4726 38.5747 30.5478 38.5982 30.637 38.5982C30.7263 38.5982 30.8108 38.6169 30.8249 38.6451C30.839 38.6686 30.9517 38.6921 31.0832 38.6921C31.2101 38.6921 31.3275 38.6686 31.3416 38.6451C31.3557 38.6169 31.4402 38.5982 31.5295 38.5982C31.6187 38.5982 31.6939 38.5747 31.6939 38.5512C31.6939 38.523 31.7315 38.5042 31.7737 38.5042C31.8207 38.5042 31.9335 38.4431 32.0227 38.3774C32.1119 38.3069 32.22 38.213 32.2576 38.166C32.2951 38.1237 32.3421 38.0862 32.3609 38.0815C32.3844 38.0815 32.5441 37.9405 32.7226 37.762C32.8928 37.6006 33.1117 37.3904 33.236 37.271L33.2628 37.2453C33.3802 37.1373 33.4882 37.0481 33.4976 37.0481C33.5117 37.0481 33.6902 36.8837 33.8922 36.6817C34.0989 36.4844 34.4183 36.1838 34.6109 36.0147C34.7988 35.8456 35.0806 35.5825 35.2403 35.4275C35.4 35.2725 35.5691 35.0705 35.6208 34.9813C35.6678 34.892 35.7335 34.7417 35.7664 34.6525C35.7993 34.5632 35.8275 34.2908 35.8275 34.0512C35.8275 33.7929 35.8087 33.6191 35.7805 33.6191C35.757 33.6191 35.7335 33.5768 35.7335 33.5251C35.7335 33.4735 35.71 33.4218 35.6866 33.4077C35.6631 33.3936 35.6396 33.3466 35.6396 33.2997C35.6396 33.2574 35.5597 33.1353 35.4658 33.0319C35.3671 32.9239 35.2121 32.783 35.1229 32.7125C35.0336 32.6467 34.9209 32.5857 34.8739 32.5857C34.8317 32.5857 34.7941 32.5622 34.7941 32.5387C34.7941 32.5105 34.733 32.4917 34.6532 32.4917C34.5733 32.4917 34.5122 32.4682 34.5122 32.4448ZM17.015 1.3255C16.7332 1.28792 16.3809 1.26443 16.24 1.26443C16.0991 1.26913 15.7609 1.29731 15.4884 1.33019C15.2933 1.35711 15.0788 1.38403 14.9332 1.40231C14.8755 1.40955 14.8286 1.41544 14.7979 1.41944C14.6852 1.43353 14.5865 1.46172 14.5725 1.4899C14.5584 1.51808 14.4785 1.53687 14.394 1.53687C14.3094 1.53687 14.2202 1.55566 14.192 1.57445C14.1685 1.59794 14.0558 1.64021 13.9383 1.67779C13.8209 1.71067 13.6001 1.79522 13.4451 1.86098C13.2901 1.92674 13.1586 1.9972 13.1539 2.01599C13.1445 2.03478 13.0975 2.05357 13.0458 2.05357C12.9942 2.05357 12.9519 2.07236 12.9519 2.10054C12.9519 2.12873 12.9143 2.14751 12.872 2.14751C12.8251 2.14282 12.764 2.1757 12.7358 2.21797C12.7076 2.25555 12.6513 2.28843 12.609 2.28843C12.5667 2.28843 12.5291 2.30252 12.5291 2.32601C12.5338 2.3448 12.4681 2.39177 12.3882 2.42935C12.3084 2.46693 12.2426 2.5139 12.2473 2.53739C12.2473 2.55618 12.2238 2.57027 12.1956 2.57027C12.1675 2.57027 12.1205 2.59845 12.0829 2.63133C12.05 2.65952 11.9655 2.72997 11.8903 2.78164C11.8199 2.83331 11.6789 2.95074 11.5803 3.03999C11.477 3.12924 11.3173 3.27955 11.2233 3.3688C11.1294 3.46275 10.965 3.63185 10.8616 3.74458C10.7583 3.86201 10.6315 4.01702 10.5798 4.09218C10.5465 4.13755 10.5055 4.19071 10.4729 4.23285C10.4549 4.25615 10.4395 4.27608 10.4295 4.28946C10.3966 4.32704 10.3684 4.37401 10.3684 4.4022C10.3684 4.43038 10.3543 4.44917 10.3355 4.44917C10.312 4.44917 10.2322 4.5666 10.157 4.70752C10.0819 4.84844 10.002 4.96587 9.98324 4.96587C9.95975 4.96587 9.94566 5.00814 9.94566 5.05981C9.94566 5.11148 9.92217 5.15376 9.89869 5.15376C9.8752 5.15376 9.85171 5.18194 9.85171 5.21482C9.85171 5.243 9.79065 5.39801 9.71549 5.55302C9.64503 5.70803 9.54639 5.95229 9.49942 6.09321C9.45245 6.23413 9.40078 6.38913 9.37729 6.43611C9.3538 6.47838 9.33502 6.58172 9.33502 6.65688C9.33502 6.73203 9.31153 6.7978 9.28804 6.7978C9.26456 6.7978 9.23168 6.89644 9.21758 7.02326C9.20819 7.14539 9.16591 7.52117 9.12834 7.85468C9.09076 8.18818 9.05788 8.83171 9.05788 9.27795C9.05318 9.98723 9.06257 10.0953 9.13773 10.161C9.1894 10.2127 9.22228 10.2221 9.23168 10.1845C9.23637 10.1563 9.32562 10.1328 9.42896 10.1328C9.5323 10.1328 9.62625 10.1141 9.64034 10.0859C9.65443 10.0577 9.7061 10.0389 9.75777 10.0389C9.80944 10.0389 9.85171 10.006 9.85171 9.96844C9.85171 9.93086 9.88929 9.84162 9.93157 9.77116C9.97854 9.696 10.0772 9.57387 10.157 9.49402C10.2322 9.41417 10.3496 9.32022 10.4154 9.28264C10.4999 9.23567 10.8053 9.20749 11.4723 9.184C11.989 9.16521 12.656 9.12763 12.9519 9.10415C13.2478 9.07596 13.6189 9.03838 13.7739 9.0102C13.9289 8.98202 14.2249 8.92565 14.4315 8.88338C14.6382 8.8411 14.8778 8.79883 14.9623 8.78943C15.0422 8.78004 15.122 8.75185 15.1361 8.72367C15.1502 8.69549 15.2254 8.6767 15.3005 8.6767C15.3757 8.6767 15.4414 8.65791 15.4414 8.62972C15.4414 8.60154 15.5166 8.58275 15.6058 8.58275C15.6951 8.58275 15.7796 8.56866 15.789 8.54987C15.7984 8.52638 15.8689 8.4982 15.9394 8.48411C16.0145 8.46532 16.2024 8.40895 16.3574 8.35259C16.4557 8.31685 16.5596 8.27734 16.6357 8.24841C16.6796 8.23171 16.7143 8.21854 16.7332 8.21167C16.7552 8.20168 16.8128 8.1747 16.8914 8.13795C16.9975 8.08829 17.1417 8.02081 17.2875 7.95332C17.5364 7.83589 17.7666 7.73725 17.7901 7.73725C17.8136 7.73725 17.837 7.71846 17.837 7.69027C17.837 7.66209 17.8793 7.6433 17.931 7.6433C17.9827 7.6433 18.0249 7.62451 18.0249 7.59633C18.0249 7.56814 18.0672 7.54936 18.1189 7.54936C18.1705 7.54936 18.2128 7.53057 18.2128 7.50238C18.2128 7.4742 18.2504 7.44602 18.2974 7.43662C18.3396 7.42253 18.4618 7.36616 18.5651 7.3051C18.6685 7.24403 18.7624 7.18767 18.7765 7.17358C18.7906 7.15948 18.8517 7.12191 18.9174 7.08433C18.9536 7.06367 19.0082 7.03165 19.0648 6.99843C19.1113 6.97121 19.1591 6.94319 19.1992 6.91992C19.3261 6.84477 19.4435 6.82598 19.7394 6.82598C20.0448 6.82598 20.1481 6.84477 20.2937 6.92932C20.3877 6.98569 20.6084 7.17827 20.7822 7.35207C20.9607 7.52587 21.2801 7.86877 21.5009 8.11303C21.7217 8.35728 21.9753 8.63442 22.0646 8.72837C22.1538 8.82231 22.2806 8.96323 22.3464 9.04778C22.4122 9.13233 22.5108 9.25446 22.5719 9.32492C22.6282 9.39538 22.6846 9.48462 22.694 9.5222C22.7034 9.55978 22.7269 9.6913 22.741 9.81813C22.7692 10.0342 22.7739 10.0389 22.9336 10.0389C23.0228 10.0389 23.098 10.0577 23.098 10.0859C23.098 10.1141 23.1731 10.1328 23.2624 10.1328H23.4268C23.4268 8.1647 23.408 7.50708 23.3845 7.39904C23.3707 7.34382 23.349 7.24913 23.3238 7.13929C23.2976 7.02492 23.2676 6.89411 23.2389 6.77431C23.1825 6.54414 23.1308 6.29519 23.1168 6.22473C23.1074 6.14957 23.0745 6.09321 23.051 6.09321C23.0275 6.09321 23.004 6.05093 23.004 5.99926C23.004 5.94759 22.9852 5.86774 22.9617 5.82546C22.9383 5.77849 22.8772 5.64697 22.8255 5.52954C22.8068 5.48705 22.7851 5.43718 22.7629 5.38639C22.7238 5.2968 22.6834 5.20432 22.6564 5.14436C22.6141 5.04572 22.5578 4.96587 22.5343 4.96587C22.5108 4.96587 22.4873 4.92359 22.4873 4.87192C22.4873 4.82025 22.4638 4.77798 22.4404 4.77798C22.4169 4.77798 22.3934 4.7451 22.3934 4.70752C22.3934 4.66994 22.3793 4.63236 22.3558 4.62766C22.337 4.61827 22.2525 4.51023 22.1726 4.37871C22.0928 4.25188 21.9659 4.08278 21.9002 4.00293C21.8419 3.94077 21.7579 3.83361 21.6907 3.74792C21.6767 3.73001 21.6634 3.71304 21.6512 3.69761C21.5808 3.60836 21.4727 3.48623 21.407 3.42517C21.3412 3.3641 21.1956 3.23728 21.0781 3.14333C20.9655 3.04945 20.8059 2.90865 20.726 2.83815L20.7259 2.83801C20.6507 2.76755 20.5708 2.70649 20.5521 2.71118C20.5286 2.71118 20.4675 2.66421 20.4111 2.60315C20.3501 2.54208 20.2326 2.46223 20.1481 2.42465C20.0682 2.39177 19.9978 2.3495 19.9978 2.3354C20.0025 2.32131 19.7629 2.18979 19.4717 2.04418C19.1805 1.89386 18.8704 1.75764 18.7812 1.73885C18.6966 1.72006 18.6168 1.68718 18.6074 1.66839C18.598 1.64491 18.5369 1.63082 18.4712 1.63082C18.4054 1.63082 18.3443 1.61203 18.3303 1.58384C18.3162 1.55566 18.2363 1.52748 18.1565 1.51808C18.0719 1.50399 17.8981 1.47111 17.7666 1.44293C17.6398 1.41474 17.2969 1.36307 17.015 1.3255ZM19.9085 8.31501C19.8287 8.23046 19.7206 8.16 19.669 8.16C19.6173 8.16 19.575 8.17879 19.575 8.20697C19.575 8.23516 19.5328 8.25394 19.4811 8.25394C19.4341 8.25394 19.3636 8.28683 19.3308 8.3244C19.2979 8.36668 19.2415 8.39956 19.2133 8.39486C19.1805 8.39486 19.1523 8.40895 19.1523 8.42774C19.1523 8.45123 19.1053 8.48881 19.0442 8.51699C19.0106 8.5366 18.8968 8.59462 18.7507 8.66915C18.6517 8.71961 18.538 8.77762 18.4242 8.8364C18.1424 8.98202 17.8793 9.09945 17.8511 9.09945C17.8183 9.09945 17.7901 9.11354 17.7901 9.13703C17.7901 9.15582 17.7196 9.19339 17.6398 9.22158C17.5894 9.23836 17.5074 9.26846 17.4216 9.29999C17.3632 9.32141 17.3031 9.34349 17.2499 9.3625C17.1231 9.41417 17.0103 9.46584 17.0056 9.48462C16.9962 9.50811 16.9399 9.5222 16.8741 9.5222C16.8083 9.5222 16.7567 9.54099 16.7567 9.56917C16.7567 9.59736 16.6909 9.61615 16.6158 9.61615C16.5406 9.61615 16.4748 9.63494 16.4748 9.66312C16.4748 9.6913 16.4326 9.71009 16.3809 9.71009C16.3292 9.71009 16.1225 9.76176 15.9253 9.82752C15.8942 9.83762 15.8625 9.84795 15.8309 9.85827C15.6562 9.91515 15.4816 9.97205 15.418 9.99193C15.3428 10.0154 15.2066 10.0389 15.1267 10.0389C15.0422 10.0389 14.9623 10.0577 14.9482 10.0859C14.9341 10.1141 14.8496 10.1328 14.7603 10.1328C14.6711 10.1328 14.5865 10.1516 14.5725 10.1751C14.5584 10.1986 14.4268 10.2268 14.2812 10.2409C14.1309 10.255 13.7739 10.3019 13.4921 10.3395C13.2102 10.3818 12.5573 10.4288 12.0453 10.4523C11.1716 10.4851 11.1153 10.4898 11.0918 10.5791C11.0777 10.6308 11.073 11.8051 11.0871 13.1861C11.0965 15.0321 11.12 15.7602 11.1622 15.934C11.1648 15.9426 11.1674 15.9513 11.17 15.9601C11.2055 16.0802 11.2437 16.2093 11.2656 16.2487C11.2891 16.2956 11.3079 16.399 11.3079 16.4741C11.3079 16.5493 11.3313 16.6244 11.3548 16.6385C11.3783 16.6526 11.4018 16.7043 11.4018 16.756C11.4018 16.8076 11.4253 16.8499 11.4488 16.8499C11.4723 16.8499 11.4958 16.8875 11.4958 16.9298C11.4958 16.9767 11.5239 17.0566 11.5662 17.1083C11.6038 17.1599 11.6367 17.2398 11.6367 17.2821C11.6367 17.329 11.6602 17.3666 11.6836 17.3666C11.7071 17.3666 11.7306 17.4089 11.7306 17.4606C11.7306 17.5122 11.7541 17.5545 11.7776 17.5545C11.8011 17.5545 11.8246 17.5874 11.8246 17.625C11.8246 17.6625 11.8387 17.7001 11.8621 17.7048C11.8809 17.7142 11.9749 17.8222 12.0688 17.9538C12.1675 18.0853 12.2426 18.2027 12.2473 18.2262C12.2473 18.245 12.3788 18.3906 12.5432 18.5456C12.7029 18.7053 12.9519 18.912 13.0928 19.006C13.2337 19.0999 13.3934 19.2126 13.4451 19.2596C13.4968 19.3066 13.6142 19.377 13.7035 19.4146C13.7285 19.4265 13.7625 19.4425 13.8019 19.461C13.9026 19.5082 14.0383 19.572 14.1497 19.626C14.3047 19.7011 14.4691 19.7622 14.5161 19.7622C14.5584 19.7622 14.5959 19.7857 14.5959 19.8092C14.5959 19.8327 14.6617 19.8562 14.7369 19.8562C14.812 19.8562 14.9154 19.8749 14.9623 19.8984C15.0046 19.9219 15.169 19.9689 15.324 20.0065C15.4884 20.044 15.8924 20.0675 16.3104 20.0675C16.7097 20.0675 17.1465 20.0394 17.3203 20.0065C17.4894 19.9689 17.7149 19.9172 17.8276 19.889C17.9357 19.8562 18.0249 19.8186 18.0249 19.7951C18.0249 19.7763 18.0719 19.7622 18.133 19.7622C18.1893 19.7622 18.396 19.6824 18.5886 19.5837C18.7812 19.4898 18.9456 19.3958 18.955 19.377C18.9597 19.3536 18.9973 19.3395 19.0348 19.3395C19.0724 19.3395 19.1053 19.316 19.1053 19.2925C19.1053 19.269 19.1335 19.2455 19.1664 19.2455C19.1945 19.2455 19.2885 19.1938 19.3637 19.1281C19.4388 19.0623 19.575 18.9543 19.6643 18.8838C19.6806 18.8693 19.6989 18.8531 19.7186 18.8358C19.8009 18.7632 19.9051 18.6712 19.9696 18.6067C20.0494 18.5268 20.181 18.3812 20.2561 18.2826C20.3313 18.1839 20.4252 18.0759 20.4581 18.0383C20.4863 18.0054 20.5145 17.9538 20.5145 17.9303C20.5145 17.9068 20.5286 17.8786 20.5521 17.8739C20.5708 17.8645 20.6601 17.733 20.7493 17.578C20.8386 17.423 20.9372 17.2445 20.9654 17.1787C20.9925 17.1246 21.0386 17.0229 21.0802 16.931C21.0892 16.9111 21.098 16.8917 21.1063 16.8734C21.1533 16.7701 21.2191 16.5681 21.2566 16.4272C21.2753 16.3472 21.3015 16.2446 21.3259 16.1493C21.3444 16.0766 21.3619 16.0082 21.3741 15.9574C21.407 15.8212 21.4304 14.7362 21.4398 12.8573L21.4539 9.96844C21.1204 9.60675 20.8057 9.26855 20.538 8.98202C20.2702 8.69549 19.9884 8.39486 19.9085 8.31501ZM23.2107 11.4622C23.1121 11.434 22.9946 11.3964 22.957 11.3823C22.9195 11.3729 22.8537 11.3729 22.8161 11.387C22.7598 11.4058 22.7504 11.636 22.7598 12.9324L22.7692 14.4543C22.9852 14.4543 23.1496 14.4073 23.2765 14.351C23.3986 14.2946 23.5959 14.1443 23.7227 14.0222C23.8448 13.9 23.9435 13.7638 23.9435 13.7262C23.9435 13.6887 23.967 13.6558 23.9904 13.6558C24.0139 13.6558 24.0374 13.6135 24.0374 13.5618C24.0374 13.5102 24.0609 13.4585 24.0844 13.4444C24.1126 13.4303 24.1314 13.2095 24.1314 12.9277C24.1314 12.6459 24.1126 12.4251 24.0844 12.411C24.0609 12.3969 24.0374 12.3453 24.0374 12.2936C24.0374 12.2419 24.0139 12.1996 23.9904 12.1996C23.967 12.1996 23.9435 12.1621 23.9435 12.1198C23.9435 12.0728 23.8213 11.9178 23.671 11.7769C23.5066 11.6266 23.3187 11.495 23.2107 11.4622ZM9.72019 11.4058C9.72035 11.4058 9.72051 11.4058 9.72067 11.4058H9.72019ZM9.72172 11.4065C9.72137 11.4061 9.72102 11.4059 9.72067 11.4058H9.72489C9.72395 11.406 9.72289 11.4062 9.72172 11.4065ZM9.72172 11.4065C9.74429 11.431 9.75777 12.1005 9.75777 12.9183C9.75777 13.7497 9.74368 14.4449 9.72489 14.4637C9.7061 14.4825 9.60276 14.4637 9.49942 14.4261C9.39608 14.3886 9.25986 14.3322 9.1941 14.2993C9.12834 14.2711 9.03909 14.2101 8.99212 14.1725C8.9529 14.144 8.90828 14.1046 8.87467 14.075C8.86399 14.0656 8.85443 14.0571 8.8465 14.0504C8.83859 14.0411 8.82771 14.0289 8.81513 14.0148C8.78287 13.9787 8.73937 13.9299 8.70558 13.886C8.65391 13.8249 8.56467 13.6605 8.5036 13.529C8.42375 13.3411 8.39557 13.1955 8.39557 12.9277C8.39557 12.7351 8.41905 12.5284 8.45193 12.4721C8.48012 12.411 8.52239 12.3312 8.54588 12.2936L8.54589 12.2936C8.56468 12.256 8.60225 12.1808 8.62573 12.1292C8.64922 12.0775 8.75725 11.9554 8.86999 11.8614C8.97802 11.7628 9.08606 11.6829 9.10955 11.6829C9.12834 11.6829 9.14713 11.6642 9.14713 11.636C9.14713 11.6078 9.1847 11.5796 9.23168 11.5655C9.24262 11.5619 9.25893 11.5566 9.27887 11.5502C9.33594 11.532 9.42284 11.5041 9.49942 11.4763C9.59864 11.4402 9.69352 11.4128 9.72172 11.4065ZM14.192 21.0493C14.037 21.0023 13.8867 20.9506 13.8585 20.9318C13.8303 20.9177 13.7786 20.913 13.7457 20.9224C13.6941 20.9412 13.68 21.0727 13.6894 21.5613L13.6988 22.1813C13.9947 22.5101 14.1403 22.6792 14.2061 22.7685C14.2765 22.8577 14.3658 22.9657 14.4034 23.0033C14.4409 23.0409 14.6053 23.2194 14.7603 23.4026C14.8585 23.5186 14.9624 23.6404 15.0385 23.7295C15.0825 23.7811 15.1172 23.8217 15.1361 23.8441C15.1831 23.9005 15.277 24.0085 15.3428 24.079C15.4086 24.1494 15.526 24.2904 15.6012 24.389C15.6763 24.4876 15.8172 24.6474 15.9065 24.746C15.9957 24.8399 16.1178 24.9856 16.1789 25.0654C16.2353 25.1453 16.3057 25.211 16.3292 25.211C16.3527 25.211 16.4138 25.1688 16.4607 25.1124C16.503 25.0607 16.5876 24.9574 16.6486 24.8916C16.6785 24.8572 16.7206 24.8059 16.7658 24.751C16.8131 24.6935 16.8637 24.632 16.907 24.5816C16.9915 24.4783 17.1372 24.3092 17.2358 24.2058C17.3344 24.0978 17.4143 24.0085 17.4096 23.9991C17.4096 23.9944 17.466 23.924 17.5411 23.8394C17.6116 23.7596 17.7196 23.6374 17.7854 23.567C17.8511 23.5012 17.9592 23.3744 18.0249 23.2852C18.0954 23.1959 18.2128 23.055 18.2833 22.9798C18.3584 22.9 18.4759 22.7638 18.5416 22.6745C18.6121 22.5853 18.7342 22.4396 18.8141 22.3551L18.9597 22.2048C18.9597 20.9506 18.9503 20.8896 18.8798 20.8896C18.8329 20.8896 18.7295 20.9177 18.6544 20.9553C18.5792 20.9929 18.3866 21.0634 18.2316 21.1056C18.0766 21.1479 17.8699 21.1902 17.776 21.1996C17.6773 21.209 17.5975 21.2418 17.5975 21.2653C17.5975 21.2888 17.4566 21.3217 17.2828 21.3358C17.1043 21.3546 16.6768 21.3734 16.3292 21.3875C15.9253 21.4016 15.6763 21.3922 15.6481 21.3593C15.6246 21.3311 15.4696 21.3123 15.3099 21.3123C15.1408 21.3123 15.014 21.2935 15.014 21.2653C15.014 21.2418 14.9388 21.2184 14.8496 21.2184C14.7603 21.2184 14.6382 21.1996 14.5818 21.1761C14.5208 21.1526 14.347 21.0962 14.192 21.0493ZM12.8345 23.1301C12.7781 23.0832 12.7264 23.0503 12.7123 23.055C12.6982 23.055 12.562 23.1161 12.407 23.1865C12.252 23.2523 12.0876 23.3321 12.0406 23.3556C11.9564 23.4024 11.9607 23.4119 12.063 23.635L12.0641 23.6374C12.1252 23.7643 12.1862 23.877 12.2097 23.8817C12.2285 23.8911 12.2426 23.9381 12.2426 23.9897C12.2426 24.0414 12.2567 24.0884 12.2802 24.0931C12.299 24.1025 12.4399 24.3608 12.5949 24.6708C12.7499 24.9809 12.8908 25.2392 12.9143 25.2439C12.9331 25.2533 12.9472 25.2862 12.9472 25.3144C12.9472 25.3472 13.0271 25.5351 13.1257 25.7277C13.2196 25.9203 13.3136 26.0847 13.3371 26.0894C13.3559 26.0988 13.37 26.1458 13.37 26.1974C13.37 26.2491 13.3934 26.2914 13.4169 26.2914C13.4404 26.2914 13.4639 26.3337 13.4639 26.3853C13.4639 26.437 13.478 26.484 13.5015 26.4887C13.5203 26.4981 13.6001 26.6343 13.6753 26.794C13.7504 26.9584 13.8303 27.0899 13.8538 27.0899C13.8726 27.0899 13.8867 27.1322 13.8867 27.1839C13.8867 27.2402 13.9195 27.2778 13.9712 27.2778C14.0135 27.2778 14.1168 27.2215 14.192 27.1463C14.2671 27.0758 14.4597 26.9255 14.6147 26.8081L14.615 26.8079C14.7699 26.6905 14.9248 26.5732 14.9576 26.5497C14.9905 26.5263 15.0704 26.4558 15.1314 26.3947C15.1925 26.3384 15.2676 26.2914 15.2958 26.2914C15.3193 26.2914 15.3522 26.2585 15.3663 26.2209C15.3804 26.1834 15.3005 26.0377 15.1925 25.9015C15.0845 25.77 14.9623 25.6244 14.9247 25.5868C14.8825 25.5492 14.765 25.4083 14.6617 25.2815C14.5584 25.15 14.4034 24.9762 14.3235 24.8916C14.2389 24.8118 14.1685 24.7272 14.1685 24.7037C14.1685 24.6849 14.0698 24.5628 13.9477 24.436C13.8209 24.3045 13.6612 24.1119 13.5813 24.0132C13.5062 23.9099 13.3887 23.7737 13.323 23.7079C13.2572 23.6421 13.1445 23.5059 13.0646 23.4026C12.9895 23.2992 12.8861 23.1771 12.8345 23.1301ZM20.2185 23.1536C20.1058 23.1207 19.9931 23.0832 19.9649 23.0691C19.9367 23.0597 19.824 23.1536 19.7065 23.2899C19.5938 23.4214 19.4482 23.5905 19.3824 23.6609C19.3167 23.7361 19.1992 23.8723 19.1241 23.9663C19.0489 24.0602 18.9315 24.1964 18.8657 24.2716C18.8 24.342 18.706 24.4642 18.6544 24.5346C18.6027 24.6051 18.4947 24.7319 18.4195 24.8071C18.3396 24.8869 18.2128 25.0372 18.1377 25.1406C18.0625 25.2439 17.9639 25.3613 17.9263 25.3989C17.884 25.4365 17.7666 25.5727 17.6679 25.7042C17.5646 25.8311 17.4425 25.972 17.4002 26.0096C17.3579 26.0471 17.3203 26.1176 17.3156 26.1599C17.3156 26.2068 17.3391 26.2444 17.3626 26.2444C17.3861 26.2444 17.4613 26.2961 17.527 26.3619C17.5928 26.4276 17.6539 26.4793 17.6679 26.4793C17.682 26.4793 17.7196 26.5075 17.7572 26.5357C17.7901 26.5685 17.8746 26.6437 17.9451 26.7001C18.0108 26.7611 18.0766 26.8081 18.0907 26.8081C18.1048 26.8081 18.1659 26.8551 18.2316 26.9114C18.2927 26.9725 18.3725 27.043 18.4054 27.0711L18.4106 27.0748C18.4465 27.1005 18.5265 27.1578 18.598 27.198C18.7013 27.2637 18.7389 27.2684 18.7953 27.2168C18.8376 27.1886 18.8704 27.1228 18.8657 27.0758C18.8657 27.0336 18.8892 26.996 18.9127 26.996C18.9362 26.996 18.9597 26.9537 18.9597 26.902C18.9597 26.8504 18.9738 26.8034 18.9973 26.794C19.0161 26.7893 19.0912 26.6578 19.1711 26.5028C19.2462 26.3478 19.3214 26.2115 19.3355 26.1974C19.3474 26.1855 19.4268 26.0353 19.5279 25.844C19.5461 25.8095 19.5651 25.7737 19.5844 25.7371C19.7065 25.5023 19.8052 25.2721 19.8052 25.2345C19.8052 25.1969 19.8287 25.1641 19.8522 25.1641C19.8757 25.1641 19.8991 25.1312 19.8991 25.0936C19.8991 25.056 19.9226 25.0231 19.9461 25.0231C19.9696 25.0231 19.9931 24.9809 19.9931 24.9292C19.9931 24.8775 20.0166 24.8352 20.0401 24.8352C20.0635 24.8352 20.087 24.8071 20.087 24.7742C20.087 24.746 20.1669 24.5581 20.2655 24.3655C20.3595 24.1729 20.4534 24.0085 20.4769 23.9991C20.4957 23.9944 20.5098 23.9475 20.5098 23.8958C20.5098 23.8441 20.5239 23.8019 20.5474 23.8019C20.5661 23.8019 20.6178 23.7173 20.6648 23.614C20.7071 23.5106 20.7446 23.4167 20.7446 23.4026C20.7446 23.3885 20.7118 23.3791 20.6742 23.3791C20.6366 23.3791 20.6037 23.3556 20.6037 23.3321C20.6037 23.3086 20.5614 23.2852 20.5098 23.2852C20.4581 23.2852 20.4158 23.2711 20.4158 23.2476C20.4158 23.2288 20.3266 23.1865 20.2185 23.1536ZM10.7724 23.9756C10.7536 23.9334 10.7066 23.8958 10.669 23.8958C10.6315 23.8958 10.5986 23.9193 10.5986 23.9428C10.5986 23.9663 10.5657 23.9897 10.5281 23.9897C10.4905 23.9897 10.4201 24.0085 10.3778 24.0367C10.3507 24.0503 10.2984 24.0733 10.2392 24.0993C10.196 24.1183 10.149 24.139 10.1054 24.1588C10.002 24.2011 9.8752 24.2528 9.82353 24.2716C9.78736 24.2847 9.71896 24.314 9.65056 24.3433C9.62126 24.3558 9.59195 24.3683 9.56518 24.3796C9.47593 24.4172 9.30213 24.4923 9.18001 24.5487C9.05318 24.6051 8.93105 24.6474 8.90757 24.6474C8.88408 24.6474 8.77135 24.6943 8.66331 24.746C8.55057 24.8024 8.41905 24.8634 8.36738 24.8822C8.34698 24.8915 8.30901 24.9081 8.26156 24.9288C8.18883 24.9606 8.09382 25.0021 8.00569 25.0419C7.85538 25.1077 7.70037 25.1641 7.66279 25.1641C7.62522 25.1641 7.58294 25.1875 7.56885 25.211C7.55476 25.2345 7.50309 25.258 7.45142 25.258C7.39975 25.258 7.35747 25.2815 7.35747 25.305C7.35747 25.3285 7.3058 25.3519 7.24004 25.3519C7.17428 25.3519 7.12261 25.3754 7.12261 25.3989C7.12261 25.4224 7.08033 25.4459 7.02866 25.4459C6.97699 25.4459 6.92532 25.46 6.91593 25.4788C6.90654 25.5023 6.84547 25.5304 6.77501 25.5492C6.70925 25.5727 6.55424 25.6291 6.43211 25.6855C6.30529 25.7371 6.16907 25.8029 6.12679 25.8264C6.07982 25.8499 6.00936 25.8686 5.97178 25.8686C5.9342 25.8686 5.90132 25.8921 5.90132 25.9156C5.90132 25.9391 5.86844 25.9626 5.83086 25.9626C5.79329 25.9626 5.72283 25.9814 5.68055 26.0049C5.64533 26.0225 5.5705 26.0559 5.49566 26.0894C5.47069 26.1006 5.44571 26.1117 5.4222 26.1223C5.32356 26.1646 5.21083 26.1974 5.17325 26.1974C5.13567 26.1974 5.10279 26.2209 5.10279 26.2444C5.10279 26.2679 5.06052 26.2914 5.00885 26.2914C4.95718 26.2914 4.90551 26.3149 4.89141 26.3384C4.87732 26.3619 4.82565 26.3853 4.77398 26.3853C4.72231 26.3853 4.68004 26.4088 4.68004 26.4323C4.68004 26.4558 4.65185 26.4793 4.62367 26.4793C4.59079 26.4793 4.46396 26.531 4.34184 26.5967C4.21501 26.6625 4.11637 26.747 4.11637 26.7846C4.11637 26.8222 4.2338 26.9114 4.38881 26.9819C4.53442 27.0524 4.66595 27.1228 4.68004 27.1369C4.69413 27.1557 4.77398 27.2074 4.85853 27.259C4.94308 27.306 5.00885 27.3624 5.00885 27.3812C5.00885 27.4046 5.05112 27.4187 5.10279 27.4187C5.15446 27.4187 5.19674 27.4422 5.19674 27.4657C5.19674 27.4892 5.23901 27.5127 5.29068 27.5127C5.34235 27.5127 5.38463 27.4892 5.38463 27.4657C5.38463 27.4422 5.4269 27.4187 5.47857 27.4187C5.53024 27.4187 5.57721 27.4046 5.58661 27.3812C5.59131 27.3624 5.75571 27.2778 5.9483 27.1886C6.14088 27.104 6.34756 27.0242 6.40863 27.0148C6.46499 27.0054 6.51197 26.9725 6.51197 26.949C6.51197 26.9255 6.56364 26.902 6.6294 26.902C6.69516 26.902 6.75153 26.8832 6.76092 26.8645C6.76562 26.8457 6.89244 26.7705 7.04276 26.7001C7.18837 26.6296 7.39505 26.545 7.49839 26.5122C7.60173 26.484 7.68628 26.4417 7.68628 26.4182C7.68628 26.3994 7.72856 26.3853 7.78022 26.3853C7.83189 26.3853 7.87417 26.3619 7.87417 26.3384C7.87417 26.3149 7.90235 26.2914 7.93523 26.2914C7.96342 26.2914 8.10434 26.2397 8.24056 26.174C8.37208 26.1082 8.51769 26.0565 8.55527 26.0565C8.59285 26.0565 8.62573 26.033 8.62573 26.0096C8.62573 25.9861 8.66801 25.9626 8.71968 25.9626C8.77135 25.9626 8.81362 25.9391 8.81362 25.9156C8.81362 25.8921 8.8559 25.8686 8.90757 25.8686C8.95924 25.8686 9.01091 25.8452 9.025 25.8217C9.03909 25.7982 9.09076 25.7747 9.14243 25.7747C9.1941 25.7747 9.23637 25.7512 9.23637 25.7277C9.23637 25.7042 9.27395 25.6808 9.32092 25.6808C9.3632 25.6808 9.44305 25.6526 9.49472 25.6103C9.54639 25.5727 9.62625 25.5398 9.67322 25.5398C9.71549 25.5398 9.75307 25.5163 9.75307 25.4929C9.75307 25.4694 9.79535 25.4459 9.84702 25.4459C9.89869 25.4459 9.95036 25.4224 9.96445 25.3989C9.97854 25.3754 10.0302 25.3519 10.0819 25.3519C10.1335 25.3519 10.1758 25.3285 10.1758 25.305C10.1758 25.2815 10.2087 25.258 10.2463 25.258C10.2839 25.258 10.3543 25.2392 10.4013 25.211C10.4436 25.1875 10.5986 25.1124 10.7395 25.0466C10.8804 24.9809 11.0166 24.9292 11.0354 24.9292C11.0589 24.9292 11.1059 24.8963 11.1435 24.8587C11.1998 24.7977 11.1857 24.746 11.0354 24.4454C10.9368 24.2622 10.8428 24.0978 10.8287 24.0837C10.8146 24.0696 10.7865 24.0226 10.7724 23.9756ZM22.2712 24.032C22.1679 23.9944 22.0693 23.9522 22.0552 23.9334C22.0411 23.9193 21.9988 23.9287 21.9612 23.9569C21.9237 23.9897 21.8156 24.1729 21.7217 24.3655C21.623 24.5581 21.5432 24.746 21.5432 24.7742C21.5432 24.8071 21.515 24.8446 21.4868 24.854C21.4539 24.8681 21.4727 24.8869 21.5338 24.901C21.5901 24.9151 21.6371 24.9527 21.6371 24.9762C21.6371 24.9996 21.6606 25.0231 21.6841 25.0231C21.7076 25.0231 21.8532 25.0795 22.0035 25.1453C22.1491 25.211 22.3088 25.2862 22.3558 25.3097C22.3981 25.3332 22.4685 25.3519 22.5061 25.3519C22.5437 25.3519 22.5766 25.3754 22.5766 25.3989C22.5766 25.4224 22.6048 25.4459 22.6376 25.4459C22.6658 25.4459 22.8114 25.4976 22.9524 25.5633C23.0933 25.6291 23.2483 25.7042 23.2952 25.7277C23.3375 25.7559 23.408 25.7747 23.4456 25.7747C23.4831 25.7747 23.516 25.7982 23.516 25.8217C23.516 25.8452 23.5583 25.8686 23.61 25.8686C23.6616 25.8686 23.7133 25.8921 23.7274 25.9156C23.7415 25.9391 23.7932 25.9626 23.8448 25.9626C23.8965 25.9626 23.9388 25.9861 23.9388 26.0096C23.9388 26.033 23.9904 26.0565 24.0562 26.0565H24.1736C24.1924 25.1312 24.1783 24.8587 24.1502 24.8259C24.1267 24.793 24.0186 24.7366 23.9153 24.699C23.8119 24.6661 23.6522 24.6051 23.563 24.5675C23.4737 24.5299 23.361 24.4783 23.3187 24.4548C23.2718 24.4313 23.2013 24.4125 23.1637 24.4125C23.1262 24.4125 23.0933 24.389 23.0933 24.3655C23.0933 24.342 23.0604 24.3185 23.0228 24.3185C22.9852 24.3185 22.9148 24.2998 22.8725 24.2763C22.8255 24.2528 22.7128 24.2011 22.6235 24.1635C22.5343 24.126 22.3746 24.0649 22.2712 24.032ZM12.0547 26.4605C11.9373 26.2256 11.8199 26.033 11.7964 26.0237C11.7682 26.0143 11.6179 26.0753 11.4535 26.1505C11.2938 26.2303 11.1294 26.2914 11.0918 26.2914C11.0542 26.2914 11.0213 26.3149 11.0213 26.3384C11.0213 26.3619 10.9697 26.3853 10.9039 26.3853C10.8381 26.3853 10.7818 26.4041 10.7771 26.4229C10.7677 26.4417 10.6409 26.5169 10.4952 26.5873C10.3449 26.6578 10.1382 26.7423 10.0349 26.7705C9.93157 26.8034 9.84702 26.8457 9.84702 26.8645C9.84702 26.8879 9.80474 26.902 9.75307 26.902C9.7014 26.902 9.65913 26.9255 9.65913 26.949C9.65913 26.9725 9.63094 26.996 9.60276 26.996C9.56988 26.996 9.42426 27.0477 9.28335 27.1134C9.14243 27.1792 8.98742 27.2543 8.94514 27.2778C8.89817 27.306 8.82771 27.3248 8.79013 27.3248C8.75256 27.3248 8.71968 27.3483 8.71968 27.3718C8.71968 27.3952 8.6774 27.4187 8.62573 27.4187C8.57406 27.4187 8.52239 27.4422 8.5083 27.4657C8.49421 27.4892 8.44254 27.5127 8.39087 27.5127C8.3392 27.5127 8.29692 27.5362 8.29692 27.5597C8.29692 27.5831 8.25934 27.6066 8.21707 27.6066C8.1701 27.6066 8.09024 27.6395 8.03857 27.6771C7.9869 27.7194 7.90705 27.7475 7.86478 27.7475C7.8178 27.7475 7.78022 27.771 7.78022 27.7945C7.78022 27.818 7.73795 27.8415 7.68628 27.8415C7.63461 27.8415 7.58294 27.865 7.56885 27.8885C7.55476 27.9119 7.50309 27.9354 7.45142 27.9354C7.39975 27.9354 7.35747 27.9589 7.35747 27.9824C7.35747 28.0059 7.32929 28.0294 7.30111 28.0294C7.26822 28.0294 7.12261 28.081 6.98169 28.1468C6.84077 28.2126 6.68576 28.2877 6.64349 28.3112C6.59652 28.3394 6.52606 28.3582 6.48848 28.3582C6.4509 28.3582 6.41802 28.3817 6.41802 28.4052C6.41802 28.4286 6.38514 28.4521 6.34756 28.4521C6.30998 28.4521 6.26301 28.4756 6.24422 28.5038C6.22074 28.532 6.22543 28.5696 6.25362 28.5884C6.2818 28.6024 6.34287 28.6917 6.38984 28.7809C6.44151 28.8702 6.49318 28.9547 6.51197 28.9688C6.52606 28.9829 6.58712 29.0722 6.64349 29.1661C6.69986 29.2648 6.74683 29.3775 6.74683 29.4151C6.74683 29.4526 6.76562 29.4855 6.7938 29.4855C6.82199 29.4855 6.84077 29.5184 6.84077 29.556C6.84077 29.5936 6.85956 29.664 6.88305 29.7063C6.90654 29.7533 6.95821 29.8754 6.99578 29.9787C7.01441 30.03 7.03651 30.0951 7.05806 30.1585C7.07998 30.2231 7.10133 30.286 7.11791 30.331C7.1461 30.4203 7.16958 30.5471 7.16958 30.6129C7.16958 30.6786 7.19307 30.7585 7.22595 30.7914C7.27292 30.8383 7.29171 31.7543 7.3105 35.0659L7.33399 39.2793C12.8673 39.2981 13.5954 39.2887 13.6377 39.2417C13.6706 39.2088 13.7082 38.9975 13.7222 38.7391C13.7363 38.4949 13.7598 38.0815 13.7739 37.8232C13.7833 37.5648 13.8162 37.3111 13.8397 37.2595C13.8632 37.2078 13.8914 36.9213 13.9101 36.6254C13.9242 36.3294 13.943 35.9583 13.9571 35.8033C13.9617 35.7525 13.9679 35.6796 13.975 35.5945C13.9897 35.4199 14.0086 35.1943 14.0276 35.0048C14.051 34.7707 14.0841 34.3875 14.1108 34.0787C14.1163 34.0157 14.1214 33.9558 14.1262 33.9009C14.1421 33.7186 14.1624 33.4678 14.1821 33.2239C14.1975 33.0344 14.2125 32.849 14.2249 32.7031C14.2483 32.3696 14.2906 31.8576 14.3141 31.5758C14.323 31.4695 14.3345 31.3351 14.3467 31.1931C14.3668 30.9586 14.3887 30.7032 14.4034 30.5189C14.4268 30.223 14.4597 29.7955 14.4738 29.5654C14.4879 29.307 14.4785 29.1567 14.4503 29.1567C14.4268 29.1567 14.4034 29.1238 14.4034 29.0863C14.4034 29.0487 14.3799 29.0158 14.3564 29.0158C14.3329 29.0158 14.3094 28.9829 14.3094 28.9453C14.3094 28.9078 14.2859 28.8749 14.2624 28.8749C14.2389 28.8749 14.2061 28.8279 14.192 28.7668C14.1732 28.6729 14.1544 28.6682 13.9947 28.6964C13.896 28.7105 13.7269 28.7011 13.6189 28.6729C13.5109 28.64 13.3793 28.579 13.323 28.532C13.2713 28.4897 13.2149 28.4521 13.1962 28.4521C13.1727 28.4474 13.1116 28.3911 13.0505 28.3206C12.9942 28.2501 12.919 28.1374 12.8861 28.0623C12.858 27.9918 12.8157 27.9354 12.7969 27.9354C12.7734 27.9354 12.7593 27.9072 12.7593 27.8744C12.7593 27.8462 12.6795 27.6583 12.5808 27.4657C12.4869 27.2731 12.3929 27.1087 12.3741 27.0993C12.3507 27.0946 12.3366 27.0477 12.3366 26.996C12.3366 26.9443 12.3225 26.8973 12.3037 26.8879C12.2802 26.8832 12.1722 26.6907 12.0547 26.4605ZM21.5103 26.3384C21.4633 26.3149 21.3036 26.2397 21.1533 26.1787C20.9044 26.0753 20.8809 26.0706 20.8198 26.1411C20.7869 26.1881 20.6977 26.3478 20.6225 26.5028C20.5521 26.6578 20.4722 26.7893 20.4534 26.794C20.4346 26.8034 20.4158 26.8504 20.4158 26.902C20.4158 26.9537 20.4017 26.996 20.383 26.996C20.3595 26.996 20.2796 27.1463 20.2045 27.3248C20.1293 27.5033 20.0494 27.6536 20.0307 27.6536C20.0072 27.6536 19.9931 27.6959 19.9931 27.7475C19.9931 27.7992 19.9696 27.8415 19.9461 27.8415C19.9226 27.8415 19.8991 27.865 19.8991 27.8885C19.8991 27.9119 19.8193 28.0529 19.7253 28.1938C19.6267 28.3347 19.5187 28.4474 19.4905 28.4521C19.4576 28.4521 19.3824 28.4944 19.3261 28.5461C19.265 28.5977 19.1335 28.6541 19.0301 28.6729C18.9268 28.6917 18.8 28.6964 18.7483 28.6917C18.6966 28.687 18.6074 28.6917 18.551 28.7058C18.49 28.7199 18.443 28.7668 18.443 28.8044C18.443 28.842 18.4195 28.8749 18.396 28.8749C18.3725 28.8749 18.349 28.9172 18.349 28.9688C18.349 29.0205 18.335 29.0628 18.3162 29.0628C18.2927 29.0628 18.2504 29.1144 18.2222 29.1802C18.1893 29.246 18.1705 29.354 18.1846 29.4245C18.1987 29.4996 18.2316 29.8519 18.2598 30.2136C18.288 30.5753 18.3303 31.1155 18.3537 31.4114C18.3655 31.5594 18.3819 31.7555 18.3984 31.9516C18.4148 32.1477 18.4312 32.3438 18.443 32.4918C18.4665 32.7877 18.4994 33.1588 18.5134 33.3138C18.5369 33.5205 18.5228 33.6332 18.4712 33.7365C18.4289 33.8117 18.3678 33.9103 18.335 33.9479C18.3021 33.9855 18.2316 34.0466 18.1705 34.0747C18.1142 34.1076 17.978 34.1358 17.8699 34.1358C17.7055 34.1405 17.6351 34.1123 17.4988 33.9855C17.4049 33.9009 17.3063 33.7553 17.2781 33.6661C17.2499 33.5768 17.1935 33.0883 17.1559 32.5857C17.1417 32.4164 17.1275 32.2418 17.1141 32.0782C17.0879 31.7561 17.0651 31.4766 17.0526 31.3644C17.0477 31.3061 17.0412 31.2255 17.0338 31.1338C17.0196 30.9593 17.0022 30.7444 16.9868 30.5659C16.9681 30.2935 16.9399 30.0163 16.9211 29.9412L16.8929 29.8143H15.789C15.728 30.1619 15.681 30.6598 15.6434 31.1531C15.6012 31.6463 15.5495 32.2898 15.526 32.5857C15.5063 32.7924 15.482 33.0817 15.4612 33.3302C15.4522 33.4374 15.4438 33.537 15.4367 33.6191C15.4318 33.6765 15.426 33.7428 15.4198 33.8147C15.3963 34.0841 15.366 34.4313 15.3475 34.676C15.3193 34.986 15.277 35.4839 15.2536 35.7798C15.2338 35.9877 15.2024 36.3786 15.1708 36.7719C15.1574 36.9386 15.144 37.1057 15.1314 37.2595C15.0892 37.7762 15.0375 38.4338 15.0187 38.7156C14.9999 38.9975 14.9905 39.2464 14.9999 39.2652C15.0046 39.2887 15.6012 39.3028 16.3198 39.3028C17.0855 39.3028 17.6445 39.284 17.6726 39.2558C17.7008 39.2276 17.6914 38.9552 17.6585 38.5183C17.6257 38.1379 17.5787 37.6212 17.5505 37.3769C17.5223 37.1327 17.5035 36.7992 17.5035 36.6347C17.5035 36.475 17.5317 36.2965 17.5646 36.2402C17.5928 36.1838 17.6445 36.1087 17.6773 36.0758C17.7055 36.0429 17.7525 36.0147 17.7807 36.0147C17.8089 36.0147 17.837 35.9865 17.8464 35.9536C17.8605 35.9161 17.9545 35.8973 18.1424 35.902C18.3021 35.9067 18.4242 35.9302 18.4336 35.963C18.4383 35.9912 18.4712 36.0147 18.5041 36.0147C18.5322 36.0147 18.6027 36.0758 18.6544 36.1462C18.7107 36.2261 18.7577 36.4046 18.7859 36.6254C18.8047 36.8179 18.8329 37.2125 18.847 37.4943C18.861 37.7762 18.8939 38.0345 18.9174 38.058C18.9409 38.0815 18.9597 38.3211 18.9597 38.5841C18.9597 38.8518 18.9832 39.1196 19.0067 39.1854L19.0536 39.3028L24.1502 39.2793C24.1736 28.1938 24.1642 27.5127 24.1032 27.5127C24.0656 27.5127 24.0327 27.4892 24.0327 27.4657C24.0327 27.4422 23.9904 27.4187 23.9388 27.4187C23.8871 27.4187 23.8354 27.3952 23.8213 27.3718C23.8073 27.3483 23.7556 27.3248 23.7039 27.3248C23.6522 27.3248 23.61 27.3013 23.61 27.2778C23.61 27.2543 23.5771 27.2308 23.5395 27.2308C23.5019 27.2308 23.3892 27.1933 23.2952 27.1463C23.1966 27.104 23.1121 27.0524 23.1074 27.0289C23.098 27.0101 23.051 26.996 22.9993 26.996C22.9477 26.996 22.896 26.9725 22.8819 26.949C22.8678 26.9255 22.8161 26.902 22.7645 26.902C22.7128 26.902 22.6705 26.8786 22.6705 26.8551C22.6705 26.8316 22.6423 26.8081 22.6141 26.8081C22.5813 26.8081 22.4357 26.7564 22.2947 26.6907C22.1538 26.6249 21.9988 26.5497 21.9565 26.5263C21.9096 26.4981 21.8391 26.4793 21.8015 26.4793C21.7639 26.4793 21.7311 26.4558 21.7311 26.4323C21.7311 26.4088 21.6982 26.3853 21.6606 26.3853C21.623 26.3853 21.5526 26.3666 21.5103 26.3384ZM16.4748 27.1698C16.4326 27.1275 16.3856 27.0899 16.3762 27.0899C16.3621 27.0899 16.2494 27.1698 16.1178 27.2684C15.991 27.3624 15.8266 27.4986 15.7609 27.569C15.6904 27.6442 15.6199 27.7006 15.5965 27.7006C15.573 27.7006 15.5072 27.7335 15.4508 27.7804C15.3757 27.8415 15.3475 27.9166 15.3428 28.0388C15.3428 28.1797 15.3757 28.2501 15.5072 28.3817L15.6716 28.5461C16.7003 28.5461 16.9774 28.5273 17.0479 28.4897C17.1043 28.4615 17.1888 28.3911 17.2311 28.3394C17.2781 28.283 17.3156 28.1562 17.3156 28.0529C17.3156 27.9072 17.2922 27.8415 17.1888 27.7475C17.1184 27.6818 16.9821 27.5784 16.8929 27.5127C16.8036 27.4469 16.6909 27.3624 16.6439 27.3248C16.597 27.2872 16.5218 27.2168 16.4748 27.1698ZM3.22389 27.8885C3.22389 27.865 3.13934 27.8415 3.036 27.8415C2.93266 27.8415 2.84811 27.8556 2.84811 27.8744C2.84811 27.8979 2.81523 27.9589 2.76826 28.0153C2.72128 28.0717 2.65082 28.1562 2.61325 28.2032C2.57567 28.2501 2.46293 28.4474 2.36429 28.64C2.27035 28.8326 2.19049 29.0299 2.19049 29.0722C2.19049 29.1191 2.1717 29.1567 2.14352 29.1567C2.12004 29.1567 2.09655 29.2084 2.09655 29.2742C2.09655 29.3399 2.07776 29.4292 2.04958 29.4714C2.02609 29.5184 1.97442 29.758 1.93684 30.0022C1.87578 30.378 1.86169 31.1061 1.86169 34.7089C1.86169 37.4615 1.88048 39.0069 1.90866 39.0679C1.93684 39.1196 2.02139 39.1947 2.09655 39.2323C2.21398 39.2934 2.53809 39.3028 4.08349 39.3028C5.49736 39.3028 5.9436 39.2887 5.98587 39.2417C6.03285 39.1994 6.04224 38.3398 6.04224 35.545C6.04224 32.5857 6.02815 31.8013 5.97178 31.3409C5.9342 31.0309 5.87784 30.7021 5.84965 30.6129C5.82147 30.5236 5.7792 30.4109 5.75571 30.3639C5.73222 30.3216 5.71343 30.2418 5.71343 30.1901C5.71343 30.1384 5.69464 30.0915 5.67586 30.0821C5.65707 30.0774 5.58191 29.9646 5.51145 29.8378C5.44099 29.7063 5.38463 29.5889 5.38463 29.5654C5.38463 29.5466 5.33765 29.4808 5.28129 29.4245C5.22022 29.3634 5.11219 29.2319 5.03233 29.1332C4.95718 29.0299 4.84444 28.9078 4.79277 28.8561C4.75447 28.8178 4.68797 28.76 4.62274 28.7033C4.59199 28.6765 4.56152 28.65 4.53442 28.6259C4.44518 28.5555 4.32305 28.4568 4.25729 28.4005C4.19152 28.3488 3.97075 28.222 3.76407 28.1186C3.55739 28.0153 3.35072 27.9354 3.30844 27.9354C3.26147 27.9354 3.22389 27.9119 3.22389 27.8885ZM34.3949 33.7976C34.3385 33.7506 34.2164 33.7178 34.1177 33.7131C33.9909 33.7131 33.9063 33.7459 33.8077 33.8399C33.7325 33.915 33.5775 34.0466 33.4695 34.1358C33.3615 34.2251 33.1078 34.4599 32.9058 34.6525C32.7085 34.8451 32.4314 35.1034 32.2952 35.2256C32.1543 35.343 31.9335 35.545 31.8067 35.6765C31.6751 35.8033 31.492 35.9536 31.3933 36.01C31.2994 36.0617 31.1678 36.1087 31.1021 36.1087C31.0363 36.1087 30.9377 36.0805 30.8813 36.0476C30.839 36.0265 30.7862 35.9921 30.7466 35.9663C30.7333 35.9578 30.7216 35.9501 30.7122 35.9442C30.6793 35.9208 30.4445 35.6906 30.1955 35.4416C29.9466 35.188 29.7117 34.9813 29.6788 34.9813C29.6506 34.9813 29.6224 34.9578 29.6224 34.9343C29.6224 34.9109 29.5661 34.8874 29.4909 34.8874C29.4205 34.8874 29.3077 34.9109 29.2373 34.9437C29.1621 34.9766 29.1058 35.0424 29.1058 35.0847C29.1058 35.1316 29.0823 35.1692 29.0588 35.1692C29.0353 35.1692 29.0118 35.2397 29.0118 35.3195C29.0165 35.4557 29.0917 35.5544 29.5755 36.0382C29.8855 36.3482 30.1391 36.6113 30.1391 36.6254C30.1391 36.6394 30.3036 36.8038 30.5055 36.9917C30.7028 37.1843 30.9189 37.3487 30.9847 37.3628C31.0504 37.3769 31.1631 37.3581 31.243 37.3205C31.3229 37.2783 31.5107 37.1327 31.6611 36.9964C31.8161 36.8555 32.112 36.5784 32.3187 36.3717C32.5301 36.1697 32.7931 35.9255 32.9058 35.8315C33.0233 35.7376 33.2769 35.5027 33.4742 35.3101C33.6715 35.1175 33.9627 34.8404 34.1224 34.6995C34.2774 34.5586 34.4418 34.3848 34.4794 34.3096C34.5295 34.2251 34.5436 34.1311 34.5217 34.0278C34.5076 33.9479 34.4512 33.8399 34.3949 33.7976ZM27.4476 40.6885C27.3302 40.5804 27.2832 40.571 26.898 40.571C26.6491 40.571 26.4753 40.5898 26.4753 40.618C26.4753 40.6415 26.7008 40.8952 26.9779 41.1817C27.2597 41.4635 27.5134 41.6984 27.5416 41.6984C27.5885 41.6984 27.5979 41.5857 27.5885 41.2521C27.5791 40.8341 27.5698 40.8012 27.4476 40.6885Z" fill="#F5F5F5"/>
</svg>
