<svg width="41" height="8" viewBox="0 0 41 8" fill="none" xmlns="http://www.w3.org/2000/svg">
<path fill-rule="evenodd" clip-rule="evenodd" d="M39.5 3.2072L1 3.2072C0.447716 3.2072 -2.0804e-07 3.65492 -1.83898e-07 4.2072C-1.59757e-07 4.75948 0.447715 5.2072 1 5.2072L39.5 5.2072L39.5 3.2072Z" fill="white"/>
<path fill-rule="evenodd" clip-rule="evenodd" d="M38.5858 4.2072L36.5 6.29298C36.1095 6.68351 36.1095 7.31667 36.5 7.7072C36.8905 8.09772 37.5237 8.09772 37.9142 7.7072L40.7071 4.9143C41.0976 4.52378 41.0976 3.89062 40.7071 3.50009L37.9142 0.707197C37.5237 0.316674 36.8905 0.316675 36.5 0.707198C36.1095 1.09772 36.1095 1.73089 36.5 2.12141L38.5858 4.2072Z" fill="white"/>
</svg>
