<svg width="40" height="40" viewBox="0 0 40 40" fill="none" xmlns="http://www.w3.org/2000/svg">
<path fill-rule="evenodd" clip-rule="evenodd" d="M32.5063 0.0789295C32.4412 0.0909947 32.3713 0.103922 32.3031 0.116332C32.0983 0.158212 31.7447 0.265237 31.512 0.358303C31.2794 0.446715 30.9583 0.604927 30.7908 0.707299C30.6233 0.805018 30.372 0.972536 30.2324 1.07956C30.0928 1.18659 29.8322 1.40994 29.6554 1.57746C29.4785 1.74498 29.1761 2.07071 28.9853 2.29872C28.7945 2.53139 28.5479 2.85246 28.4409 3.01998C28.3338 3.1875 28.1803 3.43412 28.1012 3.56907C28.0174 3.69936 27.8871 3.95064 27.808 4.12746C27.7289 4.29963 27.58 4.64863 27.4823 4.90456C27.3799 5.16049 27.2264 5.65374 27.1333 5.99808C27.0402 6.34242 26.9425 6.64023 26.9146 6.65419C26.882 6.67281 24.9416 6.70073 22.601 6.71934L18.3432 6.74726C17.5848 6.99854 17.2404 7.13348 17.0869 7.20793C16.9333 7.28239 16.6215 7.49179 16.3889 7.67792C16.1562 7.85939 15.7839 8.18512 15.5513 8.39452C15.3186 8.60392 14.9091 8.9948 14.6346 9.26003C14.36 9.52527 11.1353 12.7407 7.46852 16.3982L0.800365 23.0524C0.409489 23.9179 0.246624 24.346 0.186131 24.5647C0.130292 24.7834 0.0558394 25.1696 0.0279197 25.4255C-0.00930656 25.7652 -0.00930656 26.0025 0.0279197 26.3097C0.0558394 26.5423 0.120985 26.9053 0.176825 27.124C0.232664 27.3427 0.372263 27.7056 0.483941 27.9383C0.59562 28.171 0.772445 28.4641 0.870164 28.5898C0.967883 28.7201 1.30757 29.097 1.61934 29.4274C1.93111 29.7577 2.49416 30.3487 2.86177 30.7303C3.23403 31.1165 4.96505 32.8522 6.71003 34.5925C8.45036 36.3328 10.1395 37.9987 10.4559 38.2965C10.777 38.5943 11.1632 38.934 11.3168 39.0597C11.4703 39.1853 11.7821 39.3761 12.0148 39.4831C12.2474 39.5948 12.6197 39.739 12.8524 39.8042C13.085 39.8693 13.448 39.9438 13.6667 39.9717C13.8854 39.9996 14.1972 40.0089 14.3647 39.9903C14.5322 39.9764 14.7835 39.9391 14.9231 39.9159C15.0627 39.8879 15.3465 39.8135 15.5513 39.753C15.756 39.6878 16.0817 39.5622 16.2725 39.4738C16.3686 39.4269 16.4742 39.3765 16.566 39.3326C16.6564 39.2894 16.7335 39.2526 16.7751 39.2318C16.8588 39.1853 19.9905 36.0862 23.7364 32.3357C27.4776 28.5851 30.8327 25.2161 31.191 24.8439C31.5446 24.4716 31.9774 24.0109 32.1495 23.8202C32.3171 23.6294 32.5078 23.3641 32.573 23.2385C32.6381 23.1129 32.7498 22.8616 32.8289 22.6801C32.908 22.4986 33.0243 22.1682 33.0941 21.9356C33.1919 21.5959 33.2244 21.3586 33.257 20.6792C33.2803 20.2185 33.3035 19.5391 33.3035 19.1669C33.3035 18.7946 33.3175 18.4503 33.3268 18.3991C33.3501 18.3246 33.4106 18.2967 33.6432 18.2688C33.8014 18.2502 34.0481 18.2129 34.1877 18.185C34.3273 18.1571 34.639 18.0734 34.8764 17.9989C35.109 17.9244 35.4347 17.7988 35.5976 17.7197C35.7558 17.6359 36.0722 17.4452 36.3049 17.2869C36.5329 17.1334 36.9191 16.817 37.1565 16.5843C37.3984 16.3516 37.7381 15.9794 37.9103 15.7467C38.0825 15.514 38.3105 15.1883 38.4175 15.0161C38.5199 14.8393 38.6874 14.5369 38.7898 14.3414C38.8875 14.1413 39.0317 13.8202 39.1155 13.6295C39.1946 13.4387 39.3295 13.0525 39.418 12.7686C39.511 12.4848 39.646 11.9543 39.7204 11.582C39.7949 11.2098 39.8833 10.6979 39.9159 10.442C39.9484 10.186 39.9717 9.57646 39.9717 9.09251C39.9717 8.51551 39.9438 8.01761 39.8926 7.65C39.8461 7.34288 39.7576 6.84033 39.6972 6.53321C39.632 6.22609 39.4878 5.70027 39.3807 5.36989C39.2691 5.03951 39.0597 4.51368 38.9154 4.20657C38.7665 3.89945 38.5524 3.48996 38.4315 3.29918C38.3151 3.10839 38.0499 2.73148 37.8451 2.46624C37.6357 2.201 37.2821 1.80547 37.0494 1.58677C36.8168 1.36806 36.4817 1.08887 36.3049 0.958576C36.1281 0.832938 35.8629 0.674726 35.7233 0.600273C35.5837 0.530474 35.2672 0.400182 35.0253 0.307117C34.7507 0.204744 34.3878 0.116332 34.062 0.0697992C33.7735 0.0279197 33.3966 0 33.2244 0C33.0476 0.00465328 32.8568 0.0186131 32.7917 0.0279197C32.7483 0.0341237 32.6366 0.0548031 32.5063 0.0789295ZM34.2575 1.71704C34.0248 1.65655 33.7503 1.63328 33.3035 1.63328C32.9592 1.63328 32.5916 1.6519 32.4892 1.67516C32.3868 1.70308 32.1356 1.8008 31.9308 1.89852C31.7261 1.99159 31.4329 2.15445 31.2794 2.26148C31.1258 2.36385 30.8233 2.62443 30.6046 2.84314C30.3859 3.06184 30.0928 3.40618 29.9439 3.60628C29.7996 3.81102 29.567 4.19259 29.4274 4.46248C29.2831 4.73237 29.083 5.18374 28.976 5.46294C28.869 5.74679 28.7526 6.06786 28.7154 6.1842C28.6782 6.30053 28.6503 6.44943 28.6503 6.52388C28.6503 6.61695 28.6782 6.65418 28.7526 6.67279C28.8131 6.68675 29.0179 6.69606 29.2087 6.69606C29.3994 6.69606 29.7438 6.72863 29.9764 6.77051C30.2091 6.80773 30.5535 6.90545 30.7442 6.98921C30.935 7.06832 31.2189 7.21722 31.3724 7.3196C31.526 7.42197 31.8424 7.69651 32.0751 7.92452C32.3403 8.19441 32.573 8.47826 32.7033 8.69697C32.8149 8.88775 32.9778 9.24605 33.0616 9.48803C33.2151 9.91613 33.2198 9.96266 33.257 10.9305C33.2803 11.4796 33.3035 12.8756 33.3082 14.025C33.3082 15.179 33.3268 16.2446 33.3454 16.3981C33.3687 16.6541 33.3826 16.6773 33.4897 16.6913C33.5548 16.696 33.8154 16.6494 34.0713 16.5843C34.3273 16.5191 34.6949 16.3935 34.8857 16.3004C35.0764 16.2074 35.3603 16.0445 35.5139 15.9328C35.6674 15.8211 35.8954 15.6304 36.0257 15.5047C36.156 15.3837 36.3654 15.1557 36.4957 15.0022C36.626 14.8486 36.8261 14.588 36.9378 14.4205C37.0448 14.253 37.2728 13.8342 37.4357 13.4898C37.6032 13.1455 37.7986 12.6755 37.8731 12.4429C37.9475 12.2148 38.0592 11.824 38.1197 11.582C38.1802 11.34 38.2546 10.9398 38.2872 10.6979C38.3244 10.4419 38.3477 9.78584 38.3477 9.13903C38.3477 8.36193 38.3244 7.85472 38.2686 7.46385C38.2267 7.15673 38.1104 6.6216 38.0127 6.27726C37.9103 5.93292 37.7521 5.46294 37.659 5.23027C37.5613 5.00226 37.3891 4.63465 37.2681 4.41595C37.1518 4.19724 36.9936 3.92735 36.9145 3.81102C36.84 3.69469 36.6586 3.45737 36.5143 3.27589C36.3654 3.09441 36.1234 2.83848 35.9745 2.69889C35.8256 2.55929 35.5837 2.3685 35.4441 2.27544C35.3045 2.17772 35.0532 2.03347 34.8857 1.94971C34.7181 1.86595 34.4343 1.76358 34.2575 1.71704ZM26.7331 9.0925L26.7191 8.25491C22.4288 8.2456 21.1492 8.25025 21.1119 8.25956C21.0747 8.26886 20.5163 8.28283 19.8788 8.29213L18.7155 8.31075C18.0315 8.57133 17.6546 8.72954 17.4359 8.83191L17.0403 9.0227C7.84078 18.2362 4.49042 21.6052 3.65748 22.4474C2.48485 23.6387 2.10794 24.0528 1.97765 24.2855C1.87527 24.4623 1.76359 24.7648 1.7031 25.0067C1.6333 25.2906 1.60538 25.5651 1.60538 25.8676C1.60848 26.1623 1.64261 26.4337 1.70775 26.6819C1.75894 26.8867 1.86131 27.1565 1.93111 27.2822C2.00091 27.4078 2.201 27.6684 2.37783 27.8638C2.55 28.0593 3.57837 29.1156 4.65794 30.2137C5.73284 31.3119 7.34288 32.9313 8.227 33.82C9.11578 34.7042 10.2791 35.8582 10.8096 36.384C11.3447 36.9098 11.9357 37.4682 12.1218 37.6311C12.3033 37.7893 12.5546 37.9708 12.6802 38.0313C12.8012 38.0918 13.0152 38.1755 13.1548 38.2127C13.2944 38.2546 13.569 38.3105 13.7598 38.3384C14.0203 38.3803 14.2111 38.3803 14.5043 38.343C14.723 38.3105 15.0161 38.2546 15.1557 38.2174C15.2953 38.1755 15.5047 38.0778 15.6211 37.9987C15.7374 37.9196 15.863 37.8312 15.9003 37.7986C15.9083 37.7915 15.9256 37.7766 15.9502 37.7553C16.0388 37.6786 16.2226 37.5195 16.4121 37.3519C16.6541 37.1425 18.2129 35.6162 19.8742 33.9643C21.5354 32.3124 23.7643 30.0928 24.8299 29.0272C25.8955 27.9616 27.6126 26.2352 28.6503 25.1882C29.6879 24.1412 30.6651 23.1268 30.8187 22.936C30.9769 22.7452 31.2049 22.3869 31.3259 22.145C31.4981 21.7913 31.5539 21.6098 31.6097 21.2376C31.6702 20.8513 31.6889 19.8974 31.7075 15.5373L31.7354 10.3024C31.405 9.61832 31.2282 9.31585 31.1305 9.19022C31.0327 9.06923 30.828 8.87379 30.6744 8.75746C30.5209 8.64578 30.2789 8.51084 30.1393 8.455C29.9997 8.40381 29.6972 8.33401 29.4646 8.29679C29.2319 8.26421 28.8922 8.23164 28.7108 8.23164C28.4176 8.23164 28.3711 8.24095 28.3664 8.3154C28.3664 8.35728 28.3524 8.43638 28.3431 8.48757C28.3292 8.53876 28.3106 8.92498 28.2966 9.34843L28.2687 10.1162C28.7247 10.3489 28.9667 10.5071 29.0923 10.6188C29.2226 10.7351 29.4087 10.9492 29.5111 11.0981C29.6135 11.247 29.7438 11.5076 29.8043 11.6751C29.8648 11.8426 29.9253 12.1357 29.9392 12.3265C29.9532 12.5638 29.9392 12.7732 29.888 12.9873C29.8462 13.1641 29.7577 13.4247 29.6879 13.569C29.6181 13.7179 29.432 13.9738 29.2738 14.1413C29.1109 14.3135 28.869 14.5089 28.7154 14.5927C28.5665 14.6718 28.3152 14.7742 28.1617 14.816C27.9988 14.8626 27.7196 14.8998 27.4869 14.8998C27.2264 14.8998 27.003 14.8719 26.8355 14.816C26.6959 14.7695 26.4958 14.6904 26.3934 14.6439C26.291 14.5927 26.0956 14.467 25.9653 14.3693C25.8257 14.2669 25.6163 14.0389 25.486 13.8482C25.3557 13.6667 25.2161 13.3968 25.1743 13.2572C25.1184 13.0804 25.0951 12.8384 25.0951 12.4661C25.0951 12.0892 25.1184 11.8565 25.1789 11.6751C25.2208 11.5355 25.3464 11.2935 25.4581 11.1399C25.5698 10.9864 25.7606 10.7677 25.8909 10.6513C26.0165 10.535 26.2492 10.3721 26.4074 10.2884C26.5997 10.1891 26.7036 10.1038 26.7191 10.0325C26.7331 9.97662 26.7378 9.55317 26.7331 9.0925ZM27.7429 11.6471C27.6684 11.6285 27.5521 11.6146 27.4869 11.6099C27.4218 11.6053 27.2962 11.6192 27.2077 11.6378C27.1023 11.6627 26.9906 11.7449 26.8727 11.8845C26.7657 12.0101 26.6819 12.1637 26.668 12.2707C26.6493 12.3638 26.6493 12.5266 26.668 12.629C26.6866 12.7407 26.7564 12.8896 26.8494 12.9966C26.9285 13.0943 27.0775 13.2153 27.1705 13.2618C27.2682 13.313 27.3939 13.3502 27.4497 13.3502C27.5102 13.3502 27.6405 13.3223 27.7382 13.2898C27.8406 13.2618 27.9941 13.1641 28.0779 13.085C28.1617 13.0013 28.264 12.857 28.3013 12.7686C28.3385 12.6802 28.3711 12.5406 28.3711 12.4661C28.3711 12.3917 28.3245 12.2381 28.2687 12.1311C28.2129 12.0194 28.1058 11.8752 28.0267 11.8054C27.9476 11.7309 27.8173 11.6611 27.7429 11.6471Z" fill="#F6F6F6"/>
<path d="M16.5052 17.85C16.696 17.7569 16.9798 17.6499 17.1334 17.6127C17.3288 17.5615 17.5801 17.5475 17.971 17.5568C18.427 17.5708 18.6038 17.5941 18.9249 17.7011C19.1436 17.7709 19.581 17.9524 20.4837 18.3758L20.6466 18.2176C20.735 18.1292 20.8932 18.0035 20.9956 17.9384C21.1259 17.85 21.2422 17.8128 21.3911 17.8128C21.5307 17.8128 21.6517 17.85 21.7634 17.9244C21.8518 17.9803 21.9728 18.1013 22.0333 18.1897C22.1031 18.2967 22.1357 18.4223 22.1357 18.548C22.1357 18.6643 22.0891 18.8411 22.024 18.9668C21.9635 19.0924 21.8472 19.2553 21.7681 19.3297C21.6889 19.4042 21.6238 19.4973 21.6238 19.5252C21.6238 19.5577 21.6983 19.7253 21.7913 19.8974C21.8797 20.0743 22.0286 20.3907 22.117 20.6094C22.2055 20.8281 22.3078 21.1631 22.3497 21.3539C22.3916 21.5447 22.4242 21.889 22.4288 22.1217C22.4381 22.3776 22.4102 22.6568 22.3637 22.843C22.3218 23.0105 22.2334 23.2618 22.1636 23.4014C22.0984 23.541 21.9449 23.7783 21.8332 23.9225C21.6657 24.1412 21.5866 24.2017 21.4284 24.2436C21.3167 24.2715 21.1538 24.2855 21.0654 24.2715C20.977 24.2622 20.856 24.2296 20.8002 24.2017C20.7397 24.1691 20.628 24.0575 20.5535 23.9458C20.4419 23.7969 20.4139 23.7038 20.4139 23.541C20.4139 23.3921 20.4698 23.2199 20.614 22.936C20.7816 22.601 20.8141 22.494 20.8281 22.1915C20.8374 22.0007 20.8188 21.7262 20.7909 21.5866C20.7583 21.447 20.6652 21.1864 20.5815 21.0049C20.4651 20.7723 20.3023 20.5489 19.9905 20.2185C19.7485 19.9626 19.4088 19.6601 19.2274 19.5391C19.004 19.3949 18.79 19.2972 18.5526 19.2367C18.3479 19.1855 18.0501 19.1529 17.8314 19.1529C17.5941 19.1529 17.394 19.1808 17.2869 19.232C17.1892 19.2739 17.0264 19.3856 16.924 19.4786C16.8077 19.5857 16.7053 19.7392 16.6634 19.8649C16.6262 19.9812 16.5983 20.1906 16.5983 20.3302C16.5983 20.4698 16.6401 20.7304 16.696 20.9119C16.7518 21.0933 16.8542 21.3539 16.924 21.4935C16.9938 21.6331 17.2776 22.1031 17.5475 22.5405C17.8221 22.9779 18.1664 23.5828 18.32 23.89C18.4735 24.2017 18.6504 24.6531 18.7202 24.9137C18.8179 25.2673 18.8504 25.4907 18.8504 25.8443C18.8551 26.2212 18.8318 26.3748 18.7388 26.6587C18.669 26.8727 18.534 27.1333 18.3898 27.3334C18.2641 27.5102 18.0315 27.7568 17.8779 27.8825C17.7243 28.0035 17.4731 28.1663 17.3195 28.2454C17.166 28.3199 16.8821 28.4129 16.6913 28.4548C16.44 28.506 16.1841 28.5246 15.7839 28.506C15.3837 28.4921 15.1325 28.4548 14.8998 28.3804C14.7183 28.3245 14.3275 28.157 14.025 28.0035C13.7272 27.8546 13.4526 27.7289 13.4201 27.7289C13.3921 27.7336 13.2758 27.8173 13.1641 27.915C13.0571 28.0174 12.8803 28.1431 12.7686 28.1942C12.6616 28.2454 12.5266 28.2873 12.4661 28.2873C12.4103 28.2873 12.2754 28.2501 12.1683 28.2035C12.0473 28.157 11.9217 28.0546 11.8426 27.9383C11.7449 27.8034 11.7123 27.6963 11.7123 27.5521C11.7123 27.4451 11.7449 27.2868 11.7821 27.2031C11.8193 27.124 11.9357 26.9565 12.038 26.8308C12.1404 26.7098 12.2242 26.5842 12.2242 26.5516C12.2242 26.5237 12.0939 26.2352 11.931 25.9141C11.7681 25.5931 11.6006 25.1743 11.5494 24.9835C11.5029 24.7927 11.4564 24.4158 11.4424 24.1459C11.4285 23.7829 11.4424 23.5596 11.5029 23.285C11.5494 23.0803 11.6658 22.7546 11.7681 22.5638C11.8659 22.373 12.0055 22.1543 12.0753 22.0845C12.1451 22.01 12.2428 21.9263 12.294 21.8983C12.3452 21.8751 12.4615 21.8332 12.5499 21.8146C12.643 21.7913 12.7919 21.796 12.8989 21.8239C13.0152 21.8565 13.1502 21.9449 13.2665 22.0705C13.4387 22.2567 13.448 22.2706 13.4294 22.5452C13.4154 22.7592 13.3689 22.9035 13.2246 23.1733C13.0431 23.5084 13.0385 23.5317 13.0385 23.9598C13.0431 24.2622 13.0664 24.4809 13.1269 24.6577C13.1734 24.7973 13.2665 25.016 13.3316 25.1463C13.3968 25.272 13.5457 25.5046 13.662 25.6535C13.7784 25.8071 13.9924 26.0351 14.132 26.1561C14.2716 26.2771 14.5089 26.4539 14.6532 26.5423C14.8021 26.6307 15.0534 26.7517 15.2116 26.8076C15.3931 26.8681 15.6629 26.9146 15.9235 26.9239C16.2586 26.9425 16.3842 26.9285 16.5517 26.8587C16.6634 26.8122 16.8402 26.6912 16.9379 26.5889C17.0357 26.4865 17.1473 26.3283 17.1892 26.2399C17.2451 26.1142 17.259 25.9839 17.2404 25.6815C17.2218 25.393 17.1753 25.1836 17.0682 24.9137C16.9891 24.7089 16.817 24.3599 16.682 24.1366C16.5471 23.9132 16.2772 23.4851 16.0864 23.1827C15.8956 22.8802 15.6443 22.4335 15.5233 22.1915C15.4024 21.9495 15.2488 21.5633 15.179 21.3306C15.0906 21.0375 15.0441 20.7629 15.0301 20.4233C15.0115 20.0603 15.0254 19.8556 15.0813 19.6322C15.1232 19.4647 15.2209 19.1948 15.3046 19.0273C15.4024 18.8225 15.5606 18.6131 15.8025 18.3712C16.0631 18.1106 16.2446 17.9756 16.5052 17.85Z" fill="#F6F6F6"/>
</svg>
