<svg width="32" height="35" viewBox="0 0 32 35" fill="none" xmlns="http://www.w3.org/2000/svg">
<path fill-rule="evenodd" clip-rule="evenodd" d="M25.5246 0L25.6786 0.0461935C25.7621 0.0725899 25.8875 0.120983 25.9535 0.156178C26.0195 0.189174 26.1273 0.259564 26.1911 0.312356C26.2549 0.365149 26.3495 0.466335 26.4045 0.538925C26.4595 0.611515 26.5321 0.739097 26.5673 0.824885C26.6025 0.910673 26.6421 1.04265 26.6553 1.12184C26.6729 1.22083 26.6795 3.93745 26.6795 18.6534L30.8923 18.6644L31.0683 18.7238C31.1651 18.7568 31.3081 18.825 31.3873 18.8756C31.4665 18.9262 31.5743 19.0141 31.6293 19.0691C31.6843 19.1263 31.7635 19.2297 31.8097 19.3023C31.8537 19.3749 31.9109 19.4981 31.9373 19.5773C31.9703 19.6697 31.9901 19.795 31.9967 19.9292C32.0055 20.0788 31.9967 20.1822 31.9703 20.2922C31.9505 20.378 31.8955 20.5209 31.8471 20.6111C31.8009 20.7013 31.7151 20.8267 31.6557 20.8905C31.5985 20.9521 28.2854 23.9723 24.2926 27.5995C20.2998 31.2268 16.9735 34.247 16.9009 34.3108C16.8283 34.3746 16.6941 34.4648 16.6039 34.511C16.5137 34.5572 16.3597 34.6122 16.2629 34.6342C16.1419 34.6606 16.0385 34.6694 15.9329 34.6628C15.8471 34.6562 15.6953 34.621 15.592 34.5858C15.4886 34.5506 15.35 34.4868 15.284 34.4428C15.218 34.3988 11.8213 31.3236 7.73827 27.6105C2.08449 22.4699 0.29596 20.8311 0.236563 20.7409C0.194764 20.6749 0.139767 20.5671 0.111168 20.5011C0.0847688 20.4351 0.0451704 20.301 0.0253712 20.2042C0.00337206 20.0964 -0.00542759 19.9864 0.00337206 19.9182C0.00997179 19.8588 0.0319709 19.7488 0.0495702 19.6763C0.0671695 19.6037 0.119967 19.4695 0.163966 19.3793C0.221163 19.2605 0.289361 19.1703 0.399356 19.0603C0.498352 18.9636 0.612748 18.8756 0.709544 18.825C0.793141 18.781 0.922936 18.7282 0.995533 18.7062C1.11653 18.671 1.29252 18.6666 5.34036 18.6534L5.34476 9.85902C5.35136 1.35061 5.35356 1.06245 5.39316 0.956866C5.41516 0.897475 5.45696 0.798488 5.48555 0.736897C5.51635 0.677505 5.58455 0.56972 5.63735 0.50153C5.69235 0.43114 5.80234 0.325555 5.88374 0.266163C5.96734 0.204571 6.09713 0.131982 6.17633 0.101186C6.25552 0.0703902 6.35452 0.0373948 6.39632 0.0241966C6.44472 0.0109985 9.96898 0.00219969 25.5246 0V0ZM7.99126 20.2922C7.90766 20.5143 7.83286 20.6529 7.77346 20.7431C7.71187 20.8333 7.60187 20.9543 7.52927 21.0137C7.45668 21.0753 7.34228 21.15 7.27628 21.183C7.21029 21.216 7.10029 21.2622 7.03429 21.2842C6.9265 21.3194 6.7967 21.326 5.86174 21.3348L4.80798 21.348C13.4734 29.2251 15.9967 31.5106 16.0055 31.5106C16.0165 31.5106 18.5398 29.2251 21.6153 26.4293L27.2053 21.348C25.2276 21.326 25.0934 21.3194 24.9856 21.2842C24.9196 21.2622 24.7942 21.2094 24.7106 21.1654C24.6116 21.1149 24.5016 21.0291 24.4026 20.9301C24.3168 20.8465 24.2178 20.7167 24.1782 20.6441C24.1408 20.5715 24.0902 20.4681 24.0682 20.4131C24.0308 20.3186 24.0286 19.9358 24.0176 11.4934L24.0066 2.67263L8.00225 2.66163L7.99126 20.2922ZM16.0055 6.66507C16.9141 6.66507 17.1429 6.67167 17.1935 6.69586C17.2265 6.71126 17.2705 6.75086 17.2925 6.78385C17.3255 6.83445 17.3299 6.92243 17.3409 8.52161L17.5719 8.6162C17.6995 8.66899 17.8777 8.75258 17.9679 8.80097C18.0581 8.85156 18.2076 8.94175 18.2978 9.00114C18.388 9.06273 18.5376 9.17492 18.6278 9.24971C18.718 9.3245 18.8764 9.47628 18.9798 9.58406C19.0832 9.69405 19.2218 9.86122 19.29 9.95581C19.3582 10.0526 19.4594 10.2088 19.5166 10.3056C19.5716 10.4023 19.6574 10.5739 19.7058 10.6839C19.7542 10.7961 19.8246 10.9897 19.8598 11.1128C19.895 11.2382 19.9412 11.4274 19.9588 11.5374C19.9764 11.6452 19.9918 11.7794 19.994 11.8343C19.994 11.9003 19.9764 11.9575 19.9434 12.0103C19.9104 12.0587 19.8598 12.0983 19.8092 12.1137C19.7476 12.1357 19.444 12.1401 17.3409 12.1313L17.3255 11.9883C17.3167 11.9091 17.2969 11.8102 17.2837 11.7684C17.2705 11.7266 17.2265 11.632 17.1869 11.5594C17.1451 11.4868 17.0615 11.3768 16.9955 11.313C16.9317 11.2514 16.8305 11.17 16.7689 11.1326C16.7095 11.0931 16.5797 11.0381 16.4829 11.0073C16.3685 10.9699 16.2321 10.9457 16.0979 10.9391C15.9527 10.9303 15.8317 10.9369 15.7019 10.9633C15.5986 10.9831 15.4512 11.0293 15.372 11.0667C15.2928 11.104 15.1762 11.1744 15.1102 11.225C15.0464 11.2756 14.9474 11.3812 14.8924 11.4604C14.8352 11.5396 14.767 11.6716 14.7362 11.7574C14.6944 11.8783 14.6834 11.9575 14.6834 12.1203C14.6812 12.2589 14.6944 12.3733 14.7208 12.4613C14.7428 12.5338 14.7912 12.6482 14.8286 12.7142C14.8682 12.7802 14.954 12.8902 15.02 12.9562C15.1014 13.0398 15.2026 13.1102 15.328 13.1718C15.4424 13.229 15.5832 13.2773 15.6865 13.2971C15.7789 13.3147 15.9329 13.3301 16.0275 13.3301C16.1199 13.3301 16.3003 13.3411 16.4279 13.3521C16.5555 13.3653 16.7535 13.3961 16.8679 13.4181C16.9823 13.4423 17.1913 13.4973 17.3299 13.5435C17.4685 13.5875 17.7259 13.6975 17.9019 13.7855C18.0779 13.8735 18.3132 14.012 18.4276 14.0934C18.542 14.177 18.729 14.331 18.8434 14.441C18.9578 14.5488 19.1162 14.7181 19.1932 14.8149C19.2724 14.9117 19.3912 15.0789 19.4594 15.1889C19.5254 15.2967 19.6244 15.4748 19.675 15.5848C19.7256 15.6926 19.796 15.8774 19.8334 15.9918C19.8708 16.1062 19.9148 16.2755 19.9346 16.3657C19.9522 16.4559 19.9808 16.6495 19.994 16.7947C20.0138 16.9926 20.0138 17.1334 19.994 17.3556C19.9808 17.5184 19.95 17.7471 19.9258 17.8615C19.9038 17.9759 19.8532 18.1651 19.8158 18.2794C19.7762 18.3938 19.6992 18.5874 19.6398 18.7084C19.5826 18.8294 19.4836 19.0075 19.4198 19.1043C19.356 19.2011 19.2592 19.3353 19.2042 19.4013C19.1492 19.4673 19.0502 19.5795 18.982 19.6499C18.9138 19.7202 18.784 19.8412 18.6938 19.916C18.6036 19.993 18.454 20.103 18.3638 20.1646C18.2736 20.224 18.1197 20.3186 18.0229 20.3714C17.9261 20.4241 17.7325 20.5121 17.3409 20.6705L17.3189 22.5293L17.1759 22.6568H16.0165C14.8836 22.659 14.855 22.6568 14.7956 22.6128C14.7626 22.5886 14.7186 22.5381 14.701 22.5029C14.6746 22.4479 14.668 22.3093 14.668 20.9191L14.5536 20.8839C14.4898 20.8641 14.3292 20.7959 14.195 20.7321C14.063 20.6683 13.865 20.5561 13.755 20.4857C13.6472 20.4131 13.469 20.2812 13.359 20.191C13.2512 20.1008 13.0951 19.9512 13.0137 19.861C12.9345 19.7708 12.8201 19.6345 12.7607 19.5553C12.7013 19.4761 12.6067 19.3375 12.5517 19.2473C12.4945 19.1571 12.4087 18.9987 12.3603 18.8954C12.3119 18.792 12.2393 18.605 12.1953 18.4774C12.1535 18.3498 12.1029 18.1673 12.0831 18.0705C12.0633 17.9737 12.0413 17.8197 12.0347 17.7295C12.0237 17.6107 12.0303 17.5425 12.0523 17.4898C12.0699 17.4502 12.1139 17.3974 12.1491 17.3754C12.2107 17.338 12.2855 17.3358 14.668 17.3336L14.6812 17.437C14.6878 17.4964 14.712 17.6063 14.734 17.6855C14.7582 17.7647 14.8154 17.8879 14.8616 17.9605C14.9078 18.0331 14.9958 18.1365 15.0574 18.1915C15.1168 18.2465 15.2246 18.3212 15.2972 18.3608C15.3676 18.3982 15.5018 18.451 15.592 18.4774C15.7129 18.5104 15.8229 18.5236 15.9989 18.5236C16.1551 18.5236 16.2915 18.5126 16.3839 18.4884C16.4631 18.4686 16.5995 18.418 16.6875 18.3762C16.7931 18.3256 16.8921 18.2575 16.9867 18.1629C17.0681 18.0837 17.1539 17.9715 17.1935 17.8945C17.2287 17.8219 17.2749 17.7075 17.2947 17.6415C17.3167 17.5711 17.3299 17.4436 17.3299 17.3336C17.3299 17.2302 17.3189 17.1026 17.3057 17.0476C17.2947 16.9926 17.2529 16.8848 17.2155 16.8057C17.1715 16.7111 17.0967 16.6121 17.0021 16.5175C16.9097 16.4229 16.8019 16.3437 16.7029 16.2931C16.6193 16.2513 16.4895 16.2007 16.4169 16.1809C16.3399 16.1589 16.1243 16.1369 15.8999 16.1237C15.6887 16.1127 15.4204 16.0886 15.306 16.0688C15.1916 16.049 15.0024 16.0094 14.888 15.9786C14.7736 15.9478 14.58 15.8818 14.459 15.8334C14.338 15.7872 14.1554 15.7014 14.052 15.6464C13.9486 15.5914 13.777 15.4858 13.6692 15.411C13.5614 15.3385 13.3876 15.2021 13.2842 15.1119C13.1808 15.0217 13.0291 14.8677 12.9455 14.7709C12.8641 14.6742 12.7321 14.5004 12.6551 14.386C12.5781 14.2716 12.4659 14.078 12.4065 13.9571C12.3449 13.8361 12.2613 13.6381 12.2195 13.5171C12.1777 13.3961 12.1227 13.2026 12.0985 13.0882C12.0721 12.9738 12.0413 12.7648 12.0259 12.6262C12.0127 12.4789 12.0061 12.2523 12.0149 12.0873C12.0215 11.9289 12.0479 11.6914 12.0721 11.5594C12.0941 11.4252 12.1491 11.2074 12.1931 11.0755C12.2371 10.9413 12.3141 10.7433 12.3669 10.6355C12.4175 10.5255 12.5165 10.3474 12.5869 10.2396C12.6595 10.1296 12.7783 9.96681 12.8531 9.87662C12.9301 9.78643 13.0599 9.64785 13.1412 9.56866C13.2248 9.48948 13.3524 9.37949 13.425 9.3245C13.4976 9.26731 13.6274 9.17712 13.711 9.12213C13.7968 9.06933 13.9684 8.97255 14.096 8.90656C14.2236 8.84276 14.4018 8.76358 14.657 8.67119L14.668 7.76272C14.6768 7.09181 14.6856 6.83885 14.7076 6.80145C14.723 6.77505 14.767 6.73326 14.8066 6.70906C14.8748 6.66727 14.9166 6.66507 16.0055 6.66507Z" fill="#D21341"/>
</svg>
