<svg width="60" height="60" viewBox="0 0 60 60" fill="none" xmlns="http://www.w3.org/2000/svg">
<circle cx="30" cy="30" r="30" transform="rotate(180 30 30)" fill="#D21341"/>
<path fill-rule="evenodd" clip-rule="evenodd" d="M26.5 28.7929H35C35.5523 28.7929 36 29.2406 36 29.7929C36 30.3452 35.5523 30.7929 35 30.7929H26.5V28.7929Z" fill="#F5F5F5"/>
<path fill-rule="evenodd" clip-rule="evenodd" d="M27.4142 29.7929L29.5 31.8787C29.8905 32.2692 29.8905 32.9024 29.5 33.2929C29.1095 33.6834 28.4763 33.6834 28.0858 33.2929L25.2929 30.5C24.9024 30.1095 24.9024 29.4763 25.2929 29.0858L28.0858 26.2929C28.4763 25.9024 29.1095 25.9024 29.5 26.2929C29.8905 26.6834 29.8905 27.3166 29.5 27.7071L27.4142 29.7929Z" fill="#F5F5F5"/>
</svg>
