<svg width="60" height="60" viewBox="0 0 60 60" fill="none" xmlns="http://www.w3.org/2000/svg">
<circle cx="30" cy="30" r="30" fill="#D21341"/>
<path fill-rule="evenodd" clip-rule="evenodd" d="M33.5 31.2071H25C24.4477 31.2071 24 30.7594 24 30.2071C24 29.6548 24.4477 29.2071 25 29.2071H33.5V31.2071Z" fill="#F5F5F5"/>
<path fill-rule="evenodd" clip-rule="evenodd" d="M32.5858 30.2071L30.5 28.1213C30.1095 27.7308 30.1095 27.0976 30.5 26.7071C30.8905 26.3166 31.5237 26.3166 31.9142 26.7071L34.7071 29.5C35.0976 29.8905 35.0976 30.5237 34.7071 30.9142L31.9142 33.7071C31.5237 34.0976 30.8905 34.0976 30.5 33.7071C30.1095 33.3166 30.1095 32.6834 30.5 32.2929L32.5858 30.2071Z" fill="#F5F5F5"/>
</svg>
