<svg width="120" height="120" viewBox="0 0 120 120" fill="none" xmlns="http://www.w3.org/2000/svg">
<circle cx="60" cy="60" r="60" fill="#0D1218"/>
<path fill-rule="evenodd" clip-rule="evenodd" d="M69.887 48.0511C69.887 46.9772 69.4598 45.946 68.7012 45.1859C67.941 44.4272 66.9099 44 65.836 44H54.0511C52.9772 44 51.946 44.4272 51.1859 45.1859C50.4272 45.946 50 46.9772 50 48.0511V71.6209C50 72.6948 50.4272 73.7259 51.1859 74.4861C51.946 75.2447 52.9772 75.6719 54.0511 75.6719H65.836C66.9099 75.6719 67.941 75.2447 68.7012 74.4861C69.4598 73.7259 69.887 72.6948 69.887 71.6209V48.0511ZM67.6773 48.0511V71.6209C67.6773 72.1099 67.4829 72.5769 67.1382 72.9231C66.792 73.2678 66.325 73.4622 65.836 73.4622H54.0511C53.562 73.4622 53.095 73.2678 52.7488 72.9231C52.4041 72.5769 52.2097 72.1099 52.2097 71.6209V48.0511C52.2097 47.562 52.4041 47.095 52.7488 46.7488C53.095 46.4041 53.562 46.2097 54.0511 46.2097H65.836C66.325 46.2097 66.792 46.4041 67.1382 46.7488C67.4829 47.095 67.6773 47.562 67.6773 48.0511Z" fill="white"/>
<path fill-rule="evenodd" clip-rule="evenodd" d="M65.4353 45.3729C65.5178 45.043 65.4426 44.6924 65.2335 44.4243C65.0243 44.1561 64.7031 44 64.3628 44H55.5242C55.1839 44 54.8627 44.1561 54.6536 44.4243C54.4444 44.6924 54.3693 45.043 54.4517 45.3729C54.4517 45.3729 54.7022 46.3688 54.9099 47.2025C55.1971 48.3501 56.2283 49.1559 57.4112 49.1559H62.4758C63.6587 49.1559 64.6899 48.3501 64.9771 47.2025C65.1848 46.3688 65.4353 45.3729 65.4353 45.3729ZM62.9472 46.2097L62.8338 46.6678C62.7925 46.8313 62.6452 46.9462 62.4758 46.9462H57.4112C57.2418 46.9462 57.0945 46.8313 57.0533 46.6678L56.9398 46.2097H62.9472Z" fill="white"/>
<path fill-rule="evenodd" clip-rule="evenodd" d="M59.207 71.9891H60.6801C61.2899 71.9891 61.7849 71.4942 61.7849 70.8843C61.7849 70.2744 61.2899 69.7795 60.6801 69.7795H59.207C58.5971 69.7795 58.1021 70.2744 58.1021 70.8843C58.1021 71.4942 58.5971 71.9891 59.207 71.9891Z" fill="white"/>
</svg>
