<svg width="12" height="18" viewBox="0 0 12 18" fill="none" xmlns="http://www.w3.org/2000/svg">
<rect x="0.818359" y="0.818115" width="9.81818" height="16.3636" fill="#D21341"/>
<path fill-rule="evenodd" clip-rule="evenodd" d="M0 2.45455C0 1.09894 1.09894 0 2.45455 0H9C10.3556 0 11.4545 1.09894 11.4545 2.45455V15.5455C11.4545 16.9011 10.3556 18 9 18H2.45455C1.09894 18 0 16.9011 0 15.5455V2.45455ZM2.45455 1.63636C2.00268 1.63636 1.63636 2.00268 1.63636 2.45455V15.5455C1.63636 15.9973 2.00268 16.3636 2.45455 16.3636H9C9.45187 16.3636 9.81818 15.9973 9.81818 15.5455V2.45455C9.81818 2.00268 9.45187 1.63636 9 1.63636H2.45455Z" fill="#D21341"/>
<path fill-rule="evenodd" clip-rule="evenodd" d="M6.54506 14.7274C6.54506 15.1792 6.17874 15.5455 5.72687 15.5455C5.275 15.5455 4.90869 15.1792 4.90869 14.7274C4.90869 14.2755 5.275 13.9092 5.72687 13.9092C6.17874 13.9092 6.54506 14.2755 6.54506 14.7274Z" fill="white"/>
<path fill-rule="evenodd" clip-rule="evenodd" d="M2.4541 0.818182C2.4541 0.366312 2.82041 0 3.27228 0H8.18137C8.63324 0 8.99956 0.366312 8.99956 0.818182V1.22727C8.99956 2.58288 7.90062 3.68182 6.54501 3.68182H4.90865C3.55304 3.68182 2.4541 2.58288 2.4541 1.22727V0.818182ZM4.19992 1.63636C4.34139 1.88092 4.6058 2.04545 4.90865 2.04545H6.54501C6.84785 2.04545 7.11227 1.88092 7.25373 1.63636H4.19992Z" fill="#D21341"/>
<path fill-rule="evenodd" clip-rule="evenodd" d="M8.18155 2.04557C8.18155 2.2715 7.9984 2.45466 7.77246 2.45466H3.68155C3.45562 2.45466 3.27246 2.2715 3.27246 2.04557C3.27246 1.81963 3.45562 1.63647 3.68155 1.63647H7.77246C7.9984 1.63647 8.18155 1.81963 8.18155 2.04557Z" fill="white"/>
</svg>
