<svg width="40" height="40" viewBox="0 0 40 40" fill="none" xmlns="http://www.w3.org/2000/svg">
<path d="M0 20C0 31.0457 8.95431 40 20 40C31.0457 40 40 31.0457 40 20C40 8.95431 31.0457 0 20 0C8.95431 0 0 8.95431 0 20Z" fill="#0088CC"/>
<path d="M10.3062 19.7786C15.4064 17.5565 18.8074 16.0916 20.5091 15.3838C25.3677 13.3629 26.3773 13.0118 27.0354 13.0001C27.1801 12.9977 27.5037 13.0336 27.7133 13.2036C27.8903 13.3473 27.939 13.5413 27.9623 13.6774C27.9856 13.8136 28.0146 14.1238 27.9916 14.3662C27.7283 17.1326 26.589 23.846 26.0094 26.9445C25.7642 28.2556 25.2813 28.6951 24.8138 28.7382C23.7978 28.8317 23.0263 28.0667 22.0422 27.4217C20.5024 26.4123 19.6325 25.784 18.1378 24.799C16.4105 23.6607 17.5303 23.0351 18.5147 22.0126C18.7723 21.7451 23.2488 17.6734 23.3354 17.304C23.3463 17.2578 23.3563 17.0856 23.254 16.9947C23.1517 16.9038 23.0007 16.9348 22.8918 16.9596C22.7373 16.9946 20.2775 18.6205 15.5121 21.8373C14.8139 22.3167 14.1815 22.5503 13.6148 22.5381C12.9901 22.5246 11.7885 22.1849 10.8952 21.8945C9.79958 21.5384 8.92878 21.3501 9.0046 20.7452C9.0441 20.4301 9.47795 20.1079 10.3062 19.7786Z" fill="white"/>
</svg>
