<svg width="37" height="39" viewBox="0 0 37 39" fill="none" xmlns="http://www.w3.org/2000/svg">
<path d="M19.2069 0.0171901L14.388 0L14.1187 0.303691C13.9697 0.469862 13.8322 0.670413 13.815 0.750634C13.7978 0.830854 13.792 0.997025 13.8092 1.12309C13.8207 1.26061 13.9009 1.44397 13.9983 1.57576C14.0957 1.70182 14.2619 1.83934 14.3708 1.88518C14.5198 1.94821 15.024 1.97686 16.3935 2.00551L18.2099 2.03989V5.59251C16.5425 5.83317 15.7402 5.98215 15.3449 6.07956C14.9495 6.17697 14.3077 6.36033 13.9124 6.49212C13.517 6.62391 12.8867 6.86457 12.5085 7.03647C12.1303 7.20837 11.5631 7.48342 11.2479 7.65532C10.9328 7.82149 10.3655 8.16529 9.9873 8.41741C9.60912 8.6638 9.13353 9.0076 8.92725 9.17377C8.72096 9.33422 8.2511 9.74678 7.87865 10.0791L7.20824 10.6922C7.20824 11.1793 7.23689 11.4199 7.26554 11.5345C7.29992 11.6778 7.39733 11.8153 7.54058 11.9242C7.65518 12.0216 7.83281 12.1133 7.92449 12.1305C8.0219 12.1534 8.18807 12.1534 8.29694 12.1362C8.41727 12.1133 8.6522 11.9815 8.88141 11.7981C9.09342 11.632 9.53463 11.271 9.85551 11.0017C10.1821 10.7266 10.7379 10.3083 11.0932 10.0677C11.4427 9.827 12.0902 9.45455 12.5257 9.2368C12.9555 9.02479 13.6087 8.72683 13.9697 8.58358C14.3307 8.4346 14.9495 8.22832 15.3449 8.11945C15.7402 8.01631 16.382 7.86733 16.7774 7.8043C17.2874 7.71262 17.8546 7.66678 18.7256 7.64386C19.459 7.62667 20.2555 7.63813 20.691 7.67824C21.0921 7.71262 21.7339 7.81003 22.1235 7.89025C22.5074 7.97047 23.1148 8.12518 23.4701 8.23405C23.8196 8.34292 24.4384 8.56066 24.8453 8.7211C25.2464 8.87581 25.8194 9.13939 26.1173 9.30556C26.4153 9.46601 26.931 9.77543 27.2633 9.99317C27.5957 10.2109 28.1114 10.5891 28.4093 10.824C28.7073 11.0647 29.2345 11.5345 29.5783 11.8669C29.9163 12.1992 30.3633 12.6748 30.5696 12.9269C30.7701 13.1791 31.1368 13.6833 31.3832 14.0443C31.6239 14.4053 31.9734 14.9726 32.151 15.3049C32.3287 15.6372 32.6037 16.2102 32.7584 16.577C32.9189 16.9494 33.1538 17.5969 33.2799 18.0095C33.4059 18.4278 33.5721 19.0982 33.6523 19.4993C33.7325 19.9061 33.8242 20.5479 33.8586 20.9318C33.8987 21.3501 33.9102 22.1007 33.893 22.7826C33.8701 23.6364 33.8185 24.1521 33.7096 24.8167C33.6237 25.3038 33.4632 26.0029 33.3544 26.3639C33.2455 26.7248 33.0679 27.2692 32.9533 27.5672C32.8444 27.8651 32.5923 28.4496 32.3917 28.8564C32.1912 29.2633 31.7958 29.9509 31.5207 30.3749C31.24 30.7989 30.7758 31.4177 30.4893 31.7501C30.2086 32.0824 29.7043 32.6096 29.372 32.9247C29.0454 33.2399 28.5927 33.641 28.375 33.8186C28.1572 33.9963 27.6816 34.3401 27.3206 34.5807C26.9596 34.8214 26.3408 35.1824 25.9454 35.3829C25.5501 35.5835 24.9312 35.8642 24.5702 36.0075C24.2092 36.1507 23.5904 36.357 23.195 36.4716C22.7996 36.5805 22.1693 36.7295 21.7912 36.804C21.1609 36.9243 20.9488 36.9358 19.2413 36.93C17.465 36.93 17.3447 36.9243 16.6055 36.7753C16.1815 36.6951 15.5225 36.5347 15.1443 36.4258C14.7661 36.3169 14.1874 36.1164 13.8551 35.9903C13.5227 35.8585 12.9211 35.5835 12.5085 35.3715C12.1017 35.1652 11.4656 34.7927 11.1047 34.5578C10.7437 34.3171 10.2165 33.9275 9.93 33.6983C9.64923 33.4691 9.27105 33.1482 9.09915 32.9935C8.92725 32.8331 8.70951 32.6612 8.61209 32.5981C8.50895 32.5351 8.33132 32.495 8.17088 32.495C8.01617 32.495 7.79843 32.5408 7.68383 32.5924C7.56923 32.6497 7.41452 32.7872 7.34576 32.8961C7.277 33.005 7.20251 33.1769 7.17959 33.2685C7.1624 33.3602 7.17386 33.555 7.20824 33.6983C7.26554 33.8988 7.37441 34.0478 7.71821 34.3916C7.95887 34.6266 8.423 35.0391 8.75535 35.3027C9.08769 35.5663 9.61485 35.9502 9.93 36.1622C10.2452 36.3742 10.8124 36.7123 11.1906 36.9186C11.5688 37.1248 12.1991 37.4343 12.5945 37.6119C12.9898 37.7838 13.5055 37.9958 13.7405 38.076C13.9754 38.162 14.5083 38.3167 14.9151 38.4256C15.3277 38.5287 16.0611 38.6834 16.5482 38.7636C17.0352 38.8496 17.8374 38.9413 18.3245 38.9699C18.9204 39.01 19.5049 39.01 20.1008 38.9699C20.5879 38.9355 21.2583 38.8668 21.5906 38.8209C21.9229 38.7694 22.4387 38.6834 22.7366 38.6204C23.0346 38.5574 23.6248 38.4084 24.0431 38.2823C24.4556 38.1563 25.0401 37.9614 25.3323 37.8468C25.6188 37.7322 26.146 37.503 26.4898 37.3369C26.8336 37.1707 27.4295 36.8441 27.8077 36.6149C28.1859 36.3857 28.6786 36.0705 28.8964 35.9101C29.0912 35.7752 29.4253 35.5141 29.6975 35.3013C29.7377 35.27 29.7764 35.2397 29.8132 35.211C30.0997 34.9818 30.5868 34.5406 30.8962 34.2312C31.2113 33.9218 31.7041 33.3946 31.9849 33.0623C32.2714 32.7299 32.7126 32.1512 32.9704 31.773C33.2283 31.4006 33.5893 30.8046 33.7841 30.4608C33.9732 30.117 34.2253 29.6242 34.3399 29.3721C34.4545 29.12 34.6493 28.6673 34.7697 28.3694C34.89 28.0714 35.0791 27.5041 35.1937 27.1088C35.3083 26.7134 35.4802 26.0315 35.5719 25.5903C35.6636 25.1491 35.7782 24.3641 35.8355 23.8426C35.9042 23.155 35.9214 22.6164 35.8985 21.8658C35.8813 21.2813 35.8183 20.502 35.7495 20.0608C35.6865 19.6368 35.6063 19.144 35.5719 18.9721C35.5375 18.8002 35.4229 18.3132 35.314 17.8949C35.2052 17.4823 34.9473 16.7088 34.7353 16.1759C34.529 15.6487 34.2081 14.921 34.0133 14.56C33.8242 14.199 33.4747 13.6031 33.2398 13.2421C32.9991 12.8811 32.5636 12.268 32.2714 11.8783L31.7328 11.1793L33.8529 9.17377C34.741 10.0161 35.0848 10.3026 35.188 10.3542C35.3083 10.4172 35.4687 10.4401 35.6636 10.4287C35.8641 10.4115 36.0131 10.3599 36.1621 10.2453C36.2767 10.1593 36.4142 10.0104 36.46 9.91868C36.5059 9.827 36.546 9.61499 36.546 9.46028C36.546 9.20243 36.5173 9.13939 36.2709 8.84143C36.1162 8.6638 35.5203 8.02777 34.9358 7.43185C34.3571 6.83592 33.5664 6.05664 33.1825 5.69565C32.5751 5.13983 32.4433 5.04242 32.237 5.01377C32.0422 4.97939 31.9276 5.00231 31.7041 5.11118C31.5322 5.19713 31.366 5.32893 31.2858 5.44926C31.2171 5.55813 31.1426 5.73003 31.1254 5.82171C31.1082 5.91339 31.1196 6.10248 31.154 6.23427C31.2056 6.42909 31.3431 6.61245 31.8359 7.11669L32.449 7.747C30.6039 9.58634 30.3404 9.82127 30.2773 9.77543C30.26 9.76056 30.1955 9.71031 30.1028 9.63813C29.9812 9.54344 29.8112 9.411 29.6356 9.27118C29.3204 9.02479 28.7474 8.6065 28.352 8.34292C27.9567 8.07934 27.3149 7.69543 26.9195 7.49488C26.5242 7.2886 25.8824 6.9849 25.487 6.82446C25.0917 6.66402 24.4728 6.44628 24.1118 6.33741C23.7508 6.23427 23.1549 6.08529 22.7939 5.99934C22.4329 5.91912 21.8313 5.81598 21.4645 5.76441C21.0921 5.71857 20.6967 5.67846 20.5879 5.67846C20.479 5.67846 20.3472 5.667 20.3014 5.64981C20.2269 5.62689 20.2154 5.36904 20.2154 3.8162V2.01124C23.6133 1.98259 23.9399 1.9654 24.0832 1.88518C24.1806 1.83934 24.341 1.70182 24.4442 1.58722C24.5416 1.47262 24.6447 1.31218 24.6619 1.2205C24.6848 1.13455 24.6848 0.962645 24.6619 0.836584C24.6447 0.710523 24.5645 0.521433 24.4843 0.418292C24.404 0.320882 24.2723 0.189091 24.1863 0.131791C24.0431 0.0401102 23.6878 0.0343802 19.2069 0.0171901Z" fill="#F6F6F6"/>
<path d="M19.6539 9.99317C19.5564 9.95306 19.3502 9.91868 19.1955 9.91868C19.0293 9.91868 18.8574 9.95879 18.7485 10.0275C18.6568 10.0848 18.5193 10.2109 18.4563 10.2969C18.3875 10.3885 18.3016 10.6177 18.2615 10.8068C18.2213 11.0188 18.2042 11.4887 18.2214 12.0388C18.2443 12.7608 18.2672 12.9671 18.3589 13.1504C18.4162 13.2765 18.5365 13.4369 18.6225 13.5114C18.7141 13.5802 18.886 13.6661 19.0121 13.7005C19.1611 13.7349 19.3158 13.7406 19.4533 13.7005C19.5736 13.6718 19.7627 13.563 19.8773 13.4598C20.0149 13.3338 20.1123 13.1791 20.1581 13.0129C20.2039 12.841 20.2211 12.3883 20.2039 11.6377L20.1868 10.5203C19.9174 10.1708 19.757 10.039 19.6539 9.99317Z" fill="#F6F6F6"/>
<path fill-rule="evenodd" clip-rule="evenodd" d="M27.1201 13.8667C26.994 13.8094 26.8508 13.7635 26.8049 13.7635C26.7591 13.7635 26.6273 13.7922 26.5184 13.8266C26.3637 13.8724 25.6761 14.5256 23.5961 16.5884L20.8744 19.293C20.3415 19.081 20.0206 18.9779 19.8143 18.9377C19.608 18.8919 19.3444 18.8575 19.2241 18.8575C19.1095 18.8575 18.823 18.8976 18.5938 18.9492C18.3703 19.0008 17.9979 19.1268 17.7801 19.23C17.5567 19.3388 17.2472 19.5337 17.0811 19.6712C16.9206 19.8087 16.6857 20.0436 16.5596 20.2041C16.4336 20.3588 16.2502 20.6453 16.1585 20.8344C16.0611 21.0235 15.9408 21.3444 15.8892 21.5506C15.8147 21.8257 15.7975 22.0491 15.8205 22.4101C15.8434 22.6795 15.9121 23.092 15.9752 23.3269C16.0439 23.5733 16.1987 23.9114 16.3362 24.1234C16.468 24.3297 16.6972 24.6105 16.8404 24.7537C16.9894 24.897 17.2472 25.1033 17.4134 25.2007C17.5853 25.3038 17.9177 25.4585 18.1526 25.5387C18.4162 25.6304 18.76 25.6992 19.0407 25.7221C19.3674 25.7393 19.6309 25.7221 19.9576 25.6476C20.2097 25.5903 20.5936 25.4528 20.8171 25.3382C21.0864 25.2007 21.3557 25.0001 21.6536 24.7022C21.9802 24.3755 22.135 24.1635 22.2954 23.8255C22.41 23.5848 22.5361 23.2467 22.5704 23.0806C22.6106 22.9029 22.622 22.5133 22.6048 22.1236C22.5876 21.6137 22.5418 21.3673 22.4272 21.0349L22.2782 20.6052C26.7304 16.13 27.567 15.2533 27.653 15.0757C27.7561 14.8752 27.7733 14.7663 27.7389 14.5887C27.716 14.4569 27.6243 14.2735 27.5269 14.1646C27.4295 14.0558 27.2461 13.9182 27.1201 13.8667ZM18.8918 20.9089C18.7829 20.9318 18.5881 21.0177 18.462 21.1037C18.3417 21.1896 18.1469 21.3787 18.038 21.5334C17.8489 21.7913 17.8375 21.8314 17.8375 22.2669C17.8375 22.6221 17.8661 22.7769 17.9578 22.9545C18.0265 23.0806 18.187 23.2811 18.3188 23.4014C18.4448 23.516 18.6225 23.6421 18.7141 23.6765C18.8001 23.7109 19.035 23.7395 19.2413 23.7395C19.5106 23.7452 19.6768 23.7109 19.843 23.6249C19.969 23.5619 20.1581 23.4301 20.2613 23.3327C20.3587 23.2353 20.4962 23.0462 20.5592 22.9144C20.628 22.7597 20.6738 22.5419 20.6738 22.3414C20.6738 22.158 20.6337 21.9116 20.5879 21.797C20.5363 21.6767 20.3988 21.4819 20.2842 21.3615C20.1696 21.2412 19.969 21.0865 19.843 21.0235C19.7169 20.9604 19.4992 20.8974 19.3559 20.8917C19.2127 20.8802 19.0064 20.886 18.8918 20.9089Z" fill="#F6F6F6"/>
<path d="M10.3598 15.0471C10.2795 15.0299 8.56625 15.0069 6.54928 14.9955C4.53231 14.984 2.36636 14.9898 1.73606 15.0127C0.698927 15.0413 0.572866 15.0585 0.418155 15.1674C0.320745 15.2304 0.183224 15.4138 0.108734 15.5685C-0.00586691 15.7977 -0.017327 15.8951 0.0170532 16.1071C0.0457033 16.2905 0.120194 16.428 0.269174 16.577C0.429615 16.7489 0.544216 16.8062 0.790607 16.852C0.985428 16.8864 2.79612 16.9093 5.54653 16.9036C7.98752 16.9036 10.1134 16.8807 10.2738 16.852C10.4973 16.8176 10.6061 16.7603 10.7666 16.5827C10.8869 16.4509 10.9843 16.279 11.0072 16.1472C11.0302 16.0326 11.0187 15.8321 10.9901 15.706C10.9557 15.5628 10.8525 15.4023 10.715 15.2763C10.6004 15.1674 10.44 15.0642 10.3598 15.0471Z" fill="#F6F6F6"/>
<path d="M12.7664 21.4418C12.5945 21.373 11.8954 21.3558 8.06774 21.3501C5.59237 21.3386 3.41496 21.3444 3.22014 21.3615C2.8878 21.3845 2.86488 21.3959 2.6013 21.6824L2.32625 21.9804C2.37782 22.582 2.42939 22.7769 2.49243 22.8628C2.54973 22.9373 2.69871 23.0519 2.82477 23.1207C3.05397 23.241 3.07689 23.241 7.86719 23.241H12.6804C13.0414 23.0233 13.156 22.8857 13.2591 22.6794C13.3909 22.4101 13.3967 22.3586 13.3394 22.1523C13.2993 22.0262 13.2018 21.8314 13.1159 21.7283C13.0357 21.6194 12.8752 21.4933 12.7664 21.4418Z" fill="#F6F6F6"/>
<path d="M31.3145 21.6366L31.0738 21.373C29.1657 21.3845 28.5297 21.4131 28.438 21.4418C28.3406 21.4704 28.2031 21.5506 28.1286 21.6251C28.0598 21.6939 27.9624 21.8142 27.9223 21.8944C27.8822 21.9747 27.8363 22.1236 27.8134 22.221C27.7962 22.3299 27.8077 22.4846 27.8535 22.5935C27.8936 22.6966 28.0312 22.8915 28.1572 23.029L28.3807 23.2754C30.2429 23.2696 30.879 23.2467 30.9879 23.2181C31.0967 23.1837 31.2686 23.0748 31.366 22.9717C31.4577 22.8685 31.5723 22.6909 31.6124 22.582C31.664 22.4331 31.664 22.3185 31.6182 22.1351C31.5838 21.9861 31.4692 21.797 31.3145 21.6366Z" fill="#F6F6F6"/>
<path d="M9.5862 27.6703C9.17364 27.6474 7.71821 27.6359 6.34873 27.6417C4.97926 27.6474 3.14565 27.6646 2.28041 27.6818C0.928128 27.7047 0.676006 27.7219 0.515566 27.8078C0.418155 27.8651 0.280634 27.9797 0.211874 28.0657C0.148844 28.1574 0.0743535 28.3235 0.0399733 28.4381C0.0113232 28.5585 0.0113232 28.7361 0.0342433 28.8392C0.0628934 28.9424 0.137384 29.1143 0.206144 29.2117C0.274904 29.3148 0.418155 29.4466 0.515566 29.4982C0.693196 29.5956 1.05992 29.6013 5.58664 29.6128L10.4744 29.63C10.6634 29.4294 10.7895 29.2575 10.8812 29.1143C10.9729 28.971 11.0474 28.7762 11.0474 28.6845C11.0474 28.5871 10.9958 28.4037 10.9328 28.2662C10.8583 28.1115 10.7322 27.9683 10.5718 27.8709C10.354 27.7276 10.2623 27.7104 9.5862 27.6703Z" fill="#F6F6F6"/>
<path d="M26.4325 28.2261C26.3064 28.1574 26.1402 28.0829 26.06 28.0657C25.9798 28.0485 25.8308 28.0657 25.7277 28.1001C25.6303 28.1402 25.4469 28.2433 25.3323 28.3407C25.2177 28.4324 25.0859 28.6043 25.0401 28.7132C24.9885 28.845 24.9713 28.9939 25 29.1429C25.0172 29.269 25.1203 29.4867 25.2292 29.63C25.3323 29.7732 25.7277 30.1915 26.1116 30.5582C26.4898 30.9307 26.8966 31.2745 27.0055 31.3203C27.1144 31.3662 27.2748 31.4063 27.3607 31.4063C27.4524 31.4063 27.6243 31.3547 27.7504 31.2974C27.8764 31.2401 28.0369 31.1312 28.1056 31.0567C28.1744 30.9823 28.2546 30.8046 28.289 30.6614C28.3291 30.4895 28.3291 30.329 28.2947 30.1858C28.2604 30.0712 28.0999 29.8133 27.9337 29.6128C27.7618 29.418 27.4066 29.057 27.143 28.8048C26.8794 28.5585 26.5585 28.3006 26.4325 28.2261Z" fill="#F6F6F6"/>
<path d="M19.6252 30.9708C19.5393 30.925 19.3731 30.8906 19.2528 30.8906C19.1382 30.8963 18.9491 30.925 18.8402 30.9651C18.7313 31.0052 18.5709 31.1255 18.4792 31.2344C18.3474 31.4006 18.3073 31.5209 18.2615 31.9506C18.2271 32.2314 18.2099 32.7987 18.2214 33.2112C18.2385 33.7384 18.2729 34.0077 18.336 34.128C18.3818 34.2197 18.5193 34.3859 18.6339 34.4833C18.7657 34.6094 18.9261 34.6839 19.0809 34.7068C19.2184 34.7297 19.396 34.7297 19.482 34.7068C19.5736 34.6896 19.7742 34.5521 19.9289 34.3974L20.2211 34.128C20.2154 32.3517 20.1868 31.7329 20.1581 31.6068C20.1294 31.4808 20.032 31.3031 19.9461 31.2172C19.8544 31.1255 19.7169 31.0166 19.6252 30.9708Z" fill="#F6F6F6"/>
</svg>
