<svg width="20" height="20" viewBox="0 0 20 20" fill="none" xmlns="http://www.w3.org/2000/svg">
<path d="M11.6604 0.155687C11.4603 0.11756 11.1299 0.0667231 10.9297 0.0444821C10.7295 0.022241 10.272 0.00317729 9.91303 0C9.55402 0 9.09652 0.0127092 8.89636 0.0285956C8.69621 0.0476594 8.36579 0.0921415 8.16563 0.127092C7.96547 0.162042 7.63188 0.231942 7.42537 0.285956C7.22203 0.336793 6.92021 0.42258 6.75818 0.476594C6.59932 0.527431 6.37375 0.61004 6.25937 0.654522C6.145 0.699004 5.98932 0.76255 5.90989 0.7975C5.83047 0.832451 5.59536 0.946833 5.38567 1.05168C5.17598 1.15971 4.87734 1.32493 4.71848 1.42025C4.55963 1.51875 4.31817 1.67443 4.17838 1.77293C4.03858 1.86825 3.759 2.0843 3.55884 2.24952C3.35869 2.41792 3.04733 2.70388 2.86306 2.88816C2.68196 3.07244 2.40874 3.37111 2.25306 3.55539C2.10056 3.73967 1.92582 3.95891 1.86227 4.04787C1.80191 4.13366 1.6367 4.38466 1.49691 4.6039C1.36029 4.82313 1.16014 5.17263 1.05529 5.38233C0.950447 5.59203 0.836073 5.82715 0.801125 5.90659C0.766176 5.98602 0.702635 6.14171 0.658155 6.25609C0.616852 6.37047 0.543779 6.57064 0.4993 6.70091C0.451643 6.83118 0.372217 7.09489 0.321383 7.28871C0.267372 7.48252 0.203831 7.75895 0.178413 7.90828C0.152998 8.05761 0.114872 8.25778 0.0989876 8.3531C0.0799236 8.44842 0.0513306 8.71531 0.0322685 8.9409C0.0163822 9.16649 0.000497818 9.56683 0.000497818 9.83054C0.000497818 10.0911 0.0163822 10.4946 0.0322685 10.7202C0.0513306 10.9458 0.102163 11.3334 0.146643 11.5781C0.191122 11.8227 0.261019 12.1595 0.305498 12.3247C0.349977 12.4899 0.429405 12.7568 0.480238 12.9125C0.534248 13.0682 0.613676 13.2906 0.658155 13.405C0.702635 13.5194 0.766176 13.6751 0.801125 13.7545C0.836073 13.8339 0.909147 13.9896 0.963158 14.104C1.01717 14.2184 1.13154 14.4408 1.2205 14.5965C1.30628 14.7522 1.50962 15.0826 1.67165 15.3273C1.83368 15.5719 2.0942 15.9214 2.2467 16.1057C2.3992 16.29 2.68514 16.5982 2.87577 16.7888C3.06957 16.9795 3.38093 17.2654 3.57155 17.4243C3.759 17.5831 4.09577 17.8341 4.31499 17.9835C4.53739 18.1328 4.86781 18.3393 5.05208 18.441C5.23635 18.5427 5.52229 18.692 5.6875 18.7683C5.85271 18.8445 6.08146 18.943 6.19583 18.9875C6.31021 19.0288 6.52307 19.1082 6.6724 19.1591C6.82172 19.2099 7.1299 19.302 7.35547 19.3592C7.58105 19.4196 7.9337 19.4959 8.13386 19.534C8.33402 19.5689 8.65808 19.6134 8.84871 19.6325C9.03933 19.6516 9.48413 19.6643 9.8336 19.6643C10.1831 19.6643 10.6279 19.6516 10.8185 19.6325C11.0091 19.6134 11.3618 19.5626 11.5969 19.5181C11.832 19.4736 12.1624 19.4037 12.3276 19.3592C12.4928 19.3148 12.7724 19.2322 12.9472 19.1718C13.1219 19.1146 13.3729 19.0256 13.5031 18.9716C13.6334 18.9208 13.8939 18.8032 14.4245 18.5522L15.384 18.8096C15.9146 18.9494 16.5023 19.1051 16.6961 19.1559C16.8899 19.2067 17.1854 19.283 17.3538 19.3275C17.5254 19.372 17.8049 19.4482 17.9733 19.4927L18.0258 19.5063C18.1961 19.5504 18.43 19.6111 18.5706 19.6484C18.7263 19.6897 19.0281 19.7691 19.2378 19.8231C19.4475 19.8803 19.6953 19.9439 19.7843 19.9693C19.9495 20.0138 19.9527 20.0138 19.9685 19.9439C19.9781 19.8962 19.6699 18.924 18.3101 14.8507L18.434 14.6283C18.5039 14.5043 18.6373 14.2406 18.7326 14.0405C18.8311 13.8403 18.9455 13.5829 18.9868 13.4685C19.0313 13.3542 19.1139 13.119 19.1743 12.9443C19.2315 12.7695 19.3172 12.4899 19.3617 12.3247C19.4062 12.1595 19.4761 11.8291 19.5206 11.5939C19.565 11.3588 19.6127 11.0093 19.6318 10.8155C19.6508 10.6217 19.6667 10.18 19.6667 9.83054C19.6667 9.48104 19.654 9.0394 19.6349 8.84558C19.6159 8.65177 19.5714 8.33086 19.5365 8.13069C19.4983 7.93052 19.4221 7.58102 19.3617 7.35225C19.3045 7.12349 19.2124 6.81847 19.1616 6.66914C19.1107 6.5198 19.0313 6.30692 18.99 6.19254C18.9455 6.07816 18.847 5.84939 18.7708 5.68418C18.6945 5.51896 18.5452 5.233 18.4435 5.04872C18.3419 4.86443 18.1322 4.53082 17.9765 4.30205C17.824 4.07329 17.5794 3.74603 17.4332 3.57128C17.2871 3.39653 17.0329 3.11375 16.8677 2.94535C16.7025 2.77695 16.4324 2.52277 16.2672 2.37979C16.102 2.23681 15.8669 2.043 15.743 1.95086C15.6191 1.85872 15.3427 1.67126 15.1235 1.53145C14.9042 1.39165 14.5611 1.19148 14.361 1.08981C14.1608 0.984961 13.9257 0.870578 13.8367 0.832451C13.751 0.794323 13.5858 0.724423 13.4714 0.679941C13.357 0.632281 13.1219 0.549672 12.9472 0.489303C12.7724 0.432112 12.4928 0.346325 12.3276 0.301843C12.1624 0.260538 11.8606 0.190638 11.6604 0.155687Z" fill="#2CB742"/>
<path d="M5.33467 4.70749C5.68033 4.36181 5.77025 4.28875 5.89952 4.23816C5.98663 4.20443 6.12152 4.17914 6.20864 4.17914C6.29294 4.17633 6.40816 4.18757 6.46156 4.20443C6.51495 4.21849 6.63579 4.28031 6.72852 4.33933C6.82126 4.39835 6.99268 4.54168 7.11071 4.6569C7.22593 4.77213 7.42264 4.99133 7.54629 5.1459C7.66712 5.30047 7.8807 5.59837 8.02121 5.80634C8.17296 6.03679 8.29098 6.25037 8.3219 6.34593C8.35 6.43586 8.37248 6.55108 8.37248 6.59886C8.37248 6.64945 8.35843 6.73938 8.34438 6.79558C8.3219 6.88552 8.24321 6.96421 7.89475 7.26772C7.5491 7.56562 7.45636 7.66398 7.37487 7.80731C7.32147 7.90567 7.25684 8.06587 7.23155 8.16704C7.20063 8.29631 7.1922 8.39749 7.20625 8.51833C7.21468 8.61389 7.26246 8.76564 7.31023 8.86963C7.39173 9.03544 7.53786 9.19001 8.83335 10.4884C10.1345 11.7868 10.2862 11.9329 10.452 12.0116C10.556 12.0594 10.7077 12.1072 10.8033 12.1156C10.9241 12.1296 11.0253 12.1212 11.1546 12.0903C11.2557 12.065 11.4159 12.0004 11.5143 11.947C11.6576 11.8655 11.7559 11.7727 12.0538 11.4271C12.3573 11.0786 12.436 10.9999 12.5259 10.9774C12.5821 10.9633 12.6721 10.9493 12.7226 10.9493C12.7704 10.9493 12.8856 10.9718 12.9756 10.9999C13.0711 11.0308 13.2847 11.1488 13.5151 11.3006C13.7231 11.4411 14.0209 11.6547 14.1755 11.7755C14.3301 11.8992 14.5493 12.0959 14.6645 12.2111C14.7797 12.3292 14.923 12.5006 14.982 12.5934C15.041 12.6861 15.1029 12.8069 15.1169 12.8603C15.1338 12.9137 15.145 13.0261 15.145 13.1048C15.145 13.1891 15.1197 13.324 15.086 13.414C15.0326 13.5545 14.968 13.6332 14.6139 13.9873C14.3891 14.2121 14.1081 14.465 13.9928 14.5522C13.8776 14.6365 13.7118 14.7489 13.6275 14.7995C13.5432 14.8501 13.3858 14.9259 13.2762 14.9681C13.1667 15.0103 12.984 15.0665 12.8688 15.0946C12.7423 15.1227 12.54 15.1423 12.3629 15.1423C12.1999 15.1423 11.9555 15.1227 11.815 15.0946C11.6744 15.0693 11.4496 15.0046 11.3091 14.9541C11.1686 14.9035 10.9438 14.8023 10.8033 14.7292C10.6628 14.6562 10.438 14.5213 10.2975 14.4257C10.1569 14.333 9.91246 14.1503 9.74947 14.0182C9.58367 13.8833 8.61697 12.9446 7.56315 11.8936C6.38849 10.7245 5.55668 9.87011 5.3712 9.6481C5.2054 9.44856 4.99183 9.17034 4.89909 9.02982C4.80355 8.88649 4.66585 8.65604 4.59278 8.51833C4.51972 8.38063 4.41855 8.15018 4.36797 8.01247C4.31739 7.87476 4.25275 7.64431 4.22746 7.5066C4.19936 7.36609 4.17969 7.12159 4.17969 6.95858C4.17969 6.78153 4.19936 6.57919 4.22746 6.45272C4.25556 6.3375 4.31177 6.15201 4.35392 6.04522C4.39607 5.93842 4.47195 5.77823 4.52253 5.69392C4.57311 5.60961 4.68552 5.4438 4.76983 5.32858C4.85694 5.21335 5.10986 4.93232 5.33467 4.70749Z" fill="black"/>
</svg>
