<svg width="40" height="40" viewBox="0 0 40 40" fill="none" xmlns="http://www.w3.org/2000/svg">
<path d="M0 20C0 31.0457 8.95431 40 20 40C31.0457 40 40 31.0457 40 20C40 8.95431 31.0457 0 20 0C8.95431 0 0 8.95431 0 20Z" fill="#25D366"/>
<path fill-rule="evenodd" clip-rule="evenodd" d="M27.15 13.7313C25.3688 11.95 22.9937 11 20.5 11C15.275 11 11 15.275 11 20.5C11 22.1625 11.475 23.825 12.3063 25.25L11 30L15.9875 28.6938C17.4125 29.4062 18.9563 29.8813 20.5 29.8813C25.725 29.8813 30 25.6062 30 20.3812C30 17.8875 28.9313 15.5125 27.15 13.7313ZM20.5 28.3375C19.075 28.3375 17.65 27.9813 16.4625 27.2688L16.225 27.15L13.2562 27.9812L14.0875 25.1312L13.85 24.775C13.0187 23.4688 12.6625 22.0438 12.6625 20.6188C12.6625 16.3438 16.225 12.7812 20.5 12.7812C22.6375 12.7812 24.5375 13.6125 26.0813 15.0375C27.625 16.5812 28.3375 18.4813 28.3375 20.6188C28.3375 24.775 24.8938 28.3375 20.5 28.3375ZM24.775 22.4C24.5375 22.2812 23.35 21.6875 23.1125 21.6875C22.875 21.5688 22.7562 21.5688 22.6375 21.8063C22.5187 22.0438 22.0438 22.5187 21.925 22.7562C21.8063 22.875 21.6875 22.875 21.45 22.875C21.2125 22.7563 20.5 22.5188 19.55 21.6875C18.8375 21.0938 18.3625 20.2625 18.2438 20.025C18.125 19.7875 18.2438 19.6687 18.3625 19.55C18.4813 19.4312 18.6 19.3125 18.7188 19.1937C18.8375 19.075 18.8375 18.9563 18.9563 18.8375C19.075 18.7188 18.9563 18.6 18.9563 18.4813C18.9563 18.3625 18.4813 17.175 18.2438 16.7C18.125 16.3438 17.8875 16.3438 17.7688 16.3438C17.65 16.3438 17.5312 16.3438 17.2937 16.3438C17.175 16.3438 16.9375 16.3438 16.7 16.5812C16.4625 16.8187 15.8688 17.4125 15.8688 18.6C15.8688 19.7875 16.7 20.8562 16.8187 21.0938C16.9375 21.2125 18.4812 23.7063 20.8562 24.6562C22.875 25.4875 23.2313 25.25 23.7063 25.25C24.1813 25.25 25.1313 24.6562 25.25 24.1813C25.4875 23.5875 25.4875 23.1125 25.3688 23.1125C25.25 22.5188 25.0125 22.5188 24.775 22.4Z" fill="white"/>
</svg>
