<?xml version="1.0" encoding="UTF-8"?>
<!DOCTYPE svg PUBLIC "-//W3C//DTD SVG 1.1//EN" "http://www.w3.org/Graphics/SVG/1.1/DTD/svg11.dtd">
<!-- Creator: CorelDRAW 2018 -->
<svg xmlns="http://www.w3.org/2000/svg" xml:space="preserve" width="60.5124mm" height="10.989mm" version="1.1" style="shape-rendering:geometricPrecision; text-rendering:geometricPrecision; image-rendering:optimizeQuality; fill-rule:evenodd; clip-rule:evenodd"
viewBox="0 0 6051.24 1098.9"
 xmlns:xlink="http://www.w3.org/1999/xlink">
 <defs>
  <style type="text/css">
   <![CDATA[
    .fil1 {fill:#D21341}
    .fil0 {fill:white}
   ]]>
  </style>
 </defs>
 <g id="Layer_x0020_1">
  <metadata id="CorelCorpID_0Corel-Layer"/>
  <rect class="fil0" x="126.33" y="123.65" width="5776.74" height="842.26" rx="66.14" ry="66.14"/>
  <path class="fil1" d="M180.72 0l5689.8 0c99.4,0 180.72,81.32 180.72,180.72l0 737.46c0,99.4 -81.32,180.72 -180.72,180.72l-5689.8 0c-99.4,0 -180.72,-81.32 -180.72,-180.72l0 -737.46c0,-99.4 81.32,-180.72 180.72,-180.72zm5309.98 543.27l76.42 -76.42 -292.52 0 0 -229.9 -165.21 0 0 625 165.21 0 0 -229.88 59.22 0 229.9 229.88 233.3 0 -312.5 -312.5 6.18 -6.18zm-5213.76 112.21c-25.97,0 -50.07,7.99 -69.95,21.6 -16.94,11.6 -30.84,27.32 -40.29,45.69l115.07 0 31.38 56.58 -31.38 56.57 -115.07 0c9.45,18.36 23.35,34.08 40.29,45.68 19.88,13.62 43.98,21.6 69.95,21.6 17.36,0 33.88,-3.57 48.83,-9.97 15.53,-6.66 29.47,-16.45 40.95,-28.55l2.62 -2.73 353.43 0c26.7,0 51.98,-5.35 74.97,-14.93 24.2,-10.1 45.88,-24.87 64.01,-43.02 18.44,-18.43 33.24,-40.4 43.37,-64.53 9.82,-23.4 15.22,-48.85 15.22,-75.07 0,-20.27 -2.99,-39.6 -8.5,-57.67 -5.74,-18.81 -14.29,-36.43 -25.09,-52.4 -3.56,-5.2 -7.31,-10.15 -11.2,-14.81 -3.91,-4.74 -8.13,-9.35 -12.6,-13.82 -18.5,-18.5 -40.53,-33.42 -64.63,-43.58 -23.3,-9.84 -48.63,-15.27 -74.68,-15.27l-229.89 0c-4.31,0 -8.5,-0.9 -12.3,-2.5 -2.76,-1.15 -5.33,-2.67 -7.63,-4.47l-0.52 0 -2.56 -2.56c-2.92,-2.94 -5.3,-6.49 -6.94,-10.49 -1.53,-3.78 -2.4,-7.96 -2.4,-12.31 0,-4.32 0.9,-8.49 2.5,-12.3 1.65,-3.99 4.09,-7.55 7.04,-10.52 5.86,-5.87 13.96,-9.52 22.81,-9.52l430.12 0c-7.08,-23.58 -19.03,-51.8 -37.82,-78.26 -16.16,-22.79 -37.45,-44.32 -65.08,-60.45 -14.67,-8.57 -30.48,-15.29 -47.08,-19.8 -16.09,-4.37 -32.94,-6.72 -50.25,-6.72l-229.89 0c-26.7,0 -51.98,5.37 -74.95,14.95 -24.21,10.08 -45.9,24.87 -64.03,43.02 -18.43,18.41 -33.23,40.4 -43.37,64.53 -9.81,23.4 -15.21,48.85 -15.21,75.07 0,20.25 2.98,39.6 8.5,57.66 5.73,18.82 14.28,36.44 25.08,52.39 3.55,5.21 7.3,10.16 11.2,14.85 3.82,4.58 8.05,9.18 12.63,13.78 18.52,18.52 40.55,33.43 64.6,43.58 23.3,9.85 48.64,15.29 74.69,15.29l229.88 0c4.32,0 8.5,0.9 12.3,2.48 2.77,1.15 5.33,2.67 7.62,4.48l0.53 0 2.57 2.6c2.93,2.94 5.31,6.49 6.93,10.44 1.53,3.8 2.4,7.98 2.4,12.33 0,4.33 -0.9,8.52 -2.5,12.32 -1.65,3.91 -4.08,7.48 -7.03,10.46 -5.87,5.9 -13.97,9.55 -22.82,9.55l-353.43 0 -2.6 -2.73c-11.5,-12.1 -25.44,-21.87 -40.97,-28.53 -14.95,-6.42 -31.47,-9.99 -48.83,-9.99zm2284.68 -253.3l625.02 0 0 -165.23 -625.02 0 0 165.23zm0 229.89l625.02 0 0 -165.22 -625.02 0 0 165.22zm0 229.88l625.02 0 0 -165.22 -625.02 0 0 165.22zm-73.23 -459.77l0 -165.23 -1023.02 0c-26.7,0 -51.98,5.37 -74.95,14.95 -24.2,10.08 -45.9,24.87 -64.03,43.02 -18.42,18.41 -33.24,40.4 -43.37,64.53 -9.8,23.4 -15.22,48.85 -15.22,75.07 0,20.25 3,39.6 8.5,57.66 5.75,18.82 14.3,36.44 25.09,52.39 3.56,5.21 7.31,10.18 11.2,14.85 3.81,4.58 8.03,9.18 12.63,13.78 18.48,18.5 40.52,33.42 64.6,43.58 23.3,9.85 48.63,15.29 74.68,15.29l229.9 0c7.47,0 14.42,2.61 19.92,6.96l0.53 0 2.55 2.57c2.94,2.92 5.3,6.48 6.94,10.47 1.53,3.8 2.4,7.98 2.4,12.33 0,4.33 -0.9,8.52 -2.5,12.32 -1.65,3.91 -4.07,7.48 -7.04,10.46 -2.95,2.99 -6.53,5.4 -10.5,7.07 -3.81,1.6 -7.98,2.48 -12.3,2.48l-430.13 0c7.08,23.59 19.03,51.8 37.82,78.27 16.16,22.78 37.45,44.32 65.08,60.45 14.67,8.57 30.48,15.27 47.08,19.78 16.09,4.39 32.95,6.72 50.25,6.72l229.9 0c26.69,0 51.99,-5.35 74.95,-14.93 24.2,-10.1 45.89,-24.87 64.04,-43.02 18.41,-18.43 33.23,-40.4 43.35,-64.53 9.81,-23.4 15.21,-48.85 15.21,-75.07 0,-20.27 -2.98,-39.6 -8.5,-57.67 -5.73,-18.81 -14.28,-36.43 -25.06,-52.4 -3.57,-5.2 -7.34,-10.16 -11.22,-14.83 -3.8,-4.58 -8.03,-9.2 -12.63,-13.78 -18.52,-18.52 -40.54,-33.45 -64.6,-43.6 -23.29,-9.84 -48.64,-15.27 -74.69,-15.27l-229.88 0c-7.48,0 -14.42,-2.62 -19.93,-6.97l-0.5 0 -2.59 -2.6c-2.93,-2.95 -5.31,-6.5 -6.91,-10.45 -1.55,-3.78 -2.4,-7.96 -2.4,-12.31 0,-8.85 3.65,-16.94 9.51,-22.82 2.97,-2.95 6.55,-5.37 10.52,-7.03 3.82,-1.6 7.98,-2.49 12.3,-2.49l627.9 0 0 459.77 165.22 0 0 -459.77 229.9 0zm-1476.92 459.77l165.22 0 0 -625 -165.22 0 0 625zm2622.22 -34.18l185.58 -267.89 0 302.07 165.22 0 0 -625 -143.95 0 -206.87 298.57 -206.87 -298.57 -143.95 0 0 625 165.22 0 0 -302.07 185.62 267.89zm1087.36 -590.82l-165.21 0 0 339.08 -319.89 -339.08 -139.9 0 0 625 165.22 0 0 -343.98 319.68 343.98 140.1 0 0 -625zm111.55 625l165.22 0 0 -625 -165.22 0 0 625zm964.42 -625l-233.3 0 -165.23 165.23 233.31 0 165.22 -165.23z"/>
 </g>
</svg>
