<svg width="40" height="33" viewBox="0 0 40 33" fill="none" xmlns="http://www.w3.org/2000/svg">
<path fill-rule="evenodd" clip-rule="evenodd" d="M36.5792 0.00435476C36.8796 0.0137385 37.0392 0.0465814 37.2363 0.135727C37.3771 0.201412 37.5883 0.337476 37.6963 0.440697C37.8089 0.539226 37.9638 0.717516 38.0343 0.834812C38.1094 0.952109 38.2079 1.18201 38.2502 1.35092C38.3065 1.56674 38.3206 1.74503 38.2971 1.96086C38.2783 2.14853 38.2173 2.37374 38.1328 2.54734C38.0577 2.70217 37.9357 2.89453 37.8653 2.97899C37.7902 3.05875 35.11 5.26861 31.9088 7.88197C28.7076 10.4953 25.3515 13.2401 22.8215 15.3092V22.5815C22.8262 28.8029 22.8168 29.9008 22.7558 30.1823C22.7182 30.3653 22.6103 30.6703 22.5164 30.8627C22.3897 31.116 22.2488 31.3084 22.0095 31.543C21.7982 31.7541 21.5542 31.9371 21.3476 32.045C21.1646 32.1388 20.8923 32.2514 20.7374 32.2984C20.5591 32.35 20.2915 32.3781 20.0099 32.3828C19.7126 32.3828 19.4701 32.3547 19.2823 32.2984C19.1274 32.2514 18.8927 32.1623 18.766 32.0966C18.6346 32.0309 18.4327 31.8996 18.3154 31.8057C18.1981 31.7119 16.5458 30.1354 14.6401 28.3056C12.7391 26.4758 11.1479 24.9697 11.101 24.965C11.0587 24.9556 10.6691 25.2418 10.2232 25.6125C9.78198 25.9737 8.07811 27.3719 6.43527 28.7185C4.6516 30.1776 3.32324 31.2333 3.14957 31.3225C2.91488 31.4491 2.77876 31.4867 2.50182 31.5054C2.24835 31.5242 2.06999 31.5101 1.86815 31.4491C1.71325 31.4069 1.48326 31.3037 1.35652 31.2239C1.22979 31.1395 1.06081 30.9987 0.985708 30.9096C0.905913 30.8204 0.779179 30.6093 0.699383 30.4404C0.577343 30.1729 0.558568 30.0838 0.558568 29.7366C0.558568 29.4457 0.586731 29.2674 0.661833 29.0797C0.713465 28.939 0.840199 28.7279 0.943464 28.6106C1.04203 28.4933 1.54428 28.0522 2.0606 27.63C2.57223 27.2077 6.34139 24.1252 10.4344 20.7799C14.5275 17.4299 21.8123 11.4759 26.6282 7.53947C31.4441 3.603 35.4479 0.337476 35.523 0.276482C35.5981 0.22018 35.7812 0.131035 35.922 0.0794244C36.1239 0.00904661 36.2694 -0.00972079 36.5792 0.00435476ZM13.0254 23.3416C13.0207 23.3604 14.2458 24.5615 15.7479 26.0066C17.2499 27.4517 18.7895 28.9343 19.1744 29.305C19.7517 29.8586 19.8925 29.9712 20.0099 29.9712C20.0897 29.9712 20.207 29.9243 20.2821 29.8586L20.4089 29.746C20.4276 20.1042 20.4182 17.3032 20.3995 17.3079C20.376 17.3079 18.7144 18.6592 16.7007 20.306C14.6871 21.9575 13.0348 23.3228 13.0254 23.3416ZM19.9629 1.21485C20.1835 1.21016 20.4886 1.243 20.6435 1.28054C20.7984 1.31807 21.0848 1.43068 21.2772 1.52451C21.5354 1.6465 21.7231 1.78726 21.986 2.05C22.2301 2.29398 22.3897 2.50511 22.4882 2.71155C22.5727 2.88046 22.6713 3.1432 22.7088 3.29803C22.7652 3.53263 22.7792 3.91736 22.7558 7.56292L21.6058 8.51068C20.9721 9.03617 20.4417 9.46312 20.4182 9.46312C20.3995 9.46782 20.3854 8.20102 20.3854 3.8376L20.268 3.7203C20.1929 3.64523 20.0991 3.603 20.0099 3.603C19.9113 3.603 19.8033 3.664 19.6438 3.80475C19.517 3.91267 17.7756 5.57827 12.1242 11.0161L4.91915 11.0396L4.66569 11.1569C4.52487 11.2226 4.32773 11.368 4.21977 11.4853C4.11651 11.6026 3.90528 11.8888 3.75508 12.1187C3.60957 12.3533 3.37957 12.7521 3.25753 13.0102C3.1308 13.2682 2.95243 13.6999 2.85386 13.972C2.75998 14.2441 2.63325 14.718 2.56754 15.0277C2.47366 15.464 2.4408 15.783 2.42203 16.4587C2.40325 17.0076 2.41733 17.505 2.45488 17.8193C2.48305 18.0914 2.57223 18.5653 2.65202 18.875C2.73182 19.1846 2.86325 19.6163 2.94774 19.8368C3.03223 20.0573 3.19651 20.428 3.30916 20.6579C3.42651 20.8925 3.67998 21.31 3.86773 21.5962C4.08834 21.9247 4.28548 22.1593 4.41691 22.2531C4.52487 22.3282 4.61405 22.4032 4.60936 22.4173C4.60936 22.4314 4.18222 22.788 2.71304 23.9797L2.45488 23.7029C2.31407 23.5481 2.03713 23.1821 1.83999 22.8865C1.64285 22.5909 1.39877 22.1874 1.2955 21.9951C1.18754 21.8027 1.00918 21.4226 0.896525 21.1505C0.779179 20.8784 0.619588 20.4561 0.539793 20.2122C0.455303 19.9682 0.337957 19.5459 0.272243 19.2738C0.211223 19.0017 0.12204 18.5184 0.0797954 18.1947C0.0281631 17.8334 0 17.2938 0 16.7871C0 16.3367 0.0234692 15.7643 0.0563262 15.5203C0.0844893 15.2763 0.164285 14.8212 0.225305 14.5116C0.291019 14.2019 0.450609 13.6342 0.582037 13.2448C0.713465 12.86 0.952851 12.2689 1.11714 11.931C1.28142 11.5979 1.59121 11.0584 1.80244 10.7346C2.0606 10.3405 2.32346 10.0168 2.591 9.74933C2.81631 9.52881 3.11202 9.28014 3.25284 9.20038C3.39365 9.11593 3.63773 8.99394 3.79263 8.93295C3.94753 8.86726 4.20099 8.77811 4.35589 8.7312C4.60936 8.66082 4.9614 8.64674 11.1761 8.59982L14.6354 5.26861C16.5411 3.43879 18.2074 1.85294 18.3389 1.75441C18.4703 1.65589 18.6815 1.52451 18.8129 1.46352C18.9397 1.40253 19.165 1.32276 19.3058 1.28523C19.4466 1.24769 19.7423 1.21485 19.9629 1.21485ZM36.7106 7.07497C36.7294 7.07497 36.903 7.30487 37.1002 7.58169C37.2973 7.85851 37.5883 8.30424 37.7526 8.57636C37.9169 8.84849 38.2267 9.43028 38.4379 9.86662C38.6538 10.3077 38.9026 10.8754 39.0012 11.1334C39.0951 11.3915 39.25 11.8654 39.3485 12.1891C39.4471 12.5128 39.5832 13.0289 39.6536 13.3386C39.7193 13.6483 39.8226 14.1878 39.8742 14.535C39.94 14.9948 39.9728 15.5156 39.9916 16.4352C40.0104 17.2328 39.9963 17.9085 39.9634 18.265C39.9353 18.5747 39.8649 19.0908 39.8132 19.4145C39.7569 19.7383 39.6536 20.245 39.5832 20.5406C39.5081 20.8362 39.3626 21.357 39.2547 21.6901C39.1467 22.0279 38.9636 22.5346 38.8463 22.8161C38.7336 23.1023 38.4661 23.67 38.2549 24.0829C38.0436 24.4958 37.6447 25.1714 37.3677 25.5843C37.0955 25.9972 36.7481 26.4852 36.6026 26.6634C36.4571 26.8464 36.1473 27.2124 35.9079 27.4798C35.6686 27.7473 35.1992 28.2211 34.8659 28.5261C34.4951 28.8639 34.1524 29.1314 33.9975 29.2064C33.8051 29.3003 33.669 29.3331 33.4578 29.3331C33.2324 29.3331 33.1245 29.305 32.918 29.1924C32.7443 29.0938 32.6082 28.9718 32.5049 28.817C32.4204 28.6903 32.3265 28.5027 32.2984 28.3994C32.2749 28.2962 32.2655 28.1179 32.2796 28.0006C32.2984 27.8833 32.35 27.705 32.3969 27.6018C32.4533 27.4845 32.6598 27.264 32.9508 27.0106C33.2043 26.7854 33.6126 26.396 33.8567 26.1427C34.1008 25.8846 34.4482 25.4952 34.6218 25.2794C34.7955 25.0588 35.0865 24.6694 35.2602 24.4114C35.4386 24.1533 35.7343 23.6794 35.9173 23.3557C36.1004 23.032 36.3586 22.5159 36.49 22.2062C36.6214 21.8965 36.8092 21.3992 36.9124 21.1036C37.011 20.808 37.1424 20.3529 37.2081 20.0949C37.2739 19.8368 37.3677 19.3817 37.4194 19.0861C37.4757 18.7905 37.5367 18.3166 37.5649 18.0304C37.5883 17.7489 37.6118 17.1859 37.6118 16.7871C37.6118 16.3883 37.593 15.8393 37.5649 15.5672C37.5367 15.2951 37.4757 14.8212 37.4241 14.5116C37.3724 14.2019 37.2645 13.7046 37.1894 13.409C37.1143 13.1134 36.9781 12.6583 36.889 12.4002C36.7998 12.1422 36.6449 11.7434 36.551 11.5088C36.4524 11.2789 36.26 10.8707 36.1239 10.6079C35.9877 10.3405 35.7624 9.94169 35.6216 9.71648C35.4808 9.48658 35.2508 9.13939 34.8424 8.57636L35.7624 7.82567C36.2694 7.41279 36.6965 7.07497 36.7106 7.07497ZM32.7161 10.3123C32.7255 10.3123 32.8945 10.561 33.0963 10.866C33.2935 11.1663 33.5892 11.6777 33.7488 12.0014C33.9037 12.3252 34.1149 12.799 34.2088 13.0571C34.3026 13.3151 34.4341 13.7186 34.4951 13.9485C34.5561 14.1831 34.65 14.5913 34.6969 14.8634C34.7486 15.1356 34.8143 15.6751 34.8471 16.0599C34.8894 16.5994 34.8894 16.9279 34.8471 17.4674C34.819 17.8568 34.7626 18.3636 34.7204 18.5935C34.6828 18.8281 34.5984 19.2175 34.5373 19.4615C34.4763 19.7054 34.3355 20.1605 34.2275 20.4702C34.1149 20.7799 33.8896 21.31 33.7159 21.6432C33.5469 21.981 33.2841 22.4455 33.1292 22.6754C32.9743 22.91 32.688 23.2994 32.4908 23.5434C32.2937 23.7873 31.8712 24.2425 31.5521 24.5521C31.2282 24.8665 30.8761 25.1621 30.7588 25.2184C30.6414 25.2794 30.4537 25.3357 30.3363 25.3544C30.2002 25.3732 30.0312 25.3591 29.8529 25.3075C29.6463 25.2512 29.5337 25.1808 29.3506 24.9978C29.1676 24.8149 29.0972 24.7023 29.0408 24.4958C28.9892 24.3128 28.9751 24.1533 28.9986 24.0126C29.0174 23.8953 29.069 23.7263 29.1159 23.6372C29.1582 23.5481 29.4023 23.2853 29.6557 23.0507C29.9045 22.8208 30.2706 22.4408 30.4678 22.2062C30.6649 21.9763 30.9465 21.5962 31.1014 21.3617C31.2516 21.1318 31.491 20.7095 31.6318 20.4233C31.768 20.1418 31.9557 19.6867 32.0449 19.4145C32.1341 19.1424 32.2514 18.692 32.3078 18.4058C32.3782 18.0539 32.4204 17.6363 32.4345 17.0921C32.4486 16.6182 32.4392 16.1021 32.4063 15.8253C32.3782 15.5672 32.3031 15.145 32.242 14.8869C32.1763 14.6289 32.0684 14.2488 32.0027 14.0424C31.9323 13.8359 31.7633 13.4371 31.6272 13.1509C31.491 12.8694 31.2704 12.4706 31.139 12.2735C31.0076 12.0718 30.8949 11.8888 30.8855 11.8654C30.8808 11.8372 31.2892 11.4806 31.7914 11.0677C32.2937 10.6549 32.7114 10.3123 32.7161 10.3123ZM28.5996 13.6905C28.6137 13.6905 28.717 13.85 28.8343 14.0518C28.9517 14.2535 29.1159 14.6101 29.2051 14.84C29.2896 15.0746 29.4023 15.4546 29.4539 15.6845C29.5149 15.9754 29.5431 16.2992 29.5431 16.7402C29.5431 17.1155 29.5149 17.5425 29.4727 17.7865C29.4304 18.0117 29.3225 18.4011 29.2333 18.6545C29.1441 18.9031 28.9704 19.2785 28.8531 19.4849C28.731 19.6914 28.5339 19.9869 28.4119 20.1418C28.2851 20.2966 28.0411 20.564 27.8674 20.7329C27.689 20.9019 27.4543 21.0895 27.3417 21.1458C27.2337 21.1974 27.0553 21.2584 26.9427 21.2725C26.8207 21.2913 26.647 21.2725 26.4733 21.2256C26.2668 21.1693 26.1541 21.0989 25.9711 20.9159C25.788 20.7329 25.7176 20.6203 25.6613 20.4139C25.6096 20.2356 25.5956 20.0714 25.6143 19.9306C25.6331 19.8133 25.6847 19.6444 25.727 19.5553C25.7692 19.4661 25.9758 19.2222 26.1823 19.0157C26.3888 18.8046 26.6282 18.5184 26.708 18.3776C26.7925 18.2416 26.9192 17.9648 26.9849 17.7724C27.0788 17.5143 27.1164 17.2938 27.1351 16.9513C27.1492 16.6182 27.1351 16.3836 27.0788 16.1302C27.0366 15.9379 26.9427 15.6517 26.7362 15.2153L27.6562 14.4553C28.1631 14.033 28.5855 13.6905 28.5996 13.6905Z" fill="#D21341"/>
</svg>
