<svg width="40" height="36" viewBox="0 0 40 36" fill="none" xmlns="http://www.w3.org/2000/svg">
<path d="M2.40796 1.32266C2.75622 1.16346 3.23383 0.984352 3.48259 0.934601C3.73134 0.88485 10.9453 0.845049 19.9005 0.835099C31.1244 0.825148 36.0498 0.854999 36.4677 0.934601C36.796 0.994303 37.2836 1.14356 37.5622 1.27291C37.8308 1.40226 38.2786 1.71072 38.5572 1.94953C38.8259 2.19828 39.194 2.63609 39.3731 2.92465C39.5522 3.22316 39.7612 3.73062 39.8507 4.05898C39.9801 4.57639 40 6.03908 40 15.6013C40 24.3177 39.9701 26.646 39.8706 27.0441C39.791 27.3227 39.602 27.7804 39.4428 28.0789C39.2836 28.3674 38.9154 28.8251 38.6269 29.0938C38.3483 29.3625 37.8109 29.7306 36.7662 30.2281L31.9104 30.258C27.3433 30.2779 27.0647 30.2878 27.1244 30.457C27.1542 30.5465 27.3134 30.9844 27.4826 31.4222C27.6418 31.86 27.8209 32.2978 27.8706 32.3973C27.9503 32.5465 28.1194 32.5664 29.1045 32.5664C29.99 32.5664 30.3284 32.6062 30.607 32.7455C30.806 32.8351 31.0647 33.0739 31.1741 33.263C31.2935 33.462 31.3831 33.7804 31.3831 34.0092C31.3831 34.2281 31.2935 34.5664 31.1841 34.7555C31.0746 34.9445 30.8259 35.1933 30.6368 35.3028C30.3085 35.5018 30.1194 35.5018 20 35.5018C10.3781 35.5018 9.68159 35.4918 9.38309 35.3326C9.20398 35.2331 8.96517 35.0043 8.85572 34.8351C8.74627 34.6361 8.66667 34.3276 8.65672 34.059C8.65672 33.7804 8.73632 33.4918 8.85572 33.2928C8.96517 33.1137 9.20398 32.8749 9.37313 32.7654C9.65174 32.5963 9.8806 32.5664 12.1393 32.5664L12.5373 31.4719C12.7562 30.8649 12.9353 30.3575 12.9353 30.3276C12.9353 30.2978 10.7562 30.2679 3.23383 30.2281L2.56716 29.9097C2.18905 29.7306 1.65174 29.3625 1.37313 29.0938C1.08458 28.8251 0.726368 28.3873 0.577114 28.1286C0.427861 27.86 0.238806 27.3724 0.159204 27.0441C0.0199005 26.5167 0 25.1237 0 15.6013C0 6.26793 0.0199005 4.67589 0.149254 4.17838C0.228856 3.86992 0.41791 3.37241 0.567164 3.08385C0.706468 2.80525 1.04478 2.35749 1.31343 2.08883C1.57214 1.83012 2.06965 1.49182 2.40796 1.32266Z" fill="#D21341"/>
<path d="M3.25871 4.43717C3.36816 4.28791 3.61692 4.07896 3.80597 3.98941C4.12438 3.82025 5.0995 3.8103 20.0348 3.8103C34.9801 3.8103 35.9552 3.82025 36.2935 3.97946C36.4925 4.07896 36.7413 4.28791 36.8408 4.45707C37.0197 4.74524 37.0199 5.16241 37.0298 22.3478L37.0299 22.4173H3L3.0199 13.5715L3.02002 13.5373C3.04975 4.79517 3.05002 4.71541 3.25871 4.43717Z" fill="#DEDEDE"/>
<path d="M3.14925 26.5466C3.06965 26.3576 3 26.0193 3 25.8004V25.4023H37.0299V25.8501C37.0299 26.0989 36.9602 26.4372 36.8806 26.5964C36.801 26.7556 36.5821 26.9844 36.403 27.0939C36.0846 27.2929 35.8955 27.2929 20.0149 27.2929C4.13433 27.2929 3.94527 27.2929 3.61692 27.0939C3.44776 26.9844 3.22886 26.7357 3.14925 26.5466Z" fill="#DEDEDE"/>
<path d="M15.6965 31.5516C15.8955 31.0441 16.0945 30.5466 16.1443 30.4571C16.2338 30.2879 16.5224 30.278 23.8955 30.278L23.9851 30.5566C24.0348 30.7058 24.2139 31.1934 24.6915 32.467H15.3383L15.6965 31.5516Z" fill="#DEDEDE"/>
<path d="M24 2.5L17.5 11L23.5 15.5L16.5 23.5" stroke="#D21341" stroke-width="3"/>
</svg>
