<svg width="40" height="34" viewBox="0 0 40 34" fill="none" xmlns="http://www.w3.org/2000/svg">
<path d="M26.6854 1.90217C26.7007 1.38043 26.7314 0.930305 26.7519 0.904729C26.7774 0.874039 27.3708 0.853578 28.3478 0.858693C29.1969 0.858693 29.9232 0.874039 29.9488 0.889384C29.9795 0.909844 29.9948 1.1656 29.9897 1.52877C29.9846 1.86125 29.959 2.40856 29.9283 2.74616C29.8976 3.08375 29.8516 3.46738 29.8209 3.60549C29.7953 3.73848 29.78 3.87147 29.7953 3.89705C29.8107 3.92774 29.7953 3.9482 29.7698 3.9482C29.7442 3.9482 29.7033 4.03516 29.6879 4.14257C29.6674 4.24487 29.6265 4.36764 29.5907 4.40856C29.56 4.44948 29.4424 4.64897 29.335 4.84334C29.2327 5.04283 29.0434 5.32927 28.9258 5.48272C28.8081 5.63618 28.5626 5.90216 28.3836 6.07096C28.2045 6.23975 27.9437 6.46482 27.8004 6.56712C27.6623 6.66942 27.3043 6.86891 27.0076 7.01213C26.6035 7.21162 26.358 7.29346 26.0102 7.34973C25.7544 7.39065 25.1355 7.43668 24.6291 7.45714C24.1227 7.47249 23.5038 7.50829 23.248 7.53387C22.9974 7.56456 22.6956 7.62594 22.5831 7.67709C22.4705 7.72313 22.2864 7.86123 22.1739 7.97377C22.0613 8.0863 21.9335 8.2244 21.8925 8.27556C21.8516 8.32671 21.7953 8.46481 21.7595 8.57734C21.7288 8.68988 21.6828 9.01213 21.6624 9.29346C21.6317 9.65663 21.6419 9.81519 21.6828 9.84588C21.7135 9.86634 21.7391 10.0198 21.7391 10.2142C21.7391 10.4034 21.7186 10.5466 21.6879 10.5466C21.6624 10.5466 21.6368 10.608 21.6368 10.828L28.6291 10.8382C32.4807 10.8433 35.9743 10.8587 36.3938 10.874C36.8183 10.8842 37.1968 10.9047 37.2378 10.9201C37.2787 10.9354 37.4321 10.9712 37.5702 11.007C37.7135 11.0377 37.9846 11.1502 38.1789 11.2525C38.4398 11.3958 38.6598 11.5748 39.0383 11.9686C39.3145 12.2551 39.5395 12.5211 39.5395 12.5569C39.5395 12.5876 39.5958 12.7564 39.6674 12.9252C39.7339 13.094 39.8158 13.406 39.8465 13.6157C39.8823 13.8254 39.9027 14.4392 39.9027 14.9712C39.8976 15.7129 39.9129 15.9533 39.959 15.9789C40.0101 16.0044 40.0152 16.03 39.9641 16.0914C39.9283 16.1374 39.9078 16.2295 39.9232 16.3011C39.9385 16.3727 39.9488 18.9558 39.9488 22.0402C39.9488 25.1297 39.9283 28.4852 39.9027 29.498C39.8669 30.9967 39.8413 31.3906 39.7697 31.6208C39.7237 31.7742 39.6009 32.0607 39.4986 32.255C39.3912 32.4494 39.1815 32.7512 39.0229 32.92C38.8695 33.0939 38.5933 33.3241 38.4091 33.4417C38.2301 33.5543 37.9692 33.6975 37.826 33.7538C37.6879 33.8151 37.4884 33.8765 37.3912 33.897C37.294 33.9123 37.0997 33.9379 36.9564 33.9532C36.8183 33.9686 29.8056 33.9891 21.381 33.9993C12.9565 34.0044 5.35037 33.9942 4.47569 33.9737C3.36572 33.943 2.77237 33.9072 2.50639 33.8509C2.26086 33.7947 2.00511 33.6975 1.79028 33.5696C1.60613 33.4622 1.29923 33.2167 1.09974 33.0325C0.905369 32.8484 0.736571 32.6642 0.736571 32.6284C0.731456 32.5977 0.63427 32.4085 0.516623 32.209C0.398976 32.0095 0.306905 31.81 0.306905 31.764C0.306905 31.7128 0.286444 31.6617 0.255754 31.6463C0.230178 31.631 0.214833 31.5952 0.230178 31.5696C0.245524 31.544 0.235294 31.5185 0.204603 31.5185C0.173913 31.5185 0.153452 31.1348 0.148337 30.4852C0.148337 29.9123 0.138107 29.4315 0.122762 29.4111C0.112532 29.3855 0.102302 27.6208 0.102302 25.4827C0.102302 22.9098 0.0869563 21.6054 0.0511508 21.6208C0.0204603 21.6361 0 21.5031 0 21.2627C0 21.0428 0.0204603 20.8791 0.0511508 20.8791C0.0869563 20.8791 0.102302 20.0402 0.102302 18.4648C0.102302 17.1349 0.122762 15.4571 0.148337 14.741C0.189258 13.5748 0.204603 13.3957 0.31202 13.0786C0.378516 12.8791 0.521738 12.5825 0.629155 12.4239C0.731456 12.2653 0.961635 11.9891 1.14066 11.8101C1.31457 11.631 1.5959 11.406 1.7647 11.3088C1.9335 11.2065 2.19948 11.0837 2.35294 11.0377C2.50639 10.9917 2.98209 10.9303 3.40153 10.8996C3.89257 10.8638 6.71098 10.8433 11.1764 10.8433C15.0332 10.8433 18.2148 10.8331 18.2506 10.8126C18.2966 10.7871 18.3376 10.5927 18.3682 10.2397C18.3989 9.94307 18.4092 9.6464 18.3938 9.57479C18.3785 9.50317 18.3887 9.18092 18.4194 8.85867C18.445 8.53642 18.5166 8.09653 18.5728 7.88681C18.6291 7.67709 18.7621 7.31904 18.8695 7.09397C18.9718 6.86891 19.1355 6.57223 19.2327 6.42901C19.3299 6.29091 19.5959 5.97889 19.8209 5.74359C20.046 5.5083 20.3682 5.21674 20.537 5.09909C20.7058 4.97633 21.0179 4.7973 21.2276 4.695C21.4373 4.5927 21.8209 4.46482 22.0716 4.41367C22.3222 4.35741 22.6803 4.29091 22.8644 4.2551C23.0485 4.22441 23.2429 4.19884 23.2992 4.19884C23.3554 4.19372 23.4731 4.21418 23.5549 4.23464C23.6675 4.26533 23.6982 4.26022 23.6675 4.21418C23.6419 4.17326 23.6828 4.1528 23.8107 4.1528C23.9079 4.1528 23.9999 4.17838 24.0153 4.20395C24.0306 4.23464 24.2455 4.24487 24.5882 4.22441C24.8951 4.20907 25.2685 4.16303 25.4219 4.12211C25.5754 4.08119 25.7953 3.98912 25.9028 3.91239C26.0102 3.83055 26.1892 3.66687 26.3017 3.53899C26.4091 3.41112 26.537 3.20651 26.5831 3.07864C26.6444 2.90984 26.67 2.5927 26.6854 1.90217Z" fill="#D21341"/>
<path d="M3.37572 30.751L3.37061 22.4492V14.1475L36.6493 14.1526V30.751H3.37572Z" fill="#DEDEDE"/>
<path d="M9.27858 16.0296C9.32973 15.9836 9.47806 15.912 9.61106 15.8813C9.73893 15.8455 9.97423 15.825 10.1277 15.8352C10.2811 15.8455 10.5215 15.9017 10.6648 15.9631C10.8029 16.0245 11.0177 16.1728 11.1405 16.2905C11.2632 16.4081 11.4218 16.6076 11.4985 16.7355C11.5957 16.9094 11.6366 17.0577 11.652 17.3237C11.6656 17.5624 11.6452 17.7704 11.5906 17.9478C11.5446 18.0961 11.4525 18.2802 11.3809 18.357C11.3093 18.4388 11.253 18.5104 11.253 18.5258C11.2581 18.5411 11.1098 18.6536 10.6136 19.0117H10.1021C9.69801 19.0117 9.54968 18.9912 9.38599 18.9094C9.27346 18.8582 9.05351 18.6843 8.89495 18.5258C8.66988 18.3058 8.58804 18.1779 8.51131 17.9375C8.46016 17.7687 8.39878 17.6255 8.37832 17.6153C8.35275 17.6102 8.3374 17.559 8.3374 17.5028C8.3374 17.4465 8.35786 17.3902 8.38855 17.3749C8.41924 17.3595 8.4397 17.2981 8.4397 17.2317C8.4397 17.1703 8.49597 17.0015 8.55735 16.8634C8.62385 16.7201 8.77218 16.5002 8.88983 16.3621C9.00748 16.2291 9.12001 16.1217 9.14047 16.1166C9.16604 16.1166 9.22231 16.0756 9.27858 16.0296Z" fill="#D21341"/>
<path d="M14.3067 15.9989C14.3988 15.9529 14.5625 15.8966 14.6648 15.8659C14.7722 15.8404 14.987 15.825 15.1405 15.8352C15.2939 15.8455 15.5343 15.9068 15.6775 15.9733C15.8156 16.0398 16.0356 16.1984 16.1635 16.3263C16.2913 16.4542 16.4499 16.6741 16.5215 16.8122C16.6187 17.0168 16.6443 17.1447 16.6443 17.426C16.6392 17.692 16.6085 17.8557 16.5113 18.0654C16.4448 18.2189 16.3169 18.4286 16.23 18.5258C16.143 18.623 15.964 18.7662 15.8259 18.8429C15.6878 18.9196 15.4576 19.0066 15.3195 19.0373C15.1251 19.0782 14.9768 19.0782 14.6852 19.027C14.3323 18.9657 14.2862 18.9401 14.0151 18.6792C13.8515 18.5258 13.652 18.27 13.5752 18.1166C13.4525 17.8813 13.432 17.7738 13.432 17.4516C13.432 17.1294 13.4576 17.0168 13.5804 16.7508C13.6673 16.5769 13.8208 16.3621 13.9384 16.2598C14.0509 16.1626 14.2197 16.0501 14.3067 15.9989Z" fill="#D21341"/>
<path d="M18.9461 16.2956C19.253 15.9887 19.3502 15.9222 19.565 15.8762C19.7031 15.8455 19.9589 15.8301 20.1277 15.8455C20.3067 15.8557 20.542 15.9171 20.6903 15.9887C20.8335 16.0603 21.0586 16.2393 21.2018 16.3877C21.3655 16.5667 21.4883 16.7559 21.5496 16.9401C21.6213 17.1447 21.6417 17.3288 21.6264 17.6204C21.6213 17.8403 21.5855 18.0347 21.5548 18.0552C21.5241 18.0756 21.4627 18.1626 21.4218 18.2444C21.3757 18.3263 21.2069 18.5207 21.0433 18.6639C20.8131 18.8685 20.6699 18.9554 20.4346 19.0168C20.2351 19.0731 20.0458 19.0884 19.8872 19.068C19.7491 19.0526 19.5343 18.9912 19.4013 18.935C19.253 18.8736 19.0484 18.7253 18.8898 18.5513C18.7415 18.3979 18.5727 18.1728 18.5164 18.0501C18.4653 17.9324 18.409 17.6971 18.3936 17.5283C18.3783 17.2981 18.3988 17.1549 18.4755 16.9401C18.5573 16.7355 18.6801 16.5616 18.9461 16.2956Z" fill="#D21341"/>
<path d="M24.2402 16.0091C24.3118 15.958 24.4755 15.8966 24.6033 15.871C24.7312 15.8404 24.9614 15.8301 25.1149 15.8455C25.2683 15.8608 25.5138 15.9222 25.6519 15.9887C25.7952 16.0552 26.0049 16.2086 26.1276 16.3314C26.2453 16.4542 26.4039 16.6536 26.4704 16.7713C26.542 16.8941 26.5982 17.0629 26.5982 17.1447C26.5982 17.2265 26.6238 17.2981 26.6494 17.2981C26.675 17.2981 26.7005 17.3442 26.7005 17.4004C26.7005 17.4567 26.6852 17.5028 26.6647 17.5028C26.6391 17.5028 26.6085 17.6051 26.588 17.7329C26.5624 17.8608 26.5113 18.0398 26.4652 18.1268C26.4192 18.2189 26.3067 18.3877 26.2197 18.5002C26.1225 18.623 25.923 18.7713 25.7235 18.8736C25.5445 18.9657 25.3348 19.0373 25.253 19.0373C25.1762 19.0373 25.1046 19.0577 25.0893 19.0884C25.0739 19.1191 25.0074 19.1396 24.9358 19.1396C24.8642 19.1396 24.8079 19.1242 24.8079 19.0987C24.8079 19.0782 24.721 19.0475 24.6187 19.027C24.5113 19.0066 24.2964 18.9094 24.143 18.8071C23.9742 18.6946 23.7696 18.4951 23.4064 17.9887L23.4013 17.5283C23.4013 17.1191 23.4166 17.0373 23.5548 16.7611C23.6366 16.5974 23.7952 16.3774 23.9077 16.2751C24.0151 16.1779 24.1635 16.0552 24.2402 16.0091Z" fill="#D21341"/>
<path d="M29.3859 15.9427C29.4576 15.9273 29.5138 15.8966 29.5138 15.8659C29.5087 15.8404 29.6673 15.825 29.8821 15.8352C30.1123 15.8455 30.3732 15.8966 30.5624 15.9682C30.767 16.0501 30.9563 16.1728 31.1302 16.3467C31.2734 16.49 31.4269 16.6895 31.4729 16.7866C31.5189 16.8992 31.5547 17.1447 31.5599 17.426C31.565 17.6767 31.565 17.9017 31.565 17.9222C31.5599 17.9478 31.5599 17.9733 31.5599 17.9887C31.5599 18.004 31.4985 18.1012 31.4217 18.2035C31.3501 18.3109 31.2069 18.4848 31.1046 18.5974C31.0023 18.7048 30.8079 18.848 30.6647 18.9145C30.4601 19.0117 30.3271 19.0373 29.9742 19.0373C29.6315 19.0373 29.4882 19.0117 29.299 18.9196C29.166 18.8582 28.9614 18.7048 28.8437 18.5769C28.7261 18.449 28.5829 18.2547 28.5266 18.1421C28.455 17.9989 28.4141 17.7892 28.3936 17.4567C28.3732 17.1498 28.3834 16.9554 28.4141 16.9196C28.4448 16.8889 28.5164 16.7815 28.5778 16.6843C28.634 16.5872 28.8131 16.3825 28.9716 16.2342C29.1302 16.091 29.3143 15.958 29.3859 15.9427Z" fill="#D21341"/>
<path d="M14.8233 20.8276C14.9103 20.8276 14.987 20.8071 14.987 20.7764C14.987 20.7457 14.9972 20.7252 15.0075 20.7252C15.0177 20.7252 15.1711 20.7713 15.3502 20.8327C15.5292 20.8889 15.7594 20.9861 15.8566 21.0475C15.9538 21.1089 16.0509 21.16 16.0765 21.16C16.097 21.16 16.1123 21.1754 16.1123 21.1958C16.1123 21.2214 16.1788 21.3135 16.2607 21.4004C16.3425 21.4925 16.455 21.6664 16.5164 21.7841C16.5778 21.9068 16.6392 22.1268 16.6545 22.27C16.675 22.4593 16.6596 22.6434 16.5931 22.8736C16.5164 23.1651 16.4653 23.247 16.1686 23.5385C15.9589 23.7431 15.7491 23.8966 15.6264 23.9375C15.5139 23.9733 15.3655 24.0347 15.3041 24.0654C15.207 24.1114 15.1149 24.1114 14.8694 24.0603C14.6954 24.0194 14.4653 23.9426 14.363 23.8915C14.2555 23.8403 14.0919 23.7278 14.0049 23.6511C13.9128 23.5692 13.7594 23.3902 13.6724 23.2521C13.5701 23.1038 13.4781 22.8685 13.4371 22.669C13.3809 22.403 13.3809 22.2956 13.4269 22.1319C13.4627 22.0194 13.5343 21.8352 13.5957 21.7227C13.652 21.6102 13.8156 21.4107 13.9589 21.2726C14.1021 21.1396 14.3169 20.9861 14.4397 20.9299C14.5573 20.8736 14.7312 20.8276 14.8233 20.8276Z" fill="#D21341"/>
<path d="M29.4115 20.8685C29.4269 20.848 29.565 20.8276 29.7184 20.8173C29.8719 20.8071 30.1021 20.8173 30.2299 20.8327C30.3578 20.8531 30.5573 20.9145 30.6801 20.9759C30.7977 21.0322 30.9921 21.1805 31.1148 21.3033C31.2325 21.426 31.3757 21.6153 31.432 21.7278C31.4882 21.8352 31.5599 21.9426 31.5854 21.9631C31.611 21.9836 31.6468 22.1319 31.657 22.2956C31.6673 22.4848 31.657 22.6076 31.6161 22.6281C31.5854 22.6536 31.5599 22.7099 31.5599 22.7559C31.5599 22.8071 31.5036 22.9605 31.4371 23.1038C31.3706 23.2419 31.2529 23.426 31.1711 23.5079C31.0893 23.5897 30.9205 23.7227 30.7926 23.8045C30.6647 23.8813 30.4345 23.9733 30.2811 24.004C30.0662 24.05 29.923 24.05 29.6673 23.9989C29.4831 23.958 29.3092 23.9119 29.2836 23.8864C29.2581 23.8608 29.1353 23.7738 29.0177 23.692C28.8949 23.605 28.7159 23.4158 28.6187 23.2674C28.5215 23.1242 28.4141 22.8838 28.3834 22.7457C28.3476 22.5923 28.3374 22.3876 28.3629 22.2342C28.3834 22.091 28.4703 21.8506 28.5522 21.6971C28.634 21.5437 28.7619 21.3646 28.8386 21.2981C28.9154 21.2368 29.0688 21.1191 29.1813 21.0424C29.2939 20.9657 29.3962 20.8889 29.4115 20.8685Z" fill="#D21341"/>
<path d="M8.95121 21.2828C9.12512 21.1038 9.3195 20.9657 9.46272 20.9145C9.5906 20.8736 9.85658 20.8378 10.051 20.8378C10.2453 20.8378 10.4806 20.8634 10.5727 20.894C10.6596 20.9299 10.8387 21.0322 10.9666 21.1191C11.0944 21.2112 11.2786 21.3953 11.3706 21.5232C11.4576 21.6511 11.5752 21.8659 11.6264 21.9938C11.6878 22.1626 11.7082 22.3058 11.6878 22.4644C11.6724 22.5923 11.6213 22.8071 11.5701 22.9503C11.5241 23.0884 11.4013 23.3135 11.2939 23.4465C11.1558 23.6204 10.9972 23.7431 10.7568 23.8557C10.4602 23.9989 10.3579 24.0245 10.0254 24.0245C9.74916 24.0194 9.58037 23.9938 9.41157 23.9171C9.28369 23.8557 9.07909 23.7022 8.95121 23.5743L8.93449 23.557C8.81152 23.4291 8.68345 23.2959 8.64431 23.247C8.59827 23.1958 8.53178 23.027 8.49597 22.8736C8.45505 22.7099 8.43459 22.4644 8.44993 22.2853C8.46528 22.1166 8.52155 21.8864 8.5727 21.7738C8.62385 21.6613 8.79264 21.4414 8.95121 21.2828Z" fill="#D21341"/>
<path d="M19.299 20.9657C19.3757 20.935 19.4371 20.8889 19.4371 20.8634C19.4371 20.8429 19.652 20.8276 19.9128 20.8276C20.276 20.8276 20.4346 20.8531 20.6136 20.935C20.7415 20.9912 20.9256 21.1038 21.0228 21.1856C21.12 21.2623 21.2632 21.4158 21.3399 21.5232C21.4167 21.6357 21.5292 21.8659 21.5855 22.0398C21.6724 22.3212 21.6775 22.3979 21.6315 22.6281C21.6008 22.7764 21.519 23.0066 21.4525 23.1396C21.386 23.2777 21.2427 23.4669 21.1404 23.5692C21.033 23.6715 20.8335 23.8096 20.6903 23.8761C20.5522 23.9426 20.3067 24.0142 20.1532 24.0347C19.9333 24.0705 19.8105 24.0552 19.5906 23.9836C19.4371 23.9324 19.2376 23.8506 19.1558 23.7943C19.0739 23.7431 18.9103 23.5999 18.8028 23.4772C18.6903 23.3544 18.5573 23.1396 18.5011 23.0015C18.4448 22.8429 18.409 22.6178 18.409 22.4132C18.409 22.1524 18.4397 22.0142 18.5624 21.7738C18.6443 21.605 18.808 21.3697 18.9307 21.247C19.0535 21.1293 19.2172 21.0015 19.299 20.9657Z" fill="#D21341"/>
<path d="M23.9282 21.2674C24.0611 21.1293 24.2606 20.9759 24.3732 20.9247C24.5215 20.8582 24.7005 20.8276 25.0279 20.8276C25.2734 20.8276 25.4729 20.8429 25.4729 20.8634C25.4729 20.8889 25.5599 20.935 25.6622 20.9759C25.7747 21.0168 26.01 21.2061 26.5727 21.7687V22.3621C26.5727 22.9503 26.5727 22.9554 26.3936 23.2265C26.2964 23.38 26.1225 23.5795 26.01 23.6664C25.8975 23.7534 25.7235 23.8761 25.6264 23.9324C25.478 24.0194 25.3808 24.0296 25.0126 24.0142C24.7721 24.004 24.4959 23.9682 24.3987 23.9324C24.3016 23.9017 24.097 23.7585 23.9435 23.6153C23.744 23.4362 23.6161 23.2521 23.4934 22.9861C23.4013 22.7866 23.3246 22.5616 23.3246 22.49C23.3246 22.4183 23.3655 22.2393 23.4115 22.091C23.4576 21.9478 23.5394 21.7534 23.5906 21.6715C23.6417 21.5897 23.79 21.4056 23.9282 21.2674Z" fill="#D21341"/>
<path d="M13.7747 25.7892C13.9691 25.7892 14.1174 25.7687 14.1174 25.738C14.1174 25.7073 14.2709 25.6869 14.4755 25.6869C14.6801 25.6869 14.8335 25.7073 14.8335 25.738C14.8335 25.7687 15.0893 25.7892 15.4985 25.7892C15.9077 25.7892 16.1635 25.7687 16.1635 25.738C16.1635 25.7073 16.3169 25.6869 16.5215 25.6869C16.7261 25.6869 16.8796 25.7073 16.8796 25.738C16.8796 25.7687 17.1353 25.7892 17.5445 25.7892C17.9537 25.7892 18.2095 25.7687 18.2095 25.738C18.2095 25.7073 18.363 25.6869 18.5676 25.6869C18.7722 25.6869 18.9256 25.7073 18.9256 25.738C18.9256 25.7687 19.1814 25.7892 19.5906 25.7892C19.9998 25.7892 20.2555 25.7687 20.2555 25.738C20.2555 25.7073 20.409 25.6869 20.6136 25.6869C20.8182 25.6869 20.9716 25.7073 20.9716 25.738C20.9716 25.7687 21.2274 25.7892 21.6366 25.7892C22.0458 25.7892 22.3016 25.7687 22.3016 25.738C22.3016 25.7073 22.455 25.6869 22.6596 25.6869C22.8642 25.6869 23.0177 25.7073 23.0177 25.738C23.0177 25.7687 23.2734 25.7892 23.6826 25.7892C24.0918 25.7892 24.3476 25.7687 24.3476 25.738C24.3476 25.7073 24.501 25.6869 24.7056 25.6869C24.9103 25.6869 25.0637 25.7073 25.0637 25.738C25.0637 25.7687 25.2837 25.7892 25.6264 25.7892C25.9691 25.7892 26.189 25.7687 26.189 25.738C26.189 25.7125 26.2657 25.6869 26.3578 25.6869C26.4448 25.6869 26.5471 25.7073 26.5778 25.7278C26.6136 25.7483 26.6443 26.091 26.6647 26.6332C26.6801 27.114 26.6801 27.8403 26.6238 29.0117H20.0151C16.3783 29.0117 13.3911 28.9963 13.3809 28.9708C13.3655 28.9503 13.3706 28.2291 13.4269 25.7892H13.7747Z" fill="#D21341"/>
</svg>
