<svg width="40" height="30" viewBox="0 0 40 30" fill="none" xmlns="http://www.w3.org/2000/svg">
<path d="M0.385465 0.448371C0.519307 0.307836 0.746838 0.153918 0.894064 0.100381C1.1216 0.0200763 3.03554 0.0066921 13.4551 0C23.2524 0 25.7552 0.0200763 25.7552 0.0869973C25.7485 0.12715 24.2963 1.61949 22.5229 3.39959C20.7495 5.17968 19.2839 6.64525 19.2639 6.66533C19.2438 6.68541 20.2744 7.74276 21.5526 9.02095C23.6338 11.1089 23.8814 11.3766 23.9483 11.6442C23.9952 11.8116 24.0153 12.0391 23.9952 12.1462C23.9818 12.2532 23.9149 12.454 23.8546 12.5811C23.7944 12.7083 23.0048 13.5582 22.0946 14.4683C21.1778 15.3784 20.3948 16.128 20.348 16.128C20.3078 16.128 20.2677 16.1681 20.2677 16.2083C20.261 16.2551 20.0268 16.5295 19.2304 17.3325L21.5459 19.6614C23.7476 21.8698 23.868 21.9969 23.9416 22.3181C24.0019 22.5791 24.0019 22.7264 23.9416 22.9874C23.868 23.3086 23.7409 23.4424 17.892 29.3114H9.51348C2.08526 29.3114 1.10152 29.298 0.873988 29.2043C0.740146 29.1508 0.539383 29.0236 0.439002 28.9232C0.331928 28.8229 0.198086 28.6489 0.137857 28.5418C0.0307836 28.3544 0.0240915 27.277 0.00401526 14.8899C-0.00936894 4.85177 0.0107074 1.34511 0.0642441 1.07074C0.124473 0.803052 0.21147 0.635749 0.385465 0.448371Z" fill="#D21341"/>
<path d="M27.0802 2.62999C27.0669 2.60323 27.6491 2.00094 28.3651 1.29157L29.6701 0H34.2207C37.3526 0 38.8516 0.0267684 39.039 0.0736131C39.1929 0.120458 39.4205 0.260992 39.5811 0.428294C39.8019 0.642441 39.8755 0.782975 39.9358 1.07074C39.9893 1.33842 40.0094 5.03915 39.996 14.8899C39.9759 27.277 39.9692 28.3544 39.8621 28.5418C39.8019 28.6489 39.6681 28.8229 39.561 28.9232C39.4606 29.0236 39.2599 29.1508 39.126 29.2043C38.8985 29.298 37.8947 29.3114 21.6396 29.3114L23.8212 27.1231C25.7418 25.1957 26.0296 24.8745 26.2103 24.4931C26.3307 24.2522 26.4713 23.8774 26.5248 23.6566C26.585 23.4223 26.6319 22.9874 26.6252 22.6059C26.6252 22.0973 26.5917 21.843 26.4646 21.4682C26.3776 21.2006 26.217 20.8325 26.1166 20.6451C26.0028 20.4377 25.4072 19.7818 23.2122 17.5668L24.5372 16.2551C25.26 15.5324 25.9493 14.8899 26.0563 14.823C26.1969 14.736 26.3307 14.7159 26.5248 14.7427C26.672 14.7628 26.8192 14.7494 26.8594 14.7226C26.8996 14.6892 27.0401 14.7159 27.194 14.7895C27.3747 14.8698 28.9942 16.4425 32.3469 19.7952C35.0304 22.4854 37.2522 24.6738 37.279 24.6537C37.3125 24.6403 37.3325 19.6882 37.3325 2.67684H32.2131C29.3957 2.67684 27.0869 2.65676 27.0802 2.62999Z" fill="#D21341"/>
<path d="M2.72102 24.6536C2.68756 24.6402 2.66748 19.6881 2.66748 13.6518V2.67676H19.3843L17.7582 4.32971L17.7381 4.35028C16.1784 5.9496 16.1316 5.99757 16.0517 6.35741C15.9914 6.64517 15.9914 6.7924 16.0517 7.02662C16.1186 7.2943 16.3662 7.56868 20.7696 11.9788L19.4847 13.2703C18.7754 13.973 18.1931 14.582 18.1931 14.6222C18.1931 14.6623 18.1061 14.7426 17.9924 14.8028C17.8853 14.8698 17.6979 15.0504 17.5909 15.2044C17.4771 15.365 17.3901 15.4654 17.3901 15.4252C17.3901 15.385 17.1358 15.6193 16.8213 15.9405C16.5067 16.2684 16.2123 16.6097 16.1587 16.7101C16.1052 16.8172 16.045 17.0045 16.0182 17.1317C15.9914 17.2588 16.0115 17.4998 16.0517 17.6671C16.1186 17.9347 16.3595 18.2024 18.4341 20.277C19.6989 21.5485 20.7361 22.6192 20.7361 22.6527C20.7361 22.6861 20.2744 23.1813 18.6951 24.7607L15.1148 21.1871C12.6989 18.7779 11.4408 17.5667 11.2467 17.473C11.0928 17.3927 10.8385 17.3324 10.6779 17.3324C10.524 17.3324 10.2764 17.3927 10.1292 17.4596C9.94848 17.5466 8.69706 18.7512 6.31467 21.1336C4.36058 23.0877 2.74779 24.6737 2.72102 24.6536Z" fill="#E8E8E8"/>
</svg>
