<svg width="40" height="41" viewBox="0 0 40 41" fill="none" xmlns="http://www.w3.org/2000/svg">
<path fill-rule="evenodd" clip-rule="evenodd" d="M20.1994 0.501497C20.6351 0.505404 21.1665 0.522986 21.4009 0.540568C21.6314 0.556196 21.9831 0.589406 22.1824 0.610895C22.3817 0.632384 22.6669 0.667547 22.8173 0.689036C22.9678 0.710525 23.2237 0.749595 23.3839 0.776945C23.546 0.804294 23.8489 0.860947 24.0579 0.903924C24.267 0.946902 24.6284 1.02895 24.8589 1.08756C25.0895 1.14421 25.4157 1.23212 25.5818 1.28096C25.7479 1.32784 26.0253 1.4138 26.1972 1.46849C26.3691 1.52515 26.6856 1.63454 26.9005 1.71269C27.1154 1.79278 27.4495 1.92171 27.6429 2.00181C27.8363 2.0819 28.1704 2.22842 28.3853 2.32805C28.6002 2.42572 28.9304 2.58591 29.118 2.68359C29.3055 2.78127 29.579 2.92583 29.7236 3.00787C29.8682 3.08797 30.1202 3.23253 30.2804 3.33021C30.4426 3.42593 30.7102 3.59393 30.8763 3.70333C31.0423 3.81078 31.2807 3.96901 31.4038 4.05497C31.5269 4.14092 31.7789 4.3226 31.9606 4.45935C32.1423 4.59414 32.4197 4.80903 32.576 4.93405C32.7323 5.06103 33.0214 5.30522 33.2207 5.47909C33.418 5.65295 33.7482 5.9577 33.9514 6.15696C34.1546 6.35622 34.4535 6.65902 34.6137 6.83093C34.7758 7.00284 35.0318 7.28806 35.1842 7.46583C35.3365 7.6436 35.5476 7.89756 35.655 8.03235C35.7625 8.16714 35.95 8.41329 36.075 8.57934C36.1981 8.74539 36.3701 8.98372 36.456 9.10679C36.54 9.22986 36.7002 9.46819 36.8077 9.63424C36.9171 9.80029 37.0734 10.0523 37.1574 10.191C37.2414 10.3297 37.386 10.5817 37.4797 10.7478C37.5735 10.9138 37.72 11.1873 37.808 11.3534C37.8939 11.5194 38.0346 11.8046 38.1206 11.9882C38.2065 12.1719 38.3394 12.4688 38.4175 12.6524C38.4957 12.8361 38.6207 13.1428 38.6949 13.3362C38.7692 13.5296 38.9001 13.8949 38.9841 14.1469C39.0681 14.3989 39.1814 14.7603 39.2361 14.9478C39.2889 15.1354 39.3787 15.4694 39.4334 15.6902C39.4881 15.9109 39.576 16.3055 39.6288 16.5693C39.6815 16.833 39.746 17.1924 39.7734 17.3702C39.8007 17.548 39.8398 17.8293 39.8613 17.9953C39.8828 18.1614 39.914 18.4427 39.9297 18.6205C39.9473 18.7982 39.9687 19.0835 39.9805 19.2554C39.9902 19.4273 40 19.9899 40 20.5056C40 21.0214 39.9902 21.584 39.9805 21.7559C39.9687 21.9278 39.9473 22.2091 39.9297 22.381C39.914 22.5529 39.8847 22.8342 39.8632 23.0061C39.8418 23.1781 39.8007 23.4633 39.7734 23.641C39.746 23.8188 39.6815 24.1783 39.6288 24.442C39.576 24.7057 39.4881 25.1003 39.4334 25.3211C39.3787 25.5418 39.2889 25.8759 39.2361 26.0634C39.1814 26.251 39.0818 26.5713 39.0134 26.7765C38.947 26.9816 38.8278 27.3195 38.7496 27.5286C38.6715 27.7376 38.5308 28.0892 38.437 28.31C38.3433 28.5307 38.1889 28.8726 38.0952 29.0719C38.0033 29.2711 37.8392 29.5954 37.7357 29.7947C37.6302 29.9939 37.4758 30.2752 37.3918 30.4198C37.3078 30.5644 37.1554 30.8203 37.0538 30.9863C36.9522 31.1524 36.7881 31.4083 36.6924 31.5528C36.5947 31.6974 36.4326 31.9357 36.331 32.0803C36.2274 32.2249 36.034 32.4886 35.8992 32.6644C35.7644 32.8422 35.5358 33.1274 35.3913 33.2993C35.2467 33.4732 35.022 33.733 34.8931 33.8775C34.7622 34.0221 34.5062 34.2936 34.3245 34.4812C34.1428 34.6687 33.8517 34.9539 33.6798 35.1141C33.5079 35.2763 33.2227 35.5322 33.0449 35.6846C32.8671 35.835 32.6346 36.0303 32.5271 36.1163C32.4197 36.2022 32.24 36.3429 32.1266 36.4288C32.0133 36.5148 31.8082 36.6672 31.6675 36.7688C31.5269 36.8703 31.2338 37.0716 31.013 37.2161C30.7923 37.3626 30.4621 37.5717 30.2804 37.6791C30.0987 37.7885 29.8389 37.9389 29.7041 38.0132C29.5693 38.0874 29.3329 38.2163 29.1766 38.2984C29.0203 38.3785 28.7311 38.5211 28.5319 38.6148C28.3326 38.7086 28.0044 38.8551 27.7992 38.9411C27.5941 39.029 27.2776 39.156 27.0959 39.2243C26.9142 39.2947 26.5704 39.4158 26.334 39.4939C26.0976 39.574 25.7322 39.6873 25.5232 39.7459C25.3141 39.8045 25.0015 39.8885 24.8296 39.9315C24.6577 39.9745 24.3725 40.039 24.1947 40.078C24.0169 40.1152 23.7277 40.1738 23.55 40.205C23.3722 40.2363 23.0342 40.289 22.7978 40.3222C22.5614 40.3554 22.2371 40.3945 22.0749 40.4121C21.9147 40.4277 21.5963 40.4551 21.3716 40.4707C21.0942 40.4902 20.6526 40.5 20.004 40.5C19.3554 40.5 18.9139 40.4902 18.6364 40.4707C18.4118 40.4551 18.1343 40.4316 18.021 40.4219C17.9077 40.4101 17.7065 40.3867 17.5717 40.3711C17.4369 40.3554 17.1829 40.3203 17.0051 40.2929C16.8273 40.2675 16.5597 40.2226 16.4092 40.1953C16.2588 40.1679 15.9911 40.1152 15.8134 40.078C15.6356 40.039 15.3191 39.9667 15.11 39.9139C14.901 39.8612 14.563 39.7694 14.3579 39.7088C14.1527 39.6483 13.8636 39.5584 13.7131 39.5096C13.5627 39.4607 13.2423 39.3474 13 39.2556C12.7578 39.1657 12.3944 39.0192 12.1893 38.9333C11.9841 38.8454 11.6696 38.7047 11.4859 38.6207C11.3023 38.5347 11.0171 38.3941 10.851 38.3081C10.6849 38.2202 10.4388 38.0874 10.304 38.0132C10.1692 37.9389 9.91127 37.7885 9.72762 37.6811C9.54397 37.5717 9.17668 37.3372 8.90707 37.1575C8.63942 36.9778 8.25063 36.7062 8.04745 36.5539C7.84427 36.3995 7.58833 36.2042 7.48088 36.1163C7.37343 36.0303 7.2015 35.8897 7.09991 35.8037C6.99832 35.7158 6.79514 35.5419 6.65056 35.413C6.50599 35.2841 6.14847 34.9403 5.85737 34.6492C5.56822 34.3601 5.22437 34.0026 5.09543 33.858C4.96649 33.7134 4.79065 33.5103 4.70469 33.4087C4.61873 33.3071 4.46048 33.1137 4.35303 32.9789C4.24362 32.8441 4.05607 32.598 3.93103 32.4319C3.80795 32.2659 3.61063 31.9885 3.49145 31.8166C3.37228 31.6447 3.17886 31.3497 3.06164 31.1621C2.94247 30.9746 2.74514 30.6444 2.62206 30.4296C2.49898 30.2147 2.30947 29.8669 2.20007 29.6579C2.09261 29.4489 1.92264 29.1012 1.82496 28.8863C1.72532 28.6714 1.57879 28.3373 1.49869 28.1439C1.41859 27.9505 1.28965 27.6165 1.20955 27.4016C1.1314 27.1867 1.02199 26.8741 0.969243 26.7081C0.914539 26.542 0.822716 26.2392 0.764105 26.0341C0.705495 25.829 0.617579 25.5008 0.568737 25.3015C0.519895 25.1023 0.443701 24.7643 0.398766 24.5494C0.355785 24.3345 0.289359 23.9731 0.252239 23.7485C0.215119 23.5238 0.168231 23.1976 0.14674 23.0257C0.12525 22.8538 0.0939908 22.5725 0.0783613 22.4006C0.0627318 22.2286 0.0373339 21.9298 0.023658 21.7364C0.00998224 21.5312 -0.00173988 21.0194 0.000213805 20.5056C0.000213805 19.9938 0.00998224 19.4761 0.023658 19.2651C0.0373339 19.0659 0.0666392 18.7318 0.086176 18.5228C0.107667 18.3138 0.142833 18.0051 0.164324 17.8391C0.187768 17.673 0.230749 17.3819 0.262008 17.1944C0.293267 17.0069 0.355785 16.6767 0.398766 16.4618C0.443701 16.2469 0.517941 15.9129 0.564829 15.7195C0.611718 15.5261 0.699634 15.1959 0.760198 14.9869C0.820762 14.7779 0.937984 14.3989 1.02199 14.1469C1.10795 13.8949 1.2369 13.5296 1.31114 13.3362C1.38733 13.1428 1.50651 12.8439 1.58075 12.672C1.65303 12.5001 1.79956 12.1738 1.90701 11.9492C2.01251 11.7245 2.18639 11.3768 2.29189 11.1775C2.39739 10.9783 2.55173 10.697 2.63574 10.5524C2.71975 10.4078 2.89753 10.1129 3.03038 9.89797C3.16519 9.68308 3.37228 9.36661 3.49145 9.1947C3.60867 9.02279 3.80795 8.74539 3.93103 8.57934C4.05411 8.41329 4.24362 8.16714 4.35107 8.03235C4.46048 7.89756 4.61873 7.70416 4.70469 7.60257C4.79065 7.50099 4.96258 7.30173 5.08566 7.16303C5.20874 7.02433 5.55259 6.66683 5.8476 6.3699C6.14456 6.07492 6.50599 5.72719 6.65056 5.59825C6.79514 5.46932 7.03349 5.2642 7.17806 5.14308C7.32263 5.02196 7.58247 4.81294 7.7544 4.6801C7.92632 4.54726 8.18616 4.3519 8.33074 4.24837C8.47531 4.14483 8.73515 3.9651 8.90707 3.84985C9.079 3.73654 9.34665 3.56268 9.50295 3.46695C9.65924 3.36928 9.94057 3.20323 10.1281 3.09578C10.3157 2.98834 10.6419 2.81252 10.851 2.70312C11.06 2.59568 11.4058 2.42768 11.6188 2.33C11.8298 2.23232 12.1287 2.09948 12.283 2.03697C12.4354 1.9725 12.7011 1.86701 12.8731 1.80059C13.045 1.73417 13.3927 1.6111 13.6448 1.5271C13.8968 1.44114 14.2582 1.32784 14.4458 1.27509C14.6333 1.2204 14.9459 1.13835 15.1393 1.08951C15.3327 1.04262 15.5926 0.980112 15.7157 0.952762C15.8388 0.925413 16.1025 0.872668 16.3018 0.835551C16.5011 0.798434 16.8429 0.741781 17.0637 0.708571C17.2845 0.677315 17.6264 0.632384 17.8257 0.610895C18.0249 0.589406 18.3141 0.562057 18.4704 0.550335C18.6267 0.538614 18.9021 0.521032 19.0858 0.511265C19.2694 0.501497 19.7696 0.49759 20.1994 0.501497ZM18.6071 3.05085C18.4626 3.06257 18.189 3.08992 18.0015 3.11141C17.8139 3.1329 17.515 3.17197 17.3372 3.19932C17.1594 3.22667 16.8781 3.27551 16.7121 3.30676C16.546 3.33802 16.2549 3.40053 16.0673 3.44351C15.8798 3.48649 15.6102 3.55291 15.4715 3.59003C15.3327 3.6291 15.0905 3.69747 14.9342 3.74436C14.7779 3.79124 14.5239 3.87329 14.3676 3.92799C14.2113 3.98073 13.9788 4.06278 13.8499 4.11162C13.721 4.16046 13.5139 4.24055 13.3908 4.29134C13.2677 4.34213 13 4.45739 12.7949 4.55116C12.5898 4.64298 12.2616 4.80121 12.0623 4.9028C11.863 5.00438 11.5719 5.16066 11.4137 5.25053C11.2535 5.34039 11.0073 5.4869 10.8666 5.57481C10.724 5.66077 10.4876 5.81119 10.343 5.90886C10.1985 6.00459 10.0226 6.12375 9.9523 6.17259C9.88196 6.22338 9.68464 6.36794 9.51272 6.49688C9.34079 6.62386 9.05946 6.8446 8.88754 6.98721C8.71561 7.12982 8.43819 7.36815 8.27212 7.51857C8.10606 7.66899 7.81692 7.94444 7.62936 8.13198C7.44181 8.31952 7.17806 8.59497 7.0413 8.74539C6.90454 8.89581 6.69745 9.13414 6.58023 9.27284C6.46301 9.41154 6.27936 9.64206 6.16996 9.78076C6.0625 9.91946 5.90035 10.1363 5.81048 10.2594C5.72061 10.3824 5.54478 10.6384 5.41779 10.8259C5.29275 11.0134 5.09934 11.3221 4.98602 11.5096C4.87271 11.6972 4.71251 11.9746 4.63045 12.125C4.54644 12.2754 4.3882 12.5841 4.27683 12.8087C4.16743 13.0334 4.01699 13.3557 3.94471 13.5218C3.87242 13.6878 3.75715 13.9691 3.68682 14.1469C3.61844 14.3247 3.49536 14.6626 3.41526 14.899C3.33516 15.1354 3.22184 15.4948 3.16323 15.7C3.10462 15.9051 3.02257 16.2157 2.97959 16.3935C2.93661 16.5712 2.87018 16.8721 2.83111 17.0616C2.79399 17.253 2.73733 17.5792 2.70412 17.7844C2.67286 17.9914 2.62988 18.3099 2.60839 18.4935C2.5869 18.6771 2.55954 18.9409 2.54782 19.0796C2.5361 19.2183 2.51852 19.5093 2.50875 19.7242C2.49898 19.9391 2.48921 20.2868 2.48921 20.4959C2.48921 20.7049 2.49898 21.0624 2.50875 21.287C2.52047 21.5117 2.54196 21.8516 2.55954 22.0392C2.57517 22.2267 2.60643 22.5217 2.62792 22.6936C2.64941 22.8655 2.70216 23.2074 2.74319 23.4555C2.78422 23.7036 2.85846 24.0845 2.9073 24.3052C2.95614 24.526 3.04601 24.8854 3.10462 25.1062C3.16519 25.3269 3.29608 25.7528 3.39768 26.0537C3.49731 26.3545 3.64579 26.7628 3.72589 26.962C3.806 27.1613 3.92126 27.4368 3.98378 27.5774C4.04435 27.7181 4.18501 28.017 4.29637 28.2416C4.40773 28.4663 4.57575 28.7886 4.66757 28.9546C4.76135 29.1207 4.91764 29.3883 5.01533 29.5505C5.11106 29.7107 5.28884 29.9881 5.40607 30.1658C5.52524 30.3436 5.70107 30.5976 5.7968 30.7324C5.89449 30.8671 6.04688 31.0742 6.1387 31.1914C6.23052 31.3086 6.41221 31.5333 6.54116 31.6896C6.6701 31.8459 6.8557 32.0608 6.95339 32.1682C7.04912 32.2756 7.23862 32.4769 7.37147 32.6175C7.50433 32.7582 7.74268 32.9945 7.90092 33.145C8.05722 33.2954 8.29948 33.5181 8.43819 33.6412C8.57885 33.7642 8.80744 33.9576 8.94615 34.0709C9.08486 34.1862 9.30562 34.3601 9.43457 34.4558C9.56351 34.5535 9.74911 34.6902 9.84484 34.7605C9.94253 34.8289 10.1398 34.9657 10.2844 35.0633C10.429 35.159 10.6537 35.3056 10.7826 35.3857C10.9116 35.4658 11.1792 35.624 11.3785 35.7373C11.5778 35.8506 11.9333 36.042 12.1697 36.1593C12.4061 36.2784 12.7324 36.4328 12.8926 36.505C13.0548 36.5773 13.3341 36.6945 13.5178 36.7688C13.7014 36.843 14.0121 36.9602 14.2113 37.0286C14.4106 37.0989 14.7173 37.2005 14.8951 37.2532C15.0729 37.3079 15.3152 37.3783 15.4324 37.4095C15.5496 37.4427 15.7391 37.4896 15.8524 37.517C15.9657 37.5443 16.1416 37.5853 16.2432 37.6088C16.3448 37.6322 16.5616 37.6752 16.7218 37.7065C16.884 37.7377 17.1594 37.7846 17.3372 37.8119C17.515 37.8393 17.7749 37.8745 17.9136 37.8901C18.0523 37.9077 18.3121 37.9331 18.4899 37.9487C18.6677 37.9663 19.033 37.9897 19.3007 38.0014C19.5898 38.0151 20.0079 38.019 20.3264 38.0112C20.6214 38.0053 21.0434 37.9858 21.2641 37.9702C21.4849 37.9526 21.819 37.9233 22.0065 37.9018C22.1941 37.8803 22.493 37.8393 22.6708 37.8119C22.8486 37.7846 23.1866 37.724 23.423 37.6772C23.6594 37.6303 24.0149 37.5521 24.2142 37.5013C24.4135 37.4525 24.6987 37.3763 24.8492 37.3333C24.9996 37.2904 25.2594 37.2103 25.4255 37.1556C25.5916 37.1009 25.8416 37.0149 25.9823 36.9641C26.123 36.9133 26.3691 36.8176 26.5293 36.7531C26.6915 36.6887 26.9494 36.5793 27.1057 36.5089C27.262 36.4406 27.5941 36.2804 27.8442 36.1553C28.0923 36.0303 28.4713 35.8291 28.6842 35.706C28.8952 35.5849 29.1707 35.4208 29.2938 35.3427C29.4169 35.2645 29.6552 35.1083 29.8213 34.995C29.9874 34.8836 30.2745 34.6785 30.4562 34.5417C30.6379 34.405 30.8939 34.2077 31.0228 34.1041C31.1518 33.9987 31.3842 33.8033 31.5405 33.6666C31.6949 33.5298 31.9449 33.2993 32.0954 33.1547C32.2458 33.0102 32.492 32.764 32.6444 32.6077C32.7948 32.4515 33.0312 32.1916 33.1719 32.0334C33.3125 31.8732 33.5235 31.6232 33.6407 31.4767C33.758 31.3301 33.9319 31.1094 34.0237 30.9863C34.1155 30.8632 34.2894 30.621 34.4086 30.4491C34.5277 30.2772 34.7055 30.0096 34.8051 29.8533C34.9048 29.697 35.0865 29.3942 35.2096 29.1793C35.3326 28.9644 35.5358 28.5874 35.6589 28.3393C35.782 28.0912 35.9402 27.763 36.0086 27.6067C36.079 27.4504 36.1884 27.1906 36.2528 27.0304C36.3173 26.8683 36.413 26.6241 36.4638 26.4834C36.5146 26.3428 36.5967 26.1064 36.6455 25.956C36.6944 25.8056 36.7608 25.5946 36.794 25.4871C36.8253 25.3797 36.8819 25.1785 36.921 25.0378C36.9581 24.8972 37.0245 24.6295 37.0675 24.442C37.1105 24.2545 37.173 23.9634 37.2043 23.7973C37.2355 23.6313 37.2844 23.35 37.3117 23.1722C37.3391 22.9944 37.3742 22.7405 37.3899 22.6057C37.4055 22.4709 37.4329 22.2072 37.4504 22.0196C37.4661 21.8321 37.4876 21.4883 37.4993 21.2577C37.509 21.0272 37.5188 20.6873 37.5188 20.5056C37.5188 20.322 37.509 19.984 37.4993 19.7535C37.4876 19.523 37.4661 19.1792 37.4504 18.9916C37.4329 18.8041 37.4016 18.5091 37.3821 18.3372C37.3606 18.1653 37.3254 17.9153 37.3039 17.7805C37.2824 17.6457 37.2414 17.4132 37.214 17.2628C37.1867 17.1124 37.1242 16.8174 37.0773 16.6083C37.0284 16.3993 36.9581 16.1121 36.921 15.9734C36.8819 15.8347 36.8135 15.5925 36.7666 15.4362C36.7198 15.2799 36.6377 15.026 36.583 14.8697C36.5303 14.7134 36.4482 14.4809 36.3994 14.352C36.3505 14.2231 36.2587 13.9906 36.1942 13.8343C36.1297 13.678 36.0301 13.4495 35.9754 13.3264C35.9187 13.2033 35.7996 12.9533 35.7097 12.7697C35.6218 12.586 35.4811 12.3145 35.3971 12.1641C35.3151 12.0136 35.1627 11.746 35.0572 11.5682C34.9517 11.3905 34.7602 11.0877 34.6332 10.8943C34.5043 10.7009 34.3187 10.4274 34.2171 10.2887C34.1155 10.15 33.9709 9.95462 33.8967 9.8589C33.8224 9.76318 33.6896 9.59517 33.6036 9.48773C33.5157 9.38029 33.334 9.1654 33.1992 9.00912C33.0644 8.85283 32.8222 8.58911 32.662 8.42306C32.5018 8.25701 32.2595 8.01477 32.1266 7.88388C31.9918 7.75495 31.7906 7.56546 31.6773 7.46387C31.564 7.36229 31.3452 7.1728 31.1889 7.04387C31.0326 6.91493 30.8079 6.73521 30.6907 6.64339C30.5735 6.55158 30.3527 6.38943 30.2023 6.28004C30.0518 6.17259 29.7744 5.9831 29.5868 5.85807C29.3993 5.735 29.1355 5.56895 29.0007 5.48886C28.8659 5.40681 28.6471 5.27983 28.5123 5.20559C28.3775 5.12941 28.1235 4.99461 27.9458 4.9028C27.768 4.81098 27.4788 4.67033 27.301 4.59023C27.1232 4.50818 26.8517 4.38902 26.6954 4.32455C26.5391 4.26009 26.3027 4.16436 26.1679 4.11553C26.0331 4.06473 25.7693 3.97096 25.5818 3.90845C25.3942 3.84399 25.0777 3.74436 24.8785 3.68575C24.6792 3.6291 24.4291 3.55877 24.3217 3.53142C24.2142 3.50407 23.9895 3.45328 23.8235 3.41421C23.6574 3.37709 23.3702 3.32044 23.1885 3.28723C23.0068 3.25207 22.6767 3.19932 22.4559 3.16806C22.2351 3.13681 21.862 3.09383 21.6256 3.07234C21.3892 3.05085 21.0063 3.0235 20.7757 3.01178C20.5452 3.00201 20.1623 2.9942 19.9259 2.99615C19.6895 2.99615 19.3554 3.00592 19.1835 3.01374C19.0115 3.02155 18.7517 3.03913 18.6071 3.05085Z" fill="#D21341"/>
<path d="M15.5299 11.621C15.7018 11.535 15.9304 11.4276 16.0379 11.3807C16.1453 11.3338 16.2352 11.2947 16.2391 11.2947C16.2411 11.2947 16.243 11.916 16.243 14.059L16.0535 14.1762C15.95 14.2407 15.7683 14.3618 15.6491 14.4477C15.5299 14.5317 15.3404 14.6763 15.2271 14.7701C15.1138 14.8619 14.8989 15.0553 14.7504 15.2018C14.6019 15.3464 14.3811 15.5808 14.262 15.7214C14.1428 15.8621 13.967 16.0868 13.8712 16.2196C13.7775 16.3524 13.629 16.581 13.5411 16.7256C13.4551 16.8701 13.3164 17.1299 13.2324 17.3019C13.1503 17.4738 13.0331 17.7414 12.9745 17.8977C12.9139 18.054 12.8299 18.3079 12.785 18.4642C12.742 18.6205 12.6853 18.849 12.658 18.9721C12.6326 19.0952 12.5935 19.3198 12.572 19.4703C12.5505 19.6207 12.5212 19.9098 12.5095 20.1149C12.4919 20.3943 12.4919 20.5818 12.5095 20.8729C12.5212 21.0839 12.5486 21.3867 12.572 21.5469C12.5935 21.7051 12.6385 21.9571 12.6717 22.1075C12.7029 22.258 12.7654 22.4943 12.8065 22.635C12.8495 22.7756 12.91 22.9632 12.9432 23.055C12.9764 23.1468 13.039 23.305 13.0819 23.4066C13.1249 23.5082 13.2187 23.7055 13.2871 23.8462C13.3574 23.9868 13.4629 24.1841 13.5215 24.2857C13.5821 24.3873 13.7013 24.5768 13.7892 24.7057C13.8751 24.8347 14.0314 25.0456 14.135 25.1746C14.2366 25.3035 14.4026 25.4969 14.5023 25.6043C14.6019 25.7118 14.7738 25.8818 14.8832 25.9833C14.9907 26.0849 15.1724 26.2432 15.2857 26.335C15.399 26.4268 15.5729 26.5596 15.6725 26.63C15.7722 26.7003 15.946 26.8155 16.0633 26.8898C16.1785 26.9621 16.4091 27.091 16.5751 27.175C16.7412 27.2609 16.9756 27.3703 17.0929 27.4211C17.2101 27.4719 17.4484 27.5598 17.6204 27.6184C17.7923 27.6751 18.0384 27.7493 18.1674 27.7806C18.2963 27.8138 18.521 27.8607 18.6656 27.888C18.8102 27.9154 19.0661 27.9525 19.2322 27.9701C19.4314 27.9916 19.6952 28.0033 20.0039 28.0033C20.3125 28.0033 20.5763 27.9916 20.7756 27.9701C20.9416 27.9525 21.1976 27.9154 21.3421 27.888C21.4867 27.8607 21.7114 27.8118 21.8403 27.7806C21.9693 27.7474 22.1978 27.681 22.3483 27.6321C22.4987 27.5833 22.7273 27.4993 22.8562 27.4465C22.9852 27.3938 23.2411 27.2727 23.4228 27.1789C23.6045 27.0851 23.8643 26.9386 23.9991 26.8546C24.134 26.7687 24.3449 26.6241 24.468 26.5323C24.5911 26.4385 24.7845 26.2842 24.8978 26.1865C25.0112 26.0888 25.2143 25.8974 25.3511 25.7587C25.4879 25.62 25.6578 25.4363 25.7301 25.3504C25.8024 25.2644 25.9372 25.0925 26.029 24.9695C26.1228 24.8464 26.2674 24.6354 26.3533 24.5006C26.4373 24.3658 26.5839 24.106 26.6777 23.9243C26.7714 23.7426 26.8926 23.4867 26.9453 23.3578C26.9981 23.2289 27.0821 23.0003 27.1309 22.8499C27.1797 22.6995 27.2462 22.4709 27.2794 22.342C27.3126 22.213 27.3595 21.9884 27.3868 21.8438C27.4142 21.6992 27.4494 21.4492 27.465 21.287C27.4806 21.1269 27.5002 20.8807 27.506 20.7401C27.5119 20.5994 27.508 20.324 27.4962 20.1247C27.4845 19.9254 27.4591 19.6441 27.4376 19.4996C27.4181 19.355 27.3829 19.144 27.3595 19.0307C27.338 18.9174 27.2892 18.7162 27.252 18.5814C27.2149 18.4466 27.1485 18.2317 27.1055 18.1028C27.0606 17.9739 26.9766 17.7531 26.916 17.6144C26.8574 17.4757 26.7773 17.2999 26.7402 17.2237C26.7011 17.1475 26.6269 17.0088 26.5722 16.9111C26.5175 16.8135 26.4002 16.6201 26.3084 16.4814C26.2166 16.3427 26.0798 16.1434 26.0017 16.0418C25.9235 15.9402 25.777 15.7586 25.6754 15.6414C25.5719 15.5241 25.3804 15.321 25.2476 15.192C25.1147 15.0631 24.9135 14.8814 24.8002 14.7877C24.6868 14.6939 24.4934 14.5454 24.3703 14.4556C24.2453 14.3657 24.0578 14.2407 23.7628 14.059L23.7647 11.2947L23.8272 11.3221C23.8624 11.3358 23.9484 11.3729 24.0187 11.4022C24.089 11.4315 24.3078 11.537 24.5071 11.6366C24.7064 11.7382 24.9779 11.8847 25.1127 11.9648C25.2476 12.0449 25.4586 12.1797 25.5816 12.2617C25.7047 12.3457 25.904 12.4864 26.0212 12.5743C26.1384 12.6642 26.3494 12.8322 26.4901 12.9474C26.6308 13.0646 26.8984 13.3147 27.0879 13.5022C27.2755 13.6898 27.5295 13.9633 27.6525 14.1078C27.7737 14.2524 27.9534 14.477 28.0491 14.606C28.1449 14.7349 28.2973 14.9498 28.3852 15.0846C28.4731 15.2194 28.6157 15.448 28.6997 15.5925C28.7837 15.7371 28.9283 16.0145 29.0221 16.2079C29.1178 16.4013 29.2467 16.6924 29.3093 16.8525C29.3737 17.0147 29.4695 17.2823 29.5242 17.4484C29.5789 17.6144 29.6492 17.8527 29.6824 17.9758C29.7156 18.0989 29.7684 18.3235 29.7996 18.474C29.8309 18.6244 29.8758 18.8666 29.8973 19.0112C29.9188 19.1558 29.9501 19.4117 29.9657 19.5777C29.9813 19.7438 30.0009 20.0427 30.0067 20.2419C30.0146 20.449 30.0106 20.7655 29.9989 20.9843C29.9872 21.1933 29.9638 21.4844 29.9462 21.6289C29.9305 21.7735 29.8954 22.0255 29.868 22.1857C29.8407 22.3478 29.7918 22.5881 29.7625 22.7229C29.7313 22.8577 29.6766 23.0765 29.6375 23.2113C29.6004 23.3461 29.5261 23.5824 29.4714 23.7387C29.4187 23.895 29.3405 24.1099 29.2975 24.2173C29.2546 24.3248 29.1588 24.5455 29.0846 24.7057C29.0104 24.8679 28.8716 25.1394 28.7779 25.3113C28.6821 25.4832 28.5337 25.7333 28.4477 25.8681C28.3637 26.0029 28.2269 26.2041 28.1449 26.3174C28.0648 26.4307 27.9143 26.628 27.8108 26.7569C27.7072 26.8839 27.5392 27.0832 27.4376 27.1945C27.336 27.3078 27.1544 27.4954 27.0371 27.6126C26.9199 27.7298 26.7206 27.9154 26.5975 28.0248C26.4745 28.1342 26.2752 28.2983 26.158 28.3901C26.0407 28.4819 25.8161 28.646 25.6598 28.7534C25.5035 28.8609 25.2886 29.0015 25.1811 29.066C25.0737 29.1305 24.8627 29.2496 24.7122 29.3317C24.5618 29.4137 24.3196 29.5348 24.175 29.5993C24.0304 29.6657 23.7921 29.7673 23.6475 29.824C23.5029 29.8806 23.2431 29.9724 23.0711 30.0291C22.8992 30.0838 22.6218 30.1639 22.4557 30.2049C22.2897 30.2459 22.0396 30.3026 21.8989 30.3299C21.7583 30.3573 21.5121 30.3964 21.3519 30.4178C21.1897 30.4393 20.9494 30.4667 20.8146 30.4764C20.6798 30.4882 20.4298 30.5018 20.2578 30.5077C20.0859 30.5155 19.7655 30.5116 19.5447 30.4999C19.324 30.4862 19.029 30.4647 18.8903 30.4471C18.7515 30.4315 18.5523 30.4061 18.4507 30.3905C18.3491 30.3729 18.1733 30.3417 18.0599 30.3202C17.9466 30.2987 17.7141 30.2459 17.5422 30.203C17.3703 30.16 17.0499 30.0643 16.8291 29.99C16.6083 29.9177 16.3094 29.8064 16.1649 29.7458C16.0203 29.6853 15.778 29.5739 15.6276 29.5016C15.4772 29.4274 15.2564 29.3141 15.1392 29.2477C15.022 29.1813 14.8266 29.066 14.7094 28.9937C14.5921 28.9214 14.3792 28.7788 14.2405 28.6792C14.1018 28.5815 13.9025 28.4331 13.8009 28.353C13.6993 28.2709 13.5137 28.1166 13.3906 28.0091C13.2675 27.8997 13.0468 27.6927 12.9022 27.5462C12.7576 27.4016 12.5486 27.1769 12.4392 27.048C12.3298 26.921 12.1637 26.7179 12.0719 26.6006C11.9781 26.4834 11.8042 26.2353 11.6811 26.0537C11.56 25.872 11.3979 25.6122 11.3197 25.4774C11.2416 25.3426 11.1029 25.0749 11.0071 24.8815C10.9134 24.6881 10.7825 24.399 10.718 24.2369C10.6535 24.0767 10.5656 23.8384 10.5226 23.7094C10.4796 23.5805 10.4093 23.3519 10.3663 23.2015C10.3233 23.0511 10.2608 22.8049 10.2276 22.6545C10.1963 22.5041 10.1514 22.2716 10.1299 22.1368C10.1084 22.002 10.0772 21.7793 10.0596 21.6387C10.044 21.498 10.0205 21.1874 10.0068 20.9452C9.99121 20.6131 9.99121 20.3982 10.0068 20.0661C10.0205 19.8239 10.0479 19.4859 10.0694 19.314C10.0889 19.1421 10.1299 18.8783 10.1573 18.7279C10.1846 18.5775 10.2452 18.2962 10.294 18.1028C10.3409 17.9094 10.4249 17.6144 10.4796 17.4484C10.5343 17.2823 10.6281 17.0225 10.6867 16.8721C10.7473 16.7217 10.8899 16.4052 11.0071 16.1688C11.1224 15.9324 11.2943 15.612 11.3881 15.4558C11.4819 15.2995 11.6128 15.0944 11.6772 14.9967C11.7437 14.899 11.8863 14.7017 11.9957 14.5571C12.1051 14.4126 12.2809 14.1918 12.3864 14.0688C12.4919 13.9457 12.7322 13.6898 12.9217 13.5022C13.1093 13.3147 13.3789 13.0646 13.5176 12.9474C13.6563 12.8322 13.8693 12.6642 13.9865 12.5743C14.1037 12.4864 14.3206 12.334 14.4652 12.2383C14.6097 12.1406 14.8383 11.998 14.9731 11.9199C15.1079 11.8417 15.358 11.7089 15.5299 11.621Z" fill="#D21341"/>
<path d="M18.7398 13.008C18.7379 10.2633 18.7437 8.01282 18.7535 8.00696C18.7633 7.99915 19.3259 7.99329 21.2444 7.99329V17.9954H18.7437L18.7398 13.008Z" fill="#D21341"/>
</svg>
