<svg width="35" height="41" viewBox="0 0 35 41" fill="none" xmlns="http://www.w3.org/2000/svg">
<path d="M6.96422 0.252339C7.09039 0.252339 7.19132 0.189254 7.19132 0.12617C7.19132 0.0504678 8.20062 0 9.9669 0C11.4935 0 12.8434 0.0504678 12.957 0.100936C13.0831 0.16402 13.5499 0.391126 14.0041 0.605614C14.5088 0.845336 15.0513 1.23646 15.4171 1.62759C15.7578 1.98086 16.1741 2.59909 16.7166 3.722L16.7923 22.7736L17.5114 23.5306C17.9152 23.947 18.4703 24.6914 18.7605 25.1708C19.0632 25.6503 19.4291 26.4577 19.5931 26.9372C19.7698 27.4166 19.9716 28.2746 20.0599 28.8297C20.1609 29.4227 20.1987 30.2807 20.1482 30.9115C20.1104 31.5045 19.9842 32.3499 19.8707 32.8041C19.7571 33.2583 19.4417 34.0784 19.1768 34.6335C18.8992 35.1887 18.382 36.034 18.0161 36.5261C17.6502 37.0055 16.9185 37.7373 16.4012 38.141C15.8839 38.5574 15.0008 39.0999 14.4457 39.3649C13.8906 39.6298 13.0957 39.9579 12.6794 40.0714C12.1117 40.2481 11.4809 40.2985 10.0931 40.2985C8.70527 40.2985 8.07446 40.2481 7.50672 40.0714C7.09039 39.9579 6.29556 39.6298 5.74044 39.3649C5.18533 39.0999 4.3148 38.5574 3.79754 38.1537C3.28027 37.7373 2.54852 37.0181 2.17003 36.5261C1.79155 36.034 1.27428 35.1887 1.00934 34.6335C0.744393 34.0784 0.428986 33.2835 0.315439 32.8672C0.214509 32.4508 0.0883459 31.5928 0.0378807 30.9746C-0.0125844 30.2681 0.0252644 29.4606 0.126195 28.8297C0.214509 28.2746 0.416369 27.4166 0.592997 26.9372C0.757009 26.4577 1.12288 25.6503 1.42567 25.1708C1.71585 24.6914 2.27096 23.947 3.39381 22.7736L3.46951 3.722L3.81015 2.99022C4.01201 2.59909 4.41573 2.0061 4.71852 1.67805C5.02132 1.3374 5.60167 0.895804 6.00539 0.668698C6.42172 0.441593 6.85068 0.264956 6.96422 0.252339Z" fill="#D21341"/>
<path d="M25.0812 14.8123C26.3681 13.0838 27.6045 11.431 27.8442 11.1408C28.1596 10.737 28.3615 10.5982 28.6138 10.5982C28.9166 10.5982 29.2951 11.0525 31.6795 14.2319C33.1809 16.2254 34.4425 17.9287 34.493 18.017C34.5308 18.0927 34.4804 18.2567 34.3668 18.3577C34.2028 18.5217 33.3827 18.5469 28.6012 18.5469C24.2612 18.5469 22.9869 18.5217 22.8607 18.3955C22.7724 18.3072 22.7094 18.1684 22.722 18.0927C22.7346 18.0044 23.7944 16.5282 25.0812 14.8123Z" fill="#D21341"/>
<path d="M22.722 22.4203C22.6715 22.2815 22.722 22.1427 22.8355 22.067C22.9364 22.004 25.5102 21.9535 28.639 21.9535C33.5594 21.9409 34.2785 21.9661 34.4173 22.1427C34.493 22.2437 34.5308 22.4077 34.4804 22.496C34.4299 22.5717 33.2061 24.2372 31.7426 26.1802C30.2917 28.1232 29.0427 29.7508 28.967 29.8012C28.8913 29.8517 28.7021 29.9022 28.5507 29.9022C28.3236 29.9022 27.6928 29.1578 25.5354 26.2811C24.0341 24.275 22.7724 22.5465 22.722 22.4203Z" fill="#D21341"/>
<path d="M0.189244 28.3881C0.0504652 29.0947 0.0252326 27.1264 0.0126163 14.6104L0 0H3.59564C5.90442 0 7.19128 0.0504678 7.19128 0.12617C7.19128 0.201871 7.09035 0.252339 6.97681 0.252339C6.85064 0.264956 6.42169 0.441593 6.00535 0.668698C5.60163 0.895804 5.02128 1.3374 4.71849 1.66544C4.4157 2.0061 4.01198 2.59909 3.46948 3.722L3.39378 22.7736L2.67465 23.5306C2.27093 23.947 1.71582 24.6914 1.42564 25.1708C1.13547 25.6503 0.769594 26.3947 0.630814 26.811C0.479419 27.2274 0.290175 27.9339 0.189244 28.3881Z" fill="#E8E8E8"/>
<path d="M13.2219 0.264956C13.0957 0.264956 12.9569 0.201871 12.9191 0.12617C12.8686 0.0504678 16.5021 0 34.5686 0V18.0549L31.7804 14.3581C29.1562 10.8758 28.9796 10.6739 28.6011 10.6613C28.2226 10.6613 28.046 10.8758 25.4597 14.295C23.9457 16.2885 22.7093 17.9918 22.7093 18.0801C22.7093 18.1684 22.7724 18.3072 22.8607 18.3955C22.9869 18.5217 24.2611 18.5595 28.6011 18.5595C33.3827 18.5595 34.2028 18.5217 34.3668 18.3577C34.556 18.1936 34.5686 18.3703 34.5686 20.225C34.5686 21.8778 34.5434 22.2437 34.4172 22.1175C34.2911 21.9913 33.0042 21.9535 28.639 21.9535C25.4975 21.9661 22.9364 22.0166 22.8355 22.0797C22.7219 22.1427 22.6841 22.2815 22.7219 22.4203C22.7724 22.5465 24.034 24.2876 25.5354 26.2811C27.6928 29.1578 28.3236 29.9022 28.5507 29.9022C28.7021 29.9022 28.8913 29.8643 28.967 29.8139C29.0427 29.7634 30.3296 28.0727 34.5812 22.3951L34.5686 40.3869H23.1887C16.9311 40.3869 11.8467 40.349 11.8719 40.3238C11.8972 40.2859 12.263 40.1724 12.6794 40.0588C13.0957 39.9453 13.8905 39.6425 14.4457 39.3775C15.0008 39.1125 15.8839 38.5574 16.4012 38.1537C16.9184 37.7373 17.6502 37.0055 18.0161 36.5261C18.3819 36.0466 18.8992 35.1887 19.1768 34.6461C19.4417 34.091 19.7571 33.2583 19.8707 32.8167C19.9842 32.3625 20.1104 31.5045 20.1482 30.9241C20.1987 30.2807 20.1608 29.4353 20.0599 28.8424C19.9716 28.2746 19.7697 27.4293 19.5931 26.9498C19.4291 26.4577 19.0632 25.6629 18.773 25.1834C18.4702 24.6914 17.9151 23.9596 16.7923 22.7862L16.7166 3.722L16.3759 3.00283C16.1741 2.59909 15.7704 2.0061 15.4676 1.67805C15.1648 1.35001 14.5844 0.895804 14.1807 0.668698C13.777 0.45421 13.3354 0.264956 13.2219 0.264956Z" fill="#E8E8E8"/>
<path d="M0 40.3742L0.0126163 35.9331C0.0252326 31.8073 0.0378489 31.5424 0.201861 32.2994C0.290175 32.7536 0.466803 33.3844 0.580349 33.6873C0.693896 34.0027 0.98407 34.6335 1.22378 35.0751C1.47611 35.5293 1.95552 36.2611 2.3214 36.7153C2.67465 37.1569 3.36855 37.8256 3.84797 38.2041C4.34 38.5826 5.18529 39.1125 5.74041 39.3775C6.29553 39.6425 7.09035 39.9453 7.50669 40.0588C7.92303 40.1724 8.2889 40.2859 8.32675 40.3238C8.3646 40.3616 6.49739 40.3869 0 40.3742Z" fill="#E8E8E8"/>
<path d="M6.91373 4.42855C7.02727 4.18883 7.33006 3.84817 7.56977 3.69677C7.99873 3.40658 8.08704 3.39396 12.4775 3.46966L12.8686 3.84817C13.0831 4.06266 13.3228 4.42855 13.3859 4.66827C13.4616 4.92061 13.4994 5.48837 13.4363 6.75007L10.093 6.81315V8.45336H13.4994V10.0936H10.093V11.8599H13.4994V13.5001H10.093V15.1403H13.4994V24.1615L14.2564 24.704C14.6727 24.9942 15.2531 25.5367 15.5307 25.9026C15.8208 26.2685 16.1867 26.8236 16.3381 27.1264C16.5021 27.4419 16.7292 28.0349 16.8554 28.4512C16.9815 28.9054 17.0698 29.6498 17.0698 30.2807C17.0825 30.962 16.9941 31.6433 16.8554 32.1101C16.7292 32.5391 16.4516 33.2078 16.2498 33.6242C16.0227 34.0658 15.5054 34.7471 15.026 35.2265C14.5466 35.706 13.8779 36.2233 13.4363 36.4378C13.02 36.6522 12.3387 36.9172 11.9224 37.0434C11.4808 37.1695 10.7365 37.2705 10.1561 37.2705C9.601 37.2831 8.8314 37.2074 8.45291 37.1065C8.07442 37.0181 7.36791 36.7406 6.87588 36.4882C6.39646 36.2359 5.68995 35.7312 5.29884 35.3779C4.92035 35.0247 4.39047 34.3686 4.12553 33.927C3.8732 33.4854 3.53256 32.7536 3.39378 32.2994C3.21715 31.7316 3.14146 31.1386 3.14146 30.3438C3.14146 29.7003 3.22977 28.8928 3.34332 28.4512C3.45686 28.0349 3.72181 27.3914 3.93628 27.0003C4.15076 26.6218 4.51663 26.0792 4.73111 25.8017C4.9582 25.5367 5.48809 25.0446 6.68663 24.1741V14.5221C6.68663 5.57669 6.69925 4.83229 6.91373 4.42855Z" fill="#E8E8E8"/>
<path d="M8.42757 21.5498C8.41496 17.6511 8.42757 17.3483 8.64205 17.1338C8.8313 16.9446 9.07101 16.9067 10.0803 16.9067C11.0518 16.9067 11.3419 16.9572 11.5186 17.1338C11.7204 17.3357 11.7457 17.6764 11.733 25.7386L12.326 26.0414C12.6666 26.2054 13.2091 26.6092 13.5372 26.9498C13.8778 27.2905 14.2941 27.8835 14.4834 28.262C14.7862 28.8802 14.824 29.0947 14.824 30.2807C14.824 31.4667 14.7862 31.6812 14.4708 32.3247C14.2815 32.7284 13.84 33.334 13.4993 33.6873C13.1461 34.0279 12.5405 34.4695 12.1494 34.6588C11.4933 34.9742 11.2789 35.0121 10.0929 35.0121C8.90699 35.0121 8.69252 34.9742 8.03647 34.6588C7.64536 34.4695 7.03978 34.0532 6.71176 33.7125C6.38374 33.3845 5.94217 32.7789 5.72769 32.3625C5.39967 31.6686 5.36182 31.4919 5.36182 30.2807C5.36182 29.0821 5.39967 28.8928 5.71507 28.262C5.91693 27.8835 6.33327 27.2905 6.66129 26.9624C6.98932 26.6218 7.5192 26.2054 8.45281 25.7386L8.42757 21.5498Z" fill="#D21341"/>
</svg>
