<svg width="24" height="48" viewBox="0 0 24 48" fill="none" xmlns="http://www.w3.org/2000/svg">
<path fill-rule="evenodd" clip-rule="evenodd" d="M4.3565 1H19.9852V12.1709H23.3417V34.9846L23.2211 35.315C23.1582 35.4933 23.0113 35.766 22.8959 35.9181C22.7806 36.0702 22.5655 36.28 22.4239 36.3796C22.2771 36.474 22.0306 36.6104 21.8732 36.6733C21.59 36.794 21.5428 36.794 16.6287 36.8202L16.613 39.3271C16.6025 41.8287 16.6025 41.8287 16.4766 42.1434C16.3822 42.3846 16.2564 42.5525 15.5274 43.271V47H8.81436V43.271L8.40004 42.8619C8.08537 42.5525 7.9595 42.3846 7.8651 42.1434C7.73923 41.8287 7.73923 41.8287 7.713 36.8202L5.23234 36.8044C2.8251 36.794 2.75167 36.7887 2.46847 36.6786C2.31113 36.6156 2.04891 36.4688 1.89157 36.3482C1.73423 36.2275 1.51921 36.023 1.41956 35.8866C1.31467 35.7503 1.17831 35.4881 1 34.9584V12.1709H4.3565V1ZM6.56445 4.81802C6.56445 6.34943 6.5697 6.3704 6.65885 6.16587C6.7113 6.05049 6.85815 5.86693 6.98401 5.76204C7.10988 5.6519 7.31442 5.54177 7.43504 5.5103C7.56091 5.48408 8.17977 5.45785 8.81436 5.45785C9.56957 5.45785 10.0521 5.47883 10.2146 5.52603C10.3562 5.56275 10.5555 5.67288 10.6867 5.78826C10.865 5.94035 10.9279 6.04524 10.9961 6.28649C11.0433 6.45956 11.0643 6.6641 11.0485 6.76899C11.0276 6.86863 10.9436 7.06268 10.8597 7.20429C10.7443 7.38784 10.629 7.48749 10.4244 7.58189L10.1517 7.71301L7.36162 7.68678C6.92108 7.41407 6.81619 7.29869 6.70605 7.08366L6.55396 6.79521L6.55921 12.1709H17.7825L17.7878 6.79521C17.5255 7.29869 17.4206 7.41407 17.2318 7.52945L16.9801 7.68678L14.19 7.71301C13.7128 7.48749 13.5974 7.38784 13.482 7.20429C13.3981 7.06268 13.3142 6.85815 13.2984 6.74277C13.2827 6.62214 13.3037 6.4176 13.3509 6.26027C13.4086 6.05049 13.4872 5.93511 13.6551 5.78826C13.7862 5.67288 13.9855 5.56275 14.1271 5.52603C14.2897 5.47883 14.7721 5.45785 15.5431 5.45785C16.4137 5.45785 16.7756 5.47883 16.9696 5.53128C17.1269 5.57848 17.3 5.67813 17.3997 5.78302C17.4941 5.87742 17.6147 6.05049 17.6724 6.16587L17.7773 6.37565L17.7825 3.25515H6.55921L6.56445 4.81802ZM3.2027 34.5703H21.139V14.4313H3.2027V34.5703ZM9.91571 37.3761C9.91571 37.911 9.92095 37.9215 10.0363 37.9215C10.0993 37.9215 10.2828 37.9897 10.4402 38.0684C10.608 38.1523 10.7758 38.2886 10.844 38.3988C10.9122 38.4984 10.9908 38.6872 11.0223 38.8183C11.059 38.9809 11.059 39.1225 11.0223 39.2904C10.9908 39.432 10.8859 39.6208 10.7548 39.7728C10.5818 39.9774 10.4926 40.0403 10.2304 40.1137L9.91571 40.2081V41.2833H14.426L14.4313 40.2081C13.8544 40.0403 13.76 39.9774 13.5869 39.7728C13.461 39.6208 13.3561 39.432 13.3247 39.2904C13.2879 39.1225 13.2827 38.9809 13.3247 38.8183C13.3509 38.6872 13.4295 38.4984 13.4977 38.3988C13.5711 38.2886 13.739 38.1523 13.9068 38.0684C14.0641 37.9897 14.2424 37.9215 14.3106 37.9215C14.426 37.9215 14.426 37.911 14.426 37.3761V36.8254H9.91571V37.3761ZM11.0695 44.7501H13.2722V43.5384H11.0695V44.7501ZM12.2653 17.2318C12.3859 17.2476 12.5642 17.3 12.6586 17.3472C12.753 17.3892 13.1306 17.7248 13.503 18.0919C13.8701 18.4591 14.2215 18.8524 14.2844 18.9678C14.3578 19.1041 14.3945 19.272 14.3945 19.466C14.3945 19.6601 14.3578 19.8226 14.2792 19.9747C14.2162 20.0954 14.0799 20.2632 13.9697 20.3418C13.8648 20.4205 13.6708 20.5097 13.2984 20.6041L13.267 27.4639L13.4138 27.359C13.4977 27.3066 13.76 27.1283 14.4313 26.6772V25.1668C14.426 23.7823 14.4365 23.6407 14.5257 23.4623C14.5833 23.3522 14.6935 23.2001 14.7774 23.1267C14.8613 23.048 15.0134 22.9484 15.1235 22.9012C15.2284 22.854 15.412 22.8225 15.5274 22.8225C15.6427 22.8225 15.8263 22.854 15.9364 22.9012C16.0413 22.9484 16.1987 23.048 16.2826 23.1267C16.3612 23.2001 16.4766 23.3522 16.5291 23.4623C16.6235 23.6459 16.6287 23.798 16.6287 27.9097L13.2775 30.1386V31.0931C13.2722 31.927 13.2617 32.0739 13.1726 32.2469C13.1201 32.3571 13.0047 32.5092 12.9261 32.5826C12.8422 32.6613 12.6848 32.7609 12.5799 32.8081C12.4698 32.8553 12.2862 32.892 12.1709 32.892C12.0555 32.892 11.8719 32.8553 11.767 32.8081C11.6569 32.7609 11.5048 32.6613 11.4209 32.5826C11.337 32.5092 11.2268 32.3571 11.1692 32.2469C11.08 32.0686 11.0695 31.927 11.0748 29.0373L7.713 26.7821V22.5341L7.83363 22.2981C7.90181 22.1617 8.05914 21.9886 8.17977 21.9047C8.3843 21.7579 8.442 21.7474 8.81436 21.7474C9.18672 21.7474 9.24965 21.7579 9.44895 21.9047C9.57481 21.9886 9.72691 22.1617 9.79508 22.2981C9.91571 22.5288 9.92095 22.5603 9.92095 25.5759L10.4559 25.9273C10.7496 26.1213 11.0118 26.2787 11.0328 26.2787C11.0538 26.2787 11.0643 25.0042 11.0433 20.6041L10.8073 20.5464C10.6762 20.5097 10.4821 20.4205 10.372 20.3418C10.2671 20.2632 10.1255 20.0954 10.0626 19.9747C9.98913 19.8226 9.94718 19.6601 9.94718 19.466C9.94718 19.2737 9.98389 19.1076 10.0573 18.9678C10.1202 18.8524 10.4874 18.4433 10.8755 18.0605C11.2636 17.6776 11.5887 17.3629 11.5992 17.3629C11.6097 17.3629 11.7146 17.3262 11.83 17.2843C11.9558 17.2371 12.1289 17.2161 12.2653 17.2318Z" fill="#D21341" stroke="#D21341" stroke-width="0.5"/>
</svg>
