<svg width="40" height="40" viewBox="0 0 40 40" fill="none" xmlns="http://www.w3.org/2000/svg">
<path d="M16.9961 0.471288C17.0775 0.373957 17.281 0.230521 17.4488 0.148558C17.6879 0.0307362 17.8202 0 18.0847 0C18.3086 0 18.4866 0.0358588 18.6443 0.107577C18.7715 0.163926 18.9394 0.261257 19.0259 0.32273C19.1072 0.384202 19.2395 0.537883 19.3158 0.66595C19.3972 0.794017 19.4837 0.978434 19.5091 1.07577C19.5346 1.1731 19.6261 2.04395 19.7126 3.00702C19.794 3.97521 19.8652 4.81533 19.8652 4.8768C19.8652 4.9895 19.8856 4.99463 20.5113 5.03561C20.8725 5.0561 21.4626 5.11757 21.8238 5.1688C22.185 5.22515 22.7598 5.3276 23.0956 5.40444C23.4313 5.48128 24.0061 5.64521 24.3673 5.76303C24.7285 5.88597 25.1864 6.05502 25.3848 6.13699C25.5832 6.22407 25.7459 6.29067 25.7459 6.28554C25.751 6.28042 26.102 5.52738 26.5243 4.61042C26.9516 3.69346 27.3586 2.86358 27.4349 2.76625C27.5112 2.66892 27.674 2.52549 27.8011 2.44865C27.9283 2.37181 28.1572 2.2796 28.3099 2.24886C28.5184 2.20276 28.6558 2.20788 28.844 2.24886C28.9814 2.28472 29.1696 2.34107 29.251 2.38205C29.3324 2.42303 29.4952 2.54086 29.602 2.64843C29.7139 2.75601 29.8614 2.97116 29.9276 3.12484C30.0344 3.36561 30.0497 3.46294 30.0293 3.79079C30.009 4.15963 29.9784 4.23647 28.3506 7.76088L28.5184 7.88895C28.61 7.96066 28.8237 8.12971 28.9966 8.2629C29.1645 8.40122 29.5155 8.69833 29.775 8.92885C30.0395 9.15937 30.4821 9.59993 30.7619 9.91241C31.0416 10.2249 31.4435 10.7115 31.6572 10.9984C31.8759 11.2853 32.0642 11.5209 32.0845 11.5209C32.1099 11.5261 32.8527 11.0138 33.7378 10.3888C34.6281 9.76385 35.4624 9.2106 35.5946 9.15937C35.732 9.10815 35.9507 9.06717 36.0932 9.06717C36.2305 9.06717 36.4696 9.11327 36.612 9.1645C36.7596 9.22085 36.9783 9.35916 37.0953 9.47186C37.2174 9.58968 37.3649 9.77922 37.426 9.89704C37.5176 10.0763 37.543 10.1993 37.543 10.5527C37.543 10.8806 37.5176 11.0343 37.4463 11.1675C37.3955 11.2648 37.3039 11.4185 37.2429 11.5004C37.1767 11.5824 36.3272 12.2176 35.3504 12.9041C34.3737 13.5905 33.5649 14.1642 33.5496 14.1745C33.5343 14.1796 33.6208 14.4357 33.7378 14.738C33.8548 15.0453 34.0329 15.5679 34.1346 15.906C34.2364 16.2441 34.3737 16.7973 34.4398 17.1354C34.506 17.4735 34.5874 17.9345 34.6179 18.1599C34.6484 18.3853 34.6891 18.79 34.7451 19.5431L35.2284 19.5841C35.4929 19.6045 36.434 19.6916 37.3141 19.7685C38.769 19.9017 38.942 19.9273 39.1709 20.0451C39.3082 20.1168 39.4964 20.25 39.588 20.3473C39.6796 20.4395 39.8017 20.6291 39.8627 20.7725C39.9238 20.9108 39.9848 21.1311 39.995 21.2592C40.0103 21.3924 39.9899 21.6075 39.9441 21.7714C39.8983 21.9251 39.7864 22.1556 39.6948 22.2837C39.5778 22.4425 39.4151 22.5655 39.1912 22.6833C38.9063 22.8267 38.8148 22.8472 38.4841 22.8472C38.2755 22.8472 37.3344 22.7755 36.3984 22.6935C35.4624 22.6064 34.6688 22.5398 34.6433 22.5398C34.6179 22.5398 34.5365 22.8113 34.4704 23.1392C34.4042 23.4722 34.2872 23.9793 34.2058 24.2662C34.1244 24.5582 33.9515 25.0858 33.8243 25.4444C33.6971 25.8081 33.4428 26.4126 33.2647 26.7917C33.0816 27.1708 32.9391 27.4884 32.9391 27.4935C32.9391 27.5037 33.6666 28.0211 34.5518 28.6461C35.4369 29.2762 36.2102 29.8602 36.2763 29.9421C36.3373 30.0241 36.4289 30.1778 36.4747 30.2751C36.5256 30.3724 36.5764 30.5825 36.5917 30.7362C36.607 30.9103 36.5866 31.1255 36.5357 31.2996C36.4849 31.4841 36.3831 31.6685 36.2356 31.8324C36.1135 31.9707 35.8999 32.1398 35.7625 32.2115C35.5539 32.3191 35.4369 32.3447 35.1266 32.3447C34.8926 32.3447 34.6739 32.3139 34.567 32.2627C34.4704 32.2217 33.687 31.6839 31.2604 29.9677L30.5024 30.7464C30.0853 31.1767 29.5409 31.6992 29.2968 31.9041C29.0475 32.109 28.6405 32.4215 28.3862 32.6059C28.1318 32.7852 27.7045 33.067 27.4349 33.2309C27.1602 33.3948 26.9363 33.5434 26.9363 33.5639C26.9363 33.5895 27.2161 34.3733 27.557 35.3056C28.0199 36.5811 28.1776 37.0883 28.1979 37.3188C28.2132 37.5442 28.1878 37.703 28.1165 37.9079C28.0555 38.0667 27.9181 38.287 27.8062 38.4048C27.6892 38.5278 27.501 38.6763 27.384 38.7327C27.2619 38.7941 27.0279 38.8556 26.86 38.871C26.6922 38.8812 26.4632 38.8659 26.3513 38.8403C26.2394 38.8095 26.0359 38.7071 25.8935 38.6149C25.7561 38.5226 25.5832 38.3536 25.5069 38.2409C25.4356 38.1282 25.105 37.2983 24.7794 36.3967C24.4538 35.4951 24.1791 34.7523 24.174 34.7472C24.1689 34.737 23.8535 34.8087 23.4771 34.906C23.1006 35.0034 22.5156 35.1263 22.1799 35.1878C21.8441 35.2441 21.2489 35.3158 20.8572 35.3517C20.4197 35.3876 19.7889 35.3978 18.2882 35.3466L18.2628 35.4849C18.2475 35.5669 18.1 36.4019 17.9321 37.3444C17.6727 38.83 17.6116 39.0913 17.4895 39.2859C17.4132 39.414 17.2454 39.5933 17.1182 39.6906C16.991 39.7828 16.7621 39.9007 16.6095 39.9416C16.4416 39.9877 16.2279 40.0133 16.0753 39.9929C15.9329 39.9826 15.704 39.9109 15.5666 39.8392C15.4242 39.7726 15.2359 39.624 15.1393 39.5164C15.0426 39.4037 14.9256 39.2245 14.8748 39.1118C14.8239 38.9991 14.7679 38.8146 14.7527 38.7019C14.7272 38.5585 14.8086 37.9745 15.0274 36.7195C15.2003 35.7359 15.3377 34.8907 15.3377 34.8343C15.3377 34.778 15.3021 34.7319 15.2614 34.7319C15.2207 34.7319 14.8951 34.6243 14.539 34.4962C14.1778 34.3681 13.5877 34.1171 13.2265 33.943C12.8653 33.7688 12.2905 33.4614 11.9547 33.2616C11.619 33.0619 11.1357 32.7494 10.4286 32.232L8.95334 33.7073C7.58491 35.0751 7.45773 35.1878 7.19828 35.2697C6.99989 35.3363 6.82184 35.3517 6.58783 35.3363C6.39452 35.321 6.1656 35.2646 6.03842 35.198C5.92141 35.1417 5.74337 35.0034 5.64162 34.9009C5.53988 34.7933 5.40762 34.6038 5.35166 34.4757C5.2957 34.3477 5.23974 34.1325 5.22448 33.9891C5.20922 33.8251 5.23465 33.6202 5.29061 33.4256C5.37198 33.1234 5.4076 33.0875 8.26929 30.2007L8.27167 30.1983L7.91048 29.7372C7.707 29.4811 7.34581 28.9739 7.10163 28.6102C6.85745 28.2465 6.52678 27.7035 6.36908 27.4064C6.21138 27.1093 5.98755 26.6482 5.87054 26.3819C5.75354 26.1155 5.58566 25.6903 5.4941 25.4342C5.35674 25.0602 5.30587 24.9782 5.22957 24.9885C5.17869 24.9987 4.36984 25.2139 3.43381 25.4649C2.27903 25.7723 1.63805 25.9208 1.44983 25.9208C1.29722 25.9208 1.0683 25.8901 0.941118 25.844C0.81394 25.803 0.610455 25.6801 0.488364 25.5776C0.366273 25.47 0.203485 25.2702 0.132265 25.1268C0.0203485 24.9117 0 24.8041 0 24.4352C0 24.0818 0.0254356 23.9588 0.117004 23.7847C0.178049 23.6617 0.315402 23.4773 0.417144 23.3748C0.523974 23.2724 0.702023 23.1494 0.81394 23.0982C0.925857 23.047 1.80593 22.796 2.77248 22.5398C3.73904 22.2837 4.55807 22.0583 4.59368 22.0378C4.64455 22.0071 4.64963 21.8329 4.60385 21.1055C4.56315 20.4856 4.56315 19.958 4.59876 19.3894C4.62929 18.9386 4.68524 18.3136 4.73103 18.0063C4.77681 17.6989 4.84803 17.2942 4.88364 17.1098C4.91925 16.9254 4.94977 16.7768 4.94469 16.7717C4.9396 16.7666 4.10022 16.4592 3.07771 16.0904C2.0552 15.7164 1.15478 15.3681 1.0683 15.3168C0.981815 15.2656 0.839376 15.1376 0.74272 15.03C0.646065 14.9173 0.523974 14.738 0.473103 14.6253C0.417144 14.4972 0.381534 14.2974 0.381534 14.0874C0.381534 13.903 0.412057 13.652 0.457841 13.5239C0.498538 13.3958 0.610455 13.2012 0.702023 13.0885C0.798679 12.9758 0.997077 12.8119 1.14969 12.7299C1.39387 12.5916 1.47018 12.5762 1.83137 12.5813C2.22307 12.5813 2.30447 12.6069 4.0697 13.2575C5.07695 13.6315 5.90107 13.9286 5.90615 13.9235C5.90615 13.9132 6.05877 13.6212 6.2419 13.2678C6.41995 12.9143 6.70483 12.4072 6.86762 12.1408C7.0355 11.8744 7.36616 11.3877 7.61034 11.065C7.85452 10.7423 8.2971 10.2044 8.59216 9.87655C8.88721 9.54358 9.13139 9.26183 9.13139 9.24646C9.13139 9.23109 8.56672 8.54465 7.87996 7.72502C7.15759 6.86441 6.57765 6.11649 6.50643 5.96794C6.41487 5.77327 6.38434 5.62472 6.38434 5.35321C6.38434 5.08171 6.41487 4.93315 6.50643 4.73849C6.57257 4.59505 6.71501 4.39527 6.82184 4.29282C6.93375 4.19036 7.13724 4.05205 7.27459 3.99058C7.44755 3.90861 7.63069 3.87276 7.8647 3.87276C8.1394 3.86763 8.25132 3.89325 8.50059 4.02131C8.77529 4.16475 8.91773 4.31331 10.1081 5.73742C10.8254 6.59803 11.4409 7.32033 11.4816 7.34594C11.5223 7.37668 11.619 7.34594 11.7513 7.26398C11.8632 7.19226 12.1684 7.01809 12.4278 6.86953C12.6822 6.7261 13.1299 6.5007 13.4148 6.37263C13.7047 6.23944 14.1219 6.06527 14.3457 5.9833C14.5695 5.89622 15.0375 5.74254 15.3886 5.63496C15.7396 5.52738 16.2228 5.39932 16.4721 5.34809C16.7163 5.29174 16.9147 5.23539 16.9147 5.2149C16.9147 5.18929 16.8435 4.39015 16.7621 3.4322C16.6807 2.47426 16.6095 1.56754 16.6095 1.41899C16.6095 1.24994 16.6502 1.0604 16.7316 0.896471C16.7926 0.753036 16.9147 0.563496 16.9961 0.471288Z" fill="#D21341"/>
<path d="M17.5254 7.58681C17.8764 7.52533 18.4258 7.45874 18.7463 7.43312C19.0668 7.41263 19.4229 7.38702 19.5348 7.38702C19.6467 7.3819 20.0588 7.40239 20.4505 7.428C20.8422 7.45874 21.3814 7.51509 21.646 7.55607C21.9105 7.60217 22.3734 7.69438 22.6735 7.76098C22.9788 7.83269 23.223 7.89929 23.223 7.91466C23.223 7.93003 23.1873 8.06322 23.1365 8.20665C23.0805 8.40131 23.0602 8.59085 23.0805 8.86236C23.0958 9.13386 23.1416 9.33364 23.2382 9.53855C23.3145 9.70248 23.4773 9.93812 23.6045 10.0662C23.7317 10.1943 23.9657 10.3582 24.1234 10.435C24.3828 10.5631 24.4795 10.5785 24.9271 10.5785C25.3901 10.5785 25.4613 10.5631 25.736 10.4248C25.8988 10.3377 26.1328 10.1635 26.2549 10.0252C26.377 9.89202 26.5092 9.72809 26.5398 9.65637C26.5754 9.58466 26.6313 9.52831 26.6619 9.52831C26.6975 9.52831 26.9264 9.68199 27.1807 9.87153C27.43 10.0662 27.8726 10.4248 28.1575 10.6809C28.4474 10.9319 28.8748 11.3674 29.1189 11.644C29.358 11.9206 29.7141 12.3612 29.9074 12.6173C30.0957 12.8785 30.4162 13.3652 30.6146 13.7033C30.813 14.0414 31.0978 14.5844 31.2403 14.9071C31.3827 15.2299 31.515 15.5475 31.5353 15.6089C31.5658 15.7216 31.5506 15.7268 31.2504 15.7421C31.0317 15.7524 30.8333 15.8036 30.64 15.8958C30.4772 15.9727 30.2432 16.1366 30.116 16.2646C29.9888 16.3927 29.826 16.6284 29.7497 16.7872C29.6226 17.0484 29.6073 17.1406 29.6073 17.5965C29.6073 18.0473 29.6226 18.1447 29.7447 18.3906C29.821 18.5442 29.9939 18.7799 30.1364 18.9131C30.2788 19.0514 30.5281 19.2204 30.6909 19.2973C30.935 19.4151 31.052 19.4356 31.4132 19.4407C31.7083 19.4407 31.9169 19.41 32.0746 19.3485C32.2017 19.2973 32.3137 19.2717 32.3289 19.2922C32.3442 19.3075 32.3645 19.6149 32.3696 19.9684C32.3798 20.3269 32.3645 20.9161 32.3289 21.2849C32.2984 21.6486 32.2272 22.1916 32.1763 22.4887C32.1203 22.7858 31.9983 23.3135 31.9016 23.6669C31.8049 24.0204 31.6422 24.5275 31.5404 24.7939C31.4336 25.0603 31.2047 25.5777 31.0215 25.9465C30.8435 26.3102 30.5281 26.8686 30.3246 27.176C30.1211 27.4833 29.7701 27.97 29.5463 28.2517C29.3173 28.5335 28.9612 28.9382 28.7476 29.1482C28.4017 29.4914 28.361 29.5171 28.361 29.4044C28.361 29.3326 28.305 29.1585 28.2389 29.0202C28.1727 28.8767 28.0201 28.6513 27.898 28.513C27.7607 28.3593 27.547 28.2056 27.3435 28.1032C27.0485 27.9598 26.9671 27.9444 26.555 27.9444C26.1531 27.9444 26.0565 27.9649 25.7716 28.0981C25.563 28.1954 25.3596 28.3491 25.2019 28.5181C25.0645 28.6667 24.9017 28.8972 24.8407 29.0304C24.744 29.2353 24.7237 29.3634 24.7237 29.7886C24.7237 30.2394 24.7389 30.3316 24.861 30.5826C24.9373 30.7363 25.0747 30.9463 25.1662 31.0436C25.2578 31.1409 25.4155 31.2844 25.6902 31.4893L25.3341 31.6737C25.1357 31.771 24.8305 31.9145 24.6474 31.9913C24.4642 32.0682 24.0623 32.2218 23.7571 32.3243C23.4519 32.4319 22.9584 32.5753 22.6634 32.647C22.3683 32.7187 21.8749 32.8212 21.5696 32.8724C21.1271 32.9441 20.7252 32.9646 19.662 32.9646C18.5886 32.9646 18.1969 32.9441 17.7543 32.8724C17.4491 32.8161 17.0014 32.729 16.7623 32.6726C16.5232 32.6163 16.0501 32.4831 15.7042 32.3704C15.3633 32.2628 15.0937 32.1552 15.1039 32.1296C15.1141 32.1091 15.2006 31.9759 15.2972 31.8376C15.3939 31.6942 15.5007 31.4534 15.5363 31.2997C15.5821 31.1256 15.5974 30.8848 15.577 30.6594C15.5567 30.4084 15.5007 30.2086 15.399 29.9935C15.3023 29.8039 15.1446 29.5939 14.9767 29.4402C14.8241 29.3019 14.585 29.1482 14.4375 29.0919C14.29 29.0406 14.0458 28.9792 13.9033 28.9638C13.7253 28.9433 13.5218 28.9587 13.3031 29.015C13.1199 29.0611 12.8605 29.1738 12.7231 29.266C12.5858 29.3582 12.4026 29.5119 12.3212 29.6093C12.2348 29.7066 12.1127 29.9115 12.0465 30.0549C11.9804 30.2035 11.9143 30.3264 11.8939 30.3264C11.8685 30.3213 11.7057 30.1984 11.5226 30.0447C11.3394 29.8961 10.9274 29.4966 10.6018 29.1636C10.2762 28.8306 9.86925 28.3747 9.6912 28.1493C9.51315 27.9239 9.24354 27.5448 9.08075 27.304C8.92305 27.0633 8.68904 26.6842 8.56695 26.4588C8.43977 26.2334 8.24137 25.8441 8.12437 25.5879C8.01245 25.3318 7.8344 24.9066 7.73266 24.6402C7.63092 24.3739 7.45795 23.8053 7.35113 23.3852C7.2443 22.96 7.11712 22.3402 7.06625 22.0021C7.00011 21.5513 6.97468 21.08 6.97468 20.2347C6.96959 19.5585 7.00011 18.8926 7.03572 18.6211C7.07133 18.365 7.14764 17.9295 7.2036 17.6478C7.25956 17.366 7.38165 16.8691 7.4783 16.5464C7.57496 16.2237 7.68688 15.8702 7.80897 15.5731L8.09893 15.7114C8.35329 15.8343 8.45503 15.8548 8.85183 15.8548C9.26388 15.8548 9.34528 15.8395 9.64033 15.6909C9.83873 15.5936 10.0626 15.4296 10.1999 15.2811C10.322 15.1479 10.4848 14.9071 10.556 14.7535C10.6628 14.5127 10.6832 14.4 10.6832 13.985C10.6832 13.5445 10.6679 13.4677 10.5306 13.1962C10.4441 13.0322 10.266 12.7915 10.1236 12.6583C9.98626 12.5251 9.82856 12.397 9.7726 12.3663C9.70646 12.3355 9.6912 12.2946 9.72173 12.2331C9.74716 12.187 9.96082 11.9257 10.1999 11.6542C10.439 11.3827 10.8612 10.9524 11.141 10.7014C11.4208 10.4555 11.8583 10.0969 12.1076 9.90739C12.3569 9.72297 12.7587 9.44634 12.9978 9.29779C13.2369 9.14923 13.6693 8.90846 13.9644 8.7599C14.2594 8.61134 14.7478 8.39107 15.0581 8.26812C15.3633 8.14518 15.9026 7.97101 16.2536 7.87368C16.6046 7.77635 17.1744 7.64828 17.5254 7.58681Z" fill="#DEDEDE"/>
<path d="M17.7796 24.4917C17.9067 24.42 18.0899 24.3329 18.1865 24.297C18.2985 24.2561 18.5325 24.2356 18.8224 24.2458C19.1887 24.2612 19.3362 24.2919 19.5601 24.3944C19.7381 24.4815 19.9416 24.6403 20.1095 24.8298C20.2672 25.004 20.4198 25.2345 20.4757 25.3831C20.5266 25.5265 20.5826 25.7416 20.6029 25.8697C20.6233 26.0029 20.6131 26.2283 20.5775 26.4076C20.5419 26.5766 20.4605 26.8174 20.3994 26.9455C20.3384 27.0735 20.1909 27.2733 20.0739 27.3963C19.9619 27.5141 19.7127 27.6883 19.5244 27.7753C19.2192 27.9239 19.1327 27.9444 18.7461 27.9444C18.3748 27.9393 18.2679 27.9188 17.9881 27.7907C17.7796 27.6883 17.5761 27.5448 17.4184 27.3707C17.281 27.2221 17.1233 27.0018 17.0674 26.884C17.0165 26.7611 16.9453 26.5357 16.9148 26.382C16.8791 26.1924 16.8791 26.0029 16.9148 25.7929C16.9453 25.6238 17.0114 25.3933 17.0674 25.2806C17.1182 25.1679 17.2505 24.9732 17.3573 24.8503C17.4642 24.7273 17.6524 24.5685 17.7796 24.4917Z" fill="#D21341"/>
<path d="M23.7061 20.7163C23.818 20.6497 24.0367 20.5626 24.1893 20.5216C24.3725 20.4653 24.5811 20.4499 24.7998 20.4653C25.0033 20.4858 25.2475 20.5472 25.4357 20.6343C25.6036 20.7163 25.8427 20.8802 25.9698 21.0031C26.0919 21.1312 26.2649 21.3822 26.3463 21.5666C26.4836 21.8535 26.504 21.956 26.504 22.335C26.504 22.7141 26.4836 22.8115 26.3463 23.1035C26.2598 23.2879 26.0868 23.5338 25.9648 23.6567C25.8427 23.7796 25.629 23.9385 25.4866 24.005C25.3492 24.0716 25.0949 24.1485 24.927 24.1792C24.7489 24.2048 24.5149 24.2048 24.3674 24.1843C24.23 24.1587 24.0113 24.0921 23.8841 24.0358C23.7569 23.9743 23.5535 23.836 23.4263 23.7284C23.2991 23.6208 23.116 23.3801 23.0193 23.2008C22.8463 22.8832 22.8413 22.8524 22.8413 22.335C22.8413 21.8484 22.8565 21.7716 22.9786 21.5308C23.06 21.3822 23.2075 21.162 23.3093 21.0493C23.4161 20.9314 23.5942 20.7829 23.7061 20.7163Z" fill="#D21341"/>
<path d="M9.94539 20.1886C10.0726 20.1169 10.2761 20.0298 10.4032 19.994C10.5406 19.953 10.7746 19.9376 10.9882 19.953C11.2426 19.9684 11.4359 20.0196 11.6598 20.1323C11.8378 20.2143 12.0769 20.3833 12.1939 20.5062C12.3058 20.6241 12.4737 20.87 12.5602 21.0544C12.6924 21.3412 12.7128 21.4437 12.7128 21.7972C12.7128 22.0892 12.6772 22.2889 12.6009 22.4887C12.5398 22.6578 12.3872 22.8883 12.2244 23.0676C12.0565 23.252 11.848 23.4211 11.675 23.503C11.4257 23.626 11.3342 23.6413 10.8611 23.6413C10.3829 23.6413 10.3015 23.626 10.0726 23.5081C9.93521 23.4313 9.7419 23.3084 9.64525 23.2264C9.54859 23.1444 9.41124 22.9856 9.33493 22.8729C9.25863 22.7602 9.15688 22.5553 9.10601 22.4119C9.06023 22.2633 9.01953 22.0021 9.01953 21.7972C9.01953 21.5666 9.06023 21.3361 9.12636 21.1568C9.18232 20.9929 9.32985 20.7573 9.47229 20.5985C9.60455 20.4499 9.81821 20.2655 9.94539 20.1886Z" fill="#D21341"/>
<path d="M14.4475 15.3579C14.5594 15.2965 14.7425 15.2196 14.8545 15.1838C14.9664 15.1479 15.1851 15.1172 15.3377 15.1172C15.4904 15.1121 15.7447 15.1479 15.8973 15.194C16.0499 15.2401 16.2585 15.3323 16.3552 15.3938C16.4518 15.4604 16.6197 15.5987 16.7214 15.7063C16.8232 15.819 16.9758 16.0444 17.0521 16.2134C17.1742 16.4798 17.1945 16.5823 17.1945 16.9818C17.1945 17.3814 17.1742 17.4839 17.0521 17.7502C16.9758 17.9193 16.8232 18.1447 16.7214 18.2574C16.6197 18.365 16.4518 18.5033 16.3552 18.5699C16.2585 18.6313 16.0499 18.7236 15.8973 18.7748C15.6938 18.8414 15.5209 18.8567 15.2614 18.8414C15.0223 18.826 14.8036 18.7748 14.6001 18.6774C14.4322 18.6006 14.1881 18.4316 14.0558 18.2984C13.9184 18.1652 13.7506 17.9193 13.6743 17.7502C13.5522 17.489 13.5318 17.3763 13.5318 16.9818C13.5318 16.5823 13.5522 16.4798 13.6743 16.2134C13.7506 16.0444 13.9133 15.8087 14.0304 15.6858C14.1474 15.5628 14.3356 15.4143 14.4475 15.3579Z" fill="#D21341"/>
<path d="M23.5585 13.4369C23.6959 13.3447 23.935 13.2371 24.0876 13.1962C24.2402 13.1552 24.459 13.1193 24.5709 13.1193C24.6828 13.1142 24.9015 13.1501 25.0542 13.191C25.2068 13.232 25.4255 13.3242 25.5374 13.3908C25.6493 13.4574 25.8325 13.6111 25.9393 13.734C26.0512 13.857 26.1988 14.0875 26.27 14.2412C26.3819 14.482 26.4022 14.5947 26.4022 15.0096C26.4022 15.445 26.387 15.527 26.2496 15.8036C26.1682 15.9727 26.0054 16.2083 25.8834 16.3313C25.7613 16.4491 25.5323 16.6079 25.3696 16.6847C25.1406 16.7974 24.988 16.8282 24.6472 16.8435C24.2962 16.8589 24.1588 16.8435 23.935 16.7564C23.7824 16.695 23.5636 16.572 23.4517 16.4849C23.3398 16.3978 23.1719 16.2339 23.0854 16.1161C22.9939 16.0034 22.8718 15.7575 22.8107 15.5731C22.7344 15.3221 22.709 15.1479 22.7243 14.8815C22.7395 14.6459 22.7904 14.4256 22.8718 14.2412C22.943 14.0875 23.0702 13.8775 23.1567 13.7802C23.2381 13.6828 23.4212 13.5291 23.5585 13.4369Z" fill="#D21341"/>
<path d="M17.9322 9.37464C18.0441 9.31829 18.2221 9.25169 18.3239 9.22096C18.4307 9.19534 18.6749 9.17998 18.8733 9.19022C19.1107 9.20047 19.3227 9.24828 19.5092 9.33366C19.6618 9.40025 19.9009 9.55905 20.0332 9.682C20.1807 9.82031 20.3435 10.0457 20.4401 10.2455C20.5877 10.5426 20.6029 10.6246 20.6029 11.0395C20.6029 11.4442 20.5826 11.5415 20.4503 11.8284C20.3536 12.0384 20.201 12.2433 20.0281 12.4021C19.8856 12.5405 19.6567 12.7044 19.5194 12.771C19.321 12.8632 19.1938 12.8837 18.7716 12.8837C18.3239 12.8837 18.2272 12.8683 17.983 12.7454C17.8304 12.6737 17.5913 12.4995 17.4591 12.3612C17.3217 12.228 17.1488 11.9872 17.0775 11.8335C16.9554 11.5876 16.9402 11.4903 16.9402 11.0395C16.9402 10.5631 16.9504 10.5068 17.0979 10.2199C17.1895 10.0508 17.3624 9.81519 17.4947 9.69737C17.6219 9.57442 17.8203 9.43099 17.9322 9.37464Z" fill="#D21341"/>
</svg>
