<svg width="41" height="42" viewBox="0 0 41 42" fill="none" xmlns="http://www.w3.org/2000/svg">
<path fill-rule="evenodd" clip-rule="evenodd" d="M39.4175 0.00927562C39.7652 0.01819 40.0862 0.0315617 40.1352 0.0360189C40.1842 0.0404761 40.3581 0.183107 40.5275 0.352481C40.6924 0.521855 40.8172 0.677857 40.8039 0.704601C40.7905 0.731344 40.8039 0.749173 40.8261 0.749173C40.8484 0.749173 40.8975 0.816031 40.9331 0.896261C40.9688 0.97649 40.9955 1.20827 41 1.44004C41 1.6629 40.9822 1.86793 40.9599 1.89913C40.9331 1.92588 40.9242 1.97936 40.9331 2.01056C40.9421 2.03731 40.9287 2.10416 40.8975 2.15319C40.8707 2.20222 40.7682 2.33148 40.6701 2.434C40.5721 2.54097 40.4918 2.64794 40.4918 2.67023C40.4918 2.69252 40.3715 2.83515 40.2244 2.98669C40.0773 3.13824 39.4175 3.80682 38.7533 4.47094C38.0891 5.13953 37.2199 6.02651 36.8142 6.44549C36.4086 6.86892 36.052 7.21213 36.0252 7.21213C35.994 7.21213 35.9673 7.23887 35.9673 7.27007C35.9673 7.29682 35.8558 7.43499 35.7221 7.56871C35.5884 7.70242 35.4769 7.83168 35.4769 7.85842C35.4725 7.88517 35.517 7.94311 35.5661 7.99214C35.6151 8.04117 35.6597 8.10803 35.6552 8.13923C35.6552 8.16597 35.6953 8.21054 35.7444 8.23729C35.7934 8.26403 35.8335 8.31306 35.8335 8.34872C35.8335 8.38438 35.8558 8.41558 35.8781 8.41558C35.9004 8.41558 35.945 8.46461 35.9673 8.52701C35.9896 8.58941 36.0742 8.72312 36.15 8.8301C36.2258 8.93261 36.306 9.01284 36.3283 9.00838C36.3506 8.99947 36.3729 9.02176 36.3729 9.05296C36.3774 9.0797 36.3774 9.11536 36.3729 9.12873C36.3729 9.1421 36.4532 9.24016 36.5512 9.35159C36.6493 9.46302 36.7474 9.62348 36.7696 9.70817C36.7919 9.79285 36.8588 9.9132 36.9257 9.9756C36.9881 10.038 37.1129 10.2297 37.202 10.399C37.2957 10.5729 37.3625 10.7244 37.3581 10.7467C37.3536 10.7645 37.3714 10.7779 37.3937 10.7779C37.416 10.7779 37.4294 10.7957 37.416 10.8225C37.4026 10.8492 37.4071 10.867 37.4294 10.867C37.4472 10.8626 37.5364 11.032 37.6344 11.2325C37.7281 11.4376 37.8127 11.6426 37.8217 11.6916C37.8306 11.7407 37.8573 11.7897 37.8752 11.8031C37.8974 11.8164 37.942 11.8967 37.9732 11.9813C38.0089 12.066 38.0356 12.1507 38.0267 12.173C38.0223 12.1908 38.0401 12.2042 38.0624 12.2042C38.0847 12.2042 38.098 12.2399 38.0936 12.2844C38.0847 12.3245 38.1203 12.4538 38.1694 12.5697C38.2229 12.6856 38.2719 12.7747 38.2853 12.7614C38.2986 12.7524 38.4101 13.0689 38.5394 13.4656C38.6686 13.8623 38.7845 14.259 38.7979 14.3437C38.8113 14.4284 38.8603 14.5799 38.9138 14.678C38.9628 14.776 38.994 14.883 38.9807 14.9142C38.9673 14.9409 38.9673 14.9588 38.9896 14.9498C39.0074 14.9365 39.0654 15.1237 39.1189 15.3599C39.1723 15.5961 39.2303 15.8636 39.2437 15.9483C39.257 16.0329 39.2793 16.1444 39.2882 16.1934C39.2972 16.2424 39.3284 16.3717 39.3551 16.4831C39.3819 16.5946 39.3952 16.7194 39.3819 16.7639C39.3685 16.804 39.3685 16.8397 39.3908 16.8397C39.4086 16.8397 39.4264 16.8664 39.4309 16.8976C39.4398 16.9244 39.4532 17.0403 39.471 17.1517C39.4844 17.2631 39.4933 17.4905 39.4933 17.6643C39.4888 17.8381 39.5067 17.9941 39.529 18.0209C39.5513 18.0476 39.5869 18.2036 39.6092 18.3685C39.6359 18.5825 39.6315 18.6805 39.5958 18.7028C39.5557 18.7251 39.5557 18.8544 39.5869 19.1797C39.6092 19.4249 39.627 19.6968 39.6226 19.7815C39.6181 19.8662 39.6181 20.2495 39.6181 20.6283C39.6181 21.1097 39.6047 21.337 39.5646 21.3816C39.529 21.4217 39.5111 21.6 39.5111 21.8719C39.5111 22.1081 39.4978 22.3265 39.4755 22.3577C39.4576 22.3845 39.4532 22.438 39.4666 22.4692C39.4799 22.4959 39.471 22.6118 39.4443 22.7232C39.4175 22.8347 39.3908 22.9728 39.3774 23.0352C39.3685 23.0976 39.3507 23.218 39.3373 23.3027C39.3239 23.3873 39.2882 23.5701 39.2615 23.7038C39.2348 23.8375 39.1768 24.1228 39.1278 24.3412C39.0832 24.5551 39.0297 24.729 39.0119 24.729C38.9896 24.729 38.9361 24.8627 38.8871 25.0276C38.8425 25.197 38.8024 25.3753 38.7979 25.4288C38.7979 25.4822 38.7712 25.5536 38.7399 25.5848C38.7087 25.616 38.6865 25.6828 38.6865 25.7318C38.6865 25.7809 38.6151 26.0305 38.5304 26.289C38.4413 26.5475 38.3432 26.7882 38.312 26.8239C38.2808 26.8595 38.2095 27.0021 38.1515 27.1359C38.098 27.2696 38.0445 27.4211 38.0401 27.4702C38.0356 27.5192 38.0133 27.5994 37.9911 27.6484C37.9732 27.6975 37.942 27.7465 37.9197 27.7599C37.9019 27.7732 37.8752 27.8312 37.8662 27.8936C37.8529 27.956 37.7414 28.2101 37.6166 28.4641C37.4963 28.7137 37.3714 28.9187 37.3491 28.9187C37.3269 28.9187 37.3135 28.941 37.3269 28.9633C37.3402 28.9856 37.3224 29.0079 37.2957 29.0079C37.2645 29.0079 37.2511 29.0213 37.2689 29.0391C37.2867 29.0569 37.2734 29.1282 37.2377 29.1996C37.202 29.2664 37.1307 29.36 37.0817 29.409C37.0326 29.4581 36.939 29.5829 36.8722 29.6898C36.8098 29.7924 36.7518 29.9038 36.7518 29.935C36.7474 29.9617 36.734 29.9885 36.7162 29.9885C36.6939 29.9885 36.685 30.0063 36.6939 30.0241C36.6983 30.042 36.5735 30.2559 36.413 30.4921C36.2526 30.7328 36.1099 30.9289 36.0921 30.9245C36.0698 30.9245 36.0564 30.9557 36.0564 30.9914C36.0564 31.027 36.0252 31.0671 35.9896 31.0805C35.9539 31.0939 35.9227 31.1295 35.9227 31.1607C35.9227 31.1875 35.8112 31.3524 35.6775 31.5262C35.5393 31.7 35.419 31.8338 35.4056 31.8293C35.3967 31.8204 35.361 31.8516 35.3254 31.8962C35.2897 31.9363 35.2674 31.9809 35.2763 31.9942C35.2852 32.0076 35.1738 32.1458 35.0267 32.3062C34.884 32.4667 34.7637 32.6049 34.7637 32.6182C34.7637 32.6316 34.465 32.9347 34.095 33.3002C33.6671 33.7192 33.4041 33.9465 33.3595 33.9331C33.3238 33.9197 33.2837 33.9331 33.2704 33.9554C33.257 33.9777 33.2124 34 33.1723 34C33.1277 34 33.0608 34.0312 33.0252 34.0668C32.9717 34.1159 32.8736 34.1203 32.468 34.0802C32.2005 34.0579 31.9286 34.0089 31.8662 33.9777C31.8038 33.9465 31.6433 33.8128 31.5051 33.6835C31.3669 33.5498 31.2198 33.376 31.1797 33.3002C31.1396 33.22 31.1084 33.0907 31.1084 33.0194C31.1084 32.9481 31.0905 32.8812 31.0638 32.8768C31.0415 32.8678 31.0192 32.7742 31.0103 32.6628C31.0058 32.5514 31.0148 32.382 31.0281 32.2839C31.046 32.1859 31.1351 31.9853 31.2287 31.8427C31.3223 31.6956 31.3937 31.5619 31.3892 31.5396C31.3803 31.5218 31.4249 31.4727 31.4873 31.4371C31.5497 31.4014 31.5898 31.3479 31.5764 31.3256C31.5631 31.3034 31.5898 31.2722 31.6344 31.2588C31.6745 31.241 31.7547 31.1518 31.8127 31.0582C31.8662 30.9601 31.9375 30.8799 31.9687 30.8755C31.9955 30.8755 32.1024 30.7729 32.2005 30.6526C32.2986 30.5323 32.4011 30.4119 32.4234 30.3807C32.4501 30.3495 32.5438 30.2158 32.6374 30.091C32.7265 29.9617 32.8157 29.8637 32.838 29.877C32.8558 29.8904 32.9137 29.8325 32.9717 29.7522C33.0252 29.6765 33.0698 29.5829 33.0698 29.5561C33.0698 29.5249 33.1143 29.467 33.1723 29.4313C33.2258 29.3957 33.257 29.3645 33.2392 29.3645C33.2169 29.3645 33.2659 29.2798 33.3461 29.1773C33.4219 29.0703 33.5244 28.9544 33.569 28.9187C33.6136 28.8831 33.6582 28.8207 33.6626 28.785C33.6671 28.7494 33.8231 28.4775 34.0014 28.1833C34.1842 27.8891 34.3536 27.6351 34.3803 27.6172C34.4071 27.5994 34.416 27.5816 34.3982 27.5816C34.3759 27.5816 34.4071 27.5058 34.4606 27.4167C34.5141 27.3231 34.5765 27.2384 34.5943 27.225C34.6166 27.2116 34.6389 27.1715 34.6433 27.1359C34.6522 27.1002 34.6879 26.9932 34.7236 26.8996C34.7592 26.8105 34.8083 26.7347 34.8306 26.7347C34.8528 26.7347 34.9108 26.65 34.9509 26.5475C34.9955 26.4405 35.0311 26.3336 35.0311 26.3113C35.0311 26.289 35.098 26.1062 35.1782 25.9101C35.2629 25.714 35.3878 25.3931 35.4546 25.197C35.526 25.0009 35.6017 24.827 35.6285 24.8092C35.6597 24.7869 35.6597 24.7735 35.6329 24.7735C35.6106 24.7735 35.6151 24.7557 35.6418 24.7379C35.6731 24.7201 35.7221 24.5774 35.7488 24.417C35.7756 24.2565 35.8068 24.105 35.8246 24.0827C35.8424 24.0604 35.8558 24.0069 35.8647 23.9712C35.8692 23.9356 35.9182 23.7261 35.9673 23.5032C36.0208 23.2804 36.0832 22.9907 36.1054 22.8569C36.1277 22.7232 36.1679 22.6029 36.1901 22.5895C36.2169 22.5761 36.2481 22.3354 36.2615 22.0546C36.2748 21.7204 36.3016 21.5331 36.3372 21.5109C36.3774 21.4886 36.3863 21.2746 36.3818 20.6952C36.3729 20.0935 36.3818 19.9152 36.4264 19.9152C36.4621 19.9152 36.4576 19.9003 36.413 19.8706C36.3551 19.8305 36.3551 19.826 36.413 19.826C36.471 19.826 36.471 19.8216 36.413 19.7815C36.3551 19.7414 36.3551 19.7369 36.413 19.7369C36.471 19.7369 36.471 19.7324 36.413 19.6923C36.3551 19.6522 36.3551 19.6477 36.413 19.6477C36.471 19.6477 36.471 19.6433 36.413 19.6032C36.3551 19.5631 36.3551 19.5586 36.413 19.5586C36.4621 19.5586 36.4665 19.5497 36.4264 19.5229C36.3863 19.5007 36.3729 19.3625 36.3818 19.0594C36.3863 18.8187 36.3774 18.6226 36.3595 18.6226C36.3372 18.6226 36.3239 18.5914 36.3239 18.5557C36.3239 18.5201 36.3462 18.4889 36.3685 18.4889C36.3952 18.4889 36.4041 18.4086 36.3863 18.2794C36.3685 18.159 36.3417 18.0565 36.3194 18.0432C36.3016 18.0298 36.2704 17.8871 36.2481 17.7267C36.2303 17.5618 36.2258 17.437 36.2481 17.4459C36.2659 17.4548 36.2659 17.379 36.2526 17.2765C36.2347 17.1695 36.208 17.0759 36.1901 17.0626C36.1768 17.0492 36.1411 16.9333 36.1099 16.8085C36.0787 16.6792 36.0653 16.5544 36.0787 16.5277C36.0921 16.501 36.0876 16.4787 36.0653 16.4742C36.0475 16.4653 35.9851 16.2603 35.9227 16.0151C35.8647 15.77 35.8157 15.556 35.8112 15.5382C35.8112 15.5248 35.7979 15.4936 35.7756 15.4713C35.7578 15.4535 35.7444 15.3867 35.7444 15.3243C35.7444 15.2619 35.7132 15.1148 35.6731 14.99C35.6329 14.8696 35.5705 14.7359 35.5393 14.7002C35.5037 14.6646 35.468 14.5621 35.4546 14.4774C35.4413 14.3927 35.4145 14.3036 35.3922 14.2768C35.3699 14.2501 35.3432 14.1921 35.3343 14.1431C35.3298 14.0941 35.3075 14.045 35.2897 14.0317C35.2719 14.0183 35.2496 13.9693 35.2407 13.9202C35.2362 13.8712 35.205 13.7865 35.1738 13.733C35.1426 13.6751 35.1337 13.6305 35.156 13.6305C35.1738 13.6305 35.1604 13.6127 35.1292 13.5949C35.098 13.577 35.0713 13.5191 35.0624 13.4611C35.0579 13.4077 35.0401 13.3631 35.0222 13.3631C34.9999 13.3631 34.9955 13.3453 35.0089 13.3185C35.0222 13.2918 34.991 13.1892 34.942 13.0867C34.893 12.9798 34.8038 12.8282 34.7414 12.7524C34.679 12.6722 34.6389 12.5875 34.6522 12.5608C34.6656 12.534 34.6522 12.5162 34.63 12.5162C34.6077 12.5162 34.572 12.4716 34.5542 12.4182C34.5363 12.3602 34.5185 12.2844 34.5096 12.2488C34.5007 12.2131 34.4472 12.1329 34.3848 12.0705C34.3224 12.0081 34.2689 11.9412 34.2644 11.9145C34.2644 11.8877 34.2689 11.8521 34.2733 11.8253C34.2778 11.7986 34.2644 11.7941 34.2421 11.812C34.2243 11.8298 34.1396 11.7317 34.0549 11.5891C33.9747 11.4509 33.9033 11.3083 33.8989 11.2816C33.8989 11.2504 33.8677 11.2147 33.8409 11.2013C33.8097 11.188 33.7919 11.1612 33.8053 11.1345C33.8187 11.1077 33.8053 11.0899 33.783 11.0899C33.7607 11.0899 33.7028 11.023 33.6626 10.9473C33.6225 10.867 33.5913 10.7868 33.5958 10.769C33.6002 10.7467 33.5824 10.7333 33.5512 10.7333C33.5244 10.7333 33.5111 10.7244 33.52 10.711C33.5289 10.6977 33.471 10.6174 33.3952 10.5328C33.3149 10.4481 33.257 10.3634 33.2704 10.3455C33.2793 10.3233 33.2481 10.2787 33.1946 10.243C33.1054 10.1806 33.092 10.1895 32.9182 10.3678C32.8157 10.4748 32.7087 10.5595 32.6819 10.555C32.6507 10.555 32.624 10.5818 32.624 10.613C32.624 10.6397 32.1648 11.1122 30.5957 12.6544L30.676 12.7881C30.7161 12.8594 30.7518 12.9486 30.7518 12.9842C30.7518 13.0199 30.8008 13.0956 30.8543 13.1536C30.9122 13.2071 31.0549 13.4121 31.1663 13.6082C31.2822 13.8043 31.3758 13.9782 31.3758 14.0005C31.3758 14.0183 31.4115 14.0851 31.4561 14.1565C31.5007 14.2233 31.6032 14.4284 31.6834 14.6111C31.7637 14.7938 31.8394 14.9855 31.8528 15.0345C31.8617 15.0836 31.8751 15.1504 31.8796 15.1816C31.884 15.2084 31.9018 15.2351 31.9241 15.2351C31.942 15.2351 31.9776 15.2886 32.0044 15.3599C32.0311 15.4268 32.0623 15.5516 32.0712 15.6363C32.0802 15.7209 32.1158 15.8235 32.1515 15.8591C32.1827 15.8948 32.2362 16.0062 32.2674 16.1043C32.303 16.2023 32.3298 16.3138 32.3342 16.3494C32.3387 16.3851 32.3565 16.4475 32.3699 16.4831C32.3877 16.5188 32.4368 16.7015 32.4903 16.8843C32.5393 17.067 32.5839 17.281 32.5972 17.3523C32.6062 17.4236 32.6284 17.5172 32.6463 17.5529C32.6641 17.5885 32.6641 17.6554 32.6507 17.6999C32.6374 17.7401 32.6463 17.7846 32.6686 17.798C32.6909 17.8114 32.7087 17.9406 32.7042 18.0877C32.6953 18.2616 32.7087 18.3685 32.7444 18.3908C32.78 18.4131 32.7934 18.5513 32.7934 18.8009C32.7889 19.0104 32.8023 19.3714 32.8246 19.6032C32.8469 19.9063 32.8424 20.1158 32.7978 20.352C32.7533 20.5882 32.7488 20.6863 32.7845 20.7086C32.8201 20.7309 32.8201 20.82 32.7934 21.0072C32.7711 21.1543 32.7533 21.3415 32.7577 21.4217C32.7577 21.4975 32.7443 21.5554 32.7265 21.5465C32.7042 21.5376 32.6953 21.5955 32.7042 21.6802C32.7087 21.7649 32.6909 21.8318 32.6686 21.8318C32.6463 21.8318 32.6329 21.8808 32.6463 21.9432C32.6597 22.0056 32.6463 22.0546 32.624 22.0546C32.6017 22.0546 32.5883 22.0992 32.5972 22.1572C32.6062 22.2106 32.5883 22.3756 32.5527 22.5226C32.517 22.6697 32.4769 22.8213 32.4591 22.8569C32.4457 22.8926 32.4279 22.955 32.4234 22.9907C32.4189 23.0263 32.3788 23.1779 32.3387 23.3249C32.2941 23.472 32.205 23.7127 32.1336 23.8598C32.0668 24.0069 31.991 24.1986 31.9643 24.2832C31.9375 24.3679 31.8885 24.5239 31.8573 24.6309C31.8261 24.7334 31.7904 24.8181 31.777 24.8181C31.7637 24.8181 31.7547 24.8449 31.7547 24.8761C31.7503 24.9028 31.6567 25.1257 31.5408 25.3664C31.4249 25.6026 31.309 25.7987 31.2867 25.7987C31.2644 25.7987 31.251 25.821 31.2644 25.8433C31.2778 25.8656 31.2599 25.8878 31.2332 25.8878C31.202 25.8878 31.1886 25.8968 31.2109 25.9101C31.2287 25.9235 31.153 26.084 31.0415 26.2667C30.9301 26.4495 30.8142 26.6144 30.783 26.6367C30.7518 26.6545 30.6804 26.7347 30.6269 26.8149C30.5735 26.8907 30.5333 26.9709 30.5422 26.9843C30.5467 26.9977 30.4665 27.1225 30.3639 27.2607C30.2614 27.3988 30.1143 27.5593 30.0385 27.6172C29.9672 27.6707 29.8379 27.8223 29.7532 27.9515C29.673 28.0763 29.5571 28.2234 29.5036 28.2725C29.4501 28.3215 29.361 28.3839 29.3075 28.4062C29.2584 28.4329 29.1916 28.5042 29.1604 28.5622C29.1336 28.6246 29.0445 28.7271 28.9598 28.7895C28.8795 28.8519 28.7993 28.9054 28.7815 28.9009C28.7636 28.8965 28.719 28.9366 28.6834 28.9856C28.6477 29.0346 28.6031 29.0614 28.5809 29.0435C28.563 29.0257 28.5051 29.0391 28.456 29.0747C28.407 29.1149 28.3134 29.1416 28.2465 29.1416C28.1752 29.1416 28.1128 29.155 28.1039 29.1773C28.095 29.1951 28.0058 29.2129 27.9033 29.2218C27.8008 29.2263 27.6269 29.2085 27.511 29.1817C27.3907 29.1594 27.2614 29.106 27.2213 29.0703C27.1767 29.0346 27.1187 29.0168 27.0964 29.0302C27.0742 29.0435 26.9226 28.9232 26.7621 28.7627C26.6016 28.6023 26.4813 28.4507 26.4947 28.4285C26.508 28.4062 26.4947 28.3839 26.4724 28.3839C26.4501 28.3839 26.4367 28.3705 26.4501 28.3527C26.459 28.3304 26.4323 28.2368 26.3832 28.1387C26.3342 28.0407 26.2941 27.9292 26.2896 27.8936C26.2852 27.8579 26.2807 27.6975 26.2807 27.537C26.2807 27.3186 26.3074 27.1849 26.3921 27.0021C26.4545 26.8684 26.6016 26.65 26.722 26.5163C26.8424 26.3871 27.0296 26.182 27.141 26.0617C27.2525 25.9413 27.3327 25.8344 27.3193 25.8254C27.306 25.8121 27.3372 25.7942 27.3862 25.7809C27.4352 25.7675 27.5066 25.7006 27.5422 25.6338C27.5779 25.5669 27.6581 25.4332 27.7205 25.3441C27.7829 25.2505 27.8498 25.1925 27.8676 25.2103C27.8899 25.2282 27.8988 25.2193 27.8944 25.197C27.8855 25.1747 27.9167 25.0855 27.9657 25.0053C28.0147 24.9251 28.0682 24.8627 28.0905 24.8627C28.1083 24.8627 28.1217 24.8315 28.1217 24.7958C28.1217 24.7602 28.1574 24.7111 28.202 24.6844C28.2421 24.6621 28.2644 24.6398 28.2465 24.6398C28.2242 24.6398 28.2733 24.5239 28.3535 24.3858C28.4293 24.2431 28.5185 24.105 28.5452 24.0827C28.5764 24.0604 28.6433 23.9534 28.6968 23.8509C28.7458 23.7439 28.7815 23.637 28.7681 23.6147C28.7547 23.5924 28.7859 23.5344 28.8305 23.4943C28.8795 23.4497 28.9286 23.3383 28.9419 23.2492C28.9553 23.1556 28.9999 23.0129 29.04 22.9372C29.0801 22.8569 29.1202 22.75 29.1292 22.7009C29.1381 22.6519 29.1693 22.5137 29.196 22.3889C29.2228 22.2686 29.2718 22.1349 29.303 22.0992C29.3298 22.0636 29.3788 21.9165 29.4055 21.7783C29.4367 21.6357 29.4457 21.4975 29.4278 21.4707C29.4055 21.444 29.4234 21.4039 29.459 21.3816C29.5081 21.3549 29.5304 21.2568 29.5348 21.0429C29.5437 20.8779 29.5526 20.7353 29.5571 20.7309C29.566 20.7264 29.5616 20.5882 29.5526 20.4188C29.5393 20.2183 29.5526 20.1024 29.5838 20.0846C29.615 20.0623 29.6373 19.9419 29.6373 19.8038C29.6373 19.67 29.615 19.5586 29.5928 19.5586C29.566 19.5586 29.5526 19.4472 29.5526 19.3045C29.5571 19.1619 29.5437 19.0059 29.5259 18.9569C29.5081 18.9079 29.5036 18.8009 29.5214 18.7251C29.5348 18.6404 29.5081 18.3819 29.459 18.1234C29.41 17.8693 29.3298 17.5751 29.2852 17.4637C29.2406 17.3523 29.1292 17.0225 29.0355 16.7283C28.9464 16.4341 28.8439 16.1132 28.8082 16.0151C28.777 15.9171 28.6968 15.7833 28.6344 15.7165C28.5719 15.6452 28.5185 15.5649 28.5185 15.5382C28.514 15.507 28.514 15.4669 28.5185 15.4491C28.5185 15.4268 28.5095 15.4134 28.4917 15.4134C28.4694 15.4134 28.4115 15.3376 28.358 15.2485C28.3 15.1549 28.2599 15.0702 28.2688 15.0568C28.2733 15.039 27.7473 15.5605 27.0964 16.2023C26.1603 17.1339 25.9285 17.3879 25.982 17.4191C26.0177 17.4414 26.0266 17.4637 26.0043 17.4637C25.9776 17.4637 25.982 17.4771 26.0088 17.4994C26.0355 17.5172 26.1024 17.6598 26.1514 17.8203C26.2049 17.9808 26.2762 18.2393 26.3119 18.3997C26.352 18.5602 26.3698 18.7296 26.3565 18.7786C26.3386 18.8276 26.352 18.8811 26.3788 18.9034C26.41 18.9212 26.4144 18.997 26.3966 19.1084C26.3728 19.2243 26.3788 19.3016 26.4144 19.3402C26.4501 19.3803 26.4679 19.5853 26.4724 19.9508C26.4724 20.3564 26.459 20.4946 26.4189 20.4946C26.3788 20.4946 26.3698 20.5347 26.3921 20.6372C26.4055 20.7175 26.4011 20.8735 26.3788 20.9849C26.3565 21.0963 26.3253 21.2167 26.3074 21.2523C26.2941 21.288 26.2718 21.3593 26.2629 21.4083C26.2539 21.4574 26.2094 21.5777 26.1603 21.6758C26.1113 21.7738 26.0623 21.9031 26.0489 21.9655C26.0355 22.0279 26.0088 22.0858 25.9865 22.0992C25.9597 22.1126 25.8973 22.224 25.8394 22.3444C25.7859 22.4692 25.7369 22.5895 25.7369 22.6118C25.7369 22.6385 25.6655 22.7767 25.5808 22.9149C25.4961 23.0575 25.3981 23.1689 25.3713 23.1689C25.3401 23.1689 25.2822 23.2403 25.2465 23.3249C25.2108 23.4096 25.1574 23.4809 25.1351 23.4809C25.1128 23.4809 25.0905 23.5121 25.0905 23.5478C25.0905 23.5835 24.8765 23.8152 24.6135 24.0604C24.3461 24.31 24.1009 24.5106 24.0652 24.5061C24.0296 24.5061 23.9092 24.5863 23.7978 24.6844C23.6863 24.7869 23.5838 24.8671 23.566 24.8627C23.5437 24.8627 23.5258 24.8582 23.5169 24.8538C23.5125 24.8449 23.4545 24.885 23.3966 24.9429C23.3342 24.9964 23.2717 25.041 23.2539 25.041C23.2316 25.041 23.196 25.0499 23.1737 25.0633C23.1514 25.0766 23.1068 25.0855 23.0845 25.0855C23.0533 25.0855 23.0399 27.1002 23.0399 31.0493C23.0399 34.3253 23.0266 37.0264 23.0087 37.0442C22.9865 37.0665 22.9731 37.4276 22.9686 37.8465C22.9686 38.27 22.9553 38.7647 22.9374 38.9475C22.924 39.1302 22.8706 39.4155 22.8215 39.5849C22.768 39.7498 22.6922 39.9013 22.6521 39.9281C22.6075 39.9503 22.5853 39.9726 22.6075 39.9726C22.6254 39.9726 22.5986 40.0217 22.5496 40.0841C22.5006 40.1465 22.4515 40.1955 22.4382 40.1955C22.4248 40.1955 22.3535 40.2713 22.2777 40.3649C22.2019 40.454 22.0771 40.5744 21.9968 40.6278C21.9211 40.6813 21.8319 40.717 21.8052 40.7036C21.774 40.6947 21.7071 40.7259 21.6581 40.7749C21.609 40.824 21.5555 40.8685 21.5377 40.8685C21.5154 40.873 21.4575 40.8908 21.404 40.9131C21.346 40.9354 21.2836 40.9443 21.2569 40.9309C21.2346 40.9176 21.2034 40.9354 21.1989 40.9666C21.1855 41.0022 21.0786 41.0201 20.8289 41.0156C20.6372 41.0156 20.3698 41.0022 20.245 40.9933C20.1157 40.9844 20.0087 40.9621 20.0087 40.9443C20.0087 40.922 19.9953 40.9176 19.9775 40.9265C19.9552 40.9398 19.8661 40.9265 19.7725 40.8953C19.6833 40.8641 19.6075 40.8284 19.6075 40.8106C19.6075 40.7883 19.5897 40.7838 19.5629 40.7972C19.5407 40.8106 19.5184 40.7972 19.5184 40.7749C19.5184 40.7526 19.5005 40.7393 19.4738 40.7526C19.4515 40.766 19.4292 40.7526 19.4292 40.7304C19.4292 40.7081 19.4158 40.6902 19.398 40.6902C19.3757 40.6947 19.3356 40.6947 19.3089 40.6902C19.2777 40.6902 19.1038 40.5432 18.93 40.3738C18.7516 40.1999 18.6179 40.0618 18.6402 40.0618C18.658 40.0618 18.6224 40.0127 18.56 39.9503C18.4976 39.8879 18.4574 39.8077 18.4708 39.7721C18.4842 39.7364 18.4753 39.7141 18.4485 39.7275C18.4262 39.7409 18.3817 39.6428 18.3549 39.518C18.3282 39.3887 18.297 39.2104 18.2791 39.1258C18.2613 39.0411 18.2479 38.7023 18.2479 38.3814C18.2479 38.056 18.2346 37.7886 18.2167 37.7886C18.1944 37.7886 18.1811 34.936 18.1766 25.1078L13.4871 29.779C10.9061 32.3508 7.85704 35.3862 6.70695 36.5227C5.55241 37.6593 4.59846 38.5909 4.57617 38.5909C4.55834 38.5909 4.52268 38.6399 4.49594 38.7023C4.47365 38.7647 4.29534 38.9519 4.10812 39.1168C3.91643 39.2862 3.60885 39.5715 3.42609 39.7498C3.24332 39.9325 2.98032 40.1866 2.84659 40.3158C2.71286 40.4451 2.57467 40.5521 2.54792 40.5521C2.51672 40.5521 2.47214 40.5922 2.4454 40.6412C2.42311 40.6902 2.32504 40.7749 2.23588 40.8284C2.09324 40.9176 1.99517 40.9309 1.59843 40.9398C1.33989 40.9398 1.11254 40.9309 1.0858 40.9176C1.06351 40.8997 1.0011 40.8819 0.952068 40.873C0.903033 40.8641 0.804964 40.824 0.729183 40.7749C0.65786 40.7304 0.50184 40.5922 0.38594 40.4674C0.265583 40.3426 0.167513 40.2133 0.167513 40.1821C0.163056 40.1554 0.163056 40.1153 0.167513 40.093C0.167513 40.0751 0.131852 39.9771 0.0783594 39.8701C0.0025786 39.7141 -0.0107945 39.6161 0.00703629 39.2818C0.0204094 38.9341 0.0337825 38.8628 0.131852 38.7514C0.189802 38.6845 0.32799 38.5196 0.439433 38.3903C0.550875 38.2611 0.680148 38.1051 0.729183 38.0471C0.778217 37.9892 0.858456 37.9268 0.907491 37.9089C0.956525 37.8911 0.983272 37.8599 0.965441 37.8421C0.94761 37.8243 1.23736 37.5078 1.61181 37.1378C1.9818 36.7679 2.41419 36.34 2.56575 36.1795C2.71731 36.0235 2.89562 35.8408 2.96695 35.7739C3.03381 35.7071 3.55536 35.1856 4.11703 34.6151C4.68316 34.0445 5.3741 33.3269 5.65494 33.0238C5.93577 32.7163 6.23444 32.431 6.31467 32.3865C6.39046 32.3419 6.45732 32.2795 6.45732 32.2527C6.45732 32.2215 6.54202 32.1101 6.649 32.0031C6.75153 31.9006 6.86297 31.8159 6.89418 31.8159C6.92092 31.8159 7.00116 31.7446 7.07248 31.6599C7.13935 31.5752 7.95511 30.7373 8.88676 29.7968C9.81842 28.8563 11.2895 27.3587 12.1543 26.4717C13.0146 25.5892 13.7546 24.8627 13.7902 24.8627C13.8259 24.8627 13.8571 24.8359 13.8571 24.8047C13.8571 24.778 13.9864 24.6265 14.1468 24.4705C14.3073 24.3189 14.4544 24.1941 14.4812 24.1941C14.5079 24.1941 14.5257 24.1674 14.5257 24.1362C14.5257 24.1094 14.6506 23.9579 14.8066 23.8019C14.9581 23.6503 15.1097 23.5255 15.1409 23.5255C15.1677 23.5255 15.1944 23.4988 15.1944 23.4676C15.1899 23.4408 15.3237 23.2893 15.4842 23.1333C15.6446 22.9817 15.7962 22.8569 15.8185 22.8569C15.8452 22.8569 15.8631 22.8436 15.8631 22.8213C15.8586 22.8035 18.6179 20.0266 21.9924 16.648C25.3669 13.2739 28.1485 10.5105 28.1708 10.5105C28.193 10.5105 28.2554 10.4481 28.3134 10.3723C28.3669 10.2965 28.4917 10.1494 28.5898 10.038C28.6878 9.92657 28.7948 9.83743 28.826 9.84188C28.8528 9.84188 28.9152 9.7884 28.9553 9.71708C28.9954 9.65022 29.1292 9.48976 29.254 9.3605C29.3788 9.23125 29.5081 9.12873 29.5393 9.12873C29.566 9.12873 29.6106 9.08416 29.6329 9.02621C29.6552 8.97273 30.1054 8.50472 30.6314 7.99214C31.1574 7.4751 32.4992 6.15577 33.6091 5.0593C34.7236 3.96282 35.6463 3.06247 35.6686 3.06692C35.6864 3.06692 35.7265 3.01344 35.7622 2.94212C35.7979 2.87526 35.9405 2.7148 36.0832 2.58109C36.2303 2.44737 36.5958 2.09525 36.9034 1.80107C37.211 1.50244 37.5676 1.17261 37.6968 1.06118C37.8306 0.949747 37.9599 0.811574 37.9866 0.749173C38.0178 0.691229 38.2006 0.51294 38.3967 0.356938C38.5928 0.200936 38.7622 0.0538477 38.7712 0.0271045C38.7801 0.000361198 39.0297 -0.00855322 39.4175 0.00927562ZM0.0248671 1.3509C0.0337825 1.44895 0.0337825 1.6005 0.0248671 1.68519C0.0159517 1.76987 0.00703629 1.68964 0.00703629 1.5069C0.00703629 1.32415 0.0159517 1.25284 0.0248671 1.3509ZM40.9911 39.1926C41 39.2907 41 39.4422 40.9911 39.5269C40.9822 39.6116 40.9733 39.5314 40.9733 39.3486C40.9733 39.1659 40.9822 39.0946 40.9911 39.1926ZM19.8884 0.579799C20.0043 0.575341 20.0979 0.588713 20.0979 0.615456C20.0979 0.637742 20.1692 0.660028 20.2539 0.660028C20.3475 0.660028 20.4099 0.637742 20.4099 0.602085C20.4099 0.56197 20.5035 0.557513 20.82 0.584256C21.0474 0.606542 21.2702 0.6422 21.3148 0.664486C21.3639 0.691229 21.3906 0.686772 21.3906 0.660028C21.3906 0.633285 21.4619 0.615456 21.5466 0.615456C21.6313 0.615456 21.7071 0.633285 21.716 0.655571C21.7205 0.6734 21.8185 0.704601 21.9389 0.722429C22.0949 0.740258 22.1395 0.735801 22.1172 0.695686C22.0905 0.655571 22.1127 0.651114 22.193 0.6734C22.2554 0.691229 22.3713 0.704601 22.4515 0.704601C22.5318 0.704601 22.5853 0.722429 22.5719 0.749173C22.5585 0.771459 22.5763 0.780373 22.6075 0.767002C22.6343 0.75363 22.7056 0.762544 22.7636 0.789288C22.8171 0.816031 23.0533 0.847231 23.2851 0.860603C23.5169 0.873975 23.7443 0.900718 23.7888 0.927461C23.829 0.949747 23.8735 0.958662 23.8869 0.949747C23.9003 0.936375 24.0385 0.958662 24.1989 0.994319C24.3594 1.02998 24.5689 1.07455 24.667 1.08792C24.7651 1.10129 24.8542 1.12804 24.8676 1.14141C24.881 1.15924 24.9612 1.17707 25.0459 1.18152C25.1306 1.18598 25.2108 1.20827 25.2242 1.22609C25.2376 1.24392 25.2866 1.26621 25.3357 1.27067C25.3847 1.27512 25.4917 1.29295 25.5719 1.30632C25.6477 1.3197 25.7146 1.34198 25.7146 1.35981C25.7146 1.3821 25.777 1.39993 25.8483 1.40438C25.9241 1.4133 26.0132 1.44895 26.0489 1.48461C26.0846 1.52027 26.138 1.54256 26.1603 1.52918C26.1826 1.51581 26.3119 1.5381 26.4412 1.57821C26.566 1.61833 26.6953 1.6629 26.7175 1.68073C26.7398 1.6941 26.7844 1.70747 26.8067 1.71193C26.829 1.71639 26.9761 1.76542 27.1321 1.82336C27.2837 1.8813 27.4085 1.93925 27.4085 1.95262C27.4085 1.96599 27.4887 1.98828 27.5868 2.00611C27.6849 2.02839 27.7562 2.05959 27.7428 2.08634C27.7294 2.10862 27.7473 2.11754 27.7785 2.10416C27.8052 2.09079 27.8676 2.11308 27.9122 2.14874C27.9523 2.18885 27.988 2.21114 27.988 2.19777C27.988 2.18439 28.0326 2.20668 28.0905 2.24234C28.144 2.278 28.2064 2.29583 28.2242 2.278C28.2421 2.25571 28.2554 2.26908 28.2554 2.29582C28.2554 2.32703 28.2777 2.34485 28.3 2.33148C28.3223 2.31811 28.3446 2.32703 28.3446 2.35377C28.3446 2.37605 28.3981 2.42063 28.4694 2.44737C28.5363 2.47411 28.6388 2.50531 28.7012 2.51869C28.7636 2.5276 28.8662 2.56771 28.9375 2.60337C29.0043 2.63903 29.0578 2.67915 29.0578 2.69697C29.0534 2.71926 29.1113 2.75937 29.1782 2.79058C29.2451 2.82178 29.3431 2.85298 29.3922 2.86189C29.4412 2.87081 29.5437 2.91538 29.615 2.95995C29.6908 3.00452 29.7577 3.05355 29.7711 3.06692C29.7844 3.08029 29.8201 3.09367 29.8513 3.09812C29.878 3.10704 30.0252 3.17835 30.1723 3.25413C30.3194 3.33436 30.4308 3.41458 30.4174 3.42796C30.4041 3.44133 30.4219 3.4547 30.4486 3.4547C30.4798 3.4547 30.5601 3.4859 30.6314 3.52602C30.6983 3.56613 30.7518 3.61962 30.7518 3.64636C30.7518 3.66865 30.8186 3.72659 30.8989 3.7667C30.9746 3.80682 31.0727 3.84693 31.1084 3.85585C31.144 3.86031 31.202 3.90042 31.2332 3.94499C31.2644 3.98957 31.2867 4.03414 31.2867 4.04751C31.2867 4.06088 30.783 4.57792 29.0355 6.32069L28.8929 6.27611C28.8127 6.25383 28.7458 6.20926 28.7458 6.18697C28.7458 6.16023 28.6878 6.1112 28.6121 6.07554C28.5407 6.03988 28.465 6.01314 28.4471 6.0176C28.4248 6.02205 28.3401 5.99085 28.2554 5.94628C28.1708 5.89725 28.0771 5.83039 28.0459 5.79028C28.0192 5.75016 27.9835 5.73233 27.9702 5.75016C27.9568 5.77245 27.7072 5.66548 27.4219 5.52285C27.1321 5.38022 26.7175 5.1841 26.4947 5.09495C26.2718 5.00135 26.0846 4.91221 26.0712 4.88992C26.0578 4.86764 25.826 4.77403 25.5585 4.67598C25.2911 4.58237 24.988 4.49323 24.8899 4.47986C24.7918 4.46649 24.4218 4.3818 24.0652 4.29266C23.7086 4.20797 23.352 4.13665 23.2762 4.13665C23.196 4.13665 23.138 4.12328 23.1469 4.101C23.1558 4.08317 23.0934 4.07871 22.9998 4.08762C22.8839 4.101 22.8483 4.09208 22.875 4.05642C22.8958 4.02077 22.8839 4.01037 22.8393 4.02522C22.8037 4.03859 22.7457 4.02522 22.719 4.00294C22.6833 3.97174 22.563 3.96282 22.4159 3.98065C22.2821 3.99402 22.1529 3.98957 22.1261 3.96728C22.1038 3.94499 22.028 3.91825 21.9612 3.90934C21.8943 3.90042 21.8364 3.90488 21.8364 3.92271C21.8364 3.94499 21.8052 3.95836 21.7695 3.95836C21.7338 3.95836 21.7026 3.93608 21.7026 3.91379C21.7026 3.88705 21.511 3.87368 21.2034 3.87813C20.927 3.88259 20.5704 3.88705 20.4099 3.88705C20.2494 3.88705 19.8928 3.89151 19.6209 3.89151C19.3445 3.89151 19.1172 3.90488 19.1172 3.92271C19.1172 3.94499 19.0146 3.94499 18.8943 3.92271C18.7249 3.90042 18.6714 3.90488 18.6714 3.94499C18.6714 3.98957 18.6045 3.99848 18.4262 3.98065C18.2658 3.96728 18.132 3.98065 18.0384 4.02077C17.9582 4.05642 17.8111 4.09654 17.713 4.10991C17.6149 4.12774 17.4545 4.15002 17.3564 4.1634C17.2583 4.17677 16.9775 4.23917 16.7323 4.29711C16.4871 4.35506 16.1974 4.41746 16.0859 4.43083C15.9745 4.44866 15.8452 4.48432 15.7962 4.51552C15.7472 4.54672 15.6491 4.58683 15.5733 4.6002C15.502 4.61803 15.3816 4.64032 15.3058 4.65369C15.2345 4.66706 15.0206 4.74729 14.8378 4.84089C14.655 4.93004 14.4767 5.00135 14.45 5.00581C14.4188 5.00581 14.392 5.01472 14.392 5.0281C14.392 5.04147 14.3162 5.07712 14.2271 5.11278C14.1335 5.14844 14.0087 5.1841 13.9462 5.19301C13.8838 5.20193 13.817 5.23758 13.7902 5.27324C13.7679 5.3089 13.6164 5.39804 13.4559 5.46936C13.2954 5.54513 13.0413 5.67439 12.8898 5.76354C12.7338 5.84822 12.6089 5.91062 12.6089 5.89725C12.6089 5.88388 12.5644 5.91508 12.5109 5.96411C12.4529 6.01314 12.3549 6.06217 12.288 6.07554C12.2167 6.08891 12.1186 6.1424 12.0651 6.20034C12.0072 6.25829 11.8957 6.34743 11.8199 6.40092C11.7397 6.4544 11.6728 6.4856 11.6728 6.46332C11.6728 6.44549 11.6461 6.47223 11.606 6.52126C11.5703 6.57029 11.5391 6.59703 11.5391 6.57475C11.5391 6.55692 11.4856 6.59258 11.4187 6.65498C11.3474 6.71738 11.2805 6.75749 11.2627 6.74412C11.2404 6.73075 11.2271 6.73521 11.2271 6.75304C11.2315 6.77532 11.08 6.90458 10.8927 7.04275C10.71 7.18539 10.5539 7.30127 10.5495 7.30127C10.5406 7.30127 10.4158 7.4127 10.2687 7.54642C10.1215 7.68014 9.98782 7.79157 9.96999 7.79157C9.9477 7.79157 9.87637 7.8406 9.80059 7.903C9.72927 7.9654 9.67578 8.01888 9.68915 8.02334C9.70252 8.03226 9.64012 8.10357 9.5465 8.18826C9.45289 8.26849 9.27013 8.42895 9.14085 8.54484C9.01158 8.65627 8.90905 8.7677 8.90905 8.79444C8.90905 8.81672 8.86448 8.88358 8.80653 8.94153C8.75303 8.99501 8.69063 9.03959 8.66388 9.03959C8.64159 9.03959 8.57027 9.11536 8.50786 9.20896C8.44991 9.2981 8.29835 9.49422 8.17799 9.64131C8.05318 9.7884 7.91499 9.9444 7.86595 9.98451C7.81246 10.0246 7.77234 10.0781 7.77234 10.0959C7.77234 10.1182 7.67427 10.2698 7.54946 10.4347C7.4291 10.5996 7.3132 10.7333 7.29537 10.7333C7.27308 10.7333 7.26862 10.7512 7.28199 10.7779C7.29537 10.8002 7.26862 10.8403 7.2285 10.867C7.18393 10.8893 7.16164 10.9116 7.18393 10.9116C7.20176 10.9116 7.15272 11.0052 7.07248 11.1211C6.9967 11.2414 6.87634 11.393 6.80502 11.4688C6.7337 11.5401 6.67575 11.6381 6.68021 11.6783C6.68021 11.7228 6.6178 11.8655 6.54202 11.9903C6.46624 12.1195 6.386 12.2309 6.36371 12.2354C6.34142 12.2443 6.32359 12.2844 6.32359 12.3246C6.32359 12.3691 6.30576 12.4226 6.28347 12.4494C6.26118 12.4716 6.13637 12.7257 6.00709 13.0065C5.87782 13.2873 5.75301 13.5325 5.72626 13.5503C5.69951 13.5681 5.6906 13.5859 5.71289 13.5859C5.73072 13.5859 5.70397 13.6929 5.65048 13.8177C5.60144 13.947 5.54349 14.0629 5.52121 14.0762C5.49892 14.0896 5.44542 14.21 5.39639 14.3437C5.34735 14.4774 5.30724 14.62 5.30724 14.6557C5.30724 14.6913 5.23591 14.9721 5.14676 15.2797C5.0576 15.5872 4.92387 16.0151 4.85255 16.238C4.76785 16.5143 4.73665 16.6882 4.75448 16.7951C4.76785 16.8887 4.7634 16.9378 4.73665 16.9199C4.71436 16.9066 4.69207 16.9556 4.68762 17.0314C4.68762 17.1116 4.67424 17.2453 4.66087 17.33C4.6475 17.4147 4.63412 17.486 4.62967 17.486C4.62521 17.486 4.61184 17.5974 4.60292 17.7311C4.58955 17.8649 4.58063 18.0922 4.58509 18.2304C4.58509 18.373 4.57172 18.5156 4.55834 18.5424C4.54051 18.5736 4.52714 19.1753 4.52268 19.884C4.51822 20.5882 4.5316 21.1632 4.55388 21.1632C4.57172 21.1632 4.58509 21.3103 4.58955 21.4841C4.594 21.6624 4.594 21.9076 4.58955 22.0324C4.58955 22.1527 4.62075 22.3354 4.65641 22.4335C4.69653 22.5316 4.71436 22.6519 4.70099 22.7009C4.68762 22.75 4.70545 22.8881 4.74111 23.0129C4.77677 23.1333 4.84809 23.3561 4.89713 23.5032C4.95062 23.6503 4.98182 23.7974 4.96845 23.8242C4.95062 23.8554 4.96399 23.8821 4.98628 23.8821C5.01303 23.8821 5.04423 23.9757 5.0576 24.0916C5.07098 24.2119 5.10218 24.3858 5.12893 24.4838C5.15122 24.5819 5.20025 24.6933 5.23591 24.729C5.27157 24.7646 5.30278 24.8449 5.30278 24.9073C5.30724 24.9697 5.3429 25.1123 5.38302 25.2326C5.42314 25.3485 5.47217 25.4421 5.49446 25.4421C5.51675 25.4421 5.5212 25.451 5.50783 25.4644C5.49 25.4778 5.50783 25.5224 5.54795 25.5625C5.58361 25.607 5.6059 25.6694 5.59253 25.6962C5.57915 25.7274 5.58807 25.7541 5.61036 25.7541C5.63711 25.7541 5.67722 25.8121 5.69951 25.8878C5.72626 25.9592 5.73072 26.0216 5.71289 26.0216C5.6906 26.0216 5.69951 26.0394 5.72626 26.0572C5.75301 26.075 5.8377 26.2266 5.91348 26.4004C5.99372 26.5698 6.05613 26.7481 6.05613 26.7882C6.05613 26.8328 6.0695 26.8773 6.09179 26.8863C6.10962 26.8952 6.22998 27.0913 6.36371 27.3186C6.49298 27.5504 6.60888 27.7688 6.61334 27.8044C6.6178 27.8401 6.64454 27.9159 6.67575 27.9694C6.70249 28.0273 6.74707 28.0719 6.76936 28.0719C6.79611 28.0719 6.82285 28.1075 6.83623 28.1476C6.8496 28.1922 6.85406 28.2457 6.85406 28.2725C6.85406 28.2947 6.87634 28.3304 6.91201 28.3438C6.95213 28.3661 6.83177 28.5176 6.52864 28.8341C6.28347 29.0881 5.77084 29.6096 5.39193 29.9929C4.77677 30.6125 4.68316 30.6838 4.59846 30.6526C4.5316 30.6259 4.46473 30.5367 4.42015 30.4075C4.37558 30.2916 4.30871 30.1757 4.27305 30.1489C4.23293 30.1222 4.16161 30.0375 4.10812 29.9662C4.05462 29.8904 4.00113 29.7834 3.99222 29.721C3.97884 29.6586 3.93427 29.5695 3.88523 29.5205C3.8362 29.4714 3.77379 29.3868 3.74704 29.3288C3.71584 29.2753 3.70692 29.2308 3.72921 29.2308C3.74704 29.2308 3.73813 29.2129 3.71138 29.1951C3.68909 29.1773 3.62223 29.0881 3.56873 28.9945C3.51524 28.9054 3.47958 28.8073 3.49295 28.785C3.50633 28.7583 3.46621 28.687 3.40826 28.6157C3.35031 28.5488 3.19429 28.2635 3.06056 27.9827C2.92683 27.7019 2.82876 27.439 2.83767 27.4033C2.85105 27.3676 2.84213 27.3543 2.81984 27.3721C2.79755 27.3899 2.75298 27.3409 2.72177 27.2607C2.69057 27.1804 2.66828 27.0779 2.66828 27.0333C2.66828 26.9932 2.65491 26.9576 2.63708 26.9576C2.61479 26.9576 2.54346 26.8149 2.47214 26.6367C2.40082 26.4584 2.33841 26.289 2.33841 26.2578C2.33395 26.231 2.31612 26.1909 2.29829 26.1686C2.28046 26.1508 2.26709 26.0929 2.26709 26.0438C2.26709 25.9948 2.2136 25.8032 2.15119 25.6204C2.08878 25.4377 2.01746 25.2059 1.99071 25.1078C1.96396 25.0098 1.91493 24.8761 1.88373 24.8047C1.84806 24.7379 1.83023 24.6621 1.84361 24.6398C1.85698 24.6131 1.85252 24.5953 1.83469 24.5953C1.8124 24.5953 1.76337 24.4303 1.71879 24.2298C1.67421 24.0247 1.64747 23.8509 1.66084 23.8375C1.67421 23.8242 1.65638 23.7662 1.62072 23.7038C1.58952 23.6414 1.56723 23.5478 1.5806 23.4899C1.58952 23.4364 1.5806 23.3918 1.55386 23.3918C1.53157 23.3918 1.50928 23.3472 1.50482 23.2893C1.50482 23.2358 1.50036 23.1155 1.49591 23.0263C1.49145 22.9327 1.47808 22.8569 1.4647 22.8569C1.45133 22.8569 1.43796 22.6831 1.4335 22.4647C1.42904 22.2508 1.40675 22.068 1.38446 22.0546C1.36218 22.0413 1.33097 21.9432 1.3176 21.8318C1.30423 21.707 1.31314 21.6089 1.34434 21.5777C1.38446 21.5331 1.38446 21.4975 1.34434 21.4217C1.3176 21.3638 1.28194 21.1231 1.26856 20.8824C1.25073 20.606 1.25965 20.45 1.28639 20.45C1.31314 20.45 1.33097 20.3698 1.33097 20.2718C1.33097 20.1737 1.31314 20.0846 1.28639 20.0712C1.26411 20.0578 1.24182 19.9196 1.24182 19.7592C1.24182 19.5943 1.25965 19.4695 1.28639 19.4695C1.31314 19.4695 1.33097 19.3803 1.33097 19.2689C1.33097 19.1575 1.31314 19.0683 1.28639 19.0683C1.25965 19.0683 1.25073 18.9435 1.26411 18.7429C1.27302 18.5691 1.29531 18.1992 1.31314 17.9317C1.32651 17.6598 1.35772 17.4325 1.37555 17.4191C1.39338 17.4058 1.4335 17.2498 1.46024 17.0715C1.48699 16.8976 1.49591 16.706 1.48253 16.648C1.4647 16.5946 1.46916 16.5188 1.49145 16.4831C1.50928 16.4475 1.53157 16.3762 1.53603 16.3271C1.54048 16.2781 1.55386 16.189 1.56277 16.1266C1.57169 16.0641 1.59843 15.9839 1.62072 15.9483C1.63855 15.9126 1.66084 15.8324 1.66976 15.77C1.67421 15.7076 1.68759 15.6273 1.70096 15.5917C1.70988 15.556 1.73662 15.4892 1.75891 15.4446C1.7812 15.4045 1.78566 15.351 1.76783 15.3332C1.75445 15.3153 1.77674 15.1593 1.82578 14.99C1.87035 14.8161 1.9283 14.6557 1.95505 14.6334C1.9818 14.6066 1.99963 14.5398 1.99963 14.4774C1.99963 14.415 2.02191 14.2946 2.05312 14.21C2.07986 14.1253 2.13336 14.0272 2.16456 13.996C2.19576 13.9693 2.22251 13.9113 2.22251 13.8757C2.22251 13.84 2.23143 13.7865 2.2448 13.7642C2.25817 13.7375 2.26709 13.7152 2.27155 13.7063C2.27155 13.7018 2.28492 13.635 2.29829 13.5637C2.31166 13.4879 2.34287 13.3809 2.36516 13.3185C2.3919 13.2561 2.42311 13.167 2.43202 13.1179C2.44094 13.0689 2.49443 12.9263 2.55238 12.8059C2.60587 12.6811 2.68165 12.4984 2.71731 12.3959C2.75298 12.2889 2.79755 12.222 2.8243 12.2399C2.85105 12.2577 2.8555 12.2488 2.83321 12.2131C2.81538 12.1819 2.91345 11.9234 3.06947 11.6025C3.21658 11.2949 3.35031 11.0453 3.3726 11.0453C3.39043 11.0453 3.44392 10.9696 3.49295 10.8804C3.53753 10.7868 3.58211 10.6798 3.58211 10.6442C3.58657 10.6085 3.62668 10.5105 3.67572 10.4302C3.7203 10.35 3.77379 10.2876 3.79608 10.2876C3.81391 10.2876 3.81837 10.2653 3.80499 10.243C3.79162 10.2163 3.82282 10.1583 3.87186 10.1093C3.92089 10.0603 3.96101 10.0113 3.96101 9.99789C3.96101 9.98451 3.99667 9.90428 4.04125 9.8196C4.08137 9.73491 4.13932 9.68142 4.16161 9.69925C4.18835 9.71708 4.19281 9.70817 4.17498 9.67251C4.15269 9.64131 4.17498 9.58337 4.22847 9.52988C4.27751 9.48085 4.31317 9.43182 4.30871 9.4229C4.2998 9.41845 4.40232 9.24907 4.5316 9.05741C4.66087 8.86575 4.77677 8.71421 4.79014 8.72758C4.79906 8.74095 4.8793 8.64735 4.96399 8.52701C5.05315 8.4022 5.12001 8.2774 5.12001 8.2462C5.12001 8.21946 5.16905 8.16152 5.23145 8.12586C5.29386 8.0902 5.33398 8.03671 5.32061 8.01443C5.30724 7.98768 5.37856 7.89408 5.47663 7.80048C5.57024 7.71134 5.65048 7.60882 5.65494 7.57762C5.65494 7.55088 5.70397 7.49293 5.76638 7.45728C5.82879 7.42162 5.87782 7.36367 5.87782 7.33247C5.87336 7.30573 5.96697 7.20321 6.07842 7.10961C6.18986 7.02047 6.27901 6.92241 6.27901 6.90012C6.27901 6.87338 6.55539 6.5792 6.88972 6.24046C7.22404 5.90617 7.57174 5.58525 7.65644 5.53176C7.74559 5.47827 7.79909 5.4337 7.77234 5.4337C7.75005 5.4337 7.76788 5.38913 7.81692 5.3401C7.86595 5.29107 7.93282 5.2465 7.96402 5.25096C7.99077 5.25096 8.04872 5.20193 8.08438 5.13953C8.12004 5.07712 8.18245 5.0281 8.21811 5.0281C8.25823 5.0281 8.37859 4.93895 8.48557 4.82752C8.59701 4.71609 8.68617 4.63586 8.68617 4.64923C8.68617 4.6626 8.74858 4.60912 8.8199 4.5378C8.89568 4.46203 8.98038 4.40409 9.01158 4.40409C9.03833 4.40409 9.13194 4.35951 9.20772 4.30157C9.28796 4.24808 9.35482 4.18123 9.35482 4.15894C9.35482 4.1322 9.53759 3.99402 9.76493 3.84693C9.98782 3.69985 10.1884 3.58396 10.2107 3.58842C10.2285 3.59733 10.2464 3.5795 10.2464 3.55722C10.2464 3.53047 10.4202 3.41013 10.6386 3.28533C10.8526 3.15607 11.0532 3.05355 11.0844 3.04909C11.1112 3.04909 11.1379 3.03572 11.1379 3.02235C11.1379 3.00898 11.1959 2.96441 11.2716 2.91983C11.343 2.87972 11.4187 2.85298 11.441 2.86635C11.4589 2.87526 11.548 2.84406 11.6416 2.79949C11.7308 2.75046 11.8066 2.68806 11.8066 2.66577C11.8066 2.63903 11.86 2.59892 11.9314 2.57217C11.9982 2.54543 12.074 2.51869 12.0963 2.51423C12.1231 2.50977 12.1855 2.49194 12.2434 2.47411C12.2969 2.45628 12.3415 2.42063 12.3415 2.39834C12.3415 2.3716 12.4128 2.33148 12.4975 2.3092C12.5822 2.28245 12.6669 2.26017 12.6892 2.25571C12.707 2.25125 12.7516 2.22005 12.7872 2.18439C12.8229 2.15319 12.8809 2.13537 12.9121 2.14874C12.9388 2.16211 12.9656 2.16211 12.9656 2.13982C12.9611 2.12199 13.028 2.08188 13.1082 2.05068C13.1884 2.01502 13.291 1.97045 13.3355 1.94816C13.3757 1.92588 13.4336 1.91696 13.4559 1.93033C13.4826 1.94371 13.5049 1.93479 13.5139 1.9125C13.5183 1.89022 13.6966 1.80999 13.915 1.73422C14.129 1.65844 14.3474 1.59604 14.4054 1.59604C14.4589 1.59604 14.5792 1.55593 14.6729 1.5069C14.762 1.45787 14.8601 1.42667 14.8824 1.44004C14.9091 1.45341 14.9269 1.44004 14.9269 1.41775C14.9269 1.39101 15.0027 1.35981 15.0963 1.34198C15.1855 1.32861 15.3237 1.2885 15.395 1.25729C15.4708 1.23055 15.7293 1.15924 15.9745 1.10575C16.2197 1.05226 16.4693 1.00323 16.5317 0.994319C16.5941 0.980948 16.7323 0.954204 16.8438 0.927461C16.9552 0.900718 17.0533 0.891803 17.0666 0.905175C17.08 0.918547 17.1157 0.905175 17.1469 0.882889C17.1736 0.856146 17.2628 0.847231 17.3341 0.860603C17.4099 0.873975 17.4678 0.869517 17.4678 0.847231C17.4678 0.829403 17.6016 0.811574 17.771 0.807116C17.9671 0.802659 18.0785 0.780373 18.1008 0.740258C18.1231 0.700143 18.2479 0.682315 18.5377 0.682315C18.7561 0.682315 18.9389 0.668943 18.9389 0.646657C18.9389 0.628828 19.1038 0.610999 19.3089 0.602085C19.5095 0.59317 19.768 0.584256 19.8884 0.579799ZM19.0414 7.43499C19.0592 7.43499 19.0726 7.45282 19.0726 7.47956C19.0726 7.50185 19.1439 7.52413 19.2286 7.52413C19.3133 7.52413 19.3891 7.50185 19.3891 7.4751C19.395 7.44539 19.5704 7.43648 19.9151 7.44836C20.2004 7.46173 20.4991 7.47956 20.5793 7.49739C20.664 7.51076 20.7219 7.5063 20.7219 7.47956C20.7219 7.45282 20.8156 7.43499 20.9359 7.43499C21.0518 7.43499 21.2569 7.46619 21.3906 7.5063C21.5422 7.55088 21.7561 7.57316 21.9478 7.56425C22.1217 7.55533 22.3445 7.55533 22.4515 7.55979C22.5585 7.56425 22.6298 7.58653 22.6165 7.61328C22.6031 7.64002 22.6789 7.67122 22.7859 7.68459C22.8884 7.69796 23.0221 7.71579 23.0845 7.72471C23.1469 7.73362 23.2762 7.75145 23.3743 7.76928C23.4723 7.78711 23.5749 7.81385 23.5972 7.82722C23.6194 7.84505 23.6819 7.86288 23.7309 7.86734C23.7799 7.87625 24.0117 7.93865 24.2435 8.00997C24.4753 8.08128 24.6982 8.17489 24.7339 8.21054C24.7695 8.25066 24.8498 8.29523 24.9122 8.31306C24.9746 8.32643 25.037 8.3398 25.0593 8.33535C25.0771 8.33089 25.0905 8.34426 25.0905 8.371C25.0905 8.39329 25.1261 8.40666 25.1707 8.4022C25.2108 8.39329 25.3357 8.42449 25.4471 8.47352C25.5585 8.52255 25.6566 8.57604 25.67 8.58941C25.6834 8.60278 25.7146 8.62061 25.7369 8.62506C25.7591 8.62952 25.9018 8.68747 26.0489 8.74541C26.196 8.80781 26.3297 8.88804 26.352 8.92815C26.3743 8.97718 26.0756 9.2981 25.2019 10.1628C24.5333 10.8269 23.9894 11.335 23.9449 11.335C23.9003 11.3306 23.6952 11.2726 23.4857 11.2058C23.2762 11.1345 23.1024 11.0587 23.0979 11.0409C23.089 11.0186 23.0533 11.0097 23.0177 11.023C22.982 11.0364 22.8661 11.0052 22.7636 10.9606C22.6566 10.9116 22.4916 10.8537 22.3936 10.8269C22.2955 10.8002 22.1439 10.7824 22.0593 10.7824C21.9746 10.7868 21.8141 10.7734 21.7026 10.7601C21.5912 10.7422 21.404 10.7289 21.2792 10.7289C21.1588 10.7289 21.0384 10.711 21.0117 10.6843C20.9805 10.6531 20.7799 10.6531 20.3876 10.6843C20.0711 10.711 19.7234 10.7155 19.6164 10.6977C19.4782 10.6754 19.4292 10.6798 19.4292 10.72C19.4292 10.7556 19.3802 10.7734 19.3089 10.7734C19.2375 10.769 19.1439 10.7824 19.0949 10.8002C19.0459 10.818 18.9612 10.8225 18.9077 10.8046C18.8497 10.7913 18.8051 10.7957 18.8051 10.8225C18.8051 10.8448 18.7561 10.8581 18.6937 10.8448C18.6313 10.8314 18.4886 10.8448 18.3727 10.876C18.2524 10.9027 18.1187 10.9517 18.0696 10.9829C18.0206 11.0097 17.869 11.0676 17.7353 11.1033C17.6016 11.1434 17.4322 11.1835 17.3564 11.1969C17.2851 11.2147 17.129 11.2726 17.0131 11.335C16.8928 11.3975 16.7591 11.4465 16.71 11.4465C16.661 11.4465 16.5005 11.5044 16.3534 11.5802C16.2063 11.6515 16.0859 11.7317 16.0859 11.7585C16.0859 11.7808 15.9923 11.8521 15.8764 11.9145C15.7561 11.9769 15.6357 12.0259 15.609 12.0259C15.5778 12.0259 15.5064 12.0749 15.4529 12.1329C15.395 12.1908 15.2211 12.3335 15.0607 12.4494C14.9002 12.5652 14.7174 12.7123 14.6461 12.7792C14.5792 12.8416 14.5213 12.8862 14.5213 12.8728C14.5213 12.8594 14.4277 12.9352 14.3118 13.0422C14.1959 13.1491 13.9908 13.3453 13.8571 13.479C13.7234 13.6127 13.6164 13.7241 13.6253 13.733C13.6298 13.7375 13.5673 13.8088 13.4782 13.8846C13.3935 13.9648 13.3222 14.0495 13.3222 14.0762C13.3222 14.0985 13.2776 14.1565 13.2196 14.1966C13.1617 14.2412 13.1082 14.2946 13.1037 14.3214C13.0948 14.3437 13.0324 14.4462 12.9656 14.5442C12.8987 14.6423 12.814 14.7359 12.7739 14.7537C12.7293 14.776 12.6981 14.8206 12.6981 14.8562C12.6981 14.8919 12.6134 15.0613 12.5109 15.2351C12.4039 15.4045 12.2791 15.6095 12.2345 15.6897C12.1855 15.77 12.1409 15.8948 12.1364 15.9705C12.1275 16.0419 12.1097 16.1132 12.0874 16.1266C12.0696 16.1399 12.0473 16.18 12.0384 16.2157C12.0294 16.2514 11.9849 16.3628 11.9403 16.4608C11.8957 16.5589 11.8333 16.7372 11.7976 16.8531C11.7664 16.969 11.7308 17.0626 11.7174 17.0626C11.704 17.0626 11.6907 17.1294 11.6817 17.2097C11.6773 17.2854 11.6461 17.3835 11.6104 17.4191C11.5748 17.4548 11.5257 17.5662 11.5034 17.6643C11.4767 17.7623 11.4633 17.8693 11.4767 17.8961C11.4856 17.9273 11.4767 17.9808 11.4499 18.0075C11.4277 18.0387 11.4187 18.0788 11.441 18.0966C11.4589 18.1145 11.4544 18.168 11.4321 18.2081C11.4143 18.2526 11.3875 18.3462 11.3786 18.422C11.3697 18.4933 11.3519 18.636 11.3385 18.734C11.3296 18.8321 11.3207 19.2511 11.3162 19.67C11.3162 20.0846 11.3251 20.5258 11.3385 20.6506C11.3474 20.771 11.3786 20.9805 11.4054 21.1053C11.4277 21.2345 11.441 21.3593 11.4277 21.3861C11.4143 21.4083 11.4277 21.5554 11.4544 21.707C11.4811 21.863 11.5302 22.0279 11.5658 22.0769C11.597 22.126 11.6728 22.3577 11.7308 22.5895C11.7932 22.8213 11.8734 23.0887 11.9849 23.3472L10.8482 24.5284C10.1037 25.2995 9.68023 25.7096 9.62228 25.7096C9.55542 25.7096 9.49747 25.6338 9.39494 25.4065C9.31916 25.2415 9.2523 25.0811 9.24784 25.0499C9.24784 25.0231 9.23001 24.9964 9.21218 24.9964C9.18989 24.9964 9.18543 24.9741 9.1988 24.9518C9.21218 24.9251 9.1988 24.9073 9.1676 24.9073C9.14085 24.9073 9.13194 24.8983 9.14531 24.885C9.16314 24.8716 9.14531 24.8315 9.10965 24.7958C9.07399 24.7602 9.0517 24.7067 9.06507 24.6844C9.07845 24.6577 9.04278 24.5239 8.98929 24.3813C8.9358 24.2431 8.86893 24.105 8.84219 24.0827C8.81098 24.0559 8.76195 23.9579 8.73075 23.8598C8.69954 23.7618 8.66834 23.6414 8.65942 23.5924C8.65496 23.5434 8.6193 23.4275 8.57918 23.3339C8.53906 23.2447 8.52123 23.1689 8.54352 23.1689C8.56135 23.1734 8.55244 23.1467 8.52569 23.1155C8.49895 23.0843 8.45437 22.9684 8.42762 22.8569C8.40088 22.7455 8.36521 22.536 8.35184 22.3889C8.33847 22.2418 8.29389 22.0725 8.25377 22.0101C8.21811 21.9477 8.19136 21.8452 8.20028 21.7828C8.2092 21.7159 8.20474 21.6713 8.18691 21.6802C8.16462 21.6892 8.14679 21.6267 8.14233 21.5421C8.13341 21.4574 8.14233 21.3861 8.16462 21.3861C8.18245 21.3861 8.19582 21.3549 8.19582 21.3192C8.19582 21.2835 8.17799 21.2523 8.15125 21.2523C8.12896 21.2523 8.10221 21.2033 8.09775 21.1409C8.08884 21.083 8.09775 21.0295 8.12004 21.0295C8.13787 21.0295 8.15125 20.9894 8.15125 20.9403C8.15125 20.8913 8.1245 20.8423 8.09775 20.8378C8.05318 20.8245 8.0398 20.5748 8.0398 19.7815C8.0398 18.9881 8.05318 18.7385 8.09775 18.7251C8.1245 18.7162 8.15125 18.6805 8.15125 18.6449C8.15125 18.6092 8.13787 18.578 8.12004 18.578C8.09775 18.578 8.08884 18.5245 8.09775 18.4666C8.10221 18.4042 8.12896 18.3552 8.15125 18.3552C8.17799 18.3552 8.19582 18.324 8.19582 18.2883C8.19582 18.2526 8.17799 18.217 8.16016 18.2081C8.13787 18.2036 8.15125 18.0298 8.18691 17.8203C8.22257 17.6108 8.26715 17.4325 8.28498 17.4191C8.30281 17.4058 8.34293 17.3077 8.36967 17.1963C8.40088 17.0849 8.41425 16.9868 8.40088 16.9734C8.3875 16.96 8.40979 16.8308 8.44545 16.6837C8.48111 16.5366 8.57027 16.2202 8.64159 15.9795C8.71737 15.7432 8.79761 15.5471 8.8199 15.5471C8.84665 15.5471 8.85556 15.5159 8.84219 15.4803C8.82881 15.4446 8.83327 15.4134 8.85556 15.4134C8.87339 15.4179 8.91351 15.3599 8.94472 15.2931C8.97592 15.2262 9.00712 15.1237 9.01158 15.0657C9.01604 15.0122 9.02941 14.9677 9.04278 14.9677C9.05616 14.9677 9.06507 14.9409 9.06507 14.9097C9.06953 14.883 9.18989 14.6111 9.33253 14.3125C9.47964 14.0138 9.62228 13.7821 9.64457 13.7954C9.67132 13.8133 9.67578 13.8043 9.65349 13.7821C9.63566 13.7598 9.67578 13.6528 9.73818 13.5414C9.80505 13.4299 9.89866 13.3051 9.95215 13.2606C10.0012 13.216 10.0146 13.1937 9.9789 13.216C9.93432 13.2427 9.93878 13.2115 10.0012 13.109C10.0502 13.0288 10.1082 12.9798 10.1349 12.9976C10.1617 13.0154 10.1661 13.0065 10.1438 12.9708C10.126 12.9396 10.1884 12.8416 10.3132 12.7168C10.4247 12.6054 10.5272 12.4716 10.5406 12.4137C10.5584 12.3602 10.6074 12.2889 10.652 12.2577C10.701 12.2309 10.7278 12.1819 10.7144 12.1596C10.701 12.1329 10.7412 12.0839 10.8036 12.0482C10.866 12.0125 10.9061 11.9591 10.8927 11.9368C10.8794 11.91 10.8972 11.8744 10.9284 11.8476C10.9551 11.8253 10.9908 11.812 11.0042 11.8253C11.0175 11.8387 11.0577 11.7941 11.0933 11.7273C11.129 11.6604 11.4098 11.3573 11.7174 11.0542C12.025 10.7512 12.3281 10.4659 12.395 10.4258C12.4618 10.3857 12.5064 10.3411 12.493 10.3188C12.4841 10.301 12.5153 10.2742 12.5688 10.2519C12.6179 10.2341 12.6892 10.1762 12.7248 10.1182C12.7605 10.0647 12.8095 10.0291 12.8318 10.0425C12.8586 10.0558 12.8987 10.0246 12.921 9.9756C12.9477 9.92657 13.0101 9.88646 13.0636 9.88646C13.1216 9.88646 13.2375 9.81068 13.3445 9.6948C13.4425 9.59228 13.7144 9.39171 13.9462 9.25353C14.178 9.11536 14.3965 8.99501 14.4321 8.9861C14.4678 8.97718 14.5347 8.93707 14.5792 8.8925C14.6238 8.85238 14.6996 8.81672 14.7486 8.81672C14.7977 8.81672 14.8868 8.78998 14.9492 8.75878C15.0116 8.73204 15.0607 8.69192 15.0607 8.66964C15.0607 8.65181 15.1766 8.59386 15.3192 8.54038C15.4574 8.48689 15.6001 8.4334 15.6313 8.42895C15.658 8.42003 15.7115 8.41112 15.7472 8.4022C15.7828 8.39775 15.8274 8.37992 15.8452 8.35763C15.8631 8.3398 15.9076 8.32643 15.9478 8.32643C15.9879 8.32197 16.0414 8.29523 16.0637 8.25957C16.0904 8.22392 16.1573 8.18826 16.2197 8.1838C16.2821 8.17489 16.34 8.15706 16.3534 8.13477C16.3668 8.11694 16.6075 8.03226 16.8883 7.94757C17.1692 7.86288 17.4143 7.80494 17.4366 7.81831C17.4545 7.82722 17.4946 7.82277 17.5258 7.80494C17.5525 7.78711 17.6016 7.76482 17.6238 7.76037C17.6506 7.75591 17.7397 7.73808 17.8244 7.72025C17.9091 7.70688 17.9938 7.67122 18.0117 7.64448C18.025 7.61328 18.0696 7.60436 18.1097 7.62219C18.1499 7.64448 18.1811 7.64002 18.1811 7.62219C18.1811 7.59991 18.2925 7.56425 18.4351 7.53751C18.5823 7.51076 18.6982 7.5063 18.7071 7.52859C18.7115 7.55088 18.7828 7.53751 18.8631 7.50185C18.9389 7.46619 19.0191 7.43945 19.0414 7.43499ZM20.4991 14.0495C20.7576 14.0629 21.0206 14.0718 21.0919 14.0762C21.1588 14.0762 21.2123 14.0896 21.2123 14.1074C21.2123 14.1297 19.8349 15.5204 18.1499 17.2052C16.4648 18.8945 15.0607 20.2718 15.0295 20.2718C14.9983 20.2718 14.9626 20.2406 14.9492 20.2049C14.9359 20.1692 14.9269 20.0979 14.9269 20.0489C14.9269 19.9999 14.9492 19.9598 14.9715 19.9598C14.9983 19.9598 15.0072 19.8795 14.9893 19.7458C14.9715 19.6299 14.9581 19.3714 14.9537 19.1664C14.9537 18.9435 14.9671 18.783 14.9983 18.7652C15.025 18.7474 15.083 18.5914 15.1231 18.422C15.1677 18.2482 15.2122 18.0476 15.2167 17.9763C15.2256 17.9005 15.2925 17.6999 15.3683 17.5306C15.4396 17.3567 15.551 17.1294 15.609 17.018C15.6714 16.9066 15.7962 16.7416 15.8809 16.648C15.97 16.5589 16.0414 16.4519 16.0414 16.4163C16.0414 16.3806 16.0815 16.3227 16.1305 16.2915C16.1796 16.2647 16.2197 16.2246 16.2197 16.2023C16.2197 16.1845 16.4069 15.9795 16.6387 15.7477C16.866 15.5159 17.0756 15.3243 17.1068 15.3243C17.1335 15.3243 17.2182 15.2752 17.2895 15.2128C17.3653 15.1504 17.4143 15.0969 17.401 15.088C17.392 15.0836 17.4767 15.0167 17.5926 14.9409C17.7085 14.8607 17.8334 14.7894 17.869 14.7849C17.9047 14.776 17.9448 14.7582 17.9582 14.7404C17.9715 14.727 18.0518 14.6735 18.1365 14.6245C18.2212 14.571 18.3326 14.522 18.3817 14.513C18.4307 14.5086 18.4976 14.4729 18.5288 14.4417C18.56 14.415 18.6447 14.3882 18.716 14.3882C18.7873 14.3882 18.872 14.357 18.9121 14.3214C18.9478 14.2857 19.0369 14.2545 19.1127 14.2545C19.1885 14.2545 19.2509 14.2322 19.2509 14.21C19.2509 14.1832 19.2821 14.1743 19.3222 14.1832C19.3623 14.1877 19.4069 14.1787 19.4248 14.1565C19.4381 14.1386 19.5719 14.1119 19.719 14.0985C19.8661 14.0896 19.9953 14.0673 20.0087 14.0495C20.0221 14.0361 20.2405 14.0361 20.4991 14.0495Z" fill="#D21341"/>
</svg>
