<svg width="42" height="42" viewBox="0 0 42 42" fill="none" xmlns="http://www.w3.org/2000/svg">
<path fill-rule="evenodd" clip-rule="evenodd" d="M9.89606 1H12.0895L12.1103 3.21354H29.8766L29.9026 1H32.0908L32.1169 3.21354L34.748 3.23958C37.0143 3.26562 37.4207 3.28125 37.6916 3.35938C37.8636 3.40625 38.2387 3.5625 38.5252 3.70312C38.8118 3.84375 39.1973 4.08854 39.3849 4.23958C39.5724 4.39583 39.8434 4.67187 39.9893 4.85937C40.1403 5.04167 40.354 5.36979 40.4686 5.58333C40.5884 5.79688 40.7447 6.1875 40.9739 6.91146L41 29.2552L29.2514 41H17.1641C8.94783 41 4.96736 40.9792 4.73812 40.9427C4.55055 40.9167 4.22232 40.8333 4.00871 40.7604C3.7951 40.6875 3.44081 40.5312 3.2272 40.4115C2.95628 40.2604 2.67494 40.0312 2.31545 39.6719C1.95595 39.3125 1.72671 39.0312 1.57562 38.7604C1.45579 38.5469 1.29949 38.1927 1.22655 37.9792C1.15361 37.7656 1.07025 37.4271 1.03899 37.224C1.00252 36.9688 0.986886 32.401 1.01294 6.91146L1.15882 6.44271C1.24218 6.1875 1.39848 5.79688 1.51831 5.58333C1.63293 5.36979 1.84654 5.04167 1.99763 4.85937C2.14351 4.67187 2.44049 4.38021 2.6541 4.21354C2.86771 4.04167 3.2272 3.8125 3.45124 3.70312C3.67006 3.58854 4.02434 3.44792 4.22753 3.38542C4.59223 3.27604 4.72249 3.27083 9.87001 3.21354L9.89606 1ZM4.51408 5.65104C4.34736 5.72917 4.08686 5.91667 3.92535 6.06771C3.76384 6.21354 3.58149 6.43229 3.51376 6.54688C3.44602 6.66146 3.35745 6.88542 3.31056 7.04167C3.23762 7.28646 3.22199 7.66667 3.2272 9.71354V12.0938H38.7597C38.7597 7.44271 38.7493 7.28646 38.6555 6.98958C38.5982 6.81771 38.494 6.58854 38.4262 6.48438C38.3585 6.375 38.1866 6.17708 38.0459 6.04688C37.9104 5.91667 37.6916 5.76042 37.5718 5.69792C37.452 5.63542 37.1967 5.54688 37.0143 5.50521C36.733 5.44271 36.2693 5.42708 34.3937 5.44271L32.1169 5.45312L32.0908 7.66667H29.9026L29.8766 5.45312H12.1103L12.0843 7.66667H9.89606L9.87001 5.45312C6.31676 5.44271 5.17576 5.45833 5.05072 5.47917C4.92047 5.5 4.6808 5.57812 4.51408 5.65104ZM3.25325 37.125C3.56586 37.7656 3.72737 37.9896 3.8993 38.1458C4.04518 38.2865 4.32131 38.474 4.51408 38.5625L4.86837 38.7344L27.6623 38.7604C27.6623 33.0573 27.6831 31.6302 27.7144 31.4167C27.7457 31.2292 27.829 30.901 27.902 30.6875C27.9697 30.474 28.1312 30.1198 28.251 29.9062C28.4021 29.6354 28.6262 29.3542 28.9909 28.9948C29.3503 28.6354 29.6317 28.4062 29.9026 28.2552C30.1162 28.1354 30.4653 27.9792 30.6841 27.9062C30.8977 27.8333 31.226 27.75 31.4135 27.724C31.6219 27.6875 33.0495 27.6667 35.2533 27.6667H38.7597V14.3333H3.22199L3.25325 37.125ZM31.0749 30.151C30.9603 30.2083 30.7414 30.375 30.5903 30.5104C30.3976 30.6875 30.2517 30.8854 30.1214 31.151L29.9287 31.5417C29.9078 34.8958 29.9078 36.1562 29.9182 36.5104L29.9287 37.1458L37.1706 29.9062C32.3826 29.9115 31.6532 29.9271 31.4917 29.9792C31.3771 30.0156 31.1895 30.0938 31.0749 30.151Z" fill="#D21341" stroke="#F10926" stroke-width="0.0520833"/>
</svg>
