<svg width="34" height="42" viewBox="0 0 34 42" fill="none" xmlns="http://www.w3.org/2000/svg">
<path fill-rule="evenodd" clip-rule="evenodd" d="M16.749 1.27667C16.483 1.42565 15.6849 1.84066 14.9666 2.19714C14.2483 2.55894 13.5301 2.9101 13.3704 2.98459C13.2108 3.05908 12.732 3.2719 12.3063 3.45813C11.8807 3.64967 11.2103 3.9423 10.8165 4.11256C10.4228 4.28282 9.99184 4.46372 9.85883 4.51693C9.73534 4.56138 9.44676 4.67921 9.19745 4.78101C9.17822 4.78886 9.15922 4.79662 9.14054 4.80424C8.87984 4.91065 8.47015 5.07027 8.23604 5.16072C8.00193 5.25117 7.65609 5.38419 7.46455 5.45336C7.27301 5.52785 6.96441 5.63958 6.77287 5.70875C6.64518 5.75486 6.42765 5.83407 6.21011 5.91328C6.10132 5.95289 5.99253 5.99251 5.89497 6.02798C5.60233 6.1344 4.75104 6.42703 4.00615 6.6771C3.26126 6.92717 2.27695 7.24109 1.8247 7.37942L1 7.62949C1 21.4046 1.00532 21.9898 1.09577 22.6283C1.14898 23.0061 1.23943 23.586 1.29795 23.9053C1.35648 24.2245 1.47886 24.8044 1.56931 25.1822C1.65444 25.56 1.80873 26.1612 1.90983 26.5124C2.01092 26.8635 2.18118 27.3903 2.28227 27.6829C2.38868 27.9755 2.59619 28.5023 2.73984 28.8534C2.88882 29.2046 3.16549 29.8058 3.35703 30.1836C3.54858 30.5614 3.86249 31.1253 4.05403 31.4339C4.24558 31.7425 4.55417 32.2054 4.74039 32.4715C4.93194 32.7375 5.26182 33.1631 5.46932 33.4292C5.68214 33.6952 6.1876 34.2326 6.59729 34.6263C7.00166 35.0254 7.5816 35.5415 7.8902 35.7756C8.1988 36.015 8.67765 36.3608 8.95432 36.5524C9.231 36.7439 9.82158 37.111 10.2579 37.3717C10.6995 37.6271 12.0988 38.3614 13.3704 39.0052C14.6421 39.649 16.0095 40.3513 16.4032 40.5748C16.8608 40.8302 17.2013 40.9844 17.3343 40.9951C17.5099 41.0164 17.6323 40.9738 18.0526 40.761C18.3293 40.6173 18.8241 40.3513 19.1433 40.1757C19.4625 39.9948 20.1329 39.6543 20.6331 39.4149C21.1332 39.1754 21.8994 38.803 22.3357 38.5902C22.7773 38.3827 23.5169 37.9996 23.9851 37.7442C24.4533 37.4835 25.2088 37.0312 25.6611 36.728C26.1133 36.43 26.7145 35.999 26.9912 35.7702C27.2679 35.5468 27.8904 34.9615 28.3746 34.472C28.9066 33.9346 29.4493 33.3228 29.7579 32.9131C30.0346 32.5459 30.4177 31.9926 30.6039 31.6893C30.7955 31.3914 31.0828 30.8753 31.253 30.556C31.4233 30.2368 31.6946 29.6569 31.8596 29.2791C32.0245 28.9013 32.3118 28.1352 32.4981 27.5765C32.6843 27.0178 32.9077 26.2676 32.9982 25.9005C33.0886 25.5334 33.1951 25.0705 33.2376 24.863C33.2802 24.6555 33.3653 24.2032 33.4238 23.8521C33.4824 23.5009 33.5675 22.8784 33.6154 22.4687C33.658 22.059 33.7005 21.4471 33.7058 21.1119C33.7165 20.7767 33.7005 18.0845 33.6739 15.1262C33.6473 12.1733 33.6207 9.69389 33.6101 9.6194C33.6047 9.54491 33.5941 9.01285 33.5941 8.43822V8.4375C33.5888 7.3901 33.5888 7.38474 33.4717 7.36346C33.4371 7.35814 33.3108 7.33287 33.1346 7.29762C32.9583 7.26237 32.7322 7.21715 32.4981 7.17192C32.0298 7.07615 31.4659 6.95377 31.2477 6.90057C31.1568 6.87618 31.0475 6.84718 30.9381 6.81817C30.785 6.77756 30.6318 6.73696 30.5294 6.70902C30.3538 6.66646 29.7047 6.47492 29.0929 6.28869C28.481 6.10247 27.6616 5.84176 27.2839 5.70343C27.199 5.67355 27.1144 5.64367 27.0334 5.61506C26.7538 5.5163 26.5169 5.43262 26.4592 5.41611C26.427 5.40463 26.3691 5.38325 26.2983 5.35709C26.205 5.32262 26.0892 5.27986 25.9803 5.24053C25.9467 5.22745 25.9083 5.21257 25.8666 5.19639C25.6707 5.12047 25.4018 5.01621 25.2088 4.93726C24.9747 4.84681 24.2777 4.54885 23.6658 4.28282C23.054 4.01679 21.9739 3.51665 21.2716 3.16549C20.5692 2.81965 19.7286 2.38868 19.4093 2.20778C19.0901 2.0322 18.4836 1.68636 18.0632 1.44161C17.6482 1.19686 17.2917 1 17.2704 1C17.2438 1.00532 17.0151 1.12769 16.749 1.27667ZM16.9672 4.88926C16.8182 4.96906 16.2648 5.21381 15.7381 5.43196C15.2114 5.6501 14.376 5.99062 13.8759 6.18749C13.3757 6.38435 12.7426 6.6291 12.4659 6.73551C12.3276 6.78606 12.144 6.85256 11.9605 6.91907C11.7769 6.98558 11.5933 7.05209 11.455 7.10263C11.1783 7.20372 10.6516 7.39527 10.2845 7.52828C9.91734 7.65598 8.95963 7.98586 8.15622 8.25721C7.3528 8.52856 6.20355 8.91164 5.60232 9.10319C5.00109 9.29473 4.28281 9.52351 4.00613 9.60864L3.50067 9.76294C3.50067 20.0743 3.51132 20.6808 3.59645 21.3779C3.64965 21.8035 3.7401 22.4473 3.79863 22.8144C3.80823 22.8696 3.81843 22.9284 3.82902 22.9895C3.88884 23.3343 3.96093 23.7499 4.00613 23.985C4.05656 24.2472 4.1261 24.5715 4.16041 24.7315L4.16575 24.7564C4.19768 24.9001 4.26152 25.1768 4.30941 25.3683C4.35729 25.5599 4.47435 25.9908 4.57544 26.326C4.67653 26.6612 4.80423 27.0709 4.85743 27.2305L4.86638 27.2549C4.92778 27.4225 5.04325 27.7375 5.13942 27.9754C5.24052 28.2255 5.40014 28.5926 5.49059 28.8001C5.58636 29.0076 5.81514 29.4386 6.00669 29.7578C6.19823 30.0771 6.44298 30.4655 6.54939 30.6144C6.6558 30.7634 6.85266 31.0135 6.98568 31.1731C7.11337 31.3327 7.47518 31.7211 7.78377 32.0404C8.09237 32.3596 8.59251 32.8331 8.9011 33.0992C9.2097 33.3599 9.73644 33.7749 10.0716 34.009C10.4068 34.2484 10.8484 34.5464 11.056 34.6794C11.2635 34.8071 11.5135 34.9561 11.6146 35.0146C11.7157 35.0731 12.0615 35.2593 12.3861 35.4296C12.7053 35.5999 13.2853 35.8712 13.6631 36.0362C14.0408 36.2064 14.5463 36.4139 14.7804 36.499C15.0145 36.5895 15.4189 36.7278 15.6849 36.8183C15.9509 36.9034 16.3925 37.0311 16.6692 37.1056C16.9459 37.1748 17.2492 37.2333 17.3343 37.2333C17.4194 37.2333 17.6588 37.1907 17.8663 37.1482C18.0738 37.1003 18.5367 36.9779 18.9039 36.8715C19.271 36.7704 19.7818 36.6108 20.0478 36.5097C20.3138 36.4139 20.681 36.2756 20.8725 36.1958C21.064 36.1213 21.5535 35.8925 21.9632 35.6903C22.3729 35.4935 22.889 35.2221 23.1072 35.0944C23.3253 34.9614 23.6871 34.7379 23.9052 34.5996C24.1234 34.4559 24.4586 34.2218 24.6501 34.0728C24.8417 33.9292 25.1769 33.6632 25.395 33.4876C25.6132 33.312 26.0601 32.9023 26.3793 32.5777C26.6986 32.2532 27.1455 31.7637 27.369 31.487C27.5924 31.2104 27.9276 30.7528 28.1139 30.4761C28.3001 30.1941 28.4863 29.9068 28.5289 29.8376C28.5714 29.7631 28.731 29.4545 28.8853 29.146C29.0396 28.8374 29.2844 28.2893 29.428 27.9222C29.577 27.5551 29.7792 26.9805 29.8856 26.6453C29.9867 26.3101 30.1304 25.8046 30.2049 25.5279C30.274 25.2513 30.3964 24.7458 30.4656 24.4106C30.5401 24.0754 30.6358 23.5806 30.6837 23.3199C30.7263 23.0592 30.8008 22.591 30.8433 22.2824C30.8859 21.9738 30.9604 21.3512 31.0083 20.899C31.0774 20.1967 31.0881 19.2922 31.0774 14.9133L31.0615 9.75762C30.7316 9.68845 30.29 9.58204 29.8643 9.47563C29.4387 9.37454 28.9864 9.25748 28.8534 9.22024C28.8347 9.215 28.8129 9.20891 28.7887 9.20215C28.6409 9.16085 28.4024 9.0942 28.2149 9.03934C27.9968 8.98081 27.5286 8.84247 27.1774 8.73606C26.8825 8.65117 26.3475 8.47998 25.8874 8.33277C25.7997 8.30468 25.7146 8.27746 25.6344 8.25189C25.1343 8.08695 24.3256 7.80495 23.8254 7.61873C23.3253 7.43783 22.623 7.16648 22.2559 7.02282C21.8887 6.87917 21.1385 6.56525 20.5799 6.3205C20.0212 6.08107 19.0475 5.62882 18.4037 5.31491L17.2385 4.7456L16.9672 4.88926Z" fill="#D21341"/>
<path d="M22.8571 15.6158C23.1551 15.2699 23.4371 14.94 23.4796 14.8815C23.5541 14.7911 23.6658 14.7857 25.3791 14.7804C26.3847 14.7804 27.2147 14.7964 27.2253 14.823C27.236 14.8443 27.0923 15.0411 26.9008 15.2593C26.7092 15.4774 26.3421 15.8871 26.0867 16.1638C25.8313 16.4405 25.3684 16.9566 25.0545 17.3077C24.7406 17.6589 24.1926 18.2708 23.8414 18.6645C23.4903 19.0582 23.0752 19.5158 22.9263 19.6754C22.7773 19.835 22.357 20.3032 21.9898 20.7129C21.628 21.1226 21.2184 21.5802 21.08 21.7238C20.947 21.8728 20.5852 22.2665 20.2819 22.6071C19.9786 22.9476 19.3455 23.6552 18.8826 24.1766C18.4144 24.7034 18.01 25.1556 17.9781 25.1822C17.9409 25.2088 17.6057 25.5813 17.2279 26.0069C16.8501 26.4326 16.4298 26.8955 16.2968 27.0338C16.1638 27.1721 16.0467 27.2892 16.0308 27.2892C16.0148 27.2892 15.6477 26.8742 15.2114 26.3687C14.7751 25.8633 14.2909 25.3046 14.1419 25.129C13.9876 24.9534 13.4236 24.299 12.8863 23.6712C12.3489 23.0433 11.7423 22.3357 11.5401 22.1016C11.338 21.8622 11.0613 21.5376 10.923 21.378C10.7846 21.2184 10.4867 20.8725 10.2579 20.6065C10.0344 20.3458 9.60876 19.8457 9.31081 19.4945C9.01286 19.1486 8.7149 18.7922 8.52868 18.5581L12.2797 18.5634L12.8916 19.3881C13.2268 19.8457 13.6844 20.4522 13.9025 20.7395C14.1206 21.0268 14.6846 21.777 15.1528 22.4102C15.6211 23.038 16.0148 23.5541 16.0308 23.5594C16.0467 23.5594 16.2436 23.3413 16.467 23.0699C16.6905 22.7986 16.9406 22.5006 17.0257 22.4102C17.1055 22.3197 17.6535 21.6866 18.2388 21.0055C18.8241 20.3245 19.4572 19.5796 19.6488 19.3562C19.8403 19.1327 20.2181 18.6858 20.4947 18.3665C20.7661 18.0473 21.1066 17.6536 21.245 17.4939C21.3833 17.3343 21.6812 16.9885 21.91 16.7224C22.1335 16.4617 22.5591 15.9616 22.8571 15.6158Z" fill="#D21341"/>
<path fill-rule="evenodd" clip-rule="evenodd" d="M16.749 1.27667C16.483 1.42565 15.6849 1.84066 14.9666 2.19714C14.2483 2.55894 13.5301 2.9101 13.3704 2.98459C13.2108 3.05908 12.732 3.2719 12.3063 3.45813C11.8807 3.64967 11.2103 3.9423 10.8165 4.11256C10.4228 4.28282 9.99184 4.46372 9.85883 4.51693C9.73534 4.56138 9.44676 4.67921 9.19745 4.78101C9.17822 4.78886 9.15922 4.79662 9.14054 4.80424C8.87984 4.91065 8.47015 5.07027 8.23604 5.16072C8.00193 5.25117 7.65609 5.38419 7.46455 5.45336C7.27301 5.52785 6.96441 5.63958 6.77287 5.70875C6.64518 5.75486 6.42765 5.83407 6.21011 5.91328C6.10132 5.95289 5.99253 5.99251 5.89497 6.02798C5.60233 6.1344 4.75104 6.42703 4.00615 6.6771C3.26126 6.92717 2.27695 7.24109 1.8247 7.37942L1 7.62949C1 21.4046 1.00532 21.9898 1.09577 22.6283C1.14898 23.0061 1.23943 23.586 1.29795 23.9053C1.35648 24.2245 1.47886 24.8044 1.56931 25.1822C1.65444 25.56 1.80873 26.1612 1.90983 26.5124C2.01092 26.8635 2.18118 27.3903 2.28227 27.6829C2.38868 27.9755 2.59619 28.5023 2.73984 28.8534C2.88882 29.2046 3.16549 29.8058 3.35703 30.1836C3.54858 30.5614 3.86249 31.1253 4.05403 31.4339C4.24558 31.7425 4.55417 32.2054 4.74039 32.4715C4.93194 32.7375 5.26182 33.1631 5.46932 33.4292C5.68214 33.6952 6.1876 34.2326 6.59729 34.6263C7.00166 35.0254 7.5816 35.5415 7.8902 35.7756C8.1988 36.015 8.67765 36.3608 8.95432 36.5524C9.231 36.7439 9.82158 37.111 10.2579 37.3717C10.6995 37.6271 12.0988 38.3614 13.3704 39.0052C14.6421 39.649 16.0095 40.3513 16.4032 40.5748C16.8608 40.8302 17.2013 40.9844 17.3343 40.9951C17.5099 41.0164 17.6323 40.9738 18.0526 40.761C18.3293 40.6173 18.8241 40.3513 19.1433 40.1757C19.4625 39.9948 20.1329 39.6543 20.6331 39.4149C21.1332 39.1754 21.8994 38.803 22.3357 38.5902C22.7773 38.3827 23.5169 37.9996 23.9851 37.7442C24.4533 37.4835 25.2088 37.0312 25.6611 36.728C26.1133 36.43 26.7145 35.999 26.9912 35.7702C27.2679 35.5468 27.8904 34.9615 28.3746 34.472C28.9066 33.9346 29.4493 33.3228 29.7579 32.9131C30.0346 32.5459 30.4177 31.9926 30.6039 31.6893C30.7955 31.3914 31.0828 30.8753 31.253 30.556C31.4233 30.2368 31.6946 29.6569 31.8596 29.2791C32.0245 28.9013 32.3118 28.1352 32.4981 27.5765C32.6843 27.0178 32.9077 26.2676 32.9982 25.9005C33.0886 25.5334 33.1951 25.0705 33.2376 24.863C33.2802 24.6555 33.3653 24.2032 33.4238 23.8521C33.4824 23.5009 33.5675 22.8784 33.6154 22.4687C33.658 22.059 33.7005 21.4471 33.7058 21.1119C33.7165 20.7767 33.7005 18.0845 33.6739 15.1262C33.6473 12.1733 33.6207 9.69389 33.6101 9.6194C33.6047 9.54491 33.5941 9.01285 33.5941 8.43822V8.4375C33.5888 7.3901 33.5888 7.38474 33.4717 7.36346C33.4371 7.35814 33.3108 7.33287 33.1346 7.29762C32.9583 7.26237 32.7322 7.21715 32.4981 7.17192C32.0298 7.07615 31.4659 6.95377 31.2477 6.90057C31.1568 6.87618 31.0475 6.84718 30.9381 6.81817C30.785 6.77756 30.6318 6.73696 30.5294 6.70902C30.3538 6.66646 29.7047 6.47492 29.0929 6.28869C28.481 6.10247 27.6616 5.84176 27.2839 5.70343C27.199 5.67355 27.1144 5.64367 27.0334 5.61506C26.7538 5.5163 26.5169 5.43262 26.4592 5.41611C26.427 5.40463 26.3691 5.38325 26.2983 5.35709C26.205 5.32262 26.0892 5.27986 25.9803 5.24053C25.9467 5.22745 25.9083 5.21257 25.8666 5.19639C25.6707 5.12047 25.4018 5.01621 25.2088 4.93726C24.9747 4.84681 24.2777 4.54885 23.6658 4.28282C23.054 4.01679 21.9739 3.51665 21.2716 3.16549C20.5692 2.81965 19.7286 2.38868 19.4093 2.20778C19.0901 2.0322 18.4836 1.68636 18.0632 1.44161C17.6482 1.19686 17.2917 1 17.2704 1C17.2438 1.00532 17.0151 1.12769 16.749 1.27667ZM16.9672 4.88926C16.8182 4.96906 16.2648 5.21381 15.7381 5.43196C15.2114 5.6501 14.376 5.99062 13.8759 6.18749C13.3757 6.38435 12.7426 6.6291 12.4659 6.73551C12.3276 6.78606 12.144 6.85256 11.9605 6.91907C11.7769 6.98558 11.5933 7.05209 11.455 7.10263C11.1783 7.20372 10.6516 7.39527 10.2845 7.52828C9.91734 7.65598 8.95963 7.98586 8.15622 8.25721C7.3528 8.52856 6.20355 8.91164 5.60232 9.10319C5.00109 9.29473 4.28281 9.52351 4.00613 9.60864L3.50067 9.76294C3.50067 20.0743 3.51132 20.6808 3.59645 21.3779C3.64965 21.8035 3.7401 22.4473 3.79863 22.8144C3.80823 22.8696 3.81843 22.9284 3.82902 22.9895C3.88884 23.3343 3.96093 23.7499 4.00613 23.985C4.05656 24.2472 4.1261 24.5715 4.16041 24.7315L4.16575 24.7564C4.19768 24.9001 4.26152 25.1768 4.30941 25.3683C4.35729 25.5599 4.47435 25.9908 4.57544 26.326C4.67653 26.6612 4.80423 27.0709 4.85743 27.2305L4.86638 27.2549C4.92778 27.4225 5.04325 27.7375 5.13942 27.9754C5.24052 28.2255 5.40014 28.5926 5.49059 28.8001C5.58636 29.0076 5.81514 29.4386 6.00669 29.7578C6.19823 30.0771 6.44298 30.4655 6.54939 30.6144C6.6558 30.7634 6.85266 31.0135 6.98568 31.1731C7.11337 31.3327 7.47518 31.7211 7.78377 32.0404C8.09237 32.3596 8.59251 32.8331 8.9011 33.0992C9.2097 33.3599 9.73644 33.7749 10.0716 34.009C10.4068 34.2484 10.8484 34.5464 11.056 34.6794C11.2635 34.8071 11.5135 34.9561 11.6146 35.0146C11.7157 35.0731 12.0615 35.2593 12.3861 35.4296C12.7053 35.5999 13.2853 35.8712 13.6631 36.0362C14.0408 36.2064 14.5463 36.4139 14.7804 36.499C15.0145 36.5895 15.4189 36.7278 15.6849 36.8183C15.9509 36.9034 16.3925 37.0311 16.6692 37.1056C16.9459 37.1748 17.2492 37.2333 17.3343 37.2333C17.4194 37.2333 17.6588 37.1907 17.8663 37.1482C18.0738 37.1003 18.5367 36.9779 18.9039 36.8715C19.271 36.7704 19.7818 36.6108 20.0478 36.5097C20.3138 36.4139 20.681 36.2756 20.8725 36.1958C21.064 36.1213 21.5535 35.8925 21.9632 35.6903C22.3729 35.4935 22.889 35.2221 23.1072 35.0944C23.3253 34.9614 23.6871 34.7379 23.9052 34.5996C24.1234 34.4559 24.4586 34.2218 24.6501 34.0728C24.8417 33.9292 25.1769 33.6632 25.395 33.4876C25.6132 33.312 26.0601 32.9023 26.3793 32.5777C26.6986 32.2532 27.1455 31.7637 27.369 31.487C27.5924 31.2104 27.9276 30.7528 28.1139 30.4761C28.3001 30.1941 28.4863 29.9068 28.5289 29.8376C28.5714 29.7631 28.731 29.4545 28.8853 29.146C29.0396 28.8374 29.2844 28.2893 29.428 27.9222C29.577 27.5551 29.7792 26.9805 29.8856 26.6453C29.9867 26.3101 30.1304 25.8046 30.2049 25.5279C30.274 25.2513 30.3964 24.7458 30.4656 24.4106C30.5401 24.0754 30.6358 23.5806 30.6837 23.3199C30.7263 23.0592 30.8008 22.591 30.8433 22.2824C30.8859 21.9738 30.9604 21.3512 31.0083 20.899C31.0774 20.1967 31.0881 19.2922 31.0774 14.9133L31.0615 9.75762C30.7316 9.68845 30.29 9.58204 29.8643 9.47563C29.4387 9.37454 28.9864 9.25748 28.8534 9.22024C28.8347 9.215 28.8129 9.20891 28.7887 9.20215C28.6409 9.16085 28.4024 9.0942 28.2149 9.03934C27.9968 8.98081 27.5286 8.84247 27.1774 8.73606C26.8825 8.65117 26.3475 8.47998 25.8874 8.33277C25.7997 8.30468 25.7146 8.27746 25.6344 8.25189C25.1343 8.08695 24.3256 7.80495 23.8254 7.61873C23.3253 7.43783 22.623 7.16648 22.2559 7.02282C21.8887 6.87917 21.1385 6.56525 20.5799 6.3205C20.0212 6.08107 19.0475 5.62882 18.4037 5.31491L17.2385 4.7456L16.9672 4.88926Z" stroke="#F10926" stroke-width="0.0532062"/>
<path d="M22.8571 15.6158C23.1551 15.2699 23.4371 14.94 23.4796 14.8815C23.5541 14.7911 23.6658 14.7857 25.3791 14.7804C26.3847 14.7804 27.2147 14.7964 27.2253 14.823C27.236 14.8443 27.0923 15.0411 26.9008 15.2593C26.7092 15.4774 26.3421 15.8871 26.0867 16.1638C25.8313 16.4405 25.3684 16.9566 25.0545 17.3077C24.7406 17.6589 24.1926 18.2708 23.8414 18.6645C23.4903 19.0582 23.0752 19.5158 22.9263 19.6754C22.7773 19.835 22.357 20.3032 21.9898 20.7129C21.628 21.1226 21.2184 21.5802 21.08 21.7238C20.947 21.8728 20.5852 22.2665 20.2819 22.6071C19.9786 22.9476 19.3455 23.6552 18.8826 24.1766C18.4144 24.7034 18.01 25.1556 17.9781 25.1822C17.9409 25.2088 17.6057 25.5813 17.2279 26.0069C16.8501 26.4326 16.4298 26.8955 16.2968 27.0338C16.1638 27.1721 16.0467 27.2892 16.0308 27.2892C16.0148 27.2892 15.6477 26.8742 15.2114 26.3687C14.7751 25.8633 14.2909 25.3046 14.1419 25.129C13.9876 24.9534 13.4236 24.299 12.8863 23.6712C12.3489 23.0433 11.7423 22.3357 11.5401 22.1016C11.338 21.8622 11.0613 21.5376 10.923 21.378C10.7846 21.2184 10.4867 20.8725 10.2579 20.6065C10.0344 20.3458 9.60876 19.8457 9.31081 19.4945C9.01286 19.1486 8.7149 18.7922 8.52868 18.5581L12.2797 18.5634L12.8916 19.3881C13.2268 19.8457 13.6844 20.4522 13.9025 20.7395C14.1206 21.0268 14.6846 21.777 15.1528 22.4102C15.6211 23.038 16.0148 23.5541 16.0308 23.5594C16.0467 23.5594 16.2436 23.3413 16.467 23.0699C16.6905 22.7986 16.9406 22.5006 17.0257 22.4102C17.1055 22.3197 17.6535 21.6866 18.2388 21.0055C18.8241 20.3245 19.4572 19.5796 19.6488 19.3562C19.8403 19.1327 20.2181 18.6858 20.4947 18.3665C20.7661 18.0473 21.1066 17.6536 21.245 17.4939C21.3833 17.3343 21.6812 16.9885 21.91 16.7224C22.1335 16.4617 22.5591 15.9616 22.8571 15.6158Z" stroke="#F10926" stroke-width="0.0532062"/>
</svg>
