<svg width="36" height="42" viewBox="0 0 36 42" fill="none" xmlns="http://www.w3.org/2000/svg">
<path fill-rule="evenodd" clip-rule="evenodd" d="M18.067 1.00225C18.2277 1.01119 18.4331 1.06032 18.5805 1.12733C18.7144 1.1854 20.3352 2.10557 22.1748 3.17315C24.0188 4.23626 26.7514 5.81752 28.2472 6.67963C29.7429 7.5462 31.846 8.76118 32.9131 9.37761C33.9802 9.99403 34.9402 10.5703 35.0474 10.6551C35.159 10.7489 35.284 10.9142 35.4805 11.3252V30.7113L35.3599 30.9346C35.2885 31.0552 35.1679 31.2205 35.092 31.3009C35.0116 31.3769 33.6007 32.2211 31.9531 33.1681C30.3055 34.1195 28.1177 35.3836 27.0863 35.9822C26.0549 36.5763 24.0456 37.7377 22.6213 38.5596C21.1969 39.3859 19.7101 40.2436 19.3172 40.4669C18.9243 40.6947 18.4911 40.9091 18.3572 40.9493C18.1875 40.9985 18.0313 41.0119 17.8527 40.9895C17.7142 40.9761 17.5133 40.9181 17.4106 40.8689C17.3035 40.8153 16.5667 40.3954 15.7675 39.9353C14.9683 39.4753 13.0706 38.3809 11.5481 37.5009C10.0255 36.6209 8.09663 35.5042 7.26168 35.0218C6.42672 34.5394 4.70323 33.5433 3.42625 32.8063C2.15372 32.0737 1.03301 31.3992 0.934776 31.3143C0.836546 31.2295 0.702596 31.0463 0.519531 30.6666V11.2805L0.640086 11.0571C0.711526 10.9321 0.832081 10.7713 0.907986 10.6909C0.988356 10.6149 1.69829 10.1816 2.48413 9.72602C3.26997 9.27487 4.37729 8.63611 4.93988 8.31003C5.50693 7.98395 7.13219 7.04144 8.55653 6.21954C9.98086 5.39764 11.9321 4.27199 12.8876 3.7181C13.8431 3.16421 15.2496 2.35124 16.0131 1.91349C16.7766 1.47574 17.4865 1.08712 17.5982 1.05139C17.7142 1.01119 17.9152 0.993321 18.067 1.00225ZM12.1509 7.43899C9.26646 9.10513 6.25259 10.8472 5.45335 11.3073C4.65412 11.7674 3.91293 12.2185 3.80577 12.3168C3.69861 12.4106 3.55573 12.5848 3.49322 12.7099L3.37713 12.9332V29.0586C3.54234 29.3712 3.6495 29.5276 3.72987 29.608C3.80577 29.6929 4.10046 29.8939 4.38175 30.0636C4.66305 30.2289 6.28384 31.1624 7.97608 32.1407C9.66831 33.1189 12.4813 34.7404 14.2271 35.7499C15.9729 36.755 17.4776 37.6081 17.5758 37.6439C17.6741 37.6751 17.8661 37.7019 18 37.7019C18.1339 37.7019 18.3259 37.6751 18.4242 37.6439C18.5224 37.6081 19.469 37.0855 20.5227 36.4735C21.5765 35.866 24.5323 34.1597 27.0863 32.6856C29.6403 31.2116 31.8102 29.9564 31.9085 29.8939C32.0067 29.8358 32.154 29.7241 32.2344 29.6437C32.3193 29.5678 32.4398 29.4025 32.5023 29.2819L32.6229 29.0586V12.9332C32.4443 12.5848 32.3014 12.4106 32.1942 12.3168C32.0871 12.2185 31.4173 11.8076 30.7029 11.3966C29.9885 10.9857 26.988 9.24807 24.0277 7.53726C21.0675 5.83092 18.5581 4.39706 18.4465 4.35686C18.3349 4.32113 18.125 4.28986 17.9777 4.28986C17.8303 4.29433 17.6383 4.32113 17.5535 4.3524C17.4687 4.38366 15.0352 5.77285 12.1509 7.43899ZM18.0893 10.472C18.3438 10.4854 18.4822 10.5211 18.6653 10.6194C18.8126 10.6953 18.9868 10.8383 19.1029 10.9812C19.2189 11.1197 19.3216 11.3073 19.3618 11.4502C19.4199 11.6512 19.4288 12.5089 19.4065 24.8151L19.2948 25.0563C19.2279 25.1992 19.0895 25.3868 18.96 25.5029C18.8171 25.637 18.6474 25.7397 18.4911 25.7933C18.3572 25.838 18.1339 25.8782 18 25.8782C17.8661 25.8782 17.6428 25.838 17.5089 25.7933C17.3526 25.7397 17.1829 25.637 17.04 25.5029C16.9105 25.3868 16.7721 25.1992 16.5935 24.8151L16.5801 18.2934C16.5712 13.8802 16.5801 11.7004 16.6114 11.5485C16.6382 11.4279 16.723 11.2269 16.8034 11.1063C16.8838 10.9857 17.0311 10.8249 17.1293 10.7489C17.2276 10.673 17.4062 10.5747 17.5312 10.5301C17.6964 10.472 17.8437 10.4586 18.0893 10.472ZM17.9777 26.9859C18.125 26.9815 18.3572 27.0127 18.4911 27.0529C18.6251 27.0931 18.8439 27.2004 18.9778 27.2897C19.1118 27.379 19.2993 27.5622 19.3931 27.6962C19.4913 27.8302 19.5985 28.0535 19.6387 28.1875C19.6833 28.3513 19.6997 28.5523 19.6878 28.7906C19.6788 29.0496 19.6431 29.2149 19.5583 29.3936C19.4958 29.5276 19.3663 29.7286 19.2636 29.8403C19.1654 29.9519 18.9644 30.1038 18.8216 30.1842C18.6742 30.2601 18.4286 30.3495 18.2679 30.3763C18.0402 30.421 17.9196 30.421 17.7098 30.3763C17.5624 30.3495 17.3258 30.2601 17.1784 30.1842C17.0356 30.1038 16.8346 29.9519 16.7364 29.8403C16.6337 29.7286 16.4998 29.5276 16.4373 29.3936C16.339 29.1792 16.3256 29.0854 16.3256 28.6789C16.3256 28.2635 16.339 28.1831 16.4462 27.9642C16.5087 27.8302 16.6605 27.6202 16.7811 27.4996C16.8971 27.379 17.0757 27.2406 17.174 27.1914C17.2722 27.1423 17.4329 27.0753 17.5312 27.044C17.6294 27.0127 17.8303 26.9859 17.9777 26.9859Z" fill="#D21341" stroke="#F10926" stroke-width="0.0446685"/>
</svg>
