<svg width="40" height="38" viewBox="0 0 40 38" fill="none" xmlns="http://www.w3.org/2000/svg">
<path fill-rule="evenodd" clip-rule="evenodd" d="M7.71913 0.095C7.71913 0.1425 7.44599 0.285 7.1016 0.415625C6.7572 0.54625 6.15155 0.855 5.75966 1.11625C5.36776 1.36563 4.67898 1.88813 4.21583 2.25625C3.75268 2.63625 3.0639 3.2775 2.66013 3.69313C2.26824 4.10875 1.71008 4.7975 1.42507 5.225C1.14006 5.6525 0.783788 6.28188 0.629406 6.62625C0.475023 6.95875 0.273138 7.57625 0.178134 7.98C0.083129 8.39563 0 8.98938 0 9.32188C0 9.6425 0.10688 10.3431 0.237512 10.8656C0.368143 11.3881 0.61753 12.1956 0.795664 12.6469C0.961922 13.0981 1.49632 14.25 1.97135 15.2C2.44637 16.15 3.20641 17.4919 3.6458 18.2044C4.09707 18.905 4.91649 20.1281 5.48652 20.9356C6.05655 21.7313 7.12535 23.1088 7.87351 23.9875C8.62167 24.8663 9.93986 26.2913 10.8187 27.1344C11.6974 27.9894 13.0156 29.165 13.7519 29.7469C14.4882 30.3406 15.7233 31.255 16.4833 31.7894C17.2433 32.3238 18.5615 33.1788 19.4166 33.6894C20.2597 34.2 21.7086 34.9956 22.623 35.4588C23.5374 35.9219 24.8437 36.5156 25.5325 36.7888C26.2213 37.05 27.207 37.3825 27.7295 37.525C28.252 37.6675 28.7745 37.8338 28.8933 37.8931C29.0002 37.9525 29.6533 38 30.3421 38C31.0309 38 31.684 37.9525 31.8028 37.8931C31.9097 37.8338 32.4085 37.6319 32.8954 37.4538C33.3823 37.2756 34.261 36.8006 34.8548 36.4088C35.4367 36.005 36.3986 35.2331 36.9806 34.675C37.5625 34.105 38.2987 33.25 38.655 32.7156C38.9994 32.1931 39.3794 31.4925 39.4982 31.1719C39.6169 30.8275 39.7119 30.2575 39.7238 29.8063C39.7238 29.165 39.6644 28.9394 39.3794 28.4406C39.1894 28.1081 38.655 27.4669 38.18 27.0156C37.7168 26.5644 36.6955 25.6975 35.9118 25.1038C35.1398 24.51 33.9167 23.6313 33.1922 23.1563C32.4678 22.6813 31.5653 22.135 31.1734 21.9569C30.6152 21.6838 30.2946 21.6125 29.6889 21.6125C29.1308 21.6125 28.7745 21.6838 28.3826 21.8856C28.0264 22.0638 27.682 22.3844 27.3138 22.8831C27.0169 23.2988 26.3994 24.3319 25.9363 25.1988C25.2831 26.4338 24.9981 26.8494 24.6299 27.1106C24.3212 27.3244 24.0005 27.4431 23.6918 27.455C23.3236 27.4669 22.9792 27.3244 22.148 26.8375C21.5661 26.4931 20.5448 25.8519 19.8916 25.4006C19.2384 24.9613 18.1934 24.1775 17.5759 23.655C16.9583 23.1325 15.7826 22.0281 14.9632 21.185C14.1438 20.3419 13.1581 19.2256 12.7662 18.7031C12.3744 18.1806 11.8518 17.4088 11.6143 16.9813C11.3649 16.5538 11.1155 16.055 11.0562 15.8531C10.9849 15.6394 10.9849 15.3188 11.0562 15.0456C11.1155 14.8081 11.2699 14.5113 11.3887 14.3925C11.5074 14.2856 12.1725 13.9531 12.8375 13.6681C13.5144 13.3713 14.4407 12.92 14.8801 12.6588C15.3314 12.3856 15.8658 12.0294 16.0677 11.8631C16.2814 11.6969 16.5664 11.3288 16.7089 11.0319C16.8871 10.6994 16.9821 10.2956 16.9821 9.91563C16.9821 9.5 16.8633 9.04875 16.5902 8.43125C16.3764 7.94438 15.8658 6.94688 15.4501 6.23438C15.0345 5.51 14.3101 4.39375 13.835 3.74063C13.36 3.0875 12.6 2.20875 12.1487 1.78125C11.6499 1.31813 10.9374 0.8075 10.3555 0.49875C9.47671 0.0475 9.29858 0 8.55042 0C8.09914 0 7.71913 0.035625 7.71913 0.083125V0.095ZM7.54091 2.12547C7.14901 2.30359 6.40085 2.77859 5.87832 3.17047C5.3558 3.56234 4.50076 4.34609 3.97823 4.89234C3.45571 5.43859 2.85005 6.17484 2.64817 6.5311C2.43441 6.88735 2.14939 7.49297 2.01876 7.87297C1.87625 8.2886 1.78125 8.84672 1.78125 9.32172C1.78125 9.82047 1.88813 10.438 2.09001 11.0792C2.25627 11.6136 2.64817 12.5873 2.94506 13.2405C3.24195 13.8936 3.83573 15.0455 4.25137 15.7936C4.67889 16.5417 5.39143 17.7173 5.85457 18.4061C6.31772 19.0948 6.99463 20.0567 7.3509 20.5436C7.71904 21.0305 8.52658 22.0517 9.15598 22.7998C9.79727 23.548 10.8067 24.6761 11.4242 25.2936C12.0299 25.9111 13.1224 26.9205 13.835 27.538C14.5594 28.1555 15.6519 29.0342 16.2695 29.4974C16.887 29.9486 17.9795 30.7086 18.7039 31.1836C19.4284 31.6467 20.5447 32.3355 21.1978 32.7155C21.851 33.0955 22.9435 33.6774 23.6323 34.0217C24.3211 34.3661 25.4968 34.8886 26.2449 35.1855C26.9931 35.4824 28.0619 35.8505 28.6201 35.993C29.392 36.183 29.8432 36.2305 30.5795 36.1949C31.1733 36.1592 31.8027 36.0286 32.2421 35.8624C32.634 35.708 33.4059 35.2805 33.9641 34.9005C34.5222 34.5323 35.3773 33.8199 35.8642 33.3449C36.3511 32.858 36.9567 32.1692 37.1942 31.813C37.4317 31.4567 37.7168 30.9342 37.8118 30.6374C37.9186 30.3405 38.0018 29.9723 38.0018 29.8061C38.0018 29.6399 37.8949 29.3548 37.7761 29.153C37.6574 28.9511 37.1824 28.4524 36.743 28.0486C36.2917 27.633 35.306 26.8255 34.5578 26.2555C33.8097 25.6736 32.7053 24.9017 32.1234 24.5217C31.5415 24.1536 30.8052 23.7142 30.4845 23.5598C30.1758 23.4055 29.8076 23.2748 29.6532 23.2748C29.5107 23.263 29.2613 23.3698 29.0951 23.4886C28.9288 23.6073 28.6082 24.023 28.3707 24.4148C28.1332 24.7948 27.6581 25.6498 27.3256 26.303C26.8862 27.1342 26.4943 27.6805 26.0312 28.1436C25.5087 28.6542 25.188 28.8561 24.6417 29.0224C24.1192 29.1886 23.7511 29.2242 23.276 29.1649C22.8406 29.1173 22.326 28.9313 21.7322 28.6067C21.2453 28.3455 20.3072 27.7755 19.654 27.348C19.0008 26.9205 17.932 26.1605 17.2789 25.6617C16.6257 25.163 15.2363 23.9042 14.1794 22.8592C13.1224 21.7905 11.8636 20.4011 11.3292 19.7005C10.8186 18.9998 10.1417 17.943 9.82102 17.3492C9.32224 16.3992 9.26287 16.1855 9.26287 15.5323C9.26287 15.1167 9.33412 14.5705 9.41725 14.3211C9.4885 14.0598 9.77351 13.6086 10.0467 13.3117C10.4385 12.8605 10.7711 12.6586 11.8874 12.1836C12.6355 11.863 13.5024 11.4473 13.835 11.2455C14.1556 11.0555 14.6069 10.7705 14.8206 10.6161C15.1175 10.3905 15.2007 10.248 15.2007 9.91547C15.2007 9.64235 14.975 9.06047 14.5356 8.22922C14.1794 7.51672 13.4668 6.32922 12.968 5.58109C12.4693 4.83297 11.7092 3.84734 11.2698 3.38422C10.8186 2.90922 10.1773 2.38672 9.78539 2.17297C9.36975 1.94734 8.91847 1.79297 8.66909 1.79297C8.44345 1.79297 7.9328 1.93547 7.54091 2.12547Z" fill="#D21341"/>
</svg>
