<svg width="37" height="40" viewBox="0 0 37 40" fill="none" xmlns="http://www.w3.org/2000/svg">
<path fill-rule="evenodd" clip-rule="evenodd" d="M18.4305 0C26.8317 0 32.1234 0.0339212 32.4287 0.101764C32.6888 0.169606 33.2428 0.384441 33.6725 0.576661C34.1587 0.825416 34.6901 1.20986 35.1763 1.68475C35.6625 2.17096 36.0356 2.66847 36.2618 3.15467C36.4653 3.56173 36.6688 4.11578 36.7367 4.39845C36.8158 4.72636 36.8611 8.17501 36.8611 23.5074L36.5332 23.8466C36.2731 24.118 36.1035 24.1858 35.7417 24.1858C35.3911 24.1858 35.1876 24.1067 34.5431 23.53L34.43 4.7942L34.1813 4.30799C34.0343 4.04793 33.7516 3.65218 33.5594 3.42604C33.3559 3.1999 32.9036 2.8833 31.9425 2.41971H4.91858L4.35322 2.7137C4.04793 2.872 3.57304 3.25644 3.30167 3.56173C3.0416 3.86702 2.74762 4.34192 2.65716 4.62459C2.51017 5.06557 2.48756 7.21391 2.51017 20.1718C2.54409 34.871 2.54409 35.2215 2.77023 35.6625C2.8833 35.9113 3.22252 36.3409 3.50519 36.6236C3.78787 36.9176 4.26277 37.2342 4.57937 37.3586C5.1108 37.5621 5.55177 37.5847 11.3184 37.6413C15.6264 37.6752 17.5373 37.7317 17.6503 37.8222C17.7408 37.89 17.8765 38.0935 17.9556 38.2744C18.0461 38.4667 18.08 38.772 18.0461 38.9981C18.0122 39.2129 17.8539 39.5182 17.3903 39.9592L11.4993 39.9931C7.73404 40.0157 5.32563 39.9818 4.86204 39.9027C4.45499 39.8348 3.74264 39.5974 3.27905 39.3825C2.69108 39.0999 2.21619 38.7607 1.74129 38.2744C1.33423 37.8561 0.915873 37.2907 0.701039 36.8498C0.497511 36.4427 0.260063 35.7643 0.169606 35.3233C0.0339212 34.6449 0 32.3722 0 20.0022C0 9.92761 0.0339213 5.2691 0.124378 4.7942C0.19222 4.42107 0.407055 3.75395 0.610582 3.32428C0.836723 2.82677 1.23247 2.26141 1.66214 1.79782C2.04658 1.37946 2.62324 0.904566 3.00768 0.701039C3.36951 0.508818 3.95748 0.260063 4.29669 0.169606C4.82812 0.0226142 6.81817 0 18.4305 0ZM26.8204 9.20396L27.1483 9.56578C27.397 9.84846 27.4762 10.052 27.4762 10.3912C27.4762 10.7304 27.397 10.9226 27.1709 11.1714C26.99 11.3523 26.6734 11.5332 26.4586 11.5671C26.2437 11.6124 22.4898 11.635 18.1365 11.6124C10.3799 11.5784 10.199 11.5784 9.95022 11.3523C9.80323 11.2279 9.62232 10.9566 9.54317 10.753C9.4301 10.4817 9.41879 10.2894 9.49794 9.99545C9.56578 9.7467 9.7467 9.52056 9.98415 9.37356C10.3347 9.14742 10.5043 9.14742 26.8204 9.20396ZM26.6847 18.6454L27.0804 19.0411C27.3518 19.3125 27.4762 19.5386 27.4762 19.7761C27.4762 19.957 27.4197 20.2284 27.3518 20.364C27.284 20.511 27.1144 20.7146 26.9787 20.8163C26.7638 20.9972 26.1306 21.0198 18.4871 21.0198C10.7869 21.0198 10.2103 21.0085 9.96153 20.8276C9.80323 20.7146 9.61101 20.4545 9.53186 20.251C9.4301 19.9909 9.41879 19.7874 9.49794 19.4934C9.56578 19.2446 9.7467 19.0185 9.97284 18.8715C10.3347 18.6567 10.5495 18.6454 26.6847 18.6454ZM13.7042 28.1433C16.8136 28.1433 17.2207 28.1659 17.526 28.3355C17.7069 28.4486 17.9104 28.6521 17.9782 28.7878C18.0348 28.9348 18.0913 29.2062 18.0913 29.3871C18.0913 29.6245 17.9669 29.8507 17.3224 30.5178H13.7833C10.3912 30.5291 10.2216 30.5178 9.9163 30.2917C9.7467 30.1673 9.55448 29.8846 9.49794 29.6698C9.41879 29.3758 9.4301 29.1723 9.53186 28.9009C9.61101 28.7087 9.80323 28.4486 9.96153 28.3355C10.2103 28.1659 10.5721 28.1433 13.7042 28.1433ZM35.753 28.1433C36.0809 28.1433 36.2618 28.2225 36.5219 28.4825C36.7819 28.7426 36.8611 28.9235 36.8611 29.2401C36.8498 29.4775 36.7932 29.7828 36.7141 29.9072C36.6349 30.0429 34.724 32.1008 32.4513 34.4866C30.1786 36.8611 28.0981 39.0546 27.8154 39.3486C27.5327 39.6426 27.1596 39.914 26.9674 39.9592C26.7638 40.0044 26.4925 39.9818 26.2663 39.8914C26.0741 39.8009 25.0678 38.9642 24.0388 38.037C22.9986 37.0985 22.1053 36.2166 22.0375 36.0583C21.9696 35.9 21.947 35.606 21.981 35.4025C22.0262 35.1989 22.1845 34.9276 22.388 34.7579C22.6255 34.5544 22.8629 34.4753 23.1795 34.4753C23.5074 34.4753 23.7335 34.5657 23.9936 34.7806C24.1971 34.9502 24.8529 35.5381 25.4409 36.0809C26.0289 36.6236 26.5377 37.0759 26.5716 37.0759C26.6055 37.0759 28.4599 35.165 30.6987 32.8244C32.9375 30.4839 34.8936 28.4712 35.0406 28.3581C35.1989 28.2338 35.4929 28.1433 35.753 28.1433Z" fill="#D21341"/>
</svg>
