<svg width="36" height="40" viewBox="0 0 36 40" fill="none" xmlns="http://www.w3.org/2000/svg">
<path fill-rule="evenodd" clip-rule="evenodd" d="M6.37642 0C6.53061 0 6.72109 0.0997732 7.16553 0.544218V8.43538H13.3333V0.544218L13.5964 0.272109C13.7596 0.108844 13.9592 0 14.0952 0C14.2222 0 14.5034 0.090704 14.712 0.199548C14.9297 0.299321 15.3288 0.55329 15.6009 0.752836C15.873 0.952383 16.3628 1.38775 16.6893 1.71429C17.0159 2.04082 17.4512 2.55782 17.6508 2.85714C17.8594 3.15646 18.1587 3.6644 18.322 3.99093C18.4853 4.31746 18.6939 4.80726 18.7936 5.07937C18.8844 5.35148 19.0204 5.84127 19.093 6.1678C19.1565 6.49433 19.2381 7.03855 19.2744 7.39229C19.3107 7.73696 19.2925 8.43538 19.2381 8.93424C19.1837 9.43311 19.0567 10.1497 18.9478 10.5215C18.8481 10.8934 18.6304 11.483 18.4671 11.8367C18.3039 12.1814 17.9955 12.7347 17.7778 13.0612C17.5601 13.3878 17.2154 13.8231 17.0068 14.0408C16.8073 14.2585 16.6621 14.4308 16.6893 14.4308C16.7166 14.4218 17.0975 14.4399 17.551 14.449C18.2132 14.4671 18.449 14.5125 18.8027 14.6939C19.1111 14.8571 20.0907 15.7642 22.0499 17.7324C23.7914 19.4739 24.8889 20.5079 24.9342 20.4535C24.9796 20.4082 25.0612 20.2086 25.1156 20.0181C25.1791 19.7914 25.3061 19.6372 25.4875 19.5465C25.7143 19.4286 26.449 19.4104 30.2948 19.4104C34.1406 19.4104 34.8753 19.4286 35.102 19.5465C35.2472 19.619 35.4104 19.7914 35.4558 19.9274C35.5011 20.0726 35.5193 20.2812 35.5011 20.4082C35.4739 20.5351 35.356 20.7347 34.9932 21.0884L26.7574 21.1338V35.9184L33.7868 35.873L33.805 30.4762C33.8231 26.3401 33.8594 25.0249 33.941 24.8617C34.0045 24.7438 34.1678 24.5896 34.3039 24.5261C34.449 24.4535 34.6667 24.4172 34.8027 24.4444C34.9478 24.4717 35.1565 24.5896 35.5102 24.9614L35.5374 30.8662C35.5556 36.3628 35.5465 36.7982 35.4014 37.0975C35.2834 37.3333 35.1383 37.4422 34.8753 37.5329C34.5941 37.6236 33.5238 37.6417 30.1134 37.6236C26.0952 37.5964 25.6871 37.5782 25.4603 37.4331C25.3243 37.3515 25.1701 37.1791 25.1247 37.0522C25.0703 36.907 25.034 34.322 25.034 23.0839L21.6145 19.6644C19.1293 17.1882 18.1134 16.2268 17.9138 16.1814C17.7596 16.1451 17.4785 16.1451 17.2789 16.1723C16.9524 16.2268 16.7256 16.4172 15.0748 18.068C14.059 19.0839 13.1701 20.0181 13.0975 20.1542C13.0249 20.2993 12.9705 20.5714 12.9705 20.771C12.9705 21.0522 13.034 21.2063 13.2608 21.4603C13.424 21.6327 13.678 21.8231 13.8322 21.8685C14.0136 21.9289 14.2252 21.9289 14.4671 21.8685C14.7483 21.7959 15.0385 21.5692 15.7823 20.8073C16.3084 20.2812 16.8707 19.7914 17.0249 19.7188C17.288 19.61 17.3696 19.61 17.6417 19.7279C17.8141 19.8005 17.9955 19.9456 18.0499 20.0454C18.0952 20.1451 18.1406 20.3719 18.1406 20.5442C18.1406 20.8254 18.0317 20.9705 17.2971 21.7415C16.8435 22.2222 16.2177 22.7936 15.9184 23.0113C15.619 23.229 15.2109 23.4558 15.0113 23.5102C14.8118 23.5556 14.3855 23.6009 14.059 23.5918C13.6054 23.5918 13.3515 23.5283 12.9252 23.3197C12.6168 23.1746 12.2268 22.8844 12.0272 22.6667C11.8367 22.449 11.5918 22.0862 11.4921 21.8594C11.3923 21.6327 11.2925 21.2064 11.2653 20.907C11.2381 20.5442 11.2744 20.1905 11.3741 19.8639C11.4649 19.5918 11.619 19.2381 11.7188 19.093C11.8277 18.9478 12.4535 18.2676 14.3129 16.3719L14.3764 14.2494L15.1655 13.4512C15.6009 13.0159 16.0544 12.5261 16.1723 12.381C16.2993 12.2358 16.5624 11.7823 16.771 11.3832C16.9705 10.9841 17.2245 10.3311 17.3333 9.93198C17.4875 9.37869 17.5329 8.94331 17.5329 8.07257C17.542 7.26531 17.4966 6.75737 17.3787 6.30386C17.288 5.95012 17.0794 5.38776 16.9252 5.03402C16.7619 4.68027 16.4989 4.19048 16.3265 3.94558C16.1542 3.69161 15.8458 3.30159 15.6281 3.05669C15.4104 2.82086 15.1927 2.64853 15.1474 2.67574C15.093 2.70295 15.0567 3.9093 15.0567 6.00453C15.0567 7.99093 15.0204 9.41496 14.966 9.5873C14.9116 9.77778 14.7755 9.94105 14.6032 10.0227C14.3764 10.1406 13.6871 10.1587 10.2041 10.1587C6.42177 10.1587 6.05896 10.1497 5.85034 9.99546C5.72336 9.91383 5.57823 9.71429 5.52381 9.56916C5.47846 9.41497 5.44218 7.86395 5.44218 2.49433L5.02494 2.90249C4.79819 3.12925 4.44444 3.55556 4.23583 3.85488C4.03628 4.15419 3.73696 4.68027 3.5737 5.03402C3.41043 5.38776 3.21088 5.93198 3.12018 6.25851C3.00227 6.67574 2.95692 7.18368 2.95692 8.02721C2.94785 8.88889 2.9932 9.37869 3.12018 9.84127C3.21088 10.195 3.44671 10.8027 3.63719 11.2018C3.82766 11.6009 4.17234 12.1723 4.39909 12.4717C4.62585 12.771 5.10658 13.288 6.12245 14.2222L6.1678 17.2336L7.31973 17.2608C8.35374 17.2789 8.53515 17.3061 8.92517 17.5057C9.17007 17.6327 9.53288 17.8957 9.73243 18.0952C9.93197 18.2948 10.195 18.6848 10.322 18.9569C10.5034 19.3469 10.5488 19.6009 10.5488 20.1361C10.5488 20.6349 10.4943 20.9342 10.3492 21.2698C10.2404 21.5147 10.059 21.8141 9.95011 21.932C9.75964 22.1315 9.75964 22.1497 9.90476 22.3855C9.98639 22.5215 10.1497 22.7937 10.2585 22.9932C10.3673 23.1927 10.4853 23.5828 10.5306 23.8549C10.576 24.1723 10.5669 24.5533 10.5034 24.898C10.4308 25.2426 10.2857 25.6054 10.0862 25.8957C9.78685 26.3311 9.78685 26.3583 9.93197 26.576C10.0136 26.7029 10.1859 27.0295 10.3129 27.3016C10.4853 27.6735 10.5488 27.9456 10.5488 28.39C10.5488 28.7166 10.4943 29.1429 10.4308 29.3424C10.3673 29.542 10.195 29.8775 10.059 30.0862C9.91383 30.3039 9.79592 30.4943 9.79592 30.5215C9.79592 30.5488 9.91383 30.7392 10.059 30.9478C10.195 31.1655 10.3673 31.5011 10.4308 31.7007C10.5034 31.9002 10.5488 32.3265 10.5488 32.6531C10.5488 33.0794 10.4853 33.3787 10.322 33.7415C10.2041 34.0136 9.97732 34.3855 9.82313 34.5578C9.66893 34.7302 9.35147 34.9841 9.10658 35.1202C8.86168 35.2562 8.39909 35.4014 8.07256 35.4558C7.74603 35.5102 7.24716 35.5556 6.95692 35.5556C6.52154 35.5556 6.43991 35.5828 6.43991 35.7097C6.43991 35.8004 6.56689 36.0726 6.70295 36.3265C6.84807 36.5714 7.1746 36.9705 7.42857 37.2063C7.68254 37.4512 8.14512 37.7596 8.45351 37.9138C8.77097 38.059 9.30612 38.2222 9.65986 38.2676C10.068 38.3311 10.5034 38.3311 10.8844 38.2766C11.2109 38.2313 11.7188 38.068 12.0181 37.9229C12.3175 37.7778 12.7256 37.5147 12.9252 37.3424C13.1247 37.1791 13.4512 36.7982 13.6417 36.4989C13.8413 36.2086 14.0771 35.737 14.1678 35.4649C14.322 35.0113 14.3311 34.6122 14.3311 30.9297C14.3311 28.5351 14.3673 26.7574 14.4218 26.5487C14.4762 26.3673 14.6032 26.1497 14.712 26.0771C14.8299 26.0045 15.0658 25.941 15.2381 25.941C15.4286 25.941 15.6372 26.0136 15.7551 26.1224C15.873 26.2222 15.9728 26.3129 15.9819 26.322C15.9909 26.3401 16.0272 28.0272 16.0998 33.7868L19.6372 33.8322C21.5782 33.8594 23.1837 33.8957 23.1927 33.9048C23.2109 33.9138 23.3016 34.0136 23.4014 34.1224C23.5102 34.2404 23.5828 34.458 23.5828 34.6213C23.5828 34.7846 23.5374 35.0023 23.4921 35.102C23.4376 35.2018 23.3107 35.3379 23.1927 35.3923C23.0476 35.483 22.0408 35.5193 15.9365 35.6009L15.7823 36.0544C15.7007 36.2993 15.5374 36.6893 15.4195 36.9161C15.3016 37.1429 15.0204 37.5601 14.7937 37.8503C14.5669 38.1406 14.1497 38.5578 13.8776 38.7755C13.6054 38.9932 13.1156 39.2925 12.7891 39.4467C12.4626 39.6009 11.9728 39.7914 11.7007 39.8639C11.4104 39.9365 10.8027 40 10.2676 40C9.75964 40 9.15193 39.9546 8.90703 39.9002C8.6712 39.8458 8.09977 39.619 7.63719 39.4014C6.96599 39.0839 6.67574 38.8753 6.14059 38.3401C5.75057 37.9501 5.36054 37.4422 5.17914 37.0975C5.0068 36.771 4.79819 36.2993 4.56236 35.6009L3.52834 35.5465C2.95692 35.5102 2.34921 35.4558 2.17687 35.4195C2.00453 35.3832 1.71429 35.2834 1.54195 35.1927C1.36961 35.102 1.06122 34.8753 0.861678 34.6848C0.662131 34.4853 0.390023 34.1225 0.272109 33.8776C0.117914 33.5692 0.0362812 33.2245 0.0181406 32.7891C0 32.4354 0.0272109 31.9909 0.0725624 31.7914C0.126984 31.5918 0.30839 31.22 0.789116 30.5215L0.571429 30.2494C0.453515 30.1043 0.281179 29.7596 0.181406 29.4966C0.0634921 29.2063 0 28.8073 0 28.4354C0 28.0635 0.0634921 27.6735 0.181406 27.3651C0.281179 27.1111 0.462585 26.7664 0.789116 26.3492L0.480726 25.8957C0.30839 25.6417 0.136054 25.2971 0.0907029 25.1247C0.0362812 24.9524 0 24.5624 0 24.263C0 23.9637 0.0634921 23.5374 0.136054 23.3107C0.217687 23.0839 0.380952 22.7664 0.507936 22.6032C0.62585 22.449 0.725624 22.2676 0.725624 22.2222C0.725624 22.1769 0.60771 21.9592 0.462585 21.7415C0.326531 21.5329 0.163265 21.2154 0.0997732 21.0431C0.0453515 20.8708 0 20.4444 0 20.0907C0 19.6009 0.0544218 19.3379 0.235828 18.9569C0.362812 18.6848 0.61678 18.3039 0.798186 18.1134C0.979592 17.9229 1.33333 17.6508 1.5873 17.5238C1.98639 17.3152 2.17687 17.2789 4.39909 17.1882L4.44444 15.0113L3.73696 14.2857C3.35601 13.8866 2.89342 13.3333 2.71202 13.0612C2.53061 12.7891 2.27664 12.3447 2.14059 12.0816C2.01361 11.8277 1.78685 11.2562 1.64172 10.8118C1.46939 10.322 1.33333 9.63266 1.26077 8.97959C1.17914 8.14513 1.17914 7.7551 1.26984 7.02948C1.33333 6.53061 1.45125 5.87755 1.54195 5.57823C1.63265 5.27891 1.81406 4.77097 1.95011 4.44444C2.08617 4.11791 2.4127 3.52834 2.66667 3.12925C2.92971 2.73016 3.36508 2.1678 3.63719 1.86848C3.9093 1.57823 4.40816 1.12472 4.7619 0.861678C5.10658 0.598639 5.56009 0.299321 5.75964 0.199548C5.95918 0.090704 6.23129 0.00907029 6.36735 0H6.37642Z" fill="#D21341"/>
<path d="M1.81417 19.6013C1.88673 19.4381 2.07721 19.2204 2.22233 19.1297C2.4763 18.9755 2.71213 18.9573 5.26088 18.9573C8.00011 18.9483 8.02732 18.9573 8.34478 19.1659C8.5534 19.302 8.70759 19.5015 8.7983 19.7555C8.91621 20.0911 8.91621 20.1818 8.7983 20.5174C8.70759 20.7714 8.5534 20.9709 8.34478 21.107C8.02732 21.3156 8.00011 21.3247 5.28809 21.3156C3.02959 21.3156 2.49444 21.2884 2.26768 21.1795C2.12256 21.107 1.93208 20.9074 1.85045 20.7532C1.76882 20.59 1.69626 20.3269 1.69626 20.1818C1.68719 20.0367 1.74161 19.7737 1.81417 19.6013Z" fill="#2E3233"/>
<path d="M1.98651 23.4743C2.08628 23.3383 2.30397 23.1841 2.46723 23.1387C2.6305 23.0934 3.94569 23.0571 5.39694 23.0662C7.73707 23.0843 8.0636 23.1025 8.28129 23.2476C8.41735 23.3292 8.58968 23.4925 8.66224 23.6104C8.73481 23.7192 8.82551 23.9551 8.85272 24.1274C8.89807 24.3451 8.86179 24.5537 8.74388 24.7986C8.6441 24.9981 8.44456 25.234 8.29943 25.3247C8.05453 25.4698 7.76428 25.4879 2.44909 25.4879L2.12256 25.1977C1.94115 25.0254 1.76882 24.7623 1.72347 24.5809C1.67812 24.4086 1.67812 24.1455 1.72347 23.9913C1.76882 23.8462 1.88673 23.6104 1.98651 23.4743Z" fill="#2E3233"/>
<path d="M1.88673 27.7555C1.97744 27.6285 2.19512 27.4562 2.36746 27.3746C2.63957 27.2294 2.98424 27.2113 5.30623 27.2113C7.90034 27.2022 7.94569 27.2113 8.25408 27.4108C8.42642 27.5288 8.6441 27.7827 8.74388 27.9823C8.85272 28.2272 8.89807 28.4449 8.85272 28.6444C8.82551 28.7986 8.66224 29.0888 8.18152 29.6149L5.3788 29.6421C2.71213 29.6603 2.57607 29.6512 2.28583 29.4789C2.13163 29.3791 1.92301 29.1886 1.84138 29.0526C1.75068 28.8984 1.68719 28.6353 1.69626 28.3904C1.70533 28.1546 1.78696 27.8916 1.88673 27.7555Z" fill="#2E3233"/>
<path d="M1.95022 31.8281C2.07721 31.6739 2.26768 31.5106 2.3856 31.4743C2.49444 31.429 3.78242 31.3927 5.23367 31.3927C7.24728 31.3836 7.96383 31.4108 8.18152 31.5015C8.34478 31.5741 8.56247 31.7464 8.65317 31.8916C8.76202 32.0548 8.83458 32.3179 8.83458 32.5809C8.84365 32.8712 8.78923 33.0798 8.65317 33.2612C8.5534 33.3972 8.32664 33.5877 8.15431 33.6693C7.8822 33.8145 7.5466 33.8326 5.27902 33.8326C3.37426 33.8326 2.64864 33.8054 2.42188 33.7147C2.26768 33.6512 2.04093 33.4698 1.94115 33.3247C1.83231 33.1795 1.73254 32.9347 1.72347 32.7895C1.70533 32.6444 1.70533 32.4267 1.70533 32.3179C1.7144 32.2 1.82324 31.9823 1.95022 31.8281Z" fill="#2E3233"/>
</svg>
